<svg id="stuff" xmlns="http://www.w3.org/2000/svg" viewBox="0 0 432 144"><defs><style>.cls-1,.cls-2,.cls-3,.cls-4,.cls-5,.cls-6{fill:none;stroke-miterlimit:10;stroke-width:3px;}.cls-1{stroke:#292929;}.cls-2{stroke:#a12f5e;}.cls-3{stroke:#67b6e5;}.cls-4{stroke:#d9be2f;}.cls-5{stroke:#ca4c35;}.cls-6{stroke:#f4801f;}.cls-7{fill:#ca4c35;}.cls-8{fill:#67b6e5;}.cls-9{fill:#a12f5e;}.cls-10{fill:#f4801f;}.cls-11{fill:#d9be2f;}</style></defs><title>434343</title><rect x="-2" width="434" height="145"/><g id="hex"><polygon class="cls-1" points="53.85 19.05 27 3.55 0.15 19.05 0.15 50.05 27 65.55 53.85 50.05 53.85 19.05"/><polygon class="cls-1" points="27.85 66.05 1 50.55 -25.85 66.05 -25.85 97.05 1 112.55 27.85 97.05 27.85 66.05"/><polygon class="cls-1" points="54.85 112.05 28 96.55 1.15 112.05 1.15 143.05 28 158.55 54.85 143.05 54.85 112.05"/><polygon class="cls-1" points="26.85 -27.95 0 -43.45 -26.85 -27.95 -26.85 3.05 0 18.55 26.85 3.05 26.85 -27.95"/><polygon class="cls-1" points="80.85 -27.95 54 -43.45 27.15 -27.95 27.15 3.05 54 18.55 80.85 3.05 80.85 -27.95"/><polygon class="cls-1" points="135.85 66.05 109 50.55 82.15 66.05 82.15 97.05 109 112.55 135.85 97.05 135.85 66.05"/><polygon class="cls-1" points="107.85 19.05 81 3.55 54.15 19.05 54.15 50.05 81 65.55 107.85 50.05 107.85 19.05"/><polygon class="cls-1" points="188.85 -27.95 162 -43.45 135.15 -27.95 135.15 3.05 162 18.55 188.85 3.05 188.85 -27.95"/><polygon class="cls-1" points="242.85 -27.95 216 -43.45 189.15 -27.95 189.15 3.05 216 18.55 242.85 3.05 242.85 -27.95"/><polygon class="cls-1" points="350.85 -26.95 324 -42.45 297.15 -26.95 297.15 4.05 324 19.55 350.85 4.05 350.85 -26.95"/><polygon class="cls-1" points="404.85 -26.95 378 -42.45 351.15 -26.95 351.15 4.05 378 19.55 404.85 4.05 404.85 -26.95"/><polygon class="cls-1" points="216.85 19.05 190 3.55 163.15 19.05 163.15 50.05 190 65.55 216.85 50.05 216.85 19.05"/><polygon class="cls-1" points="324.85 19.05 298 3.55 271.15 19.05 271.15 50.05 298 65.55 324.85 50.05 324.85 19.05"/><polygon class="cls-1" points="433.85 19.05 407 3.55 380.15 19.05 380.15 50.05 407 65.55 433.85 50.05 433.85 19.05"/><polygon class="cls-1" points="352.85 66.05 326 50.55 299.15 66.05 299.15 97.05 326 112.55 352.85 97.05 352.85 66.05"/><polygon class="cls-1" points="460.85 67.05 434 51.55 407.15 67.05 407.15 98.05 434 113.55 460.85 98.05 460.85 67.05"/><polygon class="cls-2" points="18.88 -22.69 0.42 -33.35 -18.04 -22.69 -18.04 -1.38 0.42 9.28 18.88 -1.38 18.88 -22.69"/><polygon class="cls-3" points="72.88 -22.69 54.42 -33.35 35.96 -22.69 35.96 -1.38 54.42 9.28 72.88 -1.38 72.88 -22.69"/><polygon class="cls-1" points="180.88 -22.69 162.42 -33.35 143.96 -22.69 143.96 -1.38 162.42 9.28 180.88 -1.38 180.88 -22.69"/><polygon class="cls-1" points="234.88 -22.69 216.42 -33.35 197.96 -22.69 197.96 -1.38 216.42 9.28 234.88 -1.38 234.88 -22.69"/><polygon class="cls-4" points="180.88 -22.69 162.42 -33.35 143.96 -22.69 143.96 -1.38 162.42 9.28 180.88 -1.38 180.88 -22.69"/><polygon class="cls-5" points="234.88 -22.69 216.42 -33.35 197.96 -22.69 197.96 -1.38 216.42 9.28 234.88 -1.38 234.88 -22.69"/><polygon class="cls-6" points="396.88 -22.69 378.42 -33.35 359.96 -22.69 359.96 -1.38 378.42 9.28 396.88 -1.38 396.88 -22.69"/><polygon class="cls-3" points="342.88 -22.69 324.42 -33.35 305.96 -22.69 305.96 -1.38 324.42 9.28 342.88 -1.38 342.88 -22.69"/><polygon class="cls-2" points="18.88 71.31 0.42 60.65 -18.04 71.31 -18.04 92.63 0.42 103.28 18.88 92.63 18.88 71.31"/><polygon class="cls-7" points="7.68 76.95 0.02 72.53 -7.64 76.95 -7.64 85.8 0.02 90.22 7.68 85.8 7.68 76.95"/><polygon class="cls-6" points="127.88 71.31 109.42 60.65 90.96 71.31 90.96 92.63 109.42 103.28 127.88 92.63 127.88 71.31"/><polygon class="cls-8" points="116.68 76.95 109.02 72.53 101.36 76.95 101.36 85.8 109.02 90.22 116.68 85.8 116.68 76.95"/><polygon class="cls-3" points="344.88 71.31 326.42 60.65 307.96 71.31 307.96 92.63 326.42 103.28 344.88 92.63 344.88 71.31"/><polygon class="cls-9" points="333.68 76.95 326.02 72.53 318.36 76.95 318.36 85.8 326.02 90.22 333.68 85.8 333.68 76.95"/><polygon class="cls-10" points="441.68 76.95 434.02 72.53 426.36 76.95 426.36 85.8 434.02 90.22 441.68 85.8 441.68 76.95"/><polygon class="cls-4" points="452.88 71.31 434.42 60.65 415.96 71.31 415.96 92.63 434.42 103.28 452.88 92.63 452.88 71.31"/><polygon class="cls-4" points="45.88 24.31 27.42 13.65 8.96 24.31 8.96 45.63 27.42 56.28 45.88 45.63 45.88 24.31"/><polygon class="cls-10" points="34.68 29.95 27.02 25.53 19.36 29.95 19.36 38.8 27.02 43.22 34.68 38.8 34.68 29.95"/><polygon class="cls-5" points="99.88 24.31 81.42 13.65 62.96 24.31 62.96 45.63 81.42 56.28 99.88 45.63 99.88 24.31"/><polygon class="cls-11" points="88.68 29.95 81.02 25.53 73.36 29.95 73.36 38.8 81.02 43.22 88.68 38.8 88.68 29.95"/><polygon class="cls-7" points="198.68 29.95 191.02 25.53 183.36 29.95 183.36 38.8 191.02 43.22 198.68 38.8 198.68 29.95"/><polygon class="cls-2" points="208.88 24.31 190.42 13.65 171.96 24.31 171.96 45.63 190.42 56.28 208.88 45.63 208.88 24.31"/><polygon class="cls-4" points="316.88 24.31 298.42 13.65 279.96 24.31 279.96 45.63 298.42 56.28 316.88 45.63 316.88 24.31"/><polygon class="cls-3" points="424.88 24.31 406.42 13.65 387.96 24.31 387.96 45.63 406.42 56.28 424.88 45.63 424.88 24.31"/><polygon class="cls-9" points="413.68 29.95 406.02 25.53 398.36 29.95 398.36 38.8 406.02 43.22 413.68 38.8 413.68 29.95"/><polygon class="cls-4" points="46.88 118.31 28.42 107.65 9.96 118.31 9.96 139.63 28.42 150.28 46.88 139.63 46.88 118.31"/></g></svg>