<svg id="Layer_2" data-name="Layer 2" xmlns="http://www.w3.org/2000/svg" viewBox="0 0 268.61 612.83"><defs><style>.cls-1,.cls-4{fill:none;}.cls-1{stroke:#db341d;stroke-width:15px;}.cls-1,.cls-2,.cls-3,.cls-4{stroke-miterlimit:10;}.cls-2{fill:#fff;stroke:#c4c4c4;}.cls-2,.cls-3,.cls-4{stroke-width:5px;}.cls-3{fill:#eace8b;}.cls-3,.cls-4{stroke:#917d59;}.cls-5{fill:#ddd;}</style></defs><title>milkshake-icon</title><line class="cls-1" x1="261.54" y1="2.51" x2="179.39" y2="234.3"/><path class="cls-2" d="M186.11,230.4c-.41-1.93-2.71-13.46,2.93-23.2,5.89-10.15,18-14.2,29.34-8.92,1.39-3.22,6.52-14.12,17.6-19.63,14.44-7.17,27.39.57,29.34,1.78,1.34-2.43,9.39-16.48,24.94-19.63,17-3.45,29.17,9,30.81,10.71a29.63,29.63,0,0,1,27.87,3.57c12.57,8.91,15.66,24.21,16.14,26.77A33.06,33.06,0,0,1,388.56,209c11.78,9.19,15.34,23.26,16.14,26.77L306.4,250.92Z" transform="translate(-173.96 -11.49)"/><path class="cls-3" d="M179.5,221.58a530.79,530.79,0,0,0,104.16,13.2,531.25,531.25,0,0,0,126.16-11.74c.36,13.56.6,32.76,0,55.75-.91,35-2.21,84.49-11.74,130.57-7,33.73-22.54,85.81-61.62,145.24-4.7,5-5.66,9.27-5.87,11.74-1,12.21,12.78,26.27,35.21,32.27a109.4,109.4,0,0,1-24.94,14.67c-32.7,13.75-63.36,7.52-77.75,4.4a154.82,154.82,0,0,1-42.54-16.14,41.86,41.86,0,0,0,24.94-14.67,41.24,41.24,0,0,0,8.8-22c-1.12-1.89-2.8-4.76-4.8-8.26a556.81,556.81,0,0,1-73-288.07C177,249.21,178.3,233.08,179.5,221.58Z" transform="translate(-173.96 -11.49)"/><path class="cls-4" d="M387.82,330.14c1.67-5.1,5.06-17.83-1.47-27.87-4.11-6.33-11.34-10.33-14.67-10.27-11.5.19-25.77,49.41-41.08,234.72" transform="translate(-173.96 -11.49)"/><path class="cls-4" d="M339.41,325.74c.66-3.47,2.51-15.32-4.4-22-6.06-5.87-15.78-4.78-17.6-4.4-12,2.52-21.51,46.19-10.27,227.39" transform="translate(-173.96 -11.49)"/><path class="cls-4" d="M285.13,325.74c.52-3.43,2.58-19-5.87-24.94,0,0-6-4.24-14.67-1.47-11.14,3.56-16.09,47.94,11.74,228.86" transform="translate(-173.96 -11.49)"/><path class="cls-4" d="M226.45,328.68c6-10.64,5.9-22.27,0-29.34-5.74-6.88-17-9.55-23.47-5.87-7.21,4.13-12.65,18.77,2.93,85.09a850.25,850.25,0,0,0,49.88,148.17" transform="translate(-173.96 -11.49)"/><path class="cls-4" d="M244.79,545.17c9.59,18,27.79,29.5,47.62,30,21.61.51,41.77-12.14,51.4-32.27" transform="translate(-173.96 -11.49)"/><path class="cls-4" d="M288.06,230.39" transform="translate(-173.96 -11.49)"/><path class="cls-5" d="M205.54,216.42c6-9.17,17.73-2.08,24.53,1.84s13.46,6,21.28,5.32c1.91-.16,1.93-3.16,0-3a30.56,30.56,0,0,1-17.59-3.69c-4.24-2.29-8.22-5.18-12.82-6.74-6.44-2.19-14.05-1.22-18,4.76-1.06,1.62,1.53,3.12,2.59,1.51Z" transform="translate(-173.96 -11.49)"/><path class="cls-5" d="M245.66,191.17c-7.26,2.54-7.94,11.4-3.39,16.82,6.8,8.1,19.72,9.55,29.52,8.38,12.14-1.45,23-6.77,33.7-12.3,11-5.68,28.06-12,36.95.78,1.1,1.57,3.7.08,2.59-1.51-11.39-16.35-32.1-6.44-45.75.59-10.08,5.19-21.2,9.66-32.7,9.81a35.11,35.11,0,0,1-16.74-3.65c-2.93-1.54-6.15-4-7.18-7.28s.21-7.49,3.8-8.74c1.81-.63,1-3.53-.8-2.89Z" transform="translate(-173.96 -11.49)"/><path class="cls-5" d="M308,181.11c-2-4.73-6.26-7.66-11.2-8.82-3.7-.87-11.63-2.26-14.72.79-3.69,3.65-.66,12.07-.05,16.3.51,3.53.71,7.59-1.28,10.75-4.48,7.11-14,1.47-11.84-5.76a1.5,1.5,0,0,0-2.89-.8c-3.28,11.23,12,17.91,17.62,7.52,3.06-5.65,1.22-11.88.34-17.8a25.91,25.91,0,0,1-.42-4.9q.86-4.27,4.34-3.76a17.69,17.69,0,0,1,5.15.09c5.35.53,10.18,2.75,12.37,7.9.76,1.77,3.34.24,2.59-1.51Z" transform="translate(-173.96 -11.49)"/><path class="cls-5" d="M374.83,216.81c-13.29-4.32-25.28-6.78-38,.16A52.08,52.08,0,0,1,293,220.34c-1.81-.67-2.59,2.22-.8,2.89a54.27,54.27,0,0,0,38,.14c6.73-2.54,12.46-7.18,19.78-7.94,8.2-.86,16.31,1.77,24,4.28,1.84.6,2.63-2.3.8-2.89Z" transform="translate(-173.96 -11.49)"/></svg>