<svg xmlns="http://www.w3.org/2000/svg" viewBox="0 0 372.02 202.37"><defs><style>.cls-1{fill:#6bae9c;}.cls-2{fill:#83c3a3;}.cls-2,.cls-3{stroke:#908c90;stroke-width:0.75px;}.cls-2,.cls-3,.cls-4{stroke-miterlimit:10;}.cls-3{fill:#d4ddaa;}.cls-4{fill:none;stroke:#807c79;stroke-width:2px;}</style></defs><title>athenasign</title><g id="Layer_4" data-name="Layer 4"><polygon class="cls-1" points="46.4 29.29 46.18 47.94 57.15 47.94 46.4 29.29"/><polygon class="cls-1" points="326.91 28.78 327.13 47.43 316.15 47.43 326.91 28.78"/></g><g id="Layer_2" data-name="Layer 2"><path class="cls-2" d="M47,28.77A18.1,18.1,0,0,0,20.32,48.31L13.54,49.5,10,196.24,364.43,195,360.05,50.3l-4.79-1.59c2.18-7,.34-10.72-.4-12-3.52-6-12.79-7-21.53-8-2.69-.3-4.92-.38-6.38-.4l.4,19.54H289.87l-.8-28.31L86.51,19.2,85.32,48.71l-39.08-1.2Z"/></g><g id="Layer_3" data-name="Layer 3"><rect class="cls-3" x="40.67" y="71.87" width="292.57" height="30.29"/><rect class="cls-3" x="40.33" y="117.09" width="292.57" height="30.29"/><rect class="cls-3" x="39.98" y="159.26" width="292.57" height="30.29"/></g><g id="Layer_5" data-name="Layer 5"><path class="cls-4" d="M13,66.76a36.15,36.15,0,0,1,5.15-1.29,38.21,38.21,0,0,1,10.69-.37L340.66,65l17.25.18a4.25,4.25,0,0,1,1.62.27,4.19,4.19,0,0,1,1.88,1.49"/><path class="cls-4" d="M12.75,70.05a37.71,37.71,0,0,1,5.16-1.29,38.14,38.14,0,0,1,10.68-.37l311.82-.1,17.25.18a4.25,4.25,0,0,1,1.62.27,4.19,4.19,0,0,1,1.88,1.49"/><path class="cls-4" d="M12.74,110.53a38,38,0,0,1,5.18-1.3,39,39,0,0,1,10.74-.37l313.4-.09,17.33.18a4.08,4.08,0,0,1,1.63.27,4.17,4.17,0,0,1,1.89,1.49"/><path class="cls-4" d="M12.49,113.82a36.61,36.61,0,0,1,5.18-1.29,39,39,0,0,1,10.74-.38l313.4-.09,17.33.18a4.27,4.27,0,0,1,1.63.27,4.17,4.17,0,0,1,1.89,1.49"/><path class="cls-4" d="M10.62,153.84a40.08,40.08,0,0,1,5.21-1.29,39,39,0,0,1,10.8-.37l315.23-.09,17.44.17a4.14,4.14,0,0,1,3.54,1.76"/><path class="cls-4" d="M10.37,157.13a40.08,40.08,0,0,1,5.21-1.29,39,39,0,0,1,10.8-.37l315.23-.09,17.44.17a4.14,4.14,0,0,1,3.54,1.76"/><path class="cls-4" d="M8.58,193.67a9.79,9.79,0,0,0,1.47.42,11.5,11.5,0,0,0,5.46-.21H350.15c2.59,0,5.25.05,8,0q3.64,0,7.13-.21"/><path class="cls-4" d="M8.23,197.07a11.12,11.12,0,0,0,1.47.42,11.5,11.5,0,0,0,5.46-.21H349.81q3.87.06,8,0,3.64-.06,7.13-.21"/></g></svg>