<?xml version="1.0" encoding="utf-8"?>
<!-- Generator: Adobe Illustrator 22.0.0, SVG Export Plug-In . SVG Version: 6.00 Build 0)  -->
<svg version="1.1" id="Layer_1" xmlns="http://www.w3.org/2000/svg" xmlns:xlink="http://www.w3.org/1999/xlink" x="0px" y="0px"
	 viewBox="0 0 739.8 309.9" style="enable-background:new 0 0 739.8 309.9;" xml:space="preserve">
<style type="text/css">
	.st0{fill:#EDA4B7;}
	.st1{fill:#2A2627;}
	.st2{fill:#D6D5D0;}
	.st3{fill:#0E0D0D;}
	.st4{fill:#444042;}
	.st5{fill:#363032;}
	.st6{fill:#161213;}
	.st7{fill:#3C3636;}
	.st8{fill:#C6C3BE;}
	.st9{fill:#C9C6BE;stroke:#414042;stroke-width:4;stroke-miterlimit:10;}
	.st10{fill:none;stroke:#0B0808;stroke-width:10;stroke-miterlimit:10;}
	.st11{fill:#C9C6BE;stroke:#414042;stroke-width:3;stroke-miterlimit:10;}
	.st12{fill:#BE1E2D;}
	.st13{fill:#D6D5D0;stroke:#000000;stroke-width:2;stroke-miterlimit:10;}
	.st14{fill:none;}
	.st15{font-family:'Montserrat-Regular';}
	.st16{font-size:8px;}
</style>
<g id="Layer_2_1_">
	<rect class="st0" width="739.8" height="309.9"/>
</g>
<g id="Layer_1_1_">
	<path class="st1" d="M699.1,285.2H40.7c-6.6,0-12-5.4-12-12V71c0-6.6,5.4-12,12-12h658.4c6.6,0,12,5.4,12,12v202.2
		C711.1,279.8,705.7,285.2,699.1,285.2z"/>
	<path class="st2" d="M675.4,254.6H64c-6.6,0-12-5.4-12-12V95.8c0-6.6,5.4-12,12-12h611.4c6.6,0,12,5.4,12,12v146.8
		C687.4,249.2,682,254.6,675.4,254.6z"/>
	<path class="st3" d="M171.1,140.5c0,0,16.3,36.9,4.7,77.4H597l-10-77.4H171.1z"/>
	<path class="st4" d="M634.8,103.7v22.1h22.1v-15c0,0,1.6-7.2-6.8-7.2C641.7,103.7,634.8,103.7,634.8,103.7z"/>
	<path class="st5" d="M687.4,233.9v13.7c0,6.6-5.5,12-12.3,12H64.3c-6.8,0-12.3-5.4-12.3-12v-13.7L687.4,233.9L687.4,233.9z"/>
	<rect x="164.7" y="103.7" class="st6" width="458" height="22.1"/>
	<rect x="68.9" y="103.7" class="st4" width="19" height="11.1"/>
	<polygon class="st4" points="68.9,135.8 68.9,149 81.5,149 89.9,135.8 	"/>
	<rect x="206.2" y="239.9" class="st4" width="15.3" height="12.8"/>
	<rect x="286.6" y="239.9" class="st4" width="32.1" height="12.8"/>
	<rect x="333.6" y="239.9" class="st4" width="32.1" height="12.8"/>
	<rect x="380.7" y="239.9" class="st4" width="32.1" height="12.8"/>
	<rect x="427.7" y="239.9" class="st4" width="32.1" height="12.8"/>
	<rect x="474.7" y="239.9" class="st4" width="32.1" height="12.8"/>
	<rect x="239.5" y="239.9" class="st4" width="32.1" height="12.8"/>
	<rect x="531.6" y="239.9" class="st4" width="50" height="12.8"/>
	<circle class="st7" cx="141.2" cy="180.2" r="51.3"/>
	<circle class="st8" cx="141.2" cy="180.2" r="44.4"/>
	<circle class="st9" cx="141.2" cy="180.2" r="39.7"/>
	<path class="st10" d="M675.4,263.6H64c-6.6,0-12-5.4-12-12V91.7c0-6.6,5.4-12,12-12h611.4c6.6,0,12,5.4,12,12v159.9
		C687.4,258.2,682,263.6,675.4,263.6z"/>
	<circle class="st7" cx="597" cy="178.4" r="39.5"/>
	<circle class="st8" cx="597" cy="178.4" r="34.2"/>
	<circle class="st11" cx="597" cy="178.4" r="30.6"/>
	<circle class="st4" cx="76.3" cy="246.3" r="6.4"/>
	<rect x="73.6" y="244.1" class="st12" width="5.5" height="5.3"/>
	<polygon class="st2" points="645.7,113.7 651.1,121.3 645.7,121.3 	"/>
	<polygon class="st2" points="645.7,113.7 640.3,121.3 645.7,121.3 	"/>
	<circle class="st13" cx="661.6" cy="238.3" r="10.6"/>
	<circle class="st3" cx="661.6" cy="238.3" r="6.6"/>
</g>
<rect x="640.3" y="288.2" class="st14" width="64.2" height="16"/>
<text transform="matrix(1 0 0 1 640.2999 294.1356)" class="st15 st16">ABBY GORDON</text>
</svg>
