<svg xmlns="http://www.w3.org/2000/svg" xmlns:xlink="http://www.w3.org/1999/xlink" viewBox="0 0 1280.06 452.8"><defs><style>.cls-1{fill:#fff;}.cls-2{fill:#e0c288;}.cls-3{fill:#777575;}.cls-4{fill:url(#linear-gradient);}.cls-5{fill:url(#linear-gradient-2);}.cls-6{fill:url(#linear-gradient-3);}.cls-7{fill:#cfa582;}.cls-8{fill:#020202;}.cls-9{fill:#f2e6d1;}</style><linearGradient id="linear-gradient" x1="640" y1="452.8" x2="640" y2="179.87" gradientUnits="userSpaceOnUse"><stop offset="0" stop-color="#991e27"/><stop offset="1" stop-color="#6f0b14"/></linearGradient><linearGradient id="linear-gradient-2" x1="454.29" y1="364.55" x2="1240.61" y2="364.55" gradientUnits="userSpaceOnUse"><stop offset="1" stop-color="#6f0b14"/><stop offset="1" stop-color="#710c15"/><stop offset="1" stop-color="#780f18"/><stop offset="1" stop-color="#83141d"/><stop offset="1" stop-color="#941c25"/><stop offset="1" stop-color="#991e27"/></linearGradient><linearGradient id="linear-gradient-3" x1="41.46" y1="360.32" x2="528.17" y2="360.32" gradientUnits="userSpaceOnUse"><stop offset="0" stop-color="#991e27"/><stop offset="0.06" stop-color="#6f0b14"/></linearGradient></defs><title>oscars</title><g id="Layer_7" data-name="Layer 7"><polygon class="cls-1" points="140.78 132.62 47.02 132.62 93.9 179.5 140.78 132.62"/><polygon class="cls-1" points="328.44 132.51 234.68 132.51 281.56 179.38 328.44 132.51"/><polygon class="cls-1" points="234.54 132.28 140.78 132.28 187.66 179.16 234.54 132.28"/><polygon class="cls-1" points="93.9 85.74 0.14 85.74 47.02 132.62 93.9 85.74"/><polygon class="cls-1" points="281.56 85.63 187.8 85.63 234.68 132.51 281.56 85.63"/><polygon class="cls-1" points="187.66 85.4 93.9 85.4 140.78 132.28 187.66 85.4"/><polygon class="cls-1" points="140.78 38.86 47.02 38.86 93.9 85.74 140.78 38.86"/><polygon class="cls-1" points="328.44 38.75 234.68 38.75 281.56 85.63 328.44 38.75"/><polygon class="cls-1" points="234.54 38.52 140.78 38.52 187.66 85.4 234.54 38.52"/><path class="cls-1" d="M47,36.66" transform="translate(0 2.2)"/><path class="cls-1" d="M234.68,36.55" transform="translate(0 2.2)"/><path class="cls-1" d="M140.78,36.32" transform="translate(0 2.2)"/><polygon class="cls-1" points="516.1 132.45 422.34 132.45 469.22 179.33 516.1 132.45"/><polygon class="cls-1" points="656.74 179.21 562.98 179.21 609.86 132.34 656.74 179.21"/><polygon class="cls-1" points="703.76 132.34 610 132.34 656.88 179.21 703.76 132.34"/><polygon class="cls-1" points="609.86 132.11 516.1 132.11 562.98 178.99 609.86 132.11"/><polygon class="cls-1" points="469.22 85.57 375.46 85.57 422.34 132.45 469.22 85.57"/><polygon class="cls-1" points="656.88 85.46 563.12 85.46 610 132.34 656.88 85.46"/><polygon class="cls-1" points="562.98 85.23 469.22 85.23 516.1 132.11 562.98 85.23"/><polygon class="cls-1" points="516.1 38.69 422.34 38.69 469.22 85.57 516.1 38.69"/><polygon class="cls-1" points="703.76 38.58 610 38.58 656.88 85.46 703.76 38.58"/><polygon class="cls-1" points="609.86 38.35 516.1 38.35 562.98 85.23 609.86 38.35"/><polygon class="cls-1" points="458.63 2.17 385.79 2.28 422.34 38.69 458.63 2.17"/><polygon class="cls-1" points="552.28 2.4 479.97 2.22 516.1 38.35 552.28 2.4"/><path class="cls-1" d="M328.44,36.66" transform="translate(0 2.2)"/><polygon class="cls-1" points="422.34 38.86 328.58 38.86 375.46 85.74 422.34 38.86"/><polygon class="cls-1" points="375.46 86.12 281.7 86.12 328.58 133 375.46 86.12"/><polygon class="cls-1" points="422.34 132.62 328.58 132.62 375.46 179.5 422.34 132.62"/><polygon class="cls-1" points="891.42 132.59 797.66 132.59 844.54 179.47 891.42 132.59"/><polygon class="cls-1" points="1032.05 179.36 938.3 179.36 985.17 132.48 1032.05 179.36"/><polygon class="cls-1" points="1079.08 132.48 985.32 132.48 1032.2 179.36 1079.08 132.48"/><polygon class="cls-1" points="985.17 132.25 891.42 132.25 938.3 179.13 985.17 132.25"/><polygon class="cls-1" points="844.54 85.71 750.78 85.71 797.66 132.59 844.54 85.71"/><polygon class="cls-1" points="1032.2 85.6 938.44 85.6 985.32 132.48 1032.2 85.6"/><polygon class="cls-1" points="938.3 85.37 844.54 85.37 891.42 132.25 938.3 85.37"/><polygon class="cls-1" points="891.42 38.83 797.66 38.83 844.54 85.71 891.42 38.83"/><polygon class="cls-2" points="1125.95 85.37 1032.2 85.37 1079.08 38.49 1125.95 85.37"/><polygon class="cls-1" points="1079.08 38.72 985.32 38.72 1032.2 85.6 1079.08 38.72"/><polygon class="cls-1" points="985.17 38.49 891.42 38.49 938.3 85.37 985.17 38.49"/><path class="cls-1" d="M797.66,36.63" transform="translate(0 2.2)"/><path class="cls-1" d="M1032.2-10.36" transform="translate(0 2.2)"/><path class="cls-1" d="M985.32,36.52" transform="translate(0 2.2)"/><path class="cls-1" d="M891.42,36.29" transform="translate(0 2.2)"/><polyline class="cls-1" points="1280 179.07 1219.86 179.07 1266.73 132.19"/><line class="cls-1" x1="1266.74" y1="132.08" x2="1280.06" y2="145.4"/><path class="cls-1" d="M1360.49,129.88" transform="translate(0 2.2)"/><polygon class="cls-1" points="1219.86 85.54 1126.1 85.54 1172.98 132.42 1219.86 85.54"/><line class="cls-1" x1="1219.86" y1="85.2" x2="1266.74" y2="132.08"/><polygon class="cls-1" points="1266.73 38.66 1172.98 38.66 1219.86 85.54 1266.73 38.66"/><path class="cls-1" d="M1266.74,36.12" transform="translate(0 2.2)"/><polygon class="cls-1" points="1209.24 2.17 1136.45 2.28 1172.98 38.66 1209.24 2.17"/><polygon class="cls-3" points="93.76 179.5 0 179.5 46.88 132.62 93.76 179.5"/><polygon class="cls-3" points="187.66 179.27 93.9 179.27 140.78 132.39 187.66 179.27"/><polygon class="cls-2" points="281.42 179.38 187.66 179.38 234.54 132.51 281.42 179.38"/><polygon class="cls-3" points="375.32 179.16 281.56 179.16 328.44 132.28 375.32 179.16"/><polyline class="cls-2" points="0 85.74 46.88 132.62 0.14 132.62"/><polygon class="cls-3" points="140.78 132.39 47.02 132.39 93.9 85.51 140.78 132.39"/><polygon class="cls-3" points="234.54 132.51 140.78 132.51 187.66 85.63 234.54 132.51"/><polygon class="cls-3" points="328.44 132.28 234.68 132.28 281.56 85.4 328.44 132.28"/><polygon class="cls-3" points="93.76 85.74 0 85.74 46.88 38.86 93.76 85.74"/><polygon class="cls-3" points="187.66 85.51 93.9 85.51 140.78 38.63 187.66 85.51"/><polygon class="cls-2" points="281.42 85.63 187.66 85.63 234.54 38.75 281.42 85.63"/><polygon class="cls-3" points="375.32 85.4 281.56 85.4 328.44 38.52 375.32 85.4"/><polyline class="cls-2" points="0.14 2.28 10.44 2.28 47.02 38.86 0.14 38.86"/><polyline class="cls-3" points="103.91 1.76 140.78 38.63 47.02 38.63 83.37 2.28"/><polyline class="cls-2" points="198.07 2.28 234.54 38.75 140.78 38.75 177.25 2.28"/><polyline class="cls-3" points="292.03 2.11 328.44 38.52 234.68 38.52 270.92 2.28"/><polygon class="cls-2" points="469.08 179.33 375.32 179.33 422.2 132.45 469.08 179.33"/><polygon class="cls-3" points="562.98 179.1 469.22 179.1 516.1 132.22 562.98 179.1"/><polygon class="cls-3" points="750.64 178.99 656.88 178.99 703.76 132.11 750.64 178.99"/><polygon class="cls-3" points="422.2 132.45 328.44 132.45 375.32 85.57 422.2 132.45"/><polygon class="cls-3" points="516.1 132.22 422.34 132.22 469.22 85.34 516.1 132.22"/><polygon class="cls-3" points="609.86 132.34 516.1 132.34 562.98 85.46 609.86 132.34"/><polygon class="cls-3" points="703.76 132.11 610 132.11 656.88 85.23 703.76 132.11"/><polygon class="cls-2" points="469.08 85.57 375.32 85.57 422.2 38.69 469.08 85.57"/><polygon class="cls-3" points="562.98 85.34 469.22 85.34 516.1 38.46 562.98 85.34"/><polygon class="cls-3" points="656.74 85.46 562.98 85.46 609.86 38.58 656.74 85.46"/><polygon class="cls-3" points="750.64 85.23 656.88 85.23 703.76 38.35 750.64 85.23"/><polyline class="cls-3" points="385.79 2.28 422.2 38.69 328.44 38.69 364.93 2.2"/><polyline class="cls-3" points="479.84 2.2 516.1 38.46 422.34 38.46 458.63 2.17"/><polyline class="cls-3" points="573.56 2.28 609.86 38.58 516.1 38.58 552.28 2.4"/><polygon class="cls-3" points="844.39 179.47 750.64 179.47 797.52 132.59 844.39 179.47"/><polygon class="cls-3" points="938.3 179.24 844.54 179.24 891.42 132.36 938.3 179.24"/><polygon class="cls-3" points="1125.95 179.13 1032.2 179.13 1079.08 132.25 1125.95 179.13"/><polygon class="cls-3" points="797.52 132.59 703.76 132.59 750.64 85.71 797.52 132.59"/><polygon class="cls-3" points="891.42 132.36 797.66 132.36 844.54 85.48 891.42 132.36"/><polygon class="cls-3" points="985.17 132.48 891.42 132.48 938.3 85.6 985.17 132.48"/><polygon class="cls-3" points="1079.08 132.25 985.32 132.25 1032.2 85.37 1079.08 132.25"/><polygon class="cls-3" points="844.39 85.71 750.64 85.71 797.52 38.83 844.39 85.71"/><polygon class="cls-3" points="938.3 85.48 844.54 85.48 891.42 38.6 938.3 85.48"/><polygon class="cls-3" points="1032.05 85.6 938.3 85.6 985.17 38.72 1032.05 85.6"/><polyline class="cls-3" points="760.97 2.28 797.52 38.83 703.76 38.83 740.31 2.28"/><polyline class="cls-3" points="855.09 2.28 891.42 38.6 797.66 38.6 833.98 2.28"/><polyline class="cls-3" points="948.74 2.28 985.17 38.72 891.42 38.72 927.85 2.28"/><polyline class="cls-3" points="1042.44 2.2 1079.08 38.83 985.32 38.83 1021.87 2.28"/><polygon class="cls-2" points="1219.71 179.3 1125.95 179.3 1172.83 132.42 1219.71 179.3"/><polygon class="cls-1" points="1266.73 132.42 1172.98 132.42 1219.86 179.3 1266.73 132.42"/><polygon class="cls-3" points="1172.83 132.42 1079.08 132.42 1125.95 85.54 1172.83 132.42"/><polygon class="cls-3" points="1266.73 132.19 1172.98 132.19 1219.86 85.31 1266.73 132.19"/><polyline class="cls-3" points="1280.01 132.31 1266.73 132.31 1279.9 119.15"/><path class="cls-3" d="M1360.49,130.11" transform="translate(0 2.2)"/><polygon class="cls-3" points="1219.71 85.54 1125.95 85.54 1172.83 38.66 1219.71 85.54"/><polyline class="cls-2" points="1280.01 85.31 1219.86 85.31 1266.73 38.44 1279.91 51.61"/><polygon class="cls-3" points="1172.83 38.66 1079.08 38.66 1115.63 2.28 1136.45 2.28 1172.83 38.66"/><polyline class="cls-3" points="1230.58 2.28 1266.73 38.44 1172.98 38.44 1209.24 2.17"/><polyline class="cls-3" points="1280.01 38.55 1266.73 38.55 1280.02 25.04"/><polygon class="cls-1" points="1280.01 2.2 1230.58 2.28 1266.73 38.32 1280.02 25.04 1280.01 2.2"/><polygon class="cls-1" points="1115.63 2.28 1042.44 2.2 1079.08 38.83 1115.63 2.28 1115.63 2.28"/><polygon class="cls-1" points="1172.98 38.83 1079.22 38.83 1126.1 85.71 1172.98 38.83"/><polygon class="cls-1" points="1126.1 86.09 1032.34 86.09 1079.22 132.97 1126.1 86.09"/><polygon class="cls-1" points="1172.98 132.59 1079.22 132.59 1126.1 179.47 1172.98 132.59"/><polyline class="cls-3" points="1280 179.07 1219.86 179.07 1266.73 132.19 1280.06 145.51"/></g><g id="Layer_1" data-name="Layer 1"><rect class="cls-4" y="179.87" width="1280" height="272.93"/></g><g id="Layer_2" data-name="Layer 2"><path class="cls-5" d="M454.41,398.53s18.58,3.87,27.06,1,47.06,18.26,81.51,9.55,64.07,14.51,140.78-9.55,80,27.79,211,19.91,89.29-28.22,151.83-19.91,100.83-13,153.29-14.79-10.06-72-18.53-71.17c-69.08,7.17-91.63,10.73-122.11,3.72-80.23-18.46-52.22-.89-102,0s-6.38,17.79-74.79,0-216.66,24.55-216.66,24.55S448.36,381.79,454.41,398.53Z" transform="translate(0 2.2)"/><path class="cls-6" d="M41.46,311.35s7.79,8.84,8.76,13.62,23.43,8.37,23.43,8.37l-5.82,10.93s18.72,2.61,19.72,2.81,33-6.55,44.8,13.89c0,0,25.3-2.56,27.1.85s23.66,2.83,31.14,19.74l5.2,2.95s21.87.18,25.56,4.73c0,0,9.08-2.71,13.48,1.19s13.28.87,13.28.87,21.23-4.45,24.92-4.23,16.14-4.77,17.88-1.52,14.19-5,37.37,10.73c0,0,5.92,2.43,11.05,0s25.15.23,25.15.23,25-4.56,41.92.2,18.84-2.82,41.71,1.79,39,0,39,0,30.15,10.13,38.2,10.78-3.53-29.69-3.53-29.69Z" transform="translate(0 2.2)"/></g><g id="Layer_4" data-name="Layer 4"><path class="cls-7" d="M1031.7,107.36a578.38,578.38,0,0,1-7,81.64c-1,6.18-2.13,12.47-3.42,18.76-10.38,50.27,2.25,82.55,2.25,82.55s.54,44.32-1.45,56.29,9.57,22.74,9.57,22.74S979,404,975.05,290.31l-4.65-14.43a21.81,21.81,0,0,0,8.71-20.81c-1.74-14.12-13.52-74.34-13-113.16,0,0-1.94-10.84,9.13-20.38C983.82,114.11,1000.31,107.48,1031.7,107.36Z" transform="translate(0 2.2)"/><path class="cls-7" d="M852.9,107.36s-16.19,51.83-22.45,103-26.63,44.39-29.82,49.37-22.31,133.65,14.54,105.36l28.88.8s-10.75-15.71,11-68.31c0,0,5.57-9,6.57-32.67s30.58-97.78,48.62-122.68,13.72-34.86,13.72-34.86Z" transform="translate(0 2.2)"/></g><g id="Layer_3" data-name="Layer 3"><path class="cls-8" d="M973.06,275.52c-1-1.39-2.71,0-4.27.68-6.2,2.86-21.44,11.62-22.28,29.09-1.06,22,5.56,7.94,5.29,49.76v22.66a3.54,3.54,0,0,0,3.55,3.54h0l3.54-3.54V328.19s-.74-9.4,9.85,0,16.41,26.07,18,37.71,9.53,22.5,23.29,22.76,42.61-.26,52.67-6.35-2.65-10.85-2.65-10.85-19.16-8.59-33.14-8.91a3.85,3.85,0,0,0-1.46.26c-4.6,1.73-31.33,10.61-33.92-9.12a3.43,3.43,0,0,0-.09-.44c-.81-2.9-9.71-35-10.36-44.83C980.38,297.87,979.21,284.11,973.06,275.52Z" transform="translate(0 2.2)"/><path class="cls-8" d="M970.92,276.08s-.24-4.48,3.23-6.41l48.71,15.65s2.13,3.48,0,6.38l-51.94-15.62" transform="translate(0 2.2)"/><path class="cls-8" d="M807.12,256.05s-2.93.49-2.93,15.39-5.86,46.41-9.28,70.59c0,0-2.44,10.26,11,14.9,0,0,21.43,6.47,36.82,6,0,0,27.91,18.69,27.91,29.69s-63.26-1.23-74.74-16.37c0,0-10.26-7.33-5.87-31a70.7,70.7,0,0,0-5.13-42,198.53,198.53,0,0,0-9.52,30.29c-3.91,17.1-6.11,25.9-6.11,25.9s-4.64,0-6.35-2.69c0,0,13.68-51.05,13.92-65.71,0,0-2-6.67,3.18-16.61C780,274.37,792.84,251.28,807.12,256.05Z" transform="translate(0 2.2)"/><path class="cls-8" d="M813.72,252.21a6.58,6.58,0,0,0-6.6,3.91s8.06,33.71,48.37,41.53a7,7,0,0,0,2.93-4.89S819.58,282.26,813.72,252.21Z" transform="translate(0 2.2)"/></g><g id="Layer_5" data-name="Layer 5"><path class="cls-9" d="M1031.16.08l158,219.49s-2.11,14.23-2.77,24.33L1168,252s-14.18-7.19-55.07-7.57l3.37,7.58s-14.31,12.2-56.39,4.63c0,0-18.94,2.1-16,9.25,0,0-23.37-.66-29.1,2-4.06,1.91-21.32,24.62-33.37,23.13-39.5-4.88-20.91,5.09-45.4,1.69-29.67-4.12-52.88,42.37-96.84,28.78s-86.59,4-86.59,4S688.46,345.33,664.94,367s-71.94,9.4-71.94,9.4l-17,15.05s-52.21,2.83-69.62-4.7L490,396.6s-22.58-6.12-33.4,0-23-4.23-23-4.23-6.59-5.65-16.94,1.41-23-2.83-23-2.83-13.17-4.23-22.58,3.3-16-6.59-28.22.47-20.7-7.53-20.7-7.53-18.81-23.05-31-4.23c0,0-2.83-9.88-9.88-1.41s-7.53.94-32,9.4-9.87-16.93-27.75-8c0,0-12.7-4.71-24.46.94s-4.7-27.28-25.87-21.64-17.4-11.76-31-2.35-14.58-20.23-14.58-20.23,5.64-14.58-17.41.47-24.52,1-37.83,3.74S63.12,337,50.22,325c0,0-.46-14-8.76-13.62s-1.45-6.14-8-9.75,13.36-5.05,10.11-15.16,5.06-9,14.08-14.44,155.62-27.44,201.83-45.5,122-30.69,134.31-43.68,57.41-28.16,63.19-34.3S548.78,38.51,562.86.08Z" transform="translate(0 2.2)"/><path class="cls-2" d="M1041.77,34.81l126.58,217.28s-.69-7.34,18.1-8.24Z" transform="translate(0 2.2)"/><path class="cls-2" d="M998.41.08l114.78,244.2,3.37,7.58s-3.47,5.54-27.41,7L994.23.08Z" transform="translate(0 2.2)"/><path class="cls-2" d="M977.25.08l82.58,256.86s-18.47,1.43-16,9.26L973.1.08Z" transform="translate(0 2.2)"/><path class="cls-2" d="M933.18.08l63,272.94a44.59,44.59,0,0,0-25.27-10.83L931.6.08Z" transform="translate(0 2.2)"/><path class="cls-2" d="M856.84.08l13.63,321.55s-15.69,8.09-48.74-4.05L838.6.08Z" transform="translate(0 2.2)"/><polygon class="cls-2" points="789.61 2.28 799.32 269.41 803.77 2.28 789.61 2.28"/><polygon class="cls-2" points="707.28 4.94 664.22 277.28 679.15 361.4 707.28 4.94"/><polygon class="cls-2" points="755.09 2.28 746.55 305.13 766.59 2.28 755.09 2.28"/><path class="cls-2" d="M632.92.08s-87,379.38-126.5,386.64c0,0,69.95-47.47,179.17-386.64Z" transform="translate(0 2.2)"/><path class="cls-2" d="M524.28,238.52,371,394.25s13-10.75,33.86,1.75Z" transform="translate(0 2.2)"/><path class="cls-2" d="M447.62,396s63-76,67.7-93.07l-34.13,91.89s-18.4-5.07-24.63,1.78S447.62,396,447.62,396Z" transform="translate(0 2.2)"/><polygon class="cls-2" points="890.09 2.28 914.74 195.6 906.11 2.28 890.09 2.28"/><path class="cls-2" d="M571.81,86.9s-64.27,153.87-150.26,200-140.43,94.61-140.43,94.61,6.6-8.85,9.88,1.41c0,0,9.32-15,26-.81,0,0,5.68,6.71,8,8.9C325,391.05,486.29,294,571.81,86.9Z" transform="translate(0 2.2)"/><path class="cls-2" d="M187.66,373.51s30-3.65,49.39-20.52,208.52-96.34,263.5-175.69c0,0-116.67,143.83-241.63,184.44,0,0-29.21,9.49-37.54,21.22,0,0-10.56-4.84-24.46.94C196.92,383.9,191,389,187.66,373.51Z" transform="translate(0 2.2)"/><polygon class="cls-2" points="576.04 393.63 648.75 164.38 593 378.57 576.04 393.63"/><path class="cls-2" d="M571.81,24.76l-61.88,92.51s-40.87,74.15-50.14,82,13.63-6.83,51-59.15Z" transform="translate(0 2.2)"/><path class="cls-2" d="M514.77,238.25a211.35,211.35,0,0,0,31.93-53.39C559.18,153.92,622.93-2.2,622.93-2.2c.21,5.33-63.34,214-77.21,216.59C530.23,217.23,514.77,238.25,514.77,238.25Z" transform="translate(0 2.2)"/><path class="cls-2" d="M125.43,339.68S248,271.89,305.27,262.77s111-55.75,111-55.75S91,340.44,77,343.92c0,0,13.07,7.68,24.54,0S126,328.17,125.43,339.68Z" transform="translate(0 2.2)"/><path class="cls-2" d="M391,185.14S271.4,246.83,43.85,289.86c0,0,.87-1.05-.67-5s.51-7.61,6.57-9.1c0,0,6.39-2.81,7.17-3.27s2.54-2.08,8.66-2.87,16.88-4.91,55.1-11,82.61-16.66,82.61-16.66,52.6-13.13,63.32-18.07c0,0,25.4-9.42,46.68-14.12S386.58,189,391,185.14Z" transform="translate(0 2.2)"/><path class="cls-2" d="M128.55,355.91,302,267.21l-156.61,90s-7.18,5.27-10.12,4.5S130.23,361.21,128.55,355.91Z" transform="translate(0 2.2)"/><path class="cls-2" d="M936,292.7l-4.44-99.3s15.6,92.74,20.63,98.3C952.23,291.7,946.48,295.86,936,292.7Z" transform="translate(0 2.2)"/><path class="cls-2" d="M41.46,311.35l87.09-21.49,222.14-73.28L50.22,325S51.2,309.72,41.46,311.35Z" transform="translate(0 2.2)"/></g></svg>