<svg xmlns="http://www.w3.org/2000/svg" viewBox="0 0 1080 450"><defs><style>.cls-1{fill:#fff;}.cls-2{fill:#b07a51;}.cls-3{fill:#82594f;}.cls-4{fill:#694a41;}.cls-5{font-size:39.33px;fill:#af7a35;font-family:Montserrat-Bold, Montserrat;font-weight:700;letter-spacing:0.2em;}.cls-6{letter-spacing:0.18em;}.cls-7{letter-spacing:0.2em;}.cls-8{fill:#815751;}.cls-9{fill:#0e100e;}.cls-10{fill:#36452b;}.cls-11{fill:#e0c49d;}.cls-12{fill:#cdca95;}.cls-13{fill:#464c2a;}.cls-14{fill:#403b19;}.cls-15{fill:#202315;}.cls-16{fill:#27301c;}.cls-17{fill:#233620;}.cls-18{fill:#eae8cf;}.cls-19{fill:#ad9480;}.cls-20{fill:#ae9579;}.cls-21{fill:#7f6e52;}.cls-22{fill:#7e6b5b;}.cls-23{fill:#ffedcb;}.cls-24{fill:#7f6d5c;}.cls-25{fill:#8b715e;}.cls-26{fill:#9b816b;}.cls-27{fill:#725334;}.cls-28{fill:#121a1b;}.cls-29{fill:#171814;}.cls-30{fill:#746456;}.cls-31{fill:#e9d8be;}.cls-32{fill:#91785a;}.cls-33{fill:#695031;}.cls-34{fill:#5f4a2f;}.cls-35{fill:#807060;}.cls-36{fill:#4e3921;}.cls-37{fill:#f7e8ce;}.cls-38{fill:#fae1bc;}.cls-39{fill:#514336;}.cls-40{fill:#5c4827;}.cls-41{fill:#28160f;}.cls-42{fill:#997c5f;}.cls-43{fill:#fff0d1;}.cls-44{fill:#81684a;}.cls-45{fill:#b8976c;}.cls-46{fill:#faedd1;}.cls-47{fill:#634523;}.cls-48{fill:#786652;}.cls-49{fill:#8c7456;}.cls-50{fill:#595959;}.cls-51{fill:#d4d4d4;}.cls-52{fill:#f2d6a3;}.cls-53{fill:#3c4245;}.cls-54{fill:#2e3134;}.cls-55{fill:#bba57d;}.cls-56{fill:#f0d6a4;}.cls-57{fill:#baa783;}.cls-58{fill:#899cb5;}.cls-59{fill:#cac0a9;}.cls-60{fill:#b8a27a;}.cls-61{fill:#ebd991;}.cls-62{fill:#f1d3a3;}</style></defs><title>arthed</title><g id="Layer_2" data-name="Layer 2"><rect class="cls-1" width="1080" height="450"/></g><g id="Layer_1" data-name="Layer 1"><polygon class="cls-2" points="600.91 229.52 574.52 356.08 984.53 358.77 951.29 229.69 600.91 229.52"/><polygon class="cls-3" points="574.52 356.08 575.17 377.26 985.04 381.01 984.53 358.77 574.52 356.08"/><polygon class="cls-4" points="586.92 376.61 587.39 441.62 973.59 441.17 973.45 379.88 586.92 376.61"/><text class="cls-5" transform="translate(714.49 425.24) rotate(0.38)">V<tspan class="cls-6" x="36.58" y="0">O</tspan><tspan class="cls-7" x="75.16" y="0">TE</tspan></text><path class="cls-8" d="M899.84,280.47c-72.4-.48-155.82-.83-227.9-1.5-11.59-.11-24,5.37-1.12,9.58,14.53,2.67,33.66-.18,48.92-.08,31,.2,58.4.42,89.52,1,16.82.31,46.82-.09,64,0,9.18.06,35.37,5.08,32.83-8.81C903.13,280.35,900.54,279.33,899.84,280.47Z"/><polygon class="cls-9" points="749.21 131.7 768.01 82.63 789.9 84.41 823.42 139.72 818.88 139.31 817.34 134.74 814.45 128.6 810.85 125 805.91 120.73 800.89 117.81 800.62 112.55 790.38 106.74 780.14 111.44 775.99 116.42 776.41 117.32 771 120.92 767.52 124.29 763.55 129.33 761.51 132.81 761.75 133.66 748.58 133.85 749.21 131.7"/><polygon class="cls-10" points="768.01 82.63 765.73 82.41 747.05 133.57 748.78 134.25 768.01 82.63"/><polygon class="cls-11" points="743.7 122.28 746.44 122.28 746.87 123.72 745.72 129.49 744.85 130.79 744.71 133.67 747.05 133.57 765.73 82.41 759.57 90.25 743.7 122.28"/><polygon class="cls-12" points="759.57 90.25 765.73 82.41 765.06 80.07 766.09 78.01 767.29 75.61 766.94 73.72 765.57 71.32 764.2 69.26 756.65 79.38 757.51 80.58 758.71 80.58 760.08 81.09 761.11 82.47 760.6 84.53 759.05 87.44 758.62 88.3 758.53 89.28 758.62 90.08 759.57 90.25"/><polygon class="cls-13" points="761.11 82.47 766.61 74.45 764.2 69.26 756.65 79.38 757.51 80.58 758.71 80.58 760.08 81.09 761.11 82.47"/><polygon class="cls-14" points="766.61 74.45 767.29 75.61 766.34 77.03 766.09 78.01 765.06 80.07 759.05 87.44 758.62 88.3 758.53 89.28 758.62 90.08 759.57 90.25 765.73 82.41 768.03 75.61 766.61 74.45"/><polygon class="cls-15" points="765.73 82.41 789.9 84.41 790.75 82.68 790.11 80.01 789.26 78.62 791.71 74.46 793.63 71.37 793.63 69.88 792.67 69.23 763.55 66.46 764.2 69.26 765.57 71.32 790.43 73.61 787.44 77.34 787.66 80.22 788.4 81.5 787.98 82.46 766.22 80.33 765.73 82.41"/><polygon class="cls-16" points="765.57 71.32 768.03 75.61 766.22 80.33 787.98 82.46 788.4 81.5 787.66 80.22 787.44 77.34 790.43 73.61 765.57 71.32"/><path class="cls-17" d="M786.8,68.37c-1.9-1.18-3.06-3.21-4.7-4.66s-2.21-3.11-3.3-4.76c-1-1.46-1.71-3.38-3.43-3.81-2-.49-3.51,1.82-4,3.54a24,24,0,0,0-.63,3.76,7.64,7.64,0,0,1-.49,1.85,3.29,3.29,0,0,1-.65,1.09c-1.12,0-1.83.39-1.56,1.61,2.46.14,7.15.77,7.15.77l7.54.49s2.87.3,4.32.35C787,68.45,786.9,68.27,786.8,68.37Z"/><polygon class="cls-18" points="772.24 56.77 769.05 63.79 766.81 66.03 766.81 66.62 768.34 66.68 768.34 65.44 769.88 65.44 772.24 56.77"/><polygon class="cls-19" points="761.75 133.66 763.43 133.43 764.35 131.09 764.96 129.6 765.38 128.21 765.51 126.91 764.34 128.34 763.55 129.33 762.64 130.82 761.96 131.92 761.51 132.81 761.75 133.66"/><polygon class="cls-20" points="780.91 111.1 781.01 116.03 779.62 116.35 778.23 116.78 776.41 117.32 775.99 116.42 778.23 113.67 780.14 111.44 780.91 111.1"/><polygon class="cls-21" points="765.51 126.91 767.52 124.29 771 120.92 774.91 118.38 776.41 117.32 778.23 116.78 781.01 116.03 780.91 111.1 790.38 106.74 800.62 112.55 800.89 117.81 805.21 120.1 806.92 121.27 810.85 125 814.45 128.6 816.45 132.3 817.49 134.68 818.16 137.23 818.88 139.39 814.95 139.05 812.92 134.01 810.67 130.48 807.78 126.73 802.11 122.88 798.57 121.17 796.75 120.42 796.64 114.53 790.44 111.42 783.58 113.67 783.69 119.24 781.44 119.99 777.59 121.49 771.81 125.45 770.42 127.7 768.83 132.85 768.49 134.34 763.43 133.43 765.38 128.21 765.51 126.91"/><polygon class="cls-22" points="783.58 113.67 790.44 111.42 796.64 114.53 796.75 120.42 802.07 122.67 807.78 126.73 810.67 130.48 813.28 134.2 815.1 139.08 815.1 141.81 813.09 142.04 813.54 145.09 816.43 145.09 819.94 176.28 761.39 171.85 761.84 140.37 765.65 140.83 765.65 137.18 763.43 133.43 768.49 134.34 769.29 130.64 770.42 127.7 771.81 125.45 774.92 123.34 777.59 121.49 781.44 119.99 783.69 119.24 783.58 113.67"/><polygon class="cls-23" points="745.23 141.52 743.42 144.45 744.14 145.6 743.82 147.62 742.91 149.51 742.41 150.64 740.97 150.36 741.26 157.84 739.97 160.87 739.82 163.03 739.7 163.8 745.02 163.89 745.23 141.52"/><polygon class="cls-24" points="816.43 148.54 829.31 148.88 829.99 174.81 822.02 174.3 820.84 174.64 821.18 176.33 816.13 175.8 816.43 148.54"/><polygon class="cls-25" points="745.26 141.43 745.09 164.98 759.66 165.66 759.49 168.03 760.85 168.71 760.84 169.77 759.92 169.82 759.97 172.28 761.88 172.37 761.84 140.37 745.26 141.43"/><path class="cls-26" d="M737.16,163.59l4.77.13a5.42,5.42,0,0,1,.09-2.11c.48-1,.45-4.14.45-4.14l.51-4.9-.09-2,.34-1.39.66-1.8.57-1.79.38-1.23.17-.9.25-2,16.58-1,3.81.46v-3.65l-23.5.3-3.48,4.11-3.23,4.35-.12,9.2-.87,1.49-.21,7.83,2.62.36Z"/><polygon class="cls-27" points="815.13 141.77 813.09 142.04 813.54 145.09 816.43 145.09 816.43 148.54 829.31 148.88 829.37 150.84 835.77 146.45 819.55 145.05 821.09 142.54 815.96 141.68 815.13 141.77"/><polygon class="cls-10" points="789.9 84.41 826.54 140.58 824.02 141.14 789.9 84.41"/><path class="cls-28" d="M819.4,129.58c2.55,0,7.47.2,9.4,1.75s.28,6.88,3,6.78c.85,1.2,1.94,2.24,2,3.83-2.15.11-5.24.52-7.2-.28C824.86,137.78,821.08,133.23,819.4,129.58Z"/><polygon class="cls-29" points="746.44 122.28 724.43 121.15 724.43 126.63 726.08 126.99 727.9 129.73 728.81 132.65 729 135.93 729.18 138.49 735.75 138.85 740.13 133.38 744.71 133.67 744.85 130.79 745.72 129.49 746.19 127.2 746.51 125.17 746.87 123.72 746.44 122.28"/><polygon class="cls-30" points="726.08 126.99 744.85 130.79 727.9 129.73 726.08 126.99"/><polygon class="cls-31" points="724.43 121.15 721.84 121.64 719.63 126.05 719.27 133.59 718.16 136.53 715.77 144.07 714.85 152.71 714.67 157.68 714.27 162.82 716.05 166.38 720.92 162.64 721.5 172.35 721.83 180.38 721.17 181.86 721.17 183.66 721.17 185.47 724.45 182.35 728.55 176.28 727.07 174.81 725.92 173.5 734.28 164.35 734.45 156.63 735.32 155.14 735.44 145.94 731.99 143 729.2 139.88 728.81 132.65 727.9 129.73 726.08 126.99 724.43 126.63 724.43 121.15"/><polygon class="cls-32" points="723.86 121.94 723.75 124.07 721.39 127.1 720.83 134.61 719.66 139.97 717.95 145.95 717.31 150.64 716.99 157.16 716.48 160.27 715.1 162.52 716.78 145.09 717.84 140.18 719.77 134.31 720.16 126.2 722.29 122.39 723.86 121.94"/><polygon class="cls-33" points="729.18 138.49 735.75 138.85 740.13 133.38 763.43 133.43 765.65 137.18 742.15 137.48 735.44 145.94 729.2 139.88 729.18 138.49"/><polygon class="cls-34" points="782.19 111.42 783.37 112.92 790.54 110.14 797.82 114.64 797.93 119.78 803.39 122.77 810.13 128.23 813.13 132.09 816.21 139.11 818.88 139.39 813.35 129.3 808.64 123.84 804.25 120.42 799.64 118.49 799.32 112.39 790.44 107.78 782.19 111.42"/><polygon class="cls-35" points="735.77 167.04 736.78 169.83 737.34 172.88 737.61 180.39 736.53 180.95 736.6 183.36 779.89 186.46 779.38 187.81 810.43 189.62 811.58 188.3 823 189.72 845.16 192.1 843.29 188.63 843.62 182.39 847.57 176.8 829.99 174.81 822.02 174.3 820.84 174.64 821.18 176.33 762.25 171.85 759.97 172.28 759.92 169.82 760.84 169.77 760.85 168.71 759.49 168.03 736.84 167.15 735.77 167.04"/><polygon class="cls-36" points="734.28 164.35 725.92 173.5 728.55 176.28 735.77 167.04 759.49 168.03 759.66 165.66 745.02 163.89 737.16 163.59 734.28 164.35"/><polygon class="cls-37" points="728.55 176.28 731.64 180.01 731.64 183.02 736.6 183.36 736.53 180.95 737.61 180.39 737.34 172.88 736.78 169.83 735.77 167.04 728.55 176.28"/><polygon class="cls-38" points="728.55 176.28 724.45 182.35 731.64 183.02 731.64 180.01 728.55 176.28"/><polygon class="cls-39" points="829.94 172.16 847.6 174.7 847.57 176.8 829.99 174.81 829.94 172.16"/><polygon class="cls-40" points="825.62 139.64 815.1 139.08 815.13 141.77 821.09 142.54 819.55 145.05 834.98 146.4 835.78 146.42 834.82 142.06 826.59 141.66 825.62 139.64"/><polygon class="cls-41" points="690.81 223.92 703.09 209.66 705.91 209.49 713.04 200.7 711.38 199.04 724.82 183.95 778.53 187.1 778.39 188.35 811.76 190.85 812.17 189.74 864.17 195.44 863.75 194.05 811.58 188.3 810.43 189.62 779.38 187.81 779.89 186.46 724.45 182.35 710.68 197.94 710.05 198.72 712.21 200.73 705.74 208.32 701.94 208.47 690.64 222.45 690.81 223.92"/><polygon class="cls-42" points="690.81 223.92 694 227.1 705.45 213.87 708.5 213.87 716.39 204.2 714.1 202.42 727.08 188.17 724.82 183.95 711.38 199.04 713.04 200.7 705.91 209.49 703.09 209.66 690.81 223.92"/><polygon class="cls-43" points="692.81 227.06 694.42 228.9 705.71 215.31 709.6 214.06 718.15 204.02 715.97 203.37 727.83 191.12 726.91 187.89 713.73 202.97 715.31 204.58 715.68 204.99 710.03 211.63 708.88 213.07 704.61 213.44 692.81 227.06"/><polygon class="cls-44" points="724.82 183.95 726.91 187.89 776.41 190.94 776.63 192.5 813.27 195.61 815.26 194.94 860.78 199.38 864.17 195.44 812.17 189.74 811.76 190.85 778.39 188.35 778.53 187.1 724.82 183.95"/><polygon class="cls-45" points="696.27 229.7 707.1 230 709.44 232.34 709.14 234.68 710.9 236.72 738.69 207.18 738.4 204.5 738.11 202.79 738.69 199.28 738.69 193.43 740.74 191.67 727.83 191.12 715.95 203.37 718.15 204.02 709.54 214.13 706.04 214.97 694.42 228.9 696.27 229.7"/><polygon class="cls-46" points="710.9 236.72 711.28 241.66 707.88 247.22 708.08 248.85 709.94 250.92 710.36 255.06 711.81 289.01 722.4 289.01 735.54 288.29 735.6 284.85 737.05 284.85 737.05 276.57 738.49 276.37 738.08 227.96 738.08 220.92 738.08 213.06 738.69 207.18 710.9 236.72"/><polygon class="cls-47" points="740.74 191.67 738.69 193.43 738.69 199.28 738.11 202.79 738.4 205.14 738.69 207.18 758.3 207.97 759.49 210.34 822.57 214.48 842.41 215.07 845.08 215.07 860.28 201.88 815.44 197.02 813.45 197.68 775.22 193.55 740.74 191.67"/><polygon class="cls-48" points="735.6 284.85 736.27 288.65 845.4 289.38 844.66 283.68 842.99 283.68 842.78 231.3 844.66 228.59 844.66 225.46 842.78 225.04 842.41 215.07 759.49 210.34 758.3 207.97 738.69 207.18 738.03 217.11 738.49 276.37 737.05 276.57 737.05 284.85 735.6 284.85"/><polygon class="cls-49" points="726.91 187.89 727.83 191.12 775.33 193.58 775.46 195.22 813.45 197.68 815.44 197.02 860.28 201.88 860.78 199.38 815.26 194.94 813.27 195.61 776.63 192.5 776.41 190.94 726.91 187.89"/><ellipse class="cls-50" cx="791.38" cy="146.93" rx="19.39" ry="19.37"/><path class="cls-51" d="M793.85,127.76a.39.39,0,0,1,.13-.05l.46.06.43.08c.51.1,1,.19,1.53.31a5.32,5.32,0,0,1,.66.26c.21.07.43.12.64.18a7.1,7.1,0,0,1,1.47.57c.17.09.36.14.54.22s.21.16.32.18.4.25.6.36.61.33.91.5.67.4,1,.62.4.29.59.44.16.23.32.21a.09.09,0,0,1,0,0l.84.82c.07.06.16.1.23.17l.71.7c.15.15.3.3.44.46a8.92,8.92,0,0,1,.9,1.05c.13.2.25.39.39.58s.32.35.45.54.25.43.38.64.43.65.62,1,.23.48.34.72.15.25.2.37c.26.61.51,1.21.76,1.82,0,0,0,.11,0,.16s.11.24.15.36a2.46,2.46,0,0,1,.09.39,5.14,5.14,0,0,0,.28,1,2,2,0,0,1,.12.6c0,.3.11.59.15.89q.1.75.18,1.5c.05.51.08,1,.12,1.55,0,0,0,.06,0,.1,0,.56-.07,1.12-.1,1.68s-.06.89-.12,1.33c0,.24-.11.47-.16.7s-.07.34-.11.51-.11.55-.18.82-.19.65-.28,1l-.12.34c-.11.3-.22.6-.34.9s-.32.84-.51,1.26-.38.68-.56,1c0,.08-.06.17-.1.25a5.58,5.58,0,0,0-.32.52,3.69,3.69,0,0,1-.53.76l-.06.08a5.86,5.86,0,0,1-1.06,1.41c-.2.24-.38.49-.59.73s-.37.39-.56.58-.37.37-.57.53-.25.14-.28.31c0,0,0,0-.05.06l-1.38,1c-.31.23-.62.46-.94.68s-.47.27-.7.41a5.76,5.76,0,0,0-.94.6.29.29,0,0,1-.2.11,2.92,2.92,0,0,0-1.17.44,4.61,4.61,0,0,1-.63.2,1.92,1.92,0,0,0-.25.12l-.62.23-.59.2a7.49,7.49,0,0,1-.77.23,4,4,0,0,1-.5,0c-.06,0-.11.07-.18.09l-.8.16c-.26.05-.52.09-.79.12s-.7.08-1.06.1-.82,0-1.24.05l-.93,0a6.94,6.94,0,0,1-1.11-.1c-.36-.08-.73-.07-1.1-.12s-1-.19-1.45-.28a10,10,0,0,1-1.76-.55c-.56-.22-1.13-.41-1.69-.62a3.53,3.53,0,0,1-.32-.21c-.11-.07-.24-.1-.35-.16l-1.4-.82a17.36,17.36,0,0,1-2.2-1.72c-.47-.37-.92-.78-1.37-1.18-.22-.2-.41-.43-.62-.65l-.34-.31a3.15,3.15,0,0,0-.19-.27c-.25-.26-.52-.49-.75-.75a4.45,4.45,0,0,1-.81-1.2c0-.06-.08-.1-.11-.16-.18-.28-.37-.55-.54-.84-.26-.46-.51-.93-.76-1.39-.11-.22-.17-.46-.3-.67a4.36,4.36,0,0,1-.32-.92c-.13-.43-.3-.85-.45-1.27,0-.14-.07-.29-.11-.43s-.07-.23-.09-.35c-.1-.43-.21-.87-.29-1.3s-.15-.92-.2-1.38,0-.66-.06-1,0-.71,0-1.06a5.3,5.3,0,0,1,0-.69c0-.22.08-.44.12-.66a.32.32,0,0,0,0-.13,1.89,1.89,0,0,1,0-.82,9.07,9.07,0,0,1,.14-.91c.08-.46.14-.92.22-1.38,0-.15.08-.29.12-.43s.18-.52.26-.78.13-.53.22-.79a5.29,5.29,0,0,1,.43-1.08c.14-.23.2-.51.32-.76.21-.44.43-.87.66-1.3a12.72,12.72,0,0,1,.71-1.18c.33-.48.69-.92,1-1.37a8.24,8.24,0,0,1,.55-.65c.3-.32.61-.63.92-.94.11-.12.21-.24.33-.35l.81-.7a3.89,3.89,0,0,1,.43-.39c.28-.17.52-.4.79-.58s.81-.52,1.22-.77.6-.4.9-.59a2.38,2.38,0,0,1,.32-.12c.15-.08.3-.18.45-.25s.5-.19.75-.31l.69-.36,0,0a6.44,6.44,0,0,0,1.3-.37c.31-.06.62-.15.93-.23s.56-.16.85-.22a7.88,7.88,0,0,1,.87-.16c.34,0,.69-.06,1-.09s.65-.08,1-.1.54,0,.82,0h.65a2.09,2.09,0,0,1,.66,0c.26.09.52,0,.77.09s.24,0,.36.06S793.72,127.72,793.85,127.76Zm-20.69,14,0,0a.42.42,0,0,1,0,.18c-.1.45-.21.89-.3,1.33s-.17.8-.22,1.2-.08,1.06-.11,1.6c0,.38,0,.76,0,1.13s0,.72.06,1.09a13.76,13.76,0,0,0,.34,2.39l.3,1.42c.07.26.14.52.23.78s.18.45.26.67l.57,1.46c.07.17.17.33.25.5s.22.48.34.72.38.64.58,1q.5.75,1,1.5c.08.11.22.18.31.29a9.3,9.3,0,0,0,.66.77c.46.37.88.8,1.32,1.19s.87.73,1.31,1.09.75.61,1.14.91.61.45.93.65.48.25.72.37c.55.26,1.09.52,1.65.77.24.11.5.18.76.27a4.28,4.28,0,0,0,.46.17c.17.06.35.09.52.14l.75.22c.19.05.39.07.59.12a3.66,3.66,0,0,0,.44.13l1.57.25.1,0,1,0c.38,0,.76.05,1.14,0s.87,0,1.3-.05a3.81,3.81,0,0,0,.48,0c.26-.06.5-.16.76-.22s.5-.06.74-.12c.42-.09.83-.2,1.24-.32s.56,0,.79-.23.32-.09.48-.13a6.67,6.67,0,0,0,.74-.29c.35-.15.7-.29,1-.45s.57-.28.86-.42.37-.19.55-.3c.41-.26.83-.5,1.22-.77s.8-.59,1.19-.89.52-.4.75-.61.45-.46.68-.68l.3-.29.46-.47.12-.12.48-.61c.19-.23.39-.45.56-.68s.4-.57.58-.86.49-.74.71-1.12.35-.66.51-1a6.82,6.82,0,0,0,.37-.77c.2-.54.38-1.1.56-1.65.12-.34.25-.67.34-1a10.16,10.16,0,0,0,.21-1.1c.12-.67.24-1.35.32-2,.06-.49.08-1,.1-1.49s0-.82,0-1.23a9.24,9.24,0,0,0-.1-.92c-.06-.37-.12-.74-.19-1.1s-.15-.92-.24-1.37c0-.14-.14-.27-.14-.4a4.39,4.39,0,0,0-.34-1.24,13.89,13.89,0,0,0-.59-1.59c-.13-.31-.26-.63-.41-.94s-.25-.5-.39-.75-.17-.27-.26-.4c-.38-.56-.74-1.13-1.12-1.69a6.09,6.09,0,0,0-.46-.55c-.39-.45-.78-.91-1.18-1.36-.19-.2-.41-.38-.61-.57s-.35-.37-.53-.54-.33-.26-.49-.39-.31-.26-.48-.38c-.41-.29-.82-.58-1.24-.86s-.73-.48-1.11-.69a9.4,9.4,0,0,0-1-.49c-.32-.15-.64-.3-1-.43s-.9-.32-1.35-.47c-.26-.09-.53-.18-.79-.25l-.62-.16a5.66,5.66,0,0,0-.59-.15c-.37-.06-.75-.09-1.12-.14s-.87-.15-1.31-.18c-.63,0-1.27,0-1.9,0a8.53,8.53,0,0,0-1,0c-.37,0-.75.11-1.12.16l-.67.08-.11,0-.68.17c-.33.09-.68.16-1,.26a12.29,12.29,0,0,1-1.21.41,7.1,7.1,0,0,0-1.62.64,9.22,9.22,0,0,0-2.12,1.19s-.09,0-.12.06c-.28.18-.57.35-.83.55s-.71.6-1.06.91c-.13.1-.25.22-.38.33s-.54.46-.79.71-.43.49-.65.74-.58.61-.84.94a17.26,17.26,0,0,0-1,1.41c-.39.65-.76,1.33-1.11,2a8,8,0,0,0-.39,1c-.21.53-.42,1.06-.62,1.59Z"/><path class="cls-51" d="M784.94,134.28l.28,0c-.19.49.26.7.38,1.1a1.38,1.38,0,0,1,.2-.18,1,1,0,0,1,.28-.11.21.21,0,0,1,.16.07.15.15,0,0,1,0,.15.92.92,0,0,1-.33.19c-.15,0-.21.08-.16.24s.16.53.23.79,0,.34.1.5a3,3,0,0,0,.25.58c.19.37.39.73.59,1.08l.37.62c.11.19.2.38.3.56l.74,1.36c.28.52.57,1,.87,1.54.18.31.38.61.56.93s.47.91.72,1.36c.1.18.22.34.33.51.36-.12.39-.18.38-.54s0-.64,0-.95,0-.84,0-1.26v-.62c0-.37,0-.73,0-1.1,0-.13,0-.26,0-.4s0-.18,0-.28c0-.5,0-1,0-1.51a3.23,3.23,0,0,0-.3-1.26,1.83,1.83,0,0,1-.15-.52,6.7,6.7,0,0,1-.15-1,2.72,2.72,0,0,1,.12-.8c.13-.47.3-.92.43-1.38a4.64,4.64,0,0,0,.07-.64c.06-.51.14-1,.2-1.52,0-.32,0-.65.08-1s.05-.53.09-.79-.06-.35-.23-.38a.38.38,0,0,0-.49.29c0,.2-.11.4-.16.59-.16.54-.33,1.08-.46,1.62a1.22,1.22,0,0,0,.08.45c.1.44.19.88.3,1.32a1.73,1.73,0,0,0,.18.36.28.28,0,0,1,0,.18c-.05.11-.11.27-.2.3s-.2-.12-.32-.16a.51.51,0,0,0-.25,0l-1.2.12c-.06,0-.12-.06-.19-.09a.48.48,0,0,1,.1-.17,3.07,3.07,0,0,0,.31-.17.45.45,0,0,0,.18-.21,8.13,8.13,0,0,1,.36-1.12c.27-.5,0-.92-.08-1.37-.31-.25-.14-.64-.28-.94a5.87,5.87,0,0,1-.18-.75.24.24,0,0,0-.16-.11c-.06,0-.13,0-.19,0a.43.43,0,0,1-.16-.05c0-.05,0-.13,0-.15a.72.72,0,0,1,.3-.13c.28,0,.57,0,.85,0h.75c.32,0,.63,0,1-.06a3.25,3.25,0,0,1,.44,0c.26,0,.52,0,.77,0s.56.11.83.17a.14.14,0,0,1,.07.12.19.19,0,0,1-.11.08,1,1,0,0,1-.25,0c-.16,0-.21.07-.23.19,0,.42-.09.84-.11,1.25s0,.78,0,1.16-.08.56-.12.84c0,0,0,.07,0,.09a1.35,1.35,0,0,1-.07.77c0,.12,0,.18.13.17a.5.5,0,0,1,.24.06,1.49,1.49,0,0,1,.17.18c-.09,0-.19.12-.27.11s-.32-.1-.48-.13a3.64,3.64,0,0,0-.48,0,4,4,0,0,0,.12.68,6,6,0,0,1,.18,1.39,1.93,1.93,0,0,1-.24.88,7.78,7.78,0,0,0-.32,2.65c0,.5,0,1,0,1.5,0,.76,0,1.52,0,2.28,0,.46,0,.92,0,1.38a.32.32,0,0,0,.26.37,1.46,1.46,0,0,1,1,1,1.21,1.21,0,0,1-.13,1.06,2.32,2.32,0,0,1-.56.68,1.46,1.46,0,0,1-1.72,0,1.76,1.76,0,0,1-.59-1,1.17,1.17,0,0,1,0-.59,1.7,1.7,0,0,1,.19-.59c.06-.1.18-.18.23-.29a.37.37,0,0,0,0-.29c-.22-.41-.47-.8-.69-1.21s-.5-1-.76-1.42-.47-.84-.72-1.26l-.77-1.34c-.24-.41-.49-.82-.72-1.23s-.4-.76-.61-1.13a2.39,2.39,0,0,0-.62-.76,4.12,4.12,0,0,1-.45-.48l-.42-.47c-.22.18-.38.34-.56.46a3.82,3.82,0,0,1-.64.32s-.15,0-.22-.07a.71.71,0,0,1,0-.18,2.09,2.09,0,0,0,.08-.49c0-.21-.08-.43-.1-.64s0-.24,0-.35a3.48,3.48,0,0,1-.1-.41.74.74,0,0,0-.27-.57,9.83,9.83,0,0,1-.89-.93,3.69,3.69,0,0,0-.41-.38s-.17,0-.26,0-.1.1-.17.13a.19.19,0,0,1-.15,0,.18.18,0,0,1,0-.16c.2-.25.37-.55.74-.61a.12.12,0,0,0,.08,0,4,4,0,0,1,1.31-.81c.3-.11.58-.3.87-.44a1.08,1.08,0,0,1,.35-.1c.05,0,.15.06.18.12s-.05.12-.08.17-.06,0-.09,0c-.31.15-.33.24-.16.55s.42.76.62,1.14a3.47,3.47,0,0,1,.13.46c.05.14.14.26.18.4A.82.82,0,0,1,784.94,134.28Zm6.66-1.06h0c0,.19.07.38.11.58a3.25,3.25,0,0,0,.08.43.43.43,0,0,0,.11.15c.1,0,.24,0,.25-.2s.07-.61.09-.92,0-.87.07-1.31c.05-.62.11-1.24.15-1.87a.21.21,0,0,0-.12-.17.35.35,0,0,0-.5.31c0,.18,0,.37,0,.55a4.36,4.36,0,0,0-.09,1.14c0,.21.07.44-.14.61-.05,0-.05.15-.05.22S791.58,133.06,791.6,133.22ZM790,131.53a2.52,2.52,0,0,0,.19-.35c.16-.45.3-.89.45-1.34,0-.14,0-.2-.15-.2l-.79,0c-.27,0-.34.14-.25.39s.27.7.4,1.06C789.86,131.25,789.91,131.36,790,131.53Zm-5.52,2.33.07,0a2,2,0,0,0-.08-.26l-.51-1c-.14-.25-.29-.5-.45-.74a.2.2,0,0,0-.16-.07c-.06,0-.16.08-.16.12a1.12,1.12,0,0,0,.1.41c.08.15.2.28.29.42a5.19,5.19,0,0,0,.25.47,1.94,1.94,0,0,0,.32.32Zm-1.91-1.53c-.26-.1-.39.06-.54.16a.24.24,0,0,0-.08.38c.26.31.53.61.83.95C782.86,133.26,782.54,132.82,782.54,132.33Zm1.76,3.9c0-.09-.06-.2-.12-.25a1.75,1.75,0,0,1-.45-.82c-.05-.09-.07-.19-.2-.16a.2.2,0,0,0-.17.26c0,.33.12.66.16,1,0,.17.12.2.25.16Zm-.74-1.54a3.82,3.82,0,0,0-.07-.72c-.12-.42-.29-.83-.44-1.24a.46.46,0,0,0-.09-.17s-.08,0-.12,0,0,.08,0,.11,0,.09,0,.13a4.61,4.61,0,0,0,.29,1.42C783.24,134.36,783.28,134.58,783.56,134.69Zm5.89-.37c.25,0,.43,0,.6,0s.08-.09.08-.12c0-.26-.09-.51-.14-.76a.16.16,0,0,0-.09-.09.13.13,0,0,0-.1.06C789.68,133.67,789.58,134,789.45,134.32Z"/><path class="cls-51" d="M779.67,151.9l-.09-.23c0-.06-.08-.13-.07-.19s.06-.24.12-.25.18.05.23.17c.11.29.26.57.39.85s.3.7.46,1.06a1.53,1.53,0,0,0,.13.15c.14.18.4.29.4.59,0,0,0,.1.08.15s.09.11.11.17a1,1,0,0,0,.21.42.28.28,0,0,1-.08.4l-.65.57-.62.58c-.3.28-.61.55-.9.84s-.63.62-.94.93a.21.21,0,0,0,0,.3l.17.18a.22.22,0,0,1,0,.32c-.09.1-.19.05-.27,0l-.63-.73c-.24-.28-.49-.55-.7-.84s-.44-.68-.65-1-.42-.74-.63-1.1a2.8,2.8,0,0,1-.25-.35q-.21-.39-.39-.81c0-.05.06-.14.09-.21s.16.05.19.11c.18.34.37.37.71.15s.64-.33.95-.5l.77-.44.78-.43c.28-.15.57-.3.86-.43A.41.41,0,0,0,779.67,151.9ZM777,156.68c.28-.1.53-.17.76-.27l1.83-.86,1.57-.7c.13-.06.17-.14.07-.26l-.21-.26c-.16-.19-.28-.2-.48-.05s-.33.24-.5.33c-.54.29-1.09.56-1.63.84l-1,.52a4.8,4.8,0,0,0-.54.38s0,.12,0,.18S776.94,156.62,777,156.68Zm3.08-3.86s-.07-.2-.14-.22a.53.53,0,0,0-.34.07c-.44.22-.86.45-1.29.68-.16.08-.32.15-.47.24a8.62,8.62,0,0,1-.8.54,9.86,9.86,0,0,1-1.11.44c-.14.05-.18.12-.11.25l.16.27a.18.18,0,0,0,.27.07c.45-.26.9-.52,1.37-.75s.7-.31,1-.49.67-.35,1-.54A.68.68,0,0,0,780.07,152.82Zm.4.63a1,1,0,0,0-.26.05c-.49.25-1,.5-1.46.77-.75.41-1.49.84-2.25,1.24-.18.1-.11.22-.06.33s.16.13.27.06.57-.15.76-.39l0,0c.29-.16.58-.32.88-.47s.48-.34.74-.31a12.19,12.19,0,0,1,1.47-.91Zm-.05,2.13v0c-.2.08-.39.15-.58.24l-1.27.62-1.17.53a.21.21,0,0,0-.08.37c.16.17.34.32.51.47a.22.22,0,0,0,.34,0c.13-.14.28-.26.42-.39l.93-.84c.14-.13.27-.27.4-.41S780.25,155.76,780.42,155.58Z"/><path class="cls-51" d="M803.37,151.45a.06.06,0,0,1,0,0c-.16.35,0,.51.32.66s.8.5,1.21.73.92.5,1.38.75c.29.16.57.34.84.52s.19,0,.23-.09a1.22,1.22,0,0,1,.14-.33c0-.06.15-.07.24-.1s.09.23.06.3c-.29.59-.58,1.17-.9,1.74s-.48.82-.74,1.22a.69.69,0,0,1-.27.24.28.28,0,0,1-.24,0c-.1-.06,0-.13,0-.21.22-.32.22-.33-.1-.54s-.57-.33-.85-.5-.24-.2-.37-.28-.29-.1-.42-.17c-.38-.2-.75-.42-1.13-.63l-.66-.33a.2.2,0,0,0-.15,0,.47.47,0,0,0-.15.13c-.1.1-.2.16-.32.05a.32.32,0,0,1,0-.4c.21-.32.4-.63.59-.95s.37-.59.53-.9a6.25,6.25,0,0,0,.24-.6c.07-.17.12-.35.2-.52s.15-.1.17-.08a1.57,1.57,0,0,1,.2.25Zm3.28,3.79-.16-.07c-.4-.25-.78-.52-1.19-.75s-1-.52-1.45-.78l-1-.52c-.1-.06-.21-.06-.24.06a.29.29,0,0,0,.12.2c.14.1.31.17.46.26.4.22.79.45,1.18.68l.79.44a5.7,5.7,0,0,0,.76.43C806.14,155.27,806.33,155.47,806.65,155.24Zm.33-.5a.2.2,0,0,0,0-.08,5.2,5.2,0,0,0-.65-.51c-.2-.13-.44-.19-.66-.31-.42-.23-.84-.48-1.26-.73l-1.12-.68c-.09-.05-.18-.13-.27,0s0,.24.12.32.4.13.59.3a5.6,5.6,0,0,0,.92.55l1.89,1.05C806.64,154.73,806.78,154.89,807,154.74Zm-.8,1.33.06,0c-.07-.1-.11-.24-.21-.3-.47-.28-1-.56-1.44-.82-.2-.12-.42-.2-.63-.31-.49-.27-1-.56-1.46-.84,0,0-.12,0-.18,0a.67.67,0,0,0,.08.17.64.64,0,0,0,.18.1c.13.07.26.13.39.21s.13.11.2.15c.33.2.66.4,1,.59l1.15.63Z"/><path class="cls-51" d="M786.35,158.6c-.08.2-.17.4-.23.6s-.16.52-.24.78c0,.1-.1.2-.13.3s-.15.44-.22.65l-.39,1.16a2.33,2.33,0,0,0-.07.25c-.08.23-.16.45-.22.68s-.07.27.16.25a.62.62,0,0,1,.32.11c.07,0,.09.15.13.23s-.15.1-.2.08c-.34-.13-.67-.28-1-.43a3.33,3.33,0,0,1-.5-.25c-.16-.09-.32-.21-.48-.3s-.49-.24-.73-.36l0,0a3.19,3.19,0,0,0-.77-.55,5.66,5.66,0,0,0-.85-.6s0-.17-.08-.25a.69.69,0,0,1,.25,0c.15.07.27.18.41.26s.18,0,.2,0l1-1.69c.35-.61.71-1.21,1.07-1.81.12-.2.11-.28-.1-.4a.44.44,0,0,1-.18-.14.33.33,0,0,1,0-.26.2.2,0,0,1,.29,0,6.55,6.55,0,0,0,.56.49,4.07,4.07,0,0,0,.49.31.54.54,0,0,1,.12.09c.08.12.16.21.33.17s.13.07.15.13a.28.28,0,0,1,0,.22s-.14,0-.21,0a.2.2,0,0,0-.28.12c0,.08-.13.15-.18.23-.28.48-.57,1-.85,1.45l-.34.54-.54.91a3.11,3.11,0,0,0-.22.4c0,.06,0,.18,0,.2a.24.24,0,0,0,.22,0c.22-.23.43-.46.63-.71s.14-.29.24-.41.27-.22.38-.35l.65-.79c.12-.15.27-.28.38-.44s.35-.52.52-.79a.74.74,0,0,1,.12-.17c.07-.06.17-.13.23-.11S786.28,158.49,786.35,158.6Zm-1,1.45-.05,0a.34.34,0,0,0-.09.08c-.22.25-.43.51-.64.76l-1,1.2c-.23.29-.21.38.13.56a6.21,6.21,0,0,0,.59.26c.13.05.18,0,.21-.15.15-.53.3-1.07.46-1.61.06-.2.15-.39.22-.58S785.26,160.22,785.32,160.05Zm-1-2.25s-.11,0-.14.07l-.6,1c-.2.33-.39.66-.6,1-.11.18-.26.33-.36.51q-.28.51-.54,1.05a.3.3,0,0,0,0,.24.17.17,0,0,0,.28,0,11.74,11.74,0,0,0,.75-1.22,10.67,10.67,0,0,0,.65-1.2,3.84,3.84,0,0,1,.46-.7,3,3,0,0,0,.25-.37C784.65,157.94,784.58,157.79,784.35,157.8Z"/><path class="cls-51" d="M776.11,146.1l.59-.17,1.17-.36.71-.25s.07-.09.1-.14a1.73,1.73,0,0,1,.16-.3s.13-.08.16-.06.12.14.1.18a5.07,5.07,0,0,0-.12,1.4,6.09,6.09,0,0,0,.16,1.64,5.16,5.16,0,0,1,.05.79c0,.1,0,.23-.19.21a.24.24,0,0,1-.24-.22c0-.26-.06-.27-.32-.27s-.63,0-.94,0-.42,0-.63,0h-1l-1.46,0c-.15,0-.28.09-.25.29s-.08.14-.12.2-.16-.09-.18-.15a4.1,4.1,0,0,1-.06-.49c0-.09,0-.17,0-.26,0-.35,0-.7,0-1s.06-.68.09-1a.61.61,0,0,0,0-.3,1.79,1.79,0,0,1,0-.86c0-.05.1-.13.15-.13s.13.07.15.13a.36.36,0,0,1,0,.23.26.26,0,0,0,.2.34l.77.23c.16,0,.3.13.46.19Zm2.6,1.65c0-.39-.07-.49-.43-.6l-.44-.14c-.07,0-.14-.09-.22-.12l-.62-.19a1.07,1.07,0,0,0-.84-.06l-.24.07c-.56.18-1.13.37-1.69.57a.59.59,0,0,0-.12.68.2.2,0,0,0,.12.06l.46,0c.58,0,1.15,0,1.73,0h2C778.64,148,778.77,148,778.71,147.75Zm0-1.17c0-.15,0-.25-.06-.34,0-.33-.09-.38-.4-.29s-.66.21-1,.28c-.17,0-.2.11-.19.24a1.11,1.11,0,0,1,.28,0c.36.11.71.23,1.06.36a.15.15,0,0,0,.22-.1C778.7,146.69,778.73,146.6,778.74,146.58Zm-3.2-.29,0-.06-.79-.25-.43-.12c-.11,0-.18,0-.18.14s0,.3,0,.44.1.2.25.17l.62-.15Z"/><path class="cls-51" d="M808.34,146.22a.32.32,0,0,1,.17,0c.23,0,.29-.06.23-.28a.66.66,0,0,1,0-.28s.06-.1.1-.1a.17.17,0,0,1,.14.07,1.27,1.27,0,0,1,.12.36c0,.33,0,.65.07,1s0,.33,0,.5c0,.34,0,.67,0,1a.21.21,0,0,1-.22.22c-.15,0-.14-.12-.14-.22s-.06-.26-.26-.26-.4-.06-.61-.07-.21.05-.32.05h-1.68c-.26,0-.51,0-.77,0a8.09,8.09,0,0,0-.86.07c-.08,0-.14.12-.19.2s0,.16-.06.22-.15.13-.22.12-.15-.1-.17-.17a1,1,0,0,1,0-.34c.06-.25.14-.5.18-.75,0-.09-.05-.19,0-.28a1.84,1.84,0,0,0-.05-.52,5.37,5.37,0,0,1,0-.9c0-.06.08-.13.13-.2s.12.07.15.12a.39.39,0,0,1,.06.19.35.35,0,0,0,.39.32H807l.6,0C807.83,146.18,808.05,146.2,808.34,146.22Zm.54,1.34v-.09c-.08-.07-.16-.19-.24-.2-.36,0-.72,0-1.08,0l-1.61,0-1.08,0a2.16,2.16,0,0,0-.51.07c-.06,0-.1.11-.15.16s.11.11.16.11c.2,0,.41,0,.61,0l1.36,0h1c.17,0,.33,0,.5,0h.5l.24,0Zm0-.75a.52.52,0,0,0-.54-.2c-.29,0-.59,0-.89.06h-1.33c-.24,0-.48-.05-.72-.05s-.64,0-1,0c-.12,0-.23,0-.24.13s.12.12.21.12h2.19l1,0a7.77,7.77,0,0,0,.84,0A2.38,2.38,0,0,0,808.89,146.81Z"/><path class="cls-51" d="M791.13,159.26c.15.07.29.16.44.22a.43.43,0,0,0,.57-.23.24.24,0,0,1,.38,0,.22.22,0,0,0,.27.13.19.19,0,0,1,.25.16c0,.13-.06.17-.16.23s-.21.16-.23.25a3.32,3.32,0,0,0,0,.63,2.09,2.09,0,0,1,0,.34,3.44,3.44,0,0,0,.15.85c0,.27,0,.54.09.81s.09.44.12.65,0,.39.05.58a.52.52,0,0,0,.35.46.26.26,0,0,1,.13.17s-.06.11-.12.13a.48.48,0,0,1-.24,0,.86.86,0,0,0-.45,0,2,2,0,0,1-.69.06c-.33,0-.66,0-1,0a1.84,1.84,0,0,1-.4-.06c-.06,0-.1-.11-.15-.18s.11-.11.18-.11.19-.12.2-.24a3.33,3.33,0,0,0,0-.83c-.09-.53,0-1.05,0-1.57s0-.84,0-1.26a2.48,2.48,0,0,0,0-.47c0-.06-.07-.11-.13-.16s-.11-.05-.14-.09-.1-.17-.08-.24.12-.12.19-.15A3.48,3.48,0,0,1,791.13,159.26Zm.67,3.51a4.43,4.43,0,0,1,0-.48c0-.15,0-.29,0-.44.05-.56.1-1.12.13-1.68,0-.1,0-.26-.12-.29a.48.48,0,0,0-.35,0c-.13,0-.1.18-.1.3,0,.41.06.82.07,1.22s0,.77,0,1.15.1.51,0,.75c0,0,0,0,0,.06,0,.22,0,.44,0,.65a3.4,3.4,0,0,0,.07.34h.09c0-.29,0-.58.07-.87S791.56,162.93,791.8,162.77Zm.45-1.45h-.07c0,.15-.06.29-.08.44s0,.59-.07.89-.06.61-.1.91a3.5,3.5,0,0,1-.09.55c-.05.18,0,.31.22.29l.51-.08c.13,0,.17-.08.16-.2-.05-.29-.09-.57-.14-.86-.08-.5-.15-1-.24-1.49A3.41,3.41,0,0,0,792.25,161.32Z"/><path class="cls-51" d="M777.5,139.76l-.78-.15a6.36,6.36,0,0,0-.75-.08c-.06,0-.13.09-.19.13s-.14.1-.17.08-.16-.13-.15-.17c0-.23,0-.5.31-.61a.11.11,0,0,0,.06-.07l.47-.84c.12-.23.24-.46.37-.67a1,1,0,0,1,.21-.24.14.14,0,0,1,.14,0,.17.17,0,0,1,.05.15,1,1,0,0,1-.05.23c-.06.32.17.52.33.74s.49.68.76,1a.68.68,0,0,0,.37.12l1.53.23.56.07a.43.43,0,0,0,.43-.16.7.7,0,0,1,.17-.13.23.23,0,0,1,.16,0,.14.14,0,0,1,0,.14c-.17.28-.21.63-.52.82a.79.79,0,0,0-.22.31c-.11.23-.21.46-.32.7l0,0c-.18.16-.19.4-.27.6a.3.3,0,0,1-.24.15s-.15-.15-.14-.21a.59.59,0,0,0-.19-.57c-.17-.18-.28-.42-.44-.61a10.52,10.52,0,0,0-.76-.87c-.06-.07-.2-.07-.3-.09l-.43-.08Zm1.42.24a1.84,1.84,0,0,0,.14.34c.18.23.37.45.55.67a.23.23,0,0,0,.37,0c.13-.2.24-.41.35-.61s0-.2-.11-.23c-.39-.07-.77-.15-1.16-.21A.27.27,0,0,0,778.92,140Zm-1.25-.75,0-.07a3.25,3.25,0,0,0-.3-.51c-.17-.2-.39-.35-.57-.54s-.16,0-.22,0-.2.27-.29.41-.1.36.17.43l.73.16Z"/><path class="cls-51" d="M806,137.64v-.29c.25,0,.35.15.46.28a2.38,2.38,0,0,1,.49.93c.06.19.2.36.28.55a.46.46,0,0,1,0,.26c0,.06-.08.14-.12.14a.23.23,0,0,1-.17-.1,1,1,0,0,1-.12-.34c0-.26-.06-.27-.29-.15s-.29.2-.44.29l-.75.43-.91.51a9.94,9.94,0,0,0-.89.53,2.57,2.57,0,0,1-.6.34.34.34,0,0,0-.18.45.37.37,0,0,1-.09.31c-.09.08-.23-.05-.28-.2a4.36,4.36,0,0,0-.67-1.41.3.3,0,0,1-.06-.25c.05-.11.16-.06.27,0a.77.77,0,0,0,.41-.09c.33-.17.66-.34,1-.53s.54-.37.81-.54.49-.3.74-.45l.83-.49C805.8,137.72,805.9,137.69,806,137.64Zm.5.57c0-.17-.12-.25-.29-.15-.52.3-1.06.59-1.56.92s-1,.53-1.5.89c-.19.16-.43.24-.63.38a.53.53,0,0,0-.14.28s.09.1.14.1a1.12,1.12,0,0,0,.36-.09c.17-.08.32-.17.48-.26l.93-.56.55-.35.45-.23c.28-.16.57-.32.84-.49S806.5,138.49,806.5,138.21Z"/><path class="cls-51" d="M799.23,162.54c.2,0,.22-.11.19-.23-.08-.29-.18-.57-.27-.86s-.14-.48-.22-.72-.09-.2-.12-.3l-.18-.57s0-.06,0-.09c-.12-.32-.24-.63-.37-1a1.55,1.55,0,0,1-.19-.87c0-.06,0-.13-.07-.2s0-.17,0-.19a.3.3,0,0,1,.21,0,.31.31,0,0,1,.17.13,4.72,4.72,0,0,0,.59.67,7.79,7.79,0,0,1,.48.65c.32.41.67.8,1,1.21s.53.67.78,1c.11.15.22,0,.33,0h.2c0,.09,0,.22,0,.26a2.75,2.75,0,0,1-.44.32,3.11,3.11,0,0,0-.51.36c-.2.23-.49.27-.73.41a3.89,3.89,0,0,1-.74.28.42.42,0,0,1-.27,0s0-.14,0-.17A.69.69,0,0,1,799.23,162.54Zm.59-.17.26-.12c.19-.12.38-.23.56-.36s.2-.2.12-.34a3.26,3.26,0,0,0-.29-.36,4.32,4.32,0,0,1-.44-.52c-.14-.26-.21-.55-.51-.69,0,0,0,0,0-.06l-.18-.25a3.47,3.47,0,0,0-.25-.29s-.09,0-.13-.07,0,.1,0,.13a3.74,3.74,0,0,1,.22.45c.13.37.25.75.36,1.13S799.7,161.89,799.82,162.37Z"/><path class="cls-51" d="M798.07,136a1,1,0,0,1,.16.24.49.49,0,0,1,0,.33c-.08.13-.18,0-.27-.06a2.06,2.06,0,0,0-.26-.12l-.18-.08-.4-.22a.42.42,0,0,1-.18-.17.63.63,0,0,1,0-.24,1.71,1.71,0,0,1,.32,0s.06.08.1.11.15.05.2-.05.16-.49.39-.65c0,0,0-.08,0-.12.15-.32.29-.65.46-1s.29-.4.43-.61a2.39,2.39,0,0,0,.47-.89.78.78,0,0,1,.22-.3c.24-.25.2-.42-.1-.55-.06,0-.12-.09-.12-.13a.23.23,0,0,1,.1-.17.17.17,0,0,1,.15,0c.27.14.54.27.79.43a1,1,0,0,1,.18.28l-.26,0c-.06,0-.14,0-.16.06a2.51,2.51,0,0,1-.26.45c-.17.17-.14.48-.42.58,0,0,0,.05,0,.07,0,.19-.09.3-.17.44-.2.34-.38.69-.57,1l-.27.45-.3.53A1.33,1.33,0,0,0,798.07,136Z"/><path class="cls-52" d="M852.17,8.7l1,.07c5,1.46,22.3,7.14,27.35,7.56a10.31,10.31,0,0,0,3.31,1.06h0c1.15,1.62,14.54,4.26,19.7,5.45l1,.08A21.28,21.28,0,0,0,912.32,25a54.16,54.16,0,0,0,5.41,1.13l1,.09c.81,1.23,2.22,1,3.61.85l.73.32c.38.57,16.36,5.24,24.23,6.36l2.8.62c1.08.63,2.36.32,3.57.3l4.38.23c.89,1.07,2.07,1,3.27.87l5.46.22c1.25,1.31,2.83,1,4.36.87l18.65,0h4.15l.23.22c0,1.43,0,2.86,0,4.29-1.36,1.06-1.08,2.58-1.08,4q0,28.2,0,56.42c0,1.41-.28,2.94,1.08,4l1.14,0-.09,4.6a96,96,0,0,0-9-4.76c-11.16-4.51-22.17-3.48-33.12,1.09-14.46,6-29.64,9-45.21,10.08H903l-1.58,0c-10.19.51-20.11-2.71-30.27-2.31-16,.64-32.1,1.17-48.09,2.43-4.52.36-9.85,0-13.47,4.12l-2.24.16c-1.84,0-3.84-.8-5.36,1l-3.41.19-3.09-.06h-7.81a2,2,0,0,0-2.19.84c-4.3,0-8.6.07-12.9-.13a13.77,13.77,0,0,1-12.4-8.9,16.92,16.92,0,0,1,3.41-17.71A39.49,39.49,0,0,1,786.7,83.15c7.42-1.36,4.14-6.47,4.2-10.22.07-4.2-2.45-5.8-6.77-5.5-2.82.19-6.31,1.57-8.38-2a275.8,275.8,0,0,1,20-23.06c4.89-5.15,11.14-9,14.89-15.2h0c4.26-2.13,8.26-4.6,10.93-8.72h0c2.86-.36,4.76-2.46,7-4A32.74,32.74,0,0,1,852.17,8.7ZM794.35,112.4c-.08-7.9-2.35-12.54-6.47-13a22.3,22.3,0,0,0-15.06,3.64c-3.36,2.28-4.21,5.87-3.54,9.69.59,3.39,3.45,4.38,6.36,5.1,4.47,1.11,8.86.81,13.45.4C793.87,117.84,795.11,116,794.35,112.4ZM799,81.31c6.46.65,10.51-1.24,14-4.65,3.24-3.17,6.59-6.24,9.6-9.62a10.3,10.3,0,0,1,9-3.87c5.4.31,10.34-1.54,14.78-4.52,1.57-1,5-1.85,3-4.54-1.46-2-4.11-3.52-7.17-1.6-6.75,4.24-14.5,5.22-22.17,6.36-1.2.18-2.73-.34-3.41,1.08C812.65,68.07,806,74,799,81.31Zm36.46-1c6.19-1.23,11.14-4.66,15.91-8.36,1.23-1,1-2.64.89-4.07-.16-1.92-1.43-3-2.66-1.19C845.85,72.26,839.84,75.39,835.42,80.28Z"/><path class="cls-53" d="M1032.39,141.55c-5,.91-7.78-1-7.84-6.24v-2.18l-.14-4.41a1.34,1.34,0,0,0,.15-.92c.13-19.39.57-38.78-.23-58.16.74-16.69.41-33.38.16-50.07.1-1.63.25-3.25.29-4.88.08-3.14,1.67-4.6,4.77-4.59,15,0,30.1,0,45.14-.06,2.67,0,3.49,1.21,3.44,3.62-.11,4.89-.14,9.78-.21,14.67a13.17,13.17,0,0,0-9.08,10.45,165.54,165.54,0,0,0-2.23,44.81A38.13,38.13,0,0,1,1065,100c-1.55,4.52-3.55,8.89-5.36,13.32a51.93,51.93,0,0,0-6.44-.69c-12.81.12-18.69,9.42-13,20.37C1038,136.15,1033,136.86,1032.39,141.55Z"/><path class="cls-54" d="M1032.39,141.55c.62-4.69,5.56-5.4,7.86-8.53,7.92,5.6,17,6.39,23.67,2.06a11.54,11.54,0,0,0,2.12-17.79,19,19,0,0,0-6.38-4c1.81-4.43,3.81-8.8,5.36-13.32a38.13,38.13,0,0,0,1.59-16.43,165.54,165.54,0,0,1,2.23-44.81,13.17,13.17,0,0,1,9.08-10.45q.07,54.32.14,108.64a6.88,6.88,0,0,1-.37,1.57c-1.61.55-3.4.85-3.87,2.91l-31.6.1c-.2-.41-.39-.82-.58-1.23l-.57,1.24Z"/><path class="cls-55" d="M809.6,121.13c3.62-4.14,8.95-3.76,13.47-4.12,16-1.26,32-1.79,48.09-2.43,10.12-.4,20,2.79,30.16,2.31-1.16,5-4.79,4.72-8.44,3.72-3.49-1-5.33.47-4.35,3.62,1.71,5.54.38,10.54-1.32,15.64l-2.28,3.23c-.66-1.46-1.34-2.93-.83-4.6,1.08-.89.82-2.12.81-3.28-.38-2.67-.59-5.38-1.19-8-.78-3.42-1.83-6.37-6.54-6.35-4.27,0-8.53-1.13-12.81-1.67-1.35-.17-3.06-.9-4,.6-.72,1.2.6,2.32,1,3.47,2,5.8,6.67,10.26,8.35,16.24-.49,2.4.37,4.56,1.17,6.73-.24,1.76-.49,3.53-.74,5.29-2.42,1.42-3.18,4.64-6,5.62,1.15-4.89,3.47-9.75,2-14.83A103.16,103.16,0,0,0,857,120.83a3.6,3.6,0,0,0-3.57-2c-4.18.08-8.36.08-12.55.12-1.68,0-3.17.46-2,2.53,4.52,8.3,3.72,18,6.86,26.6-3.35.47-3.38,3.44-4.28,5.74l-2.34,3.2c-2.37.22-3.78,3.1-6.5,2.35a85.17,85.17,0,0,0,3.79-7.74c3.72-10,.61-19.53-2.55-29-.88-2.62-3-2.81-5.29-2.68l-18.9,1.12Z"/><path class="cls-56" d="M845.66,148.13c-3.14-8.64-2.34-18.3-6.86-26.6-1.13-2.07.36-2.51,2-2.53,4.19,0,8.37,0,12.55-.12a3.6,3.6,0,0,1,3.57,2,103.16,103.16,0,0,1,9.22,21.48c1.47,5.08-.85,9.94-2,14.83h0l-1.12,1.11,0,0-1.2,0c-1.92.92-2.84,3.43-5.37,3.4l-3.23-.08,0,0-1-1.09-.21-1.11-.87-1c-.11-.41-.21-.82-.31-1.23l-.82-.89-1.26-2.3Z"/><path class="cls-56" d="M809.59,121.13l18.9-1.12c2.29-.13,4.41.06,5.29,2.68,3.16,9.46,6.27,19,2.55,29a85.17,85.17,0,0,1-3.79,7.74l-1.2,3.12-2.07.06-3.27-1-1.14-1.19c-.32-.42-.65-.84-1-1.25-.07-1.06-.15-2.11-.22-3.16l-.89-1.12c.28-3.22-2.29-5.63-2.44-8.72-.27-.37-.54-.74-.82-1.1-.44-1.45-.89-2.9-1.33-4.35l-.85-1.09c-.48-1.47-1-2.94-1.42-4.4l-.77-1q-1.21-3.28-2.41-6.59l-.87-1.12a3.29,3.29,0,0,0-.18-1.07c.1-.88,0-1.68-.95-2.09l-.07-.08-1-1.05Q809.59,121.67,809.59,121.13Z"/><path class="cls-57" d="M887.21,139.87c1.7-5.1,3-10.1,1.32-15.64-1-3.15.86-4.57,4.35-3.62,3.65,1,7.28,1.26,8.44-3.72l4.42,0q1.05,1.52,2.1,0c15.57-1.12,30.75-4.06,45.21-10.08,11-4.57,22-5.6,33.12-1.09a96,96,0,0,1,9,4.76c-.36.62-.71,1.24-1.06,1.86-1.25-1.27-2.77-1-4.29-.75l-2.92-.4a4.41,4.41,0,0,0-5.16,0l-10.65.43a2.42,2.42,0,0,0-2.43.66l-4.13.43a2.18,2.18,0,0,0-2.31.7l-4.24.45-1.44.61-4,.43-1.42.66c-2.93-.27-5.6,1-8.39,1.46l-1.46.73-2.89.28a2.55,2.55,0,0,0-2.46.8l-6.27,1.35a2.45,2.45,0,0,0-2.47.84l-6.32.43a2.44,2.44,0,0,0-2.48.65c-7.43,0-14.86-.07-22.29-.06-2.7,0-5.31.2-4.75,4.07a1.17,1.17,0,0,0,0,2c0,1.91,0,3.82,0,5.73-.27.49-.53,1-.8,1.46C889.9,137.11,889.68,139.31,887.21,139.87Z"/><path class="cls-58" d="M998.39,124.44a2.46,2.46,0,0,1,2-2.27c9.72-2.47,13-9.94,14.55-18.76a241.36,241.36,0,0,1,7-29.92c.44-1.42.35-3.41,2.46-3.85.8,19.38.36,38.77.23,58.16a3.55,3.55,0,0,0-.92-.16h0c-.12-1.35-.68-2.18-2.2-1.92-5.76-.15-11.52-.27-17.27-.44C1002.22,125.23,1000.18,125.62,998.39,124.44Z"/><path class="cls-56" d="M869.77,139.5c-1.68-6-6.32-10.44-8.35-16.24-.41-1.15-1.73-2.27-1-3.47.9-1.5,2.61-.77,4-.6,4.28.54,8.54,1.68,12.81,1.67,4.71,0,5.76,2.93,6.54,6.35.6,2.63.81,5.34,1.19,8-1.12.89-1,2.07-.81,3.28-.51,1.67.17,3.14.83,4.6a2.34,2.34,0,0,1-1.08,2.2l-3.26-.09a3.65,3.65,0,0,0-1-.12l-1.12-1a2.94,2.94,0,0,0-1-.19C875.66,141.15,873.36,139.2,869.77,139.5Z"/><path class="cls-59" d="M856.54,161.62c2.53,0,3.45-2.48,5.37-3.4.41.69.81.87,1.2,0l0,0,1.12-1.11h0c2.84-1,3.6-4.2,6-5.62-.57,6.19-5.57,10.27-13.68,11.16A6.24,6.24,0,0,0,856.54,161.62Z"/><path class="cls-53" d="M1073.82,141.45c.47-2.06,2.26-2.36,3.87-2.91C1078,141.57,1076.05,141.73,1073.82,141.45Z"/><path class="cls-53" d="M1041.07,141.56l.57-1.24c.19.41.38.82.58,1.23Z"/><path class="cls-60" d="M794.35,112.4c.76,3.62-.48,5.44-5.26,5.87-4.59.41-9,.71-13.45-.4-2.91-.72-5.77-1.71-6.36-5.1-.67-3.82.18-7.41,3.54-9.69a22.3,22.3,0,0,1,15.06-3.64C792,99.86,794.27,104.5,794.35,112.4Z"/><path class="cls-60" d="M799,81.31C806,74,812.65,68.07,816.54,60c.68-1.42,2.21-.9,3.41-1.08,7.67-1.14,15.42-2.12,22.17-6.36,3.06-1.92,5.71-.37,7.17,1.6,2,2.69-1.41,3.49-3,4.54-4.44,3-9.38,4.83-14.78,4.52a10.3,10.3,0,0,0-9,3.87c-3,3.38-6.36,6.45-9.6,9.62C809.47,80.07,805.42,82,799,81.31Z"/><path class="cls-55" d="M835.42,80.28c4.42-4.89,10.43-8,14.14-13.62,1.23-1.85,2.5-.73,2.66,1.19.13,1.43.34,3.12-.89,4.07C846.56,75.62,841.61,79.05,835.42,80.28Z"/><path class="cls-61" d="M994.16,37.12c1.88,1.32,1.12,3.31,1.12,5q.08,31.86,0,63.72l-1.14,0V41.41C994.15,40,994.15,38.55,994.16,37.12Z"/><path class="cls-62" d="M994.14,41.41v64.41c-1.36-1-1.08-2.58-1.08-4q0-28.22,0-56.42C993.06,44,992.78,42.47,994.14,41.41Z"/><path class="cls-55" d="M907.84,116.85q-1.05,1.52-2.1,0Z"/><path class="cls-62" d="M1059.66,113.34a19,19,0,0,1,6.38,4,11.54,11.54,0,0,1-2.12,17.79c-6.67,4.33-15.75,3.54-23.67-2.06-5.72-11,.16-20.25,13-20.37A51.93,51.93,0,0,1,1059.66,113.34Z"/><path class="cls-57" d="M884.1,138.5c-.21-1.21-.31-2.39.81-3.28C884.92,136.38,885.18,137.61,884.1,138.5Z"/><path class="cls-55" d="M864.2,157.13l-1.12,1.11Z"/><path class="cls-55" d="M863.11,158.2c-.39.89-.79.71-1.2,0Z"/></g></svg>