<?xml version="1.0" encoding="utf-8"?>
<!-- Generator: Adobe Illustrator 19.1.0, SVG Export Plug-In . SVG Version: 6.00 Build 0)  -->
<svg version="1.1" id="Layer_1" xmlns="http://www.w3.org/2000/svg" xmlns:xlink="http://www.w3.org/1999/xlink" x="0px" y="0px"
	 viewBox="0 0 1224 792" style="enable-background:new 0 0 1224 792;" xml:space="preserve">
<style type="text/css">
	.st0{fill:#238784;}
	.st1{fill:#FFFFFF;}
	.st2{fill:none;stroke:#FFFFFF;stroke-width:8;stroke-linecap:round;stroke-linejoin:round;stroke-miterlimit:10;}
	.st3{fill:#53AAA7;}
	.st4{fill-rule:evenodd;clip-rule:evenodd;fill:#FFFFFF;}
	.st5{fill:#F8CE52;}
	.st6{fill:#DCB692;}
	.st7{fill:#81CFCB;}
	.st8{fill:none;stroke:#FFFFFF;stroke-width:7;stroke-linecap:round;stroke-linejoin:round;stroke-miterlimit:10;}
	.st9{fill:#FFFFFF;stroke:#FFFFFF;stroke-linecap:round;stroke-linejoin:round;stroke-miterlimit:10;}
	.st10{fill:none;stroke:#000000;stroke-width:2.5;stroke-miterlimit:10;}
	.st11{fill:none;stroke:#DCB692;stroke-width:3;stroke-miterlimit:10;}
	.st12{fill:#FFFFFF;stroke:#FFFFFF;stroke-width:2.5;stroke-miterlimit:10;}
	.st13{fill:none;}
	.st14{font-family:'Montserrat-Regular';}
	.st15{font-size:33.1263px;}
	.st16{font-size:30.3636px;}
	.st17{fill:none;stroke:#E1BB4B;stroke-miterlimit:10;}
	.st18{fill:#FAC8AF;stroke:#B99A7D;stroke-linejoin:round;stroke-miterlimit:10;}
	.st19{fill:#DCB692;stroke:#B99A7D;stroke-miterlimit:10;}
	.st20{fill:#B99A7D;}
	.st21{fill:#D1D3D4;}
	.st22{fill:#9D9FA2;}
	.st23{fill:none;stroke:#B99A7D;stroke-width:0.5;stroke-miterlimit:10;}
</style>
<g>
	<circle class="st0" cx="408.6" cy="260.2" r="87.3"/>
	<g>
		<path class="st1" d="M380,241.5h12.2v-11.1c0-4.9,0.1-12.5,3.9-17.1c4-5,9.5-8.3,19-8.3c15.5,0,22,2.1,22,2.1l-3.1,16.9
			c0,0-5.1-1.4-9.9-1.4c-4.8,0-9,1.6-9,6v12.9h19.5l-1.4,16.5h-18.2v57.5h-23V258H380V241.5z"/>
	</g>
</g>
<g>
	<circle class="st0" cx="580.1" cy="105.6" r="80.9"/>
	<g>
		<path class="st2" d="M586.1,131.4h-24.9c0,0-7.6-0.5-6.7-8.5V86.6v-6.7"/>
		<line class="st2" x1="542.2" y1="92.4" x2="554.5" y2="79.8"/>
		<line class="st2" x1="566.7" y1="92.4" x2="554.5" y2="79.8"/>
		<path class="st2" d="M576.4,80l24.9-0.2c0,0,7.6,0.5,6.8,8.4l0.3,36.4l0.1,6.7"/>
		<line class="st2" x1="620.6" y1="118.7" x2="608.4" y2="131.4"/>
		<line class="st2" x1="596.1" y1="118.9" x2="608.4" y2="131.4"/>
	</g>
</g>
<g>
	<circle class="st3" cx="702.4" cy="103.2" r="72.2"/>
	<path class="st4" d="M744.6,127c-0.5-0.1-1-0.2-1.5-0.4c-8.4-2.5-13.5-8.5-16.8-16.5c-0.7-1.7-0.1-3,1.7-3.9c1.4-0.7,3-1.1,4.4-1.8
		c1.3-0.7,2.7-1.4,3.8-2.4c1.6-1.4,1.3-3.5-0.3-4.8c-1.6-1.3-3.3-1.6-5.3-0.8c-1.2,0.4-2.4,0.8-3.6,1c-1.3,0.2-1.5-0.2-1.5-1.5
		c0.1-2.9,0.3-5.7,0.4-8.6c0,0,0,0-0.1,0c0-1,0-2,0-3c-0.1-8.6-4-15.1-11-19.5c-6.4-4.1-13.5-4.6-20.7-3
		c-9.9,2.2-18.2,11.3-17.9,22.8c0.1,3.6,0.2,7.2,0.3,10.8c0.1,1.9-0.1,2.2-2,1.9c-1.4-0.2-2.7-0.7-4.1-1.1c-2-0.6-4.5,0.5-5.3,2.3
		c-0.7,1.6-0.1,3.3,2,4.5c1.2,0.7,2.6,1.2,4,1.8c1.1,0.5,2.3,0.9,3.3,1.5c1.5,0.9,1.9,2.1,1.3,3.7c-0.3,1-0.7,1.9-1.2,2.8
		c-3.8,7.1-9.1,12.3-17.1,14c-1.7,0.4-2.3,2-1.2,3.4c0.7,0.9,1.6,1.7,2.6,2.1c2.5,0.9,5.1,1.6,7.8,2.3c1,0.2,1.5,0.7,1.6,1.7
		c0.1,1,0.4,1.9,0.7,2.9c0.3,1.1,1.1,1.7,2.2,1.7c0.9-0.1,1.9-0.2,2.8-0.4c4.8-0.9,9.3-0.5,13.2,2.8c0.9,0.8,2,1.4,3,2.1
		c5.3,3.7,11.1,4.6,17,2.3c2.9-1.1,5.5-3,8-4.8c3.4-2.4,7-3.1,11-2.6c1.3,0.2,2.6,0.4,3.9,0.6c1.7,0.2,2.5-0.4,2.9-2.1
		c0.2-0.9,0.4-1.8,0.6-2.8c0.2-0.8,0.6-1.2,1.4-1.3c2.3-0.5,4.6-1,6.9-1.8c1.3-0.5,2.7-1.4,3.7-2.5C747,129.1,746.4,127.5,744.6,127
		z"/>
</g>
<path class="st5" d="M537.4,495.5c0,0-25.4,1-47.7,45c0,0-13.9,12.2-32.7,12.7c-18.8,0.6-80.2,21.4-80.2,21.4s-28.1,12.5-38.2,49.8
	c-10.1,37.4-6.9,87.7-6.9,87.7v79.2h292.2V592.6l-56.9-6.4c0,0-40.4-53.7-40.1-61.4c0.3-7.7,7.3-17,11.1-17.4L537.4,495.5z"/>
<path class="st6" d="M536.4,463v44.9c0,0-9.2,0.3-10.9,15c0,0,5.1,19.2,43.2,69.7l19.8-6l-14.2-75.5L536.4,463z"/>
<g>
	<circle class="st7" cx="452.1" cy="140.1" r="61.4"/>
	<g>
		<path class="st8" d="M428.9,109.9c0,0,25.9,26,0,61.8l53.5-30.9L428.9,109.9z"/>
		<path class="st9" d="M428.9,132.3c0.8,1.6,2.2,5.1,2,9.6c-0.1,3.6-1.3,6.4-2,8c-3.1-1.5-6.2-3.1-9.2-4.6c-0.2-0.2-2-1.7-2-4.2
			c0-2.4,1.7-3.8,2-4C422.7,135.4,425.8,133.8,428.9,132.3z"/>
		<path class="st9" d="M460.2,164.6c4.6-2.4,9.3-4.8,13.9-7.2c2.3,3.5,4.6,7,6.9,10.5c0.9,1.3,1,2.9,0.3,3.9c-1,1.5-3.7,2-5.8,0.3
			C470.4,169.6,465.3,167.1,460.2,164.6z"/>
		<path class="st9" d="M460.2,117.6c4.7,2.3,9.4,4.7,14,7c2.2-3.5,4.5-7.1,6.7-10.6c0.9-1.3,1-2.9,0.3-3.9c-1-1.5-3.7-2-5.8-0.3
			C470.4,112.4,465.3,115,460.2,117.6z"/>
	</g>
</g>
<path class="st10" d="M707,468.2"/>
<path class="st11" d="M578.9,516.6c-20.3-18.1-32-36.6-38.4-48.7c-2.2-4.1-8.5-16.6-13.6-34.1c-7.4-25.3-7.3-44.2-7.3-44.2
	c-12.6,3-20.6-13.2-20.6-13.2s122.4-143,244.7-1.1c0,0-7.2,16.5-20,14.1c0,0,1,18.9-5.2,44.5c-4.3,17.7-10,30.5-12,34.7
	c-5.8,12.4-16.6,31.4-36,50.4"/>
<line class="st10" x1="539.9" y1="512.5" x2="539.9" y2="512.5"/>
<path class="st10" d="M539.9,467.5"/>
<g>
	<g>
		<path class="st6" d="M575.5,418.9c21.8,10.7,39.7,27.3,60.7,39.3c2,1.2,5-1.3,3.4-3.4c-5.7-7.7-12.2-14.6-18.7-21.6
			c-3.4-3.6-6.7-7.2-9.9-10.9c-3.2-3.6-8.6-7.9-10.4-12.4c-0.4,0.9-0.8,1.9-1.1,2.8c2.1-1,6.2,2.9,8,3.9c1.5,0.8,5.5,1.7,6.4,3.2
			c0.9-1.2,1.9-2.4,2.8-3.7c-8.4-2.7-15.4-8.5-23.8-11.3c-1.7-0.6-3,0.9-3.2,2.4c-0.7,6.1,5.3,11.7,8.7,16.4
			c2.6,3.6,4.1,9.4,9.3,8.6c1.7-0.2,2.1-2.4,1.5-3.7c-4.1-8.8-9.5-16.8-14.9-24.7c-2.8-4-5.6-8.1-8.2-12.2c-2.2-3.3-3.9-6.8-6.7-9.7
			c-1.6-1.7-5.2,0-4.2,2.4c4,9.5,9.1,18.4,14.8,27c1.3-1,2.6-2,3.9-3c-4.8-3.8-8.8-9.1-14.1-12.1c-2.3-1.3-4.4,1.2-3.4,3.4
			c4.9,10.6,12,19.8,18.8,29.2c1.3-1,2.6-2,3.9-3c-11.9-10.7-20.4-24.6-32.7-34.9c-1.7-1.4-5.2-0.1-4.2,2.4
			c4.1,10.2,13.2,17.7,18.6,27.2c1.3-1,2.6-2,3.9-3c-5.5-5.6-11.3-10.9-17.3-15.9c-1.5-1.2-3.5-0.8-4.2,1.1
			c-0.7,2.1-0.5,3.6,0.5,5.5c1.4,2.8,3.4,5.6,5,8.4c3,5.5,7.4,10.9,9.9,16.6c1.3-1,2.6-2,3.9-3c-5.4-4.8-10.3-10-15.4-15
			c-3.5-3.4-7-8.7-12.4-8.5c-1.4,0-2.4,1.1-2.5,2.5c-0.7,12.4,8,21.7,12.4,32.6c1.2,3,6,1.7,4.8-1.3c-4.1-10.3-12.8-19.6-12.2-31.2
			c-0.8,0.8-1.7,1.7-2.5,2.5c2.4-0.1,5.2,3.6,6.8,5c2,1.9,4,3.9,6,5.8c3.8,3.8,7.5,7.6,11.5,11.2c2.2,2,5-0.5,3.9-3
			c-1.9-4.4-5.3-8.4-7.7-12.7c-1.2-2.1-2.4-4.2-3.6-6.4c-0.7-1.2-4.2-6-3.6-7.6c-1.4,0.4-2.8,0.7-4.2,1.1c6,5,11.9,10.3,17.3,15.9
			c2,2.1,5.3-0.6,3.9-3c-2.6-4.6-6-8.9-9.2-13.1c-3.2-4.1-6.9-8-8.9-12.9c-1.4,0.8-2.8,1.6-4.2,2.4c12.3,10.3,20.8,24.2,32.7,34.9
			c2,1.8,5.7-0.6,3.9-3c-6.8-9.4-13.9-18.6-18.8-29.2c-1.1,1.1-2.3,2.3-3.4,3.4c4.9,2.8,8.6,7.8,13.1,11.3c2,1.6,5.6-0.4,3.9-3
			c-5.5-8.2-10.5-16.6-14.3-25.8c-1.4,0.8-2.8,1.6-4.2,2.4c3.2,3.3,5.4,7.9,7.9,11.8c2.4,3.5,4.8,7,7.2,10.6
			c5.1,7.5,10.1,15,13.9,23.3c0.5-1.2,1-2.4,1.5-3.7c0.8-0.1-4.6-7.6-5.2-8.4c-2.1-2.9-6.9-8.1-6.5-11.8c-1.1,0.8-2.1,1.6-3.2,2.4
			c8.4,2.8,15.3,8.6,23.8,11.3c2.1,0.7,3.9-1.8,2.8-3.7c-1.8-2.9-6.2-3.8-9.1-5.5c-3.8-2.3-7.6-5.4-12.2-3.3
			c-0.9,0.4-1.5,1.9-1.1,2.8c1.4,3.6,4.1,6,6.6,8.8c3.8,4.3,7.4,8.6,11.3,12.7c7.4,8,15.1,15.8,21.6,24.5c1.1-1.1,2.3-2.3,3.4-3.4
			c-21-12-38.9-28.6-60.7-39.3C575.2,413.2,572.6,417.5,575.5,418.9L575.5,418.9z"/>
	</g>
</g>
<g>
	<g>
		<path class="st6" d="M516.3,376.1c-1.9,0-3.7-0.3-5.6-0.5c-1.6-0.1-3.5-0.3-5-0.9c-3-1.2-4.3,3.6-1.3,4.8c1.6,0.7,3.8,0.9,5.6,1
			c2.1,0.2,4.2,0.5,6.3,0.5C519.5,381.1,519.5,376.1,516.3,376.1L516.3,376.1z"/>
	</g>
</g>
<g>
	<g>
		<path class="st6" d="M507.4,376.1c-1.6-0.1-2.4-0.1-3.6-1c-2.3-1.6-5.1,2-3,3.9c1.8,1.6,2.8,3.4,4.4,5c1.9,1.9,4.5,2.7,6.7,3.9
			c0.4-1.6,0.8-3.1,1.3-4.7c-0.6-0.2-1.3-0.4-1.9-0.6c-0.6,1.5-1.3,3-1.9,4.6c2.3,0.8,3.6,2.6,6.1,2.9c1.6,0.2,4.2,0.3,5.7-0.3
			c2.1-0.9,2.4-3.2,0.6-4.6c-2.5-1.9-5.5-3.2-8.1-4.8c-1.5-0.9-2.9-1.9-4.4-2.9c-0.4-0.3-3.4-1.7-3.5-2.1c-0.2,0.8-0.4,1.6-0.6,2.4
			c1.6-1.5,2.9-3.2,4.5-4.6c1.2-1,2.5-1.8,3.7-2.7c0.6-0.4,2.1-0.9,0.7-0.6c-1-1-2.1-2.1-3.1-3.1c-1.2,3.7-5.3,4.9-6.9,8.5
			c-1.3,2.9,3,5.5,4.3,2.5c1-2.3,2.8-2.9,4.4-4.6c1.4-1.4,2.4-3.3,3-5.1c0.6-1.9-1.3-3.5-3.1-3.1c-2.5,0.5-5.5,3.4-7.3,5.2
			c-1.7,1.6-5.3,4.3-4.5,6.9c0.8,2.6,5.2,4.4,7.3,5.8c3.5,2.4,7.6,4.1,11,6.6c0.2-1.5,0.4-3,0.6-4.6c-3.2,1.3-6.3-1.6-9.1-2.5
			c-2.7-0.9-4.4,3.2-1.9,4.6c1.5,0.8,2.7,1.4,4.5,1.2c2.3-0.3,3.6-3.3,1.3-4.7c-1.8-1-4.3-1.8-5.8-3.3c-1.5-1.5-2.7-3.3-4.3-4.8
			c-1,1.3-2,2.6-3,3.9c1.9,1.3,3.9,1.6,6.2,1.7C510.6,381.2,510.6,376.2,507.4,376.1L507.4,376.1z"/>
	</g>
</g>
<g>
	<g>
		<path class="st6" d="M512.6,371.2c0.5-2.9,3.7-4.6,5.8-6.4c2.3-1.9,4.8-3.5,7.1-5.4c2.5-2.1-1.1-5.6-3.5-3.5
			c-2.6,2.2-5.5,4-8.1,6.3c-1.3,1.1-2.9,1.9-3.9,3.1c-1,1.3-1.9,3-2.1,4.6C507.2,373,512,374.3,512.6,371.2L512.6,371.2z"/>
	</g>
</g>
<g>
	<g>
		<path class="st6" d="M528.3,353c-1.7,0.1-3.5,0.5-5,1.1c-2.9,1.2-0.6,4.9,1.9,4.6c3.2-0.4,5.1-2.6,7.2-4.9c1.7-1.9,0-4.6-2.4-4.2
			c-2.4,0.4-5.6,2.3-6.8,4.4c-1.3,2.2,1.3,4.6,3.4,3.4c2-1.1,3.8-2.8,5.7-4.1c2-1.4,4.2-2.7,6.5-3.6c2.9-1.2,1.6-6-1.3-4.8
			c-2.4,1-4.9,2.2-7,3.6c-2.1,1.5-4.2,3.4-6.4,4.6c1.1,1.1,2.3,2.3,3.4,3.4c0.6-0.9,2.8-1.9,3.9-2.1c-0.8-1.4-1.6-2.8-2.4-4.2
			c-1.5,1.7-2.6,3.3-5,3.6c0.6,1.5,1.3,3,1.9,4.6c-1.3,0.5,0.3,0.1,0.6,0c0.6-0.1,1.2-0.4,1.9-0.4
			C531.5,357.8,531.5,352.8,528.3,353L528.3,353z"/>
	</g>
</g>
<g>
	<g>
		<path class="st6" d="M538.9,346.8c-1.4-0.2,0.8,1.2,0.3,1.1c0.4,0.1,1.4-0.6,1.8-0.8c1.3-0.6,2.3-1.6,3.6-2.3
			c2.2-1.3,4.5-2.7,6.7-3.7c2.9-1.3,0.4-5.6-2.5-4.3c-1.9,0.9-3.6,2-5.4,3c-1.9,1-3.5,2.4-5.5,3.2c-2.2,0.9-3.4,1.9-3.6,4.4
			c-0.1,2.1,1.1,3.8,3.3,4.1C540.8,352,542.1,347.2,538.9,346.8L538.9,346.8z"/>
	</g>
</g>
<g>
	<g>
		<path class="st6" d="M554.1,337.7c-0.3-0.2-0.6-0.4-0.7-0.8c0,0.8,0,1.7,0,2.5c-1,1.4,0,0.3,0.6-0.1c0.6-0.3,1.2-0.6,1.8-0.9
			c1.8-1.1,3.4-2.5,5.2-3.5c2.6-1.4,5.6-2.2,8.2-3.4c2.9-1.4,0.4-5.7-2.5-4.3c-3.2,1.5-6.6,2.3-9.6,4.3c-1.7,1.1-3.3,2.4-5.1,3.3
			c-1.2,0.6-2.3,1.1-3.1,2.2c-0.5,0.7-0.4,1.8,0,2.5c0.6,1.1,1.5,2,2.5,2.6C554.4,343.6,556.9,339.3,554.1,337.7L554.1,337.7z"/>
	</g>
</g>
<g>
	<g>
		<path class="st6" d="M573,328.2c-0.5-0.3-0.9-0.7-1.1-1.3c-0.5,1.2-1,2.4-1.5,3.7c3.7-1.5,7.4-3,11.2-4.5c1.8-0.7,3.6-1.7,5.5-2.3
			c2.2-0.6,4.5-0.7,6.7-1.4c3-1,1.7-5.9-1.3-4.8c-2.1,0.7-4.2,0.8-6.3,1.3c-1.9,0.5-3.7,1.4-5.5,2.2c-3.8,1.6-7.6,3.1-11.5,4.6
			c-1.6,0.6-2.2,2.1-1.5,3.7c0.4,0.9,1.2,1.6,1.9,2.3C571.8,334,575.4,330.5,573,328.2L573,328.2z"/>
	</g>
</g>
<g>
	<g>
		<path class="st6" d="M598.1,320.9c0-0.8-0.1-0.9-0.2-0.4c-0.6,0.6-1.2,1.2-1.7,1.7c6.4-1.4,12.6-2.6,19.1-3.5
			c3.2-0.5,1.8-5.3-1.3-4.8c-4.9,0.7-9.8,1.2-14.7,2.5c-4.2,1.1-6.8,1.1-6,5.9C593.8,325.4,598.7,324,598.1,320.9L598.1,320.9z"/>
	</g>
</g>
<g>
	<g>
		<path class="st6" d="M599.5,318.9C599.3,318.9,599.2,318.9,599.5,318.9c-0.2-0.1-0.4-0.1-0.5-0.2c-0.3-0.2-0.6-0.4-0.9-0.6
			c-0.3-0.2-0.7-0.3-1-0.5c-0.1,0-1-0.5-0.5-0.2c-1.1-0.8-2.5-1-3.5,0c-0.9,0.9-1.1,2.7,0,3.5c0.8,0.6,1.7,0.9,2.5,1.4
			c0.8,0.5,1.6,1.1,2.6,1.3c1.3,0.2,2.8-0.3,3.1-1.7C601.6,320.8,600.9,319.2,599.5,318.9L599.5,318.9z"/>
	</g>
</g>
<g>
	<g>
		<path class="st6" d="M608.7,319.8c6.5-0.3,12.6-2.1,19.1-2c3.2,0,3.2-5,0-5c-6.5,0-12.7,1.7-19.1,2
			C605.5,315,605.5,320,608.7,319.8L608.7,319.8z"/>
	</g>
</g>
<g>
	<g>
		<path class="st6" d="M618.2,316.8C618.1,316.6,618.1,316.6,618.2,316.8c0.1,0.3,0.1,0.2-0.2-0.5c-0.1-0.1-0.1-0.4-0.2-0.5
			c0,0.1,0.1,0.2,0.1,0.3c0-0.1-0.1-0.2-0.1-0.3c0-0.1-0.1-0.2-0.1-0.3c0,0.4,0,0.9,0,1.3c0,0,0,0,0-0.1c-0.2,0.4-0.4,0.7-0.6,1.1
			c-0.4,0.2-0.9,0.4-1.3,0.6c1.3,0.1,2.6-1.2,2.5-2.5c-0.1-1.4-1.1-2.4-2.5-2.5c-0.8,0-1.6,0.3-2.2,0.8c-0.7,0.7-0.9,1.6-0.7,2.6
			c0.1,0.4,0.3,0.9,0.4,1.3c0.1,0.1,0.2,0.3,0.2,0.5c-0.2-0.5-0.2-0.4,0.1,0.3c0,0.1,0.1,0.2,0.1,0.3c0.2,0.5,1,1,1.5,1.1
			c0.6,0.2,1.4,0.1,1.9-0.3c0.5-0.3,1-0.9,1.1-1.5C618.6,318,618.5,317.4,618.2,316.8L618.2,316.8z"/>
	</g>
</g>
<g>
	<g>
		<path class="st6" d="M628.9,318.8c0.7-1.7,6.6-1.1,8-1c1.9,0.1,5,0.4,6.6,1.4c2.8,1.7,5.3-2.7,2.5-4.3c-3.3-2-8.2-2.1-11.9-2.1
			c-4,0-8.4,0.4-10.1,4.7C622.9,320.5,627.7,321.8,628.9,318.8L628.9,318.8z"/>
	</g>
</g>
<g>
	<g>
		<path class="st6" d="M649.7,318.3c-0.1-0.4-0.2-3-0.2-0.9c-0.8,0.8-1.7,1.7-2.5,2.5c1.4-0.1,3.1,0.7,4.5,0.8
			c1.5,0.2,2.9,0.1,4.3,0.5c1.8,0.5,6.7,1,7.9,2.7c1.8,2.7,6.1,0.2,4.3-2.5c-2.2-3.3-6.5-3.7-10.1-4.7c-1.5-0.4-2.9-0.7-4.4-0.8
			c-2.1-0.2-4.4-1.2-6.5-1c-1.3,0.1-2.5,1.1-2.5,2.5c0,0.7,0.2,1.5,0.3,2.2C645.3,322.8,650.1,321.4,649.7,318.3L649.7,318.3z"/>
	</g>
</g>
<g>
	<g>
		<path class="st6" d="M668.3,324.7c0-0.4,0-0.7,0-1.1c-0.4,0.5-0.8,1-1.1,1.5c1.8-0.8,4.8,1.3,6.4,2c1.8,0.8,3.9,1.8,5.5,3
			c2.6,1.9,5.1-2.5,2.5-4.3c-2.8-2-6.8-4-10.1-5.1c-1.7-0.6-4.2-0.9-5.9-0.3c-2.2,0.7-2.3,2.4-2.3,4.3
			C663.3,327.9,668.3,327.9,668.3,324.7L668.3,324.7z"/>
	</g>
</g>
<g>
	<g>
		<path class="st6" d="M684,332.7c0-0.8,0.4-2-0.6-1.2c-1,0.8-0.2,0.4,0.4,0.7c0.8,0.5,1.8,0.8,2.7,1.3c2.4,1.3,4.7,3,7,4.5
			c2.7,1.8,5.2-2.6,2.5-4.3c-3.5-2.3-6.9-4.8-10.9-6.3c-1.5-0.6-3.3-0.8-4.7,0.1c-1.8,1.2-1.5,3.3-1.5,5.2
			C679,336,684,336,684,332.7L684,332.7z"/>
	</g>
</g>
<g>
	<g>
		<path class="st6" d="M697.5,340.9c0-0.7,0.2-1.6,0.2-2.2c0-0.2,0.1-0.4,0.1-0.6c-0.3,0.2-0.6,0.4-0.8,0.6c0.1-0.2,0.4,0.4,0.6,0.7
			c0.4,0.5,1,0.9,1.5,1.3c1.9,1.5,3.5,3,5.1,4.8c2.1,2.4,5.7-1.1,3.5-3.5c-1.4-1.5-2.7-2.9-4.3-4.2c-0.8-0.7-1.7-1.3-2.4-2.1
			c-0.6-0.7-1.1-1.3-2-1.6c-1.6-0.6-3.8-0.4-5,0.9c-1.3,1.4-1.4,4.1-1.4,5.9C692.4,344.1,697.4,344.1,697.5,340.9L697.5,340.9z"/>
	</g>
</g>
<g>
	<g>
		<path class="st6" d="M710,345.9c0-0.3,0-0.7,0-1c-0.2,0.6-0.5,1.2-0.7,1.8c0.1-0.1,0.1-0.1,0.2-0.2c-0.6,0.2-1.2,0.5-1.8,0.7
			c-0.1,0,1.2,1,1.5,1.3c0.9,0.8,1.8,1.5,2.7,2.2c1.6,1.3,3.2,2.7,4.7,4.1c2.3,2.3,5.8-1.2,3.5-3.5c-2.6-2.6-5.5-4.8-8.3-7.1
			c-1.1-0.9-2.5-1.9-4-2c-2.1,0-2.9,1.8-2.8,3.7C705.2,349.1,710.2,349.1,710,345.9L710,345.9z"/>
	</g>
</g>
<g>
	<g>
		<path class="st6" d="M723.3,355.1c-0.3-0.4-0.6-0.8-0.8-1.3c-1.1,1.1-2.3,2.3-3.4,3.4c4.1,3,8.4,7.4,11.5,11.4
			c2.5,3.2,5.4,7.9,9.3,9.5c3,1.2,4.3-3.6,1.3-4.8c1.1,0.4-0.8-0.8-1.1-1.1c-0.8-0.8-1.7-1.7-2.5-2.5c-2-2.1-3.5-4.6-5.4-6.8
			c-3-3.5-7.1-7.2-10.7-9.9c-2.1-1.6-4.5,1.4-3.4,3.4c0.2,0.4,0.5,0.9,0.8,1.3C720.8,360.3,725.1,357.8,723.3,355.1L723.3,355.1z"/>
	</g>
</g>
<g>
	<g>
		<path class="st6" d="M741.3,380.8c0.2-0.5,0.3-1,0.4-1.5c-1.6-0.2-3.3-0.4-4.9-0.7c-0.1-0.9,0.2-0.4-0.5,0.1
			c-0.6,0.4-1.1,1.1-1.6,1.6c-1.5,1.4-2.7,1.8-4.6,2.5c-1.1,0.4-2.1,0.9-3.2,1.2c-0.5,0.1-0.9,0.2-1.4,0.2c-0.4,0-0.8,0-1.2,0
			c-0.5,0-0.4,0,0.1,0c-1.5-2.9-5.8-0.3-4.3,2.5c2.2,4.3,7.9,2.1,11.4,0.9c2.7-1,4.7-1.8,6.8-3.8c1.4-1.3,3.7-3.1,3.6-5.2
			c-0.2-2.7-4.2-3.5-4.9-0.7c-0.1,0.5-0.3,1-0.4,1.5C735.5,382.6,740.4,383.9,741.3,380.8L741.3,380.8z"/>
	</g>
</g>
<g>
	<g>
		<path class="st6" d="M718.5,386.9c0.2,4,1.1,8.2,0.4,12.2c-0.6,3.1,4.3,4.5,4.8,1.3c0.8-4.6,0-9-0.2-13.6
			C723.4,383.7,718.4,383.6,718.5,386.9L718.5,386.9z"/>
	</g>
</g>
<g>
	<g>
		<path class="st6" d="M718.2,401.2c0,2.3-0.5,4.5-0.7,6.9c-0.1,2.5-0.9,4.9-1,7.4c-0.1,3.2,4.9,3.2,5,0c0.1-2.5,0.9-4.9,1-7.4
			c0.1-2.3,0.7-4.5,0.7-6.9C723.1,398,718.1,398,718.2,401.2L718.2,401.2z"/>
	</g>
</g>
<g>
	<g>
		<path class="st6" d="M716,414.4c0,1.1,0,2.3,0,3.4c0,1.2-0.4,2.1-0.7,3.3c-0.5,1.9-0.9,4.1-1.2,6c-0.5,3.1,4.4,4.5,4.8,1.3
			c0.3-2.2,0.7-4.7,1.4-6.9c0.8-2.4,0.6-4.7,0.6-7.2C721,411.2,716,411.2,716,414.4L716,414.4z"/>
	</g>
</g>
<g>
	<g>
		<path class="st6" d="M712.5,425.2c0,2.3,0,4.6,0,6.9c0,1.3-0.3,3.1,0.4,4.3c0.8,1.4,2.8,1.6,3.9,0.5c1.9-1.8,2-6.1,2-8.5
			c0-3.2-5-3.2-5,0c0,1.2-0.1,2.3-0.4,3.5c-0.1,0.4-0.2,0.8-0.3,1.2c-0.2,0.8-0.6,0.9,0.1,0.2c1.3,0.2,2.6,0.3,3.9,0.5
			c0.2,0.9,0.3,1.1,0.2,0.4c0-0.2,0-0.4,0-0.6c0-0.9,0-1.8,0-2.7c0-1.9,0-3.8,0-5.7C717.5,422,712.5,422,712.5,425.2L712.5,425.2z"
			/>
	</g>
</g>
<g>
	<g>
		<path class="st6" d="M712.4,437.2c0.1,4.3-2.5,8.7-4,12.6c-1.2,3,3.6,4.3,4.8,1.3c1.8-4.5,4.3-9,4.2-14
			C717.3,434,712.3,434,712.4,437.2L712.4,437.2z"/>
	</g>
</g>
<g>
	<g>
		<path class="st6" d="M707.9,449.1c-0.2,4.7-2.9,9-4.4,13.3c-1.1,3,3.8,4.3,4.8,1.3c1.7-4.9,4.3-9.3,4.6-14.6
			C713.1,445.9,708.1,445.9,707.9,449.1L707.9,449.1z"/>
	</g>
</g>
<g>
	<g>
		<path class="st6" d="M702.6,462.6c-0.7,1.2-1.5,2.1-2,3.5c-0.4,1.2-0.7,2.5-0.9,3.8c-0.2,1.9,2.3,3.1,3.8,2.2
			c1.2-0.8,1.8-2.3,2.4-3.6c0.6-1.4,1.4-3,1.6-4.4c0.2-1.3-0.3-2.7-1.7-3.1C704.6,460.5,702.9,461.3,702.6,462.6
			c-0.1,1.1-0.6,2.2-1,3.2c-0.2,0.4-0.4,0.9-0.6,1.3c-0.1,0.3-0.3,0.5-0.4,0.8c-0.1,0.1-0.6,1.1-0.3,0.6c0.3-0.3,0.6-0.6,0.9-0.9
			c0,0-0.1,0.1-0.1,0.1c1.3,0.7,2.5,1.4,3.8,2.2c0.1-0.7,0.5-1.7,0.7-2.4c0.3-0.9,1-1.5,1.5-2.3
			C708.6,462.4,704.3,459.9,702.6,462.6L702.6,462.6z"/>
	</g>
</g>
<g>
	<g>
		<path class="st6" d="M700.1,469.2c-0.5,2.1-2.1,3.8-2.9,5.7c-0.7,1.6-1.3,3.5-2.5,4.8c-2.2,2.4,1.4,5.9,3.5,3.5
			c1.5-1.6,2.5-3.8,3.3-5.8c1-2.4,2.8-4.4,3.4-7C705.6,467.4,700.8,466.1,700.1,469.2L700.1,469.2z"/>
	</g>
</g>
<g>
	<g>
		<path class="st6" d="M693.5,480.7c-0.7,2.5-2.4,4.7-3.4,7c-1.3,2.8-3.9,4-5.5,6.5c-1.7,2.7,2.6,5.2,4.3,2.5
			c0.8-1.2,2.6-2.2,3.6-3.3c1-1.1,1.5-2.4,2.2-3.8c1.2-2.5,3-4.9,3.7-7.6C699.2,478.9,694.3,477.6,693.5,480.7L693.5,480.7z"/>
	</g>
</g>
<g>
	<g>
		<path class="st6" d="M683.4,494.1c-1,2.8-4.6,5.3-3.2,8.4c0.3,0.8,1.4,1.3,2.2,1.2c1.8,0,3.5-1.5,4.6-2.8c1.2-1.4,2.2-3.2,2.8-4.9
			c0.5-1.3-0.5-2.7-1.7-3.1c-1.4-0.4-2.6,0.5-3.1,1.7c0.2-0.5-0.5,0.9-0.6,1c-0.3,0.5-0.6,1.1-0.9,1.6c-0.6,0.7-1.3,1.3-2.2,1.7
			c0.4-0.1,0.8-0.2,1.3-0.3c-0.1,0-0.1,0-0.2,0c0.7,0.4,1.4,0.8,2.2,1.2c0-0.1,0-0.1-0.1-0.2c0.1,0.6,0.2,1.3,0.3,1.9
			c0.1-0.6,1.1-1.8,1.6-2.6c0.9-1.2,1.4-2.4,1.9-3.8c0.4-1.3-0.5-2.7-1.7-3.1C685.1,492,683.9,492.9,683.4,494.1L683.4,494.1z"/>
	</g>
</g>
<g>
	<g>
		<path class="st6" d="M667.7,510.8c0.9,1.3,1.5,2.6,3,3.2c1.3,0.6,2.7,0.4,3.9-0.1c-1-0.1-2-0.3-3-0.4c0.1,0.1,0.1,0.1,0.2,0.2
			c-0.2-0.8-0.4-1.6-0.6-2.4c0-0.2-0.1,0.2-0.2,0.4c0.9-0.4,1.9-0.8,2.8-1.1c-0.1,0-0.1-0.1-0.2-0.1c0.5,1.2,1,2.4,1.5,3.7
			c0.6-0.9,1.6-1.6,2.2-2.5c0.8-1.2,1.6-2.3,2.4-3.5c1.4-1.8,3-3.3,4.4-5c2-2.5-1.5-6-3.5-3.5c-1.6,2-3.4,3.8-5,5.8
			c-0.8,1-1.4,1.9-2.1,3c-0.8,1.2-1.9,2.1-2.7,3.2c-1.1,1.4,0.2,3.1,1.5,3.7c0.1,0,0.1,0.1,0.2,0.1c1.1,0.4,2.2-0.3,2.8-1.1
			c0.9-1.3,1-3-0.1-4.1c-0.9-0.9-2-0.8-3-0.4c-0.5,0.2,0.6-0.2,0.6-0.2c-0.2-0.4-0.5-0.8-0.7-1.1
			C670.2,505.7,665.8,508.2,667.7,510.8L667.7,510.8z"/>
	</g>
</g>
<g>
	<g>
		<path class="st6" d="M573.5,511.3c1.9,2,2.4,2.2,4.4,3.7c0.7,0.5,1.8,0.4,2.5,0c2.1-1,3.9-0.8,6.2-1.1c-0.3-0.4-0.5-0.7-0.8-1.1
			c0.2,0.3,0.4,0.5,0.6,0.7c0.3,0,1,0.4,1.4,0.5c4,1.2,9.5-0.2,13.7-0.2c3.2,0,3.2-5,0-5c-2.8,0-5.5,0.2-8.3,0.2c-0.7,0-1.5,0-2.2,0
			c-0.8-0.2-1.1,0.1-0.9,1.1c-0.3,0-0.9-1.1-1.5-1.1c-3.9-0.5-7.2-0.1-10.7,1.6c0.8,0,1.7,0,2.5,0c-1-0.7-2.5-2-3.4-2.9
			C574.8,505.4,571.3,509,573.5,511.3L573.5,511.3z"/>
	</g>
</g>
<g>
	<g>
		<path class="st6" d="M601.7,513.9c2,0,4,0.1,5.9-0.2c2.4-0.4,4.7-0.8,7.1-0.8c3.2-0.1,3.2-5.1,0-5c-4.4,0.1-8.6,1-13,1
			C598.5,508.9,598.5,513.9,601.7,513.9L601.7,513.9z"/>
	</g>
</g>
<g>
	<g>
		<path class="st6" d="M609,514.3c5,0,9.8-0.5,14.8-1c3.2-0.3,3.2-5.3,0-5c-5,0.4-9.8,1-14.8,1C605.7,509.3,605.7,514.3,609,514.3
			L609,514.3z"/>
	</g>
</g>
<g>
	<g>
		<path class="st6" d="M621.7,514.1c5.1,0,10,0.2,15-0.9c3.1-0.7,1.8-5.5-1.3-4.8c-4.5,1-9.1,0.7-13.7,0.7
			C618.5,509.1,618.5,514.1,621.7,514.1L621.7,514.1z"/>
	</g>
</g>
<g>
	<g>
		<path class="st6" d="M634.5,513.6c3.2,0,6.4,0.1,9.6,0c3.3,0,6.3-0.7,9.5-1.3c3.2-0.5,1.8-5.3-1.3-4.8c-6,1-11.7,1-17.8,1
			C631.3,508.6,631.3,513.6,634.5,513.6L634.5,513.6z"/>
	</g>
</g>
<g>
	<g>
		<path class="st6" d="M646.1,513c5.3,0,10.5,0.5,15.7,0.6c3.2,0,3.2-5,0-5c-5.3,0-10.5-0.6-15.7-0.6C642.9,508,642.9,513,646.1,513
			L646.1,513z"/>
	</g>
</g>
<g>
	<g>
		<path class="st6" d="M648.5,513.7c3,0,5.9,0.1,8.9-0.1c2-0.1,5.7-1.2,7.6-0.7c-0.2-1.5-0.4-3-0.6-4.6c1.1-0.6-0.7,0.2-1,0.3
			c-2.2,0.6-2.6,4.4,0,4.8c2.2,0.4,4.5,0.3,6.7,0.7c3.1,0.6,4.5-4.2,1.3-4.8c-2.3-0.4-4.5-0.4-6.7-0.7c0,1.6,0,3.2,0,4.8
			c0.8-0.2,1.5-0.4,2.2-0.8c2-1,1.4-4-0.6-4.6c-2.4-0.7-5.1,0.3-7.5,0.4c-3.4,0.2-6.9,0.1-10.3,0.1
			C645.3,508.7,645.3,513.7,648.5,513.7L648.5,513.7z"/>
	</g>
</g>
<g>
	<g>
		<path class="st6" d="M552.7,486.4c1.7,2.2,3.6,4.2,5.2,6.4c0.9,1.1,1.7,2.2,2.7,3.3c0.7,0.9,2.3,2.3,2.7,3.4
			c1.2-0.9,2.4-1.9,3.7-2.8c-2.1-1.4-3.7-4.1-5.1-6.1c-1.4-2-3-4-4.3-6.1c-1.7-2.8-6-0.2-4.3,2.5c1.5,2.5,3.3,4.8,5,7.2
			c1.7,2.4,3.7,5.2,6.2,6.8c1.8,1.2,4.4-0.8,3.7-2.8c-0.9-2.7-3.5-4.9-5.3-7.1c-1.9-2.4-3.9-4.7-5.8-7.1
			C555.1,481.3,550.8,483.8,552.7,486.4L552.7,486.4z"/>
	</g>
</g>
<g>
	<g>
		<path class="st6" d="M546.6,477c1.2,1.5,2.1,3.3,3,5c0.8,1.5,1.7,3,2.6,4.1c2.2,2.4,5.7-1.2,3.5-3.5c0.4,0.8,0.5,0.9,0.3,0.4
			c-0.1-0.2-0.2-0.4-0.3-0.5c-0.1-0.2-0.3-0.4-0.4-0.6c-0.6-0.8-1.1-1.7-1.5-2.6c-0.8-1.6-1.8-3.3-2.9-4.7c-0.8-1.1-2.1-1.6-3.4-0.9
			C546.4,474.2,545.8,476,546.6,477L546.6,477z"/>
	</g>
</g>
<g>
	<g>
		<path class="st6" d="M537.7,459.4c0.5,4.3,2.3,7.3,4.5,10.9c1.5,2.5,2.7,8,6.3,8.1c3.2,0.1,3.2-4.9,0-5c-0.1,0-0.2,0-0.3,0
			c0.6,0.2,1.2,0.5,1.8,0.7c-0.9-0.7-1.5-2.8-2-3.9c-0.6-1.1-1.1-2.1-1.8-3.2c-1.6-2.4-3-4.7-3.4-7.6
			C542.4,456.2,537.4,456.2,537.7,459.4L537.7,459.4z"/>
	</g>
</g>
<g>
	<g>
		<path class="st6" d="M532.6,444.1c0.1,3.6,0.7,6.5,1.9,9.9c0.9,2.5,1.5,5.1,3.2,7.2c2.1,2.5,5.6-1.1,3.5-3.5
			c-1.2-1.4-1.6-4-2.2-5.8c-1-2.6-1.4-5-1.5-7.8C537.6,440.9,532.6,440.8,532.6,444.1L532.6,444.1z"/>
	</g>
</g>
<g>
	<g>
		<path class="st6" d="M526.3,428.2c0,4.4,0.1,7.7,1.8,11.8c1.4,3.5,2.1,7.3,4.8,10.1c2.3,2.3,5.8-1.2,3.5-3.5
			c-2-2.1-2.4-5.2-3.5-7.9c-1.5-3.8-1.7-6.5-1.7-10.5C531.3,425,526.3,424.9,526.3,428.2L526.3,428.2z"/>
	</g>
</g>
<g>
	<g>
		<path class="st6" d="M522.7,419.9c0,0.8,0,1.6,0.2,2.4c0.2,0.8,0.8,1.5,1.1,2.3c0.6,1.3,0.9,2.7,1.6,3.9c1.6,2.8,5.9,0.3,4.3-2.5
			c-0.5-0.8-0.8-1.9-1.2-2.9c-0.2-0.6-0.7-1.2-0.9-1.8c-0.2-0.5-0.2-0.9-0.1-1.4C527.8,416.7,522.8,416.7,522.7,419.9L522.7,419.9z"
			/>
	</g>
</g>
<g>
	<g>
		<path class="st6" d="M526.7,414.9c-0.4,0-0.8,0-1.2,0c0.8,0.6,1.6,1.2,2.4,1.8c-0.4-0.9-0.3-1.9-0.5-2.8c-0.3-1.5-1-2.9-1.2-4.3
			c-0.5-3.1-0.3-6.2-0.6-9.3c-0.3-3.2-5.3-3.2-5,0c0.3,3.3,0.1,6.6,0.5,9.9c0.2,1.5,0.9,2.9,1.2,4.4c0.3,1.2,0.3,2.4,0.7,3.6
			c0.4,1,1.2,1.9,2.4,1.8c0.4,0,0.8,0,1.2,0C529.9,419.7,529.9,414.7,526.7,414.9L526.7,414.9z"/>
	</g>
</g>
<g>
	<g>
		<path class="st6" d="M519.5,389c0,3.5,0.8,7,1.5,10.4c0.7,3.1,5.5,1.8,4.8-1.3c-0.6-3-1.4-6.1-1.4-9.1
			C524.5,385.8,519.5,385.8,519.5,389L519.5,389z"/>
	</g>
</g>
<g>
	<g>
		<path class="st6" d="M516,374.9c0.7,0.8,1.6,1.9,2,2.9c0.4-1.5,0.8-2.9,1.2-4.4c0.7-0.9,0.2,0-1.9-0.2c-1.3-0.2-2.7-0.8-3.8-1.2
			c0.4,2.7,0.7,5.5,1.1,8.2c1.9-0.9,3.8-1.6,5.2-3.3c0.6-0.8,0.9-1.7,1.4-2.6c0.3-0.7,1.5-2.5,0.7-1.9c-1.8-0.2-3.6-0.5-5.5-0.7
			c-1.5-1.7-0.7-0.3-1.1,1.6c-0.2,1.3-0.7,2.5-1,3.7c-0.6,2.6-1.1,4.9,0.6,7.1c1.9,2.4,5.3,3.1,7.6,5c2.8,2.3,3.6,3,3.6,6.6
			c0.4-1.1,0.9-2.1,1.3-3.2c-0.1,0.1-0.2,0.3-0.4,0.4c1.1-0.4,2.1-0.9,3.2-1.3c-0.2,0-0.4,0-0.6,0c1.1,0.4,2.1,0.9,3.2,1.3
			c1.4,1.4-0.6-2.8-1-3.5c-1.4-2.5-5.1-3-7.1-0.9c-1.9,2.1-1.7,4.4-1.7,7.1c0.1,3.4-0.1,7,0.5,10.4c1.3,7.3,1.6,14.8,3.7,22
			c1,3.4,2.2,6.7,3.1,10.1c1,3.6,3.4,6.5,4.6,10c1.1,3.1,1.3,6.3,3,9.3c1.2,2.1,2.8,5.5,5.1,6.7c5.2,2.5,9.7-5.2,4.5-7.8
			c1.4,0.7,0.1-0.4-0.4-1.2c-0.8-1.3-1.7-2.3-2.2-3.8c-1-2.6-1.2-5.4-2.4-8c-1.3-2.8-3-5.3-3.8-8.3c-0.7-2.7-1.7-5.2-2.5-7.8
			c-2-6.3-2.1-12.2-3.1-18.6c-0.4-2.9-1.1-5.4-1.2-8.3c0-1.3-0.1-2.6-0.1-3.8c-0.1-2.1,0.8-3.5-1-1.5c-2.4-0.3-4.7-0.6-7.1-0.9
			c1.2,2.2,0.7,4.6,3.3,6c1.9,1,4.4,0.8,6-0.7c3.4-3.2,1.9-10.5-1.1-13.4c-1.8-1.8-3.9-3.9-6.1-5.2c-0.6-0.4-3.4-2.1-3.9-2
			c-1.2-0.8-1.1-0.2,0.3,1.8c0.2-0.7,0.4-1.4,0.5-2.1c1.1-4.1,2.7-9.5-0.5-13c-1.3-1.4-3.8-1.7-5.5-0.7c-3.3,2.1-3.7,6.1-7.3,7.8
			c-3.7,1.8-2.3,7.1,1.1,8.2c4.1,1.4,10.4,3,14.1-0.4c4.1-3.8-0.2-8.6-2.7-11.8C518.8,364,512.5,370.4,516,374.9L516,374.9z"/>
	</g>
</g>
<g>
	<g>
		<path class="st6" d="M542,381.5c-3.8-2.7-7.7-6.6-10.7-10.1c-1.3-1.5-2.5-3.1-3.8-4.6c-1.4-1.5-3.3-1.9-4.6-3.2
			c-0.3,2.4-0.6,4.7-0.9,7.1c7.7-4.1,16.1-7.6,21.1-15.3c2.6-4-2.4-8.1-6.2-6.2c-6.9,3.6-17.3,7.2-18,16.1
			c-0.7,8.9,6.6,16,15.1,17.1c3,0.4,5-3.2,4.3-5.7c-1-3.8-3-7.2-5.1-10.5c-2.4,1.8-4.7,3.6-7.1,5.5c3.1,3.4,6,7.8,8.6,11.6
			c0.5-2.1,1.1-4.1,1.6-6.2c-2.8,1.2-8.4-1.8-11-2.8c-3.9-1.5-6.8,3.4-5.1,6.6c1.4,2.6,3.7,4.7,5.8,6.9c2.2,2.3,4.3,5,6.6,7.1
			c3.7,3.3,7.7,1,11-1.8c4.1-3.5,7.7-8.8,5.5-14.2c-1.2-3-3.4-5.8-5.2-8.4c-1.5-2.1-4.4-4.7-5.3-7.1c-0.4,1.5-0.8,2.9-1.2,4.4
			c4.5-4.3,11.1-6.9,14.2-12.7c1.3-2.5,0.2-5.9-2.7-6.6c-2.6-0.7-5.3-0.7-8-0.7c1.3,0.7,2.6,1.5,3.9,2.2c-0.1-0.2-0.3-0.4-0.4-0.5
			c0.2,1.2,0.3,2.3,0.5,3.5c0-0.1,6.8-3.2,7.5-3.8c2-1.5,4-4.3,6.5-4.7c5.7-0.8,3.3-9.5-2.4-8.7c-3.1,0.4-5.6,2.9-7.9,4.9
			c-3,2.5-6.8,3.4-9.7,5.8c-2.2,1.8-3.7,4.7-2.3,7.5c2,3.9,6.5,2.3,9.9,3.2c-0.9-2.2-1.8-4.4-2.7-6.6c-2.6,5-8.9,7.2-12.8,10.9
			c-1.1,1-1.7,3-1.2,4.4c1.6,4.2,5.2,7.8,7.8,11.5c1.2,1.8,3.3,4.1,2.7,6c-0.6,1.8-3.3,4.1-5.1,4.5c1.5,0.4,2.9,0.8,4.4,1.2
			c-1.9-1.6-3.6-3.8-5.4-5.7c-2-2.1-4.8-4.4-6.2-7c-1.7,2.2-3.4,4.4-5.1,6.6c5.8,2.2,11.9,4.5,17.9,1.9c2.1-0.9,2.8-4.3,1.6-6.2
			c-3-4.5-6.3-9.4-10-13.5c-3.4-3.7-9.9,1.2-7.1,5.5c1.7,2.6,3.4,5.3,4.2,8.3c1.4-1.9,2.9-3.8,4.3-5.7c2.1,0.2-0.2-0.1-0.8-0.4
			c-1.2-0.6-2.8-1.1-3.8-2.2c-1.6-1.7-2.4-4.8-0.7-6.5c3.1-3.2,8.8-5.2,12.7-7.3c-2.1-2.1-4.1-4.1-6.2-6.2c-1.3,2-5.3,5.4-7.5,7
			c-3.1,2.3-7,3.3-10.4,5.1c-2.6,1.4-2.9,5.1-0.9,7.1c1.4,1.4,3.3,1.9,4.7,3.4c1.6,1.7,3,3.7,4.6,5.4c3.5,3.7,7.6,7.6,11.7,10.5
			C542.2,392.6,546.7,384.8,542,381.5L542,381.5z"/>
	</g>
</g>
<g>
	<g>
		<path class="st6" d="M553.4,341.2c-2.1,4.6-7.7,7.3-10.6,11.7c-1.3,2-2.4,4.1-3.6,6.1c-1.3,1.9-3.2,3.8-4.1,6
			c-1.6,3.9,1,7.2,4.1,9.3c4.5,3.1,9,5.2,12.7,9.5c3.8,4.5,9.9-1.9,6.4-6.4c-4-5-6.4-11.1-10.5-16c-3.2-3.9-10,1.3-7.1,5.5
			c3.7,5.2,12.2,8.1,18,10.5c2.2,0.9,5-1,5.5-3.1c1.9-7.5-6.8-17-11.5-22.1c-3.6-3.9-9.3,1-7.1,5.5c1.2,2.2,2.8,4.3,4.4,6.3
			c0.6,0.7,1.1,1.5,1.7,2.2c1,1.3,1.3,2.2,1,1c1.4-1.9,2.9-3.8,4.3-5.7c-1.6-0.1-3.5-1-5-1.7c-0.9-0.4-2.6-2.5-1.6-0.6
			c-0.9,2.2-1.8,4.4-2.7,6.6c4.9-1.6,9.3-2.9,11.8-7.8c1.5-3,3.1-8.3,0.1-10.9c-1.6-1.4-3.6-1.7-5.5-0.7c-8.2,4.3,1.4,16.2,8,16.2
			c1.4,0,3.3-0.8,3.9-2.2c2-4.5,2.7-13.9-1.4-17.7c-2.6-2.4-8.1-0.9-7.7,3.2c0.4,5,1.6,9.8,3.1,14.6c1.4,4.4,4.2,9.5,4.8,14
			c1.1-1.4,2.2-2.9,3.3-4.3c-1.5,0.5-10-4-10.2-5.6c-0.4,1.1-0.9,2.1-1.3,3.2c1.7-2,5.7,0.7,7.4,1.6c-0.7-0.9-1.4-1.8-2.1-2.7
			c0.1,0.3,0.2,0.6,0.3,0.9c1-1.8,2.1-3.7,3.1-5.5c-5.1,2-10.2,0.1-12.7,6.3c-1.2,2.9-0.8,6.2-1.8,9.2c-0.9,2.9-3.7,3-5.8,4.8
			c-3,2.6-0.5,7.7,3.2,7.7c10.2-0.1,20-4.5,28.7-9.5c3.1-1.8,2.9-7.6-1.1-8.2c-2.8-0.5-5.5-0.1-8.3,0.2c-3.2,0.3-7.2,0.3-10.3,1.3
			c-2.4,0.8-3.8,2.4-4.6,4.8c-1,2.9-0.1,6.1-0.8,8.8c1-1,2.1-2.1,3.1-3.1c-3.9,0.9-7.9,0.7-11.5,2.6c-2.2,1.2-3.9,3.1-6.1,4.3
			c-1.9,0.9-4,1.1-5.8,2.3c-6.8,4.5,0.1,13.7,5,16.8c2.2,1.4,6.2,0.2,6.6-2.7c0.2-1.3-0.3-4.3,0.2-5.4c0.5-1.1,2.8-1.3,4.3-1.8
			c3.9-1.1,7.7-2.6,11.5-4.2c7.5-3.1,14.6-6.3,22.4-8.7c-0.8-2.9-1.6-5.8-2.4-8.7c-0.2,0.1-0.3,0.1-0.5,0.2
			c-5.4,1.9-3.1,10.6,2.4,8.7c0.2-0.1,0.3-0.1,0.5-0.2c5.4-1.9,3.2-10.4-2.4-8.7c-9.7,3-18.5,7.4-27.9,10.9
			c-4.2,1.6-9.4,2.1-13.3,4.5c-4.5,2.8-2.7,6.6-3.3,10.9c2.2-0.9,4.4-1.8,6.6-2.7c-1.1-0.7-3.5-3.9-3.8-5.4
			c-0.2,1.2-0.3,2.3-0.5,3.5c-0.6,0.9,3-0.7,3.7-1.1c2-0.9,3.5-2.4,5.4-3.6c3.6-2.3,7.4-2,11.4-3c1.5-0.3,2.7-1.7,3.1-3.1
			c0.5-1.7,0.1-3.2,0.1-4.9c0.1-1.1,0.2-2.2,0.5-3.2c-1.2,0.7-1.2,0.9-0.1,0.6c1.6,0.5,4.8-0.5,6.5-0.7c1.8-0.2,4.2-0.8,5.9-0.5
			c-0.4-2.7-0.7-5.5-1.1-8.2c-7.3,4.2-15.6,8.2-24.1,8.3c1.1,2.6,2.1,5.1,3.2,7.7c-0.4,0.4,2.7-1.2,3.5-1.8c1.6-1.2,2.9-2.7,3.7-4.6
			c1.8-3.8,0.9-8.7,3.4-12.2c-0.9,0.7-1.8,1.4-2.7,2.1c2.8-0.8,5.6-0.4,8.4-1.5c2.2-0.9,3.9-3,3.1-5.5c-2.2-7.4-19.3-10.6-21.8-1.7
			c-1.4,4.9,3.4,8.6,6.9,11c4.2,2.8,9.3,6.3,14.6,4.6c1.7-0.6,3.6-2.3,3.3-4.3c-0.6-4.6-2.7-8.6-4.1-13c-1.6-5.1-3.4-10.2-3.8-15.6
			c-2.6,1.1-5.1,2.1-7.7,3.2c0.2,0.1,0.3,0.3,0.5,0.4c-0.4-1.1-0.9-2.1-1.3-3.2c0.3,2.8,2,6.8,0.8,9.5c1.3-0.7,2.6-1.5,3.9-2.2
			c0.7,0.5,0.5,0.4-0.6-0.4c-0.8-1.4-1.8-1.1-2.9,1c-1.8-0.2-3.6-0.5-5.5-0.7c-0.5-3.1-0.8-3.6-1.1-1.5c-0.2,1-0.5,1.9-1,2.7
			c-1.3,1.6-4,1.9-5.8,2.5c-2.9,0.9-4,3.9-2.7,6.6c2.1,4.2,10.1,6.5,14.4,6.8c2.9,0.2,5.1-3,4.3-5.7c-1.3-4.4-5.9-7.5-8-11.6
			c-2.4,1.8-4.7,3.6-7.1,5.5c2.1,2.3,3.9,4.8,5.6,7.3c0.8,1.1,1.6,2.3,2.3,3.5c0.4,0.7,1.1,3,1.3,2.5c1.8-1,3.7-2.1,5.5-3.1
			c-3.1-1.3-11.5-4.8-12.6-6.3c-2.4,1.8-4.7,3.6-7.1,5.5c4,4.8,6.6,11,10.5,16c2.1-2.1,4.2-4.2,6.4-6.4c-2.1-2.4-4.2-4.4-6.8-6.2
			c-2.3-1.7-7.2-3.3-8.5-5.9c0.2,1.2,0.3,2.3,0.5,3.5c0.3-1.7,2.6-3.8,3.6-5.2c1.5-2.3,2.6-4.7,4.2-6.9c2.9-4,7.9-6.2,10-10.9
			C563.6,340.6,555.8,336,553.4,341.2L553.4,341.2z"/>
	</g>
</g>
<g>
	<g>
		<path class="st6" d="M637.4,388.7c-3.6,0-7-1.8-10.2-3.2c-3.9-1.7-7.9-3.2-11.9-4.9c-3.1-1.4-6.8-2.9-9.4-5.2
			c-2.3-2-4.2-4.5-6.8-6.4c-2.6-1.9-5.4-3.5-7.8-5.6c-2.5-2.1-3.4-4.6-5.3-7.3c-2.2-3.1-4.1-6.1-6-9.4c-1.2-2.1-2.5-4-4.2-5.6
			c-0.8-0.8-1.8-1.4-1.9-2c-0.3,2.6-0.7,5.1-1,7.7c0.1-0.3,0.3-0.6,0.4-0.8c-1.2,1.2-2.4,2.4-3.6,3.6c2.9-2.1,7.7-2.8,11.1-3.7
			c4.7-1.3,8.9-2.9,13.5-4.6c4.1-1.5,8.1-1.5,12.4-1.8c5.3-0.3,10.5-1.6,15.8-1.6c12.9,0,12.9-20,0-20c-4.1,0-8.1,0.7-12.2,1.2
			c-4.5,0.6-9,0.4-13.5,1.1c-7.2,1.2-13.5,4.4-20.5,6.2c-6.9,1.9-17,3.3-20.6,10.3c-5,9.7,4.5,15.5,8.4,22.6
			c1.7,3.1,4.1,5.8,5.9,8.8c2,3.3,3.6,6.4,6.6,9c2.9,2.5,6,4.9,9.3,7.1c2.5,1.7,4.2,3.7,6.4,5.7c5.9,5.3,13.5,8.3,20.7,11.2
			c7.9,3.2,15.6,7.6,24.4,7.6C650.2,408.6,650.3,388.6,637.4,388.7L637.4,388.7z"/>
	</g>
</g>
<g>
	<g>
		<path class="st6" d="M618.3,353c0-7.3,0.1-14.5-0.6-21.7c-0.5,1.7-0.9,3.4-1.4,5c-0.7,0.7-1.5,1.4-2.2,2
			c11.2-2.1,8.4-19.8-2.7-19.6c-1.1,0-2.2,0-3.3,0c0,6.7,0,13.3,0,20c7,0,18.3,2.2,23.7-3.3c7.7-7.7-0.6-20.3-10.4-19.5
			c-11.1,0.9-13.8,16.1-2.7,19.6c4,1.3,10,2.3,14.2,1.9c8.1-0.8,11.8-7.8,8.6-15c0.1,0.2,0.1,0.3,0.2,0.5c-3.2,4.2-6.4,8.4-9.6,12.7
			c0.1,0,4.1,0.3,5.2,0.6c2.5,0.6,4.9,2,7.6,2.4c2.6,0.4,3.4,0.4,6.2,1.3c1.8,0.6,3.3,1,5.2,1.2c2.2,0.3-1.5-0.6,0.9,0.2
			c12.3,3.8,17.5-15.3,5.3-19.3c-3.4-1.1-3.6-0.5-6.7-2.3c-11.3-6.2-21.4,11-10.1,17.3c3.9,2.1,7.5,3,11.5,4.3
			c1.8-6.4,3.5-12.9,5.3-19.3c-4.9-1.5-9.9-1.9-14.9-3.2c-1.9-0.5-4.1-1.7-6.2-2.1c-2.8-0.5-6.4-1.1-9.2-1.1c-6,0-12,6.4-9.6,12.7
			c0.6,1.5,1.2,2.9,1.8,4.3c2.9-5,5.8-10,8.6-15c-2.8,0.3-6.3-0.3-8.9-1.1c-0.9,6.5-1.8,13.1-2.7,19.6c-1.7-1-3.5-2.1-5.2-3.1
			c-0.3-2.6-0.7-5.1-1-7.7c0,0.2-0.1,0.4-0.1,0.6c1.5-2,3.1-4,4.6-6c-0.2,0.1-0.4,0.3-0.7,0.4c1.7-0.5,3.4-0.9,5-1.4
			c-5.2,0.6-10.8,0-16,0c-12.9,0-12.9,19.9,0,20c1.1,0,2.2,0,3.3,0c-0.9-6.5-1.8-13.1-2.7-19.6c-7,1.3-11.8,7.6-10.8,14.6
			c0.8,6.3,0.3,12.9,0.3,19.3C598.3,365.9,618.3,365.9,618.3,353L618.3,353z"/>
	</g>
</g>
<g>
	<g>
		<path class="st6" d="M625.5,342.5c0-4.3-1-8.6-1.8-12.8c-0.2-1-0.5-1.9-0.9-2.9c-1.7-4,0.3,4.1,0.2,1.3c-0.1-4-2.3-7.5-5.7-9.5
			c-4.8-2.9-10.7-0.9-13.7,3.6c-0.1,0.2-0.3,0.4-0.4,0.6c-2.9,4.4-1,11.3,3.6,13.7c5,2.6,10.6,1.1,13.7-3.6c0.1-0.2,0.3-0.4,0.4-0.6
			c-4.6,1.2-9.1,2.4-13.7,3.6c0.2,0.1,0.3,0.2,0.5,0.3c-1.5-2-3.1-4-4.6-6c-0.1-1.7-0.1-2,0-0.9c0,1.2,0.2,2.3,0.6,3.3
			c1.2,2.7,1.4,3.2,0.5,1.3c0.1,0.7,0.2,1.3,0.3,2c0.2,1.4,0.4,2.7,0.7,4.1c0.2,1.2,0.3,1.3,0.2,0.3c0.1,0.7,0.1,1.4,0.1,2.1
			c0.1,5.2,4.6,10.2,10,10C620.9,352.2,625.6,348.1,625.5,342.5L625.5,342.5z"/>
	</g>
</g>
<g>
	<g>
		<path class="st6" d="M610.3,339c-8.1,0.1-15.8-0.6-23.8-1.6c-5.5-0.7-13.9,2.5-18.5,7.4c-4,4.2-4.1,13,2,15.7
			c7.8,3.5,16.2,5.2,24.2,8.5c3.6,1.5,7.2,3.1,10.7,4.8c2.9,1.4,7.8,3.1,10,5c1.5-5.6,2.9-11.1,4.4-16.7c-0.4,0.1-0.8,0.1-1.2,0.2
			c1.8,0,3.5,0,5.3,0c-8.1-1.2-15.7-4.7-23.9-5.7c-8.1-0.9-11.6,9-8.6,15c2.2,4.5,5.6,8.3,8.9,11.9c2.6,2.8,6.2,6,7.8,9.4
			c2.9-5,5.8-10,8.6-15c-7.1,0.5-15.5-4.9-22-7.5c-8-3.2-16-6.1-23.2,0.4c-2.4,2.2-4.2,4.7-7,6.5c-3.6,2.3-7.4,4.3-11.2,6.2
			c-8.1,4-16.2,7-19.4,16.3c-0.6,1.8-0.6,3.7-1.1,5.5c-0.3,1.1-1.2,2.4-1.6,3.6c-1.4,4.3-1.2,9.1,0.3,13.4c1.3,3.6,3.3,7,4.5,10.6
			c1.4,4.1,2.9,8.2,4.7,12.2c1.7,3.9,3.6,7.7,5.3,11.6c1.9,4,3.2,9.1,6.4,12.2c8,7.9,20,2.8,20.9-8c0.7-8.7-2.7-17.7-3.9-26.3
			c-0.8-5.6-1.3-11.3-2.1-17c-0.4-2.5-0.7-5-1.1-7.6c-0.1-0.9-0.3-1.9-0.4-2.8c0,0.1-0.3-4.7-0.6-2.7c-4.1,2.3-8.2,4.7-12.3,7
			c-2.6-1-0.1,0.4,0.9,1.6c0.6,0.8,1.2,1.7,1.8,2.5c1.9,2.7,3.9,5.3,5.9,7.9c3.9,4.9,9.6,10.8,16.5,8c5.5-2.2,7.9-6.4,7-12.3
			c-1.2-7.7-5-15-7.9-22.1c-2.3,4.1-4.7,8.2-7,12.3c0.3-0.1,0.7-0.3,1-0.4c-1.8,0-3.5,0-5.3,0c0.3,0.1,0.7,0.2,1,0.3
			c-1.5-0.9-2.9-1.7-4.4-2.6c3.1,3.3,7.6,5.5,11.3,8.2c3.9,2.8,7.6,5.9,11.5,8.7c5.4,4,13-0.4,14.7-6c1.8-6.1-1-10-4-14.9
			c-1.3-2.2-2.6-4.5-3.8-6.8c-0.6-1.1-1.3-2.2-1.9-3.3c-0.3-0.5-1.9-4.2-1.6-1.3c-5,2.9-10,5.8-15,8.6c10.5,5.5,17.3,15.8,27.4,21.9
			c6.2,3.7,15.5-1,15-8.6c-0.4-7.5-3.8-13-6.5-19.7c-4.9,3.8-9.8,7.5-14.7,11.3c11.4,6.6,21.2,15.7,32.3,22.8
			c6.9,4.3,14.5-1.5,15-8.6c0.5-6.9-5.8-15.6-10.2-20.6c0.9,1.5,1.7,2.9,2.6,4.4c-0.1-0.3-0.1-0.7-0.2-1c0,1.8,0,3.5,0,5.3
			c0.1-0.4,0.3-0.7,0.4-1.1c-4.9,2-9.8,4-14.7,6c4.1,1.8,8.2,3.8,12.1,6.1c1.8,1.1,3.6,2.2,5.4,3.3c1,0.7,2,1.3,3,2
			c1.7,1,2,1.3,0.9,0.9c-0.9-1.5-1.7-2.9-2.6-4.4c0,0.3,0.1,0.5,0.1,0.8c0.3-2.6,0.7-5.1,1-7.7c-1.2,2.8-5,4.8-7.4,6.4
			c-3.4,2.2-6.9,4.5-11.1,4.3c-8.3-0.4-14.7-7.2-22.8-8.4c-6.6-1-12.3,2.6-12.7,9.6c-0.6,10.9,11.5,20.3,20.4,24.4
			c4.9,2.3,9.9,4.4,15,6.3c5.4,2,10.7,4.5,16.5,4.6c6,0.1,12-6.6,9.6-12.7c-5.3-13.6-16.6-25.7-27.1-35.6c-5.8-5.6-17.8-2-17.1,7.1
			c1,12.6,11,22.7,15,34.4c4.9-3.8,9.8-7.5,14.7-11.3c-12.2-6.1-23.8-13.8-35.7-20.6c1.2,1.2,2.4,2.4,3.6,3.6
			c-5.2-6.8-10.8-9.9-19.4-8.5c-8.3,1.3-8.5,11.6-4.4,16.7c6,7.6,12.6,14.8,19.1,22c0.7-5.2,1.3-10.5,2-15.7c-0.3,0.2-0.7,0.4-1,0.7
			c1.7-0.5,3.4-0.9,5-1.4c-0.3,0-0.7,0-1,0c1.7,0.5,3.4,0.9,5,1.4c-2.1-1.2-4.2-2.9-6.3-4.1c-2.5-1.4-4.9-2.9-7.3-4.4
			c-4.7-3-9.2-6.1-14.3-8.3c-4-1.7-9.3,1.1-11.3,4.6c-2.3,4-1.4,8.8,1.6,12.1c6.6,7.4,13.5,14.5,20.4,21.6c0.7-5.2,1.3-10.5,2-15.7
			c-0.2,0.1-0.5,0.2-0.7,0.4c2.6-0.3,5.1-0.7,7.7-1c-0.2-0.1-0.5-0.1-0.7-0.2c1.5,0.9,2.9,1.7,4.4,2.6c-6.1-6.1-15.1-13.7-23.5-18.1
			c-6.2-3.2-15.7,0.6-15,8.6c0.6,7.7,4.1,13.3,7.9,19.8c1.8,3.1,3.7,6,5.6,9c0.9,1.5,1.9,2.9,2.8,4.4c0.5,0.7,1,1.5,1.5,2.2
			c1.9,3,2.1,2.7,0.8-0.9c5-2.9,10-5.8,15-8.6c-6.2-3.9-12.4-7.9-18.7-11.8c-9.5-5.9-20.7,8-12.1,15.7c2.1,1.9,4.2,3.9,6.5,5.7
			c1.8,1.5,3.3,2,4.3,4.1c4.6-4.6,9.1-9.1,13.7-13.7c-2.3-1.2-4.6-2.4-6.8-3.7c-1-0.6-2-1.2-3-1.8c-0.7-0.5-2.6-2.5-1.5-0.7
			c0.3,2.6,0.7,5.1,1,7.7c0.1-0.4,0.2-0.8,0.4-1.2c1.1-3.4-0.1-7.2-2.6-9.7c-3.6-3.7-8.7-4.5-13.4-6.2c-6.1-2.3-11.5-2.3-17.5,0.4
			c-6.8,3.1-9.2,10.6-5.2,17c1.4,2.3,3.5,4,4.9,6.3c1.5,2.7,3.1,5,5.2,7.3c3.7,4.1,7,8.4,10.6,12.5c3.3,3.8,5.8,8.4,9.2,12.1
			c4.5,4.9,8.2,6.8,14.9,6.8c1.8,0,4.9-0.1,5.5,0c3.6,0.2,6.4,1.1,9.7-1.3c4.7-3.3,6.1-8.4,3.6-13.7c-5.2-10.8-15.3-18.7-23.8-26.7
			c-9.3-8.8-23.5,5.3-14.1,14.1c7.3,6.9,16.3,13.5,20.7,22.7c1.2-4.6,2.4-9.1,3.6-13.7c-0.2,0.1-0.4,0.3-0.6,0.4
			c1.7-0.5,3.4-0.9,5-1.4c2.2,0.1-1.5-0.2-1.4-0.2c-1.5-0.2-2.9-0.2-4.3-0.2c-1.5,0-3.2-0.1-4.7,0c-4.2,0.4,2.2,0.2,2.2,1.3
			c0-0.6-3.7-4.6-4.3-5.4c-1.7-2.6-3.7-5.1-5.7-7.4c-3.5-4-6.6-8.3-10.2-12.1c-1.8-1.9-2.9-3.5-4.2-5.9c-0.8-1.4-1.7-2.8-2.8-4
			c-0.6-0.7-2.5-3.8-1.5-0.8c-0.3,2.6-0.7,5.1-1,7.7c0.1-0.2,0.2-0.5,0.4-0.7c-1.2,1.2-2.4,2.4-3.6,3.6c-0.9,0.2-0.7,0.1,0.3-0.1
			c0.9-0.2,1.8-0.4,2.7-0.6c-2.2-0.2-2.6-0.1-1.2,0.3c0.8,0.3,1.6,0.6,2.4,0.9c1.4,0.5,2.8,1,4.3,1.4c0.4,0.1,0.7,0.2,1.1,0.3
			c1.7,0.6,1.5,0.4-0.7-0.7c-0.9-3.2-1.7-6.5-2.6-9.7c-3.7,11.8,10.8,17.8,19.1,22.3c8.9,4.8,18.4-4.8,13.7-13.7
			c-3.1-6-9-9.4-13.9-13.8c-4,5.2-8.1,10.5-12.1,15.7c6.3,3.9,12.4,7.9,18.7,11.8c5.9,3.7,16-1,15-8.6c-0.9-7.4-5.8-12.6-9.7-18.8
			c-1.9-3-3.7-6-5.5-9.1c-1.1-2-3.2-4.2-3.4-6.6c-5,2.9-10,5.8-15,8.6c7.3,3.8,13.6,9.7,20.1,14.6c-1.2-1.2-2.4-2.4-3.6-3.6
			c3.5,6.2,9.9,8.7,16.4,5.3c5.8-3.1,6.3-11.3,2-15.7c-6.9-7.1-13.8-14.2-20.4-21.6c-3.2,5.6-6.5,11.1-9.7,16.7
			c2.4,1,4.9,3.3,7.1,4.7c3,1.8,5.9,3.7,8.9,5.5c6.3,3.6,11.9,8.7,19.3,3.9c5.5-3.6,6.5-10.8,2-15.7c-6.5-7.2-13.1-14.4-19.1-22
			c-1.5,5.6-2.9,11.1-4.4,16.7c-1.3,0.4-2.4,0.2-3.2-0.7c0.6,1.2,1.5,2.1,2.6,2.8c1.6,1.3,3.4,2.2,5.1,3.2c3.5,2,7.1,4.1,10.6,6.2
			c6.9,4.2,13.7,8.4,21,12.1c7.2,3.6,17.7-2.5,14.7-11.3c-2-5.7-4.9-10.9-7.7-16.3c-1.3-2.5-2.6-5-3.8-7.5c-0.5-1.1-1.1-2.3-1.6-3.4
			c-0.3-0.8-0.7-1.6-1.2-2.3c-0.5-0.9-0.5-0.8,0,0.4c-5.7,2.4-11.4,4.7-17.1,7.1c4.6,4.4,8.9,9.2,13,14.1c3.2,3.9,7.1,7.9,8.9,12.7
			c3.2-4.2,6.4-8.4,9.6-12.7c-2.8-0.1-6.9-2.4-9.5-3.3c-3.3-1.2-6.5-2.5-9.7-3.9c-6-2.6-11-5.6-14.1-11.5c0.5,1.7,0.9,3.4,1.4,5
			c0-0.5,0.1-1.1,0.1-1.6c-4.2,3.2-8.4,6.4-12.7,9.6c3.7,0.5,6.9,2.8,10.3,4.3c4.4,2,8.7,3.6,13.4,4.3c10.9,1.6,20.4-2.7,29-9.1
			c7.3-5.4,18.1-15.2,9.1-24.4c-6.6-6.7-16.6-11.3-25.1-15.1c-6.2-2.7-12.3-0.6-14.7,6c-2.8,7.9,4.8,15.2,8.2,21.7
			c-0.5-1.7-0.9-3.4-1.4-5c0,0.6-0.1,1.1-0.1,1.7c5-2.9,10-5.8,15-8.6c-11.1-7-20.9-16.2-32.3-22.8c-6.9-4-18,2.8-14.7,11.3
			c1.7,4.4,5.5,9.6,5.8,14.4c5-2.9,10-5.8,15-8.6c-4.6-2.8-8.3-7.1-12.3-10.7c-4.7-4.2-9.5-8.2-15.1-11.1c-6-3.1-16,0.6-15,8.6
			c1.1,9.7,8.5,18,13.3,26.3c-0.5-1.7-0.9-3.4-1.4-5c0-0.1,0.1-0.2,0.1-0.3c4.9-2,9.8-4,14.7-6c-4.7-3.5-9.3-7.3-14.2-10.7
			c-4.8-3.4-10-8-16.3-5.5c-4.6,1.8-9.2,6.9-7,12.3c2.9,7.2,6.8,14.4,7.9,22.1c2.3-4.1,4.7-8.2,7-12.3c-0.3,0.1-0.6,0.2-0.9,0.4
			c2.6,0.3,5.1,0.7,7.7,1c-2.8-1.5-5.8-6.9-8.1-10.1c-3.7-5-7.3-9.2-13.2-11.3c-4.7-1.7-11.5,1.9-12.3,7c-0.8,5.5,0.2,10.7,1,16.2
			c0.8,5.4,1.5,10.9,2.2,16.4c0.7,5.6,1.4,11.2,2.6,16.7c0.5,2.4,1.2,4.8,1.5,7.2c0.1,1,0.1,2.1,0.3,3.1c0.3,1.7-1.2,2,0.7-1.5
			c1.2-1.2,2.4-2.4,3.6-3.6c-0.2,0.1-0.4,0.3-0.6,0.4c1.7-0.5,3.4-0.9,5-1.4c0.2-0.1,0.3-0.1,0.5-0.2c1.5,0.9,2.9,1.7,4.4,2.6
			c0.8,1.4,0.5,0.9-0.6-1.7c-0.5-1.2-1-2.3-1.6-3.5c-1-2.2-2.1-4.5-3.1-6.7c-1.9-4.1-4.1-8.3-5.6-12.6c-1.3-3.6-2.4-7.3-4-10.9
			c-0.5-1.2-1.7-2.7-1.9-4c-0.2-1.2,0.9-2.6,1.4-4c1.2-3.4,0.1-5.5,3.4-7.3c3.5-1.9,7.2-3.3,10.7-5.1c4.1-2.1,8.1-4.3,11.8-7
			c2.1-1.5,3.9-3.1,5.6-4.9c0.4-0.4,2.9-2.7,2.4-2.4c-1.7,0.5-3.4,0.9-5,1.4c-1.7,0.1,0.4,0.2,1.1,0.4c1.8,0.6,3.6,1.1,5.3,1.7
			c3.4,1.2,6.8,2.8,10.1,4.2c6.2,2.6,12.9,5.5,19.8,5c7.9-0.6,12-8,8.6-15c-3.9-8.2-12.7-13.2-16.8-21.3c-2.9,5-5.8,10-8.6,15
			c8.7,1,15.9,6.3,25,4.8c7.2-1.2,9.9-12.1,4.4-16.7c-6.6-5.7-15.8-9.1-23.7-12.5c-4.7-2-9.4-4-14.2-5.7c-3.5-1.3-7.6-1.7-10.9-3.2
			c0.7,5.2,1.3,10.5,2,15.7c-1.1,1.1,1.8-0.8,1.8-0.8c1.3-0.7,2.5-1.6,3.8-2.3c-1.7,0.5-3.4,0.9-5,1.4c3.4-0.3,8.5,0.9,12.4,1.4
			c5.1,0.6,10.1,0.5,15.2,0.4C623.1,358.9,623.2,338.9,610.3,339L610.3,339z"/>
	</g>
</g>
<g>
	<g>
		<path class="st6" d="M581.3,474.3c0,3.3-0.8,5.8-2.3,8.7c-0.7,1.4-1.5,2.8-2.2,4.2c-0.3,0.7-0.6,1.4-1,2.1
			c1.9-1.9,2.1-2.4,0.7-1.4c-10.9,6.7-0.9,24.1,10.1,17.3c5.1-3.1,7-6.9,9.6-12.1c3.1-6,4.9-12,5-18.8
			C601.5,461.4,581.5,461.4,581.3,474.3L581.3,474.3z"/>
	</g>
</g>
<g>
	<g>
		<path class="st6" d="M607.3,482c0-4,0-8,0-12c0-1.9,0-3.7,0-5.6c-0.1-1.8,0.8-4.6-0.9-1.4c-1.2,1.2-2.4,2.4-3.6,3.6
			c0.3-0.2,0.6-0.4,1-0.6c-1.7,0.5-3.4,0.9-5,1.4c3-0.3,10.4,3.9,14.1,5.4c4.6,1.9,9.7,4.4,14.7,4.5c6.5,0.1,11.9-5.1,11.6-11.7
			c-0.2-3.5-1.8-6.1-3.9-8.7c-0.2-0.3-0.7-1-1-1.2c-2.3-1,1.2-3.1-0.4,2c-1.5,2-3.1,4-4.6,6c1.9-1,5.6-0.3,7.6-0.1
			c3.6,0.5,7,2,10.6,0.9c9.1-2.5,8.4-13.3,8.6-20.7c0.2-7.6,0.1-15.2,0.3-22.7c0.2-6.5,1.5-14.8-1.8-20.7c-0.9-1.6-2.1-3.1-3.5-4.2
			c-0.5-0.4-5.4-3.7-3.7-1.9c1.3,1.4-1.5-2-1.8-2.4c-0.8-0.9-1.5-1.9-2.2-2.9c-4.2-5.9-8.6-11.7-12.5-17.8c-2-3.1-3.8-6.2-5.7-9.4
			c-0.7-1.2-1.6-2.4-2-3.7c-0.2-1-0.3-1-0.2-0.1c0.1-0.4,0.3-0.8,0.5-1.2c1.7-2.4,2.8-4.4,5.1-6.4c1.7-1.5,1.9-2.6,4.3-1.4
			c-1.2-1.2-2.4-2.4-3.6-3.6c0.2,0.3,0.4,0.6,0.6,0.9c-0.3-2.6-0.7-5.1-1-7.7c0.5-1.2,0.5-1.2,0-0.2c-2.7,5.8-0.7,12.8,6,14.7
			c1.4,0.4,2.8,0.6,4.2,1.1c-1.5-0.9-2.9-1.7-4.4-2.6c-0.1-0.1-0.2-0.2-0.3-0.3c-0.5-1.7-0.9-3.4-1.4-5c2.7-3.8,3-4.8,0.9-3.2
			c-0.5,0.3-1.1,0.7-1.6,1c-1.7,1-3.4,1.8-5.1,2.6c-3,1.4-6,2.9-8.4,5.2c-6.6,6.6-5.9,16.3-0.8,23.4c9.4,13.2,23.2,23,35.6,33.2
			c3.5,2.9,8,4,12.1,1.6c3.7-2.2,5.9-7.1,4.6-11.3c-2.3-7.5-5.4-14.7-8.9-21.7c-1.6-3.3-3.2-6.5-4.8-9.7c-0.8-1.6-1.6-3.2-2.3-4.9
			c-0.2-0.5-1.1-3.8-1.1-2c-0.5,1.7-0.9,3.4-1.4,5c0.1-0.2,0.3-0.4,0.4-0.7c-1.2,1.2-2.4,2.4-3.6,3.6c2.4-1.1,5.2-1.5,7.6-2.9
			c3.4-2,5.7-5.1,7.1-8.7c2.6-6.5,3.2-14.6,2.2-21.5c-1.2-8.5-14.6-9.6-18.3-2.4c-3.7,7.3-1.2,16.8,0.2,24.4
			c1.6,8.5,2.7,17.1,4.4,25.6c1.6,8.2,4.1,16.6,3.2,25c-0.8,7.7-4.5,14.8-8.3,21.4c-3.8,6.7-6.1,14-11.6,19.5
			c-5,5-11.1,9.8-17.6,12.5c-6.7,2.8-17.7,2.7-21.7,9.5c-2.1,3.6-1.8,7.9-2,11.9c-0.3,4.9-0.9,10,1.8,14.4c5.2,8.5,17.1,9.4,26,9.6
			c9.3,0.2,18.3-5.9,25.9-11c6.9-4.6,6.3-16-2.4-18.3c-11-2.8-23-0.9-34.2-1.6c-11.2-0.7-13.6,17.1-2.7,19.6c1.6,0.5,1.3,0.1-1-0.9
			c-0.9-1.5-1.7-2.9-2.6-4.4c0,0.2,0.1,0.5,0.1,0.7c0.3-2.6,0.7-5.1,1-7.7c-1.5,2.1-5.7,5.1-7.9,6.7c1-0.8-0.8,0.5-0.9,0.6
			c-1.2,0.9-2.5,1.7-3.6,2.7c-6.3,5.5-6.7,16.6,2.7,19.3c3,0.9,6.3,0.2,9.3-0.2c3.9-0.5,7.8-0.6,11.8-0.7c7.1,0,14.2-0.5,21.3-0.9
			c7.6-0.4,15.8-0.9,23.2-2.5c3.5-0.8,7.7-1.9,10.3-4.5c3.4-3.4,4.2-8.8,1.8-13c-3.3-5.6-10.3-9.8-16-12.4
			c-3.4-1.5-6.9-2.6-10.5-3.6c-3-0.8-6-1.1-8.3-3.3c0,4.7,0,9.4,0,14.1c-2,0.6-2,0.7-0.2,0.3c1.4-0.5,2.7-1.1,4-1.8
			c1.6-0.8,3.2-1.7,4.8-2.6c3.6-2.1,7-4.6,10.4-7.1c7.4-5.5,15.4-10,16.3-19.9c0.8-8.4,2.5-16.2,4.4-24.4c1-4.6,1.7-9.2,2.3-13.9
			c0.5-3.7,0.3-7.8,1.1-11.3c3-12.5-16.3-17.8-19.3-5.3c-1.2,4.8-1,9.8-1.6,14.7c-0.6,4.5-1.5,8.9-2.5,13.3
			c-2.3,9.6-3.4,18.9-4.7,28.6c0.5-1.7,0.9-3.4,1.4-5c-1,1.9-4.3,3.7-6.1,5c-2.6,2-5.3,4-8,5.8c-2.7,1.8-5.6,3.7-8.6,5
			c-3.1,1.4-5.5,1.9-7.8,4.7c-3.5,4.1-4.1,10.1,0,14.1c5.5,5.4,11.6,6.9,18.7,8.9c3.1,0.9,5.9,1.7,8.6,3.4c1.1,0.6,2.1,1.4,3.1,2.1
			c0.3,0.2,2.1,2.1,1.2,0.8c-0.5-1.7-0.9-3.4-1.4-5c0,0.2,0,0.5,0.1,0.7c1-2.4,2-4.7,2.9-7.1c-0.2,0.2-0.4,0.3-0.6,0.5
			c1.5-0.9,2.9-1.7,4.4-2.6c-9.8,3.5-20.5,2.8-30.7,3.8c-5.3,0.5-10.6,0.5-16,0.5c-3.1,0-6.2,0.2-9.3,0.5c-1.4,0.2-3.1,0.2-4.5,0.6
			c-0.5,0.2-3.1-0.1,0,0.4c2,1.5,4,3.1,6,4.6c-0.1-0.1-0.1-0.2-0.2-0.4c0.3,2.6,0.7,5.1,1,7.7c-0.8,2.7-2.9,3.9-0.3,2.1
			c1-0.7,2-1.4,2.9-2.2c3.3-2.6,6.6-5.4,9.5-8.4c7.6-7.8,3.4-18.2-6.7-20.5c-0.9,6.5-1.8,13.1-2.7,19.6c9.3,0.6,19.8-1.4,28.9,0.9
			c-0.8-6.1-1.6-12.2-2.4-18.3c-3.2,2.1-6.6,3.9-9.8,5.8c-3.5,2.1-4.4,2.5-8.3,2.3c-1.6-0.1-3.3-0.1-4.9-0.4
			c-0.8-0.2-1.6-0.4-2.3-0.6c-1.3-0.7-0.7,0.3,1.6,3c0.1,0,0.3-5.5,0.3-5.8c0.1-1.3,0.2-2.6,0.2-3.9c0-1.2,0-1.3,0.1-0.4
			c-1.5,2-3.1,4-4.6,6c-0.9,0.2-0.8,0.2,0.4,0c0.8-0.2,1.7-0.4,2.5-0.6c1.9-0.5,3.8-1,5.7-1.6c3.5-1.1,6.9-2.4,10.2-4
			c6.6-3.1,12.6-7.8,18.1-12.6c5.7-5,10.5-11.1,13.4-18.1c2.6-6.4,6.6-12.1,9.5-18.4c3.3-7.4,5.5-14.8,5.9-23
			c0.4-8.1-1.4-16.3-3.1-24.1c-1.6-7.8-2.8-15.7-4.1-23.6c-1.1-6.5-3.1-13.2-2.4-19.8c-0.5,1.7-0.9,3.4-1.4,5
			c0.1-0.2,0.2-0.5,0.3-0.7c-6.1-0.8-12.2-1.6-18.3-2.4c0.3,1.9-0.9,4.6-0.9,6.7c0,1.7-1.2,2.3,0.7,0.8c-0.6,0.4-2.3,0.7-3,1
			c-7.3,2.7-11.6,8.3-9,16.3c4.4,13.3,12.7,25,16.9,38.5c5.6-3.2,11.1-6.5,16.7-9.7c-7.1-5.8-14.2-11.7-21.2-17.7
			c-3-2.6-6.3-5.3-8.9-8.2c-1-1.2-1.7-3-2.9-4c-0.9-1.8-1.2-1.8-0.9,0.1c-0.4,0.5-0.7,1-1,1.5c0.5,0.4,9.4-4.8,10.2-5.3
			c3.1-1.9,6.4-4.2,8.2-7.5c2.3-4.1,2.3-9.2-0.2-13.3c-2.5-4.1-6.6-5.2-10.9-6.4c2,4.9,4,9.8,6,14.7c2-4.1,3.5-7.7,1-12.3
			c-2-3.5-5.4-5.4-9.1-6.5c-8.9-2.7-16.3,0.3-23,6.1c-5.4,4.7-10.3,11.5-11.6,18.6c-1.6,8.7,3.4,16.1,7.7,23.2
			c4.1,6.8,8.8,13.1,13.4,19.5c2.1,2.9,4,5.8,6.3,8.5c1.1,1.3,7.7,9,9.5,7.5c-1.4,1.1-3.7-8.7-3.8-2.2c0,1.6,0,3.2-0.1,4.8
			c-0.1,4.3-0.3,8.6-0.3,12.9c0,3.8,0,7.7,0,11.5c0,1.9-0.1,3.9-0.1,5.8c0,1.1,0,2.2,0,3.3c-0.2,2-0.1,2.2,0.2,0.8
			c2.9-1.7,5.8-3.3,8.6-5c1.3,0.2,0.9,0.1-1-0.3c-1.1-0.2-2.3-0.4-3.4-0.6c-2.7-0.4-5.3-0.6-8-0.7c-5.3-0.1-11.3,0.6-15.3,4.6
			c-4.1,4.1-4.1,10.9-1.6,15.7c1,1.9,2.4,3.6,3.8,5.2c0.4,0.5,0.8,1,1.2,1.5c-0.5-0.8-0.5-0.7,0,0.3c-0.5-1.7-0.9-3.4-1.4-5
			c0,0.3,0.1,0.5,0.1,0.8c0.5-1.7,0.9-3.4,1.4-5c-0.1,0.2-0.3,0.4-0.4,0.7c2-1.5,4-3.1,6-4.6c2.3-0.8,3.3,0.3,0-0.8
			c-1.1-0.4-2.2-0.8-3.3-1.2c-3.1-1.2-6.2-2.5-9.2-3.7c-5.5-2.2-11.6-5.6-17.6-3.9c-6.8,1.9-9.1,8.4-8.8,14.7
			c0.3,6.5,0.1,13.1,0.1,19.6C587.3,494.8,607.3,494.8,607.3,482L607.3,482z"/>
	</g>
</g>
<g>
	<g>
		<path class="st6" d="M669.7,343c-9.5-0.3-13.7,8.3-11.7,16.5c2.7,10.9,19.9,8.7,19.6-2.7c-0.2-8.2,3.2-17.4,0-25.2
			c0,1.8,0,3.5,0,5.3c0-0.4,0.1-0.7,0.1-1.1c-1.5,2-3.1,4-4.6,6c0.2-0.2,0.4-0.3,0.7-0.5c-1.7,0.5-3.4,0.9-5,1.4
			c-0.6,0-3.1-1.2-1.5-0.2c2.6,1.1,3.2,1.4,1.6,0.7c-1.1-0.6-1-0.4,0.3,0.5c2.1,1.9,4.6,2.4,7,3.7c1.4,0.8,2.7,1.9,4.1,2.7
			c2.1,1.3,4.6,1.8,6.7,3c7.6,4.2,12.4,11.2,18,17.4c-0.5-4-1-8.1-1.6-12.1c-0.1,0.2-0.2,0.3-0.3,0.5c2-1.5,4-3.1,6-4.6
			c0.8-0.3,1.4,0.3,0.1,0.1c-2.6-0.4,1.3,0.5-1.3-0.2c-2-0.6-3.8-1.6-5.6-2.7c-3.9-2.6-7.1-6.2-11-8.9c-9-6.3-20.9-4.8-25.7,5.8
			c-4.3,9.5-2.6,19.6-0.5,29.4c1,4.6,1.7,9,1.7,13.7c0,4.7,0,9.4,2.5,13.6c4.4,7.1,16.2,6.2,18.3-2.4c1.5-6,2.3-12.2,3.2-18.3
			c0.5-3.1,0.9-6.2,1.3-9.3c0.1-1.1,0.3-2.3,0.4-3.4c0,0,0.7-4.4,0.2-2.8c-0.9,1.5-1.7,2.9-2.6,4.4c0.2-0.3,0.4-0.6,0.7-0.8
			c-4.7,0-9.4,0-14.1,0c1.8,2.3,3.2,5,4.4,7.6c0.8,1.6,2.7,5.5,2.7,6.3c-0.1,0.9-2.1,4.4-2.9,6.1c-1.4,2.9-2.9,5.8-4.3,8.7
			c-3,6.5-2.8,13-2.9,20c-0.1,7-0.3,14.1-1.8,21c-1.4,6.6-4.7,11.6-8.1,17.3c-3.4,5.6-6.1,10.7-11,15.1c-5.2,4.6-9.3,9.1-7.1,16.7
			c0.8,2.6,2.1,5.2,3.5,7.6c0.9,1.5,2.1,3,3.4,4.2c1.1,1.1,2.2,3.3,1.4,0.4c0-1.8,0-3.5,0-5.3c-0.1,0.3-0.2,0.7-0.3,1
			c1.5-2,3.1-4,4.6-6c-1.7,1-3.7,1.7-5.7,2.7c-4.4,2.3-6,8.2-4.1,12.5c2.2,4.9,6.7,6.6,11.8,5.8c2.5-0.4,5.1-0.2,7.6-0.4
			c5.4-0.3,8.7-3.7,10.7-8.5c0.6-1.6,1.9-5.3,2.4-8c0.3-1.7,0.6-3.4,1.1-5.2c0.2-0.6,0.3-1.2,0.5-1.9c0.5-1.6,0.4-1.6-0.2,0
			c9.1-9.2-5.1-23.3-14.1-14.1c-6.2,6.3-6.3,16.3-9,24.2c0.9-1.5,1.7-2.9,2.6-4.4c-0.3,0.3-0.6,0.5-0.9,0.8c2.4-1,4.7-2,7.1-2.9
			c-4.4,0.3-8.6,0.4-12.9,1.1c2.6,6.1,5.1,12.2,7.7,18.3c2.2-1.1,5.6-2.2,7.7-4.3c3-3,3.8-7.8,2.6-11.7c-1.1-3.7-3.9-5.5-6.2-8.2
			c-0.3-0.4-0.5-1.2-1-1.5c-2-1.6,0.5-2.6-0.7,0.8c-0.9,1.5-1.7,2.9-2.6,4.4c3.8-4.2,8.4-7.4,11.9-12c3.8-5.1,6.9-11,10.1-16.5
			c7.1-12,8.7-25.4,9.1-39.1c0.1-4.7-1-10.8,0.9-15.2c2.4-5.5,5.5-10.7,7.7-16.3c4.7-12-4.1-26.1-11.4-35.3
			c-3.1-3.9-11.1-3.9-14.1,0c-4.3,5.5-3.8,11.2-4.7,17.8c-1,7.1-2,14.3-3.7,21.2c6.1-0.8,12.2-1.6,18.3-2.4c0.5,0.9,0.2-2.2,0.2-2.4
			c0-1.9,0-3.9-0.1-5.8c-0.3-4.3-1-8.5-1.9-12.7c-0.8-3.9-1.9-7.8-1.9-11.8c0-1.1,0.3-2.3,0.2-3.4c0.2-0.6,0.3-1.2,0.4-1.8
			c-1.3,0.8-2.6,1.3-4,1.6c0.4,1.1,4.7,3.9,6.2,5.1c3.7,3.2,7.6,6,12.1,8c7.5,3.4,17.8,4.9,23-3.1c2.5-3.9,1.3-8.9-1.6-12.1
			c-2.5-2.9-4.2-6-7-8.7c-3.2-3.1-7.1-5.9-10.7-8.7c-5.9-4.5-14.2-7.5-19.7-11.1c-3.8-2.5-6.9-5.1-12-5.2
			c-5.6-0.1-10.2,3.4-11.4,8.8c-0.4,1.7-0.4,3.6,0,5.3c0.1,0.4,0.7,1.7,0.6,0.5c0.2,1.8-0.1,4-0.3,5.9c-0.3,4.5-1.1,9-1,13.5
			c6.5-0.9,13.1-1.8,19.6-2.7c0,0.7,0,1.3-0.1,2c-1.5,2-3.1,4-4.6,6c0.3-0.2,0.6-0.4,0.9-0.6c-1.7,0.5-3.4,0.9-5,1.4
			c0.4,0,0.8,0,1.2,0C682.6,363.4,682.6,343.4,669.7,343L669.7,343z"/>
	</g>
</g>
<g>
	<g>
		<path class="st6" d="M675.9,445.6c-0.4,4.7-2.9,8.9-3.4,13.6c-0.5,3.9-0.7,6.3-1.4,9.8c-0.9,3.8,0,8.2-0.7,11.9
			c-0.3,1.7-1.6,3.1-2.2,4.8c-1,2.4-1.3,5-1.4,7.6c-0.3,8.5,11.3,13.4,17.1,7.1c4.2-4.6,5.2-10.3,7.9-15.7c0.9-1.8,2.2-3.2,3.3-5.3
			c1.4-2.7,2.3-5.9,3.5-8.6c-6.1-2.6-12.2-5.1-18.3-7.7c-1.6,6.7-5.3,13.2-8.3,20.2c0.9-1.5,1.7-2.9,2.6-4.4c-0.3,0.3-0.6,0.7-0.9,1
			c-3.5,4.1-4,10.1,0,14.1c3.6,3.6,10.6,4.1,14.1,0c3-3.5,5.1-8.5,6.9-12.8c1.7-4.3,3.7-8.2,4.9-12.8c1.2-4.8-1.1-9.9-5.8-11.8
			c-4.2-1.7-10.5-0.5-12.5,4.1c-1.2,2.7-2.2,5.3-3.3,8c-0.8,1.9-1.6,2.5-2.8,4.5c-1.3,2.2-2.3,4.6-3.2,6.9c-0.7,1.6-1,4.7-2.3,6.1
			c5.7,2.4,11.4,4.7,17.1,7.1c0-0.2-0.4,0.5-0.4,0.5c0.5-0.7,0.9-1.5,1.3-2.3c1.2-2.5,2.1-5.1,2.4-7.9c0.5-3.9,0.4-8,1.1-11.8
			c0.7-4,0.5-7.7,1.3-11.7c0.4-2,1.4-3.9,2.1-5.8c0.9-2.7,1.2-5.7,1.4-8.6c0.5-5.4-5-10-10-10C680.1,435.6,676.4,440.2,675.9,445.6
			L675.9,445.6z"/>
	</g>
</g>
<g>
	<g>
		<path class="st6" d="M686.8,407.2c0,10.4,1.1,21.5-0.8,31.7c-0.9,4.8-0.6,9.7-1.5,14.6c-1,5.3-3.2,10.5-3.5,15.9
			c0.5-1.7,0.9-3.4,1.4-5c-1.5,2.7-2.9,6-3.8,9c-3.6,12.4,15.7,17.7,19.3,5.3c0.6-2.2,2.1-4.3,2.8-6.6c0.8-2.7,1.3-5.7,2-8.5
			c1.5-5.9,2.6-12.1,2.8-18.2c0.2-5.6,1.2-10.9,1.2-16.6c0-7.2,0-14.4,0-21.6C706.8,394.3,686.8,394.3,686.8,407.2L686.8,407.2z"/>
	</g>
</g>
<g>
	<g>
		<path class="st6" d="M714.9,385.3c-0.7-6.5-1.8-18.9-8.6-22.2c-5.5-2.6-13.2-0.8-14.7,6c-1,4.4-0.7,8.9-0.7,13.4
			c0,5.1-0.2,10.2,0.6,15.3c0.4,2.4,0.9,4.8,1.7,7.1c0.8,2.4,2.6,4.8,3.2,7.3c-0.6-2.3-0.2,2.9-0.1,3.4c0.2,2,0.6,3.8,0.7,5.7
			c0.2,3.5-0.4,6.6-1.7,10.2c-1.5,4.1-2,8.6-3.8,12.5c-0.9,2-1.9,3.3-2.4,4.4c-1.3,2.7-2.1,5.5-1.2,8.5c0.4,1.2,0.9,2.4,1.7,3.4
			c0.3-1.3,0.2-1.8-0.3-1.5c-0.3,2.2-0.8,4.3-1.1,6.5c-0.6,5.4,5,10,10,10c5.9,0,9.4-4.6,10-10c0.2-1.8,1.1-4.9,1.1-7.2
			c0-3.4-1.3-6.1-3.1-9c0.3,2.6,0.7,5.1,1,7.7c-0.5,1.6,1.8-3.1,1.7-2.9c0.9-1.8,1.7-3.5,2.4-5.4c1.4-3.9,2-8,3.4-11.9
			c2.4-6.8,2.9-13.8,2-21c-0.4-3-0.1-6.1-0.9-9.1c-1-3.7-3.2-6.9-4.1-10.7c-0.9-3.9-0.6-7.8-0.6-11.7c0-3.1-0.6-6.9,0-9.9
			c-4.9,2-9.8,4-14.7,6c0.1,0.1,0.3,0.1,0.4,0.2c-1.2-1.2-2.4-2.4-3.6-3.6c-0.8-1.2-0.3-1,0.1,0.3c0.2,0.7,0.3,1.4,0.5,2.1
			c0.5,1.9,1.2,3.9,1.4,5.9c0.6,5.4,4.2,10,10,10C709.8,395.3,715.5,390.7,714.9,385.3L714.9,385.3z"/>
	</g>
</g>
<g>
	<g>
		<path class="st6" d="M698.5,378.9c0,6.3-0.9,13.3,0.4,19.6c0.2,1,0.6,2.1,0.9,3.1c0.3,1.1,0.8,4.1,0.7,2.4c0.2,3.2,0,6.5,0,9.7
			c0,12.9,20,12.9,20,0c0-6.2,0.1-12.1-1.5-18c-1.4-5-0.5-11.5-0.5-16.8C718.5,366,698.5,366,698.5,378.9L698.5,378.9z"/>
	</g>
</g>
<g>
	<g>
		<path class="st6" d="M721.6,365.9c0-3.6,0.3-7.1-2.1-10.1c-2.1-2.6-5.4-4.1-7.8-6.6c-0.5,3.7-0.9,7.3-1.4,11
			c-3.4,1.6-2-0.4-0.5,0.9c0.9,0.8,2.3,1.2,3.3,2c2.1,1.7,2.8,4,4.3,6.2c2.5,3.7,7.2,6.9,9.1,10.3c-0.2-1.8-0.5-3.6-0.7-5.4
			c0.2-1.5,6.1-3,3.5-3.6c-0.9-0.2-2.4,0.3-3.3,0.5c-1.9,0.3-3.4,0.4-5.2-0.2c-4.5-1.5-8.2-2.7-11.9,1.5c-3.2,3.8-3.3,8.8-1.5,13.2
			c1.8,4.3,1.1,7.7,1,12.2c-0.2,9,13.8,9,14,0c0.1-4.1,1-8.4-0.1-12.5c-0.3-1.1-0.8-2.7-1.4-3.6c-0.2-0.5-0.5-1-0.7-1.6
			c-2,1.1-4,2.1-6,3.2c0.3,1.2,5.6,1.9,6.6,2c6.7,0.7,19.9-0.6,18.6-10.1c-0.5-3.9-4.1-6.8-6.6-9.3c-3-2.9-4.4-6.5-7-9.7
			c-5.1-6.3-14.6-11.9-22.6-8.1c-4.2,2-4.3,7.9-1.4,11c1.4,1.5,3.1,2.8,4.7,4c0.3,0.3,3.5,2.2,1.5,0.4c-0.4-1.3-0.5-1.4-0.4-0.2
			c0,0.9,0,1.7,0,2.6C707.6,374.9,721.6,375,721.6,365.9L721.6,365.9z"/>
	</g>
</g>
<g>
	<circle class="st0" cx="813.8" cy="198.2" r="83.6"/>
	<g>
		<path class="st12" d="M844.4,226.7h-61.3c-9.9,0-18-8.1-18-18v-35.2c0-9.9,8.1-18,18-18h61.3c9.9,0,18,8.1,18,18v35.2
			C862.4,218.6,854.3,226.7,844.4,226.7z"/>
		<path class="st12" d="M791.5,226.7l20.2,22.1c0,0,3.3,4.5,7.1,0l18.1-22.1H791.5z"/>
		<path class="st0" d="M800.2,205.7c0,0,5.6-2.3,10.2-7.8c4.6-5.6,4.7-8.7,4.7-11.1c0-2.7-1.9-8.8-8.3-8.8c-3.2,0-5.5,2.2-6.6,4.4h0
			c-1.1-2.2-3.4-4.4-6.6-4.4c-6.4,0-8.3,6.1-8.3,8.8c0,2.3,0.1,5.5,4.7,11.1C794.7,203.4,800.2,205.7,800.2,205.7L800.2,205.7z"/>
		<rect x="827.5" y="178.3" class="st13" width="21.9" height="29.1"/>
		<text transform="matrix(1 0 0 1 827.4892 202.8667)" class="st0 st14 st15">1</text>
	</g>
</g>
<g>
	<circle class="st7" cx="681.2" cy="228" r="83.6"/>
	<g>
		<path class="st1" d="M662.1,263.1h-17.9c-2.8,0-5-2.2-5-5v-35.4c0-2.8,2.2-5,5-5h17.9c2.8,0,5,2.2,5,5v35.4
			C667.1,260.9,664.9,263.1,662.1,263.1z"/>
		<path class="st1" d="M671.9,223.3l14.5-24.5l-0.9-16.6c0,0,15.4-9.9,15.4,20.5l-1.7,9.6c8.6,0,17.2,0,25.7,0
			c2.8,0.9,4.7,3.5,4.8,6.4c0.1,3-1.9,5.8-4.8,6.8c3.3,0.9,5.4,4,5.1,7.2c-0.2,2.8-2.3,5.3-5.1,6.1c1.9,2.1,2.5,5,1.5,7.5
			c-1.1,2.8-3.9,4.7-7,4.6c0.2,0.1,3.2,2.5,2.8,6.3c-0.3,2.7-2.3,5.1-5,5.9c-12.6,0-25.1,0-37.7,0c0,0-4.9,0.2-7.7-4.8"/>
	</g>
</g>
<g>
	<circle class="st7" cx="849.3" cy="311.4" r="58.4"/>
	<g>
		<path class="st2" d="M853.6,330h-17.9c0,0-5.5-0.4-4.9-6.1v-26.3v-4.9"/>
		<line class="st2" x1="822" y1="301.9" x2="830.8" y2="292.8"/>
		<line class="st2" x1="839.7" y1="301.9" x2="830.8" y2="292.8"/>
		<path class="st2" d="M846.7,292.9l17.9-0.1c0,0,5.5,0.3,4.9,6.1l0.2,26.3l0,4.9"/>
		<line class="st2" x1="878.6" y1="320.8" x2="869.8" y2="330"/>
		<line class="st2" x1="860.9" y1="321" x2="869.8" y2="330"/>
	</g>
</g>
<g>
	<circle class="st7" cx="495.9" cy="345.1" r="73.3"/>
	<g>
		<path class="st1" d="M540.6,318.5c-3.3,1.5-6.8,2.4-10.5,2.9c3.8-2.3,6.7-5.9,8.1-10.2c-3.5,2.1-7.5,3.6-11.7,4.5
			c-3.4-3.6-8.1-5.8-13.4-5.8c-10.1,0-18.4,8.2-18.4,18.4c0,1.4,0.2,2.8,0.5,4.2c-15.3-0.8-28.8-8.1-37.8-19.2
			c-1.6,2.7-2.5,5.9-2.5,9.2c0,6.4,3.2,12,8.2,15.3c-3-0.1-5.8-0.9-8.3-2.3v0.2c0,8.9,6.3,16.3,14.7,18c-1.5,0.4-3.2,0.6-4.8,0.6
			c-1.2,0-2.3-0.1-3.5-0.3c2.3,7.3,9.1,12.6,17.1,12.8c-6.3,4.9-14.2,7.9-22.8,7.9c-1.5,0-2.9-0.1-4.4-0.3
			c8.1,5.2,17.8,8.2,28.1,8.2c33.8,0,52.2-28,52.2-52.2c0-0.8,0-1.6-0.1-2.4C535,325.4,538.1,322.1,540.6,318.5"/>
	</g>
</g>
<g>
	<circle class="st3" cx="545.3" cy="220.4" r="76.6"/>
	<g>
		<path class="st12" d="M571.9,246.5h-53.2c-9.9,0-18-8.1-18-18v-29.3c0-9.9,8.1-18,18-18h53.2c9.9,0,18,8.1,18,18v29.3
			C589.9,238.4,581.8,246.5,571.9,246.5z"/>
		<path class="st12" d="M524.9,246.5l18.5,20.3c0,0,3.1,4.1,6.5,0l16.6-20.3H524.9z"/>
		<path class="st3" d="M532.9,227.3c0,0,5.1-2.1,9.3-7.2c4.2-5.1,4.3-8,4.3-10.1c0-2.5-1.7-8.1-7.6-8.1c-2.9,0-5.1,2-6,4h0
			c-1-2-3.1-4-6-4c-5.9,0-7.6,5.6-7.6,8.1c0,2.1,0.1,5,4.3,10.1C527.8,225.2,532.9,227.3,532.9,227.3L532.9,227.3z"/>
		<rect x="557.9" y="202.2" class="st13" width="20" height="26.7"/>
		<text transform="matrix(1 0 0 1 557.8515 224.7046)" class="st3 st14 st16">1</text>
	</g>
</g>
<path class="st17" d="M539.9,620.2c0,0-54-52-50.8-65.1l-23.4-3"/>
<path class="st17" d="M696.8,620.2"/>
<path class="st18" d="M628.7,453.3c-2.1-0.9-4.5-0.6-6.5-0.1c-2.6,0.6-5.3,0.6-7.9,0c-1.9-0.5-4.4-0.7-6.5,0.1
	c-4.6,1.8-13.5,2.8-13.5,2.8c4.9,5.9,24,4.6,24,4.6s19.1,1.2,24-4.6C642.3,456,633.3,455.1,628.7,453.3z"/>
<path class="st18" d="M618.3,460.7c0,0-19.1,1.2-24-4.6c2.2,9.2,17.1,11.7,24,11.7c6.9,0,21.8-2.4,24-11.7
	C637.3,461.9,618.3,460.7,618.3,460.7z"/>
<path class="st19" d="M628,398.5c0,16.1,5.6,24.3,7,30c1,3.9-0.5,5.9-5.9,6.4c-5.4,0.5-5.7,4.8-10.9,4.8c-5.2,0-5.5-4.3-10.9-4.8
	s-7-1.6-5.9-6.4c1.3-5.8,7-13.9,7-30"/>
<g>
	<g>
		<path class="st6" d="M564,499.7c1.4,2.2,3.2,4,4.5,6.2c1.1,1.8,2.4,3.3,3.8,4.9c2.2,2.3,5.7-1.2,3.5-3.5c-1.3-1.4-2.3-2.9-3.4-4.4
			c-1.4-1.9-2.9-3.6-4.2-5.6C566.6,494.4,562.3,496.9,564,499.7L564,499.7z"/>
	</g>
</g>
<g>
	<g>
		<path class="st6" d="M604.5,469.4c-1.2-0.5-2.2-1.3-3.3-2c-1.1-0.8-1.6-1.7-2.4-2.7c-0.9-1-2.6-0.9-3.5,0c-1,1-0.9,2.5,0,3.5
			c0.4,0.5,0.7,1.2,1.2,1.7c0.5,0.6,1.2,1.1,1.9,1.6c1.2,0.8,2.3,1.7,3.6,2.2c1.2,0.5,2.7,0.4,3.4-0.9
			C606,471.7,605.7,469.9,604.5,469.4L604.5,469.4z"/>
	</g>
</g>
<g>
	<g>
		<path class="st20" d="M536.6,462.6c7.9,17.8,22.1,37.7,41.5,43.8c0.3,0.1,0.5-0.4,0.1-0.5c-19.2-6.1-33.2-25.9-41.1-43.6
			C537,462,536.5,462.3,536.6,462.6L536.6,462.6z"/>
	</g>
</g>
<path class="st5" d="M709.7,495.5c0,0,25.4,1,47.7,45c0,0,13.9,12.2,32.7,12.7c18.8,0.6,80.2,21.4,80.2,21.4s28.1,12.5,38.2,49.8
	s6.9,87.7,6.9,87.7v79.2H623.4V592.6l56.9-6.4c0,0,40.4-53.7,40.1-61.4c-0.3-7.7-7.3-17-11.1-17.4L709.7,495.5z"/>
<path class="st6" d="M710.7,463v44.9c0,0,9.2,0.3,10.9,15c0,0-5.1,19.2-43.2,69.7l-19.8-6l14.2-75.5L710.7,463z"/>
<line class="st10" x1="707.2" y1="512.5" x2="707.2" y2="512.5"/>
<path class="st17" d="M707.2,620.2c0,0,54-52,50.8-65.1l23.4-3"/>
<g>
	<g>
		<path class="st20" d="M710,462.3c-7.9,17.7-22,37.5-41.1,43.6c-0.3,0.1-0.2,0.6,0.1,0.5c19.3-6.1,33.5-26,41.5-43.8
			C710.6,462.3,710.1,462,710,462.3L710,462.3z"/>
	</g>
</g>
<path class="st21" d="M665,684.2h-81.3c-7.7,0-14-6.3-14-14V503.7c0-7.7,6.3-14,14-14H665c7.7,0,14,6.3,14,14v166.5
	C679,677.9,672.7,684.2,665,684.2z"/>
<path class="st22" d="M660.2,682.6h-76.5c-7.7,0-14-6.3-14-14V508.4c0-7.7,6.3-14,14-14h76.5c7.7,0,14,6.3,14,14v160.2
	C674.2,676.3,667.9,682.6,660.2,682.6z"/>
<path class="st19" d="M467.6,792c0,0-2.5-2.1,14.4-31.2c17-29.1,28.3-48.6,28.3-48.6s17.2-19,19.2-32.1c0,0,3-7.3,4.8-24.5
	c1.8-17.2,9.6-28.6,9.6-28.6s5.1-7.3,33.9-19.5c0,0,9.4-6.1,64.5-6.1c12.5-1.7,21.8,7,21.8,13.9c0,6.6-8.4,14.8-20.2,14.2
	c-13.6,1.2-27.2,2.4-40.7,3.5c-2.6,2.4-5.8,5-9.6,7.6c-3.5,2.4-6.9,4.2-9.9,5.6c0,0,29.4-5.1,33.9-9.1c23.7-2.8,47.4-5.6,71.1-8.3
	c9-1.3,16.3,5.6,16.2,12.7c-0.1,6-5.6,11.9-13.2,12.4c5.2-0.3,10.1,2.1,12.1,6.1c2.9,5.6,0.3,13.8-7.1,17.5
	c-2.5,1.6-5.4,3.3-8.6,4.8c-4.9,2.3-9.4,4-13.4,5.1c0.4,1.1,1.1,3.4,0.8,6.3c-0.5,3.5-2.3,5.9-3,6.8c-4.2,5.2-10.3,11.7-19,17.5
	c-4.6,3.1-9,5.4-12.9,7.1c-3.1,0.8-8,2.5-12.9,6.3c-3.1,2.4-5.3,5-6.8,7.1c-1.3,3.9-4.7,12-12.9,18c-2.9,2.1-5.7,3.4-8.1,4.3
	c0,0-28.3,2.3-31.4,31.5H467.6z"/>
<path class="st23" d="M556.3,646.2c1.8-0.2,3.6-0.1,5.4,0.1c1.2,0.2,2.4,0.3,3.6,0.6c4,1.1,14.4,0.4,18.4-0.8"/>
<path class="st23" d="M569.3,678.8c3.3,0.9,6.2,3.4,9.6,3.4c2.6,0,5-1.4,7.3-2.7c7.4-3.9,15.7-5.7,23.9-7.4
	c5.8-1.2,11.4-3.9,17.3-4.8c2.2-0.3,4.3-0.5,6.5-0.8c9.3-1.1,18.6-3,27.5-5.8c2.2-0.7,4.4-1.4,6.7-1.5c2.3,0,4.7-0.8,6.8-1.5
	c3.6-1.3,12.9-3.8,16.8-4"/>
<path class="st13" d="M592.6,713.6c3.5,0.2,6.9-1.2,9.9-2.8c3.1-1.7,5.9-3.7,9.1-5.1c5.8-2.6,12.4-3.1,18.7-4.3
	c4.3-0.8,8.6-2.1,12.7-3.7c8.4-3.3,17.2-5.7,25.1-10"/>
<path class="st23" d="M612.2,642.9c-0.5,2.9,0.2,5.8,1.4,8.5c1.1,2.7,2.6,5.2,3.8,7.8"/>
<path class="st23" d="M624.9,661c-5.2-4.5-8-11.6-7.2-18.4"/>
<path class="st23" d="M624.2,639.3c0.3,3.1-0.5,6.3,0.4,9.3c0.4,1.2,1,2.4,1.7,3.5c0.7,1.3,1.4,2.5,2.2,3.8"/>
<path class="st23" d="M663.2,637.8c4.3,3.4,6.7,9.2,6,14.7"/>
<path class="st23" d="M669.4,637.9c2.3,3.2,3.3,7.3,2.9,11.2"/>
<path class="st13" d="M681.9,664c2.9,1.3,4.9,4.5,4.8,7.7"/>
<path class="st13" d="M685.9,659.3c0,0.6,0.3,1.2,0.6,1.7c1.8,3.1,2.9,6.6,3.3,10.2c0,0.4,0.1,0.8,0.1,1.2"/>
<path class="st23" d="M641.7,671.4c2,2.5,2.3,6,2.4,9.2c0.1,3.7,0.1,7.3-0.1,11"/>
<path class="st23" d="M636.9,686.9c0.1-1-0.6-1.9-1.1-2.7c-1.8-2.9-1.6-6.6-1.4-10"/>
<path class="st23" d="M630.3,676.1c-0.4,5.4,1.5,10.9,5,15"/>
<path class="st13" d="M643.6,701c0.6,3.6,3,6.6,5.4,9.5"/>
<path class="st13" d="M649.5,697.9c0,1.5,0,2.9,0,4.4c0,0.4,0,0.8,0.1,1.1c0.1,0.4,0.4,0.7,0.5,1.1c0.3,0.6,0.4,1.3,0.2,1.9
	c0.1-0.1,0.3-0.2,0.4-0.3"/>
<path class="st23" d="M682.5,663.2c2.5,1.8,3.9,5,3.5,8"/>
<path class="st13" d="M685.3,659.6c1.7,1.3,3.2,3,4.1,5c1.2,2.5,1.5,5.3,1.8,8.1"/>
<path class="st23" d="M575,614.7c-0.1,2.2-0.2,4.4,0.3,6.5c0.3,1.3,0.8,2.5,1.3,3.6c1,2.2,2.2,4.4,3.6,6.4"/>
<path class="st23" d="M584.1,626.4c-1.1-1.1-2.1-2.2-2.8-3.6c-1.1-2.1-1.2-4.7-1.1-7.1c0-1.7,0.1-3.3,0.5-5c0.1-0.3,0.3-0.6,0.5-0.4
	"/>
<path class="st23" d="M589.4,611c0,0.8,0.6,1.5,1.1,2.2c1.7,2.3,2.5,5.2,2.1,8"/>
<path class="st23" d="M623.3,609.3c0.5,1.7,0.9,3.4,1.4,5.1c0.3,1,0.6,2,0.8,3c0.5,1.9,1,3.8,1.6,5.7"/>
<path class="st23" d="M593,714.7c5.5,0,9.7-4.6,14.5-7.3c5.1-2.8,11.1-3.5,16.8-4.4c11.8-1.9,23.3-5.1,34.4-9.7
	c3.3-1.3,6.6-2.9,8.8-5.7"/>
<path class="st23" d="M643.6,700.7c-0.3,1.5,0.6,2.9,1.5,4.2c1.1,1.6,2.3,3.2,3.4,4.9"/>
<path class="st23" d="M650.8,706.9c-0.7-2.5-1.2-5.1-1.4-7.8"/>
<path class="st23" d="M683.9,660.4c3.8,2.6,6,7.3,5.7,11.9"/>
<path class="st23" d="M640.8,608.6l0.7,11.9l10.5,1.6c0,0,7-7.6,0-15.4C652,606.8,644.1,606.1,640.8,608.6z"/>
<path class="st23" d="M682.5,634.5c0,0-1.4,10.4,3.3,14.5l10.2-1.5c0,0,4-10.6-2.9-15.5L682.5,634.5z"/>
<path class="st23" d="M689.6,658.1c0,0-0.9,7.7,4.2,13.1l3.5-1.8c0,0,3.9-8-3.9-12.9L689.6,658.1z"/>
<g>
	<circle class="st3" cx="749.3" cy="336.9" r="76.5"/>
	<g>
		<g>
			<path class="st1" d="M717.7,294.4h63.1c6,0,10.9,4.9,10.9,10.9v63.1c0,6-4.9,10.9-10.9,10.9h-63.1c-6,0-10.9-4.9-10.9-10.9v-63.1
				C706.8,299.3,711.7,294.4,717.7,294.4 M768.7,303.8c-2.1,0-3.8,1.7-3.8,3.8v9.1c0,2.1,1.7,3.8,3.8,3.8h9.6c2.1,0,3.8-1.7,3.8-3.8
				v-9.1c0-2.1-1.7-3.8-3.8-3.8H768.7z M782.1,330.3h-7.5c0.7,2.3,1.1,4.8,1.1,7.3c0,14.1-11.8,25.6-26.4,25.6
				c-14.6,0-26.4-11.4-26.4-25.6c0-2.5,0.4-5,1.1-7.3h-7.8v35.9c0,1.9,1.5,3.4,3.4,3.4h59.1c1.9,0,3.4-1.5,3.4-3.4V330.3z
				 M749.3,320.2c-9.4,0-17,7.4-17,16.5c0,9.1,7.6,16.5,17,16.5c9.4,0,17-7.4,17-16.5C766.4,327.5,758.8,320.2,749.3,320.2"/>
		</g>
	</g>
</g>
<g>
	<circle class="st0" cx="611.5" cy="334.8" r="69.3"/>
	<path class="st4" d="M652,357.6c-0.5-0.1-0.9-0.2-1.4-0.3c-8-2.4-13-8.1-16.1-15.8c-0.7-1.6-0.1-2.9,1.6-3.7
		c1.3-0.7,2.8-1.1,4.2-1.7c1.3-0.6,2.6-1.3,3.6-2.3c1.5-1.3,1.3-3.3-0.3-4.6c-1.5-1.2-3.2-1.5-5.1-0.8c-1.1,0.4-2.3,0.8-3.4,1
		c-1.2,0.2-1.5-0.2-1.4-1.4c0.1-2.8,0.3-5.5,0.4-8.3c0,0,0,0-0.1,0c0-0.9,0-1.9,0-2.8c-0.1-8.3-3.8-14.5-10.5-18.8
		c-6.2-3.9-12.9-4.4-19.9-2.8c-9.5,2.2-17.4,10.8-17.2,21.9c0.1,3.5,0.2,6.9,0.3,10.4c0.1,1.9-0.1,2.1-1.9,1.8
		c-1.3-0.2-2.6-0.7-3.9-1.1c-1.9-0.6-4.3,0.5-5.1,2.2c-0.7,1.5-0.1,3.1,1.9,4.3c1.2,0.7,2.5,1.2,3.8,1.8c1.1,0.5,2.2,0.8,3.2,1.4
		c1.4,0.8,1.8,2,1.3,3.6c-0.3,0.9-0.7,1.8-1.2,2.7c-3.7,6.8-8.7,11.8-16.4,13.4c-1.6,0.3-2.2,1.9-1.1,3.3c0.6,0.8,1.6,1.6,2.5,2
		c2.4,0.9,4.9,1.6,7.5,2.2c1,0.2,1.4,0.6,1.6,1.6c0.1,0.9,0.4,1.8,0.7,2.7c0.3,1.1,1,1.7,2.1,1.6c0.9-0.1,1.8-0.2,2.7-0.4
		c4.6-0.9,8.9-0.5,12.7,2.7c0.9,0.7,1.9,1.4,2.9,2c5.1,3.5,10.6,4.4,16.3,2.2c2.8-1.1,5.3-2.9,7.7-4.6c3.2-2.3,6.8-3,10.6-2.5
		c1.3,0.2,2.5,0.4,3.8,0.6c1.6,0.2,2.4-0.4,2.8-2c0.2-0.9,0.4-1.8,0.6-2.6c0.2-0.8,0.6-1.1,1.4-1.3c2.2-0.5,4.5-0.9,6.6-1.7
		c1.3-0.5,2.6-1.4,3.5-2.4C654.4,359.7,653.7,358.1,652,357.6z"/>
</g>
</svg>
