<?xml version="1.0" encoding="utf-8"?>
<!-- Generator: Adobe Illustrator 16.0.0, SVG Export Plug-In . SVG Version: 6.00 Build 0)  -->
<!DOCTYPE svg PUBLIC "-//W3C//DTD SVG 1.1//EN" "http://www.w3.org/Graphics/SVG/1.1/DTD/svg11.dtd">
<svg version="1.1" id="Layer_1" xmlns="http://www.w3.org/2000/svg" xmlns:xlink="http://www.w3.org/1999/xlink" x="0px" y="0px"
	 width="73px" height="113px" viewBox="-1.5 79 73 113" enable-background="new -1.5 79 73 113" xml:space="preserve">
<path fill="#010101" d="M35.851,89.844c-10.999,0-19.943,11.364-24.049,25.002c-0.073,0.073-0.073,0.073-0.146,0.147
	c-0.073,0.072,0,0.221,0,0.292c-1.466,4.985-2.272,10.265-2.272,15.397c0,18.624,10.631,31.161,26.395,31.161
	c15.764,0,26.396-12.537,26.396-31.161C62.245,111.399,50.954,89.844,35.851,89.844z M59.093,115.579l-5.499,2.713l-5.719-2.859
	c-0.146-0.073-0.294-0.073-0.44,0l-5.719,2.859l-5.719-2.859c-0.146-0.073-0.293-0.073-0.439,0l-5.719,2.859l-5.719-2.859
	c-0.146-0.073-0.293-0.073-0.44,0l-5.719,2.859l-2.494-1.247l2.419,0.953c0.073,0,0.147,0,0.147,0c0.073,0,0.146,0,0.22-0.073
	l5.352-3.225l5.792,2.347c0.147,0.071,0.293,0.071,0.44,0l5.352-3.228l5.792,2.346c0.147,0.074,0.293,0.074,0.44,0l5.354-3.226
	l5.792,2.346c0.147,0.073,0.292,0.073,0.44,0l4.984-3.006C58.359,113.38,58.727,114.479,59.093,115.579z M35.851,90.797
	c9.385,0,17.377,9.165,21.775,20.603l-4.912,3.006l-5.794-2.346c-0.146-0.074-0.292-0.074-0.44,0l-5.352,3.226l-5.719-2.346
	c-0.147-0.074-0.293-0.074-0.441,0l-5.353,3.226l-5.792-2.347c-0.147-0.073-0.293-0.073-0.441,0l-5.279,3.3l-5.279-2.126
	C16.934,101.868,25.585,90.797,35.851,90.797z M35.851,160.891c-15.251,0-25.442-12.172-25.442-30.281
	c0-4.619,0.732-9.532,1.979-14.15l5.425,2.713c0.147,0.073,0.293,0.073,0.44,0l5.719-2.859l5.719,2.859
	c0.147,0.073,0.293,0.073,0.44,0l5.719-2.859l5.719,2.859c0.073,0,0.146,0.073,0.22,0.073c0.074,0,0.147,0,0.22-0.073l5.722-2.859
	l5.719,2.859c0.146,0.073,0.291,0.073,0.438,0l5.498-2.787c1.319,4.692,2.054,9.533,2.054,14.225
	C61.365,148.793,51.101,160.891,35.851,160.891z"/>
<rect x="7.5" y="184.75" fill="none" width="58.75" height="25"/>
<text transform="matrix(1 0 0 1 17.5 184.332)" font-family="'Montserrat-UltraLight'" font-size="13">EGGS</text>
</svg>
