<?xml version="1.0" encoding="utf-8"?>
<!-- Generator: Adobe Illustrator 16.0.0, SVG Export Plug-In . SVG Version: 6.00 Build 0)  -->
<!DOCTYPE svg PUBLIC "-//W3C//DTD SVG 1.1//EN" "http://www.w3.org/Graphics/SVG/1.1/DTD/svg11.dtd">
<svg version="1.1" id="Layer_1" xmlns="http://www.w3.org/2000/svg" xmlns:xlink="http://www.w3.org/1999/xlink" x="0px" y="0px"
	 width="107.667px" height="82px" viewBox="-8.712 -7.262 107.667 82" enable-background="new -8.712 -7.262 107.667 82"
	 xml:space="preserve">
<g>
	<g>
		<g>
			<path d="M3.78,26.365c-2.32,0-4.208-1.887-4.208-4.208c0-2.321,1.887-4.209,4.208-4.209s4.209,1.888,4.209,4.209
				C7.989,24.479,6.101,26.365,3.78,26.365L3.78,26.365z M3.78,18.816c-1.843,0-3.342,1.5-3.342,3.343
				c0,1.841,1.5,3.342,3.342,3.342c1.845,0,3.344-1.501,3.344-3.342C7.124,20.316,5.625,18.816,3.78,18.816L3.78,18.816z"/>
		</g>
		<g>
			<path d="M3.78,24.099c-1.07,0-1.941-0.869-1.941-1.941c0-1.071,0.871-1.942,1.941-1.942c1.07,0,1.942,0.871,1.942,1.942
				C5.723,23.231,4.852,24.099,3.78,24.099L3.78,24.099z M3.78,21.08c-0.593,0-1.076,0.484-1.076,1.078
				c0,0.593,0.483,1.078,1.076,1.078c0.594,0,1.077-0.484,1.077-1.078C4.857,21.564,4.374,21.08,3.78,21.08L3.78,21.08z"/>
		</g>
	</g>
	<g>
		<path d="M33.042,49.641L33.042,49.641c-0.884,0-1.682-0.637-1.941-1.552l-3.33-10.519c-0.236-0.83-0.166-1.491,0.201-1.979
			c0.423-0.561,1.22-0.843,2.366-0.843c4.527,0,9.947,1.261,11.544,3.666c0.557,0.84,0.638,1.79,0.233,2.752
			c-1.412,3.356-6.178,7.223-8.23,8.268C33.619,49.572,33.334,49.641,33.042,49.641L33.042,49.641z M30.337,35.614
			c-0.848,0-1.428,0.174-1.675,0.5c-0.196,0.257-0.218,0.666-0.064,1.208l3.329,10.52c0.156,0.548,0.623,0.934,1.114,0.934l0,0
			c0.153,0,0.306-0.037,0.448-0.109c1.726-0.88,6.467-4.604,7.826-7.834c0.296-0.7,0.244-1.336-0.156-1.938
			C39.746,36.763,34.529,35.614,30.337,35.614L30.337,35.614z"/>
	</g>
	<g>
		<path d="M63.847,39.722c-0.357,0-0.677-0.101-0.946-0.308l-6.1-4.962c-0.185-0.149-0.214-0.422-0.062-0.608
			c0.15-0.188,0.422-0.213,0.61-0.063l6.089,4.954c0.333,0.255,0.971,0.111,1.696-0.397c1.37-0.964,2.61-2.95,2.197-4.256
			c-0.395-1.242-2.172-1.504-3.598-1.504c-0.238,0-0.431-0.193-0.431-0.433c0-0.239,0.192-0.433,0.431-0.433
			c3.103,0,4.118,1.146,4.424,2.109c0.552,1.742-0.88,4.065-2.524,5.222C64.994,39.493,64.379,39.722,63.847,39.722L63.847,39.722z"
			/>
	</g>
	<g>
		<path d="M45.799,10.98c-0.154,0-0.304-0.082-0.381-0.227c-0.112-0.211-0.033-0.474,0.177-0.587
			c3.781-2.018,6.515-4.859,6.807-7.069c0.114-0.862-0.146-1.595-0.773-2.183c-0.667-0.625-1.892-0.895-3.547-0.782
			C43.367,0.458,35.914,3.99,31.601,9.337c-0.15,0.185-0.422,0.217-0.609,0.065c-0.185-0.149-0.215-0.422-0.065-0.609
			c4.631-5.738,12.263-9.188,17.092-9.523c1.901-0.134,3.354,0.218,4.2,1.013c0.829,0.779,1.19,1.792,1.041,2.929
			c-0.332,2.511-3.181,5.541-7.258,7.719C45.938,10.966,45.868,10.98,45.799,10.98L45.799,10.98z"/>
	</g>
	<g>
		<path d="M40.538,38.093c-0.218,0-0.405-0.164-0.43-0.386c-0.026-0.235,0.145-0.451,0.382-0.476
			c7.512-0.826,14.977-3.063,21.566-5.035c6.062-1.814,11.342-3.396,15.446-3.557c-0.424-0.978-1.156-2.992-1.156-5.221
			c0-2.226,0.729-4.239,1.155-5.219c-5.496-0.144-11.989-1.97-18.848-3.9c-8.415-2.37-17.117-4.819-25.657-4.819
			c-24.77,0-37.729,9.02-37.729,13.854c0,4.954,11.726,12.697,32.926,13.738c0.239,0.01,0.423,0.216,0.411,0.454
			c-0.012,0.237-0.219,0.441-0.454,0.41C6.423,36.869-5.596,28.626-5.596,23.335c0-6,15.035-14.719,38.593-14.719
			c8.659,0,17.419,2.467,25.89,4.851c7.085,1.994,13.773,3.878,19.292,3.878c0.151,0,0.29,0.079,0.369,0.209
			c0.078,0.128,0.082,0.29,0.014,0.424c-0.014,0.025-1.352,2.595-1.352,5.443c0,2.847,1.338,5.411,1.352,5.438
			c0.071,0.134,0.064,0.296-0.014,0.425c-0.077,0.129-0.218,0.208-0.369,0.208c-4.069,0-9.54,1.636-15.875,3.536
			c-6.623,1.98-14.128,4.23-21.718,5.065C40.57,38.093,40.553,38.093,40.538,38.093L40.538,38.093z"/>
	</g>
	<g>
		<path d="M93.042,37.852c-4.275,0-12.067-5.82-15.147-8.465c-0.179-0.156-0.202-0.428-0.045-0.609
			c0.157-0.183,0.428-0.201,0.611-0.046c5.01,4.304,13.526,9.786,15.893,7.883c2.299-1.853-1.36-7.411-4.59-12.314l-0.425-0.646
			c-0.094-0.146-0.094-0.331,0-0.474l0.425-0.647c3.229-4.903,6.889-10.459,4.59-12.312c-2.294-1.85-10.854,3.487-15.892,7.882
			c-0.179,0.155-0.453,0.139-0.611-0.043c-0.155-0.178-0.136-0.453,0.042-0.609c3.341-2.915,13.63-10.619,17.004-7.902
			c2.907,2.344-0.814,7.995-4.409,13.46l-0.271,0.41l0.269,0.407c3.597,5.466,7.32,11.118,4.411,13.467
			C94.409,37.68,93.779,37.852,93.042,37.852L93.042,37.852z"/>
	</g>
	<g>
		<path d="M89.701,23.847H76.78c-0.239,0-0.433-0.191-0.433-0.432c0-0.238,0.193-0.433,0.433-0.433h12.921
			c0.238,0,0.433,0.195,0.433,0.433C90.133,23.656,89.939,23.847,89.701,23.847L89.701,23.847z"/>
	</g>
	<g>
		<path d="M77.076,21.341c-0.18,0-0.35-0.116-0.41-0.296c-0.076-0.228,0.047-0.473,0.272-0.548l17.62-5.896
			c0.227-0.074,0.472,0.046,0.548,0.272c0.076,0.227-0.047,0.473-0.272,0.548l-17.62,5.896
			C77.168,21.336,77.122,21.341,77.076,21.341L77.076,21.341z"/>
	</g>
	<g>
		<path d="M94.402,31.605c-0.041,0-0.081-0.005-0.124-0.019l-17.327-5.24c-0.228-0.071-0.358-0.311-0.288-0.54
			c0.07-0.228,0.312-0.358,0.539-0.289l17.327,5.239c0.228,0.068,0.358,0.311,0.288,0.539
			C94.759,31.485,94.586,31.605,94.402,31.605L94.402,31.605z"/>
	</g>
	<g>
		<path d="M36.399,47.618c-0.137,0-0.271-0.064-0.354-0.184l-8.023-11.396c-0.138-0.196-0.091-0.466,0.105-0.605
			c0.193-0.136,0.464-0.088,0.603,0.105l8.022,11.399c0.138,0.194,0.09,0.464-0.105,0.602
			C36.571,47.593,36.484,47.618,36.399,47.618L36.399,47.618z"/>
	</g>
	<g>
		<path d="M40.641,43.29c-0.082,0-0.163-0.025-0.236-0.072l-11.485-7.526c-0.198-0.132-0.255-0.399-0.124-0.602
			c0.13-0.2,0.399-0.255,0.598-0.123l11.485,7.527c0.2,0.131,0.255,0.399,0.124,0.6C40.919,43.222,40.783,43.29,40.641,43.29
			L40.641,43.29z"/>
	</g>
	<g>
		<path d="M36.397,9.481c-0.118,0-0.237-0.047-0.321-0.144c-0.161-0.177-0.146-0.452,0.032-0.61l10.209-9.166
			c0.176-0.16,0.45-0.147,0.61,0.033c0.159,0.176,0.146,0.451-0.033,0.611L36.686,9.371C36.604,9.444,36.501,9.481,36.397,9.481
			L36.397,9.481z"/>
	</g>
	<g>
		<path d="M41.938,10.262c-0.11,0-0.218-0.043-0.302-0.123c-0.171-0.169-0.173-0.443-0.006-0.613l9.338-9.523
			c0.167-0.173,0.44-0.173,0.611-0.007c0.171,0.167,0.174,0.443,0.006,0.611l-9.337,9.523
			C42.163,10.219,42.049,10.262,41.938,10.262L41.938,10.262z"/>
	</g>
	<g>
		<path d="M66.845,37.66c-0.077,0-0.151-0.019-0.222-0.06l-6.74-3.998c-0.205-0.121-0.271-0.386-0.15-0.594
			c0.121-0.205,0.388-0.272,0.593-0.15l6.738,3.998c0.206,0.123,0.271,0.388,0.151,0.592C67.134,37.586,66.993,37.66,66.845,37.66
			L66.845,37.66z"/>
	</g>
	<g>
		<path d="M11.887,35.421c-0.111,0-0.222-0.042-0.306-0.126c-0.169-0.17-0.169-0.443,0-0.612c6.259-6.259,6.259-16.444,0-22.703
			c-0.169-0.169-0.169-0.444,0-0.613c0.168-0.168,0.443-0.168,0.612,0c6.597,6.598,6.597,17.331,0,23.929
			C12.108,35.378,11.997,35.421,11.887,35.421L11.887,35.421z"/>
	</g>
	<g>
		<path d="M13.329,35.865c-0.189,0-0.364-0.124-0.417-0.318c-0.063-0.23,0.072-0.469,0.301-0.534
			c7.081-1.955,9.474-7.729,9.371-12.081c-0.133-5.531-3.802-9.916-9.351-11.17c-0.232-0.052-0.378-0.283-0.326-0.517
			c0.053-0.233,0.285-0.381,0.518-0.326c5.949,1.343,9.884,6.053,10.024,11.992c0.146,6.139-3.781,11.215-10.005,12.937
			C13.406,35.859,13.369,35.865,13.329,35.865L13.329,35.865z"/>
	</g>
</g>
<rect x="23.427" y="56.315" fill="none" width="45.454" height="21.328"/>
<text transform="matrix(1 0 0 1 29.7515 67.3372)" font-family="'Montserrat-UltraLight'" font-size="13">FISH</text>
</svg>
