<svg id="Layer_1" data-name="Layer 1" xmlns="http://www.w3.org/2000/svg" viewBox="0 0 60.07 72"><defs><style>.cls-1{fill:#010101;}</style></defs><title>fish_icon</title><path class="cls-1" d="M9.35,74.9l0.46,1.72h0l0.46-1.72,2.5-8.12h0.44l2.49,8.12,0.45,1.72h0L16.7,74.9l2.18-8.12h0.43L16.46,77.38H16L13.4,68.54,13,67.49h0l-0.33,1.06L10,77.38H9.58L6.72,66.78H7.15Z" transform="translate(-6.72 -5.53)"/><path class="cls-1" d="M25.3,74.21H20.12l-1.19,3.17H18.51l4-10.59h0.48l4,10.59H26.48Zm-5-.39h4.88l-2.22-5.93-0.2-.62h0l-0.2.62Z" transform="translate(-6.72 -5.53)"/><path class="cls-1" d="M27.82,77h5.73v0.39H27.42V66.78h0.4V77Z" transform="translate(-6.72 -5.53)"/><path class="cls-1" d="M42.08,77.38H41.69l-6.79-9.86h0v9.85h-0.4V66.78h0.4l6.79,9.84,0,0V66.78h0.39V77.38Z" transform="translate(-6.72 -5.53)"/><path class="cls-1" d="M50.93,66.78v7a3.63,3.63,0,0,1-1,2.73,3.95,3.95,0,0,1-5.22,0,3.63,3.63,0,0,1-1-2.72v-7h0.39v7A3.24,3.24,0,0,0,45,76.23a3.41,3.41,0,0,0,4.63,0,3.25,3.25,0,0,0,.91-2.41v-7h0.39Z" transform="translate(-6.72 -5.53)"/><path class="cls-1" d="M59.57,67.18H55.86v10.2H55.47V67.18h-4V66.78h8.07v0.39Z" transform="translate(-6.72 -5.53)"/><path class="cls-1" d="M66.39,74.88a1.75,1.75,0,0,0-.75-1.47,9.44,9.44,0,0,0-2.54-1.15,9.32,9.32,0,0,1-2.64-1.16,2.09,2.09,0,0,1-.85-1.81,2.3,2.3,0,0,1,1-1.93,4.12,4.12,0,0,1,2.52-.74,3.82,3.82,0,0,1,2.55.81,2.74,2.74,0,0,1,.93,2.28v0H66.27a2.52,2.52,0,0,0-.87-2A3.27,3.27,0,0,0,63.13,67a3.55,3.55,0,0,0-2.28.67A2,2,0,0,0,60,69.29a1.85,1.85,0,0,0,.68,1.49,7.51,7.51,0,0,0,2.54,1.12,10.29,10.29,0,0,1,2.68,1.18,2,2,0,0,1,.88,1.8,2.25,2.25,0,0,1-1,1.93,4.37,4.37,0,0,1-2.57.73,4.92,4.92,0,0,1-2.74-.75,2.52,2.52,0,0,1-1.11-2.35v0h0.33a2.27,2.27,0,0,0,1.06,2.09,4.59,4.59,0,0,0,2.45.65,3.89,3.89,0,0,0,2.3-.64A1.91,1.91,0,0,0,66.39,74.88Z" transform="translate(-6.72 -5.53)"/><path class="cls-1" d="M54.18,18.11c-1.39-4.08-3.6-6.54-6.58-7.34a16,16,0,0,0-5.76-2.21,7.47,7.47,0,0,1-2.24-.72,3.49,3.49,0,0,1-.47-0.72,2.57,2.57,0,0,0-4.75,0,3.47,3.47,0,0,1-.47.72,7.46,7.46,0,0,1-2.24.72,16,16,0,0,0-5.76,2.21c-3,.79-5.19,3.26-6.58,7.34-2,3-3,7.62-3,13.82s1,10.85,3,13.82c1.39,4.08,3.6,6.54,6.58,7.33a16,16,0,0,0,5.76,2.21,7.48,7.48,0,0,1,2.24.72,3.52,3.52,0,0,1,.47.72,2.57,2.57,0,0,0,4.75,0A3.49,3.49,0,0,1,39.6,56a7.44,7.44,0,0,1,2.24-.72A16,16,0,0,0,47.6,53.1c3-.79,5.19-3.26,6.58-7.33,2-3,3-7.62,3-13.82S56.17,21.09,54.18,18.11Zm2.33,15.24c-0.75-.42-2.3-1.72-2.3-5.25V19.44c1.54,2.87,2.32,7.07,2.32,12.49C56.53,32.42,56.52,32.89,56.51,33.35Zm-3.44,2a7.09,7.09,0,0,1-.84-3.38c0-2.72.85-3.56,1.34-3.82,0,4.33,2.18,5.64,2.93,6-0.18,4.4-.95,7.87-2.28,10.36V40.52A10.8,10.8,0,0,0,53.06,35.32ZM47.12,11.25v6.26a11.9,11.9,0,0,0,1.29,5.87,12.58,12.58,0,0,1,1.32,6.26A16.24,16.24,0,0,1,45.8,40.11h0a11.68,11.68,0,0,1-1.62-6.25V26.48c0-7.63-3.52-9.14-4.3-9.38l0.08-.5a14.73,14.73,0,0,0,.24-2.75,41.09,41.09,0,0,0-.42-5.17,17,17,0,0,0,1.9.52A15.83,15.83,0,0,1,47.12,11.25Zm-15.3-2a16.71,16.71,0,0,0,1.91-.52,40.92,40.92,0,0,0-.36,5,17.49,17.49,0,0,0,.21,2.85,20.14,20.14,0,0,1,.23,3.31A21.83,21.83,0,0,1,33.33,24a25,25,0,0,0-.54,4.86,27.49,27.49,0,0,0,.46,4.61,35.36,35.36,0,0,1,.56,6.17,58.15,58.15,0,0,1-.34,6.12c-0.1,1-.2,2-0.23,3.05-1-.6-3.26-2.43-3.26-6.56V32.1a11,11,0,0,0-1.58-5.84,15.89,15.89,0,0,1-2-8.62V11.25A15.85,15.85,0,0,1,31.82,9.2ZM17,29.8c0.18-4.4.95-7.87,2.27-10.36v2.27a13.38,13.38,0,0,0,1,4.6,13.21,13.21,0,0,1,1,4.53c0,2.34-.93,3.15-1.44,3.42C19.41,31.12,17.67,30.08,17,29.8Zm0,0.71c0.75,0.41,2.3,1.69,2.3,5.25v8.66C17.76,41.56,17,37.36,17,31.94,17,31.45,17,31,17,30.52Zm3,15V35.77c0-.29,0-0.57,0-0.83,0.62-.24,2-1.12,2-4.1a13.73,13.73,0,0,0-1-4.74,12.66,12.66,0,0,1-1-4.38v-3.4c1.26-3.69,3.2-6,5.78-6.8v6.12A17.26,17.26,0,0,0,27,24.91c-0.5.4-3.89,3.28-3.89,9.25a13.51,13.51,0,0,0,1.34,6.25,12.75,12.75,0,0,1,1.28,6v6C23.15,51.53,21.21,49.24,19.95,45.56Zm6.43,7.07V46.37a13.45,13.45,0,0,0-1.33-6.22,12.8,12.8,0,0,1-1.28-6,11.35,11.35,0,0,1,3.52-8.63c0.18,0.36.35,0.71,0.53,1a10.32,10.32,0,0,1,1.51,5.54V42.28a7.92,7.92,0,0,0,3.89,7.3c0,0.07,0,.14,0,0.21,0,1.22.35,4.11,0.52,5.41a16.87,16.87,0,0,0-1.92-.53A15.83,15.83,0,0,1,26.38,52.62ZM35,56.44a4.57,4.57,0,0,0-.49-0.76c-0.08-.59-0.59-4.47-0.59-5.89a39.07,39.07,0,0,1,.25-3.94,58.54,58.54,0,0,0,.35-6.18,36.39,36.39,0,0,0-.57-6.27,27,27,0,0,1-.45-4.51A24.49,24.49,0,0,1,34,24.16a22.34,22.34,0,0,0,.49-4.3,20.71,20.71,0,0,0-.24-3.41A16.91,16.91,0,0,1,34,13.69a41.19,41.19,0,0,1,.43-5.49A4.53,4.53,0,0,0,35,7.44,1.85,1.85,0,0,1,36.43,6.2V57.67A1.85,1.85,0,0,1,35,56.44Zm2.13,1.23V6.2a1.85,1.85,0,0,1,1.48,1.23,4.59,4.59,0,0,0,.5.76,42.46,42.46,0,0,1,.49,5.65,14.19,14.19,0,0,1-.23,2.65A17.82,17.82,0,0,0,39,19.86a42,42,0,0,0,.43,4.89,58.29,58.29,0,0,1,.59,7.33,42.8,42.8,0,0,1-.52,5.66,41.58,41.58,0,0,0-.5,5.44,24.56,24.56,0,0,0,.35,4.58,15.61,15.61,0,0,1,.25,2.93,44.21,44.21,0,0,1-.58,5,4.41,4.41,0,0,0-.5.76A1.85,1.85,0,0,1,37.08,57.67Zm4.61-3a16.84,16.84,0,0,0-1.89.52,38,38,0,0,0,.5-4.5,16.4,16.4,0,0,0-.26-3,24,24,0,0,1-.34-4.48,40.49,40.49,0,0,1,.5-5.35,43.22,43.22,0,0,0,.52-5.75,58.75,58.75,0,0,0-.59-7.41,41.62,41.62,0,0,1-.43-4.81,18.77,18.77,0,0,1,.1-2.09c0.79,0.3,3.73,1.87,3.73,8.72v7.37a12.22,12.22,0,0,0,1.69,6.55,14.89,14.89,0,0,1,1.91,8.07v4.15A15.86,15.86,0,0,1,41.69,54.67Zm6.09-2.31V48.47a15.33,15.33,0,0,0-1.66-7.74,16.59,16.59,0,0,0,4.27-11.09A13.14,13.14,0,0,0,49,23.11a11.2,11.2,0,0,1-1.23-5.6v-6c2.58,0.83,4.52,3.11,5.78,6.8V27.4c-0.63.19-2,1-2,4.53a7.72,7.72,0,0,0,.9,3.65,10.12,10.12,0,0,1,1.09,4.93v5C52.3,49.24,50.35,51.53,47.78,52.36Z" transform="translate(-6.72 -5.53)"/></svg>