<?xml version="1.0" encoding="utf-8"?>
<!-- Generator: Adobe Illustrator 16.0.0, SVG Export Plug-In . SVG Version: 6.00 Build 0)  -->
<!DOCTYPE svg PUBLIC "-//W3C//DTD SVG 1.1//EN" "http://www.w3.org/Graphics/SVG/1.1/DTD/svg11.dtd">
<svg version="1.1" id="Layer_1" xmlns="http://www.w3.org/2000/svg" xmlns:xlink="http://www.w3.org/1999/xlink" x="0px" y="0px"
	 width="46px" height="106px" viewBox="14.667 77.833 46 106" enable-background="new 14.667 77.833 46 106" xml:space="preserve">
<title>milk_icon</title>
<path d="M49.962,95.353L49.962,95.353l-6.83-6.111v-4.261c0.008-0.456-0.355-0.832-0.812-0.839c-0.01,0-0.018,0-0.025,0h-0.121
	L29.55,85.259c-0.479,0.078-0.832,0.488-0.838,0.973v2.09c-0.965,0.361-1.818,0.967-2.478,1.758l0,0l0,0l0,0
	c-0.333,0.461-0.462,1.039-0.358,1.599l0,0l0.226,0.759l-3.781,2.796h-0.079l0,0c-0.334,0.265-0.531,0.666-0.533,1.093v56.164
	c0.018,0.771,0.572,1.426,1.332,1.57l10.771,1.984c0.291,0.045,0.584,0.072,0.879,0.078h0.16h0.12c0.306,0.024,0.612,0.024,0.919,0
	l13.314-2.035c0.758-0.129,1.316-0.777,1.332-1.545v-56.11C50.531,96.001,50.316,95.599,49.962,95.353z M47.939,94.634l-8.215-2.396
	l3.009-2.303L47.939,94.634z M46.248,95.007H36.048l2.795-2.145L46.248,95.007z M29.63,86.072l12.648-1.092v3.995l-7.656,0.386
	l-0.492-1.092c0-0.12-0.188-0.426-1.545-0.879l0,0c-0.127-0.016-0.258-0.016-0.385,0c-0.918,0.068-1.818,0.288-2.664,0.652v-1.824
	C29.542,86.158,29.578,86.103,29.63,86.072z M33.731,89.401l0.666,1.504c-0.834,0.964-1.923,1.675-3.144,2.052
	c-1.129,0.569-2.383,0.85-3.647,0.812l-0.679-1.544l0,0c1.236-0.119,2.445-0.434,3.582-0.932
	C31.687,90.857,32.777,90.216,33.731,89.401z M29.471,88.882c0.842-0.389,1.741-0.635,2.664-0.733
	c-0.716,0.572-1.521,1.021-2.384,1.332c-0.842,0.388-1.742,0.636-2.664,0.731C27.804,89.642,28.609,89.193,29.471,88.882z
	 M30.07,90.294c0.758-0.309,1.48-0.696,2.157-1.16c0.289-0.182,0.542-0.416,0.746-0.691l0.373,0.16
	c-0.853,0.93-1.931,1.623-3.13,2.01c-1.113,0.577-2.354,0.865-3.607,0.84c0.023-0.117,0.055-0.234,0.094-0.347
	c0.119,0.013,0.24,0.013,0.359,0c1.042-0.088,2.061-0.358,3.009-0.799L30.07,90.294L30.07,90.294z M34.397,155.287h-0.491
	l-10.773-1.984c-0.357-0.082-0.618-0.393-0.639-0.76v-56.11c0-0.315,0.256-0.573,0.573-0.573l0,0h11.331L34.397,155.287
	L34.397,155.287z M34.664,95.007H24.011l2.396-1.799l0.413,0.945c0.238,0.385,0.687,0.586,1.132,0.506
	c1.236-0.119,2.445-0.434,3.582-0.932c0.942-0.378,1.836-0.865,2.664-1.452c0.84-0.625,1.158-1.157,0.959-1.625l-0.188-0.438
	l6.418-0.319L34.664,95.007z M49.617,152.49c-0.013,0.359-0.271,0.663-0.625,0.731l-13.263,2.036h-0.506V95.833h13.821h0.105h0.135
	c0.202,0.092,0.332,0.295,0.332,0.519V152.49L49.617,152.49z"/>
<rect y="209.5" fill="none" width="72" height="31.666"/>
<text transform="matrix(1 0 0 1 21.0005 176.4272)" font-family="'Montserrat-UltraLight'" font-size="13">MILK</text>
</svg>
