<?xml version="1.0" encoding="utf-8"?>
<!-- Generator: Adobe Illustrator 16.0.0, SVG Export Plug-In . SVG Version: 6.00 Build 0)  -->
<!DOCTYPE svg PUBLIC "-//W3C//DTD SVG 1.1//EN" "http://www.w3.org/Graphics/SVG/1.1/DTD/svg11.dtd">
<svg version="1.1" id="Layer_1" xmlns="http://www.w3.org/2000/svg" xmlns:xlink="http://www.w3.org/1999/xlink" x="0px" y="0px"
	 width="87.762px" height="64.336px" viewBox="0 0 87.762 64.336" enable-background="new 0 0 87.762 64.336" xml:space="preserve">
<g>
	<path d="M84.189,16.828c-0.006-0.102-0.02-0.2-0.026-0.302c-0.019-0.191-0.034-0.383-0.06-0.573
		c-0.016-0.121-0.037-0.241-0.058-0.362c-0.025-0.165-0.051-0.331-0.083-0.494c-0.025-0.13-0.056-0.257-0.086-0.386
		c-0.033-0.15-0.068-0.301-0.107-0.45c-0.035-0.135-0.074-0.268-0.114-0.401c-0.04-0.138-0.081-0.275-0.127-0.413
		c-0.047-0.14-0.096-0.277-0.146-0.413c-0.046-0.128-0.094-0.253-0.145-0.377c-0.057-0.144-0.115-0.286-0.178-0.426
		c-0.05-0.113-0.102-0.226-0.152-0.338c-0.069-0.148-0.141-0.296-0.215-0.443c-0.051-0.099-0.103-0.196-0.154-0.295
		c-0.084-0.154-0.167-0.311-0.256-0.46c-0.048-0.081-0.099-0.16-0.146-0.241c-0.101-0.164-0.201-0.329-0.309-0.492
		c-0.035-0.053-0.073-0.107-0.11-0.161c-0.892-1.319-1.986-2.522-3.231-3.588c-0.032-0.052-0.059-0.091-0.062-0.099
		c-0.059-0.09-0.147-0.142-0.242-0.157c-2.696-2.219-6.044-3.813-9.509-4.613c-0.001,0-0.003-0.001-0.005-0.001
		c-1.155-0.267-2.322-0.444-3.482-0.527C65.158,0.8,65.13,0.78,65.098,0.772c-0.081-0.024-0.161-0.011-0.231,0.023
		c-0.004,0-0.006,0-0.008,0c-0.388-0.022-0.772-0.037-1.156-0.037c-0.478,0-0.938,0.018-1.389,0.043
		c-0.114,0.006-0.228,0.015-0.342,0.024c-0.37,0.025-0.73,0.06-1.085,0.102c-0.071,0.009-0.145,0.015-0.215,0.024
		c-0.901,0.117-1.749,0.281-2.553,0.483C58,1.399,57.876,1.43,57.787,1.518c-0.001,0-0.001,0-0.001,0
		c-0.335,0.09-0.664,0.186-0.984,0.288c-0.006,0.001-0.012,0.003-0.018,0.005c-0.326,0.104-0.646,0.213-0.958,0.328
		c-0.001,0-0.001,0-0.002,0C55.821,2.14,55.82,2.14,55.818,2.14c-0.548,0.203-1.076,0.42-1.586,0.649
		c-0.003,0.001-0.006,0.002-0.009,0.004c-1.534,0.687-2.91,1.468-4.22,2.211c-2.854,1.62-5.547,3.15-9.102,3.35
		c-3.754,0.199-6.074-1.14-8.545-2.576C31.69,5.39,31,4.989,30.257,4.606c-0.002-0.001-0.005-0.001-0.007-0.004
		c-2.157-1.11-4.75-2.06-8.496-2.06c-8.858,0-18.729,6.234-18.729,15.18c0,8.945,9.871,15.178,18.729,15.178
		c0.375,0,0.736-0.019,1.103-0.029c0.004,0,0.007,0.003,0.013,0.005c0.02,0.003,0.041,0.004,0.06,0.004
		c0.025,0,0.048-0.007,0.072-0.013c2.193-0.073,4.277-0.312,6.454-0.577c3.021-0.366,6.448-0.782,10.847-0.782
		c1.077,0,2.188,0.025,3.306,0.075c1.17,0.052,2.234,0.137,3.223,0.245c2.407,2.761,6.847,6.059,14.316,6.059
		c0.25,0,0.504-0.005,0.762-0.013c5.263-0.151,9.548-1.584,12.393-4.142c1.037-0.933,1.865-2.019,2.491-3.209
		c1.848-1.281,3.471-2.815,4.722-4.579c0.028-0.039,0.055-0.081,0.082-0.119c0.148-0.214,0.293-0.431,0.431-0.651
		c0.041-0.066,0.081-0.135,0.121-0.201c0.12-0.197,0.234-0.395,0.346-0.597c0.045-0.084,0.09-0.169,0.134-0.254
		c0.098-0.187,0.19-0.375,0.281-0.567c0.046-0.099,0.09-0.196,0.133-0.295c0.081-0.182,0.157-0.368,0.229-0.553
		c0.042-0.108,0.084-0.215,0.123-0.323c0.065-0.182,0.127-0.367,0.187-0.55c0.036-0.115,0.072-0.23,0.105-0.346
		c0.055-0.184,0.101-0.371,0.146-0.558c0.029-0.118,0.061-0.236,0.086-0.356c0.041-0.191,0.074-0.386,0.106-0.58
		c0.021-0.117,0.043-0.233,0.061-0.352c0.03-0.212,0.051-0.426,0.07-0.642c0.011-0.103,0.023-0.207,0.031-0.31
		c0.022-0.32,0.035-0.643,0.035-0.969C84.219,17.422,84.209,17.124,84.189,16.828z M33.818,8.462
		c0.128-0.295,0.415-0.549,0.61-0.693c1.273,0.621,2.656,1.087,4.301,1.27c-0.612,0.379-1.146,0.903-1.601,1.535
		c-1.244-0.238-2.346-0.6-3.407-1.019C33.694,9.245,33.686,8.765,33.818,8.462z M18.832,9.509c0.064,0.752,0.351,1.469,0.582,1.944
		c-0.969,0.049-1.958,0.127-2.949,0.235c-0.004,0.001-0.007,0.001-0.011,0.001c-0.753,0.082-1.508,0.181-2.251,0.296
		c0.057-0.409,0.175-1.025,0.42-1.625c0.409-1.002,1.091-1.994,1.305-2.296c0.649-0.142,1.306-0.263,1.966-0.36
		c0.001,0,0.001,0,0.002,0c0.02,0,0.038-0.001,0.059-0.004c0.005-0.001,0.008-0.004,0.013-0.006c0.37-0.053,0.742-0.099,1.113-0.138
		C18.932,8.049,18.769,8.779,18.832,9.509z M33.207,12.901c-0.314-0.072-0.628-0.146-0.944-0.22
		c-0.527-0.123-1.058-0.247-1.606-0.367c-0.17-0.327-0.555-1.168-0.528-1.989c0.021-0.664,0.262-1.062,0.416-1.253
		c0.515,0.202,1.014,0.412,1.509,0.619c0.403,0.169,0.804,0.335,1.206,0.497c0.005,0.003,0.01,0.005,0.016,0.006
		c0.268,0.107,0.536,0.214,0.809,0.314c-0.162,0.251-0.361,0.582-0.516,0.917C33.341,11.914,33.247,12.5,33.207,12.901z
		 M35.568,14.138c-0.26,1.019-0.428,2.103-0.498,3.201h-5.032c-0.103-0.449-0.245-1.435,0.171-2.417
		c0.388-0.918,0.972-1.459,1.21-1.653c0.229,0.054,0.46,0.108,0.688,0.16C33.235,13.694,34.348,13.944,35.568,14.138z
		 M30.377,13.037c0.018,0.003,0.034,0.014,0.053,0.014c0.002,0,0.003-0.002,0.005-0.002c0.036,0.008,0.072,0.015,0.108,0.024
		c-0.318,0.339-0.701,0.847-0.993,1.535c-0.455,1.076-0.365,2.127-0.25,2.731h-4.798c-0.227-0.331-0.813-1.252-1.235-2.507
		c-0.442-1.318-0.202-2.26-0.052-2.653C26.285,12.267,28.456,12.623,30.377,13.037z M26.796,18.105
		c-0.42,0.56-1.008,1.421-1.416,2.347c-0.479,1.089-0.664,2.228-0.731,2.786c-0.866,0.025-1.745,0.043-2.645,0.044
		c-0.155-0.469-0.475-1.562-0.49-2.628c-0.016-1.042,0.264-2.088,0.405-2.549H26.796z M29.775,12.131
		c-1.608-0.32-3.432-0.586-5.8-0.691c0-0.431,0.05-1.215,0.362-1.948c0.364-0.857,1.178-1.546,1.462-1.77
		c1.552,0.254,2.849,0.643,4.036,1.08c-0.201,0.323-0.407,0.815-0.43,1.498C29.385,10.979,29.582,11.645,29.775,12.131z
		 M23.68,9.176c-0.361,0.849-0.424,1.729-0.427,2.238c-0.055-0.001-0.112-0.003-0.168-0.004c-0.06-0.016-0.118-0.019-0.176-0.004
		c-0.373-0.009-0.756-0.013-1.155-0.013c-0.501,0-1.016,0.009-1.536,0.027c-0.191-0.344-0.596-1.155-0.667-1.98
		c-0.067-0.768,0.184-1.583,0.316-1.951c0.632-0.046,1.262-0.073,1.887-0.073c1.13,0,2.142,0.064,3.07,0.173
		C24.428,7.975,23.957,8.526,23.68,9.176z M21.754,12.158c0.241,0,0.474,0.002,0.705,0.005c-0.172,0.599-0.31,1.623,0.13,2.926
		c0.328,0.974,0.74,1.749,1.043,2.25h-1.976c-0.003,0-0.005,0-0.007,0h-4.024c-0.254-0.328-0.958-1.318-1.092-2.426
		c-0.125-1.041,0.098-2.048,0.217-2.483C18.415,12.253,20.111,12.158,21.754,12.158z M16.126,20.566
		c-0.446-0.91-0.611-1.919-0.671-2.461h5.709c-0.163,0.577-0.387,1.553-0.371,2.561c0.015,1.021,0.27,2.024,0.45,2.615
		c-0.533-0.006-1.07-0.023-1.609-0.047c-0.001,0-0.003-0.001-0.005-0.001c-0.003-0.001-0.007,0.001-0.01,0
		c-0.523-0.024-1.049-0.058-1.573-0.099C17.746,22.837,16.715,21.769,16.126,20.566z M16.94,23.034
		c-1.755-0.179-3.478-0.449-5.069-0.794c-0.286-0.247-1.354-1.211-1.864-2.23c-0.359-0.715-0.404-1.481-0.397-1.905h5.119
		c0.059,0.578,0.234,1.743,0.76,2.814C15.895,21.752,16.478,22.505,16.94,23.034z M13.961,10.056
		c-0.33,0.808-0.455,1.622-0.502,2.052c-0.849,0.145-1.681,0.311-2.48,0.5c-0.032-0.346-0.043-0.884,0.099-1.447
		c0.195-0.776,0.702-1.622,0.877-1.898c0.935-0.365,1.915-0.681,2.922-0.944C14.579,8.792,14.223,9.417,13.961,10.056z
		 M15.981,12.517c-0.133,0.574-0.281,1.509-0.164,2.494c0.114,0.942,0.556,1.781,0.909,2.329h-4.885
		c-0.286-0.226-1.239-1.014-1.717-1.844c-0.38-0.66-0.471-1.36-0.491-1.732C11.517,13.22,13.707,12.793,15.981,12.517z
		 M10.38,10.964c-0.185,0.729-0.156,1.412-0.11,1.82C9.33,13.026,8.442,13.3,7.63,13.605c-0.139-0.131-0.34-0.375-0.371-0.697
		c-0.037-0.401,0.183-1.005,0.319-1.318c0.967-0.699,2.074-1.329,3.282-1.872C10.676,10.095,10.49,10.532,10.38,10.964z
		 M8.926,13.979c0.043,0.479,0.177,1.21,0.584,1.916c0.313,0.545,0.786,1.057,1.194,1.445H6.178
		c-0.112-0.184-0.292-0.539-0.296-0.957c-0.005-0.441,0.218-1.037,0.35-1.332C6.995,14.662,7.907,14.302,8.926,13.979z M7.49,18.105
		h1.396C8.879,18.62,8.939,19.513,9.37,20.37c0.284,0.568,0.708,1.103,1.104,1.538C8.896,21.5,7.498,21.015,6.39,20.47
		c0.044-0.251,0.139-0.658,0.334-1.098C6.933,18.902,7.309,18.358,7.49,18.105z M8.975,23.474c0.115-0.459,0.468-0.818,0.66-0.986
		c1.43,0.401,2.998,0.727,4.608,0.975c-0.154,0.471-0.318,1.226-0.155,1.997c0.126,0.6,0.436,1.189,0.729,1.648
		c-2.083-0.549-4.047-1.327-5.728-2.288C8.994,24.496,8.869,23.897,8.975,23.474z M14.791,25.293
		c-0.145-0.681,0.055-1.372,0.185-1.724c0.968,0.135,1.946,0.242,2.913,0.32c0.003,0,0.005,0.001,0.008,0.001c0,0,0.001,0,0.002,0
		c0.458,0.037,0.914,0.066,1.366,0.09c0.024,0.491,0.124,1.38,0.512,2.25c0.305,0.681,0.768,1.323,1.14,1.782
		c-1.668-0.055-3.36-0.276-5-0.639C15.698,27.11,14.979,26.183,14.791,25.293z M20.429,25.903c-0.315-0.708-0.41-1.45-0.438-1.888
		c0.6,0.022,1.19,0.036,1.764,0.036c1.094,0,2.146-0.022,3.19-0.055c0.001,0,0.004,0.001,0.005,0.001c0.008,0,0.017,0,0.024,0
		c0.005,0,0.011-0.003,0.018-0.003c0.519-0.016,1.038-0.034,1.556-0.056c-0.174,0.48-0.386,1.219-0.361,1.937
		c0.025,0.712,0.287,1.454,0.494,1.937c-1.57,0.12-3.136,0.208-4.779,0.212C21.63,27.731,20.846,26.838,20.429,25.903z
		 M25.381,23.217c0.072-0.542,0.247-1.52,0.652-2.44c0.526-1.197,1.41-2.32,1.7-2.672h3.999c-0.249,0.599-0.621,1.566-0.75,2.298
		c-0.192,1.087-0.131,2.035-0.065,2.565c-0.518,0.025-1.026,0.049-1.521,0.073C28.037,23.107,26.714,23.172,25.381,23.217z
		 M27.341,23.905c0.691-0.03,1.384-0.064,2.089-0.099c0.617-0.03,1.252-0.06,1.906-0.09h0.001c0.001,0,0.002-0.001,0.003-0.001
		c0.354-0.015,0.713-0.032,1.081-0.048c-0.134,0.449-0.288,1.113-0.283,1.814c0.005,0.726,0.209,1.402,0.38,1.849
		c-1.1,0.083-2.143,0.174-3.136,0.26c-0.65,0.057-1.292,0.112-1.929,0.165c-0.178-0.373-0.521-1.182-0.547-1.909
		C26.88,25.076,27.203,24.229,27.341,23.905z M31.641,22.935c-0.06-0.455-0.133-1.359,0.05-2.39c0.143-0.795,0.628-1.968,0.833-2.44
		h2.516c-0.01,0.373-0.012,0.747,0,1.116c0.037,1.188,0.188,2.398,0.446,3.574C34.114,22.832,32.834,22.881,31.641,22.935z
		 M33.193,23.635c0.782-0.03,1.611-0.057,2.469-0.079c0.332,1.258,0.803,2.453,1.4,3.527c-1.344,0.045-2.608,0.111-3.78,0.191
		c-0.149-0.34-0.418-1.054-0.423-1.799C32.854,24.718,33.071,23.987,33.193,23.635z M33.917,13.057
		c0.032-0.363,0.115-0.898,0.298-1.295c0.176-0.383,0.425-0.77,0.583-1c0.596,0.199,1.227,0.365,1.889,0.502
		c-0.367,0.642-0.667,1.364-0.909,2.136C35.132,13.297,34.513,13.184,33.917,13.057z M32.011,6.449
		c0.564,0.33,1.124,0.649,1.691,0.954c-0.199,0.188-0.408,0.437-0.539,0.738c-0.15,0.344-0.185,0.769-0.181,1.116
		c-0.222-0.091-0.443-0.184-0.667-0.278c-1.307-0.549-2.638-1.106-4.22-1.538c0.074-0.341,0.237-0.884,0.585-1.29
		c0.38-0.444,1.084-0.712,1.362-0.805C30.724,5.702,31.371,6.077,32.011,6.449z M23.622,3.395c2.24,0.211,3.988,0.79,5.523,1.508
		c-0.344,0.174-0.723,0.413-0.997,0.733c-0.452,0.527-0.661,1.197-0.754,1.626c-0.94-0.223-1.974-0.399-3.143-0.504
		c-0.212-0.303-0.745-1.12-0.866-1.844C23.279,4.269,23.502,3.663,23.622,3.395z M19.754,3.433c0.683-0.081,1.353-0.125,2-0.125
		c0.384,0,0.75,0.013,1.107,0.033c-0.147,0.408-0.298,1.026-0.186,1.705c0.099,0.591,0.399,1.198,0.664,1.647
		c-0.505-0.028-1.03-0.045-1.586-0.045c-1.168,0-2.354,0.083-3.532,0.233c-0.018-0.417,0.002-1.113,0.259-1.752
		C18.792,4.358,19.511,3.655,19.754,3.433z M12.986,5.405c1.815-0.858,3.731-1.465,5.589-1.798
		c-0.282,0.346-0.572,0.766-0.756,1.221c-0.326,0.809-0.34,1.667-0.312,2.154c-1.448,0.225-2.875,0.56-4.239,0.992
		c-0.181-0.312-0.423-0.816-0.477-1.272C12.731,6.188,12.889,5.667,12.986,5.405z M9.057,8.888c0.17-0.627,0.71-1.442,0.934-1.761
		c0.68-0.472,1.394-0.902,2.131-1.29c-0.055,0.29-0.084,0.619-0.045,0.956c0.062,0.534,0.294,1.054,0.486,1.413
		c-1.257,0.437-2.45,0.959-3.538,1.558C8.978,9.55,8.958,9.249,9.057,8.888z M8.505,8.271C8.449,8.408,8.399,8.543,8.365,8.675
		c-0.17,0.624-0.088,1.134,0.013,1.46c-1.499,0.902-2.769,1.956-3.694,3.135C5.519,11.353,6.862,9.675,8.505,8.271z M6.575,12.39
		c-0.034,0.2-0.051,0.404-0.032,0.595c0.036,0.38,0.192,0.683,0.361,0.91c-1.1,0.467-2.019,1-2.688,1.592
		C4.691,14.366,5.507,13.326,6.575,12.39z M5.271,15.612c-0.063,0.253-0.112,0.523-0.109,0.779c0.003,0.365,0.095,0.688,0.203,0.948
		H3.801C3.956,16.728,4.474,16.147,5.271,15.612z M6.6,18.105c-0.183,0.281-0.385,0.62-0.528,0.941
		c-0.179,0.404-0.284,0.78-0.349,1.07c-1.054-0.613-1.74-1.291-1.923-2.011H6.6z M8.832,22.25c-0.221,0.259-0.449,0.606-0.555,1.026
		c-0.084,0.337-0.073,0.705-0.03,1.034c-1.894-1.227-3.331-2.705-4.03-4.353C5.248,20.871,6.877,21.637,8.832,22.25z M4.683,22.172
		c1.263,1.61,3.169,2.984,5.423,4.058c-0.03,0.379-0.057,1.05,0.075,1.715c0.043,0.214,0.112,0.425,0.19,0.626
		C7.89,26.936,5.817,24.777,4.683,22.172z M11.586,29.312c-0.188-0.279-0.577-0.908-0.7-1.526c-0.088-0.441-0.092-0.898-0.077-1.236
		c0.996,0.434,2.049,0.81,3.14,1.123c0.035,0.424,0.154,1.208,0.562,2.027c0.223,0.452,0.529,0.902,0.822,1.29
		C14.05,30.551,12.785,29.988,11.586,29.312z M19.014,31.909c-0.786-0.123-1.585-0.294-2.385-0.516
		c-0.273-0.299-1.06-1.194-1.48-2.048c-0.271-0.55-0.393-1.088-0.447-1.464c1.535,0.396,3.13,0.672,4.723,0.809
		c-0.239,0.432-0.539,1.077-0.604,1.704C18.762,30.969,18.879,31.508,19.014,31.909z M22.639,32.111
		c-0.295,0.007-0.584,0.024-0.885,0.024c-0.62,0-1.262-0.042-1.915-0.115c-0.132-0.281-0.368-0.892-0.302-1.545
		c0.069-0.682,0.527-1.453,0.703-1.727c0.506,0.029,1.012,0.045,1.514,0.045c0.84,0,1.654-0.026,2.461-0.063
		c-0.292,0.422-0.657,0.983-0.922,1.527C22.921,31.019,22.729,31.719,22.639,32.111z M29.373,31.529
		c-2.024,0.246-3.964,0.474-5.983,0.563c0.095-0.368,0.263-0.908,0.543-1.481c0.378-0.775,0.998-1.624,1.227-1.928
		c0.694-0.04,1.388-0.088,2.081-0.143c0.003,0,0.005,0.001,0.008,0.001c0.004,0,0.008-0.002,0.012-0.002
		c0.334-0.027,0.673-0.056,1.01-0.084c0.086,0.434,0.285,1.182,0.716,1.842c0.298,0.456,0.689,0.853,1.033,1.156
		C29.803,31.478,29.584,31.503,29.373,31.529z M31.06,31.329c-0.262-0.187-1.021-0.763-1.481-1.471
		c-0.328-0.502-0.499-1.088-0.583-1.467c0.148-0.012,0.296-0.024,0.446-0.037c1.338-0.118,2.764-0.241,4.311-0.343
		c0.098,0.385,0.291,1.05,0.591,1.676c0.222,0.46,0.526,0.911,0.779,1.25C33.666,31.044,32.321,31.184,31.06,31.329z M40.302,30.742
		c-1.543,0-2.96,0.052-4.288,0.135c-0.218-0.262-0.721-0.897-1.029-1.539c-0.231-0.485-0.396-1.013-0.496-1.375
		c0.951-0.057,1.968-0.099,3.029-0.13c0.812,1.236,1.828,2.251,3.054,2.913C40.482,30.745,40.391,30.742,40.302,30.742z
		 M73.834,33.148c-2.719,2.442-6.852,3.813-11.947,3.959c-11.016,0.347-15.466-6.63-16.547-8.728
		c-0.291-0.565-0.75-1.086-1.154-1.545c-0.404-0.46-0.865-0.983-0.858-1.266c0.007-0.357,0.458-0.946,0.894-1.517
		c0.319-0.417,0.649-0.848,0.917-1.311l0.187-0.325c1.359-2.389,4.972-8.737,15.948-9.057c0.339-0.009,0.671-0.015,0.997-0.015
		c9.426,0,14.939,4.163,15.126,11.421C77.482,28.078,76.25,30.977,73.834,33.148z M42.653,18.844
		c-0.187-2.613-1.338-5.279-3.088-7.227c0.43-0.402,0.916-0.653,1.464-0.684c4.092-0.227,7.151-1.964,10.122-3.65
		c3.412-1.938,6.94-3.943,12.552-3.943c8.554,0,18.085,5.906,18.085,14.381c0,3.299-1.459,6.202-3.73,8.526
		c0.048-0.496,0.074-0.995,0.062-1.504C78.022,21.088,76.291,12.58,62.27,12.58c-0.333,0-0.672,0.006-1.017,0.015
		c-11.371,0.332-15.13,6.939-16.546,9.427l-0.183,0.318c-0.245,0.42-0.56,0.832-0.863,1.229c-0.561,0.732-1.043,1.363-1.057,1.984
		c-0.012,0.596,0.482,1.156,1.054,1.804c0.394,0.449,0.802,0.912,1.049,1.391c0.049,0.094,0.112,0.209,0.175,0.323
		c-0.384-0.025-0.767-0.052-1.175-0.07c-1.472-0.064-2.668-0.769-3.611-1.852C41.9,24.792,42.858,21.718,42.653,18.844z
		 M39.625,26.546c-1.365-1.937-2.073-4.743-2.155-7.411c-0.082-2.658,0.489-5.411,1.604-6.956c1.6,1.802,2.689,4.333,2.86,6.722
		C42.122,21.537,41.257,24.355,39.625,26.546z M77.384,29.181c0.208-0.564,0.381-1.142,0.5-1.738
		c2.791-2.558,4.624-5.888,4.624-9.72c0-8.926-9.912-15.147-18.807-15.147c-5.792,0-9.401,2.051-12.902,4.04
		c-2.89,1.64-5.878,3.336-9.809,3.554c-0.827,0.047-1.531,0.455-2.119,1.1c-0.028,0.017-0.058,0.032-0.08,0.057
		c-0.023,0.025-0.037,0.056-0.052,0.085c-1.407,1.678-2.081,4.797-1.99,7.75c0.091,2.965,0.931,6.088,2.553,8.175
		c0.021,0.046,0.05,0.086,0.088,0.123c0.003,0.003,0.007,0.003,0.011,0.006c1.083,1.339,2.501,2.225,4.276,2.302
		c0.588,0.026,1.143,0.063,1.683,0.104c0.221,0.344,0.48,0.721,0.787,1.123c-0.788-0.074-1.611-0.136-2.51-0.177
		c-5.172-0.227-7.71-6.184-7.878-11.621c-0.15-4.857,1.582-9.877,5.181-10.078c3.713-0.206,6.478-1.776,9.402-3.438
		c3.6-2.045,7.322-4.158,13.359-4.158c9.362,0,19.797,6.653,19.797,16.2C83.499,22.377,81.012,26.337,77.384,29.181z"/>
</g>
<rect x="11.41" y="49.42" fill="none" width="68.182" height="13.061"/>
<text transform="matrix(1 0 0 1 12.4104 59.8076)" font-family="'Montserrat-UltraLight'" font-size="13">PEANUTS</text>
</svg>
