<?xml version="1.0" encoding="utf-8"?>
<!-- Generator: Adobe Illustrator 16.0.0, SVG Export Plug-In . SVG Version: 6.00 Build 0)  -->
<!DOCTYPE svg PUBLIC "-//W3C//DTD SVG 1.1//EN" "http://www.w3.org/Graphics/SVG/1.1/DTD/svg11.dtd">
<svg version="1.1" id="Layer_1" xmlns="http://www.w3.org/2000/svg" xmlns:xlink="http://www.w3.org/1999/xlink" x="0px" y="0px"
	 width="191.444px" height="73.262px" viewBox="0 0 191.444 73.262" enable-background="new 0 0 191.444 73.262"
	 xml:space="preserve">
<g>
	<defs>
		<rect id="SVGID_1_" x="-5.161" y="-3.792" width="200.293" height="82"/>
	</defs>
	<clipPath id="SVGID_2_">
		<use xlink:href="#SVGID_1_"  overflow="visible"/>
	</clipPath>
	
		<rect x="-4.536" y="-3.167" clip-path="url(#SVGID_2_)" fill="none" stroke="#FFFFFF" stroke-width="1.25" width="199.043" height="80.75"/>
</g>
<path fill="none" stroke="#FFFFFF" d="M45.723,9.603V6.352h-10.9v12.953h11.066v-3.25h-6.803v-1.61h6.031v-3.251h-6.031V9.603
	H45.723z M33.35,19.305V6.352h-4.263v5.027h-3.992V6.352h-4.264v12.953h4.264V14.63h3.992v4.675H33.35z M19.888,9.732v-3.38H8.289
	v3.38h3.659v9.573h4.263V9.732H19.888z"/>
<g>
	<defs>
		<rect id="SVGID_3_" x="-5.161" y="-3.792" width="200.293" height="82"/>
	</defs>
	<clipPath id="SVGID_4_">
		<use xlink:href="#SVGID_3_"  overflow="visible"/>
	</clipPath>
	<path clip-path="url(#SVGID_4_)" fill="none" stroke="#FFFFFF" stroke-width="1.25" d="M181.478,35.821V24.685h-38.332v11.136
		h12.089v31.523h14.093V35.821H181.478z M120.263,24.076c-11.058,0-18.226,5.356-18.226,13.875
		c0,14.972,22.052,11.319,22.052,16.857c0,1.521-1.336,2.19-3.401,2.19c-4.313,0-11.847-2.981-16.22-6.633l-5.226,10.588
		c5.649,4.321,13.912,6.816,21.323,6.816c9.599,0,17.921-4.199,17.921-13.692c0-15.457-22.052-12.109-22.052-17.465
		c0-1.278,1.033-1.765,2.613-1.765c3.705,0,10.326,2.616,14.64,4.99l5.103-10.712C133.992,26.084,127.005,24.076,120.263,24.076z
		 M73.633,36.003c4.86,0,8.748,4.199,8.748,10.041c0,5.843-3.888,10.163-8.748,10.163s-9.113-4.32-9.113-10.163
		C64.52,40.203,68.712,36.003,73.633,36.003z M73.45,24.259c-13.547,0-23.388,9.066-23.388,21.725
		c0,12.719,9.841,21.969,23.388,21.969s23.39-9.311,23.39-21.969C96.839,33.387,86.997,24.259,73.45,24.259z M23.285,35.395h5.163
		c3.038,0,4.8,1.826,4.8,4.991c0,3.286-1.762,5.172-4.8,5.172h-5.163V35.395z M9.191,24.685v42.659h14.094V56.269h5.892
		c11.057,0,17.435-5.964,17.435-16.31c0-9.736-6.378-15.274-17.435-15.274H9.191z"/>
</g>
<g>
	<defs>
		<rect id="SVGID_5_" x="-5.161" y="-3.792" width="200.293" height="82"/>
	</defs>
	<clipPath id="SVGID_6_">
		<use xlink:href="#SVGID_5_"  overflow="visible"/>
	</clipPath>
	
		<rect x="-4.536" y="-3.167" clip-path="url(#SVGID_6_)" fill="none" stroke="#FFFFFF" stroke-width="1.25" width="199.043" height="80.75"/>
</g>
<path fill="none" stroke="#FFFFFF" d="M45.723,9.603V6.352h-10.9v12.953h11.066v-3.25h-6.803v-1.61h6.031v-3.251h-6.031V9.603
	H45.723z M33.35,19.305V6.352h-4.263v5.027h-3.992V6.352h-4.264v12.953h4.264V14.63h3.992v4.675H33.35z M19.888,9.732v-3.38H8.289
	v3.38h3.659v9.573h4.263V9.732H19.888z"/>
<g>
	<defs>
		<rect id="SVGID_7_" x="-5.161" y="-3.792" width="200.293" height="82"/>
	</defs>
	<clipPath id="SVGID_8_">
		<use xlink:href="#SVGID_7_"  overflow="visible"/>
	</clipPath>
	<path clip-path="url(#SVGID_8_)" fill="none" stroke="#FFFFFF" stroke-width="1.25" d="M181.478,35.821V24.685h-38.332v11.136
		h12.089v31.523h14.093V35.821H181.478z M120.263,24.076c-11.058,0-18.226,5.356-18.226,13.875
		c0,14.972,22.052,11.319,22.052,16.857c0,1.521-1.336,2.19-3.401,2.19c-4.313,0-11.847-2.981-16.22-6.633l-5.226,10.588
		c5.649,4.321,13.912,6.816,21.323,6.816c9.599,0,17.921-4.199,17.921-13.692c0-15.457-22.052-12.109-22.052-17.465
		c0-1.278,1.033-1.765,2.613-1.765c3.705,0,10.326,2.616,14.64,4.99l5.103-10.712C133.992,26.084,127.005,24.076,120.263,24.076z
		 M73.633,36.003c4.86,0,8.748,4.199,8.748,10.041c0,5.843-3.888,10.163-8.748,10.163s-9.113-4.32-9.113-10.163
		C64.52,40.203,68.712,36.003,73.633,36.003z M73.45,24.259c-13.547,0-23.388,9.066-23.388,21.725
		c0,12.719,9.841,21.969,23.388,21.969s23.39-9.311,23.39-21.969C96.839,33.387,86.997,24.259,73.45,24.259z M23.285,35.395h5.163
		c3.038,0,4.8,1.826,4.8,4.991c0,3.286-1.762,5.172-4.8,5.172h-5.163V35.395z M9.191,24.685v42.659h14.094V56.269h5.892
		c11.057,0,17.435-5.964,17.435-16.31c0-9.736-6.378-15.274-17.435-15.274H9.191z"/>
</g>
</svg>
