<?xml version="1.0" encoding="utf-8"?>
<!-- Generator: Adobe Illustrator 16.0.0, SVG Export Plug-In . SVG Version: 6.00 Build 0)  -->
<!DOCTYPE svg PUBLIC "-//W3C//DTD SVG 1.1//EN" "http://www.w3.org/Graphics/SVG/1.1/DTD/svg11.dtd">
<svg version="1.1" id="Layer_1" xmlns="http://www.w3.org/2000/svg" xmlns:xlink="http://www.w3.org/1999/xlink" x="0px" y="0px"
	 width="75.468px" height="81.455px" viewBox="0 0 75.468 81.455" enable-background="new 0 0 75.468 81.455" xml:space="preserve">
<g>
	<path d="M54.183,15.159c-1.391-4.078-3.604-6.544-6.584-7.336c-1.604-1.217-4.002-1.791-5.758-2.21
		c-0.99-0.237-2.014-0.482-2.237-0.72c-0.185-0.194-0.323-0.452-0.472-0.724c-0.389-0.711-0.869-1.597-2.376-1.597
		c-1.506,0-1.988,0.886-2.376,1.598c-0.148,0.272-0.289,0.53-0.472,0.724c-0.223,0.236-1.246,0.481-2.235,0.717
		c-1.756,0.42-4.154,0.993-5.76,2.212c-2.979,0.792-5.194,3.258-6.583,7.336c-1.993,2.974-3.003,7.623-3.003,13.823
		c0,6.199,1.011,10.849,3.003,13.824c1.39,4.075,3.604,6.543,6.583,7.334c1.605,1.219,4.001,1.793,5.757,2.211
		c0.991,0.236,2.015,0.481,2.239,0.719c0.183,0.195,0.323,0.453,0.472,0.725c0.387,0.713,0.87,1.6,2.375,1.6
		c1.506,0,1.988-0.887,2.376-1.6c0.147-0.271,0.287-0.529,0.472-0.725c0.224-0.236,1.247-0.481,2.237-0.717
		c1.757-0.42,4.152-0.994,5.758-2.213c2.979-0.791,5.193-3.259,6.584-7.334c1.992-2.975,3.004-7.625,3.004-13.824
		C57.187,22.782,56.175,18.132,54.183,15.159z M56.513,30.396c-0.751-0.422-2.299-1.719-2.299-5.247v-8.661
		c1.539,2.874,2.318,7.065,2.318,12.493C56.535,29.465,56.525,29.933,56.513,30.396z M53.068,32.36
		c-0.451-0.985-0.843-1.836-0.843-3.378c0-2.72,0.849-3.562,1.337-3.824c0.003,4.332,2.18,5.636,2.928,5.956
		c-0.182,4.403-0.943,7.875-2.275,10.361V37.56C54.214,34.855,53.606,33.53,53.068,32.36z M47.125,8.294v6.26
		c0,3.096,0.656,4.508,1.291,5.872c0.65,1.399,1.322,2.846,1.322,6.26c0,5.591-3.002,9.415-3.938,10.47
		c-0.002-0.004-0.004-0.008-0.006-0.011c-0.832-1.603-1.615-3.117-1.615-6.251v-7.368c0-7.627-3.521-9.137-4.299-9.378
		c0.024-0.17,0.053-0.334,0.078-0.497c0.125-0.757,0.242-1.472,0.242-2.754c0-1.911-0.269-4.104-0.418-5.174
		c0.471,0.18,1.12,0.336,1.905,0.525C43.362,6.648,45.628,7.195,47.125,8.294z M31.825,6.247c0.787-0.188,1.438-0.345,1.907-0.524
		c-0.131,1.003-0.357,3.018-0.357,5.01c0,1.366,0.104,2.088,0.212,2.854c0.114,0.8,0.232,1.628,0.232,3.314
		c0,1.563-0.234,2.834-0.482,4.181c-0.265,1.438-0.539,2.925-0.539,4.86c0,1.741,0.223,3.134,0.458,4.611
		c0.276,1.732,0.562,3.522,0.562,6.166c0,2.574-0.183,4.456-0.345,6.116c-0.1,1.03-0.195,2.018-0.234,3.053
		c-0.981-0.601-3.256-2.434-3.256-6.559V29.142c0-2.814-0.768-4.283-1.581-5.839c-0.946-1.809-2.019-3.86-2.019-8.623V8.294
		C27.884,7.195,30.152,6.646,31.825,6.247z M17.024,26.849c0.182-4.403,0.945-7.875,2.275-10.359v2.27
		c0,1.746,0.509,3.195,1.001,4.596c0.485,1.382,0.987,2.81,0.987,4.525c0,2.343-0.93,3.151-1.441,3.419
		C19.41,28.164,17.676,27.128,17.024,26.849z M17.001,27.563c0.753,0.415,2.297,1.695,2.297,5.25v8.661
		c-1.538-2.875-2.318-7.064-2.318-12.492C16.98,28.499,16.989,28.028,17.001,27.563z M19.952,42.603v-9.789
		c0-0.292-0.012-0.566-0.031-0.832c0.621-0.244,2.02-1.121,2.02-4.101c0-1.826-0.521-3.309-1.024-4.743
		c-0.497-1.41-0.965-2.744-0.965-4.379v-3.397c1.258-3.688,3.203-5.972,5.781-6.801v6.12c0,3.573,0.586,5.67,1.282,7.27
		c-0.504,0.397-3.895,3.276-3.895,9.248c0,3.182,0.679,4.743,1.336,6.251c0.657,1.51,1.277,2.936,1.277,5.962v5.993
		C23.155,48.573,21.21,46.289,19.952,42.603z M26.386,49.67v-6.259c0-3.163-0.676-4.719-1.331-6.223
		c-0.659-1.515-1.281-2.944-1.281-5.991c0-5.229,2.804-8.004,3.523-8.63c0.176,0.364,0.354,0.706,0.528,1.039
		c0.809,1.545,1.507,2.881,1.507,5.535v10.187c0,4.874,3.076,6.856,3.894,7.297c0,0.069-0.004,0.138-0.004,0.209
		c0,1.224,0.352,4.114,0.518,5.409c-0.47-0.182-1.125-0.34-1.916-0.529C30.15,51.315,27.883,50.769,26.386,49.67z M34.955,53.481
		c-0.143-0.263-0.297-0.524-0.495-0.76c-0.079-0.594-0.585-4.475-0.585-5.888c0-1.36,0.116-2.554,0.251-3.938
		c0.164-1.673,0.348-3.571,0.348-6.179c0-2.694-0.303-4.593-0.57-6.269c-0.231-1.45-0.45-2.819-0.45-4.508
		c0-1.875,0.269-3.333,0.527-4.741c0.253-1.377,0.493-2.676,0.493-4.3c0-1.732-0.121-2.583-0.238-3.406
		c-0.105-0.742-0.206-1.442-0.206-2.762c0-2.499,0.362-5.04,0.429-5.488c0.198-0.236,0.354-0.5,0.496-0.762
		c0.329-0.603,0.621-1.129,1.476-1.235v51.468C35.575,54.61,35.282,54.084,34.955,53.481z M37.083,54.716V3.248
		c0.855,0.106,1.147,0.632,1.476,1.234c0.144,0.262,0.298,0.527,0.496,0.763c0.073,0.474,0.493,3.291,0.493,5.653
		c0,1.229-0.112,1.918-0.232,2.648c-0.136,0.827-0.275,1.681-0.275,3.355c0,1.431,0.209,3.111,0.433,4.889
		c0.274,2.203,0.587,4.699,0.587,7.333c0,1.854-0.264,3.789-0.518,5.662c-0.246,1.816-0.502,3.693-0.502,5.441
		c0,2.458,0.184,3.587,0.344,4.582c0.138,0.838,0.255,1.562,0.255,2.93c0,1.4-0.5,4.481-0.582,4.98
		c-0.199,0.234-0.354,0.5-0.497,0.766C38.23,54.085,37.938,54.61,37.083,54.716z M41.69,51.717c-0.78,0.187-1.426,0.341-1.894,0.521
		c0.172-1.109,0.494-3.323,0.494-4.498c0-1.422-0.127-2.205-0.262-3.035c-0.158-0.971-0.337-2.069-0.337-4.477
		c0-1.703,0.241-3.476,0.496-5.353c0.258-1.893,0.524-3.851,0.524-5.75c0-2.675-0.315-5.193-0.594-7.414
		c-0.22-1.759-0.428-3.418-0.428-4.809c0-0.898,0.042-1.548,0.102-2.091c0.789,0.299,3.732,1.869,3.732,8.716v7.368
		c0,3.294,0.82,4.876,1.688,6.551c0.938,1.812,1.91,3.686,1.91,8.074v4.15C45.628,50.769,43.362,51.315,41.69,51.717z
		 M47.779,49.403v-3.883c0-4.041-0.796-6.027-1.658-7.739c0.758-0.796,4.272-4.828,4.272-11.094c0-3.559-0.703-5.072-1.384-6.536
		c-0.633-1.36-1.23-2.644-1.23-5.596V8.561c2.579,0.83,4.523,3.114,5.782,6.801v9.087c-0.634,0.194-1.989,1.017-1.989,4.533
		c0,1.685,0.438,2.641,0.903,3.651c0.534,1.163,1.086,2.365,1.086,4.926v5.042C52.302,46.289,50.358,48.573,47.779,49.403z"/>
</g>
<rect y="65.021" fill="none" width="74.476" height="16.435"/>
<text transform="matrix(1 0 0 1 2.1572 74.667)" font-family="'Montserrat-UltraLight'" font-size="13">TREE NUTS</text>
</svg>
