<svg id="Layer_1" data-name="Layer 1" xmlns="http://www.w3.org/2000/svg" viewBox="0 0 166 147"><defs><style>.cls-1{fill:#fff;}.cls-2{fill:#ec5915;}</style></defs><title>basket</title><path class="cls-1" d="M50,79.56a2.3,2.3,0,0,1-2-1.22L12.67,12.72l3.72-2L45.6,65,35.25,13.66a2.27,2.27,0,0,1,4.3-1.38L64,66.8,60.05,12a2.13,2.13,0,0,1,4.16-.78l20.7,66.69-4,1.25L65.55,29.79l3.33,46.89a2.41,2.41,0,0,1-4.61,1.16L42.84,30l9.43,46.83a2.32,2.32,0,0,1-1.49,2.64A2.44,2.44,0,0,1,50,79.56ZM60.18,12.49h0Z"/><circle class="cls-1" cx="50.14" cy="79.55" r="4.11"/><circle class="cls-1" cx="66.13" cy="79.55" r="4.11"/><circle class="cls-1" cx="83" cy="79.55" r="4.11"/><path class="cls-1" d="M50.24,148a2.45,2.45,0,0,1-1-.2,2.42,2.42,0,0,1-1.48-2.23V73.88L86,114.15,51.93,147.31A2.42,2.42,0,0,1,50.24,148Zm2-63V140.8L79.77,114Z"/><path class="cls-1" d="M116.05,80.22a2.2,2.2,0,0,1-.79-.14,2.3,2.3,0,0,1-1.49-2.63l9.43-46.83L101.77,78.5a2.42,2.42,0,0,1-4.62-1.15l3.34-46.89L85.16,79.85l-4-1.25,20.7-66.69a2.13,2.13,0,0,1,4.16.78l-3.9,54.77L126.49,13a2.26,2.26,0,0,1,4.29,1.37L120.44,65.7l29.21-54.32,3.71,2L118.08,79A2.31,2.31,0,0,1,116.05,80.22ZM105.86,13.15h0Z"/><circle class="cls-1" cx="115.9" cy="80.22" r="4.11"/><circle class="cls-1" cx="99.91" cy="80.22" r="4.11"/><circle class="cls-1" cx="83.04" cy="80.22" r="4.11"/><path class="cls-1" d="M115.27,147.57a2.76,2.76,0,0,1-1.91-.77L79.8,114.15,118,73.88v71a2.73,2.73,0,0,1-1.67,2.52A2.7,2.7,0,0,1,115.27,147.57ZM86,114l27.53,26.78V85Z"/><path class="cls-1" d="M82.89,148h0a2.39,2.39,0,0,1-1.67-.7l-6.41-6.5-6.15,6a3.32,3.32,0,0,1-4.63,0l-14.64-14.5a3.36,3.36,0,0,1,0-4.78l6.25-6.1-7.07-7.16a2.37,2.37,0,0,1-.67-1.65V95.82a2.32,2.32,0,0,1,.66-1.63l15.87-16.1a2.36,2.36,0,0,1,1.72-.7,2.33,2.33,0,0,1,1.69.77l6.39,7.08L81.42,78l1.49,1.47L84.39,78l7.17,7.25L98,78.16a2.35,2.35,0,0,1,1.68-.77,2.31,2.31,0,0,1,1.72.7l15.86,16.09a2.3,2.3,0,0,1,.68,1.64v16.77a2.33,2.33,0,0,1-.67,1.64l-7.07,7.16,6.39,6.25a3.16,3.16,0,0,1,0,4.5l-15,14.9a3,3,0,0,1-4.1,0L91,140.8l-6.43,6.51A2.35,2.35,0,0,1,82.89,148ZM53.3,129.91l13.06,12.93,5.33-5.19L58.77,124.56Zm40.81,7.73,5.34,5.2,13.06-12.93L107,124.55ZM78,137.71l4.89,5,4.92-5-4.9-4.76ZM62,121.45l12.93,13.1L79.6,130l-13.16-12.9ZM86.21,130l4.72,4.58,12.93-13.09-4.49-4.39Zm-5.07,1.5Zm3.53-3h0ZM69.62,114l13.29,13L96.2,114,82.91,101ZM53.31,112.7l5.52,5.59L63.27,114l-5.69-5.56ZM102.55,114l4.43,4.34,5.52-5.59-4.27-4.31Zm-41.84-8.72,5.73,5.62,13.26-13L74.11,91.7Zm25.4-7.34,13.26,13,5.74-5.62L91.71,91.7Zm25.29,7.39,2.06,2.07v-4.08Zm-59-2v4.08l2-2.07Zm0-6.22,5.18,5.07L71.12,88.4l-5.06-5.61L52.36,96.68ZM94.69,88.4l13.59,13.72,5.18-5.07v-.37L99.76,82.79Zm-9.93,11ZM77.24,88.54l5.67,6.27,5.67-6.27-5.67-5.73ZM67.62,81.2h0Z"/><rect class="cls-2" x="-0.16" y="-0.05" width="166.1" height="12.88" rx="6.44" ry="6.44"/></svg>