<?xml version="1.0" encoding="utf-8"?>
<!-- Generator: Adobe Illustrator 16.0.0, SVG Export Plug-In . SVG Version: 6.00 Build 0)  -->
<!DOCTYPE svg PUBLIC "-//W3C//DTD SVG 1.1//EN" "http://www.w3.org/Graphics/SVG/1.1/DTD/svg11.dtd">
<svg version="1.1" id="Layer_1" xmlns="http://www.w3.org/2000/svg" xmlns:xlink="http://www.w3.org/1999/xlink" x="0px" y="0px"
	 width="110px" height="214px" viewBox="0 0 110 214" enable-background="new 0 0 110 214" xml:space="preserve">
<path fill="#FFFFFF" d="M109.545,127.049c-1.14-1.125-2.45-2.359-2.3-4.218c0.34-4.188-0.994-7.928-2.658-11.685
	c-0.735-1.661-0.699-3.683-0.899-5.553c-0.117-1.098,0.143-2.246-0.035-3.327c-0.416-2.541-1.306-5.04-1.438-7.585
	c-0.23-4.437-0.01-8.896-0.029-13.345c-0.008-1.942-0.153-3.882,1.532-5.332c0.186-0.161,0.36-0.474,0.347-0.704
	c-0.167-2.892,0.626-5.814-0.801-8.668c-1.326-2.651-2.286-5.452-2.519-8.522c-0.125-1.659-0.951-3.383-1.849-4.839
	c-1.531-2.482-3.393-4.76-5.056-7.166c-0.347-0.5-0.51-1.166-0.622-1.78c-0.269-1.46-0.346-2.963-0.705-4.397
	c-0.489-1.95-0.725-4.182-1.856-5.71c-2.676-3.614-5.821-6.881-8.766-10.298c-0.519-0.602-0.956-1.272-1.476-1.873
	c-1.564-1.808-3.146-3.603-4.731-5.392c-0.413-0.466-0.95-0.838-1.291-1.347c-1.301-1.938-2.206-4.183-4.454-5.353
	c-0.386-0.201-0.562-0.77-0.906-1.092c-1.64-1.534-2.361-3.873-4.73-4.812c-3.61-1.432-7.395-0.936-11.085-1.232
	c-3.209-0.258-6.483,0.415-9.726,0.383c-5.42-0.051-10.174,1.41-14.063,5.319C29,8.953,28.391,9.213,27.847,9.521
	c-0.996,0.562-2.144,0.941-2.981,1.678c-1.708,1.502-3.2,3.247-4.887,4.776c-0.672,0.609-1.58,1.036-2.454,1.327
	c-1.397,0.464-2.316,1.25-2.567,2.739c-0.229,1.366-0.51,2.724-0.712,4.093c-0.219,1.484-1.168,1.965-2.523,2.24
	c-0.927,0.188-1.929,0.623-2.619,1.253c-2.031,1.854-2.352,4.176-1.447,6.731c0.782,2.208,0.271,3.894-1.479,5.097
	c-2.408,1.654-2.479,2.67-0.623,4.992c0.556,0.696,0.81,1.682,1.039,2.577c0.234,0.917,0.382,1.886,0.362,2.829
	c-0.025,1.145,0.098,2.542-0.49,3.371c-1.108,1.563-1.678,3.156-1.746,5.018c-0.042,1.173-0.374,2.149-1.611,2.713
	c-0.578,0.263-1.33,0.952-1.354,1.479c-0.108,2.301-0.625,4.604,0.525,6.9c1.031,2.054,1.629,4.326,2.41,6.504
	c0.053,0.146,0.058,0.321,0.041,0.478c-0.193,1.8,0.604,3.171,1.77,4.458c1.209,1.335,1.821,2.82,0.987,4.687
	c-0.502,1.125-0.396,2.378,0.648,3.235c1.484,1.219,1.783,2.775,1.79,4.587c0.003,0.855,0.583,1.713,0.92,2.562
	c0.521,1.309,1.48,2.604,1.501,3.916c0.041,2.637-0.514,5.278-0.653,7.926c-0.095,1.816-0.022,3.663,0.203,5.468
	c0.138,1.111,0.706,2.169,1.075,3.253c0.268,0.786,0.631,1.559,0.766,2.368c0.267,1.615,0.359,3.259,0.607,4.878
	c0.606,3.945,4.033,5.731,6.443,8.291c0.096,0.102,0.295,0.111,0.448,0.155c1.66,0.476,3.319,0.949,5.15,1.472
	c0.233-0.664,0.497-1.579,0.883-2.439c0.169-0.376,0.572-0.889,0.899-0.912c1.886-0.133,2.538-1.376,3.177-2.914
	c0.383-0.922,1.243-1.722,2.057-2.362c0.657-0.517,1.565-0.715,2.362-1.056c-0.35-0.785-0.614-1.623-1.064-2.344
	c-1.169-1.872-1.457-3.831-0.938-6.374c0.618,1.223,1.042,2.061,1.464,2.899c0.7,1.39,0.8,1.415,2.212,0.559
	c-1.682-3.744-0.99-3.946-0.293-6.901c0.115-0.487,0.368-1.012,0.277-1.463c-0.281-1.398-0.124-2.521,1.682-3.045
	c-0.475-0.185-0.661-0.309-0.857-0.325c-1.797-0.147-3.611-0.174-5.393-0.428c-4.986-0.712-7.875-3.822-9.538-8.398
	c-0.688-1.894-1.622-3.709-2.572-5.493c-1.271-2.386-2.674-4.7-3.998-7.059c-0.151-0.269-0.15-0.622-0.223-0.935
	c-0.719-3.108-1.591-6.191-2.108-9.333c-0.378-2.308-0.514-4.71-0.328-7.036c0.115-1.429,1.041-2.793,1.59-4.158
	c2.885,0.604,3.797,0.254,3.76-1.269c0.674-0.404,1.316-0.788,2.12-1.269c-0.749-0.472-1.227-0.774-1.713-1.081
	c1.046-1.366,1.395-1.573,2.928-1.987c0.982-0.265,2.06-0.485,1.773-2.123c1.067,0.093,1.979,0.075,2.826,0.302
	c0.286,0.077,0.646,0.843,0.554,1.178c-0.264,0.957-0.712,1.871-1.163,2.764c-0.104,0.206-0.545,0.418-0.764,0.362
	c-1.377-0.352-1.63,0.609-1.948,1.45c0.323,0.445,0.835,0.825,0.817,1.177c-0.111,2.104-0.347,4.201-0.535,6.301
	c-0.048,0.548-0.077,1.099-0.112,1.607c1.427-1.11,2.754-2.143,4.083-3.176c0.455,0.163,0.984,0.354,1.479,0.531
	c0.186-2.478,0.353-4.703,0.52-6.928c0.353-3.774,0.743-7.699-2.032-10.737c-0.599,0.142-1.262,0.533-1.601,0.343
	c-2.418-1.353-4.99-1.458-7.651-1.27c-0.392,0.027-1.034-0.328-1.181-0.669c-0.283-0.656-0.293-1.429-0.455-2.375
	c1.681,0.094,3.354-0.003,4.935,0.333c1.513,0.322,2.931,1.095,4.737,1.806c-1.456-3.527-4.891-3.946-7.236-5.596
	c1.026-1.78,1.943-3.364,2.855-4.952c0.977-1.701,1.946-3.406,2.927-5.104c0.628-1.088,1.272-2.167,2.007-3.417
	c-0.007-0.007-0.249-0.273-0.537-0.588c1.149-0.372,2.157-0.652,3.124-1.036c0.339-0.134,0.829-0.537,0.817-0.795
	c-0.059-1.213,0.673-1.355,1.551-1.254c1.123,0.13,1.939-0.009,1.577-1.551c1.395,0.15,2.605,0.267,3.509-0.925
	c0.189-0.25,0.966-0.105,1.465-0.06c0.731,0.065,1.453,0.267,2.184,0.298c1.206,0.052,2.416,0.014,3.609,0.014
	c0.04,0.529,0.069,0.925,0.09,1.205c0.752,0.21,1.402,0.292,1.957,0.568c0.896,0.444,1.721,1.032,2.593,1.527
	c2.381,1.354,4.772,2.691,7.158,4.038c0.092,0.051,0.246,0.143,0.239,0.197c-0.209,1.471,1.097,1.433,1.787,1.968
	c0.123,0.559,0.471,0.989,0.625,1.479c0.336,1.067,0.846,2.163-0.226,3.172c-1.235,1.164-3.32,1.438-5.359,0.369
	c0.153,1.229,0.274,2.198,0.402,3.227c-1.236-0.225-2.259-0.412-3.324-0.606c0.047,1.076-0.069,1.868,0.154,2.549
	c0.221,0.672,0.65,1.548,1.22,1.79c3.147,1.337,6.041,2.781,8.394,5.541c1.814,2.131,1.998,4.541,2.749,6.887
	c0.302,0.94,0.477,1.927,0.632,2.905c0.385,2.43,2.648,4.229,2.3,6.895c-0.096,0.726-0.283,1.441-0.345,2.169
	c-0.181,2.118-1.071,4.487,1.92,5.365c-0.364,0.703-0.786,1.162-0.83,1.655c-0.441,4.971-0.888,9.942-4.28,13.989
	c-1.743,2.08-3.597,4.067-5.412,6.086c-0.775,0.863-1.581,1.698-2.373,2.546c1.844-0.3,2.988-2.892,5.136-0.949
	c0.486-0.743,0.888-1.356,1.29-1.971c0.177,0.009,0.354,0.018,0.53,0.028c0.077,1.256,0.606,2.722,0.141,3.726
	c-1.184,2.545-1.194,5.546-3.332,7.775c-0.757,0.788-1.274,2.234-0.96,3.825c0.345,1.746-0.07,3.641-0.13,5.471
	c-0.045,1.376-0.04,2.754-0.078,4.13c-0.032,1.16-0.062,2.323-0.155,3.48c-0.039,0.497-0.197,1.39-0.374,1.408
	c-1.988,0.211-1.761,1.848-2.084,3.099c-0.341,1.322-0.437,2.73-0.932,3.985c-0.839,2.121-1.952,4.133-2.862,6.229
	c-0.422,0.972-0.528,2.083-0.971,3.043c-0.766,1.661-0.703,1.975,1.149,2.948c-0.28,0.44-0.558,0.876-0.88,1.381
	c-0.346-0.289-0.588-0.492-0.781-0.651c-0.616,1.583-1.202,3.087-1.787,4.59c-0.175-0.027-0.35-0.054-0.525-0.081
	c-0.425-3.368-2.461-6.601-0.591-10.172c-1.481-0.726-1.998-2.672-1.392-4.908c0.765-0.174,1.822-0.118,2.038-0.518
	c0.805-1.49,2.19-2.499,2.167-4.703c-0.031-2.946-0.04-5.815-0.741-8.691c-0.421-1.727-1.777-3.299-0.971-5.271
	c0.055-0.135-0.259-0.438-0.427-0.642c-0.639-0.779-1.289-1.552-2.085-2.507c-0.964,1.473-1.476,2.748-2.403,3.533
	c-0.911,0.771-0.452,1.061,0.171,1.125c1.305,0.136,1.437,0.956,1.369,1.925c-0.223,3.197-0.177,6.453-0.807,9.572
	c-0.846,4.188,0.29,8.207,0.507,12.285c0.229,4.297,1.105,8.563,1.78,12.83c0.567,3.584,1.276,7.146,1.873,10.726
	c0.224,1.348,0.321,2.716,0.447,4.077c0.135,1.458,0.108,2.85,1.888,3.588c2.04,0.845,3.896,2.121,5.899,3.068
	c1.912,0.904,3.911,1.625,5.932,2.451c0.577-2.17,0.687-4.354,3.497-4.8v3.084c0.167,0.066,0.334,0.133,0.502,0.198
	c1.099-3.451,1.492-7.356,5.39-9.165c0.266,0.921,0.298,1.904,0.801,2.475c0.346,0.393,1.342,0.215,2.003,0.286
	c-1.891,3.359-2.091,4.143-1.162,5.066c0.188-0.354,0.356-0.672,0.525-0.989c0.11,0.073,0.221,0.146,0.332,0.219
	c-0.347,0.513-0.724,1.01-1.031,1.546c-0.229,0.398-0.547,0.864-0.512,1.272c0.097,1.11,0.121,2.333,0.623,3.271
	c0.527,0.986,0.044,1.335-0.363,2.048c-0.397,0.696-0.706,2.122-0.347,2.447c1.237,1.118,0.748,2.437,0.874,3.684
	c0.188,1.851-0.167,3.798,1.196,5.882c0.784-1.582,1.447-2.919,2.11-4.256c-0.275,2.791,1.045,5.074,2.117,7.406
	c0.321,0.698,0.933,1.264,1.41,1.89c0.068-0.064,0.136-0.13,0.203-0.194c0.132,0.774,0.262,1.55,0.425,2.513
	c-0.064,0.138-0.262,0.558-0.593,1.265c0.839-0.202,1.283-0.309,1.84-0.443c1.236,2.896-0.77,6.279,1.428,9.347
	c0.106-0.883,0.223-1.393,0.219-1.902c-0.017-2.132-0.169-4.269-0.064-6.394c0.051-1.033-0.127-2.408,1.521-2.884
	c0.154,0.776,0.287,1.447,0.42,2.118c0.141,0.016,0.283,0.031,0.424,0.047c0.25-1.057,0.474-2.121,0.766-3.166
	c0.089-0.32,0.356-0.824,0.554-0.829c0.35-0.01,0.908,0.22,1.015,0.492c0.181,0.454,0.03,1.027,0.1,1.54
	c0.072,0.537,0.161,1.099,0.389,1.582c0.254,0.538,0.875,0.959,0.982,1.5c0.359,1.823,0.524,3.683,0.849,5.514
	c0.094,0.529,0.472,1.008,0.902,1.879c0.443-1.579,0.726-2.583,1.008-3.587"/>
<path fill="#FFFFFF" d="M92.38,209.081c0.143,0.01,0.285,0.02,0.428,0.029c0.229,0.677,0.457,1.354,0.816,2.42
	c0.581-1.929-1.159-4.127,1.608-4.796c-0.577-1.314-1.392-2.577-1.668-3.948c-0.37-1.837-0.886-3.789,0.318-5.599
	c0.169-0.254,0.217-0.925,0.146-0.953c-1.08-0.419-0.321-0.788-0.008-1.188c1.327-1.69,2.202-3.579,2.732-5.678
	c0.33-1.308,0.941-2.551,1.498-3.791c0.297-0.663,0.767-1.247,1.115-1.89c0.199-0.369,0.28-0.801,0.469-1.178
	c0.54-1.083,1.175-2.125,1.644-3.239c0.417-0.991,0.661-2.057,1.006-3.167c0.227,0.072,0.604,0.193,1.205,0.385
	c0.077-1.28,0.146-2.411,0.225-3.697c-0.496,0.439-0.814,0.722-1.438,1.274c0.469-2.492,0.858-4.565,1.248-6.64
	c0.154,0.021,0.309,0.043,0.463,0.064c-0.076,1.238-0.152,2.479-0.244,3.971c0.352-0.313,0.484-0.374,0.493-0.449
	c0.05-0.424,0.136-0.858,0.091-1.277c-0.316-2.955,0.104-5.594,2.645-7.607c0.573-0.454,0.894-1.471,0.958-2.26"/>
<path fill="#FFFFFF" d="M22.986,83.02c-0.106,0.034-0.211,0.067-0.316,0.1c0.692,1.973,1.36,3.957,2.109,5.908
	c0.094,0.243,0.606,0.399,0.949,0.461c2.777,0.504,5.557,0.989,8.343,1.444c0.407,0.066,1.104,0.089,1.226-0.123
	c0.991-1.719,2.317-1.081,3.694-0.72c0.517,0.135,1.244,0.047,1.69-0.234c2.698-1.694,5.38-3.419,7.984-5.254
	c0.897-0.632,0.486-1.984-0.66-2.153c-4.592-0.679-9.186-1.4-13.805-1.822c-2.289-0.208-4.405-0.365-6.23-2.002
	c-0.744-0.667-2.054-1.413-2.812-1.177c-1.043,0.324-1.927,1.46-2.628,2.43c-0.263,0.363,0.188,1.234,0.295,1.876
	C22.896,82.173,22.934,82.598,22.986,83.02"/>
<path fill="#FFFFFF" d="M47.917,50.586c-2.632-0.735-4.868,0.606-6.506,3.018c-0.485,0.714-0.512,1.795-0.546,2.716
	c-0.006,0.18,0.92,0.395,1.416,0.594c0.099,0.04,0.249,0.058,0.285,0.13c0.785,1.596,2.225,1.055,3.475,1.047
	c1.994-0.014,4.021-0.329,5.968-0.056c1.49,0.209,2.429-0.699,3.59-1.087c0.413-0.138,0.887-1.628,0.624-2.004
	c-1.53-2.186-2.95-4.686-6.269-4.365C49.423,50.63,48.886,50.586,47.917,50.586"/>
<path fill="#FFFFFF" d="M46.857,66.173c3.195-1.483,6.229-2.892,9.263-4.301c-1.628-0.952-2.945-1.645-4.663-0.665
	c-1.631,0.931-3.579,1.293-5.339,2.023c-0.372,0.154-0.853,0.993-0.733,1.208C45.774,65.133,46.419,65.686,46.857,66.173"/>
<path fill="#FFFFFF" d="M42.229,46.782c1.965-1.978,3.028,0.724,4.583,0.611c-0.222-0.147-0.444-0.294-0.875-0.58
	c0.863-0.25,1.498-0.434,2.324-0.674c-0.936-0.13-1.665-0.231-2.394-0.333c0.003-0.105,0.006-0.21,0.009-0.315
	c0.583-0.18,1.165-0.36,1.748-0.539C45.665,44.966,43.671,44.833,42.229,46.782"/>
<path fill="#FFFFFF" d="M86.267,207.17c0.138-0.009,0.273-0.018,0.41-0.026c0.287,1.229,0.575,2.458,0.932,3.985
	c0.963-2.181-0.739-3.646-0.532-5.395c-0.168-0.022-0.335-0.045-0.502-0.066c-0.459,0.982-0.918,1.966-1.377,2.949
	c0.129,0.06,0.258,0.119,0.387,0.179C85.812,208.254,86.039,207.712,86.267,207.17"/>
<path fill="#FFFFFF" d="M44.195,109.337c-1.59-3.144-1.949-3.339-3.727-2.493C41.557,107.573,42.865,108.447,44.195,109.337"/>
<path fill="#FFFFFF" d="M28.117,75.83c-0.974-0.579-1.693-1.007-2.75-1.635C26.044,76.155,26.412,76.375,28.117,75.83"/>
<path fill="#231F20" d="M108.13,159.868c-0.064,0.789-0.386,1.807-0.958,2.26c-2.54,2.014-2.961,4.652-2.645,7.607
	c0.045,0.419-0.041,0.854-0.091,1.277c-0.009,0.076-0.142,0.136-0.493,0.449c0.092-1.492,0.168-2.731,0.244-3.971
	c-0.154-0.021-0.309-0.043-0.463-0.064c-0.39,2.074-0.779,4.147-1.248,6.64c0.623-0.553,0.941-0.835,1.438-1.274
	c-0.078,1.286-0.147,2.417-0.225,3.697c-0.601-0.191-0.979-0.312-1.205-0.385c-0.345,1.111-0.589,2.176-1.006,3.167
	c-0.469,1.114-1.104,2.156-1.644,3.239c-0.188,0.377-0.27,0.809-0.469,1.178c-0.349,0.643-0.818,1.227-1.115,1.889
	c-0.557,1.241-1.168,2.484-1.498,3.792c-0.53,2.099-1.405,3.987-2.732,5.679c-0.313,0.398-1.072,0.768,0.008,1.187
	c0.071,0.027,0.023,0.699-0.146,0.953c-1.204,1.81-0.688,3.762-0.318,5.599c0.277,1.371,1.091,2.634,1.668,3.948
	c-2.768,0.669-1.027,2.867-1.608,4.795c-0.359-1.065-0.588-1.742-0.816-2.419c-0.143-0.01-0.285-0.02-0.428-0.029"/>
<path fill="#231F20" d="M92.38,209.081c-0.282,1.004-0.564,2.008-1.008,3.587c-0.431-0.871-0.809-1.35-0.902-1.879
	c-0.324-1.831-0.489-3.69-0.849-5.513c-0.107-0.542-0.729-0.963-0.982-1.502c-0.228-0.481-0.316-1.044-0.389-1.581
	c-0.069-0.513,0.081-1.086-0.099-1.54c-0.107-0.272-0.666-0.502-1.016-0.492c-0.197,0.005-0.465,0.509-0.555,0.829
	c-0.291,1.045-0.515,2.109-0.765,3.166c-0.141-0.016-0.283-0.031-0.424-0.047c-0.133-0.671-0.266-1.342-0.42-2.118
	c-1.648,0.476-1.471,1.851-1.521,2.884c-0.104,2.125,0.048,4.262,0.064,6.394c0.004,0.51-0.112,1.02-0.219,1.902
	c-2.197-3.067-0.191-6.451-1.428-9.347c-0.557,0.135-1.001,0.242-1.84,0.444c0.331-0.708,0.528-1.127,0.593-1.266
	c-0.163-0.963-0.293-1.738-0.425-2.513c-0.067,0.064-0.135,0.13-0.203,0.194c-0.478-0.626-1.089-1.191-1.409-1.89
	c-1.073-2.332-2.394-4.615-2.118-7.406c-0.662,1.337-1.326,2.674-2.11,4.256c-1.363-2.084-1.008-4.031-1.196-5.882
	c-0.126-1.247,0.362-2.566-0.874-3.684c-0.359-0.324-0.051-1.751,0.347-2.447c0.407-0.713,0.891-1.062,0.363-2.048
	c-0.502-0.938-0.526-2.161-0.623-3.271c-0.035-0.408,0.283-0.874,0.512-1.272c0.308-0.536,0.685-1.032,1.031-1.546
	c-0.111-0.073-0.222-0.146-0.332-0.219c-0.169,0.317-0.338,0.635-0.525,0.989c-0.928-0.924-0.729-1.707,1.162-5.066
	c-0.661-0.072-1.657,0.106-2.003-0.287c-0.503-0.569-0.534-1.553-0.801-2.475c-3.896,1.81-4.291,5.715-5.39,9.166
	c-0.168-0.065-0.335-0.132-0.502-0.198v-3.084c-2.811,0.446-2.92,2.63-3.497,4.8c-2.022-0.826-4.021-1.547-5.932-2.451
	c-2.003-0.947-3.859-2.224-5.899-3.068c-1.78-0.738-1.753-2.13-1.888-3.588c-0.125-1.361-0.223-2.729-0.447-4.077
	c-0.596-3.579-1.305-7.142-1.873-10.726c-0.675-4.267-1.551-8.533-1.78-12.829c-0.217-4.079-1.353-8.098-0.507-12.286
	c0.629-3.119,0.584-6.375,0.807-9.573c0.067-0.968-0.063-1.788-1.369-1.924c-0.623-0.064-1.082-0.354-0.171-1.125
	c0.927-0.785,1.439-2.061,2.403-3.533c0.796,0.955,1.446,1.728,2.085,2.507c0.167,0.204,0.482,0.507,0.427,0.642
	c-0.806,1.973,0.55,3.544,0.971,5.271c0.701,2.876,0.709,5.745,0.74,8.692c0.023,2.203-1.361,3.212-2.167,4.702
	c-0.216,0.399-1.273,0.344-2.038,0.518c-0.606,2.236-0.089,4.183,1.392,4.908c-1.87,3.571,0.167,6.804,0.592,10.172
	c0.175,0.027,0.35,0.055,0.525,0.081c0.585-1.503,1.171-3.006,1.787-4.59c0.192,0.16,0.435,0.362,0.781,0.651
	c0.322-0.505,0.599-0.94,0.88-1.381c-1.852-0.974-1.915-1.287-1.149-2.948c0.442-0.96,0.549-2.071,0.971-3.043
	c0.91-2.096,2.023-4.107,2.862-6.229c0.496-1.255,0.592-2.663,0.933-3.985c0.323-1.252,0.096-2.888,2.084-3.099
	c0.177-0.019,0.335-0.911,0.374-1.408c0.094-1.157,0.123-2.319,0.155-3.48c0.038-1.377,0.033-2.754,0.078-4.13
	c0.06-1.83,0.475-3.724,0.13-5.471c-0.314-1.591,0.203-3.037,0.96-3.825c2.138-2.229,2.148-5.23,3.332-7.775
	c0.466-1.003-0.063-2.47-0.141-3.726c-0.177-0.009-0.354-0.018-0.53-0.027c-0.402,0.614-0.804,1.228-1.29,1.971
	c-2.147-1.943-3.292,0.648-5.135,0.949c0.792-0.848,1.598-1.684,2.373-2.547c1.815-2.018,3.669-4.006,5.412-6.086
	c3.393-4.047,3.839-9.018,4.28-13.989c0.044-0.493,0.466-0.953,0.831-1.655c-2.992-0.878-2.102-3.247-1.921-5.365
	c0.062-0.728,0.249-1.443,0.345-2.169c0.349-2.665-1.915-4.465-2.3-6.894c-0.155-0.979-0.33-1.966-0.632-2.906
	c-0.751-2.345-0.935-4.756-2.749-6.886c-2.352-2.761-5.246-4.204-8.394-5.542c-0.569-0.242-0.999-1.118-1.22-1.79
	c-0.224-0.681-0.107-1.473-0.154-2.549c1.065,0.194,2.087,0.38,3.324,0.605c-0.128-1.028-0.249-1.997-0.402-3.227
	c2.04,1.069,4.124,0.795,5.359-0.369c1.071-1.009,0.562-2.105,0.226-3.172c-0.153-0.491-0.502-0.92-0.625-1.479
	c-0.688-0.536-1.996-0.497-1.787-1.968c0.007-0.054-0.147-0.146-0.239-0.197c-2.386-1.346-4.777-2.684-7.158-4.037
	c-0.872-0.496-1.696-1.084-2.593-1.528c-0.555-0.275-1.205-0.358-1.958-0.567c-0.021-0.281-0.05-0.677-0.09-1.206
	c-1.194,0-2.404,0.038-3.609-0.014c-0.731-0.031-1.453-0.233-2.184-0.298c-0.499-0.045-1.275-0.19-1.465,0.06
	c-0.903,1.192-2.114,1.075-3.509,0.925c0.363,1.542-0.453,1.681-1.577,1.551c-0.878-0.101-1.61,0.041-1.551,1.254
	c0.012,0.259-0.478,0.661-0.817,0.795c-0.966,0.384-1.975,0.664-3.124,1.036c0.288,0.315,0.53,0.581,0.537,0.588
	c-0.735,1.25-1.379,2.33-2.007,3.417c-0.981,1.698-1.95,3.404-2.928,5.104c-0.912,1.587-1.829,3.172-2.855,4.951
	c2.345,1.65,5.78,2.069,7.236,5.596c-1.807-0.711-3.224-1.484-4.737-1.806c-1.581-0.336-3.253-0.239-4.934-0.334
	c0.161,0.947,0.172,1.72,0.455,2.375c0.147,0.341,0.79,0.697,1.181,0.669c2.661-0.188,5.233-0.083,7.651,1.27
	c0.339,0.19,1.003-0.201,1.601-0.344c2.775,3.039,2.385,6.963,2.032,10.737c-0.167,2.225-0.334,4.45-0.52,6.928
	c-0.494-0.178-1.024-0.368-1.479-0.531c-1.328,1.033-2.656,2.066-4.082,3.176c0.035-0.508,0.063-1.059,0.112-1.607
	c0.188-2.1,0.423-4.197,0.534-6.301c0.019-0.353-0.494-0.732-0.817-1.177c0.318-0.841,0.571-1.803,1.948-1.45
	c0.219,0.056,0.66-0.156,0.764-0.362c0.451-0.893,0.898-1.807,1.163-2.764c0.093-0.335-0.269-1.102-0.554-1.178
	c-0.846-0.227-1.759-0.208-2.826-0.302c0.287,1.638-0.791,1.858-1.773,2.123c-1.533,0.414-1.882,0.62-2.928,1.986
	c0.486,0.306,0.964,0.608,1.713,1.081c-0.803,0.48-1.445,0.865-2.119,1.269c0.037,1.523-0.876,1.874-3.761,1.269
	c-0.55,1.364-1.476,2.729-1.59,4.158c-0.187,2.326-0.051,4.729,0.328,7.036c0.517,3.142,1.389,6.225,2.108,9.333
	c0.073,0.313,0.072,0.666,0.223,0.935c1.324,2.358,2.727,4.673,3.998,7.059c0.95,1.783,1.883,3.599,2.572,5.493
	c1.663,4.576,4.552,7.686,9.538,8.397c1.782,0.255,3.596,0.282,5.393,0.429c0.195,0.016,0.381,0.14,0.856,0.325
	c-1.805,0.523-1.962,1.646-1.682,3.045c0.09,0.451-0.162,0.976-0.277,1.462c-0.697,2.956-1.389,3.158,0.293,6.902
	c-1.413,0.856-1.513,0.831-2.212-0.559c-0.422-0.839-0.847-1.677-1.464-2.899c-0.52,2.543-0.231,4.502,0.938,6.374
	c0.451,0.722,0.715,1.56,1.065,2.344c-0.797,0.34-1.706,0.538-2.363,1.056c-0.814,0.642-1.674,1.44-2.057,2.362
	c-0.638,1.538-1.291,2.781-3.177,2.914c-0.327,0.023-0.73,0.537-0.899,0.912c-0.386,0.86-0.649,1.775-0.882,2.439
	c-1.831-0.522-3.491-0.996-5.15-1.472c-0.153-0.044-0.352-0.053-0.448-0.155c-2.41-2.561-5.837-4.346-6.443-8.291
	c-0.249-1.619-0.34-3.263-0.607-4.878c-0.134-0.81-0.498-1.582-0.766-2.368c-0.369-1.084-0.937-2.141-1.075-3.253
	c-0.225-1.805-0.298-3.651-0.203-5.468c0.139-2.648,0.694-5.289,0.653-7.926c-0.021-1.312-0.98-2.607-1.501-3.915
	c-0.338-0.849-0.917-1.707-0.92-2.563c-0.007-1.812-0.306-3.368-1.79-4.587c-1.044-0.857-1.15-2.11-0.648-3.235
	c0.834-1.867,0.223-3.352-0.987-4.687c-1.165-1.287-1.963-2.657-1.77-4.457c0.017-0.157,0.011-0.333-0.041-0.479
	c-0.78-2.179-1.379-4.45-2.41-6.505c-1.151-2.296-0.633-4.599-0.525-6.9c0.025-0.527,0.777-1.216,1.354-1.479
	c1.238-0.564,1.569-1.541,1.611-2.714c0.068-1.861,0.638-3.454,1.746-5.018c0.588-0.83,0.465-2.227,0.49-3.371
	c0.02-0.942-0.128-1.912-0.362-2.829c-0.229-0.895-0.482-1.881-1.039-2.576c-1.856-2.323-1.785-3.338,0.623-4.993
	c1.75-1.203,2.262-2.889,1.479-5.097c-0.905-2.555-0.584-4.877,1.447-6.731c0.69-0.63,1.692-1.065,2.619-1.253
	c1.355-0.275,2.304-0.756,2.523-2.24c0.202-1.37,0.482-2.728,0.712-4.093c0.25-1.49,1.17-2.275,2.567-2.739
	c0.874-0.291,1.782-0.717,2.454-1.327c1.687-1.529,3.179-3.273,4.887-4.775c0.837-0.737,1.985-1.117,2.981-1.678
	C28.391,9.213,29,8.953,29.428,8.521c3.89-3.909,8.644-5.37,14.063-5.319c3.242,0.031,6.516-0.641,9.726-0.383
	c3.691,0.296,7.475-0.2,11.086,1.232c2.368,0.939,3.09,3.278,4.729,4.812c0.345,0.322,0.521,0.891,0.906,1.092
	c2.248,1.17,3.153,3.416,4.454,5.353c0.341,0.509,0.878,0.881,1.291,1.347c1.586,1.789,3.167,3.583,4.731,5.392
	c0.52,0.6,0.957,1.271,1.476,1.873c2.944,3.417,6.09,6.684,8.766,10.298c1.131,1.528,1.367,3.76,1.856,5.71
	c0.359,1.435,0.437,2.937,0.705,4.397c0.113,0.614,0.275,1.28,0.622,1.781c1.663,2.405,3.524,4.683,5.056,7.166
	c0.898,1.455,1.724,3.179,1.849,4.838c0.232,3.071,1.192,5.871,2.519,8.522c1.428,2.854,0.634,5.776,0.801,8.668
	c0.014,0.231-0.161,0.543-0.347,0.704c-1.686,1.449-1.54,3.389-1.532,5.332c0.019,4.449-0.201,8.909,0.029,13.345
	c0.132,2.546,1.021,5.045,1.438,7.586c0.178,1.082-0.082,2.229,0.035,3.327c0.2,1.87,0.164,3.893,0.899,5.553
	c1.664,3.757,2.998,7.497,2.658,11.685c-0.15,1.858,1.16,3.092,2.3,4.218"/>
<path fill="#231F20" d="M50.497,170.137c0.519-0.608,0.697-0.744,0.777-0.923c1.448-3.234,1.585-6.659,1.459-10.123
	c-0.11-3.01-0.162-6.022-0.358-9.027c-0.032-0.494-0.607-1.036-1.064-1.382c-0.192-0.146-0.93,0.041-1.075,0.282
	c-1.319,2.205-2.894,4.262-2.142,7.205c0.658,2.579,0.802,5.287,1.235,7.928C49.636,165.971,50.046,167.827,50.497,170.137"/>
<path fill="#231F20" d="M91.641,167.659c0.149-0.005,0.3-0.01,0.449-0.016v-18.77c-0.045-0.004-0.091-0.008-0.136-0.011
	c-0.796,3.712-1.593,7.425-2.39,11.137c0.053,0.017,0.105,0.033,0.158,0.051c0.304-0.624,0.608-1.248,0.913-1.873
	c0.118,0.021,0.238,0.043,0.357,0.064C91.208,161.382,91.424,164.521,91.641,167.659"/>
<path fill="#231F20" d="M88.081,172.847c0.813,0.148,1.718,0.408,1.685-0.863c-0.061-2.255-0.262-4.506-0.433-7.227
	c-0.767,1.411-1.301,2.396-1.835,3.38c0.1,0.077,0.2,0.154,0.301,0.231c0.29-0.197,0.58-0.394,1.188-0.804
	C88.653,169.505,88.387,171.062,88.081,172.847"/>
<path fill="#231F20" d="M94.519,171.773c-2.33,3.11-2.328,6.237-0.659,9.393C93.279,178.002,93.595,174.869,94.519,171.773"/>
<path fill="#231F20" d="M21.958,55.676c0.124-1.232,0.233-2.32,0.35-3.479c-1.041,0.118-2.279,0.032-2.553,1.458
	C19.529,54.831,20.488,55.577,21.958,55.676"/>
<path fill="#231F20" d="M86.92,128.376c-1.242,1.013-1.99,6.19-1.201,7.831C86.12,133.589,86.503,131.093,86.92,128.376"/>
<path fill="#231F20" d="M71.257,159.226c-1.122,2.73-3.356,5.077-2.963,8.329C69.281,164.778,70.27,162.002,71.257,159.226"/>
<path fill="#231F20" d="M45.963,130.631c0.231,0.019,0.463,0.036,0.694,0.055c0.136-2.104,0.272-4.209,0.408-6.312
	c-0.202-0.015-0.404-0.027-0.606-0.04C46.293,126.432,46.128,128.531,45.963,130.631"/>
<path fill="#231F20" d="M65.507,172.651c0.792-1.104,1.583-2.208,2.565-3.579C65.383,169.922,65.383,169.922,65.507,172.651"/>
<path fill="#231F20" d="M85.872,137.922c-0.131,0-0.261,0-0.392,0v6.425c0.131-0.001,0.261-0.001,0.392-0.002V137.922z"/>
<path fill="#231F20" d="M81.327,192.632c-0.255-0.039-0.509-0.077-0.763-0.115c-0.267,1.264-1.199,2.459,0.218,3.907
	C80.964,195.16,81.145,193.896,81.327,192.632"/>
<path fill="#231F20" d="M62.621,107.134c-0.339-0.088-0.679-0.176-1.018-0.265c-0.215,1.295-0.43,2.589-0.645,3.884
	c0.171,0.051,0.342,0.103,0.513,0.154C61.855,109.649,62.238,108.392,62.621,107.134"/>
<path fill="#231F20" d="M107.781,147.863c-0.449-1.185-0.898-2.369-1.348-3.554"/>
<path fill="#231F20" d="M106.434,144.31c-0.231,0.081-0.464,0.162-0.694,0.243c0.469,1.186,0.938,2.372,1.407,3.559
	c0.212-0.083,0.423-0.166,0.635-0.248"/>
<path fill="#231F20" d="M26.446,55.362c1.186,1.013,1.868,0.859,2.146-0.133c0.084-0.301-0.218-0.71-0.344-1.07
	C27.648,54.56,27.047,54.961,26.446,55.362"/>
<path fill="#231F20" d="M87.817,169.651c-0.169-0.049-0.339-0.098-0.508-0.147c-0.225,1.574-0.449,3.149-0.675,4.725
	c0.15,0.021,0.301,0.042,0.45,0.062C87.329,172.744,87.573,171.198,87.817,169.651"/>
<path fill="#231F20" d="M68.138,42.376c0.188-0.027,0.374-0.054,0.561-0.082c-0.314-1.298-0.629-2.598-1.045-4.313
	C66.361,40.078,68.493,40.941,68.138,42.376"/>
<path fill="#231F20" d="M93.91,139.418c-0.11-0.018-0.222-0.035-0.332-0.053c-0.288,1.544-0.575,3.088-0.861,4.632
	c0.181,0.029,0.361,0.058,0.543,0.087C93.477,142.528,93.693,140.973,93.91,139.418"/>
<path fill="#231F20" d="M51.454,147.432c0.814-0.523,1.254-0.731,1.591-1.049c0.246-0.231,0.393-0.595,0.501-0.926
	c0.028-0.085-0.314-0.417-0.388-0.389c-0.32,0.128-0.695,0.282-0.878,0.547C51.992,146.033,51.842,146.547,51.454,147.432"/>
<path fill="#231F20" d="M22.986,83.02c-0.053-0.422-0.091-0.847-0.161-1.267c-0.107-0.643-0.558-1.513-0.295-1.877
	c0.701-0.969,1.585-2.104,2.628-2.429c0.757-0.236,2.068,0.51,2.812,1.177c1.825,1.637,3.941,1.793,6.23,2.002
	c4.619,0.421,9.213,1.143,13.805,1.822c1.146,0.169,1.558,1.521,0.66,2.153c-2.604,1.835-5.287,3.56-7.984,5.254
	c-0.446,0.281-1.174,0.369-1.69,0.234c-1.377-0.36-2.703-0.999-3.693,0.721c-0.122,0.211-0.82,0.189-1.227,0.123
	c-2.786-0.455-5.566-0.939-8.343-1.444c-0.343-0.062-0.855-0.218-0.949-0.461c-0.749-1.951-1.417-3.935-2.109-5.908
	C22.775,83.087,22.881,83.054,22.986,83.02 M47.609,83.137c-0.608-0.044-1.126-0.12-1.643-0.112
	c-1.045,0.015-2.059,0.518-3.096-0.422c-0.49-0.443-1.614-0.656-2.149,0.502c-0.108,0.235-0.931,0.441-1.003,0.345
	c-1.147-1.526-2.687-0.472-4.019-0.64c-1.632-0.207-3.291,1.357-4.927-0.045c-1.362,0.821-2.55,0.581-3.546-1.019
	c-0.234,2.497,1.683,5.064,3.825,5.267c3.126,0.295,6.287,0.639,9.405,0.466C43.32,87.319,46.383,86.903,47.609,83.137"/>
<path fill="#231F20" d="M47.917,50.586c0.969,0,1.507,0.044,2.035-0.007c3.319-0.321,4.739,2.179,6.269,4.364
	c0.264,0.376-0.21,1.867-0.624,2.005c-1.161,0.388-2.1,1.296-3.59,1.087c-1.948-0.273-3.975,0.043-5.968,0.056
	c-1.25,0.008-2.69,0.549-3.475-1.046c-0.036-0.072-0.187-0.09-0.285-0.13c-0.496-0.2-1.422-0.415-1.416-0.595
	c0.035-0.92,0.061-2.001,0.546-2.716C43.048,51.192,45.284,49.851,47.917,50.586 M41.594,56.103
	c1.939,0.229,3.591,0.424,5.019,0.592v-3.929C44.495,52.982,43.023,54.286,41.594,56.103 M51.783,53.636
	c-0.078,1.002-0.128,1.655-0.196,2.535c0.773-0.337,1.356-0.592,2.219-0.968C53.049,54.617,52.539,54.221,51.783,53.636"/>
<path fill="#231F20" d="M46.857,66.172c-0.438-0.487-1.083-1.039-1.472-1.734c-0.12-0.215,0.361-1.053,0.733-1.208
	c1.76-0.729,3.708-1.092,5.339-2.023c1.717-0.981,3.035-0.288,4.662,0.665C53.086,63.28,50.052,64.689,46.857,66.172"/>
<path fill="#231F20" d="M42.23,46.782c1.441-1.949,3.435-1.816,5.395-1.831c-0.583,0.18-1.166,0.359-1.748,0.539
	c-0.003,0.105-0.006,0.21-0.009,0.315c0.729,0.102,1.458,0.203,2.394,0.333c-0.827,0.24-1.461,0.424-2.324,0.674
	c0.431,0.285,0.652,0.433,0.874,0.58C45.257,47.506,44.194,44.805,42.23,46.782"/>
<path fill="#231F20" d="M86.268,207.17c-0.229,0.542-0.456,1.084-0.684,1.626c-0.129-0.06-0.259-0.119-0.387-0.179
	c0.459-0.983,0.918-1.967,1.377-2.949c0.167,0.021,0.335,0.044,0.502,0.066c-0.207,1.749,1.494,3.214,0.532,5.395
	c-0.356-1.527-0.645-2.756-0.932-3.985C86.54,207.152,86.404,207.161,86.268,207.17"/>
<path fill="#231F20" d="M44.195,109.337c-1.33-0.89-2.638-1.764-3.727-2.493C42.246,105.998,42.605,106.193,44.195,109.337"/>
<path fill="#231F20" d="M28.117,75.83c-1.705,0.544-2.073,0.325-2.75-1.635C26.424,74.823,27.144,75.251,28.117,75.83"/>
<path fill="#FFFFFF" d="M50.497,170.137c-0.451-2.31-0.861-4.166-1.168-6.04c-0.433-2.641-0.577-5.349-1.235-7.928
	c-0.751-2.943,0.822-4.999,2.142-7.205c0.145-0.241,0.883-0.429,1.075-0.282c0.457,0.346,1.032,0.888,1.064,1.382
	c0.196,3.005,0.248,6.018,0.358,9.027c0.126,3.464-0.011,6.889-1.459,10.123C51.193,169.393,51.016,169.527,50.497,170.137"/>
<path fill="#FFFFFF" d="M91.641,167.659c-0.216-3.139-0.433-6.278-0.648-9.417c-0.118-0.021-0.237-0.043-0.356-0.064
	c-0.305,0.625-0.609,1.249-0.914,1.874c-0.052-0.018-0.104-0.035-0.156-0.052c0.796-3.712,1.593-7.425,2.389-11.137
	c0.045,0.004,0.091,0.007,0.136,0.01v18.771C91.939,167.649,91.79,167.654,91.641,167.659"/>
<path fill="#FFFFFF" d="M88.081,172.847c0.306-1.784,0.572-3.342,0.905-5.281c-0.607,0.409-0.896,0.605-1.188,0.803
	c-0.101-0.077-0.201-0.154-0.301-0.231c0.534-0.984,1.068-1.969,1.835-3.38c0.171,2.721,0.372,4.972,0.433,7.227
	C89.799,173.255,88.895,172.995,88.081,172.847"/>
<path fill="#FFFFFF" d="M94.519,171.773c-0.924,3.096-1.239,6.229-0.659,9.393C92.19,178.011,92.188,174.884,94.519,171.773"/>
<path fill="#FFFFFF" d="M21.958,55.676c-1.47-0.099-2.429-0.845-2.203-2.02c0.274-1.425,1.512-1.341,2.553-1.458
	C22.192,53.355,22.083,54.443,21.958,55.676"/>
<path fill="#FFFFFF" d="M86.919,128.376c-0.416,2.717-0.799,5.213-1.2,7.831C84.93,134.566,85.678,129.389,86.919,128.376"/>
<path fill="#FFFFFF" d="M71.256,159.226c-0.986,2.776-1.975,5.553-2.962,8.329C67.9,164.303,70.135,161.957,71.256,159.226"/>
<path fill="#FFFFFF" d="M45.963,130.631c0.165-2.1,0.33-4.199,0.496-6.298c0.202,0.013,0.404,0.026,0.606,0.04
	c-0.136,2.104-0.272,4.208-0.408,6.312C46.426,130.667,46.195,130.649,45.963,130.631"/>
<path fill="#FFFFFF" d="M65.506,172.651c-0.123-2.729-0.123-2.729,2.566-3.579C67.09,170.442,66.298,171.548,65.506,172.651"/>
<path fill="#FFFFFF" d="M85.872,137.922v6.423c-0.131,0.001-0.262,0.001-0.393,0.002v-6.425
	C85.61,137.922,85.741,137.922,85.872,137.922"/>
<path fill="#FFFFFF" d="M81.327,192.632c-0.183,1.264-0.363,2.528-0.545,3.792c-1.417-1.448-0.484-2.644-0.218-3.907
	C80.818,192.555,81.072,192.593,81.327,192.632"/>
<path fill="#FFFFFF" d="M62.621,107.134c-0.383,1.258-0.766,2.516-1.149,3.772c-0.171-0.051-0.342-0.103-0.513-0.153
	c0.215-1.295,0.43-2.589,0.645-3.884C61.942,106.958,62.282,107.046,62.621,107.134"/>
<path fill="#FFFFFF" d="M107.781,147.863c-0.212,0.082-0.423,0.165-0.635,0.248c-0.47-1.187-0.938-2.373-1.407-3.559
	c0.23-0.081,0.463-0.162,0.694-0.243"/>
<path fill="#FFFFFF" d="M106.434,144.31c0.449,1.185,0.898,2.369,1.348,3.554"/>
<path fill="#FFFFFF" d="M26.446,55.362c0.601-0.401,1.202-0.802,1.802-1.203c0.125,0.36,0.428,0.77,0.344,1.07
	C28.314,56.222,27.632,56.375,26.446,55.362"/>
<path fill="#FFFFFF" d="M87.817,169.651c-0.244,1.547-0.488,3.093-0.732,4.64c-0.15-0.021-0.3-0.042-0.45-0.062
	c0.226-1.575,0.45-3.15,0.675-4.725C87.479,169.553,87.648,169.603,87.817,169.651"/>
<path fill="#FFFFFF" d="M68.138,42.376c0.355-1.435-1.776-2.298-0.484-4.395c0.416,1.715,0.73,3.015,1.046,4.313
	C68.512,42.322,68.325,42.349,68.138,42.376"/>
<path fill="#FFFFFF" d="M93.91,139.418c-0.217,1.555-0.434,3.11-0.65,4.666c-0.182-0.029-0.362-0.058-0.543-0.087
	c0.287-1.544,0.573-3.088,0.861-4.632C93.688,139.383,93.8,139.4,93.91,139.418"/>
<path fill="#FFFFFF" d="M51.454,147.432c0.388-0.885,0.538-1.398,0.826-1.816c0.183-0.265,0.558-0.419,0.878-0.547
	c0.074-0.028,0.416,0.304,0.388,0.389c-0.108,0.331-0.255,0.694-0.501,0.926C52.708,146.7,52.269,146.908,51.454,147.432"/>
<path fill="#FFFFFF" d="M47.609,83.137c-1.226,3.766-4.289,4.182-7.153,4.34c-3.118,0.173-6.279-0.17-9.405-0.466
	c-2.142-0.203-4.059-2.77-3.825-5.267c0.996,1.6,2.184,1.84,3.546,1.019c1.636,1.403,3.295-0.161,4.927,0.045
	c1.332,0.168,2.871-0.886,4.019,0.64c0.073,0.097,0.895-0.11,1.003-0.345c0.535-1.158,1.659-0.945,2.149-0.502
	c1.038,0.94,2.051,0.437,3.096,0.422C46.483,83.018,47.001,83.093,47.609,83.137"/>
<path fill="#FFFFFF" d="M41.594,56.103c1.429-1.817,2.9-3.121,5.019-3.336v3.928C45.186,56.526,43.534,56.332,41.594,56.103"/>
<path fill="#FFFFFF" d="M51.783,53.636c0.756,0.585,1.267,0.981,2.023,1.567c-0.863,0.376-1.446,0.63-2.219,0.968
	C51.655,55.291,51.705,54.638,51.783,53.636"/>
</svg>
