<?xml version="1.0" encoding="utf-8"?>
<!-- Generator: Adobe Illustrator 16.0.0, SVG Export Plug-In . SVG Version: 6.00 Build 0)  -->
<!DOCTYPE svg PUBLIC "-//W3C//DTD SVG 1.1//EN" "http://www.w3.org/Graphics/SVG/1.1/DTD/svg11.dtd">
<svg version="1.1" id="Layer_1" xmlns="http://www.w3.org/2000/svg" xmlns:xlink="http://www.w3.org/1999/xlink" x="0px" y="0px"
	 width="131px" height="171px" viewBox="0 0 131 171" enable-background="new 0 0 131 171" xml:space="preserve">
<g>
	<path fill="#FFFFFF" d="M59.215,2.606c-1.553,0.929-2.995,1.318-4.654,1.147c-1.664-0.171-2.926,0.341-4.017,1.611
		c-1.093,1.272-2.801,1.684-4.156,2.619c-0.765,0.527-1.882,0.555-2.824,0.844c-1.857,0.568-3.736,0.979-5.356,2.121
		c-0.064,0.045-0.184,0.006-0.273,0.024c-0.721,0.151-1.357,0.46-2.006,0.831c-2.58,1.472-4.346,3.822-6.443,5.812
		c-0.621,0.589-1.249,1.137-2.148,1.074c-0.864-0.061-0.976,0.381-0.964,1.091c0.03,2.029,0,4.059,0.019,6.089
		c0.005,0.614,0.044,1.319-0.398,1.706c-1.286,1.125-1.735,2.682-2.444,4.131c-0.752,1.541-1.887,2.872-2.454,4.539
		c-0.2,0.588-0.87,0.924-0.838,1.758c0.091,2.442,0.04,4.889,0.046,7.333c0.001,0.499-0.038,0.965,0.488,1.326
		c1.013,0.693,1.171,1.78,1.167,2.916c-0.008,2.26-0.009,4.521,0.012,6.78c0.004,0.427-0.154,0.889,0.357,1.239
		c1.202,0.824,1.351,2.094,1.284,3.415c-0.168,3.387,0.342,6.788-0.456,10.167c-0.516,2.185,0.47,4.345,0.528,6.535
		c0.026,0.955,0.17,1.683,0.9,2.454c0.999,1.052,1.122,2.646,2.25,3.811c0.788,0.813,1.078,2.438,0.773,3.796
		c-0.401,1.792,1.514,3.055,1.02,4.845c-0.021,0.078,0.135,0.278,0.24,0.309c1.147,0.34,2.014,1.199,3.17,1.58
		c1.378,0.455,2.967,0.186,4.16,1.227c2.148,1.877,2.52,4.499,2.945,7.087c0.049,0.287-0.064,0.673-0.238,0.913
		c-0.884,1.205-0.857,2.568-0.816,3.962c0.044,1.429,0.005,2.859,0.003,4.289c0,2.27-1.422,3.761-3.666,3.857
		c-0.357,0.016-0.827-0.13-1.043,0.206c-0.858,1.348-2.401,2.363-2.05,4.316c0.119,0.664,0.21,1.565-0.435,1.934
		c-1.856,1.059-1.759,2.744-1.666,4.466c0.075,1.429-0.178,2.66-1.681,3.285c-0.304,0.126-0.518,0.428-0.542,0.762
		c-0.106,1.617-1.495,2.339-2.367,3.417c-0.297,0.368-0.847,0.541-0.875,1.117c0.069,0.037,0.116,0.083,0.14,0.073
		c0.124-0.054,0.252-0.104,0.356-0.185c1.137-0.86,1.314-0.8,1.683,0.599c0.07,0.267,0.152,0.532,0.196,0.804
		c0.549,3.439,1.543,6.804,1.632,10.325c0.021,0.809,0.424,1.763,1.617,0.92c0.356-0.251,0.599-0.021,0.83,0.223
		c0.271,0.287,0.25,0.565-0.014,0.85c-0.247,0.27-0.552,0.52-0.704,0.838c-0.204,0.429-0.215,0.959,0.176,1.283
		c0.497,0.413,0.704-0.101,0.94-0.427c0.44-0.61,0.67-0.248,1.035,0.143c1.292,1.378,1.89,3.372,3.79,4.22
		c0.363,0.163,0.519,0.601,0.618,1.034c0.168,0.734,0.65,1.298,1.426,1.265c1.029-0.044,1.378,0.444,1.508,1.357
		c0.149,1.045,0.731,1.453,1.757,0.958c1.661-0.8,3.417-0.968,5.236-0.904c1.267,0.045,1.661-0.556,1.184-1.729
		c-0.244-0.597-0.458-1.105,0.131-1.611c0.25-0.215,0.48-0.522,0.237-0.84c-0.219-0.285-0.603-0.23-0.905-0.132
		c-0.3,0.097-0.56,0.313-0.853,0.438c-1.871,0.794-3.846-0.665-3.656-2.693c0.129-1.374-0.48-2.337-1.852-2.827
		c-0.632-0.228-0.641-0.711-0.631-1.229c0.01-0.551,0.117-1.136-0.48-1.481c-0.625-0.359-0.774-0.989-0.963-1.607
		c-0.121-0.392-0.38-0.798,0.098-1.111c0.38-0.248,0.813-0.169,1.2-0.02c0.522,0.2,0.713,0.644,0.804,1.188
		c0.097,0.569,0.125,1.202,0.82,1.483c1.113,0.45,1.895,1.216,2.213,2.417c0.15,0.565,0.551,1.024,1.108,1.127
		c0.936,0.171,1.381,0.668,1.687,1.557c0.269,0.782,1.019,1.268,1.867,0.917c0.882-0.363,0.52-1.093,0.305-1.772
		c-0.726-2.303-2.278-4.055-3.816-5.814c-0.41-0.469-0.938-0.984-0.568-1.564c0.782-1.227,0.573-2.38,0.149-3.643
		c-0.795-2.37-0.753-4.883-1.085-7.331c-0.345-2.522,0.154-3.347,2.451-4.417c0.639-0.296,1.291-0.604,1.495-1.338
		c0.308-1.104,1.013-1.041,1.808-0.667c2.115,0.996,3.968,2.248,4.875,4.576c0.429,1.103,0.645,2.484,1.343,3.249
		c1.501,1.644,3.545,2.622,5.915,2.457c0.91-0.064,1.198-0.707,0.643-1.429c-0.598-0.775-1.336-1.453-2.297-1.71
		c-1.519-0.405-2.377-1.521-3.141-2.739c-0.778-1.24-0.443-2.512,0.593-3.562c1.269-1.287,2.841-0.943,4.148-0.615
		c3.009,0.756,5.851,0.2,8.676-0.598c2.086-0.59,4.089-1.361,6.036-2.46c1.932-1.089,4.026-2.003,6.037-3.001
		c1.811-0.898,3.52-2.217,4.383-4.077c1.273-2.741,3.459-4.728,5.236-7.046c0.424-0.553,0.977-1.361,1.807-0.778
		c0.727,0.509,0.324,1.319,0.143,2.033c-0.201,0.787-0.738,1.5-0.509,2.388c0.65,2.51,0.442,5.001-0.202,7.476
		c-0.236,0.909-0.347,1.834,0.047,2.706c0.822,1.817,0.645,3.773,0.865,5.674c0.081,0.701-0.125,1.374-0.512,1.969
		c-0.783,1.205-0.982,2.543-0.894,3.937c0.036,0.595-0.102,1.047-0.554,1.472c-2.07,1.954-3.229,4.59-5.019,6.768
		c-1.268,1.544-2.568,3.082-3.81,4.646c-1.439,1.815-2.849,3.662-4.236,5.519c-0.645,0.861-0.632,1.714,0.67,2.115
		c0.466,0.145,1.159,0.458,1.23,0.803c0.246,1.183,0.251,2.414,0.822,3.526c-1.259,1.256-0.658,2.182,0.476,3.112
		c0.769,0.631,2.229,0.707,2.498-0.165c0.415-1.348,1.407-2.034,2.31-2.922c0.62-0.609,1.005-0.915,1.64-0.164
		c0.226,0.269,0.483,0.445,0.837,0.26c0.328-0.175,0.415-0.498,0.373-0.83c-0.09-0.714,0.137-1.381,0.337-2.028
		c0.18-0.578,0.513-1.144,1.312-0.603c0.685,0.464,1.072,0.136,1.091-0.582c0.021-0.759,0.472-1.181,1.007-1.55
		c0.423-0.293,0.822-0.557,0.984-1.097c0.793-2.667,2.234-4.992,3.866-7.212c0.363-0.495,0.333-1.063,0.216-1.593
		c-0.086-0.387-0.391-0.719-0.57-1.09c-0.347-0.718,0.189-1.222,0.483-1.767c0.177-0.328,0.493-0.357,0.838-0.186
		c0.598,0.298,0.444,0.849,0.474,1.336c0.065,1.056,0.118,2.113,0.179,3.17c0.034,0.591-0.052,1.376,0.771,1.375
		c0.856-0.004,0.897-0.81,0.899-1.454c0.016-3.92,0.009-7.84,0.002-11.76c-0.002-0.807-0.137-1.511-0.96-1.988
		c-0.71-0.41-0.862-1.268-0.694-1.966c0.203-0.838,0.021-0.974-0.783-1c-2.596-0.082-3.174-0.727-3.17-3.341
		c0.012-9.41,0.025-18.819,0.039-28.229c0.006-3.688,0.008-3.688,3.749-3.744c0.139-0.002,0.276-0.003,0.415-0.001
		c0.742,0.012,1.195-0.318,1.37-1.209c-0.995,0.064-1.885,0.357-2.8,0.254c-0.898-0.101-1.675-0.565-1.489-1.444
		c0.394-1.866-0.07-3.921,1.602-5.538c1.225-1.184,1.112-1.382,2.536-0.374c0.309,0.219,0.491,0.749,1.024,0.492
		c0.87-0.422,2.029-2.661,1.554-3.583c-0.962-1.867-0.045-3.245,0.86-4.665c0.222-0.347,0.58-0.785,1.106-0.679
		c0.407,0.084,0.488,0.504,0.59,0.864c0.287,1,0.344,1.993-0.064,2.977c-0.278,0.672-0.437,1.35-0.221,2.1
		c0.684-0.186,0.922-0.568,0.857-1.145c-0.123-1.09,0.386-2.138,1.008-2.761c1.887-1.89,2.02-4.273,2.342-6.643
		c0.039-0.286-0.053-0.57-0.279-0.75c-0.95-0.765-0.733-1.921-0.379-2.644c0.749-1.524,0.67-3.061,0.671-4.635
		c0.001-2.952,0.008-5.904-0.003-8.855c-0.002-0.519-0.006-1.06,0.308-1.463c0.799-1.029,0.803-2.203,0.784-3.41
		c-0.023-1.614-0.01-3.229,0-4.843c0.01-2.165-1.567-3.988-1.33-6.211c0.021-0.216-0.23-0.51-0.426-0.691
		c-0.854-0.791-1.184-1.798-1.007-2.886c0.402-2.46-0.536-4.286-2.448-5.735c-0.29-0.221-0.507-0.541-0.794-0.769
		c-0.859-0.685-1.283-1.551-1.175-2.654c0.084-0.853-0.276-1.519-0.854-2.099c-0.717-0.718-1.418-1.452-2.158-2.147
		c-0.752-0.708-1.32-1.446-1.484-2.552c-0.187-1.27-1.722-2.384-3.099-2.505c-1.575-0.138-2.302-0.894-2.378-2.48
		c-0.029-0.591,0.186-1.312-0.317-1.716c-1.981-1.591-2.621-3.738-2.753-6.141c-0.016-0.315-0.132-0.632-0.241-0.934
		c-0.599-1.661-1.887-2.608-3.652-2.543"/>
	<path fill="#FFFFFF" d="M2.267,180.568C2.299,121.024,2.299,61.48,2.268,1.936"/>
	<path fill="#FFFFFF" d="M131.863,1.801c-0.029,59.59-0.031,119.181,0.003,178.771"/>
	<path fill="#FFFFFF" d="M105.007,145.189c0.534,1.665-0.542,3.3-1.081,5.002c-0.465,1.463-1.269,2.773-1.257,4.424
		c0.007,0.959-0.019,2.034-0.55,2.953c-0.68,1.176-1.139,2.418-1.061,3.804c0.023,0.4-0.527,0.929,0.175,1.181
		c0.574,0.207,0.942-0.18,1.257-0.617c0.186-0.258,0.423-0.479,0.615-0.734c1.144-1.518,2.502-2.586,4.561-2.218
		c0.433,0.079,0.797-0.136,1.188-0.259c1.583-0.498,1.537-0.464,0.763-1.841c-0.883-1.57-2.021-2.96-2.981-4.474
		c-0.358-0.563-0.57-1.271-0.086-1.796c0.395-0.428,1.06-0.284,1.55,0c0.867,0.499,1.651,0.776,2.361-0.243
		c0.158-0.226,0.487-0.299,0.738-0.078c0.255,0.225,0.21,0.559-0.009,0.734c-1.529,1.234-0.863,2.24,0.255,3.283
		c0.429,0.399,0.745,0.934,1.051,1.444c0.902,1.499,2.682,1.587,3.856,1.47c2.466-0.245,4.482-1.764,6.182-3.666
		c2.008-2.247,4.04-4.531,7.505-4.397c0.645,0.025,1.188-0.552,1.304-1.248c0.103-0.625-0.398-1.305-0.838-1.248
		c-1.646,0.212-2.272-1.308-3.468-1.816c-0.628-0.269-1.201-0.784-1.844-0.878c-1.187-0.174-1.796-0.874-2.151-1.877
		c-0.253-0.712-0.695-1.105-1.389-1.394c-2.157-0.896-3.458-2.992-5.52-4.041c-0.112-0.056-0.221-0.189-0.263-0.311
		c-0.893-2.56-2.785-3.311-5.319-3.047c-0.906,0.094-2.101,0.323-2.701-0.126c-1.324-0.992-2.77-0.79-4.185-0.992
		c-0.278-0.039-0.682-0.138-0.823,0.272c-0.103,0.295,0.089,0.545,0.302,0.721c0.958,0.784,0.984,1.899,1.076,2.983
		c0.058,0.684,0.012,1.377,0.078,2.059C104.519,140.454,105.107,142.65,105.007,145.189"/>
	<path fill="#FFFFFF" d="M15.667,141.409c0.566,0.214,1.237-0.472,1.54,0.288c0.23,0.578-0.261,0.945-0.653,1.253
		c-0.818,0.638-1.53,0.278-2.193-0.31c-0.613,1.072-1.488,0.78-2.369,0.455c-0.04-0.016-0.068-0.062-0.104-0.09
		c-1.27-0.918-1.704-0.766-2.251,0.625c-0.497,1.261-1.375,2.482-2.567,2.872c-1.229,0.401-2.288,1.369-3.735,1.23
		c-0.547-0.053-0.704,0.562-0.735,1.135c-0.135,2.595,0.167,4.835,2.531,6.655c1.956,1.506,3.655,3.469,3.171,6.455
		c-0.189,1.164,2.232,3.211,3.461,3.217c2.812,0.015,5.622-0.02,8.433-0.043c0.312-0.004,0.648,0.066,0.915-0.193
		c0.947-0.919,2.145-0.914,3.351-0.948c1.708-0.049,3.408,0.063,5.104,0.226c1.312,0.125,1.507-0.156,0.961-1.362
		c-0.432-0.951-1.324-1.667-1.419-2.795c-0.076-0.902-0.533-1.496-1.376-1.893c-1.147-0.54-1.933-1.353-2.406-2.651
		c-0.459-1.262-0.996-2.448-1.014-3.82c-0.008-0.647-0.175-1.323-0.696-1.757c-0.763-0.634-0.911-1.419-0.856-2.344
		c0.039-0.686-0.083-1.378-0.087-2.068c-0.01-1.655-0.431-3.285-0.28-4.946c0.06-0.67,0.611-1.657,0.112-1.925
		c-0.698-0.371-1.521,0.334-2.227,0.75c-0.079,0.047-0.155,0.105-0.213,0.175c-0.819,0.975-1.849,1.302-3.091,1.056
		C16.392,140.541,15.865,140.607,15.667,141.409"/>
	<path fill="#FFFFFF" d="M50.073,153.804c-0.7,0.035-0.95,0.308-0.987,0.795c-0.036,0.498,0.049,1.036,0.611,1.071
		c1.172,0.074,1.864,0.974,2.742,1.513c0.885,0.542,1.813,1.304,2.348,2.071c0.609,0.878,1.081,2.124,1.055,3.34
		c-0.008,0.441,0.017,0.736,0.472,0.818c0.422,0.077,0.576-0.275,0.659-0.572c0.161-0.574,0.459-0.897,1.043-1.144
		c0.67-0.282,0.731-0.972-0.015-1.189c-1.284-0.377-1.945-1.524-2.687-2.34c-1.263-1.387-2.826-2.386-4.09-3.733
		C50.902,154.091,50.36,153.954,50.073,153.804"/>
	<path fill="#FFFFFF" d="M39.833,161.571c-1.442-0.023-1.819,0.427-1.859,1.887c-0.034,1.251,0.969,1.925,1.437,2.891
		c0.156,0.319,0.479,0.794,0.973,0.566c0.441-0.203,0.607-0.679,0.62-1.155c0.006-0.219-0.138-0.438-0.168-0.662
		c-0.052-0.396,0.101-0.771,0.425-0.957c0.413-0.238,0.677,0.08,0.877,0.415c0.196,0.328,0.424,0.677,0.859,0.467
		c0.415-0.2,0.268-0.648,0.269-0.995C43.271,162.854,42.128,161.696,39.833,161.571"/>
	<path fill="#FFFFFF" d="M46.861,160.391c-0.035,0.989,0.619,1.663,1.378,1.865c1.22,0.324,2.545,1.158,3.775,0.253
		c0.521-0.384,0.937-0.942,1.547-1.282c0.432-0.24,0.619-0.695,0.385-1.195c-0.214-0.455-0.654-0.527-1.065-0.421
		c-0.709,0.183-1.483,0.305-2.006,0.858c-0.582,0.613-1,0.449-1.465-0.1c-0.33-0.389-0.703-0.734-1.198-0.91
		C47.331,159.145,46.885,159.457,46.861,160.391"/>
	<path fill="#FFFFFF" d="M32.201,157.414c-0.209-1.508-0.367-2.643-0.523-3.776c-0.043-0.326-0.067-0.706-0.52-0.645
		c-0.437,0.058-0.421,0.465-0.386,0.769c0.142,1.235-0.304,2.251-1.082,3.168c-0.323,0.379-0.543,0.875-0.051,1.197
		c0.438,0.287,1.012,0.567,1.566,0.283C31.745,158.135,32.196,157.729,32.201,157.414"/>
	<path fill="#FFFFFF" d="M66.525,165.614c-1.541-0.618-2.684-1.322-3.629-2.324c-0.426-0.453-0.984-0.482-1.516-0.217
		c-0.326,0.163-0.365,0.526-0.277,0.853c0.148,0.554,0.544,0.83,1.111,0.846c0.529,0.014,0.984,0.218,1.39,0.534
		C64.39,165.919,65.244,166.05,66.525,165.614"/>
	<path fill="#FFFFFF" d="M75.116,166.751c-0.932-1.457-0.909-1.521,0.665-2.364c0.448-0.24,0.643-0.611,0.615-1.127
		c-0.023-0.461-0.208-0.86-0.63-0.963c-0.481-0.119-0.737,0.347-0.906,0.692c-0.545,1.11-1.397,1.805-2.696,2.062
		C73.318,165.382,74.045,166.237,75.116,166.751"/>
	<path fill="#FFFFFF" d="M97.668,172.879c-1.133,0.317-1.919,0.494-2.674,0.764c-0.583,0.209-0.759,0.738-0.769,1.326
		c-0.009,0.597,0.405,0.809,0.877,0.852c0.409,0.037,1.062,0.352,1.192-0.233C96.5,174.68,97.057,173.978,97.668,172.879"/>
	<path fill="#FFFFFF" d="M79.402,158.034c0.055-0.372-0.161-0.568-0.523-0.627c-0.404-0.065-0.762,0.04-0.884,0.458
		c-0.242,0.834-0.562,1.607-1.138,2.287c-0.216,0.254-0.252,0.717,0.08,1.003c0.179,0.155,0.442,0.116,0.637-0.039
		C78.574,160.328,79.385,159.421,79.402,158.034"/>
	<path fill="#FFFFFF" d="M46.296,168.303c-0.189-0.497-0.457-0.91-1.055-0.928c-0.586-0.016-1.02,0.32-1.062,0.873
		c-0.047,0.62,0.455,1.107,0.98,1.15C45.733,169.442,46.06,168.872,46.296,168.303"/>
	<path fill="#FFFFFF" d="M48.762,166.147c-0.069-0.449-0.305-0.883-0.811-0.889c-0.549-0.006-0.947,0.398-0.959,0.948
		c-0.01,0.438,0.346,0.793,0.802,0.711C48.184,166.847,48.757,166.847,48.762,166.147"/>
	<path fill="#272425" d="M86.911,3.279c1.766-0.065,3.054,0.883,3.652,2.543c0.109,0.302,0.226,0.619,0.241,0.934
		c0.132,2.402,0.771,4.55,2.753,6.141c0.503,0.404,0.288,1.125,0.317,1.716c0.078,1.587,0.803,2.343,2.378,2.48
		c1.377,0.121,2.912,1.235,3.099,2.505c0.163,1.105,0.732,1.844,1.484,2.552c0.738,0.695,1.44,1.429,2.158,2.147
		c0.577,0.58,0.938,1.246,0.854,2.099c-0.108,1.104,0.315,1.97,1.175,2.654c0.287,0.229,0.504,0.548,0.794,0.769
		c1.912,1.449,2.851,3.275,2.448,5.735c-0.177,1.088,0.152,2.096,1.007,2.886c0.195,0.181,0.447,0.476,0.426,0.692
		c-0.237,2.223,1.34,4.046,1.33,6.211c-0.01,1.614-0.023,3.229,0.001,4.843c0.018,1.207,0.015,2.381-0.785,3.41
		c-0.313,0.403-0.31,0.945-0.308,1.463c0.011,2.952,0.004,5.904,0.003,8.855c-0.001,1.574,0.078,3.11-0.671,4.635
		c-0.354,0.723-0.572,1.879,0.38,2.644c0.226,0.18,0.316,0.464,0.278,0.75c-0.322,2.37-0.455,4.753-2.342,6.643
		c-0.622,0.624-1.131,1.671-1.009,2.761c0.065,0.577-0.173,0.959-0.856,1.145c-0.217-0.75-0.057-1.428,0.221-2.1
		c0.408-0.983,0.352-1.976,0.066-2.977c-0.104-0.36-0.185-0.779-0.592-0.864c-0.526-0.106-0.885,0.332-1.106,0.679
		c-0.906,1.42-1.822,2.798-0.86,4.665c0.476,0.922-0.682,3.162-1.554,3.583c-0.533,0.257-0.716-0.273-1.024-0.492
		c-1.424-1.008-1.312-0.81-2.536,0.374c-1.672,1.617-1.208,3.672-1.602,5.538c-0.186,0.879,0.591,1.343,1.489,1.444
		c0.915,0.104,1.805-0.189,2.8-0.254c-0.175,0.891-0.628,1.221-1.37,1.209c-0.139-0.002-0.276-0.001-0.415,0.001
		c-3.741,0.057-3.743,0.057-3.749,3.744c-0.014,9.41-0.027,18.819-0.039,28.229c-0.004,2.614,0.574,3.259,3.17,3.341
		c0.805,0.026,0.986,0.162,0.783,1c-0.168,0.698-0.016,1.556,0.694,1.966c0.822,0.478,0.958,1.182,0.96,1.988
		c0.007,3.92,0.014,7.84-0.002,11.76c-0.002,0.645-0.043,1.45-0.899,1.454c-0.823,0.001-0.737-0.784-0.771-1.375
		c-0.061-1.057-0.113-2.114-0.179-3.17c-0.029-0.487,0.124-1.038-0.474-1.336c-0.345-0.172-0.661-0.143-0.838,0.186
		c-0.294,0.545-0.83,1.049-0.483,1.767c0.18,0.371,0.484,0.703,0.57,1.09c0.117,0.529,0.147,1.098-0.217,1.593
		c-1.631,2.22-3.072,4.545-3.865,7.212c-0.16,0.54-0.562,0.804-0.984,1.097c-0.535,0.369-0.986,0.791-1.007,1.55
		c-0.019,0.718-0.406,1.046-1.091,0.582c-0.799-0.541-1.132,0.024-1.312,0.603c-0.2,0.647-0.428,1.314-0.337,2.028
		c0.042,0.332-0.045,0.655-0.374,0.83c-0.353,0.186-0.61,0.009-0.836-0.26c-0.635-0.751-1.02-0.445-1.64,0.164
		c-0.902,0.888-1.895,1.574-2.31,2.922c-0.269,0.872-1.729,0.796-2.498,0.165c-1.134-0.931-1.734-1.856-0.476-3.112
		c-0.571-1.112-0.576-2.344-0.822-3.526c-0.071-0.345-0.765-0.658-1.23-0.803c-1.302-0.401-1.313-1.254-0.67-2.115
		c1.388-1.856,2.797-3.703,4.236-5.519c1.241-1.564,2.541-3.103,3.81-4.646c1.79-2.178,2.948-4.813,5.019-6.768
		c0.452-0.425,0.592-0.877,0.553-1.472c-0.088-1.394,0.111-2.731,0.895-3.937c0.387-0.595,0.593-1.268,0.512-1.969
		c-0.221-1.9-0.043-3.856-0.865-5.674c-0.394-0.872-0.283-1.797-0.047-2.706c0.645-2.475,0.853-4.966,0.202-7.476
		c-0.229-0.888,0.308-1.601,0.509-2.388c0.182-0.714,0.584-1.524-0.143-2.033c-0.83-0.583-1.383,0.226-1.807,0.778
		c-1.777,2.318-3.963,4.305-5.236,7.046c-0.863,1.86-2.572,3.179-4.383,4.077c-2.011,0.998-4.105,1.912-6.037,3.001
		c-1.947,1.099-3.95,1.87-6.036,2.46c-2.825,0.798-5.667,1.354-8.676,0.598c-1.309-0.328-2.88-0.672-4.148,0.615
		c-1.036,1.05-1.371,2.321-0.593,3.562c0.764,1.218,1.622,2.333,3.141,2.739c0.961,0.257,1.699,0.935,2.297,1.71
		c0.556,0.722,0.268,1.364-0.643,1.429c-2.37,0.165-4.414-0.813-5.915-2.457c-0.698-0.765-0.914-2.146-1.343-3.249
		c-0.907-2.328-2.76-3.58-4.875-4.576c-0.795-0.374-1.5-0.437-1.808,0.667c-0.204,0.733-0.856,1.042-1.494,1.338
		c-2.298,1.07-2.797,1.895-2.452,4.417c0.332,2.448,0.29,4.961,1.085,7.331c0.424,1.263,0.633,2.414-0.149,3.643
		c-0.369,0.58,0.158,1.096,0.568,1.564c1.538,1.76,3.091,3.512,3.816,5.814c0.215,0.68,0.576,1.409-0.305,1.772
		c-0.849,0.351-1.599-0.135-1.867-0.917c-0.306-0.889-0.751-1.386-1.687-1.557c-0.558-0.103-0.958-0.562-1.108-1.127
		c-0.318-1.201-1.101-1.967-2.213-2.417c-0.695-0.281-0.724-0.914-0.82-1.483c-0.091-0.545-0.281-0.988-0.804-1.188
		c-0.387-0.149-0.82-0.229-1.2,0.02c-0.478,0.313-0.218,0.72-0.098,1.111c0.188,0.618,0.338,1.248,0.963,1.607
		c0.597,0.346,0.49,0.931,0.48,1.481c-0.01,0.518-0.001,1.001,0.631,1.229c1.371,0.49,1.98,1.453,1.852,2.827
		c-0.189,2.028,1.785,3.487,3.656,2.693c0.293-0.124,0.553-0.341,0.853-0.438c0.303-0.099,0.687-0.153,0.905,0.132
		c0.243,0.317,0.012,0.625-0.237,0.84c-0.589,0.506-0.375,1.015-0.131,1.611c0.478,1.173,0.083,1.773-1.184,1.729
		c-1.819-0.063-3.575,0.104-5.236,0.904c-1.025,0.495-1.607,0.087-1.757-0.958c-0.13-0.913-0.479-1.401-1.508-1.357
		c-0.775,0.033-1.258-0.53-1.426-1.265c-0.1-0.434-0.255-0.871-0.618-1.034c-1.9-0.848-2.498-2.842-3.79-4.22
		c-0.365-0.391-0.595-0.753-1.035-0.143c-0.236,0.326-0.443,0.84-0.94,0.427c-0.391-0.324-0.379-0.854-0.176-1.283
		c0.152-0.318,0.457-0.568,0.706-0.838c0.262-0.284,0.283-0.562,0.012-0.85c-0.231-0.243-0.474-0.474-0.83-0.223
		c-1.193,0.843-1.596-0.111-1.617-0.92c-0.089-3.521-1.083-6.886-1.632-10.325c-0.043-0.271-0.125-0.537-0.196-0.804
		c-0.368-1.398-0.546-1.459-1.683-0.599c-0.105,0.08-0.232,0.131-0.356,0.185c-0.023,0.01-0.07-0.036-0.14-0.073
		c0.028-0.576,0.578-0.749,0.875-1.117c0.872-1.078,2.261-1.8,2.367-3.417c0.023-0.334,0.238-0.636,0.542-0.762
		c1.502-0.625,1.757-1.856,1.681-3.285c-0.093-1.722-0.19-3.407,1.666-4.466c0.645-0.368,0.555-1.27,0.435-1.934
		c-0.352-1.953,1.191-2.969,2.05-4.316c0.216-0.336,0.686-0.19,1.043-0.206c2.244-0.097,3.666-1.588,3.666-3.857
		c0.002-1.43,0.041-2.86-0.003-4.289c-0.041-1.394-0.067-2.757,0.816-3.962c0.174-0.24,0.287-0.626,0.238-0.913
		c-0.426-2.588-0.797-5.21-2.945-7.087c-1.193-1.041-2.782-0.771-4.16-1.227c-1.156-0.381-2.023-1.24-3.169-1.58
		c-0.107-0.03-0.263-0.23-0.242-0.309c0.494-1.79-1.42-3.053-1.02-4.845c0.305-1.358,0.014-2.982-0.773-3.796
		c-1.127-1.165-1.251-2.759-2.25-3.811c-0.73-0.771-0.875-1.499-0.9-2.454c-0.058-2.189-1.044-4.35-0.528-6.535
		c0.797-3.379,0.287-6.78,0.456-10.167c0.066-1.321-0.082-2.591-1.284-3.415c-0.511-0.35-0.353-0.812-0.357-1.239
		c-0.021-2.26-0.019-4.521-0.012-6.78c0.003-1.136-0.155-2.223-1.167-2.916c-0.526-0.36-0.487-0.827-0.488-1.326
		c-0.006-2.444,0.045-4.891-0.046-7.333c-0.032-0.834,0.638-1.17,0.838-1.758c0.567-1.667,1.702-2.998,2.454-4.539
		c0.709-1.449,1.159-3.006,2.445-4.131c0.442-0.387,0.402-1.092,0.397-1.706c-0.019-2.03,0.012-4.06-0.019-6.089
		c-0.011-0.71,0.101-1.152,0.963-1.091c0.9,0.063,1.528-0.485,2.149-1.074c2.098-1.99,3.863-4.34,6.443-5.812
		c0.648-0.371,1.286-0.679,2.007-0.831c0.089-0.019,0.208,0.021,0.272-0.024c1.62-1.142,3.498-1.553,5.356-2.121
		c0.942-0.289,2.06-0.317,2.824-0.844c1.355-0.935,3.063-1.347,4.156-2.619c1.091-1.27,2.353-1.782,4.017-1.611
		c1.659,0.171,3.102-0.218,4.654-1.147"/>
	<path fill="#272425" d="M83.693,64.186c1.479,0.047,2.989,0.006,4.455-0.515c0.492-0.174,1.164,0.032,1.371-0.683
		c0.205-0.714-0.321-1.097-0.729-1.528c-0.387-0.41-0.837-0.64-1.409-0.79c-2.315-0.605-4.595-0.594-6.955-0.157
		c-2.738,0.507-5.388,1.068-7.575,2.966c-0.592,0.513-1.151,0.266-1.236-0.577c-0.049-0.5-0.079-1.008,0.107-1.503
		c1.221-3.252,4.989-5.097,8.059-4.828c1.401,0.123,2.813,0.236,4.061-0.722c1.305-1,2.729-1.704,4.467-1.501
		c0.576,0.067,1.025-0.311,1.471-0.663c1.205-0.951,2.325-0.89,3.459,0.151c0.271,0.249,0.518,0.525,0.785,0.779
		c0.244,0.234,0.522,0.398,0.867,0.21c0.363-0.198,0.303-0.494,0.215-0.835c-0.091-0.353-0.076-0.731-0.139-1.093
		c-0.19-1.075-1.722-2.73-2.578-2.534c-1.16,0.265-1.405-0.4-1.598-1.186c-0.287-1.177-0.427-2.374,0.362-3.441
		c0.27-0.365,0.325-0.754,0.299-1.173c-0.039-0.595-3.069-3.884-3.654-3.977c-0.091-0.015-0.189-0.043-0.274-0.023
		c-2.473,0.572-4.939-0.491-7.401-0.043c-1.55,0.282-3.035,0.243-4.558-0.235c-1.753-0.551-3.268-1.411-4.349-2.891
		c-1.104-1.513-2.193-1.914-3.892-1.107c-0.757,0.36-1.541,0.595-2.327,0.846c-3.942,1.256-8.074,1.07-12.12,1.492
		c-1.931,0.201-3.452,0.814-4.905,2.058c-1.301,1.114-2.2,2.741-3.993,3.268c-0.345,0.101-0.501,0.414-0.319,0.78
		c0.545,1.104,0.768,2.353,1.639,3.315c1.576,1.744,1.699,2.925,0.511,4.963c-0.346,0.593-0.326,1.014-0.059,1.645
		c0.622,1.472,1.812,1.91,3.204,1.957c3.78,0.129,7.083,1.215,10.196,3.568c2.785,2.106,2.292,5.427,3.878,7.895
		c0.038,0.061,0,0.182-0.021,0.271c-0.49,2.127-0.19,4.324-0.557,6.455c-0.375,2.196-0.524,4.542-2.891,5.76
		c-0.257,0.132-0.376,0.356-0.376,0.678c0,3.548,5.016,6.443,8.016,4.396c1.658-1.131,2.978-1.744,4.884-0.817
		c0.907,0.442,1.562-0.231,1.414-1.18c-0.047-0.3-3.113-3.47-3.425-3.533c-0.135-0.027-0.283-0.006-0.41-0.05
		c-0.962-0.342-1.868-0.776-2.58-1.541c-0.8-0.857-0.316-1.634,0.179-2.363c0.497-0.73,1.092-0.45,1.809-0.199
		c1.58,0.555,2.402,2.268,4.147,2.547c0.495,0.08,0.424,0.66,0.398,1.065c-0.079,1.216,0.251,2.343,0.542,3.513
		c0.42,1.683,0.246,3.354-1.138,4.687c-1.232,1.188-2.489,0.896-3.791,0.177c-0.935-0.518-1.736-0.435-2.405,0.485
		c-0.408,0.559-1.03,0.679-1.705,0.761c-1.192,0.144-2.463,0-3.4,1.131c-0.406,0.491-1.336,0.518-1.777,0.053
		c-1.101-1.16-3.052-0.846-3.914-2.378c-0.104-0.185-0.626-0.091-0.891-0.239c-0.931-0.514-2.062-0.826-2.119-2.227
		c-0.037-0.896,0.283-1.496,1.06-1.91c0.727-0.385,2.323-4.182,1.917-4.888c-0.527-0.917-0.213-1.676,0.109-2.474
		c0.778-1.923,1.465-3.889,2.724-5.581c0.498-0.67,0.38-1.178-0.545-1.13c-1.042,0.054-1.617-0.401-1.976-1.342
		c-0.226-0.589-0.535-1.141-1.348-1.176c-0.84-0.038-1.048,0.478-1.346,1.1c-0.982,2.064-3.762,2.697-5.606,1.327
		c-0.216-0.162-0.411-0.437-0.712-0.264c-0.275,0.159-0.214,0.48-0.219,0.75c-0.004,0.328,0.059,0.632,0.251,0.915
		c0.657,0.962,0.158,1.332-0.772,1.439c-0.364,0.041-0.739,0.002-1.105,0.035c-1.154,0.103-2.43,0.157-3.032,1.301
		c-0.608,1.158-2.005,2.198-0.946,3.82c0.111,0.17,0.009,0.558-0.108,0.786c-1.072,2.092-0.556,3.798,1.187,5.259
		c0.645,0.542,1.231,1.248,1.093,2.108c-0.105,0.654,0.18,1.152,0.229,1.713c0.204,2.321,1.885,4.197,1.903,6.568
		c0.004,0.499,0.45,0.851,0.778,1.247c0.942,1.138,1.62,2.521,1.894,3.912c0.412,2.097,1.185,3.187,3.169,3.864
		c1.232,0.422,2.73,0.343,3.624,1.488c0.536,0.687,1.095,1.06,1.972,0.984c0.664-0.058,0.849,0.442,0.94,0.97
		c0.115,0.665-0.147,1.271-0.324,1.89c-0.458,1.595-0.225,3.035,0.69,4.462c1.298,2.026,2.937,3.32,5.457,3.204
		c0.221-0.011,0.446,0.097,0.669,0.15c3.884,0.938,7.65,1.181,11.354-0.925c1.963-1.115,3.498-2.531,5.022-4.156
		c1.916-2.043,2.815-4.391,3.684-6.972c1.035-3.076,2.697-5.948,4.533-8.675c0.227-0.338,0.452-0.735,0.501-1.128
		c0.212-1.698-0.048-3.406,0.584-5.117c0.558-1.51,0.603-3.211,0.872-4.827c0.094-0.565,0.493-0.789,0.964-1.056
		c1.066-0.604,2.167-1.636,1.923-2.741c-0.247-1.126-0.107-2.15-0.13-3.219c-0.044-2.202,0.386-4.271,1.504-6.21
		c0.768-1.331,0.585-2.716-0.035-4.105c-0.531-1.187-1.458-1.739-2.411-1.005c-0.827,0.636-1.778,1.207-2.268,2.283
		c-1.008,2.222-3.977,2.507-5.355,0.563c-0.48-0.677-0.943-1.061-1.797-0.479c-1.602,1.09-3.893,0.717-5.219-0.776
		c-1.006-1.131-1.78-1.142-2.717-0.033c-0.827,0.977-1.83,0.801-2.27-0.397c-0.423-1.151-0.089-2.156,1.051-2.628
		c1.443-0.598,2.932-1.022,4.552-0.688C80.518,64.082,82.07,64.315,83.693,64.186"/>
	<path fill="#272425" d="M50.598,64.822c1.415-0.153,2.833-0.28,4.241-0.474c0.48-0.066,1.062-0.136,1.217-0.744
		c0.171-0.677-0.358-1.046-0.8-1.319c-1.432-0.886-3.001-1.33-4.701-1.404c-1.419-0.061-2.594,0.239-3.582,1.354
		c-0.743,0.838-0.543,1.384,0.273,1.881C48.274,64.741,49.429,64.784,50.598,64.822"/>
	<path fill="#272425" d="M81.928,156.367c0.075,0.787-0.071,1.629,0.914,1.52c0.606-0.066,0.935-0.682,1.245-1.206
		c0.329-0.557-0.045-0.875-0.392-1.165c-0.769-0.642-0.505-1.166,0.134-1.677c0.452-0.36,1.106-0.581,1.015-1.341
		c-0.09-0.744,0.356-1.184,0.834-1.641c0.293-0.279,0.685-0.607,0.736-0.959c0.128-0.857,0.303-1.605,1.126-2.082
		c0.314-0.182,0.353-0.522,0.038-0.811c-0.413-0.379-2.059-0.192-2.092,0.301c-0.139,1.983-1.219,3.337-2.645,4.555
		c-0.275,0.235-0.383,0.738-0.448,1.137C82.197,154.168,82.242,155.372,81.928,156.367"/>
	<path fill="#272425" d="M75.996,37.295c0.651,0.075,1.389-0.1,1.935-0.757c0.294-0.354,0.422-0.929-0.152-0.932
		c-0.96-0.007-1.712-0.669-2.634-0.647c-0.643,0.016-1.607-0.28-1.672,0.676c-0.057,0.85,0.605,1.463,1.534,1.591
		C75.277,37.265,75.555,37.266,75.996,37.295"/>
	<path fill="#272425" d="M30.795,90.607c0.021,0.585,0.071,1.014,0.628,1.057c0.564,0.043,2.132-1.343,2.142-1.847
		c0.017-0.805-0.521-1.145-1.152-1.013C31.436,89.01,30.865,89.715,30.795,90.607"/>
	<path fill="#272425" d="M37.735,142.664c-0.366-0.635-0.093-1.797-1.307-1.891c-0.485-0.038-0.765,0.396-0.658,0.838
		c0.193,0.8,0.56,1.58,1.401,1.851C37.582,143.594,37.753,143.148,37.735,142.664"/>
	<path fill="#272425" d="M105.007,145.189c0.101-2.539-0.488-4.735-0.709-6.972c-0.066-0.682-0.021-1.374-0.078-2.058
		c-0.092-1.084-0.118-2.199-1.076-2.983c-0.212-0.176-0.404-0.426-0.302-0.721c0.142-0.41,0.545-0.313,0.823-0.273
		c1.415,0.203,2.86,0.001,4.185,0.993c0.601,0.449,1.795,0.22,2.701,0.126c2.534-0.264,4.427,0.487,5.318,3.047
		c0.043,0.122,0.151,0.253,0.264,0.311c2.062,1.049,3.362,3.145,5.52,4.041c0.693,0.289,1.136,0.681,1.389,1.394
		c0.355,1.003,0.965,1.703,2.151,1.877c0.643,0.094,1.216,0.609,1.844,0.878c1.195,0.509,1.822,2.028,3.468,1.816
		c0.439-0.057,0.939,0.623,0.838,1.247c-0.115,0.697-0.659,1.274-1.303,1.249c-3.467-0.134-5.498,2.15-7.506,4.397
		c-1.699,1.902-3.716,3.421-6.182,3.666c-1.175,0.117-2.955,0.029-3.855-1.471c-0.307-0.51-0.624-1.044-1.052-1.443
		c-1.118-1.043-1.784-2.049-0.255-3.283c0.219-0.177,0.264-0.51,0.009-0.734c-0.251-0.221-0.58-0.147-0.738,0.078
		c-0.71,1.02-1.494,0.742-2.361,0.243c-0.49-0.284-1.155-0.429-1.551,0c-0.483,0.524-0.271,1.232,0.087,1.796
		c0.96,1.514,2.1,2.903,2.981,4.474c0.774,1.377,0.82,1.343-0.762,1.841c-0.392,0.123-0.756,0.338-1.188,0.26
		c-2.059-0.369-3.417,0.699-4.561,2.217c-0.192,0.255-0.43,0.477-0.615,0.734c-0.314,0.438-0.684,0.824-1.258,0.617
		c-0.701-0.252-0.15-0.78-0.174-1.181c-0.078-1.384,0.381-2.628,1.061-3.804c0.531-0.919,0.557-1.994,0.55-2.953
		c-0.012-1.65,0.792-2.961,1.257-4.424C104.465,148.489,105.541,146.854,105.007,145.189 M106.105,139.875
		c-0.02,0.613,0.113,1.121,0.863,1.143c0.749,0.021,1.296-0.305,1.296-1.091c0-0.698-0.493-1.048-1.184-1.082
		C106.364,138.81,106.097,139.215,106.105,139.875"/>
	<path fill="#272425" d="M15.667,141.409c0.198-0.802,0.724-0.868,1.308-0.754c1.242,0.246,2.272-0.081,3.091-1.056
		c0.059-0.069,0.135-0.128,0.213-0.175c0.706-0.416,1.528-1.121,2.227-0.75c0.499,0.268-0.053,1.255-0.112,1.925
		c-0.151,1.661,0.27,3.291,0.28,4.946c0.003,0.69,0.125,1.383,0.087,2.068c-0.054,0.925,0.092,1.71,0.856,2.344
		c0.521,0.434,0.688,1.109,0.696,1.757c0.018,1.372,0.554,2.559,1.014,3.82c0.473,1.301,1.258,2.111,2.406,2.651
		c0.843,0.396,1.3,0.99,1.376,1.893c0.095,1.129,0.987,1.844,1.419,2.795c0.546,1.206,0.352,1.486-0.961,1.362
		c-1.697-0.163-3.396-0.274-5.104-0.226c-1.206,0.034-2.404,0.029-3.351,0.948c-0.269,0.26-0.604,0.189-0.915,0.193
		c-2.812,0.023-5.622,0.058-8.433,0.043c-1.229-0.006-3.65-2.052-3.461-3.217c0.484-2.988-1.215-4.949-3.171-6.455
		c-2.364-1.82-2.666-4.061-2.531-6.655c0.031-0.572,0.188-1.188,0.735-1.135c1.447,0.139,2.505-0.828,3.735-1.231
		c1.193-0.389,2.071-1.61,2.567-2.871c0.547-1.391,0.982-1.543,2.251-0.625c0.036,0.027,0.064,0.074,0.104,0.09
		c0.88,0.325,1.755,0.616,2.369-0.455c0.663,0.588,1.377,0.947,2.193,0.31c0.392-0.308,0.883-0.675,0.653-1.253
		C16.904,140.938,16.233,141.623,15.667,141.409 M18.218,151.336c1.32,0.203,1.954-1.12,2.727-2.072c0.453-0.559-0.208-1-0.719-0.93
		c-0.982,0.135-2.056,0.037-2.902,0.701c-0.549,0.432-1.582,0.689-1.387,1.498C16.146,151.401,17.165,151.265,18.218,151.336"/>
	<path fill="#272425" d="M50.073,153.804c0.287,0.15,0.828,0.287,1.151,0.63c1.265,1.348,2.827,2.347,4.089,3.733
		c0.742,0.815,1.403,1.963,2.688,2.34c0.746,0.218,0.685,0.907,0.015,1.189c-0.584,0.247-0.882,0.569-1.043,1.144
		c-0.083,0.297-0.237,0.649-0.659,0.572c-0.455-0.082-0.479-0.376-0.472-0.818c0.026-1.216-0.445-2.462-1.055-3.34
		c-0.534-0.768-1.462-1.529-2.348-2.071c-0.878-0.539-1.57-1.438-2.742-1.513c-0.562-0.035-0.647-0.573-0.611-1.071
		C49.123,154.111,49.373,153.839,50.073,153.804"/>
	<path fill="#272425" d="M39.833,161.571c2.296,0.125,3.438,1.283,3.432,2.456c-0.001,0.347,0.146,0.795-0.269,0.995
		c-0.436,0.21-0.663-0.139-0.859-0.466c-0.2-0.336-0.464-0.654-0.876-0.416c-0.325,0.187-0.478,0.561-0.426,0.957
		c0.03,0.225,0.174,0.443,0.168,0.662c-0.013,0.477-0.179,0.952-0.62,1.155c-0.494,0.228-0.816-0.247-0.973-0.566
		c-0.468-0.966-1.471-1.64-1.437-2.891C38.014,161.998,38.391,161.548,39.833,161.571"/>
	<path fill="#272425" d="M46.861,160.391c0.023-0.934,0.47-1.246,1.351-0.932c0.495,0.176,0.868,0.521,1.198,0.91
		c0.465,0.549,0.883,0.713,1.465,0.098c0.522-0.552,1.297-0.674,2.006-0.856c0.411-0.106,0.852-0.034,1.065,0.421
		c0.234,0.5,0.047,0.955-0.385,1.195c-0.61,0.34-1.025,0.898-1.547,1.282c-1.23,0.905-2.556,0.071-3.775-0.253
		C47.48,162.054,46.826,161.38,46.861,160.391"/>
	<path fill="#272425" d="M32.201,157.414c-0.006,0.315-0.456,0.721-0.996,0.996c-0.554,0.284-1.128,0.004-1.566-0.283
		c-0.492-0.322-0.272-0.818,0.051-1.197c0.778-0.917,1.224-1.933,1.082-3.168c-0.035-0.304-0.051-0.711,0.386-0.769
		c0.452-0.062,0.477,0.318,0.521,0.645C31.834,154.771,31.992,155.906,32.201,157.414"/>
	<path fill="#272425" d="M66.525,165.613c-1.281,0.437-2.136,0.306-2.921-0.308c-0.405-0.316-0.86-0.521-1.39-0.534
		c-0.568-0.016-0.963-0.292-1.111-0.846c-0.088-0.326-0.049-0.688,0.277-0.853c0.531-0.266,1.09-0.236,1.516,0.217
		C63.842,164.292,64.984,164.996,66.525,165.613"/>
	<path fill="#272425" d="M75.116,166.751c-1.071-0.514-1.798-1.369-2.952-1.699c1.299-0.258,2.151-0.952,2.696-2.062
		c0.169-0.346,0.425-0.812,0.906-0.692c0.422,0.103,0.606,0.502,0.63,0.963c0.027,0.516-0.167,0.887-0.615,1.127
		C74.207,165.229,74.185,165.294,75.116,166.751"/>
	<path fill="#272425" d="M97.668,172.879c-0.611,1.099-1.168,1.801-1.373,2.708c-0.131,0.585-0.783,0.271-1.192,0.233
		c-0.472-0.043-0.886-0.256-0.877-0.852c0.01-0.588,0.186-1.119,0.769-1.326C95.749,173.373,96.535,173.196,97.668,172.879"/>
	<path fill="#272425" d="M79.402,158.034c-0.018,1.387-0.828,2.292-1.826,3.082c-0.196,0.155-0.46,0.194-0.639,0.039
		c-0.332-0.286-0.296-0.749-0.08-1.003c0.575-0.68,0.896-1.453,1.138-2.287c0.122-0.418,0.479-0.523,0.884-0.458
		C79.241,157.466,79.457,157.662,79.402,158.034"/>
	<path fill="#272425" d="M46.296,168.303c-0.236,0.569-0.562,1.14-1.136,1.096c-0.525-0.043-1.027-0.53-0.98-1.15
		c0.042-0.553,0.476-0.889,1.062-0.873C45.839,167.393,46.106,167.807,46.296,168.303"/>
	<path fill="#272425" d="M48.762,166.147c-0.005,0.699-0.578,0.699-0.968,0.771c-0.456,0.082-0.812-0.272-0.802-0.711
		c0.012-0.55,0.41-0.954,0.959-0.948C48.457,165.265,48.692,165.698,48.762,166.147"/>
	<path fill="#FFFFFF" d="M83.693,64.185c-1.623,0.13-3.176-0.103-4.708-0.419c-1.619-0.334-3.108,0.091-4.552,0.688
		c-1.14,0.472-1.474,1.478-1.051,2.628c0.439,1.199,1.442,1.375,2.27,0.397c0.937-1.109,1.711-1.099,2.717,0.033
		c1.326,1.493,3.617,1.866,5.219,0.776c0.854-0.582,1.316-0.198,1.797,0.479c1.379,1.943,4.348,1.658,5.355-0.563
		c0.489-1.076,1.44-1.646,2.268-2.284c0.953-0.732,1.88-0.18,2.411,1.007c0.618,1.389,0.803,2.774,0.035,4.105
		c-1.118,1.938-1.548,4.007-1.504,6.21c0.022,1.07-0.117,2.093,0.13,3.219c0.244,1.105-0.856,2.136-1.923,2.741
		c-0.471,0.267-0.87,0.491-0.964,1.056c-0.27,1.617-0.314,3.316-0.872,4.827c-0.632,1.711-0.372,3.418-0.584,5.117
		c-0.049,0.393-0.274,0.79-0.501,1.128c-1.836,2.727-3.498,5.599-4.533,8.675c-0.868,2.581-1.768,4.929-3.684,6.972
		c-1.524,1.625-3.06,3.041-5.022,4.156c-3.704,2.105-7.471,1.863-11.354,0.925c-0.223-0.054-0.448-0.161-0.669-0.15
		c-2.521,0.116-4.159-1.178-5.457-3.204c-0.915-1.427-1.148-2.867-0.69-4.462c0.177-0.618,0.439-1.225,0.324-1.89
		c-0.092-0.527-0.276-1.027-0.94-0.97c-0.877,0.075-1.436-0.298-1.972-0.984c-0.895-1.146-2.392-1.066-3.624-1.488
		c-1.984-0.679-2.757-1.769-3.169-3.864c-0.273-1.392-0.951-2.774-1.894-3.911c-0.328-0.397-0.774-0.749-0.778-1.247
		c-0.019-2.372-1.699-4.248-1.903-6.571c-0.049-0.56-0.334-1.058-0.229-1.712c0.139-0.86-0.448-1.566-1.093-2.108
		c-1.742-1.462-2.259-3.167-1.187-5.259c0.117-0.229,0.22-0.616,0.108-0.786c-1.059-1.622,0.338-2.663,0.946-3.82
		c0.603-1.144,1.878-1.198,3.032-1.301c0.366-0.033,0.741,0.006,1.105-0.037c0.931-0.106,1.43-0.477,0.772-1.438
		c-0.192-0.283-0.255-0.587-0.251-0.915c0.005-0.271-0.057-0.591,0.219-0.75c0.301-0.173,0.496,0.102,0.712,0.263
		c1.845,1.371,4.624,0.738,5.607-1.326c0.297-0.622,0.505-1.138,1.345-1.1c0.812,0.035,1.122,0.587,1.348,1.176
		c0.358,0.941,0.934,1.396,1.976,1.342c0.925-0.048,1.043,0.459,0.545,1.13c-1.259,1.692-1.945,3.657-2.724,5.581
		c-0.322,0.798-0.637,1.556-0.109,2.474c0.406,0.706-1.19,4.502-1.917,4.888c-0.776,0.414-1.097,1.014-1.06,1.91
		c0.057,1.4,1.188,1.712,2.119,2.227c0.265,0.148,0.786,0.054,0.891,0.239c0.862,1.532,2.813,1.218,3.914,2.376
		c0.441,0.466,1.371,0.439,1.777-0.051c0.938-1.131,2.208-0.987,3.4-1.131c0.675-0.082,1.297-0.202,1.705-0.761
		c0.669-0.92,1.471-1.003,2.405-0.485c1.302,0.719,2.559,1.012,3.791-0.177c1.384-1.333,1.558-3.003,1.138-4.687
		c-0.291-1.169-0.621-2.297-0.542-3.513c0.025-0.405,0.097-0.985-0.398-1.065c-1.745-0.279-2.567-1.992-4.147-2.547
		c-0.717-0.25-1.312-0.531-1.809,0.199c-0.495,0.729-0.979,1.506-0.179,2.363c0.712,0.765,1.618,1.199,2.58,1.541
		c0.127,0.044,0.275,0.023,0.41,0.05c0.312,0.063,3.378,3.233,3.425,3.533c0.148,0.949-0.507,1.622-1.414,1.18
		c-1.906-0.927-3.226-0.314-4.884,0.817c-3,2.047-8.016-0.848-8.016-4.396c0-0.322,0.119-0.546,0.376-0.678
		c2.366-1.218,2.516-3.564,2.891-5.76c0.366-2.131,0.066-4.328,0.557-6.455c0.021-0.089,0.059-0.209,0.021-0.271
		c-1.586-2.468-1.093-5.789-3.878-7.895c-3.113-2.353-6.416-3.439-10.196-3.568c-1.393-0.047-2.582-0.485-3.204-1.957
		c-0.268-0.631-0.287-1.051,0.059-1.645c1.188-2.039,1.065-3.22-0.511-4.963c-0.871-0.963-1.094-2.211-1.639-3.315
		c-0.182-0.366-0.025-0.679,0.319-0.78c1.793-0.527,2.692-2.154,3.993-3.269c1.453-1.244,2.975-1.857,4.905-2.058
		c4.046-0.421,8.178-0.236,12.12-1.492c0.786-0.25,1.57-0.486,2.327-0.846c1.698-0.806,2.788-0.405,3.892,1.107
		c1.081,1.481,2.596,2.341,4.349,2.892c1.522,0.478,3.008,0.518,4.558,0.235c2.462-0.448,4.929,0.615,7.401,0.043
		c0.085-0.02,0.184,0.008,0.274,0.023c0.585,0.092,3.615,3.382,3.654,3.977c0.026,0.419-0.029,0.808-0.299,1.173
		c-0.789,1.067-0.649,2.264-0.362,3.441c0.192,0.785,0.438,1.451,1.598,1.186c0.856-0.196,2.388,1.459,2.578,2.534
		c0.062,0.361,0.048,0.74,0.139,1.093c0.088,0.341,0.148,0.637-0.215,0.835c-0.345,0.188-0.623,0.023-0.867-0.211
		c-0.268-0.254-0.515-0.53-0.785-0.779c-1.133-1.041-2.254-1.103-3.459-0.151c-0.445,0.353-0.895,0.73-1.472,0.663
		c-1.736-0.202-3.161,0.501-4.466,1.501c-1.247,0.958-2.659,0.845-4.061,0.722c-3.069-0.269-6.838,1.576-8.059,4.828
		c-0.187,0.496-0.156,1.005-0.107,1.503c0.085,0.842,0.645,1.09,1.236,0.577c2.188-1.898,4.837-2.46,7.575-2.966
		c2.36-0.437,4.64-0.448,6.955,0.157c0.572,0.15,1.022,0.379,1.409,0.79c0.407,0.432,0.934,0.814,0.729,1.527
		c-0.207,0.715-0.879,0.51-1.371,0.684C86.683,64.192,85.172,64.233,83.693,64.185 M75.925,99.104
		c0.595,0.171,1.262-0.438,2.022-0.874c0.581-0.333,1.26-0.562,1.066-1.37c-0.205-0.858-0.997-0.66-1.615-0.671
		c-1.19-0.02-2.405,0.049-3.492-0.534c-1.43-0.768-2.925-0.503-4.436-0.489c-1.448,0.012-2.802,0.733-4.325,0.294
		c-1.98-0.572-3.908-0.509-5.968,0.275c-1.421,0.54-2.71,1.519-4.332,1.628c-0.601,0.039-1.144,0.664-1.321,1.296
		c-0.197,0.705,0.44,1.147,0.913,1.405c1.279,0.697,2.867,1.192,4.064,0.377c3.336-2.271,6.989-2.524,10.807-2.356
		c1.806,0.079,3.678-0.397,5.288,0.897C74.805,99.148,75.224,99.051,75.925,99.104 M66.844,102.531c0,0.009,0,0.019,0,0.026
		c0.779,0,1.561,0.042,2.336-0.017c0.394-0.03,0.854-0.182,0.886-0.7c0.026-0.452-0.37-0.58-0.703-0.739
		c-1.567-0.752-3.149-0.143-4.721-0.025c-0.364,0.026-0.897,0.22-0.791,0.764c0.083,0.428,0.483,0.669,0.931,0.684
		C65.468,102.55,66.157,102.531,66.844,102.531"/>
	<path fill="#FFFFFF" d="M50.6,64.822c-1.171-0.039-2.325-0.081-3.354-0.706c-0.816-0.497-1.017-1.043-0.273-1.881
		c0.988-1.116,2.163-1.416,3.582-1.354c1.7,0.074,3.27,0.518,4.701,1.404c0.441,0.273,0.971,0.642,0.8,1.319
		c-0.155,0.608-0.736,0.678-1.217,0.744C53.431,64.542,52.013,64.669,50.6,64.822"/>
	<path fill="#FFFFFF" d="M81.928,156.367c0.314-0.995,0.27-2.199,0.465-3.369c0.066-0.4,0.174-0.901,0.449-1.137
		c1.426-1.218,2.506-2.571,2.645-4.555c0.033-0.493,1.679-0.678,2.092-0.301c0.314,0.288,0.276,0.629-0.038,0.811
		c-0.823,0.477-0.998,1.225-1.126,2.082c-0.052,0.35-0.443,0.68-0.736,0.959c-0.478,0.457-0.924,0.896-0.834,1.641
		c0.092,0.76-0.562,0.98-1.015,1.341c-0.639,0.511-0.902,1.035-0.134,1.677c0.347,0.29,0.721,0.608,0.392,1.165
		c-0.311,0.524-0.64,1.14-1.245,1.206C81.856,157.994,82.003,157.154,81.928,156.367"/>
	<path fill="#FFFFFF" d="M75.997,37.295c-0.442-0.029-0.718-0.031-0.99-0.068c-0.931-0.127-1.591-0.742-1.534-1.591
		c0.064-0.956,1.029-0.661,1.672-0.676c0.922-0.022,1.674,0.64,2.634,0.647c0.574,0.003,0.446,0.578,0.152,0.932
		C77.385,37.196,76.647,37.37,75.997,37.295"/>
	<path fill="#FFFFFF" d="M30.795,90.607c0.07-0.892,0.641-1.597,1.617-1.802c0.631-0.132,1.169,0.208,1.152,1.013
		c-0.01,0.504-1.578,1.89-2.143,1.847C30.865,91.621,30.816,91.192,30.795,90.607"/>
	<path fill="#FFFFFF" d="M37.735,142.664c0.018,0.484-0.153,0.93-0.563,0.798c-0.842-0.271-1.208-1.051-1.401-1.851
		c-0.106-0.442,0.173-0.876,0.658-0.838C37.643,140.867,37.369,142.029,37.735,142.664"/>
	<path fill="#FFFFFF" d="M106.105,139.875c-0.009-0.66,0.258-1.065,0.976-1.03c0.69,0.034,1.184,0.384,1.184,1.082
		c0,0.787-0.547,1.112-1.296,1.091C106.219,140.996,106.086,140.488,106.105,139.875"/>
	<path fill="#FFFFFF" d="M18.218,151.336c-1.053-0.071-2.072,0.065-2.281-0.803c-0.195-0.809,0.838-1.066,1.387-1.498
		c0.846-0.664,1.919-0.566,2.902-0.701c0.511-0.07,1.172,0.371,0.719,0.93C20.171,150.216,19.538,151.539,18.218,151.336"/>
	<path fill="#272425" d="M75.925,99.104c-0.701-0.054-1.12,0.044-1.327-0.122c-1.611-1.295-3.483-0.818-5.289-0.897
		c-3.817-0.168-7.471,0.085-10.807,2.356c-1.197,0.815-2.785,0.32-4.066-0.377c-0.471-0.258-1.108-0.7-0.911-1.405
		c0.178-0.632,0.721-1.257,1.321-1.296c1.622-0.109,2.911-1.088,4.332-1.628c2.06-0.784,3.987-0.848,5.968-0.275
		c1.522,0.44,2.877-0.282,4.325-0.294c1.511-0.014,3.008-0.278,4.436,0.489c1.087,0.583,2.302,0.515,3.494,0.534
		c0.616,0.011,1.408-0.188,1.613,0.671c0.193,0.808-0.485,1.037-1.066,1.37C77.187,98.666,76.52,99.274,75.925,99.104"/>
	<path fill="#272425" d="M66.844,102.531c-0.687,0-1.376,0.019-2.062-0.008c-0.447-0.015-0.848-0.256-0.931-0.684
		c-0.106-0.544,0.427-0.737,0.791-0.764c1.571-0.117,3.153-0.727,4.721,0.025c0.333,0.159,0.729,0.287,0.703,0.739
		c-0.032,0.519-0.492,0.67-0.886,0.7c-0.775,0.059-1.557,0.017-2.336,0.017C66.844,102.55,66.844,102.54,66.844,102.531"/>
	<line fill="none" x1="2.267" y1="0.682" x2="2.267" y2="181.756"/>
	<line fill="none" x1="131.865" y1="181.756" x2="131.865" y2="0.682"/>
	<line fill="none" x1="2.267" y1="0.682" x2="2.267" y2="181.756"/>
	<line fill="none" x1="131.865" y1="181.756" x2="131.865" y2="0.682"/>
</g>
</svg>
