<?xml version="1.0" encoding="utf-8"?>
<!-- Generator: Adobe Illustrator 16.0.0, SVG Export Plug-In . SVG Version: 6.00 Build 0)  -->
<!DOCTYPE svg PUBLIC "-//W3C//DTD SVG 1.1//EN" "http://www.w3.org/Graphics/SVG/1.1/DTD/svg11.dtd">
<svg version="1.1" id="Layer_1" xmlns="http://www.w3.org/2000/svg" xmlns:xlink="http://www.w3.org/1999/xlink" x="0px" y="0px"
	 width="137px" height="157px" viewBox="0 0 137 157" enable-background="new 0 0 137 157" xml:space="preserve">
<path fill="#FFFFFF" d="M1.997,2.589h136.8v174.8H1.997V2.589z M86.46,135.275c0.788-0.239,1.593-0.438,2.356-0.737
	c0.25-0.099,0.445-0.433,0.586-0.702c0.187-0.348,0.255-0.759,0.449-1.102c0.157-0.274,0.431-0.485,0.651-0.728
	c0.123,0.272,0.298,0.533,0.363,0.82c0.188,0.838,0.702,1.215,1.344,0.937c1.052-0.459,1.229-0.365,1.329,0.812
	c0.124,1.438,0.309,2.881,0.285,4.317c-0.02,1.268-0.11,2.586-0.504,3.772c-0.238,0.721-0.76,1.293-0.61,2.175
	c0.073,0.434-0.194,0.975-0.433,1.398c-0.604,1.078-1.285,2.111-1.911,3.179c-0.073,0.124-0.017,0.344,0.022,0.51
	c0.365,1.583-0.711,3.146-2.348,3.392c-1.385,0.209-1.753,0.658-2.176,1.921c-0.174,0.516-0.803,0.922-1.297,1.274
	c-0.504,0.362-1.101,0.598-1.651,0.896c-0.247,0.134-0.481,0.295-0.729,0.428c-1.223,0.656-2.453,1.298-3.664,1.977
	c-0.227,0.125-0.373,0.395-0.557,0.598c0.477,0.16,0.896,0.17,1.26,0.027c1.002-0.394,2.031-0.762,2.957-1.297
	c2.104-1.218,4.358-2.293,6.172-3.865c2.228-1.926,4.078-4.287,6.065-6.486c0.504-0.559,1.022-1.152,1.334-1.825
	c1.058-2.272,2.074-4.567,3.013-6.893c0.793-1.962,1.11-3.966-0.021-5.955c-0.168-0.298-0.285-0.718-0.219-1.034
	c0.164-0.768-0.146-1.169-0.814-1.396c-0.861-0.289-1.136-0.926-1.092-1.774c0.018-0.36-0.021-0.724-0.021-1.086
	c0.025-4.771,0.053-9.543,0.086-14.313c0-0.144,0.062-0.283,0.078-0.426c0.188-1.865,0.481-3.729,0.527-5.597
	c0.047-2.062,0.4-4.003,1.232-5.892c0.443-1.002,0.703-2.09,1.008-3.148c0.369-1.284,0.695-2.581,1.051-3.869
	c0.036-0.135,0.107-0.292,0.216-0.367c0.644-0.455,0.538-1.05,0.491-1.734c-0.125-1.844-0.5-3.791,1.297-5.173
	c0.133-0.103,0.223-0.292,0.275-0.46c0.275-0.863,0.949-1.125,1.734-1.439c0.862-0.344,1.678-0.94,2.35-1.596
	c0.689-0.676,0.449-1.253-0.434-1.719c-0.287-0.15-0.576-0.451-0.691-0.75c-0.529-1.368-1-2.758-1.482-4.143
	c-0.044-0.127-0.068-0.297-0.023-0.416c0.371-0.963,0.635-1.994,1.168-2.857c0.847-1.366,1.811-2.675,2.858-3.89
	c0.417-0.48,1.203-0.638,1.816-0.952c0.235-0.121,0.604-0.233,0.647-0.413c0.051-0.212-0.127-0.569-0.316-0.726
	c-0.357-0.295-0.842-0.44-1.189-0.744c-0.268-0.233-0.596-0.632-0.568-0.924c0.138-1.36,0.373-2.711,0.604-4.061
	c0.189-1.124,0.591-2.239,0.604-3.361c0.065-5.355,0.047-10.712,0.012-16.067c-0.006-0.85-0.25-1.698-0.393-2.546
	c-0.1-0.596-0.178-1.199-0.326-1.782c-0.133-0.524-0.402-1.015-0.508-1.542c-0.08-0.38-0.043-0.807,0.045-1.189
	c0.058-0.251,0.433-0.462,0.433-0.691c-0.005-1.551,0.126-3.142-0.173-4.643c-0.301-1.501-1.457-2.822-0.93-4.51
	c0.01-0.03-0.006-0.073-0.021-0.104c-0.841-1.729-1.66-3.47-3.295-4.635c-0.261-0.186-0.511-0.4-0.72-0.64
	c-1.39-1.587-2.709-3.241-4.172-4.756c-0.703-0.726-1.695-1.16-2.511-1.786c-1.582-1.216-3.122-2.487-4.698-3.709
	c-0.638-0.493-1.32-0.927-1.994-1.371c-0.205-0.136-0.437-0.253-0.672-0.318c-1.027-0.282-2.062-0.539-3.094-0.81
	c-0.066-0.017-0.146-0.055-0.184-0.108c-1.034-1.517-2.831-1.892-4.234-2.853c-0.8-0.547-1.536-1.061-2.566-0.701
	c-0.143,0.049-0.361-0.125-0.733-0.267c0.62-0.266,1.063-0.455,1.507-0.643c-0.018-0.099-0.036-0.198-0.055-0.297
	c-0.445-0.064-0.891-0.139-1.336-0.193c-1.744-0.206-3.613,0.547-5.228-0.688c-0.097-0.074-0.284-0.019-0.427-0.042
	c-3.216-0.525-5.577,1.369-7.953,2.989c-1.034,0.706-1.81,1.678-3.235,1.5c-0.257-0.032-0.546,0.344-0.834,0.372
	c-0.23,0.021-0.703-0.279-0.695-0.304c0.333-0.931-0.518-1.021-0.937-1.273c-0.51,0.174-1.006,0.303-1.464,0.222
	c-0.676-0.118-1.315-0.446-1.991-0.574c-0.628-0.12-1.528,0.155-1.878-0.186c-0.67-0.654-1.362-0.545-2.095-0.554
	c-1.23-0.016-2.461-0.039-3.69,0.013c-0.386,0.017-0.773,0.242-1.144,0.407C47,5.913,46.279,6.503,45.513,6.561
	c-0.811,0.062-1.318,0.32-1.83,0.877c-0.288,0.315-0.712,0.547-1.118,0.707c-0.775,0.305-1.597,0.492-2.37,0.801
	c-0.997,0.399-1.927,1.086-2.952,1.262c-1.761,0.302-2.284,2.312-3.97,2.602c-0.877,1.794-2.524,3.252-2.349,5.514
	c0.021,0.276-0.273,0.648-0.521,0.86c-1.213,1.048-1.806,2.384-1.61,3.938c0.311,2.463-1.006,4.316-1.964,6.372
	c-0.429,0.92-0.101,2.221-0.013,3.342c0.041,0.521,0.47,1.023,0.477,1.537c0.045,3.501,0.017,7.003,0.034,10.505
	c0.002,0.378,0.121,0.762,0.228,1.131c0.142,0.489,0.462,0.964,0.467,1.448c0.039,3.869-0.027,7.74,0.042,11.608
	c0.035,1.936,0.278,3.868,0.443,5.8c0.062,0.732-0.253,1.095-0.974,1.119c-0.505,0.017-1.047-0.091-1.506,0.059
	c-0.492,0.16-0.906,0.557-1.355,0.85c0.079,0.134,0.158,0.267,0.236,0.4c0.306-0.112,0.605-0.272,0.921-0.323
	c0.31-0.051,0.779-0.124,0.934,0.041c0.676,0.725,1.245,1.547,1.89,2.303c0.35,0.41,0.709,0.921,1.175,1.104
	c1.893,0.743,2.697,3.843,1.365,5.405c-0.295,0.346-0.629,0.795-0.652,1.213c-0.109,2.031-0.821,3.83-1.764,5.603
	c-0.681,1.279,0.015,2.251,1.409,1.956c1.05-0.223,1.582-0.056,2.249,0.838c1.184,1.586,1.488,3.553,0.512,5.326
	c-0.122,0.224-0.158,0.714-0.024,0.82c1.32,1.062,1.058,2.565,1.177,3.963c0.021,0.241-0.099,0.552,0.013,0.718
	c1.231,1.816,1.468,3.846,1.284,5.951c-0.392,4.49-0.848,8.977-1.219,13.469c-0.214,2.59-0.294,5.189-0.479,7.781
	c-0.1,1.402-0.372,2.795-0.422,4.197c-0.067,1.828-0.363,2.244-2.197,2.525c-0.666,0.103-2.848,2.144-3.029,2.816
	c-0.437,1.621-1.267,2.98-2.771,3.798c-1.394,0.759-2.823,1.454-4.265,2.113c-1.051,0.479-2.096,0.985-3.344,0.774
	c-1.935-0.33-3.616,0.193-5.162,1.471c-0.629,0.519-1.632,0.566-2.438,0.893c-1.618,0.653-3.238,1.309-4.818,2.044
	c-0.98,0.458-1.889,1.07-2.739,1.562c0.965,1.072,1.79,2.008,2.637,2.921c0.633,0.684,1.211,1.767,1.965,1.917
	c1.531,0.305,1.144,1.271,1.182,2.168c0.018,0.433,0.036,0.871-0.002,1.303c-0.074,0.854,0.292,1.148,1.139,1.121
	c1.764-0.062,1.856-0.275,1.783,1.709c-0.035,0.971,0.335,1.242,1.269,1.227c2.821-0.05,5.65,0.084,8.465-0.059
	c1.686-0.086,2.999,0.305,4.024,1.648c0.302,0.396,0.698,0.725,1.01,1.115c1.06,1.33,2.367,1.995,4.106,1.662
	c0.786-0.148,1.516,0,1.987,0.73c0.459,0.71,1.133,0.816,1.884,0.726c0.69-0.084,1.282,0.046,1.69,0.673
	c0.501,0.764,1.249,0.808,2.082,0.805c1.042,0,2.172-0.33,3.061,0.628c0.148,0.159,0.722,0.161,0.916,0.006
	c1.218-0.974,2.634-0.544,3.973-0.658c0.613-0.053,1.222-0.166,1.833-0.251c0.029-0.117,0.057-0.236,0.086-0.354
	c-0.465-0.403-0.965-0.776-1.39-1.219c-0.89-0.928-1.764-1.871-2.605-2.846c-1.386-1.6-2.774-3.199-4.092-4.854
	c-0.482-0.606-0.115-1.907,0.416-2.344c0.292-0.24,0.439-0.654,0.653-0.988c-0.366-0.137-0.748-0.42-1.094-0.381
	c-0.722,0.08-0.966-0.223-1.286-0.824c-0.478-0.896-1.088-1.784-1.838-2.459c-0.699-0.627-1.069-1.514-0.743-2.387
	c0.192-0.513,0.163-1.13,0.134-1.693c-0.021-0.422-0.225-0.83-0.306-1.254c-0.468-2.426-0.929-4.854-1.375-7.283
	c-0.043-0.231,0.031-0.484,0.071-0.952c0.395,0.513,0.619,0.804,0.879,1.142c0.699-0.651,0.654-1.203,0.202-1.877
	c-0.237-0.353-0.261-0.85-0.381-1.281c0.114-0.029,0.229-0.06,0.343-0.088c0.171,0.287,0.342,0.574,0.513,0.86l0.29-0.003
	c0.059-0.46,0.271-0.968,0.143-1.367c-0.233-0.727-0.667-1.387-1.05-2.143c1.164-0.278,1.158-0.764,0.502-1.461
	c-0.156-0.165-0.256-0.58-0.157-0.75c0.377-0.658,0.846-1.262,1.144-1.692c1.104,0.196,2.15,0.379,3.195,0.569
	c0.102,0.018,0.245,0.055,0.284,0.128c0.602,1.129,2.192,1.665,1.971,3.308c-0.025,0.188,0.281,0.577,0.467,0.602
	c0.225,0.027,0.577-0.178,0.709-0.385c0.159-0.252,0.083-0.643,0.22-0.918c0.184-0.373,0.473-0.693,0.716-1.037
	c0.25,0.348,0.584,0.666,0.717,1.055c0.083,0.244-0.079,0.627-0.233,0.887c-0.387,0.652-0.135,1.174,0.384,1.495
	c0.882,0.546,1.842,0.966,2.758,1.458c1.194,0.643,2.37,1.312,3.566,1.951c0.471,0.251,0.968,0.451,1.46,0.66
	c1.58,0.668,3.194,1.267,4.73,2.023c0.773,0.383,1.376,1.124,2.23,0.16c0.14-0.158,0.546-0.113,0.829-0.111
	c2.604,0.028,5.207,0.123,7.809,0.082c1.644-0.025,3.285-0.332,4.927-0.356c1.412-0.023,2.86-0.324,4.236,0.466
	c0.358,0.204,1.234,0.002,1.555-0.323c0.797-0.812,1.74-0.942,2.76-1.024c0.341-0.028,0.67-0.191,1.011-0.248
	c0.392-0.062,0.815-0.186,1.183-0.094c1.088,0.271,2.306-0.517,2.432-1.648L86.46,135.275z M100.498,131.021
	c-0.061,0.134-0.118,0.266-0.178,0.398c0.389,0.339,0.746,0.725,1.172,1.01c0.801,0.537,1.693,0.953,2.438,1.559
	c0.285,0.23,0.463,0.904,0.348,1.268c-1.008,3.184-1.846,6.396-3.549,9.367c-2.705,4.723-5.918,9.04-9.41,13.176
	c-1.066,1.264-2.299,2.387-3.353,3.659c-2.442,2.955-5.36,5.312-8.694,7.175c-0.769,0.432-1.526,0.878-2.295,1.321
	c0.123,0.187,0.149,0.272,0.203,0.296c1.325,0.566,2.631,1.188,4.159,0.93c0.265-0.045,0.685,0.221,0.872,0.465
	c0.807,1.047,1.902,1.182,3.09,1.104c0.649-0.043,1.299-0.125,1.947-0.127c4.74-0.013,9.479-0.021,14.22,0.017
	c0.435,0.002,0.974,0.234,1.273,0.545c0.678,0.697,1.396,0.977,2.382,0.926c1.73-0.092,3.473-0.018,5.207-0.031
	c0.312-0.004,0.637-0.079,0.936-0.18c0.476-0.158,0.926-0.491,1.402-0.523c0.699-0.047,0.969-0.297,0.958-0.984
	c-0.022-1.447-0.011-2.896,0-4.343c0.001-0.323-0.077-0.797,0.097-0.942c0.926-0.771,0.594-1.789,0.614-2.722
	c0.038-1.7,0.06-3.403-0.006-5.1c-0.04-0.992,0.272-1.312,1.29-1.306c6.982,0.045,13.965,0.002,20.947,0.054
	c0.938,0.009,1.423-0.517,1.814-1.106c0.438-0.658-0.22-1.096-0.639-1.525c-0.249-0.256-0.497-0.517-0.756-0.766
	c-1.982-1.91-3.885-3.921-5.987-5.689c-1.056-0.885-2.503-1.291-3.731-1.984c-1.218-0.688-2.385-1.465-3.851-1.512
	c-0.087-0.003-0.167-0.128-0.255-0.189c-0.646-0.457-1.256-0.99-1.956-1.337c-0.462-0.228-1.056-0.222-1.595-0.245
	c-0.481-0.021-0.979,0.131-1.454,0.077c-0.513-0.059-1.015-0.254-1.513-0.417c-0.293-0.094-0.633-0.174-0.838-0.375
	c-2.097-2.064-4.211-4.111-6.22-6.258c-0.538-0.575-0.946-1.451-1.034-2.232c-0.205-1.83-2.076-3.84-4.016-3.582
	c-0.816,0.108-1.661,0.006-2.493,0.024C101.531,130.923,101.016,130.982,100.498,131.021 M23.522,72.959
	c0.042,0.592,0.099,1.474,0.166,2.354c0.13,1.725,0.195,3.445,1.019,5.053c0.459,0.897,0.884,1.896,0.974,2.88
	c0.144,1.569,0.59,2.967,1.559,4.175c0.221,0.275,0.726,0.321,1.101,0.473c-0.023-0.451,0.126-1.032-0.099-1.331
	c-1.06-1.41-1.764-2.842-1.14-4.662c0.1-0.292-0.149-0.689-0.173-1.042c-0.03-0.452-0.028-0.912,0.018-1.362
	c0.043-0.424,0.223-0.837,0.237-1.259c0.049-1.437,1.503-3.297,2.902-3.606c0.809-0.179,0.92-0.61,0.725-1.184
	c-0.831,0.311-1.52,0.642-2.246,0.824c-1.227,0.307-1.412,0.077-1.286-1.197c0.048-0.49-0.067-0.997-0.107-1.497
	c-0.134,0.005-0.268,0.009-0.402,0.015c-0.949,2.32-0.188,4.98-1.181,7.431c-0.181-0.219-0.261-0.271-0.265-0.327
	c-0.172-2.472-0.443-4.953,0.109-7.404c0.112-0.498,0.542-0.923,0.82-1.384c0.273-0.451,0.539-0.905,0.808-1.358
	c-0.548-0.194-1.127-0.605-1.636-0.531c-0.76,0.113-1.376,0.615-1.255,1.595c0.081,0.644,0.166,1.309,0.081,1.942
	C24.191,71.982,23.842,72.371,23.522,72.959 M66.364,154.008c0.458-0.197,0.974-0.316,1.353-0.609
	c0.795-0.617,1.551-1.293,2.264-2.006c1.312-1.312,2.735-2.664,4.524-2.983c1.847-0.331,2.733-1.689,4-2.651
	c0.562-0.427,1.001-1.015,1.575-1.415c0.591-0.411,0.879-0.694,0.193-1.297c-0.936-0.823-2.26-0.835-2.975,0.248
	c-1.186,1.804-2.869,2.862-4.763,3.728c-0.647,0.293-1.312,0.67-1.804,1.17c-1.277,1.305-2.475,2.666-4.164,3.502
	c-0.552,0.271-0.917,0.537-1.557,0.187c-0.26-0.144-0.783,0.194-1.186,0.313c0.14,0.392,0.168,0.986,0.442,1.138
	C64.882,153.665,65.616,153.782,66.364,154.008 M55.393,161.373c1.657,2.008,13.496,2.311,16.103,0.546
	c-0.59-1.64-0.836-1.854-2.498-1.601c-1.718,0.262-3.392,0.652-5.17,0.636c-1.744-0.019-3.629-0.737-5.254,0.563
	c-0.073,0.058-0.212,0.053-0.318,0.047C57.319,161.506,56.385,161.441,55.393,161.373 M107.802,88.761
	c2.579-2.188,4.011-12.324,2.339-15.558c-0.086,0.479-0.166,0.768-0.188,1.062c-0.165,2.135,0.375,4.357-0.792,6.371
	c-0.062,0.111-0.026,0.284-0.023,0.427c0.038,2.27-0.275,4.474-1.152,6.586C107.841,87.986,107.857,88.388,107.802,88.761
	 M63.181,150.958c0.093-0.049,0.186-0.097,0.278-0.146c-0.149-0.431-0.213-0.922-0.468-1.277c-0.395-0.549-0.878-1.061-1.404-1.487
	c-0.572-0.467-1.211-0.872-1.874-1.198c-0.196-0.097-0.568,0.162-0.859,0.258c0.123,0.263,0.18,0.603,0.381,0.772
	c1.062,0.908,2.156,1.777,3.248,2.649C62.694,150.699,62.947,150.816,63.181,150.958 M111.712,72.08
	c-0.584-1.146-1.499-1.662-2.093-1.127c-0.243,0.217-0.323,0.873-0.184,1.207C109.74,72.879,110.695,72.826,111.712,72.08
	 M56.625,146.064c-0.389-1.004-1.21-1.235-2.08-1.312c-0.244-0.021-0.691,0.195-0.727,0.371c-0.051,0.245,0.116,0.697,0.325,0.809
	C54.91,146.335,55.734,146.549,56.625,146.064 M41.586,154.415c-0.584,0.276-1.044,0.495-1.585,0.751
	C40.977,155.895,41.143,155.812,41.586,154.415"/>
<path fill="#231F20" d="M86.486,135.245c-0.127,1.133-1.344,1.919-2.434,1.647c-0.365-0.091-0.789,0.031-1.182,0.096
	c-0.342,0.056-0.67,0.219-1.012,0.246c-1.02,0.084-1.963,0.214-2.758,1.025c-0.32,0.325-1.197,0.527-1.556,0.323
	c-1.376-0.79-2.823-0.489-4.235-0.466c-1.644,0.025-3.285,0.331-4.929,0.355c-2.602,0.041-5.206-0.053-7.809-0.08
	c-0.282-0.002-0.688-0.048-0.829,0.11c-0.854,0.963-1.457,0.222-2.23-0.16c-1.536-0.758-3.151-1.354-4.73-2.024
	c-0.492-0.207-0.99-0.408-1.46-0.659c-1.196-0.638-2.372-1.31-3.566-1.951c-0.916-0.492-1.876-0.912-2.758-1.458
	c-0.519-0.321-0.771-0.843-0.383-1.495c0.154-0.261,0.316-0.644,0.233-0.887c-0.133-0.39-0.468-0.707-0.717-1.056
	c-0.243,0.345-0.532,0.666-0.716,1.037c-0.136,0.277-0.061,0.668-0.22,0.92c-0.132,0.207-0.484,0.412-0.709,0.385
	c-0.187-0.024-0.492-0.413-0.467-0.603c0.222-1.643-1.369-2.179-1.971-3.308c-0.039-0.073-0.183-0.11-0.284-0.128
	c-1.045-0.19-2.091-0.373-3.195-0.569c-0.298,0.432-0.767,1.034-1.144,1.692c-0.099,0.17,0.001,0.585,0.157,0.75
	c0.656,0.696,0.662,1.183-0.502,1.462c0.384,0.755,0.817,1.415,1.05,2.142c0.128,0.399-0.083,0.907-0.143,1.367l-0.29,0.003
	c-0.171-0.286-0.342-0.574-0.513-0.859c-0.114,0.027-0.229,0.058-0.343,0.086c0.12,0.434,0.144,0.931,0.381,1.283
	c0.452,0.672,0.497,1.225-0.202,1.877c-0.261-0.339-0.484-0.63-0.879-1.143c-0.04,0.468-0.114,0.721-0.071,0.952
	c0.446,2.431,0.907,4.858,1.375,7.284c0.082,0.423,0.285,0.83,0.306,1.252c0.029,0.564,0.059,1.183-0.134,1.695
	c-0.326,0.873,0.045,1.76,0.743,2.387c0.75,0.674,1.36,1.562,1.838,2.457c0.32,0.604,0.564,0.904,1.286,0.824
	c0.346-0.039,0.729,0.245,1.094,0.381c-0.213,0.336-0.361,0.75-0.653,0.989c-0.53,0.437-0.898,1.736-0.416,2.343
	c1.318,1.655,2.707,3.256,4.092,4.856c0.841,0.972,1.715,1.916,2.605,2.843c0.425,0.442,0.925,0.815,1.39,1.219
	c-0.029,0.119-0.057,0.237-0.086,0.354c-0.611,0.085-1.219,0.198-1.833,0.251c-1.339,0.114-2.755-0.314-3.973,0.658
	c-0.194,0.154-0.768,0.152-0.916-0.006c-0.89-0.958-2.019-0.629-3.061-0.627c-0.833,0.002-1.582-0.041-2.082-0.807
	c-0.409-0.625-1-0.756-1.69-0.672c-0.751,0.092-1.425-0.016-1.884-0.726c-0.471-0.73-1.201-0.88-1.987-0.73
	c-1.739,0.333-3.046-0.331-4.106-1.663c-0.312-0.391-0.708-0.718-1.01-1.115c-1.025-1.344-2.338-1.733-4.024-1.646
	c-2.815,0.143-5.644,0.006-8.465,0.059c-0.934,0.016-1.304-0.258-1.269-1.228c0.073-1.985-0.019-1.771-1.783-1.709
	c-0.847,0.028-1.213-0.267-1.139-1.121c0.038-0.432,0.02-0.87,0.002-1.303c-0.039-0.896,0.349-1.863-1.182-2.168
	c-0.754-0.15-1.332-1.233-1.965-1.917c-0.847-0.913-1.671-1.85-2.637-2.92c0.85-0.491,1.759-1.104,2.739-1.562
	c1.58-0.736,3.2-1.392,4.818-2.044c0.806-0.325,1.809-0.374,2.438-0.893c1.546-1.276,3.228-1.802,5.162-1.47
	c1.249,0.211,2.293-0.297,3.344-0.775c1.442-0.659,2.871-1.355,4.263-2.113c1.505-0.816,2.335-2.177,2.772-3.798
	c0.182-0.674,2.364-2.715,3.029-2.817c1.834-0.279,2.13-0.697,2.197-2.524c0.051-1.402,0.323-2.794,0.422-4.197
	c0.185-2.592,0.264-5.192,0.479-7.78c0.372-4.492,0.828-8.979,1.219-13.47c0.184-2.104-0.053-4.135-1.284-5.951
	c-0.112-0.166,0.008-0.477-0.013-0.718c-0.119-1.396,0.143-2.9-1.177-3.963c-0.134-0.107-0.098-0.598,0.024-0.82
	c0.976-1.772,0.672-3.739-0.512-5.326c-0.667-0.894-1.199-1.062-2.249-0.838c-1.394,0.296-2.09-0.677-1.409-1.956
	c0.943-1.773,1.655-3.572,1.764-5.603c0.023-0.418,0.357-0.867,0.652-1.213c1.332-1.562,0.527-4.663-1.365-5.405
	c-0.466-0.183-0.825-0.694-1.175-1.104c-0.645-0.756-1.213-1.579-1.89-2.303c-0.154-0.165-0.624-0.092-0.934-0.041
	c-0.316,0.051-0.615,0.21-0.921,0.323c-0.079-0.133-0.158-0.266-0.236-0.4c0.449-0.293,0.863-0.69,1.355-0.85
	c0.459-0.15,1-0.042,1.506-0.059c0.72-0.023,1.036-0.386,0.974-1.118c-0.166-1.933-0.408-3.865-0.443-5.801
	c-0.069-3.868-0.003-7.739-0.042-11.608c-0.005-0.484-0.325-0.959-0.467-1.448c-0.107-0.37-0.226-0.753-0.228-1.131
	c-0.017-3.502,0.011-7.004-0.034-10.505c-0.007-0.513-0.437-1.016-0.477-1.537c-0.087-1.121-0.416-2.422,0.013-3.342
	c0.958-2.056,2.275-3.909,1.964-6.372c-0.196-1.554,0.397-2.89,1.61-3.938c0.248-0.212,0.542-0.584,0.521-0.86
	c-0.175-2.261,1.472-3.72,2.349-5.513c1.687-0.291,2.209-2.301,3.97-2.603c1.025-0.176,1.956-0.863,2.952-1.262
	c0.773-0.309,1.595-0.496,2.37-0.801c0.406-0.16,0.83-0.391,1.118-0.707c0.511-0.558,1.019-0.815,1.83-0.877
	c0.766-0.058,1.487-0.648,2.237-0.984c0.37-0.166,0.757-0.391,1.144-0.407c1.229-0.052,2.46-0.029,3.69-0.013
	c0.733,0.009,1.425-0.1,2.095,0.554c0.35,0.341,1.25,0.066,1.878,0.186c0.676,0.128,1.314,0.455,1.991,0.574
	c0.458,0.081,0.954-0.048,1.465-0.222c0.418,0.252,1.269,0.342,0.936,1.273c-0.008,0.025,0.465,0.325,0.695,0.304
	c0.289-0.028,0.578-0.403,0.834-0.372c1.425,0.178,2.2-0.794,3.235-1.5c2.375-1.621,4.737-3.515,7.953-2.989
	c0.144,0.024,0.33-0.031,0.426,0.042c1.614,1.235,3.483,0.481,5.228,0.688c0.446,0.054,0.892,0.128,1.336,0.193
	c0.02,0.099,0.037,0.197,0.056,0.296c-0.442,0.189-0.888,0.377-1.507,0.643c0.371,0.143,0.592,0.317,0.732,0.267
	c1.031-0.361,1.769,0.153,2.567,0.701c1.403,0.961,3.2,1.336,4.233,2.853c0.037,0.053,0.117,0.091,0.185,0.108
	c1.03,0.271,2.065,0.528,3.093,0.81c0.236,0.064,0.469,0.182,0.674,0.318c0.672,0.444,1.355,0.878,1.992,1.371
	c1.577,1.222,3.117,2.493,4.699,3.709c0.814,0.626,1.809,1.061,2.51,1.786c1.463,1.515,2.783,3.169,4.172,4.756
	c0.211,0.24,0.459,0.455,0.721,0.64c1.635,1.166,2.453,2.907,3.295,4.635c0.016,0.031,0.031,0.075,0.021,0.104
	c-0.528,1.688,0.628,3.009,0.929,4.509c0.299,1.501,0.168,3.092,0.174,4.644c0,0.228-0.375,0.438-0.434,0.69
	c-0.088,0.382-0.123,0.809-0.045,1.189c0.105,0.526,0.375,1.018,0.51,1.542c0.147,0.583,0.227,1.186,0.325,1.782
	c0.142,0.849,0.388,1.697,0.392,2.548c0.037,5.354,0.056,10.711-0.01,16.066c-0.014,1.123-0.414,2.237-0.604,3.361
	c-0.229,1.349-0.466,2.7-0.601,4.061c-0.029,0.292,0.299,0.69,0.565,0.924c0.349,0.304,0.832,0.449,1.19,0.744
	c0.188,0.155,0.365,0.513,0.315,0.726c-0.043,0.179-0.413,0.291-0.647,0.412c-0.613,0.314-1.399,0.472-1.816,0.952
	c-1.049,1.215-2.014,2.524-2.857,3.89c-0.535,0.863-0.799,1.894-1.168,2.857c-0.045,0.119-0.021,0.289,0.022,0.416
	c0.481,1.385,0.953,2.775,1.481,4.143c0.115,0.298,0.404,0.599,0.692,0.75c0.882,0.466,1.123,1.043,0.433,1.719
	c-0.67,0.655-1.485,1.251-2.349,1.596c-0.786,0.315-1.46,0.577-1.735,1.44c-0.053,0.167-0.144,0.357-0.274,0.46
	c-1.797,1.383-1.422,3.331-1.297,5.172c0.047,0.687,0.151,1.28-0.491,1.735c-0.107,0.075-0.18,0.234-0.216,0.367
	c-0.354,1.288-0.681,2.585-1.052,3.869c-0.303,1.06-0.562,2.146-1.006,3.149c-0.832,1.887-1.188,3.83-1.233,5.891
	c-0.046,1.867-0.341,3.73-0.528,5.597c-0.015,0.142-0.078,0.282-0.078,0.425c-0.033,4.771-0.06,9.545-0.085,14.314
	c-0.001,0.361,0.038,0.726,0.021,1.086c-0.044,0.85,0.229,1.484,1.092,1.775c0.67,0.228,0.979,0.629,0.815,1.396
	c-0.067,0.317,0.049,0.737,0.218,1.034c1.132,1.99,0.813,3.994,0.022,5.955c-0.939,2.324-1.957,4.619-3.015,6.893
	c-0.312,0.672-0.83,1.268-1.334,1.825c-1.987,2.199-3.839,4.562-6.065,6.487c-1.812,1.57-4.066,2.646-6.172,3.863
	c-0.926,0.536-1.955,0.904-2.957,1.299c-0.363,0.142-0.783,0.132-1.26-0.028c0.184-0.203,0.33-0.472,0.557-0.599
	c1.211-0.678,2.441-1.318,3.664-1.976c0.248-0.133,0.482-0.294,0.729-0.428c0.552-0.298,1.147-0.533,1.651-0.896
	c0.494-0.354,1.123-0.761,1.297-1.275c0.422-1.262,0.791-1.713,2.176-1.92c1.636-0.247,2.713-1.81,2.348-3.393
	c-0.039-0.166-0.097-0.386-0.023-0.51c0.627-1.066,1.309-2.102,1.912-3.179c0.236-0.425,0.506-0.966,0.433-1.398
	c-0.147-0.882,0.372-1.454,0.61-2.175c0.394-1.188,0.484-2.506,0.504-3.771c0.021-1.438-0.162-2.881-0.285-4.318
	c-0.1-1.178-0.277-1.271-1.329-0.812c-0.642,0.279-1.156-0.098-1.345-0.936c-0.064-0.287-0.239-0.549-0.362-0.82
	c-0.222,0.241-0.494,0.452-0.651,0.729c-0.195,0.342-0.264,0.753-0.449,1.101c-0.142,0.271-0.336,0.604-0.586,0.702
	c-0.765,0.299-1.568,0.498-2.356,0.736c-0.138-0.359-0.272-0.722-0.427-1.127c0.17-0.127,0.318-0.295,0.507-0.371
	c0.995-0.402,1.817-0.846,1.339-2.201c-0.113-0.316,0.199-0.809,0.369-1.193c0.171-0.388,0.48-0.723,0.605-1.117
	c0.241-0.764,0.672-0.931,1.402-0.687c1.457,0.487,2.232-0.06,2.512-1.636c0.092-0.51,0.322-1.006,0.562-1.471
	c0.602-1.164,0.914-2.363,0.435-3.633c-0.114-0.304-0.419-0.672-0.698-0.732c-0.215-0.049-0.543,0.315-0.789,0.533
	c-0.213,0.188-0.359,0.454-0.574,0.644c-0.467,0.407-1.237,0.717-1.362,1.198c-0.133,0.518,0.341,1.187,0.541,1.791
	c0.019,0.059-0.026,0.138-0.043,0.207c-0.7,0.438-1.338,0.949-1.817,1.58c-0.715,0.937-1.34,1.942-1.959,2.946
	c-0.617,1.002-1.379,1.981-1.703,3.081c-0.231,0.796-0.279,1.501-1.144,1.867c-0.185,0.078-0.247,0.441-0.366,0.673
	c0.26,0.058,0.536,0.205,0.771,0.155C85.253,135.65,85.866,135.432,86.486,135.245 M41.733,72.927
	c0.018-0.101,0.034-0.202,0.052-0.303c-0.307-0.102-0.625-0.314-0.918-0.286c-1.112,0.109-2.1,0.484-2.747,1.501
	c-0.326,0.511-0.654,1.104-1.137,1.417c-0.86,0.556-1.088,1.29-0.783,2.135c0.433,1.199,0.383,2.344,0.021,3.529
	c-0.091,0.297-0.046,0.647-0.015,0.968c0.183,1.857,0.424,2.074,2.269,2.086c1.723,0.012,1.749,0.014,1.577,1.728
	c-0.035,0.338-0.398,0.632-0.544,0.975c-0.198,0.468-0.62,1.204-0.449,1.408c1.126,1.34,0.817,2.772,0.513,4.243
	c-0.191,0.928-0.361,1.861-0.516,2.797c-0.081,0.484-0.147,0.977-0.146,1.467c0.001,0.463,0.237,0.958,0.132,1.381
	c-0.513,2.067-0.105,4.107,0.257,6.102c0.264,1.451,0.924,2.854,1.559,4.208c0.549,1.169,1.274,2.266,1.998,3.342
	c0.362,0.538,0.956,0.968,1.44,0.12c0.552-0.967,1.026-0.737,1.502-0.006c0.727,1.117,1.558,2.199,2.092,3.406
	c1.193,2.697,3.568,4.402,5.318,6.629c0.082,0.104,0.236,0.174,0.371,0.211c1.141,0.324,1.551,1.266,1.783,2.263
	c0.147,0.631,0.304,0.979,1.042,0.897c0.218-0.024,0.516,0.299,0.711,0.522c0.939,1.073,1.837,2.181,2.792,3.238
	c0.229,0.254,0.602,0.47,0.935,0.518c1.524,0.22,3.059,0.365,4.587,0.558c0.541,0.068,1.074,0.193,1.612,0.293
	c-0.011,0.117-0.021,0.234-0.032,0.354c-0.402,0.205-0.804,0.411-1.206,0.616c0.049,0.132,0.098,0.266,0.147,0.397
	c0.782-0.235,1.605-0.385,2.333-0.732c0.688-0.33,1.264-0.844,2.102-0.389c0.15,0.082,0.488-0.104,0.697-0.232
	c0.234-0.146,0.395-0.418,0.634-0.548c1.202-0.653,2.571-1.091,3.597-1.947c2.209-1.843,4.377-3.776,6.305-5.906
	c1.193-1.321,1.828-3.05,3.328-4.28c1.277-1.047,1.998-2.773,2.953-4.209c0.31-0.465,0.56-0.637,1.121-0.237
	c1.119,0.793,1.996,0.448,2.541-0.853c0.133-0.316,0.31-0.729,0.578-0.854c0.803-0.376,1.147-0.94,1.1-1.806
	c-0.008-0.168,0.068-0.483,0.132-0.49c1.098-0.126,1.155-1.088,1.419-1.94c0.328,0.313,0.552,0.526,0.725,0.688
	c0.401-0.924,0.957-1.739,1.079-2.613c0.124-0.891-0.18-1.841-0.331-3.041c0.432,0.41,0.646,0.613,0.859,0.818
	c0.428-1.133,0.902-2.198,1.214-3.312c0.103-0.366-0.211-0.849-0.373-1.423c-0.394,0.443-0.584,0.66-0.786,0.891
	c-0.104-0.141-0.162-0.19-0.184-0.254c-0.031-0.101-0.088-0.236-0.049-0.313c0.548-1.073,0.391-2.114,0.268-3.296
	c-0.145-1.389,0.484-2.857,0.771-4.293c0.049-0.243,0.086-0.491,0.097-0.739c0.063-1.681,0.104-3.363,0.2-5.042
	c0.013-0.234,0.259-0.501,0.469-0.656c0.1-0.073,0.525,0.063,0.535,0.14c0.14,1.015,1.265,1.853,0.506,3.05
	c-0.182,0.284-0.025,0.778-0.025,1.175c0.119,0.007,0.24,0.016,0.36,0.023c0.146-0.348,0.215-0.754,0.444-1.031
	c0.5-0.602,0.541-1.083,0.012-1.72c-0.199-0.238-0.162-0.844-0.005-1.177c0.644-1.375,0.776-2.743,0.214-4.164
	c-0.21-0.531-0.141-0.866,0.387-1.27c0.604-0.463,1.008-1.188,1.604-1.929c-0.736-0.178-1.172-0.283-1.371-0.331
	c-0.188-0.955-0.344-1.747-0.523-2.662c0.803-1.011,0.87-1.695-0.113-2.803c-0.986-1.111-2.238-1.747-3.814-1.45
	c-1.188,0.224-2.475-0.438-2.624-1.32c-0.171-0.999-1.563-2.185-2.509-1.825c-1.062,0.403-1.941,0-2.908-0.074
	c-1.688-0.132-3.381-0.245-5.07-0.231c-1.753,0.014-3.514,0.119-5.25,0.332c-0.545,0.067-1.072,0.564-1.515,0.968
	c-0.165,0.153-0.171,0.658-0.044,0.892c0.104,0.193,0.525,0.337,0.779,0.301c0.527-0.075,1.029-0.307,1.552-0.432
	c0.767-0.184,1.55-0.498,2.312-0.462c2.844,0.13,5.68,0.386,8.521,0.582c1.219,0.084,2.338,0.777,2.581,1.639
	c0.379,1.336,0.366,1.291,1.694,0.922c0.529-0.147,1.312-0.591,1.625,0.479c-0.406,0.161-0.697,0.276-0.797,0.316
	c0.52,0.613,1.014,1.195,1.604,1.893c-1.099-0.089-1.938-0.149-2.779-0.227c-0.532-0.049-1.062-0.144-1.595-0.182
	c-1.26-0.088-2.52-0.221-3.78-0.212c-1.427,0.009-2.871,1.241-4.287-0.135c-0.172-0.167-0.625-0.069-0.948-0.053
	c-0.381,0.019-0.763,0.082-1.028,0.112c-0.181-1.033-0.291-1.951-0.527-2.833c-0.062-0.238-0.606-0.592-0.761-0.522
	c-0.941,0.434-1.836,0.975-2.746,1.48c0.029,0.122,0.059,0.243,0.09,0.364c0.855,0.199,1.71,0.398,2.236,0.52
	c0,0.712-0.066,1.159,0.012,1.579c0.298,1.614-0.211,2.137-1.85,1.846c-0.393-0.07-0.805-0.067-1.176-0.192
	c-0.354-0.12-0.912-0.325-0.949-0.559c-0.096-0.632,0.346-0.951,0.996-1c0.314-0.023,0.621-0.169,1.056-0.297
	c-0.575-0.612-0.933-1.202-1.455-1.492c-0.513-0.285-1.453-0.561-1.744-0.309c-0.491,0.425-0.633,1.265-0.883,1.945
	c-0.056,0.146,0.062,0.35,0.083,0.528c0.24,1.876,0.63,3.687,2.113,5.043c0.104,0.095,0.182,0.231,0.236,0.361
	c0.354,0.841,0.043,1.427-0.856,1.633c-1.013,0.23-1.241,0.856-0.519,1.61c0.573,0.596,1.225,1.128,1.889,1.62
	c1.051,0.776,1.287,1.889,1.312,3.066c0.007,0.274-0.36,0.556-0.557,0.834c-0.212-0.2-0.445-0.384-0.632-0.607
	c-0.219-0.263-0.453-0.825-0.584-0.798c-1.08,0.231-1.459-0.64-2.082-1.161c-0.312-0.263-0.734-0.469-1.135-0.54
	c-0.599-0.105-0.951-0.208-0.738-0.962c0.064-0.223-0.348-0.839-0.512-0.829c-1.168,0.078-1.559-0.662-1.867-1.562
	c-0.256-0.745-0.531-1.482-0.813-2.218c-0.356-0.928-0.198-1.163,0.772-1.199c0.289-0.011,0.572-0.141,0.856-0.216
	c-0.178-0.288-0.289-0.682-0.547-0.846c-0.948-0.604-1.162-1.446-0.823-2.42c0.156-0.453,0.695-0.787,0.812-1.238
	c0.606-2.369,2.198-4.106,3.669-5.924c0.189-0.235,0.523-0.358,0.796-0.525c1.336-0.821,2.813-1.384,3.731-2.843
	c0.85-1.347,2.217-1.742,3.867-1.669c1.975,0.088,3.979-0.031,5.938-0.301c1.789-0.247,3.525-0.983,5.252,0.227
	c0.285,0.201,0.773,0.11,1.312,0.168c-0.51-1.46-1.082-2.532-2.449-3.068c-1.342-0.527-1.898-1.675-2.342-3.037
	c-0.361-1.104-1.109-2.179-1.945-3c-0.637-0.625-1.62-1.008-2.576-0.077c-0.663,0.646-1.15,0.095-1.315-0.583
	c-0.188-0.768-0.245-1.568-0.354-2.354c-0.12-0.875,0.181-1.403,1.087-1.709c0.618-0.208,1.2-0.668,1.646-1.156
	c0.105-0.116-0.4-0.79-0.623-1.209c-0.033-0.063-0.08-0.134-0.076-0.2c0.049-1.811-1.576-2.596-2.453-3.803
	c-0.578-0.798-0.713-1.042,0.216-1.44c0.688-0.295,0.493-0.632,0.005-1.012c-0.885-0.69-1.568-0.339-1.938,0.119
	c-2.168-0.889-4.152-1.704-6.134-2.518c-0.315,1.091-0.84,1.469-1.911,1.457c-1.531-0.017-1.1-1.243-1.207-2.011
	c-0.201-1.404,1.269-0.376,1.854-1.271c-0.997,0.064-1.789,0.194-2.574,0.148c-1.416-0.081-2.667,1.323-4.193,0.429
	c-0.174-0.102-0.673,0.31-0.999,0.519c-0.635,0.406-1.222,0.904-1.896,1.222c-0.251,0.118-0.804-0.052-1.024-0.28
	c-0.716-0.739-1.412-1.237-2.544-1.385c-1.177-0.155-2.311-0.37-3.507-0.217c-0.36,0.046-0.782-0.124-1.129-0.291
	c-1.526-0.737-2.668-0.055-2.607,1.623c0.019,0.54,0.242,1.072,0.262,1.611c0.013,0.353-0.063,0.834-0.293,1.043
	c-0.554,0.504-1.192,1.172-1.854,1.244c-1.034,0.113-1.352,0.828-1.839,1.446c-0.602,0.761-1.307,1.49-1.688,2.355
	c-0.22,0.5-0.117,1.493,0.244,1.818c0.618,0.556,0.921-0.302,1.263-0.722c0.137-0.167,0.251-0.462,0.405-0.482
	c0.25-0.033,0.669,0.028,0.762,0.193c0.454,0.807,0.824,1.663,1.278,2.615c-1.162,1.524-2.894,2.958-3.419,5.196
	c-0.053,0.228-0.263,0.428-0.427,0.619c-0.527,0.617-1.083,1.21-1.596,1.84c-0.415,0.511-0.747,1.093-1.179,1.587
	c-0.475,0.543-1.045,1.002-1.528,1.539c-0.194,0.215-0.268,0.541-0.396,0.815c0.252,0.113,0.496,0.257,0.759,0.333
	c0.998,0.286,2.003,0.55,3.006,0.821c0.997,0.27,1.979,0.651,2.995,0.787c1.993,0.266,4.008,0.375,6.009,0.591
	c1.131,0.123,1.806,0.714,2.272,1.849c0.295,0.718,1.157,1.42,1.918,1.687c1.955,0.685,3.182,1.843,3.463,3.934
	c0.047,0.352,0.112,0.816,0.348,1.006c1.267,1.021,1.174,2.665,1.873,3.941c0.162,0.297,0.152,0.889-0.042,1.147
	c-0.777,1.033-1.706,1.95-2.476,2.988c-0.316,0.426-0.491,1.039-0.524,1.58c-0.126,2.035-1.169,4.488-3.738,5.099
	c-0.162-0.328-0.33-0.667-0.497-1.004c-0.122-0.094-0.244-0.188-0.366-0.281c-0.217,0.356-0.359,0.807-0.665,1.051
	c-0.597,0.477-1.268,0.875-1.95,1.221c-0.145,0.073-0.552-0.163-0.688-0.359c-0.084-0.122,0.064-0.472,0.194-0.663
	c0.321-0.475,0.653-0.953,1.048-1.365c1.012-1.057,2.021-2.121,3.109-3.098c0.757-0.679,1.346-1.782,0.809-2.577
	c-0.471-0.696-1.397-1.089-2.139-1.593c-0.207-0.141-0.663-0.188-0.67-0.299c-0.018-0.282,0.089-0.629,0.269-0.85
	c0.167-0.207,0.565-0.224,0.734-0.429c0.319-0.388,0.812-0.903,0.741-1.27c-0.086-0.45-0.617-0.906-1.067-1.168
	c-0.449-0.262-1.084-0.191-1.554-0.43c-1.882-0.956-3.898-0.85-5.905-0.838c-0.638,0.004-1.179,0.04-1.021-0.898
	c0.059-0.358-0.055-0.84-0.273-1.125c-0.203-0.264-0.652-0.34-0.993-0.499c-0.015,0.347-0.079,0.701-0.031,1.038
	c0.05,0.361,0.205,0.706,0.314,1.057c-0.379,0.052-0.759,0.15-1.137,0.142c-0.349-0.009-0.691-0.171-1.042-0.192
	c-0.299-0.019-0.604,0.066-0.998,0.117c0.315,0.501,0.518,0.824,0.721,1.148c-0.063,0.098-0.127,0.195-0.19,0.294
	c-0.662-0.175-1.494-0.159-1.949-0.565c-0.817-0.73-1.367-0.916-2.229-0.168c-0.49,0.425-0.84,1.083-1.392,1.35
	c-0.768,0.372-1.657,0.522-2.512,0.659c-0.193,0.031-0.458-0.383-0.689-0.592c0.203-0.214,0.367-0.502,0.614-0.627
	C40.042,73.668,40.894,73.309,41.733,72.927 M48.588,66.706c-0.002-0.016-0.003-0.031-0.005-0.046c-0.723,0-1.452-0.056-2.168,0.014
	c-0.869,0.084-1.229,0.738-0.75,1.455c0.227,0.339,0.787,0.64,1.197,0.64c2.225,0.005,4.45-0.086,6.675-0.153
	c0.361-0.011,0.742,0.005,1.077-0.104c1.73-0.564,3.409-0.364,5.087,0.226c0.438,0.154,0.914,0.229,1.378,0.267
	c0.221,0.018,0.455-0.137,0.683-0.213c-0.093-0.249-0.114-0.605-0.292-0.726c-0.613-0.411-1.249-0.829-1.936-1.078
	c-0.956-0.345-1.969-0.768-2.95-0.752C53.917,66.277,51.253,66.534,48.588,66.706 M33.038,77.305
	c-1.399,1.621-1.644,3.373-1.37,5.154c0.064,0.41,1.029,0.681,1.579,1.016c0.158-0.424,0.449-0.848,0.448-1.272
	c-0.001-1.218-0.093-2.437-0.209-3.65C33.449,78.17,33.224,77.806,33.038,77.305 M104.302,82.771
	c-0.011-0.145-0.016-0.289-0.032-0.433c-0.084-0.665-0.194-1.43-1.047-1.371c-0.873,0.06-0.641,0.875-0.707,1.456
	c-0.084,0.74-0.203,1.477-0.291,2.216c-0.029,0.25-0.018,0.506-0.024,0.758c0.272-0.022,0.581,0.031,0.81-0.083
	C104.051,84.794,104.286,83.832,104.302,82.771 M40.336,72.138c0.607-0.589,1.364-1.103,1.291-1.29
	c-0.326-0.83-0.797-1.653-1.409-2.295c-0.276-0.289-1.538,1.09-1.334,1.793C39.06,70.948,39.717,71.409,40.336,72.138 M56.187,72.24
	c1.042-0.184,1.949-0.334,2.85-0.513c0.155-0.031,0.4-0.173,0.406-0.275c0.01-0.179-0.085-0.422-0.222-0.537
	c-0.411-0.344-0.83-0.708-1.309-0.929c-0.311-0.144-0.963-0.196-1.063-0.038C56.414,70.637,55.714,71.317,56.187,72.24
	 M31.569,132.828c-1.734,0.54-2.123,4.617-0.756,6.837C29.755,137.287,31.252,135.189,31.569,132.828 M62.278,73.951
	c0.439-0.651,0.838-0.973,0.826-1.277c-0.028-0.734-0.557-1.166-1.289-1.115c-0.244,0.017-0.698,0.521-0.653,0.618
	C61.4,72.705,61.767,73.173,62.278,73.951 M98.913,91.077v4.597C99.719,94.499,99.659,91.729,98.913,91.077 M88.009,73.652
	c0.462-0.624,0.856-1.002,1.013-1.46c0.053-0.147-0.528-0.509-0.819-0.773c-0.328,0.418-0.705,0.811-0.945,1.275
	C87.199,72.802,87.604,73.15,88.009,73.652 M42.368,125.17c-0.548-0.453-0.922-0.938-1.103-0.874
	c-0.375,0.131-0.646,0.554-0.959,0.856c0.286,0.257,0.548,0.672,0.865,0.721C41.444,125.915,41.781,125.536,42.368,125.17
	 M37.149,59.277c-0.213,0.001-0.426,0.003-0.639,0.004v1.442c0.213-0.029,0.606-0.04,0.611-0.092
	C37.17,60.184,37.149,59.729,37.149,59.277 M37.94,58.979c0.232-0.585,0.424-0.91,0.47-1.254c0.019-0.141-0.276-0.323-0.428-0.485
	c-0.183,0.31-0.42,0.604-0.523,0.94C37.417,58.316,37.666,58.542,37.94,58.979"/>
<path fill="#231F20" d="M100.5,131.021c0.516-0.039,1.031-0.1,1.549-0.108c0.832-0.019,1.676,0.084,2.493-0.024
	c1.938-0.258,3.812,1.752,4.017,3.582c0.088,0.781,0.496,1.657,1.033,2.232c2.008,2.146,4.123,4.193,6.221,6.258
	c0.205,0.201,0.545,0.281,0.836,0.375c0.498,0.163,1,0.357,1.514,0.417c0.477,0.054,0.973-0.101,1.455-0.077
	c0.537,0.023,1.132,0.018,1.594,0.245c0.7,0.347,1.309,0.88,1.956,1.337c0.088,0.062,0.168,0.188,0.255,0.189
	c1.467,0.047,2.633,0.824,3.85,1.512c1.229,0.693,2.678,1.1,3.732,1.984c2.104,1.77,4.005,3.779,5.988,5.689
	c0.258,0.249,0.506,0.51,0.755,0.766c0.419,0.431,1.075,0.867,0.64,1.525c-0.394,0.59-0.877,1.115-1.814,1.105
	c-6.982-0.051-13.967-0.008-20.948-0.053c-1.019-0.006-1.33,0.312-1.29,1.306c0.064,1.696,0.044,3.399,0.006,5.1
	c-0.021,0.933,0.311,1.949-0.613,2.722c-0.174,0.146-0.097,0.619-0.098,0.942c-0.011,1.447-0.023,2.896,0,4.342
	c0.012,0.688-0.259,0.938-0.958,0.985c-0.478,0.031-0.928,0.365-1.403,0.523c-0.297,0.101-0.621,0.176-0.934,0.18
	c-1.736,0.015-3.477-0.061-5.208,0.031c-0.987,0.051-1.704-0.229-2.382-0.926c-0.301-0.311-0.84-0.543-1.273-0.546
	c-4.74-0.036-9.479-0.028-14.22-0.016c-0.649,0.002-1.298,0.084-1.946,0.127c-1.188,0.076-2.283-0.058-3.091-1.104
	c-0.188-0.244-0.608-0.51-0.872-0.466c-1.529,0.261-2.834-0.36-4.158-0.929c-0.055-0.023-0.08-0.11-0.205-0.296
	c0.77-0.443,1.527-0.892,2.295-1.321c3.334-1.863,6.252-4.22,8.695-7.175c1.055-1.272,2.285-2.396,3.354-3.659
	c3.49-4.136,6.705-8.453,9.41-13.176c1.703-2.971,2.541-6.184,3.547-9.367c0.115-0.363-0.062-1.036-0.346-1.268
	c-0.744-0.604-1.639-1.021-2.438-1.56c-0.427-0.284-0.783-0.67-1.172-1.009C100.38,131.287,100.438,131.155,100.5,131.021"/>
<path fill="#231F20" d="M23.522,72.959c0.32-0.589,0.669-0.977,0.726-1.404c0.086-0.633,0.001-1.299-0.08-1.942
	c-0.122-0.98,0.495-1.482,1.255-1.595c0.509-0.075,1.088,0.336,1.636,0.531c-0.269,0.453-0.535,0.907-0.808,1.358
	c-0.278,0.461-0.708,0.887-0.82,1.384c-0.552,2.452-0.282,4.933-0.109,7.404c0.004,0.057,0.084,0.108,0.265,0.327
	c0.994-2.451,0.231-5.11,1.181-7.431c0.135-0.005,0.269-0.01,0.402-0.015c0.041,0.5,0.156,1.007,0.107,1.497
	c-0.126,1.274,0.059,1.504,1.286,1.197c0.726-0.182,1.416-0.514,2.246-0.824c0.195,0.574,0.083,1.005-0.725,1.184
	c-1.399,0.31-2.853,2.17-2.902,3.606c-0.014,0.421-0.194,0.835-0.237,1.259c-0.046,0.45-0.048,0.91-0.018,1.362
	c0.024,0.353,0.273,0.751,0.173,1.042c-0.624,1.82,0.08,3.252,1.14,4.662c0.225,0.298,0.076,0.879,0.099,1.331
	c-0.375-0.151-0.88-0.197-1.101-0.473c-0.969-1.208-1.416-2.605-1.559-4.175c-0.09-0.984-0.515-1.983-0.974-2.88
	c-0.823-1.608-0.888-3.328-1.018-5.053C23.621,74.433,23.564,73.552,23.522,72.959"/>
<path fill="#231F20" d="M66.364,154.008c-0.748-0.226-1.482-0.343-2.094-0.679c-0.274-0.149-0.303-0.746-0.442-1.138
	c0.403-0.119,0.926-0.457,1.186-0.312c0.64,0.35,1.005,0.084,1.557-0.188c1.689-0.836,2.885-2.198,4.164-3.502
	c0.492-0.5,1.154-0.875,1.804-1.172c1.894-0.863,3.578-1.924,4.763-3.727c0.715-1.083,2.039-1.071,2.975-0.248
	c0.686,0.604,0.396,0.885-0.193,1.297c-0.575,0.4-1.016,0.988-1.575,1.415c-1.267,0.962-2.155,2.32-4,2.651
	c-1.788,0.32-3.212,1.673-4.524,2.982c-0.713,0.713-1.468,1.389-2.264,2.006C67.338,153.691,66.822,153.811,66.364,154.008"/>
<path fill="#231F20" d="M55.393,161.373c0.992,0.068,1.926,0.133,2.862,0.191c0.106,0.006,0.245,0.011,0.318-0.047
	c1.625-1.302,3.51-0.582,5.254-0.563c1.778,0.019,3.452-0.374,5.17-0.636c1.661-0.254,1.907-0.039,2.498,1.601
	C68.888,163.684,57.05,163.381,55.393,161.373"/>
<path fill="#231F20" d="M107.802,88.761c0.058-0.373,0.039-0.775,0.181-1.112c0.879-2.112,1.191-4.317,1.152-6.586
	c-0.002-0.143-0.039-0.316,0.024-0.427c1.167-2.014,0.627-4.236,0.792-6.371c0.023-0.294,0.104-0.583,0.189-1.062
	C111.812,76.437,110.381,86.572,107.802,88.761"/>
<path fill="#231F20" d="M63.182,150.958c-0.234-0.142-0.487-0.259-0.699-0.429c-1.092-0.872-2.187-1.741-3.248-2.649
	c-0.201-0.171-0.258-0.511-0.381-0.772c0.292-0.096,0.663-0.354,0.859-0.258c0.663,0.326,1.302,0.731,1.874,1.198
	c0.526,0.429,1.009,0.938,1.404,1.487c0.255,0.355,0.318,0.848,0.468,1.277C63.366,150.861,63.274,150.909,63.182,150.958"/>
<path fill="#231F20" d="M111.712,72.08c-1.017,0.746-1.972,0.799-2.276,0.079c-0.14-0.333-0.06-0.989,0.185-1.207
	C110.213,70.417,111.128,70.933,111.712,72.08"/>
<path fill="#231F20" d="M56.625,146.064c-0.891,0.483-1.716,0.271-2.482-0.135c-0.209-0.109-0.376-0.562-0.326-0.808
	c0.037-0.175,0.483-0.394,0.728-0.371C55.416,144.829,56.236,145.062,56.625,146.064"/>
<path fill="#231F20" d="M41.586,154.415c-0.443,1.396-0.609,1.479-1.585,0.751C40.542,154.91,41.002,154.691,41.586,154.415"/>
<path fill="#FFFFFF" d="M41.733,72.927c-0.839,0.382-1.691,0.741-2.512,1.16c-0.247,0.125-0.411,0.413-0.614,0.627
	c0.231,0.209,0.497,0.624,0.689,0.592c0.855-0.137,1.745-0.287,2.512-0.659c0.552-0.267,0.901-0.924,1.392-1.35
	c0.862-0.748,1.412-0.562,2.23,0.168c0.455,0.406,1.286,0.391,1.948,0.565c0.063-0.099,0.127-0.196,0.19-0.294
	c-0.203-0.323-0.406-0.647-0.721-1.148c0.395-0.051,0.699-0.136,0.998-0.117c0.35,0.022,0.693,0.184,1.042,0.191
	c0.377,0.008,0.758-0.088,1.137-0.141c-0.109-0.351-0.265-0.696-0.315-1.057c-0.047-0.337,0.017-0.691,0.032-1.038
	c0.341,0.159,0.79,0.235,0.993,0.499c0.219,0.284,0.332,0.766,0.273,1.125c-0.157,0.938,0.383,0.902,1.021,0.898
	c2.007-0.012,4.023-0.118,5.905,0.837c0.47,0.239,1.105,0.17,1.554,0.431c0.45,0.262,0.98,0.718,1.067,1.168
	c0.071,0.367-0.422,0.882-0.74,1.27c-0.169,0.206-0.566,0.223-0.734,0.429c-0.18,0.222-0.287,0.568-0.269,0.851
	c0.008,0.112,0.463,0.158,0.671,0.299c0.741,0.503,1.668,0.896,2.138,1.593c0.537,0.794-0.052,1.898-0.809,2.577
	c-1.087,0.977-2.097,2.041-3.109,3.098c-0.396,0.412-0.728,0.891-1.048,1.365c-0.129,0.191-0.278,0.541-0.194,0.663
	c0.137,0.196,0.543,0.432,0.688,0.359c0.684-0.346,1.354-0.744,1.95-1.22c0.306-0.245,0.448-0.695,0.665-1.052
	c0.122,0.094,0.244,0.188,0.366,0.281c0.167,0.338,0.335,0.676,0.497,1.004c2.568-0.611,3.612-3.064,3.738-5.099
	c0.033-0.541,0.208-1.154,0.524-1.58c0.77-1.038,1.699-1.955,2.476-2.988c0.194-0.258,0.204-0.85,0.042-1.147
	c-0.698-1.276-0.606-2.919-1.873-3.941c-0.236-0.191-0.301-0.655-0.348-1.006c-0.281-2.091-1.508-3.25-3.463-3.934
	c-0.762-0.267-1.624-0.969-1.918-1.687c-0.466-1.135-1.141-1.726-2.272-1.849c-2-0.217-4.016-0.325-6.009-0.591
	c-1.016-0.137-1.998-0.517-2.995-0.787c-1.002-0.271-2.008-0.535-3.006-0.821c-0.263-0.075-0.507-0.22-0.759-0.333
	c0.127-0.274,0.202-0.599,0.396-0.815c0.483-0.537,1.053-0.996,1.528-1.539c0.433-0.494,0.765-1.076,1.179-1.587
	c0.513-0.629,1.069-1.223,1.596-1.84c0.164-0.191,0.374-0.391,0.428-0.62c0.525-2.238,2.256-3.671,3.418-5.196
	c-0.454-0.953-0.824-1.808-1.278-2.615c-0.093-0.165-0.512-0.226-0.762-0.193c-0.154,0.021-0.268,0.315-0.405,0.483
	c-0.342,0.42-0.646,1.277-1.263,0.722c-0.361-0.325-0.464-1.318-0.244-1.818c0.381-0.865,1.086-1.594,1.688-2.355
	c0.487-0.618,0.805-1.333,1.839-1.446c0.662-0.071,1.299-0.739,1.854-1.244c0.23-0.209,0.306-0.691,0.294-1.043
	c-0.021-0.54-0.243-1.072-0.263-1.611c-0.061-1.677,1.082-2.359,2.607-1.623c0.347,0.167,0.77,0.337,1.129,0.292
	c1.196-0.153,2.33,0.062,3.506,0.217c1.132,0.148,1.828,0.646,2.544,1.385c0.221,0.228,0.773,0.398,1.024,0.28
	c0.674-0.318,1.261-0.816,1.896-1.222c0.326-0.209,0.825-0.62,0.999-0.519c1.526,0.894,2.777-0.51,4.193-0.429
	c0.785,0.045,1.577-0.084,2.574-0.148c-0.588,0.894-2.055-0.134-1.854,1.27c0.107,0.768-0.324,1.994,1.206,2.011
	c1.072,0.012,1.597-0.365,1.912-1.457c1.979,0.813,3.966,1.628,6.134,2.518c0.367-0.458,1.053-0.809,1.938-0.119
	c0.488,0.38,0.684,0.717-0.006,1.013c-0.928,0.398-0.793,0.642-0.215,1.44c0.877,1.207,2.502,1.992,2.453,3.803
	c-0.004,0.065,0.043,0.137,0.076,0.2c0.223,0.419,0.729,1.093,0.622,1.209c-0.444,0.488-1.024,0.948-1.646,1.156
	c-0.905,0.306-1.206,0.834-1.086,1.709c0.109,0.787,0.166,1.587,0.354,2.354c0.165,0.679,0.652,1.229,1.315,0.583
	c0.955-0.931,1.939-0.548,2.576,0.077c0.836,0.821,1.584,1.895,1.944,3c0.443,1.361,1,2.509,2.345,3.037
	c1.365,0.536,1.938,1.608,2.446,3.068c-0.536-0.059-1.024,0.032-1.312-0.168c-1.727-1.21-3.463-0.473-5.252-0.227
	c-1.959,0.27-3.965,0.389-5.938,0.301c-1.649-0.073-3.021,0.322-3.866,1.669c-0.918,1.459-2.396,2.022-3.731,2.843
	c-0.272,0.167-0.604,0.29-0.796,0.525c-1.471,1.817-3.062,3.555-3.67,5.924c-0.114,0.451-0.655,0.785-0.812,1.238
	c-0.337,0.974-0.124,1.817,0.824,2.42c0.258,0.164,0.369,0.558,0.547,0.846c-0.286,0.075-0.567,0.205-0.856,0.216
	c-0.97,0.037-1.129,0.271-0.772,1.199c0.282,0.735,0.558,1.473,0.813,2.218c0.31,0.899,0.699,1.64,1.867,1.562
	c0.164-0.01,0.576,0.606,0.512,0.829c-0.213,0.753,0.141,0.856,0.738,0.962c0.399,0.071,0.822,0.277,1.135,0.54
	c0.623,0.521,1.002,1.392,2.082,1.161c0.131-0.028,0.365,0.535,0.584,0.798c0.187,0.223,0.42,0.406,0.631,0.606
	c0.197-0.278,0.562-0.56,0.558-0.834c-0.024-1.177-0.261-2.29-1.312-3.066c-0.664-0.492-1.314-1.024-1.887-1.62
	c-0.726-0.753-0.496-1.38,0.516-1.61c0.9-0.206,1.213-0.792,0.856-1.633c-0.055-0.13-0.132-0.266-0.235-0.361
	c-1.483-1.357-1.873-3.167-2.113-5.043c-0.021-0.179-0.139-0.383-0.083-0.529c0.25-0.68,0.392-1.52,0.883-1.945
	c0.291-0.252,1.231,0.024,1.744,0.309c0.522,0.29,0.88,0.879,1.455,1.492c-0.435,0.127-0.74,0.273-1.056,0.298
	c-0.65,0.049-1.092,0.368-0.996,0.999c0.037,0.234,0.597,0.439,0.949,0.56c0.371,0.125,0.782,0.123,1.176,0.192
	c1.639,0.291,2.146-0.232,1.85-1.846c-0.078-0.42-0.012-0.868-0.012-1.579c-0.526-0.122-1.381-0.321-2.236-0.52
	c-0.031-0.122-0.061-0.243-0.09-0.365c0.908-0.505,1.804-1.046,2.746-1.48c0.154-0.07,0.697,0.284,0.761,0.522
	c0.235,0.882,0.347,1.8,0.526,2.833c0.268-0.031,0.647-0.094,1.029-0.113c0.323-0.016,0.776-0.114,0.949,0.054
	c1.415,1.375,2.859,0.144,4.286,0.134c1.261-0.008,2.521,0.125,3.78,0.213c0.533,0.037,1.062,0.132,1.595,0.181
	c0.84,0.078,1.683,0.138,2.778,0.227c-0.592-0.698-1.086-1.28-1.604-1.893c0.101-0.04,0.392-0.155,0.798-0.316
	c-0.313-1.07-1.096-0.626-1.625-0.479c-1.328,0.369-1.315,0.414-1.695-0.922c-0.242-0.862-1.361-1.556-2.58-1.639
	c-2.842-0.195-5.678-0.452-8.521-0.582c-0.763-0.035-1.546,0.279-2.312,0.462c-0.521,0.125-1.022,0.357-1.551,0.432
	c-0.254,0.037-0.676-0.108-0.779-0.301c-0.127-0.233-0.121-0.739,0.044-0.892c0.44-0.404,0.97-0.901,1.514-0.968
	c1.737-0.213,3.498-0.317,5.251-0.332c1.689-0.013,3.385,0.1,5.07,0.231c0.967,0.076,1.847,0.478,2.908,0.075
	c0.945-0.359,2.338,0.826,2.509,1.825c0.149,0.881,1.437,1.544,2.624,1.32c1.576-0.297,2.828,0.338,3.814,1.45
	c0.983,1.108,0.916,1.792,0.113,2.804c0.182,0.915,0.335,1.707,0.523,2.662c0.199,0.047,0.637,0.152,1.371,0.331
	c-0.596,0.742-0.998,1.466-1.602,1.929c-0.527,0.404-0.599,0.739-0.388,1.27c0.562,1.421,0.429,2.789-0.216,4.164
	c-0.155,0.333-0.193,0.938,0.005,1.177c0.53,0.636,0.489,1.117-0.011,1.719c-0.229,0.277-0.301,0.685-0.444,1.033
	c-0.119-0.009-0.241-0.018-0.361-0.024c0-0.397-0.153-0.892,0.025-1.176c0.76-1.197-0.365-2.035-0.505-3.049
	c-0.01-0.078-0.438-0.214-0.535-0.141c-0.21,0.155-0.456,0.422-0.469,0.656c-0.098,1.679-0.137,3.361-0.2,5.042
	c-0.011,0.248-0.048,0.495-0.097,0.739c-0.287,1.436-0.916,2.904-0.771,4.293c0.123,1.182,0.279,2.224-0.268,3.295
	c-0.039,0.078,0.018,0.215,0.049,0.314c0.02,0.062,0.08,0.113,0.184,0.254c0.202-0.229,0.395-0.445,0.786-0.891
	c0.162,0.572,0.476,1.057,0.373,1.423c-0.312,1.112-0.786,2.179-1.214,3.312c-0.215-0.205-0.428-0.408-0.858-0.818
	c0.15,1.199,0.454,2.15,0.33,3.038c-0.122,0.877-0.678,1.692-1.079,2.616c-0.172-0.162-0.396-0.375-0.725-0.688
	c-0.264,0.854-0.321,1.813-1.419,1.94c-0.063,0.007-0.14,0.322-0.132,0.49c0.049,0.863-0.297,1.43-1.1,1.806
	c-0.27,0.125-0.445,0.536-0.578,0.854c-0.545,1.302-1.422,1.646-2.541,0.853c-0.562-0.397-0.812-0.225-1.121,0.238
	c-0.955,1.436-1.677,3.161-2.953,4.209c-1.5,1.23-2.135,2.959-3.33,4.28c-1.928,2.129-4.094,4.063-6.303,5.906
	c-1.024,0.856-2.395,1.294-3.597,1.946c-0.237,0.131-0.397,0.402-0.634,0.549c-0.209,0.13-0.547,0.314-0.697,0.232
	c-0.838-0.455-1.413,0.059-2.102,0.389c-0.728,0.349-1.551,0.496-2.333,0.731c-0.049-0.132-0.098-0.266-0.146-0.397
	c0.401-0.204,0.804-0.41,1.206-0.615c0.01-0.118,0.021-0.236,0.032-0.354c-0.538-0.1-1.071-0.225-1.611-0.293
	c-1.529-0.191-3.064-0.338-4.588-0.558c-0.333-0.048-0.707-0.265-0.935-0.519c-0.955-1.058-1.853-2.164-2.792-3.237
	c-0.195-0.224-0.493-0.548-0.711-0.522c-0.737,0.08-0.895-0.268-1.041-0.897c-0.233-0.997-0.644-1.938-1.785-2.263
	c-0.134-0.037-0.289-0.107-0.371-0.211c-1.749-2.227-4.125-3.932-5.318-6.629c-0.535-1.207-1.365-2.289-2.092-3.406
	c-0.476-0.731-0.95-0.961-1.502,0.006c-0.484,0.848-1.078,0.418-1.44-0.12c-0.724-1.076-1.448-2.173-1.998-3.343
	c-0.635-1.353-1.294-2.756-1.559-4.207c-0.362-1.993-0.769-4.033-0.257-6.101c0.105-0.424-0.131-0.919-0.132-1.382
	c-0.001-0.49,0.065-0.982,0.146-1.467c0.154-0.936,0.324-1.869,0.516-2.797c0.304-1.471,0.612-2.902-0.514-4.242
	c-0.171-0.204,0.25-0.94,0.449-1.408c0.146-0.342,0.509-0.636,0.543-0.975c0.173-1.714,0.146-1.717-1.576-1.729
	c-1.845-0.013-2.086-0.229-2.269-2.086c-0.031-0.32-0.077-0.67,0.015-0.967c0.362-1.186,0.412-2.331-0.021-3.53
	c-0.306-0.845-0.078-1.579,0.783-2.135c0.484-0.312,0.811-0.905,1.137-1.417c0.647-1.017,1.634-1.392,2.747-1.501
	c0.293-0.029,0.611,0.185,0.918,0.286C41.767,72.725,41.75,72.826,41.733,72.927 M70.564,94.777
	c0.336,0.037,0.512,0.072,0.686,0.076c0.893,0.022,1.625,0.131,1.668,1.336c0.027,0.764,1.033,1.188,1.877,1.004
	c0.637-0.137,1.287-0.209,2.213-0.354c-0.092-0.505-0.199-1.099-0.328-1.805c2.385,0.163,1.719-2.102,2.807-3.241
	c-0.519-0.17-0.813-0.285-1.117-0.362c-0.922-0.23-1.854-0.423-2.77-0.674c-1.5-0.408-2.99-0.947-4.33,0.424
	c-0.149,0.154-0.543,0.154-0.801,0.104c-1.148-0.227-2.284-0.672-3.433-0.703c-1.439-0.039-2.027-1.204-3.096-1.695
	c0.218-0.464,0.54-0.822,0.482-1.101c-0.105-0.506-0.437-0.966-0.674-1.445c-0.244,0.38-0.632,0.735-0.705,1.144
	c-0.237,1.348-0.622,1.891-1.995,1.983c-0.724,0.048-1.472-0.27-2.32-0.444c-0.248,0.6-0.636,1.535,0.282,2.1
	c0.821,0.507,1.097,1.118,1.253,1.984c0.253,1.414,2.6,2.604,3.93,2.066c0.522-0.21,1.048-0.408,1.593-0.619
	c-0.202-0.664-1.928-1.639-2.893-1.603c-0.413,0.017-0.853-0.162-1.235-0.349c-0.077-0.037,0.009-0.718,0.095-0.734
	c0.425-0.087,0.876-0.067,1.316-0.055c0.312,0.01,0.718,0.211,0.919,0.078c1.176-0.771,2.191-0.103,3.297,0.191
	c1.132,0.299,2.382,0.646,3.48,0.439c1.018-0.191,1.838,0.013,2.715,0.273c0.267,0.08,0.461,0.383,0.689,0.585
	c-0.268,0.261-0.495,0.617-0.816,0.754c-0.254,0.106-0.64-0.007-0.936-0.11C71.659,93.761,71.092,93.938,70.564,94.777
	 M72.834,108.232c0.023,0.102,0.044,0.201,0.064,0.301c1.213-0.205,2.426-0.408,3.636-0.618c0.062-0.01,0.108-0.09,0.165-0.134
	c0.863-0.711,1.719-1.434,2.596-2.131c1.268-1.006,2.557-1.986,3.82-2.996c0.248-0.2,0.503-0.451,0.621-0.733
	c0.146-0.34,0.328-0.869,0.172-1.079c-0.202-0.271-0.719-0.425-1.102-0.429c-1.298-0.013-2.6,0.019-3.893,0.126
	c-0.637,0.052-1.256,0.311-1.882,0.477c-0.009,0.176-0.019,0.353-0.026,0.527c0.596,0.189,1.18,0.458,1.788,0.546
	c1.024,0.147,1.286,0.56,0.701,1.416c-0.229,0.339-0.604,0.599-0.956,0.827c-0.652,0.426-1.494,0.669-1.979,1.229
	c-0.93,1.073-1.744,2.203-3.297,2.388C73.111,107.967,72.979,108.135,72.834,108.232 M61.697,100.852
	c0.01-0.186,0.02-0.367,0.031-0.552c-0.408-0.087-0.815-0.235-1.224-0.241c-0.642-0.013-1.286,0.123-1.927,0.106
	c-1.872-0.043-3.744-0.188-5.613-0.156c-0.423,0.007-1.054,0.509-1.205,0.923c-0.245,0.674,0.284,1.045,0.944,1.314
	c0.558,0.227,1.028,0.689,1.504,1.085c0.272,0.228,0.44,0.587,0.724,0.791c1.424,1.021,2.856,2.032,4.32,2.995
	c0.345,0.228,0.822,0.254,1.239,0.373c0.059-0.098,0.117-0.193,0.175-0.289c-1.161-0.999-2.539-1.819-2.979-3.412
	c-0.037-0.133-0.307-0.188-0.428-0.314c-0.32-0.338-0.711-0.658-0.89-1.065c-0.121-0.276,0.022-0.978,0.135-0.995
	c1.122-0.199,2.073-1.156,3.364-0.688C60.421,100.923,61.083,100.818,61.697,100.852 M70.588,108.667
	c0.01-0.135,0.021-0.269,0.031-0.399c-2.483-0.227-4.966-0.453-7.45-0.68c-0.016,0.169-0.031,0.337-0.047,0.505
	C65.578,108.604,68.035,109.088,70.588,108.667 M72.176,121.871c0.393,0.521,0.782,1.045,1.176,1.566
	c0.445-0.605,1.099-1.156,1.281-1.834c0.186-0.679-0.555-0.885-1.174-0.904C72.771,120.678,72.343,120.939,72.176,121.871
	 M89.129,99.129c0.625-1.514,0.525-2.199-0.504-3.193c-0.141-0.137-0.414-0.135-0.625-0.195c-0.021,0.227-0.127,0.488-0.052,0.681
	C88.303,97.309,88.709,98.18,89.129,99.129 M80.427,96.785c0.671,0.387,1.113,0.678,1.585,0.902
	c0.287,0.138,0.623,0.174,0.937,0.256c0.065-0.336,0.266-0.731,0.153-0.992c-0.103-0.24-0.539-0.463-0.832-0.467
	C81.742,96.479,81.215,96.645,80.427,96.785 M61.251,95.799c-0.476-0.367-0.764-0.764-1.052-0.764
	c-0.269-0.001-0.803,0.51-0.759,0.634c0.145,0.408,0.498,0.742,0.77,1.104C60.486,96.516,60.761,96.259,61.251,95.799
	 M42.086,81.083c-0.544,0.549-1.088,1.099-1.761,1.778C41.769,83.22,42.392,82.615,42.086,81.083 M66.906,96.916
	c0.818-0.295,1.628-0.585,2.46-0.885C68.05,95.458,66.861,95.882,66.906,96.916 M74.012,100.949
	c0.002,0.136,0.004,0.271,0.006,0.406c0.658,0.719,1.239,0.435,2.082-0.406H74.012z M57.67,78.952l-0.166-0.416
	c-0.597-0.16-1.085-0.091-1.311,0.52c0.058,0.134,0.117,0.267,0.175,0.401L57.67,78.952z M71.339,100.996
	c-0.001,0.184-0.002,0.365-0.003,0.551l1.799-0.121c-0.009-0.144-0.016-0.285-0.021-0.43H71.339z"/>
<path fill="#FFFFFF" d="M86.486,135.245c-0.62,0.187-1.233,0.405-1.865,0.538c-0.234,0.05-0.514-0.098-0.771-0.155
	c0.119-0.231,0.184-0.595,0.366-0.673c0.863-0.366,0.911-1.07,1.144-1.867c0.324-1.099,1.086-2.079,1.703-3.081
	c0.619-1.004,1.244-2.011,1.959-2.946c0.479-0.631,1.117-1.143,1.817-1.58c0.017-0.069,0.062-0.148,0.043-0.207
	c-0.2-0.604-0.674-1.273-0.541-1.791c0.125-0.481,0.896-0.791,1.361-1.198c0.216-0.188,0.362-0.454,0.575-0.644
	c0.246-0.218,0.574-0.582,0.789-0.533c0.279,0.062,0.584,0.428,0.699,0.732c0.479,1.27,0.166,2.469-0.437,3.633
	c-0.239,0.465-0.472,0.961-0.562,1.469c-0.279,1.578-1.056,2.125-2.513,1.638c-0.729-0.244-1.161-0.077-1.403,0.687
	c-0.125,0.396-0.435,0.729-0.604,1.117c-0.17,0.387-0.481,0.877-0.369,1.193c0.479,1.355-0.344,1.797-1.339,2.201
	c-0.188,0.076-0.337,0.244-0.506,0.371c0.152,0.405,0.289,0.768,0.426,1.127L86.486,135.245"/>
<path fill="#FFFFFF" d="M48.587,66.706c2.666-0.172,5.33-0.429,7.997-0.471c0.981-0.016,1.995,0.407,2.949,0.752
	c0.688,0.249,1.324,0.667,1.937,1.078c0.179,0.121,0.199,0.477,0.292,0.725c-0.228,0.077-0.462,0.232-0.683,0.214
	c-0.464-0.038-0.94-0.113-1.378-0.267c-1.678-0.589-3.357-0.79-5.087-0.226c-0.335,0.108-0.716,0.093-1.077,0.104
	c-2.225,0.066-4.45,0.158-6.675,0.153c-0.41,0-0.971-0.301-1.198-0.64c-0.479-0.716-0.118-1.37,0.75-1.455
	c0.716-0.069,1.445-0.014,2.168-0.014C48.584,66.675,48.586,66.69,48.587,66.706"/>
<path fill="#FFFFFF" d="M33.038,77.305c0.187,0.501,0.411,0.865,0.448,1.248c0.117,1.213,0.208,2.432,0.209,3.65
	c0,0.424-0.291,0.848-0.448,1.272c-0.55-0.334-1.515-0.605-1.579-1.016C31.394,80.678,31.638,78.926,33.038,77.305"/>
<path fill="#FFFFFF" d="M104.302,82.771c-0.017,1.06-0.251,2.022-1.293,2.544c-0.229,0.113-0.536,0.06-0.81,0.082
	c0.008-0.252-0.006-0.508,0.025-0.758c0.088-0.739,0.205-1.476,0.289-2.216c0.067-0.581-0.164-1.396,0.707-1.456
	c0.854-0.059,0.965,0.706,1.049,1.371C104.286,82.483,104.291,82.627,104.302,82.771"/>
<path fill="#FFFFFF" d="M40.336,72.137c-0.619-0.728-1.276-1.189-1.452-1.792c-0.205-0.704,1.058-2.083,1.333-1.793
	c0.612,0.642,1.084,1.466,1.409,2.295C41.7,71.035,40.943,71.548,40.336,72.137"/>
<path fill="#FFFFFF" d="M56.187,72.239c-0.473-0.922,0.228-1.604,0.662-2.29c0.1-0.159,0.752-0.106,1.063,0.038
	c0.479,0.221,0.898,0.585,1.309,0.928c0.137,0.115,0.232,0.358,0.222,0.536c-0.006,0.102-0.25,0.246-0.406,0.276
	C58.136,71.905,57.229,72.056,56.187,72.239"/>
<path fill="#FFFFFF" d="M31.569,132.828c-0.317,2.361-1.813,4.459-0.756,6.837C29.446,137.445,29.835,133.368,31.569,132.828"/>
<path fill="#FFFFFF" d="M62.278,73.951c-0.512-0.778-0.878-1.247-1.117-1.774c-0.044-0.098,0.409-0.601,0.654-0.618
	c0.732-0.051,1.261,0.38,1.289,1.114C63.116,72.979,62.718,73.3,62.278,73.951"/>
<path fill="#FFFFFF" d="M98.913,91.077c0.746,0.651,0.806,3.422,0,4.597V91.077z"/>
<path fill="#FFFFFF" d="M88.009,73.652c-0.405-0.502-0.81-0.851-0.753-0.958c0.24-0.464,0.617-0.857,0.945-1.275
	c0.291,0.264,0.872,0.626,0.82,0.772C88.865,72.65,88.471,73.028,88.009,73.652"/>
<path fill="#FFFFFF" d="M42.368,125.17c-0.587,0.366-0.923,0.745-1.197,0.703c-0.317-0.049-0.58-0.464-0.865-0.721
	c0.313-0.303,0.585-0.727,0.959-0.856C41.445,124.23,41.819,124.717,42.368,125.17"/>
<path fill="#FFFFFF" d="M37.149,59.277c0,0.453,0.021,0.907-0.028,1.354c-0.006,0.052-0.398,0.062-0.611,0.092v-1.442
	C36.723,59.279,36.937,59.278,37.149,59.277"/>
<path fill="#FFFFFF" d="M37.94,58.979c-0.275-0.437-0.524-0.663-0.481-0.799c0.103-0.335,0.34-0.63,0.523-0.94
	c0.152,0.162,0.447,0.345,0.428,0.485C38.364,58.069,38.173,58.393,37.94,58.979"/>
<path fill="#231F20" d="M70.564,94.777c0.526-0.84,1.095-1.018,1.854-0.75c0.296,0.104,0.682,0.217,0.936,0.109
	c0.321-0.137,0.549-0.492,0.816-0.754c-0.229-0.201-0.424-0.505-0.689-0.585c-0.877-0.262-1.697-0.466-2.715-0.272
	c-1.099,0.205-2.349-0.143-3.48-0.44c-1.106-0.294-2.121-0.964-3.297-0.19c-0.201,0.131-0.606-0.069-0.919-0.08
	c-0.44-0.013-0.892-0.031-1.316,0.056c-0.086,0.019-0.172,0.696-0.095,0.733c0.382,0.187,0.823,0.366,1.236,0.35
	c0.964-0.036,2.691,0.938,2.893,1.604c-0.545,0.211-1.071,0.408-1.593,0.618c-1.33,0.536-3.677-0.653-3.93-2.067
	c-0.156-0.865-0.432-1.478-1.253-1.983c-0.917-0.563-0.529-1.5-0.282-2.099c0.849,0.175,1.596,0.49,2.32,0.443
	c1.373-0.093,1.758-0.635,1.995-1.983c0.073-0.41,0.46-0.764,0.704-1.145c0.238,0.479,0.569,0.939,0.674,1.445
	c0.058,0.278-0.264,0.636-0.482,1.101c1.069,0.491,1.657,1.656,3.096,1.695c1.149,0.031,2.284,0.479,3.433,0.703
	c0.258,0.052,0.65,0.052,0.801-0.104c1.34-1.371,2.83-0.832,4.33-0.424c0.916,0.251,1.848,0.442,2.77,0.674
	c0.304,0.077,0.6,0.192,1.117,0.362c-1.088,1.14-0.422,3.404-2.807,3.241c0.129,0.706,0.236,1.3,0.328,1.803
	c-0.926,0.146-1.576,0.221-2.213,0.357c-0.844,0.184-1.85-0.242-1.877-1.006c-0.043-1.205-0.775-1.312-1.668-1.336
	C71.076,94.85,70.9,94.814,70.564,94.777"/>
<path fill="#231F20" d="M72.835,108.232c0.144-0.099,0.276-0.267,0.431-0.284c1.553-0.185,2.367-1.313,3.297-2.388
	c0.483-0.561,1.324-0.803,1.979-1.229c0.354-0.229,0.727-0.488,0.956-0.827c0.585-0.856,0.323-1.269-0.701-1.416
	c-0.608-0.088-1.192-0.356-1.788-0.546c0.01-0.176,0.018-0.354,0.026-0.527c0.626-0.166,1.247-0.425,1.882-0.477
	c1.292-0.107,2.596-0.139,3.891-0.126c0.385,0.003,0.9,0.155,1.104,0.429c0.155,0.21-0.027,0.739-0.173,1.079
	c-0.118,0.282-0.375,0.533-0.621,0.733c-1.266,1.01-2.553,1.988-3.82,2.996c-0.877,0.697-1.73,1.42-2.596,2.131
	c-0.057,0.045-0.104,0.124-0.165,0.134c-1.21,0.213-2.423,0.415-3.636,0.618C72.878,108.434,72.857,108.334,72.835,108.232"/>
<path fill="#231F20" d="M61.697,100.852c-0.614-0.033-1.276,0.071-1.829-0.127c-1.291-0.468-2.241,0.489-3.364,0.688
	c-0.112,0.021-0.255,0.72-0.135,0.996c0.178,0.407,0.57,0.726,0.89,1.065c0.121,0.129,0.391,0.183,0.428,0.314
	c0.44,1.593,1.818,2.413,2.979,3.412c-0.058,0.096-0.117,0.191-0.175,0.289c-0.417-0.119-0.895-0.146-1.239-0.373
	c-1.463-0.963-2.896-1.975-4.32-2.995c-0.284-0.204-0.452-0.563-0.724-0.791c-0.477-0.396-0.947-0.858-1.504-1.085
	c-0.66-0.27-1.188-0.641-0.943-1.314c0.15-0.414,0.781-0.916,1.205-0.923c1.869-0.032,3.742,0.113,5.613,0.156
	c0.641,0.017,1.285-0.119,1.927-0.106c0.409,0.006,0.816,0.154,1.224,0.241C61.717,100.484,61.707,100.666,61.697,100.852"/>
<path fill="#231F20" d="M70.588,108.667c-2.552,0.421-5.01-0.063-7.466-0.574c0.016-0.168,0.032-0.336,0.047-0.505
	c2.483,0.227,4.966,0.453,7.45,0.678C70.609,108.398,70.598,108.532,70.588,108.667"/>
<path fill="#231F20" d="M72.176,121.871c0.167-0.932,0.596-1.193,1.283-1.172c0.619,0.021,1.357,0.227,1.174,0.904
	s-0.836,1.228-1.281,1.834C72.958,122.916,72.566,122.393,72.176,121.871"/>
<path fill="#231F20" d="M89.129,99.129c-0.42-0.949-0.826-1.82-1.181-2.712c-0.075-0.188,0.03-0.451,0.052-0.678
	c0.211,0.062,0.484,0.06,0.625,0.194C89.654,96.93,89.754,97.615,89.129,99.129"/>
<path fill="#231F20" d="M80.428,96.785c0.787-0.141,1.314-0.307,1.842-0.301c0.293,0.004,0.729,0.227,0.832,0.467
	c0.111,0.261-0.088,0.656-0.153,0.992c-0.312-0.082-0.648-0.118-0.937-0.256C81.54,97.463,81.098,97.172,80.428,96.785"/>
<path fill="#231F20" d="M61.251,95.799c-0.49,0.46-0.765,0.717-1.041,0.977c-0.272-0.363-0.625-0.697-0.77-1.105
	c-0.044-0.124,0.491-0.635,0.759-0.634C60.488,95.035,60.775,95.432,61.251,95.799"/>
<path fill="#231F20" d="M42.086,81.083c0.306,1.532-0.317,2.137-1.761,1.778C40.997,82.182,41.542,81.632,42.086,81.083"/>
<path fill="#231F20" d="M66.906,96.915c-0.045-1.033,1.144-1.457,2.46-0.884C68.533,96.331,67.724,96.621,66.906,96.915"/>
<path fill="#231F20" d="M74.012,100.95H76.1c-0.843,0.84-1.424,1.124-2.082,0.405C74.016,101.22,74.014,101.085,74.012,100.95"/>
<path fill="#231F20" d="M57.67,78.952l-1.301,0.505c-0.059-0.134-0.117-0.267-0.175-0.401c0.226-0.611,0.714-0.68,1.311-0.52
	L57.67,78.952z"/>
<path fill="#231F20" d="M71.339,100.996h1.772c0.008,0.145,0.015,0.286,0.022,0.43l-1.799,0.121
	C71.337,101.361,71.338,101.18,71.339,100.996"/>
</svg>
