<?xml version="1.0" encoding="utf-8"?>
<!-- Generator: Adobe Illustrator 16.0.0, SVG Export Plug-In . SVG Version: 6.00 Build 0)  -->
<!DOCTYPE svg PUBLIC "-//W3C//DTD SVG 1.1//EN" "http://www.w3.org/Graphics/SVG/1.1/DTD/svg11.dtd">
<svg version="1.1" id="Layer_1" xmlns="http://www.w3.org/2000/svg" xmlns:xlink="http://www.w3.org/1999/xlink" x="0px" y="0px"
	 width="140px" height="171px" viewBox="0 0 140 171" enable-background="new 0 0 140 171" xml:space="preserve">
<g>
	<path fill="#231F20" d="M34.184,102.227c0.824,1.037,1.501,2.023,2.319,2.875c0.553,0.572,1.323,0.928,1.956,1.43
		c0.675,0.534,1.334,1.096,1.94,1.703c1.657,1.665,2.892,3.767,4.972,4.98c0.619,0.359,1.452,0.524,2.178,0.498
		c3.668-0.127,7.337-0.3,10.999-0.552c1.573-0.109,2.978-0.775,4.189-1.828c1.187-1.032,2.386-2.053,3.622-3.021
		c0.566-0.445,1.193-0.888,1.866-1.109c1.483-0.487,2.38-1.5,3.007-2.854c0.637-1.378,1.299-2.741,1.947-4.112
		c0.274-0.582,0.661-0.81,1.251-0.42c0.576,0.383,1.105,0.146,1.358-0.327c1.025-1.917,2.512-3.725,2.542-5.972
		c0.044-2.918,0.972-5.668,1.292-8.526c0.11-0.978,0.693-1.961,1.257-2.815c0.813-1.234,1.136-2.526,1.024-3.968
		c-0.022-0.317-0.022-0.644,0.033-0.954c0.313-1.805,0.634-3.61,0.991-5.407c0.063-0.322,0.242-0.677,0.478-0.901
		c0.661-0.623,0.684-1.348,0.364-2.083c-0.314-0.723-1.109-1.007-2.036-0.741c-0.636,0.185-1.281,0.429-1.841,0.774
		c-1.585,0.978-3.179,1.133-4.788,0.156c-0.396-0.24-0.693-0.671-0.979-1.056c-0.438-0.589-0.871-0.664-1.279-0.224
		c-0.309,0.333-0.688,0.826-1.05,0.837c-0.803,0.025-1.705-0.105-2.156-0.911c-0.622-1.112-1.201-2.258-1.682-3.438
		c-0.529-1.304-0.988-1.393-2.104-0.615c-0.938,0.655-1.778,1.227-1.763,2.51c0.003,0.188-0.213,0.421-0.387,0.561
		c-0.821,0.66-0.959,1.478-0.652,2.438c0.17,0.528,0.249,1.088,0.451,1.601c0.49,1.238,0.572,2.426,0.18,3.75
		c-0.239,0.81-0.088,1.801,0.105,2.661c0.395,1.734,0.951,3.431,1.407,5.151c0.118,0.445,0.154,0.922,0.154,1.385
		c0.001,1.145-0.574,1.888-1.622,2.361c-1.049,0.478-2.08,1.012-3.062,1.614c-1.011,0.62-1.637,0.63-2.308-0.372
		c-0.716-1.068-1.687-1.753-2.793-2.311c-0.206-0.104-0.417-0.224-0.583-0.381c-0.552-0.527-0.499-0.958,0.176-1.3
		c0.441-0.224,0.922-0.369,1.371-0.582c1.404-0.664,1.908-1.865,1.396-3.33c-0.172-0.494-0.465-0.962-0.557-1.469
		c-0.17-0.962-0.319-1.943-0.322-2.917c-0.006-1.246,0.332-2.515,0.18-3.732c-0.26-2.046,0.264-3.938,0.713-5.866
		c0.072-0.312,0.229-0.611,0.26-0.926c0.125-1.304,0.763-2.298,1.753-3.114c0.241-0.2,0.485-0.458,0.602-0.741
		c1.064-2.596,3.223-3.507,5.786-3.887c1.233-0.182,2.441-0.53,3.662-0.798c1.367-0.301,2.754-0.535,4.095-0.927
		c0.51-0.149,1.016-0.581,1.343-1.02c0.391-0.525,0.542-1.21-0.104-1.727c-1.065-0.856-1.19-2.171-1.626-3.325
		c-0.088-0.233,0.108-0.698,0.323-0.898c0.549-0.518,1.172-0.962,1.788-1.406c0.639-0.461,1.216-0.47,1.729,0.246
		c0.231,0.323,0.565,0.59,0.896,0.824c0.756,0.539,1.317,0.479,1.838-0.145c0.527-0.634,0.513-1.625-0.083-2.143
		c-0.303-0.263-0.67-0.471-1.039-0.635c-1.405-0.623-2.191-1.708-2.415-3.201c-0.192-1.292-0.896-2.269-1.641-3.312
		c-1.235-1.732-2.967-2.763-4.651-3.901c-1.69-1.143-3.685-1.417-5.579-1.98c-0.722-0.214-1.449-0.427-2.186-0.571
		c-1.279-0.251-2.564-0.604-3.852-0.631c-1.732-0.035-3.357-0.242-4.869-1.152c-1.377-0.829-2.923-1.198-4.509-1.239
		c-0.632-0.017-1.308,0.254-1.906,0.524c-2.04,0.918-4,1.977-6.13,2.745c-1.583,0.571-2.906,1.873-4.331,2.866
		c-0.309,0.215-0.538,0.542-0.844,0.759c-1.483,1.056-2.286,2.636-3.153,4.148c-0.192,0.334-0.137,0.946,0.033,1.328
		c0.507,1.137,0.533,2.149-0.224,3.209c-0.647,0.909-0.221,1.944-0.003,2.881c0.495,2.136-0.347,4.39-2.196,5.615
		c-0.255,0.169-0.558,0.426-0.621,0.693c-0.105,0.444-0.035,0.93-0.039,1.398c0.312-0.252,0.685-0.458,0.924-0.767
		c1.392-1.802,3.368-2.218,5.208-0.905c1.275,0.909,2.735,0.874,4.14,1.21c2.219,0.532,4.572,0.717,6.542,2.031
		c1.445,0.965,2.259,2.413,2.771,4.031c0.5,1.584-0.283,2.705-1.951,2.845c-0.29,0.024-0.583,0.019-0.876,0.021
		c-0.91,0.009-1.453,0.438-1.694,1.337c-0.309,1.152-0.794,1.535-1.874,1.615c-1.156,0.087-2.106-0.412-2.542-1.335
		c-0.062-0.131-0.102-0.274-0.165-0.405c-0.541-1.118-1.604-1.241-2.351-0.241c-0.365,0.488-0.61,1.065-0.957,1.569
		c-0.608,0.883-1.232,0.921-2.009,0.187c-0.466-0.44-0.961-0.851-1.436-1.281c-0.603-0.548-0.59-1.16-0.002-1.656
		c0.43-0.363,0.96-0.706,1.498-0.824c1.646-0.366,3.331-0.564,4.975-0.94c0.74-0.169,1.495-0.503,2.106-0.948
		c0.687-0.5,0.582-1.144-0.132-1.649c-0.28-0.199-0.611-0.44-0.929-0.457c-2.119-0.108-4.279-0.396-6.183,0.943
		c-0.118,0.083-0.256,0.172-0.392,0.186c-1.492,0.162-2.146,1.116-2.425,2.474c-0.148,0.729-0.512,1.265-1.333,1.445
		c-0.272,0.06-0.575,0.412-0.684,0.698c-0.386,1.004-0.69,2.039-1.028,3.06c-0.073,0.221-0.115,0.475-0.256,0.644
		c-0.172,0.208-0.434,0.342-0.656,0.507c-0.161-0.219-0.379-0.418-0.467-0.664c-0.116-0.325-0.172-0.686-0.18-1.032
		c-0.039-1.781-1.027-3.125-2.038-4.452c-0.457-0.601-1.658-0.787-2.23-0.365c-0.716,0.529-0.456,1.176-0.26,1.891
		c0.146,0.534,0.124,1.216-0.083,1.726c-0.866,2.131-0.571,4.226-0.025,6.349c0.397,1.543,0.736,3.102,0.983,4.679
		c-1.214-2.404-2.156-4.867-1.971-7.628c0.07-1.046,0.042-2.105-0.022-3.154c-0.028-0.473-0.159-0.996-0.413-1.386
		c-0.472-0.725-0.322-1.292,0.288-1.755c0.867-0.657,1.783-1.246,2.674-1.872c0.139-0.098,0.321-0.211,0.367-0.355
		c0.317-0.961,0.815-1.922,0.862-2.902c0.194-4.071,0.227-8.15,0.368-12.225c0.043-1.216,0.245-2.426,0.384-3.637
		c0.015-0.141,0.069-0.291,0.145-0.411c1.186-1.864,1.27-3.961,1.185-6.056c-0.046-1.122-0.232-2.276-0.594-3.334
		c-0.259-0.756-0.846-1.441-1.411-2.041c-0.579-0.615-0.723-1.175-0.592-2.033c0.202-1.315,0.798-2.338,1.63-3.308
		c0.316-0.368,0.503-0.848,0.753-1.273c0.764-1.299,1.548-2.588,2.287-3.902c0.206-0.368,0.235-0.832,0.43-1.208
		c0.274-0.528,0.551-1.091,0.962-1.506c1.313-1.329,2.315-2.824,2.756-4.654c0.115-0.477,0.098-0.985,0.196-1.467
		c0.339-1.668,2.313-3.257,4.016-3.255c0.146,0,0.294-0.019,0.438,0.003c1.552,0.233,2.709-0.341,3.767-1.505
		c0.562-0.618,1.524-0.875,2.305-1.294c0.525-0.283,1.073-0.53,1.57-0.856c0.459-0.302,0.853-0.702,1.295-1.033
		c0.735-0.55,1.473-0.752,2.32-0.137c0.295,0.215,0.771,0.249,1.165,0.25c2.804,0.012,5.608,0.012,8.413-0.026
		c0.82-0.01,1.5,0.197,2.01,0.844c0.595,0.757,1.354,0.975,2.308,0.954c2.657-0.058,5.317-0.01,7.976-0.046
		c0.438-0.006,0.945-0.125,1.298-0.369c1.373-0.95,3.325-0.72,4.812-0.046c1.692,0.769,2.848,2.049,4.171,3.201
		c0.26,0.226,0.684,0.366,1.032,0.365c1.013,0,1.794,0.413,2.469,1.121c0.301,0.317,0.68,0.573,0.935,0.92
		c0.786,1.077,1.967,1.303,3.148,1.47c1.454,0.207,3.019,1.876,3.011,3.357c-0.01,1.247,0.257,2.371,1.22,3.247
		c0.125,0.116,0.285,0.264,0.309,0.416c0.285,1.788,1.779,2.672,2.87,3.847c0.983,1.06,2.234,1.917,2.372,3.545
		c0.016,0.181,0.166,0.396,0.317,0.512c0.96,0.734,1.018,1.747,1,2.837c-0.005,0.458,0.126,1.052,0.426,1.356
		c1.054,1.073,1.27,2.383,1.299,3.774c0.019,0.935,0.057,1.874-0.01,2.804c-0.127,1.753,0.464,3.32,1.105,4.893
		c0.183,0.446,0.28,0.955,0.292,1.437c0.033,1.548,0.004,3.097,0.013,4.645c0.007,1.061-0.324,1.982-0.951,2.847
		c-0.267,0.369-0.42,0.904-0.427,1.368c-0.05,2.979-0.022,5.96-0.07,8.939c-0.018,1.164,0.337,2.159,1.208,2.881
		c1.275,1.058,1.589,2.438,1.586,3.979c-0.007,2.542-0.016,5.083,0.019,7.625c0.009,0.729-0.193,1.313-0.734,1.788
		c-0.088,0.077-0.156,0.176-0.248,0.249c-1.555,1.233-2.59,2.733-2.852,4.781c-0.089,0.681-0.608,1.387-1.102,1.921
		c-1.392,1.498-2.901,2.885-4.3,4.376c-0.413,0.441-0.616,1.084-0.929,1.624c-0.229,0.398-0.414,0.856-0.741,1.156
		c-0.75,0.688-1.015,1.479-1,2.49c0.046,3.331,0.086,6.664-0.021,9.992c-0.05,1.515,0.277,2.903,0.912,4.195
		c0.453,0.925,0.58,1.835,0.499,2.79c-0.144,1.658,0.236,3.084,1.402,4.333c0.686,0.734,1.207,1.623,1.792,2.449
		c0.118,0.165,0.277,0.364,0.268,0.54c-0.064,1.228,0.819,1.87,1.544,2.618c1.343,1.385,2.689,2.765,4.008,4.169
		c0.704,0.746,0.68,1.406,0.06,2.236c-0.466,0.622-0.902,1.271-1.319,1.926c-0.309,0.484-0.705,0.683-1.258,0.531
		c-0.631-0.175-1.09,0.001-1.551,0.494c-0.284,0.301-0.821,0.354-1.231,0.548c-0.369,0.172-0.901,0.292-1.047,0.589
		c-0.781,1.59-1.503,3.209-2.164,4.853c-0.442,1.098-0.749,2.248-1.111,3.377c-0.061,0.192-0.157,0.419-0.11,0.595
		c0.341,1.268-0.455,1.995-1.233,2.76c-0.332,0.328-0.598,0.287-0.743-0.078c-0.215-0.534-0.459-1.105-0.459-1.661
		c-0.002-1.26-0.58-2.2-1.304-3.159c-0.412-0.546-0.658-1.266-0.815-1.947c-0.534-2.32-0.399-4.747-1.252-7.035
		c-0.73-1.966-1.23-4.018-1.792-6.043c-0.123-0.438-0.13-0.928-0.096-1.387c0.106-1.466-0.179-1.845-1.592-2.003
		c-0.2-0.021-0.424-0.032-0.594-0.129c-1.489-0.841-2.897-0.43-4.238,0.331c-1.084,0.614-2.075,1.393-3.165,2
		c-0.825,0.463-1.736,0.77-2.609,1.147c-0.609,0.263-1.277,0.441-1.815,0.81c-1.847,1.265-3.057,1.229-4.792-0.199
		c-1.133-0.93-2.553-0.928-3.908-1.076c-0.572-0.063-1.164,0.068-1.743,0.039c-0.921-0.046-1.843-0.132-2.759-0.237
		c-1.506-0.172-3.011-0.336-4.506-0.572c-0.878-0.139-1.761-0.337-2.596-0.635c-1.81-0.645-3.58-1.399-5.387-2.053
		c-1.386-0.501-2.731-1.027-3.715-2.199c-0.261-0.312-0.575-0.585-0.895-0.836c-1.655-1.299-4.071-0.481-4.42,1.625
		c-0.214,1.293-0.121,2.677,0.065,3.985c0.212,1.488,0.688,2.94,1.036,4.41c0.221,0.932-0.041,1.58-1.047,1.934
		c-1.338,0.469-2.228,1.227-2.73,2.594c-0.265,0.721-0.976,1.265-1.413,1.937c-0.851,1.308-1.652,2.648-2.474,3.976
		c-0.107,0.174-0.252,0.334-0.317,0.522c-1.65,4.8-3.309,9.596-3.343,14.764c-0.024,3.593-0.151,7.186-0.112,10.775
		c0.021,1.86,0.269,3.723,0.49,5.576c0.08,0.668-0.107,0.929-0.743,0.946c-0.497,0.014-0.992,0.063-1.489,0.064
		c-3.271,0.006-6.544,0.03-9.816-0.013c-1.039-0.011-1.893,0.297-2.589,1.028c-0.526,0.551-1.136,0.742-1.883,0.736
		c-2.688-0.021-5.375,0.007-8.064,0c-1.31-0.003-1.386-0.095-1.388-1.392c-0.001-1.256,0.014-2.514,0-3.77
		c-0.018-1.502,0.309-2.908,0.713-4.365c0.54-1.946,0.774-4.021,0.835-6.051c0.124-4.145,0.045-8.297,0.053-12.445
		c0-0.497,0.015-0.993,0.041-1.489c0.036-0.689,0.174-1.249,0.924-1.617c0.725-0.359,1.107-1.051,1.085-1.952
		c-0.041-1.643,1.04-2.762,2.7-2.734c1.058,0.018,1.918-0.195,2.674-0.991c0.274-0.289,0.845-0.418,1.278-0.41
		c1.513,0.023,2.891-0.193,3.999-1.375c0.24-0.258,0.731-0.338,1.121-0.382c0.547-0.062,1.109-0.052,1.662-0.013
		c1.067,0.079,2.022-0.062,2.755-0.97c0.179-0.223,0.546-0.372,0.843-0.408c1.325-0.156,2.658-0.238,3.983-0.396
		c0.414-0.05,0.882-0.164,1.198-0.41c0.899-0.704,1.892-1.012,3.01-0.976c1.648,0.056,3.244-0.199,4.772-0.821
		c1.071-0.436,1.703-1.122,1.614-2.396c-0.08-1.162,0.065-2.338,0.007-3.504c-0.066-1.297-0.219-2.592-0.406-3.878
		c-0.042-0.297-0.334-0.602-0.586-0.815c-0.576-0.492-0.822-1.059-0.81-1.834c0.045-3.066,0.019-6.136,0.057-9.202
		c0.009-0.757-0.158-1.368-0.77-1.848C34.041,103.685,33.831,103.099,34.184,102.227"/>
	<path fill="#231F20" d="M95.307,154.997c0.762-0.881,1.337-1.645,2.013-2.307c1.837-1.797,3.373-3.81,4.65-6.037
		c0.412-0.716,1.018-1.314,1.52-1.981c0.714-0.944,1.162-2.1,1.81-3.006c0.717-0.998,1.328-2.074,2.05-3.071
		c0.321-0.442,0.552-0.949,0.822-1.43c0.028-0.05,0.024-0.13,0.062-0.16c1.472-1.158,1.239-3.347,2.727-4.51
		c0.248-0.196,0.32-0.61,0.488-0.915c0.321-0.579,0.651-1.152,0.978-1.729c0.127-0.227,0.294-0.441,0.369-0.685
		c0.325-1.053,0.994-1.383,1.991-0.885c0.724,0.362,1.4,0.82,2.105,1.223c0.226,0.129,0.463,0.247,0.709,0.32
		c0.89,0.264,1.772,0.556,2.676,0.752c2.148,0.465,3.817,1.898,5.738,2.821c0.993,0.478,1.771,1.385,2.686,2.042
		c0.598,0.429,1.315,0.695,1.895,1.143c1.223,0.945,2.639,1.45,4.011,2.097c1.073,0.507,2.005,1.106,3.229,0.979
		c0.566-0.061,0.844,0.103,0.836,0.755c-0.038,3.387-0.038,6.773-0.04,10.161c-0.001,0.569-0.051,1.039-0.776,1.127
		c-0.23,0.028-0.495,0.219-0.646,0.411c-1.25,1.592-2.431,3.237-3.719,4.795c-1.298,1.568-2.694,3.057-4.052,4.577
		c-0.175,0.195-0.411,0.348-0.541,0.564c-0.412,0.69-1.047,0.829-1.743,0.702c-0.828-0.151-1.635-0.406-2.458-0.586
		c-0.62-0.137-1.255-0.204-1.873-0.35c-0.38-0.09-0.855-0.167-1.082-0.43c-0.648-0.751-1.48-0.785-2.244-0.53
		c-1.781,0.594-3.597,0.727-5.432,0.589c-0.557-0.045-1.184-0.324-1.607-0.69c-1.011-0.88-1.877-1.926-2.891-2.802
		c-0.42-0.364-1.061-0.631-1.612-0.655c-1.896-0.079-3.807,0.094-5.689-0.079c-1.079-0.099-2.269-0.468-3.126-1.101
		c-0.882-0.649-1.681-1.077-2.759-1.003C96.102,155.133,95.816,155.056,95.307,154.997"/>
	<path fill="#231F20" d="M67.555,94.331c-0.15,0.352-0.185,0.625-0.34,0.761c-1.093,0.943-1.99,2.175-3.466,2.571
		c-0.409,0.109-0.931,0.062-1.329-0.095c-1.602-0.635-3.018-1.536-4.371-2.65c-0.81-0.664-2.152-0.709-3.273-0.96
		c-0.619-0.139-1.285-0.063-1.907-0.194c-2.784-0.593-5.362,0.309-7.98,1.003c-0.59,0.157-1.292,0.179-1.865,0.009
		c-0.395-0.12-0.803-0.63-0.945-1.053c-0.197-0.586,0.273-0.976,0.804-1.171c0.38-0.14,0.786-0.272,1.184-0.288
		c1.771-0.062,3.543-0.079,5.316-0.114c2.185-0.045,4.373-0.193,6.553-0.11c1.904,0.074,3.796,0.44,5.698,0.612
		c0.86,0.077,1.74,0.056,2.603-0.027c0.951-0.093,1.818,0.073,2.551,0.662C67.119,93.557,67.314,93.996,67.555,94.331"/>
	<path fill="#231F20" d="M32.707,150.675c0-2.245-0.003-4.49,0.004-6.733c0.001-0.202,0.013-0.43,0.103-0.602
		c0.904-1.724,1.388-3.577,1.784-5.468c0.045-0.215,0.373-0.372,0.57-0.557c0.126,0.233,0.353,0.462,0.361,0.698
		c0.04,1.166-0.035,2.338,0.039,3.501c0.147,2.354,0.231,4.724,0.584,7.051c0.389,2.56,0.18,4.887-1.296,7.103
		c-0.492,0.739-0.538,1.769-0.83,2.651c-0.091,0.272-0.32,0.499-0.486,0.748c-0.223-0.239-0.578-0.445-0.641-0.719
		c-0.179-0.763-0.308-1.552-0.328-2.332c-0.046-1.78-0.014-3.562-0.014-5.342C32.606,150.675,32.657,150.675,32.707,150.675"/>
	<path fill="#231F20" d="M37.52,131.988c0.285-0.324,0.546-0.811,0.946-0.996c0.206-0.096,0.722,0.291,0.992,0.563
		c0.854,0.867,1.431,1.908,1.624,3.118c0.083,0.522,0.018,1.068,0.04,1.602c0.016,0.364,0.003,0.748,0.117,1.085
		c0.136,0.408,0.489,0.758,0.57,1.167c0.086,0.443,0.146,1.141-0.1,1.345c-0.478,0.398-1.167,0.583-1.798,0.728
		c-0.131,0.031-0.514-0.468-0.567-0.763c-0.202-1.112-0.356-2.235-0.453-3.363c-0.104-1.206,0.021-2.446-0.983-3.407
		C37.705,132.875,37.689,132.488,37.52,131.988"/>
	<path fill="#231F20" d="M49.109,130.667c-0.199,0.258-0.369,0.69-0.644,0.773c-0.265,0.08-0.649-0.181-0.96-0.334
		c-0.111-0.055-0.205-0.226-0.232-0.36c-0.426-2.161-1.928-4.04-1.676-6.375c0.025-0.233,0.164-0.456,0.251-0.685
		c0.165,0.126,0.41,0.214,0.485,0.379c0.728,1.604,1.436,3.219,2.129,4.838C48.691,129.436,48.864,129.992,49.109,130.667"/>
	<path fill="#231F20" d="M29.566,71.307c-0.04,0.152-0.085,0.445-0.192,0.711c-0.596,1.483-0.581,3.016-0.408,4.567
		c0.067,0.599,0.06,1.214-0.631,1.459c-0.371,0.132-0.974-0.703-0.973-1.362c0-0.312,0.072-0.649,0.205-0.931
		c0.639-1.359,0.588-2.763,0.34-4.189c-0.026-0.144-0.046-0.289-0.05-0.434c-0.012-0.551,0.011-1.1,0.731-1.176
		C29.128,69.896,29.573,70.47,29.566,71.307"/>
	<path fill="#231F20" d="M25.715,84.823c0.667,1.268,1.709,1.494,2.811,1.567c0.619,0.042,1.119,0.24,1.195,0.91
		c0.15,1.313,0.247,2.633,0.369,3.981c-0.577-0.216-1.01-0.566-1.009-1.286c0-0.496,0.017-0.99,0-1.485
		c-0.041-1.212-0.827-1.933-2.032-1.886C25.868,86.672,25.479,86.228,25.715,84.823"/>
	<path fill="#231F20" d="M35.375,164.84c0,0.408,0.034,0.819-0.014,1.222c-0.026,0.222-0.19,0.427-0.292,0.639
		c-0.181-0.196-0.485-0.375-0.517-0.594c-0.119-0.803-0.159-1.619-0.205-2.433c-0.024-0.436-0.042-0.881,0.026-1.308
		c0.032-0.207,0.265-0.381,0.406-0.569c0.129,0.174,0.344,0.335,0.374,0.524c0.126,0.833,0.199,1.673,0.291,2.51
		C35.421,164.834,35.398,164.837,35.375,164.84"/>
	<path fill="#231F20" d="M49.996,84.418c-0.351-0.319-0.621-0.567-0.891-0.814c0.312-0.171,0.623-0.344,0.938-0.513
		c0.021-0.011,0.061-0.003,0.085,0.007c0.397,0.19,0.792,0.382,1.187,0.573C50.914,83.899,50.514,84.125,49.996,84.418"/>
	<path fill="#231F20" d="M31.902,96.87c-1.077-0.453-1.645-2.106-1.233-3.569C31.077,94.479,31.48,95.646,31.902,96.87"/>
	<path fill="#FFFFFF" d="M72.379,60.295c2.073,0.209,3.951,0.779,5.653,1.864c0.269,0.17,0.387,0.571,0.574,0.866
		c-0.321,0.093-0.69,0.339-0.957,0.256c-2.165-0.673-4.403-0.75-6.632-0.934c-0.344-0.028-0.661-0.374-0.99-0.573
		c0.193-0.293,0.32-0.711,0.594-0.855C71.166,60.631,71.788,60.494,72.379,60.295"/>
</g>
</svg>
