<svg id="Layer_1" data-name="Layer 1" xmlns="http://www.w3.org/2000/svg" xmlns:xlink="http://www.w3.org/1999/xlink" viewBox="0 0 1244.2 478.1"><defs><style>.cls-1,.cls-4{fill:none;}.cls-2{clip-path:url(#clip-path);}.cls-3{fill:#00adee;}.cls-4{stroke:#00adee;}</style><clipPath id="clip-path" transform="translate(-14.4 -14.4)"><rect class="cls-1" x="14" y="14.1" width="1245" height="478.8"/></clipPath></defs><title>arthed2</title><g class="cls-2"><path class="cls-3" d="M41.9,254H33.3V238.7h8.6a8.88,8.88,0,0,1,6.2,2,7,7,0,0,1,2.2,5.6,7.47,7.47,0,0,1-2.2,5.8,9.37,9.37,0,0,1-6.2,1.9m.9-28.2H15.4v56H33.3v-15l9.5-.1c7.8,0,13.9-1.8,18.1-5.5s6.4-8.8,6.4-15.5c0-6.3-2.1-11.2-6.4-14.7s-10.3-5.2-18.1-5.2" transform="translate(-14.4 -14.4)"/></g><g class="cls-2"><path class="cls-4" d="M571.1,254h-8.6V238.7h8.6a8.88,8.88,0,0,1,6.2,2,7,7,0,0,1,2.2,5.6,7.47,7.47,0,0,1-2.2,5.8A9.37,9.37,0,0,1,571.1,254Zm.8-28.2H544.5v56h17.9v-15l9.5-.1c7.8,0,13.9-1.8,18.1-5.5s6.4-8.8,6.4-15.5c0-6.3-2.1-11.2-6.4-14.7S579.8,225.8,571.9,225.8Z" transform="translate(-14.4 -14.4)"/></g><g class="cls-2"><path class="cls-4" d="M304.3,254h-8.6V238.7h8.6a8.88,8.88,0,0,1,6.2,2,7,7,0,0,1,2.2,5.6,7.47,7.47,0,0,1-2.2,5.8A9.37,9.37,0,0,1,304.3,254Zm.9-28.2H277.8v56h17.9v-15l9.5-.1c7.8,0,13.9-1.8,18.1-5.5s6.4-8.8,6.4-15.5c0-6.3-2.1-11.2-6.4-14.7S313,225.8,305.2,225.8Z" transform="translate(-14.4 -14.4)"/></g><g class="cls-2"><path class="cls-4" d="M833.5,254h-8.6V238.7h8.6a8.88,8.88,0,0,1,6.2,2,7,7,0,0,1,2.2,5.6,7.47,7.47,0,0,1-2.2,5.8A9.37,9.37,0,0,1,833.5,254Zm.8-28.2H807v56h17.9v-15l9.5-.1c7.8,0,13.9-1.8,18.1-5.5s6.4-8.8,6.4-15.5c0-6.3-2.1-11.2-6.4-14.7S842.1,225.8,834.3,225.8Z" transform="translate(-14.4 -14.4)"/></g><g class="cls-2"><path class="cls-4" d="M1099.2,254h-8.6V238.7h8.6a8.88,8.88,0,0,1,6.2,2,7,7,0,0,1,2.2,5.6,7.47,7.47,0,0,1-2.2,5.8A9.37,9.37,0,0,1,1099.2,254Zm.9-28.2h-27.4v56h17.9v-15l9.5-.1c7.8,0,13.9-1.8,18.1-5.5s6.4-8.8,6.4-15.5c0-6.3-2.1-11.2-6.4-14.7S1107.9,225.8,1100.1,225.8Z" transform="translate(-14.4 -14.4)"/></g><g class="cls-2"><path class="cls-4" d="M173.6,255.2H165V239.9h8.6a8.88,8.88,0,0,1,6.2,2,7,7,0,0,1,2.2,5.6,7.47,7.47,0,0,1-2.2,5.8A9.37,9.37,0,0,1,173.6,255.2Zm.8-28.2H147v56h18V268l9.5-.1c7.8,0,13.9-1.8,18.1-5.5s6.4-8.8,6.4-15.5c0-6.3-2.1-11.2-6.4-14.7S182.2,227,174.4,227Z" transform="translate(-14.4 -14.4)"/></g><g class="cls-2"><path class="cls-4" d="M702.8,254h-8.6V238.7h8.6a8.88,8.88,0,0,1,6.2,2,7,7,0,0,1,2.2,5.6,7.47,7.47,0,0,1-2.2,5.8A9.56,9.56,0,0,1,702.8,254Zm.8-28.2H676.2v56h17.9v-15l9.5-.1c7.8,0,13.9-1.8,18.1-5.5s6.4-8.8,6.4-15.5c0-6.3-2.1-11.2-6.4-14.7S711.4,225.8,703.6,225.8Z" transform="translate(-14.4 -14.4)"/></g><g class="cls-2"><path class="cls-4" d="M436,254h-8.6V238.7H436a8.88,8.88,0,0,1,6.2,2,7,7,0,0,1,2.2,5.6,7.47,7.47,0,0,1-2.2,5.8A9.56,9.56,0,0,1,436,254Zm.8-28.2H409.4v56h17.9v-15l9.5-.1c7.8,0,13.9-1.8,18.1-5.5s6.4-8.8,6.4-15.5c0-6.3-2.1-11.2-6.4-14.7S444.6,225.8,436.8,225.8Z" transform="translate(-14.4 -14.4)"/></g><g class="cls-2"><path class="cls-4" d="M965.1,254h-8.6V238.7h8.6a8.88,8.88,0,0,1,6.2,2,7,7,0,0,1,2.2,5.6,7.47,7.47,0,0,1-2.2,5.8A9.37,9.37,0,0,1,965.1,254Zm.9-28.2H938.6v56h17.9v-15l9.5-.1c7.8,0,13.9-1.8,18.1-5.5s6.4-8.8,6.4-15.5c0-6.3-2.1-11.2-6.4-14.7S973.8,225.8,966,225.8Z" transform="translate(-14.4 -14.4)"/></g><g class="cls-2"><path class="cls-4" d="M1230.9,254h-8.6V238.7h8.6a8.88,8.88,0,0,1,6.2,2,7,7,0,0,1,2.2,5.6,7.47,7.47,0,0,1-2.2,5.8A9.37,9.37,0,0,1,1230.9,254Zm.9-28.2h-27.4v56h17.9v-15l9.5-.1c7.8,0,13.9-1.8,18.1-5.5s6.4-8.8,6.4-15.5c0-6.3-2.1-11.2-6.4-14.7S1239.6,225.8,1231.8,225.8Z" transform="translate(-14.4 -14.4)"/></g><g class="cls-2"><path class="cls-4" d="M107.7,254H99.1V238.7h8.6a8.88,8.88,0,0,1,6.2,2,7,7,0,0,1,2.2,5.6,7.47,7.47,0,0,1-2.2,5.8A9.37,9.37,0,0,1,107.7,254Zm.9-28.2H81.2v56H99.1v-15l9.5-.1c7.8,0,13.9-1.8,18.1-5.5s6.4-8.8,6.4-15.5c0-6.3-2.1-11.2-6.4-14.7S116.4,225.8,108.6,225.8Z" transform="translate(-14.4 -14.4)"/></g><g class="cls-2"><path class="cls-4" d="M636.9,254h-8.6V238.7h8.6a8.88,8.88,0,0,1,6.2,2,7,7,0,0,1,2.2,5.6,7.47,7.47,0,0,1-2.2,5.8A9.37,9.37,0,0,1,636.9,254Zm.8-28.2H610.3v56h17.9v-15l9.5-.1c7.8,0,13.9-1.8,18.1-5.5s6.4-8.8,6.4-15.5c0-6.3-2.1-11.2-6.4-14.7S645.5,225.8,637.7,225.8Z" transform="translate(-14.4 -14.4)"/></g><g class="cls-2"><path class="cls-4" d="M370.1,254h-8.6V238.7h8.6a8.88,8.88,0,0,1,6.2,2,7,7,0,0,1,2.2,5.6,7.47,7.47,0,0,1-2.2,5.8A9.37,9.37,0,0,1,370.1,254Zm.8-28.2H343.5v56h17.9v-15l9.5-.1c7.8,0,13.9-1.8,18.1-5.5s6.4-8.8,6.4-15.5c0-6.3-2.1-11.2-6.4-14.7S378.8,225.8,370.9,225.8Z" transform="translate(-14.4 -14.4)"/></g><g class="cls-2"><path class="cls-4" d="M899.3,254h-8.6V238.7h8.6a8.88,8.88,0,0,1,6.2,2,7,7,0,0,1,2.2,5.6,7.47,7.47,0,0,1-2.2,5.8A9.56,9.56,0,0,1,899.3,254Zm.8-28.2H872.7v56h17.9v-15l9.5-.1c7.8,0,13.9-1.8,18.1-5.5s6.4-8.8,6.4-15.5c0-6.3-2.1-11.2-6.4-14.7S907.9,225.8,900.1,225.8Z" transform="translate(-14.4 -14.4)"/></g><g class="cls-2"><path class="cls-4" d="M1165,254h-8.6V238.7h8.6a8.88,8.88,0,0,1,6.2,2,7,7,0,0,1,2.2,5.6,7.47,7.47,0,0,1-2.2,5.8A9.37,9.37,0,0,1,1165,254Zm.9-28.2h-27.4v56h17.9v-15l9.5-.1c7.8,0,13.9-1.8,18.1-5.5s6.4-8.8,6.4-15.5c0-6.3-2.1-11.2-6.4-14.7S1173.7,225.8,1165.9,225.8Z" transform="translate(-14.4 -14.4)"/></g><g class="cls-2"><path class="cls-4" d="M239.4,254h-8.6V238.7h8.6a8.88,8.88,0,0,1,6.2,2,7,7,0,0,1,2.2,5.6,7.47,7.47,0,0,1-2.2,5.8A9.56,9.56,0,0,1,239.4,254Zm.8-28.2H212.8v56h17.9v-15l9.5-.1c7.8,0,13.9-1.8,18.1-5.5s6.4-8.8,6.4-15.5c0-6.3-2.1-11.2-6.4-14.7S248,225.8,240.2,225.8Z" transform="translate(-14.4 -14.4)"/></g><g class="cls-2"><path class="cls-4" d="M768.5,254h-8.6V238.7h8.6a8.88,8.88,0,0,1,6.2,2,7,7,0,0,1,2.2,5.6,7.47,7.47,0,0,1-2.2,5.8A9.37,9.37,0,0,1,768.5,254Zm.9-28.2H742v56h17.9v-15l9.5-.1c7.8,0,13.9-1.8,18.1-5.5s6.4-8.8,6.4-15.5c0-6.3-2.1-11.2-6.4-14.7S777.2,225.8,769.4,225.8Z" transform="translate(-14.4 -14.4)"/></g><g class="cls-2"><path class="cls-4" d="M501.8,254h-8.6V238.7h8.6a8.88,8.88,0,0,1,6.2,2,7,7,0,0,1,2.2,5.6,7.47,7.47,0,0,1-2.2,5.8A9.56,9.56,0,0,1,501.8,254Zm.8-28.2H475.2v56h17.9v-15l9.5-.1c7.8,0,13.9-1.8,18.1-5.5s6.4-8.8,6.4-15.5c0-6.3-2.1-11.2-6.4-14.7S510.4,225.8,502.6,225.8Z" transform="translate(-14.4 -14.4)"/></g><g class="cls-2"><path class="cls-4" d="M1030.9,254h-8.6V238.7h8.6a8.88,8.88,0,0,1,6.2,2,7,7,0,0,1,2.2,5.6,7.47,7.47,0,0,1-2.2,5.8A9.37,9.37,0,0,1,1030.9,254Zm.9-28.2h-27.4v56h17.9v-15l9.5-.1c7.8,0,13.9-1.8,18.1-5.5s6.4-8.8,6.4-15.5c0-6.3-2.1-11.2-6.4-14.7S1039.6,225.8,1031.8,225.8Z" transform="translate(-14.4 -14.4)"/></g><g class="cls-2"><path class="cls-4" d="M43.7,394.4H35.1V379.1h8.6a8.88,8.88,0,0,1,6.2,2,7,7,0,0,1,2.2,5.6,7.47,7.47,0,0,1-2.2,5.8C48.5,393.8,46.4,394.4,43.7,394.4Zm.9-28.1H17.2v56H35.1v-15l9.5-.1c7.8,0,13.9-1.8,18.1-5.5s6.4-8.8,6.4-15.5c0-6.3-2.1-11.2-6.4-14.7S52.4,366.3,44.6,366.3Z" transform="translate(-14.4 -14.4)"/></g><g class="cls-2"><path class="cls-4" d="M572.9,394.4h-8.6V379.1h8.6a8.88,8.88,0,0,1,6.2,2,7,7,0,0,1,2.2,5.6,7.47,7.47,0,0,1-2.2,5.8C577.6,393.9,575.6,394.4,572.9,394.4Zm.9-28.1H546.4v56h17.9v-15l9.5-.1c7.8,0,13.9-1.8,18.1-5.5s6.4-8.8,6.4-15.5c0-6.3-2.1-11.2-6.4-14.7S581.6,366.3,573.8,366.3Z" transform="translate(-14.4 -14.4)"/></g><g class="cls-2"><path class="cls-3" d="M306.1,394.4h-8.6V379.1h8.6a8.88,8.88,0,0,1,6.2,2,7,7,0,0,1,2.2,5.6,7.47,7.47,0,0,1-2.2,5.8c-1.4,1.3-3.5,1.9-6.2,1.9m.9-28.1H279.6v56h17.9v-15l9.5-.1c7.8,0,13.9-1.8,18.1-5.5s6.4-8.8,6.4-15.5c0-6.3-2.1-11.2-6.4-14.7s-10.3-5.2-18.1-5.2" transform="translate(-14.4 -14.4)"/></g><g class="cls-2"><path class="cls-4" d="M835.3,394.4h-8.6V379.1h8.6a8.88,8.88,0,0,1,6.2,2,7,7,0,0,1,2.2,5.6,7.47,7.47,0,0,1-2.2,5.8C840,393.9,838,394.4,835.3,394.4Zm.9-28.1H808.8v56h17.9v-15l9.5-.1c7.8,0,13.9-1.8,18.1-5.5s6.4-8.8,6.4-15.5c0-6.3-2.1-11.2-6.4-14.7S844,366.3,836.2,366.3Z" transform="translate(-14.4 -14.4)"/></g><g class="cls-2"><path class="cls-4" d="M1101,394.4h-8.6V379.1h8.6a8.88,8.88,0,0,1,6.2,2,7,7,0,0,1,2.2,5.6,7.47,7.47,0,0,1-2.2,5.8C1105.8,393.8,1103.7,394.4,1101,394.4Zm.9-28.1h-27.4v56h17.9v-15l9.5-.1c7.8,0,13.9-1.8,18.1-5.5s6.4-8.8,6.4-15.5c0-6.3-2.1-11.2-6.4-14.7S1109.7,366.3,1101.9,366.3Z" transform="translate(-14.4 -14.4)"/></g><g class="cls-2"><path class="cls-4" d="M175.4,394.4h-8.6V379.1h8.6a8.88,8.88,0,0,1,6.2,2,7,7,0,0,1,2.2,5.6,7.47,7.47,0,0,1-2.2,5.8C180.2,393.8,178.1,394.4,175.4,394.4Zm.9-28.1H148.9v56h17.9v-15l9.5-.1c7.8,0,13.9-1.8,18.1-5.5s6.4-8.8,6.4-15.5c0-6.3-2.1-11.2-6.4-14.7S184.1,366.3,176.3,366.3Z" transform="translate(-14.4 -14.4)"/></g><g class="cls-2"><path class="cls-4" d="M704.6,394.4H696V379.1h8.6a8.88,8.88,0,0,1,6.2,2,7,7,0,0,1,2.2,5.6,7.47,7.47,0,0,1-2.2,5.8C709.4,393.8,707.3,394.4,704.6,394.4Zm.8-28.1H678v56h18v-15l9.5-.1c7.8,0,13.9-1.8,18.1-5.5s6.4-8.8,6.4-15.5c0-6.3-2.1-11.2-6.4-14.7S713.2,366.3,705.4,366.3Z" transform="translate(-14.4 -14.4)"/></g><g class="cls-2"><path class="cls-4" d="M437.8,394.4h-8.6V379.1h8.6a8.88,8.88,0,0,1,6.2,2,7,7,0,0,1,2.2,5.6,7.47,7.47,0,0,1-2.2,5.8C442.5,393.9,440.5,394.4,437.8,394.4Zm.8-28.1H411.2v56h17.9v-15l9.5-.1c7.8,0,13.9-1.8,18.1-5.5s6.4-8.8,6.4-15.5c0-6.3-2.1-11.2-6.4-14.7S446.5,366.3,438.6,366.3Z" transform="translate(-14.4 -14.4)"/></g><g class="cls-2"><path class="cls-4" d="M967,394.4h-8.6V379.1H967a8.88,8.88,0,0,1,6.2,2,7,7,0,0,1,2.2,5.6,7.47,7.47,0,0,1-2.2,5.8A9,9,0,0,1,967,394.4Zm.8-28.1H940.4v56h17.9v-15l9.5-.1c7.8,0,13.9-1.8,18.1-5.5s6.4-8.8,6.4-15.5c0-6.3-2.1-11.2-6.4-14.7S975.6,366.3,967.8,366.3Z" transform="translate(-14.4 -14.4)"/></g><g class="cls-2"><path class="cls-4" d="M1232.7,394.4h-8.6V379.1h8.6a8.88,8.88,0,0,1,6.2,2,7,7,0,0,1,2.2,5.6,7.47,7.47,0,0,1-2.2,5.8C1237.5,393.8,1235.4,394.4,1232.7,394.4Zm.9-28.1h-27.4v56h17.9v-15l9.5-.1c7.8,0,13.9-1.8,18.1-5.5s6.4-8.8,6.4-15.5c0-6.3-2.1-11.2-6.4-14.7S1241.4,366.3,1233.6,366.3Z" transform="translate(-14.4 -14.4)"/></g><g class="cls-2"><path class="cls-4" d="M109.5,394.4h-8.6V379.1h8.6a8.88,8.88,0,0,1,6.2,2,7,7,0,0,1,2.2,5.6,7.47,7.47,0,0,1-2.2,5.8C114.3,393.8,112.2,394.4,109.5,394.4Zm.9-28.1H83v56h17.9v-15l9.5-.1c7.8,0,13.9-1.8,18.1-5.5s6.4-8.8,6.4-15.5c0-6.3-2.1-11.2-6.4-14.7S118.2,366.3,110.4,366.3Z" transform="translate(-14.4 -14.4)"/></g><g class="cls-2"><path class="cls-4" d="M638.7,394.4h-8.6V379.1h8.6a8.88,8.88,0,0,1,6.2,2,7,7,0,0,1,2.2,5.6,7.47,7.47,0,0,1-2.2,5.8C643.5,393.8,641.4,394.4,638.7,394.4Zm.9-28.1H612.2v56h17.9v-15l9.5-.1c7.8,0,13.9-1.8,18.1-5.5s6.4-8.8,6.4-15.5c0-6.3-2.1-11.2-6.4-14.7S647.4,366.3,639.6,366.3Z" transform="translate(-14.4 -14.4)"/></g><g class="cls-2"><path class="cls-4" d="M371.9,394.4h-8.6V379.1h8.6a8.88,8.88,0,0,1,6.2,2,7,7,0,0,1,2.2,5.6,7.47,7.47,0,0,1-2.2,5.8C376.6,393.9,374.6,394.4,371.9,394.4Zm.9-28.1H345.4v56h17.9v-15l9.5-.1c7.8,0,13.9-1.8,18.1-5.5s6.4-8.8,6.4-15.5c0-6.3-2.1-11.2-6.4-14.7S380.6,366.3,372.8,366.3Z" transform="translate(-14.4 -14.4)"/></g><g class="cls-2"><path class="cls-4" d="M901.1,394.4h-8.6V379.1h8.6a8.88,8.88,0,0,1,6.2,2,7,7,0,0,1,2.2,5.6,7.47,7.47,0,0,1-2.2,5.8C905.8,393.9,903.8,394.4,901.1,394.4Zm.8-28.1H874.5v56h17.9v-15l9.5-.1c7.8,0,13.9-1.8,18.1-5.5s6.4-8.8,6.4-15.5c0-6.3-2.1-11.2-6.4-14.7S909.8,366.3,901.9,366.3Z" transform="translate(-14.4 -14.4)"/></g><g class="cls-2"><path class="cls-3" d="M1166.8,394.4h-8.6V379.1h8.6a8.88,8.88,0,0,1,6.2,2,7,7,0,0,1,2.2,5.6,7.47,7.47,0,0,1-2.2,5.8c-1.4,1.3-3.5,1.9-6.2,1.9m.9-28.1h-27.4v56h17.9v-15l9.5-.1c7.8,0,13.9-1.8,18.1-5.5s6.4-8.8,6.4-15.5c0-6.3-2.1-11.2-6.4-14.7s-10.3-5.2-18.1-5.2" transform="translate(-14.4 -14.4)"/></g><g class="cls-2"><path class="cls-4" d="M241.2,394.4h-8.6V379.1h8.6a8.88,8.88,0,0,1,6.2,2,7,7,0,0,1,2.2,5.6,7.47,7.47,0,0,1-2.2,5.8C246,393.8,243.9,394.4,241.2,394.4Zm.8-28.1H214.6v56h17.9v-15l9.5-.1c7.8,0,13.9-1.8,18.1-5.5s6.4-8.8,6.4-15.5c0-6.3-2.1-11.2-6.4-14.7S249.9,366.3,242,366.3Z" transform="translate(-14.4 -14.4)"/></g><g class="cls-2"><path class="cls-4" d="M770.4,394.4h-8.6V379.1h8.6a8.88,8.88,0,0,1,6.2,2,7,7,0,0,1,2.2,5.6,7.47,7.47,0,0,1-2.2,5.8C775.1,393.9,773.1,394.4,770.4,394.4Zm.8-28.1H743.8v56h17.9v-15l9.5-.1c7.8,0,13.9-1.8,18.1-5.5s6.4-8.8,6.4-15.5c0-6.3-2.1-11.2-6.4-14.7S779,366.3,771.2,366.3Z" transform="translate(-14.4 -14.4)"/></g><g class="cls-2"><path class="cls-4" d="M503.6,394.4H495V379.1h8.6a8.88,8.88,0,0,1,6.2,2,7,7,0,0,1,2.2,5.6,7.47,7.47,0,0,1-2.2,5.8C508.4,393.8,506.3,394.4,503.6,394.4Zm.8-28.1H477v56h18v-15l9.5-.1c7.8,0,13.9-1.8,18.1-5.5s6.4-8.8,6.4-15.5c0-6.3-2.1-11.2-6.4-14.7S512.2,366.3,504.4,366.3Z" transform="translate(-14.4 -14.4)"/></g><g class="cls-2"><path class="cls-4" d="M1032.8,394.4h-8.6V379.1h8.6a8.88,8.88,0,0,1,6.2,2,7,7,0,0,1,2.2,5.6,7.47,7.47,0,0,1-2.2,5.8A9,9,0,0,1,1032.8,394.4Zm.8-28.1h-27.4v56h17.9v-15l9.5-.1c7.8,0,13.9-1.8,18.1-5.5s6.4-8.8,6.4-15.5c0-6.3-2.1-11.2-6.4-14.7S1041.4,366.3,1033.6,366.3Z" transform="translate(-14.4 -14.4)"/></g><g class="cls-2"><path class="cls-4" d="M43.4,113.8H34.8V98.4h8.6a8.88,8.88,0,0,1,6.2,2,7,7,0,0,1,2.2,5.6,7.47,7.47,0,0,1-2.2,5.8A8.88,8.88,0,0,1,43.4,113.8Zm.9-28.2H16.9v56H34.8v-15l9.5-.1c7.8,0,13.9-1.8,18.1-5.5s6.4-8.8,6.4-15.5c0-6.3-2.1-11.2-6.4-14.7S52.1,85.6,44.3,85.6Z" transform="translate(-14.4 -14.4)"/></g><g class="cls-2"><path class="cls-4" d="M572.6,113.8H564V98.4h8.6a8.88,8.88,0,0,1,6.2,2A7,7,0,0,1,581,106a7.47,7.47,0,0,1-2.2,5.8A8.88,8.88,0,0,1,572.6,113.8Zm.8-28.2H546v56h18v-15l9.5-.1c7.8,0,13.9-1.8,18.1-5.5s6.4-8.8,6.4-15.5c0-6.3-2.1-11.2-6.4-14.7S581.2,85.6,573.4,85.6Z" transform="translate(-14.4 -14.4)"/></g><g class="cls-2"><path class="cls-4" d="M305.8,113.8h-8.6V98.4h8.6a8.88,8.88,0,0,1,6.2,2,7,7,0,0,1,2.2,5.6,7.47,7.47,0,0,1-2.2,5.8A8.88,8.88,0,0,1,305.8,113.8Zm.9-28.2H279.3v56h17.9v-15l9.5-.1c7.8,0,13.9-1.8,18.1-5.5s6.4-8.8,6.4-15.5c0-6.3-2.1-11.2-6.4-14.7S314.5,85.6,306.7,85.6Z" transform="translate(-14.4 -14.4)"/></g><g class="cls-2"><path class="cls-4" d="M835,113.8h-8.6V98.4H835a8.88,8.88,0,0,1,6.2,2,7,7,0,0,1,2.2,5.6,7.47,7.47,0,0,1-2.2,5.8C839.7,113.2,837.7,113.8,835,113.8Zm.8-28.2H808.4v56h17.9v-15l9.5-.1c7.8,0,13.9-1.8,18.1-5.5s6.4-8.8,6.4-15.5c0-6.3-2.1-11.2-6.4-14.7S843.6,85.6,835.8,85.6Z" transform="translate(-14.4 -14.4)"/></g><g class="cls-2"><path class="cls-4" d="M1100.7,113.8h-8.6V98.4h8.6a8.88,8.88,0,0,1,6.2,2,7,7,0,0,1,2.2,5.6,7.47,7.47,0,0,1-2.2,5.8A8.88,8.88,0,0,1,1100.7,113.8Zm.9-28.2h-27.4v56h17.9v-15l9.5-.1c7.8,0,13.9-1.8,18.1-5.5s6.4-8.8,6.4-15.5c0-6.3-2.1-11.2-6.4-14.7S1109.4,85.6,1101.6,85.6Z" transform="translate(-14.4 -14.4)"/></g><g class="cls-2"><path class="cls-4" d="M175.1,113.8h-8.6V98.4h8.6a8.88,8.88,0,0,1,6.2,2,7,7,0,0,1,2.2,5.6,7.47,7.47,0,0,1-2.2,5.8A9.05,9.05,0,0,1,175.1,113.8Zm.8-28.2H148.5v56h17.9v-15l9.5-.1c7.8,0,13.9-1.8,18.1-5.5s6.4-8.8,6.4-15.5c0-6.3-2.1-11.2-6.4-14.7S183.7,85.6,175.9,85.6Z" transform="translate(-14.4 -14.4)"/></g><g class="cls-2"><path class="cls-4" d="M704.2,113.8h-8.6V98.4h8.6a8.88,8.88,0,0,1,6.2,2,7,7,0,0,1,2.2,5.6,7.47,7.47,0,0,1-2.2,5.8A8.88,8.88,0,0,1,704.2,113.8Zm.9-28.2H677.7v56h17.9v-15l9.5-.1c7.8,0,13.9-1.8,18.1-5.5s6.4-8.8,6.4-15.5c0-6.3-2.1-11.2-6.4-14.7S712.9,85.6,705.1,85.6Z" transform="translate(-14.4 -14.4)"/></g><g class="cls-2"><path class="cls-4" d="M437.5,113.8h-8.6V98.4h8.6a8.88,8.88,0,0,1,6.2,2,7,7,0,0,1,2.2,5.6,7.47,7.47,0,0,1-2.2,5.8A9.05,9.05,0,0,1,437.5,113.8Zm.8-28.2H410.9v56h17.9v-15l9.5-.1c7.8,0,13.9-1.8,18.1-5.5s6.4-8.8,6.4-15.5c0-6.3-2.1-11.2-6.4-14.7S446.1,85.6,438.3,85.6Z" transform="translate(-14.4 -14.4)"/></g><g class="cls-2"><path class="cls-4" d="M966.6,113.8H958V98.4h8.6a8.88,8.88,0,0,1,6.2,2A7,7,0,0,1,975,106a7.47,7.47,0,0,1-2.2,5.8A8.88,8.88,0,0,1,966.6,113.8Zm.9-28.2H940.1v56H958v-15l9.5-.1c7.8,0,13.9-1.8,18.1-5.5s6.4-8.8,6.4-15.5c0-6.3-2.1-11.2-6.4-14.7S975.3,85.6,967.5,85.6Z" transform="translate(-14.4 -14.4)"/></g><g class="cls-2"><path class="cls-4" d="M1232.4,113.8h-8.6V98.4h8.6a8.88,8.88,0,0,1,6.2,2,7,7,0,0,1,2.2,5.6,7.47,7.47,0,0,1-2.2,5.8C1237.1,113.2,1235.1,113.8,1232.4,113.8Zm.9-28.2h-27.4v56h17.9v-15l9.5-.1c7.8,0,13.9-1.8,18.1-5.5s6.4-8.8,6.4-15.5c0-6.3-2.1-11.2-6.4-14.7S1241.1,85.6,1233.3,85.6Z" transform="translate(-14.4 -14.4)"/></g><g class="cls-2"><path class="cls-4" d="M109.2,113.8h-8.6V98.4h8.6a8.88,8.88,0,0,1,6.2,2,7,7,0,0,1,2.2,5.6,7.47,7.47,0,0,1-2.2,5.8A8.88,8.88,0,0,1,109.2,113.8Zm.9-28.2H82.7v56h17.9v-15l9.5-.1c7.8,0,13.9-1.8,18.1-5.5s6.4-8.8,6.4-15.5c0-6.3-2.1-11.2-6.4-14.7S117.9,85.6,110.1,85.6Z" transform="translate(-14.4 -14.4)"/></g><g class="cls-2"><path class="cls-4" d="M638.4,113.8h-8.6V98.4h8.6a8.88,8.88,0,0,1,6.2,2,7,7,0,0,1,2.2,5.6,7.47,7.47,0,0,1-2.2,5.8A8.88,8.88,0,0,1,638.4,113.8Zm.8-28.2H611.8v56h17.9v-15l9.5-.1c7.8,0,13.9-1.8,18.1-5.5s6.4-8.8,6.4-15.5c0-6.3-2.1-11.2-6.4-14.7S647,85.6,639.2,85.6Z" transform="translate(-14.4 -14.4)"/></g><g class="cls-2"><path class="cls-4" d="M371.6,113.8H363V98.4h8.6a8.88,8.88,0,0,1,6.2,2A7,7,0,0,1,380,106a7.47,7.47,0,0,1-2.2,5.8A8.88,8.88,0,0,1,371.6,113.8Zm.8-28.2H345v56h18v-15l9.5-.1c7.8,0,13.9-1.8,18.1-5.5s6.4-8.8,6.4-15.5c0-6.3-2.1-11.2-6.4-14.7S380.3,85.6,372.4,85.6Z" transform="translate(-14.4 -14.4)"/></g><g class="cls-2"><path class="cls-4" d="M900.8,113.8h-8.6V98.4h8.6a8.88,8.88,0,0,1,6.2,2,7,7,0,0,1,2.2,5.6,7.47,7.47,0,0,1-2.2,5.8A9.05,9.05,0,0,1,900.8,113.8Zm.8-28.2H874.2v56h17.9v-15l9.5-.1c7.8,0,13.9-1.8,18.1-5.5s6.4-8.8,6.4-15.5c0-6.3-2.1-11.2-6.4-14.7S909.4,85.6,901.6,85.6Z" transform="translate(-14.4 -14.4)"/></g><g class="cls-2"><path class="cls-4" d="M1166.5,113.8h-8.6V98.4h8.6a8.88,8.88,0,0,1,6.2,2,7,7,0,0,1,2.2,5.6,7.47,7.47,0,0,1-2.2,5.8A8.88,8.88,0,0,1,1166.5,113.8Zm.9-28.2H1140v56h17.9v-15l9.5-.1c7.8,0,13.9-1.8,18.1-5.5s6.4-8.8,6.4-15.5c0-6.3-2.1-11.2-6.4-14.7S1175.2,85.6,1167.4,85.6Z" transform="translate(-14.4 -14.4)"/></g><g class="cls-2"><path class="cls-4" d="M240.9,113.8h-8.6V98.4h8.6a8.88,8.88,0,0,1,6.2,2,7,7,0,0,1,2.2,5.6,7.47,7.47,0,0,1-2.2,5.8A9.05,9.05,0,0,1,240.9,113.8Zm.8-28.2H214.3v56h17.9v-15l9.5-.1c7.8,0,13.9-1.8,18.1-5.5s6.4-8.8,6.4-15.5c0-6.3-2.1-11.2-6.4-14.7S249.5,85.6,241.7,85.6Z" transform="translate(-14.4 -14.4)"/></g><g class="cls-2"><path class="cls-4" d="M770,113.8h-8.6V98.4H770a8.88,8.88,0,0,1,6.2,2,7,7,0,0,1,2.2,5.6,7.47,7.47,0,0,1-2.2,5.8C774.7,113.2,772.7,113.8,770,113.8Zm.9-28.2H743.5v56h17.9v-15l9.5-.1c7.8,0,13.9-1.8,18.1-5.5s6.4-8.8,6.4-15.5c0-6.3-2.1-11.2-6.4-14.7S778.7,85.6,770.9,85.6Z" transform="translate(-14.4 -14.4)"/></g><g class="cls-2"><path class="cls-4" d="M503.3,113.8h-8.6V98.4h8.6a8.88,8.88,0,0,1,6.2,2,7,7,0,0,1,2.2,5.6,7.47,7.47,0,0,1-2.2,5.8A9.05,9.05,0,0,1,503.3,113.8Zm.8-28.2H476.7v56h17.9v-15l9.5-.1c7.8,0,13.9-1.8,18.1-5.5s6.4-8.8,6.4-15.5c0-6.3-2.1-11.2-6.4-14.7S511.9,85.6,504.1,85.6Z" transform="translate(-14.4 -14.4)"/></g><g class="cls-2"><path class="cls-4" d="M1032.4,115h-8.6V99.6h8.6a8.88,8.88,0,0,1,6.2,2,7,7,0,0,1,2.2,5.6,7.47,7.47,0,0,1-2.2,5.8A8.88,8.88,0,0,1,1032.4,115Zm.9-28.2h-27.4v56h17.9v-15l9.5-.1c7.8,0,13.9-1.8,18.1-5.5s6.4-8.8,6.4-15.5c0-6.3-2.1-11.2-6.4-14.7S1041.1,86.8,1033.3,86.8Z" transform="translate(-14.4 -14.4)"/></g><g class="cls-2"><path class="cls-4" d="M41.7,323.7H33.1V308.4h8.6a8.88,8.88,0,0,1,6.2,2,7,7,0,0,1,2.2,5.6,7.47,7.47,0,0,1-2.2,5.8A9.37,9.37,0,0,1,41.7,323.7Zm.9-28.1H15.2v56H33.1v-15l9.5-.1c7.8,0,13.9-1.8,18.1-5.5s6.4-8.8,6.4-15.5c0-6.3-2.1-11.2-6.4-14.7S50.4,295.6,42.6,295.6Z" transform="translate(-14.4 -14.4)"/></g><g class="cls-2"><path class="cls-4" d="M570.9,323.7h-8.6V308.4h8.6a8.88,8.88,0,0,1,6.2,2,7,7,0,0,1,2.2,5.6,7.47,7.47,0,0,1-2.2,5.8A9.37,9.37,0,0,1,570.9,323.7Zm.9-28.1H544.4v56h17.9v-15l9.5-.1c7.8,0,13.9-1.8,18.1-5.5s6.4-8.8,6.4-15.5c0-6.3-2.1-11.2-6.4-14.7S579.6,295.6,571.8,295.6Z" transform="translate(-14.4 -14.4)"/></g><g class="cls-2"><path class="cls-4" d="M304.1,323.7h-8.6V308.4h8.6a8.88,8.88,0,0,1,6.2,2,7,7,0,0,1,2.2,5.6,7.47,7.47,0,0,1-2.2,5.8A9.37,9.37,0,0,1,304.1,323.7Zm.9-28.1H277.6v56h17.9v-15l9.5-.1c7.8,0,13.9-1.8,18.1-5.5s6.4-8.8,6.4-15.5c0-6.3-2.1-11.2-6.4-14.7S312.8,295.6,305,295.6Z" transform="translate(-14.4 -14.4)"/></g><g class="cls-2"><path class="cls-4" d="M833.3,323.7h-8.6V308.4h8.6a8.88,8.88,0,0,1,6.2,2,7,7,0,0,1,2.2,5.6,7.47,7.47,0,0,1-2.2,5.8A9.37,9.37,0,0,1,833.3,323.7Zm.9-28.1H806.8v56h17.9v-15l9.5-.1c7.8,0,13.9-1.8,18.1-5.5s6.4-8.8,6.4-15.5c0-6.3-2.1-11.2-6.4-14.7S842,295.6,834.2,295.6Z" transform="translate(-14.4 -14.4)"/></g><g class="cls-2"><path class="cls-4" d="M1099.1,323.7h-8.6V308.4h8.6a8.88,8.88,0,0,1,6.2,2,7,7,0,0,1,2.2,5.6,7.47,7.47,0,0,1-2.2,5.8A9.75,9.75,0,0,1,1099.1,323.7Zm.8-28.1h-27.4v56h17.9v-15l9.5-.1c7.8,0,13.9-1.8,18.1-5.5s6.4-8.8,6.4-15.5c0-6.3-2.1-11.2-6.4-14.7S1107.7,295.6,1099.9,295.6Z" transform="translate(-14.4 -14.4)"/></g><g class="cls-2"><path class="cls-4" d="M173.4,323.7h-8.6V308.4h8.6a8.88,8.88,0,0,1,6.2,2,7,7,0,0,1,2.2,5.6,7.47,7.47,0,0,1-2.2,5.8A9.37,9.37,0,0,1,173.4,323.7Zm.9-28.1H146.9v56h17.9v-15l9.5-.1c7.8,0,13.9-1.8,18.1-5.5s6.4-8.8,6.4-15.5c0-6.3-2.1-11.2-6.4-14.7S182.1,295.6,174.3,295.6Z" transform="translate(-14.4 -14.4)"/></g><g class="cls-2"><path class="cls-4" d="M702.6,323.7H694V308.4h8.6a8.88,8.88,0,0,1,6.2,2A7,7,0,0,1,711,316a7.47,7.47,0,0,1-2.2,5.8A9.37,9.37,0,0,1,702.6,323.7Zm.8-28.1H676v56h18v-15l9.5-.1c7.8,0,13.9-1.8,18.1-5.5s6.4-8.8,6.4-15.5c0-6.3-2.1-11.2-6.4-14.7S711.2,295.6,703.4,295.6Z" transform="translate(-14.4 -14.4)"/></g><g class="cls-2"><path class="cls-4" d="M435.8,323.7h-8.6V308.4h8.6a8.88,8.88,0,0,1,6.2,2,7,7,0,0,1,2.2,5.6,7.47,7.47,0,0,1-2.2,5.8C440.5,323.2,438.5,323.7,435.8,323.7Zm.8-28.1H409.2v56h17.9v-15l9.5-.1c7.8,0,13.9-1.8,18.1-5.5s6.4-8.8,6.4-15.5c0-6.3-2.1-11.2-6.4-14.7S444.5,295.6,436.6,295.6Z" transform="translate(-14.4 -14.4)"/></g><g class="cls-2"><path class="cls-4" d="M965,323.7h-8.6V308.4H965a8.88,8.88,0,0,1,6.2,2,7,7,0,0,1,2.2,5.6,7.47,7.47,0,0,1-2.2,5.8C969.7,323.2,967.7,323.7,965,323.7Zm.8-28.1H938.4v56h17.9v-15l9.5-.1c7.8,0,13.9-1.8,18.1-5.5s6.4-8.8,6.4-15.5c0-6.3-2.1-11.2-6.4-14.7S973.6,295.6,965.8,295.6Z" transform="translate(-14.4 -14.4)"/></g><g class="cls-2"><path class="cls-4" d="M1230.7,323.7h-8.6V308.4h8.6a8.88,8.88,0,0,1,6.2,2,7,7,0,0,1,2.2,5.6,7.47,7.47,0,0,1-2.2,5.8C1235.4,323.2,1233.4,323.7,1230.7,323.7Zm.9-28.1h-27.4v56h17.9v-15l9.5-.1c7.8,0,13.9-1.8,18.1-5.5s6.4-8.8,6.4-15.5c0-6.3-2.1-11.2-6.4-14.7S1239.4,295.6,1231.6,295.6Z" transform="translate(-14.4 -14.4)"/></g><g class="cls-2"><path class="cls-4" d="M107.5,323.7H98.9V308.4h8.6a8.88,8.88,0,0,1,6.2,2,7,7,0,0,1,2.2,5.6,7.47,7.47,0,0,1-2.2,5.8A9.37,9.37,0,0,1,107.5,323.7Zm.9-28.1H81v56H98.9v-15l9.5-.1c7.8,0,13.9-1.8,18.1-5.5s6.4-8.8,6.4-15.5c0-6.3-2.1-11.2-6.4-14.7S116.2,295.6,108.4,295.6Z" transform="translate(-14.4 -14.4)"/></g><g class="cls-2"><path class="cls-4" d="M636.7,323.7h-8.6V308.4h8.6a8.88,8.88,0,0,1,6.2,2,7,7,0,0,1,2.2,5.6,7.47,7.47,0,0,1-2.2,5.8A9.37,9.37,0,0,1,636.7,323.7Zm.9-28.1H610.2v56h17.9v-15l9.5-.1c7.8,0,13.9-1.8,18.1-5.5s6.4-8.8,6.4-15.5c0-6.3-2.1-11.2-6.4-14.7S645.4,295.6,637.6,295.6Z" transform="translate(-14.4 -14.4)"/></g><g class="cls-2"><path class="cls-4" d="M369.9,323.7h-8.6V308.4h8.6a8.88,8.88,0,0,1,6.2,2,7,7,0,0,1,2.2,5.6,7.47,7.47,0,0,1-2.2,5.8C374.6,323.2,372.6,323.7,369.9,323.7Zm.9-28.1H343.4v56h17.9v-15l9.5-.1c7.8,0,13.9-1.8,18.1-5.5s6.4-8.8,6.4-15.5c0-6.3-2.1-11.2-6.4-14.7S378.6,295.6,370.8,295.6Z" transform="translate(-14.4 -14.4)"/></g><g class="cls-2"><path class="cls-4" d="M899.1,323.7h-8.6V308.4h8.6a8.88,8.88,0,0,1,6.2,2,7,7,0,0,1,2.2,5.6,7.47,7.47,0,0,1-2.2,5.8C903.8,323.2,901.8,323.7,899.1,323.7Zm.9-28.1H872.6v56h17.9v-15l9.5-.1c7.8,0,13.9-1.8,18.1-5.5s6.4-8.8,6.4-15.5c0-6.3-2.1-11.2-6.4-14.7S907.8,295.6,900,295.6Z" transform="translate(-14.4 -14.4)"/></g><g class="cls-2"><path class="cls-4" d="M1164.8,323.7h-8.6V308.4h8.6a8.88,8.88,0,0,1,6.2,2,7,7,0,0,1,2.2,5.6,7.47,7.47,0,0,1-2.2,5.8A9.37,9.37,0,0,1,1164.8,323.7Zm.9-28.1h-27.4v56h17.9v-15l9.5-.1c7.8,0,13.9-1.8,18.1-5.5s6.4-8.8,6.4-15.5c0-6.3-2.1-11.2-6.4-14.7S1173.5,295.6,1165.7,295.6Z" transform="translate(-14.4 -14.4)"/></g><g class="cls-2"><path class="cls-4" d="M239.2,323.7h-8.6V308.4h8.6a8.88,8.88,0,0,1,6.2,2,7,7,0,0,1,2.2,5.6,7.47,7.47,0,0,1-2.2,5.8C243.9,323.2,241.9,323.7,239.2,323.7Zm.8-28.1H212.6v56h17.9v-15l9.5-.1c7.8,0,13.9-1.8,18.1-5.5s6.4-8.8,6.4-15.5c0-6.3-2.1-11.2-6.4-14.7S247.9,295.6,240,295.6Z" transform="translate(-14.4 -14.4)"/></g><g class="cls-2"><path class="cls-4" d="M768.4,323.7h-8.6V308.4h8.6a8.88,8.88,0,0,1,6.2,2,7,7,0,0,1,2.2,5.6,7.47,7.47,0,0,1-2.2,5.8A9.56,9.56,0,0,1,768.4,323.7Zm.8-28.1H741.8v56h17.9v-15l9.5-.1c7.8,0,13.9-1.8,18.1-5.5s6.4-8.8,6.4-15.5c0-6.3-2.1-11.2-6.4-14.7S777,295.6,769.2,295.6Z" transform="translate(-14.4 -14.4)"/></g><g class="cls-2"><path class="cls-4" d="M501.6,323.7H493V308.4h8.6a8.88,8.88,0,0,1,6.2,2A7,7,0,0,1,510,316a7.47,7.47,0,0,1-2.2,5.8A9.37,9.37,0,0,1,501.6,323.7Zm.8-28.1H475v56h18v-15l9.5-.1c7.8,0,13.9-1.8,18.1-5.5s6.4-8.8,6.4-15.5c0-6.3-2.1-11.2-6.4-14.7S510.2,295.6,502.4,295.6Z" transform="translate(-14.4 -14.4)"/></g><g class="cls-2"><path class="cls-4" d="M1030.8,323.7h-8.6V308.4h8.6a8.88,8.88,0,0,1,6.2,2,7,7,0,0,1,2.2,5.6,7.47,7.47,0,0,1-2.2,5.8A9.56,9.56,0,0,1,1030.8,323.7Zm.8-28.1h-27.4v56h17.9v-15l9.5-.1c7.8,0,13.9-1.8,18.1-5.5s6.4-8.8,6.4-15.5c0-6.3-2.1-11.2-6.4-14.7S1039.4,295.6,1031.6,295.6Z" transform="translate(-14.4 -14.4)"/></g><g class="cls-2"><path class="cls-4" d="M41.4,43.1H32.8V27.7h8.6a8.88,8.88,0,0,1,6.2,2,7,7,0,0,1,2.2,5.6,7.47,7.47,0,0,1-2.2,5.8A8.88,8.88,0,0,1,41.4,43.1Zm.9-28.2H14.9v56H32.8v-15l9.5-.1c7.8,0,13.9-1.8,18.1-5.5s6.4-8.8,6.4-15.5c0-6.3-2.1-11.2-6.4-14.7S50.1,14.9,42.3,14.9Z" transform="translate(-14.4 -14.4)"/></g><g class="cls-2"><path class="cls-4" d="M570.6,43.1H562V27.7h8.6a8.88,8.88,0,0,1,6.2,2,7,7,0,0,1,2.2,5.6,7.47,7.47,0,0,1-2.2,5.8A8.88,8.88,0,0,1,570.6,43.1Zm.8-28.2H544v56h18v-15l9.5-.1c7.8,0,13.9-1.8,18.1-5.5s6.4-8.8,6.4-15.5c0-6.3-2.1-11.2-6.4-14.7S579.3,14.9,571.4,14.9Z" transform="translate(-14.4 -14.4)"/></g><g class="cls-2"><path class="cls-4" d="M303.8,44.3h-8.6V28.9h8.6a8.88,8.88,0,0,1,6.2,2,7,7,0,0,1,2.2,5.6,7.47,7.47,0,0,1-2.2,5.8A8.88,8.88,0,0,1,303.8,44.3Zm.9-28.2H277.3v56h17.9v-15l9.5-.1c7.8,0,13.9-1.8,18.1-5.5s6.4-8.8,6.4-15.5c0-6.3-2.1-11.2-6.4-14.7S312.5,16.1,304.7,16.1Z" transform="translate(-14.4 -14.4)"/></g><g class="cls-2"><path class="cls-4" d="M833,43.1h-8.6V27.7H833a8.88,8.88,0,0,1,6.2,2,7,7,0,0,1,2.2,5.6,7.47,7.47,0,0,1-2.2,5.8A8.88,8.88,0,0,1,833,43.1Zm.8-28.2H806.4v56h17.9v-15l9.5-.1c7.8,0,13.9-1.8,18.1-5.5s6.4-8.8,6.4-15.5c0-6.3-2.1-11.2-6.4-14.7S841.6,14.9,833.8,14.9Z" transform="translate(-14.4 -14.4)"/></g><g class="cls-2"><path class="cls-4" d="M1098.7,43.1h-8.6V27.7h8.6a8.88,8.88,0,0,1,6.2,2,7,7,0,0,1,2.2,5.6,7.47,7.47,0,0,1-2.2,5.8A8.88,8.88,0,0,1,1098.7,43.1Zm.9-28.2h-27.4v56h17.9v-15l9.5-.1c7.8,0,13.9-1.8,18.1-5.5s6.4-8.8,6.4-15.5c0-6.3-2.1-11.2-6.4-14.7S1107.4,14.9,1099.6,14.9Z" transform="translate(-14.4 -14.4)"/></g><g class="cls-2"><path class="cls-3" d="M173.1,43.1h-8.6V27.7h8.6a8.88,8.88,0,0,1,6.2,2,7,7,0,0,1,2.2,5.6,7.47,7.47,0,0,1-2.2,5.8,8.88,8.88,0,0,1-6.2,2m.8-28.2H146.5v56h17.9v-15l9.5-.1c7.8,0,13.9-1.8,18.1-5.5s6.4-8.8,6.4-15.5c0-6.3-2.1-11.2-6.4-14.7s-10.3-5.2-18.1-5.2" transform="translate(-14.4 -14.4)"/></g><g class="cls-2"><path class="cls-4" d="M702.3,43.1h-8.6V27.7h8.6a8.88,8.88,0,0,1,6.2,2,7,7,0,0,1,2.2,5.6,7.47,7.47,0,0,1-2.2,5.8A9.05,9.05,0,0,1,702.3,43.1Zm.8-28.2H675.7v56h17.9v-15l9.5-.1c7.8,0,13.9-1.8,18.1-5.5s6.4-8.8,6.4-15.5c0-6.3-2.1-11.2-6.4-14.7S710.9,14.9,703.1,14.9Z" transform="translate(-14.4 -14.4)"/></g><g class="cls-2"><path class="cls-4" d="M435.5,43.1h-8.6V27.7h8.6a8.88,8.88,0,0,1,6.2,2,7,7,0,0,1,2.2,5.6,7.47,7.47,0,0,1-2.2,5.8A9.05,9.05,0,0,1,435.5,43.1Zm.8-28.2H408.9v56h17.9v-15l9.5-.1c7.8,0,13.9-1.8,18.1-5.5s6.4-8.8,6.4-15.5c0-6.3-2.1-11.2-6.4-14.7S444.1,14.9,436.3,14.9Z" transform="translate(-14.4 -14.4)"/></g><g class="cls-2"><path class="cls-4" d="M964.6,43.1H956V27.7h8.6a8.88,8.88,0,0,1,6.2,2,7,7,0,0,1,2.2,5.6,7.47,7.47,0,0,1-2.2,5.8A8.88,8.88,0,0,1,964.6,43.1Zm.9-28.2H938.1v56H956v-15l9.5-.1c7.8,0,13.9-1.8,18.1-5.5s6.4-8.8,6.4-15.5c0-6.3-2.1-11.2-6.4-14.7S973.3,14.9,965.5,14.9Z" transform="translate(-14.4 -14.4)"/></g><g class="cls-2"><path class="cls-3" d="M1230.4,43.1h-8.6V27.7h8.6a8.88,8.88,0,0,1,6.2,2,7,7,0,0,1,2.2,5.6,7.47,7.47,0,0,1-2.2,5.8,8.88,8.88,0,0,1-6.2,2m.9-28.2h-27.4v56h17.9v-15l9.5-.1c7.8,0,13.9-1.8,18.1-5.5s6.4-8.8,6.4-15.5c0-6.3-2.1-11.2-6.4-14.7s-10.3-5.2-18.1-5.2" transform="translate(-14.4 -14.4)"/></g><g class="cls-2"><path class="cls-4" d="M107.2,43.1H98.6V27.7h8.6a8.88,8.88,0,0,1,6.2,2,7,7,0,0,1,2.2,5.6,7.47,7.47,0,0,1-2.2,5.8A8.88,8.88,0,0,1,107.2,43.1Zm.9-28.2H80.7v56H98.6v-15l9.5-.1c7.8,0,13.9-1.8,18.1-5.5s6.4-8.8,6.4-15.5c0-6.3-2.1-11.2-6.4-14.7S115.9,14.9,108.1,14.9Z" transform="translate(-14.4 -14.4)"/></g><g class="cls-2"><path class="cls-4" d="M636.4,43.1h-8.6V27.7h8.6a8.88,8.88,0,0,1,6.2,2,7,7,0,0,1,2.2,5.6,7.47,7.47,0,0,1-2.2,5.8A8.88,8.88,0,0,1,636.4,43.1Zm.8-28.2H609.8v56h17.9v-15l9.5-.1c7.8,0,13.9-1.8,18.1-5.5s6.4-8.8,6.4-15.5c0-6.3-2.1-11.2-6.4-14.7S645,14.9,637.2,14.9Z" transform="translate(-14.4 -14.4)"/></g><g class="cls-2"><path class="cls-4" d="M369.6,43.1H361V27.7h8.6a8.88,8.88,0,0,1,6.2,2,7,7,0,0,1,2.2,5.6,7.47,7.47,0,0,1-2.2,5.8A8.88,8.88,0,0,1,369.6,43.1Zm.8-28.2H343v56h18v-15l9.5-.1c7.8,0,13.9-1.8,18.1-5.5s6.4-8.8,6.4-15.5c0-6.3-2.1-11.2-6.4-14.7S378.3,14.9,370.4,14.9Z" transform="translate(-14.4 -14.4)"/></g><g class="cls-2"><path class="cls-4" d="M898.8,43.1h-8.6V27.7h8.6a8.88,8.88,0,0,1,6.2,2,7,7,0,0,1,2.2,5.6,7.47,7.47,0,0,1-2.2,5.8A9.05,9.05,0,0,1,898.8,43.1Zm.8-28.2H872.2v56h17.9v-15l9.5-.1c7.8,0,13.9-1.8,18.1-5.5s6.4-8.8,6.4-15.5c0-6.3-2.1-11.2-6.4-14.7S907.4,14.9,899.6,14.9Z" transform="translate(-14.4 -14.4)"/></g><g class="cls-2"><path class="cls-4" d="M1164.5,43.1h-8.6V27.7h8.6a8.88,8.88,0,0,1,6.2,2,7,7,0,0,1,2.2,5.6,7.47,7.47,0,0,1-2.2,5.8A8.88,8.88,0,0,1,1164.5,43.1Zm.9-28.2H1138v56h17.9v-15l9.5-.1c7.8,0,13.9-1.8,18.1-5.5s6.4-8.8,6.4-15.5c0-6.3-2.1-11.2-6.4-14.7S1173.2,14.9,1165.4,14.9Z" transform="translate(-14.4 -14.4)"/></g><g class="cls-2"><path class="cls-4" d="M238.9,43.1h-8.6V27.7h8.6a8.88,8.88,0,0,1,6.2,2,7,7,0,0,1,2.2,5.6,7.47,7.47,0,0,1-2.2,5.8A9.05,9.05,0,0,1,238.9,43.1Zm.8-28.2H212.3v56h17.9v-15l9.5-.1c7.8,0,13.9-1.8,18.1-5.5s6.4-8.8,6.4-15.5c0-6.3-2.1-11.2-6.4-14.7S247.5,14.9,239.7,14.9Z" transform="translate(-14.4 -14.4)"/></g><g class="cls-2"><path class="cls-4" d="M768,43.1h-8.6V27.7H768a8.88,8.88,0,0,1,6.2,2,7,7,0,0,1,2.2,5.6,7.47,7.47,0,0,1-2.2,5.8A8.88,8.88,0,0,1,768,43.1Zm.9-28.2H741.5v56h17.9v-15l9.5-.1c7.8,0,13.9-1.8,18.1-5.5s6.4-8.8,6.4-15.5c0-6.3-2.1-11.2-6.4-14.7S776.7,14.9,768.9,14.9Z" transform="translate(-14.4 -14.4)"/></g><g class="cls-2"><path class="cls-4" d="M501.3,43.1h-8.6V27.7h8.6a8.88,8.88,0,0,1,6.2,2,7,7,0,0,1,2.2,5.6,7.47,7.47,0,0,1-2.2,5.8A9.05,9.05,0,0,1,501.3,43.1Zm.8-28.2H474.7v56h17.9v-15l9.5-.1c7.8,0,13.9-1.8,18.1-5.5s6.4-8.8,6.4-15.5c0-6.3-2.1-11.2-6.4-14.7S509.9,14.9,502.1,14.9Z" transform="translate(-14.4 -14.4)"/></g><g class="cls-2"><path class="cls-4" d="M1030.4,43.1h-8.6V27.7h8.6a8.88,8.88,0,0,1,6.2,2,7,7,0,0,1,2.2,5.6,7.47,7.47,0,0,1-2.2,5.8A8.88,8.88,0,0,1,1030.4,43.1Zm.9-28.2h-27.4v56h17.9v-15l9.5-.1c7.8,0,13.9-1.8,18.1-5.5s6.4-8.8,6.4-15.5c0-6.3-2.1-11.2-6.4-14.7S1039.1,14.9,1031.3,14.9Z" transform="translate(-14.4 -14.4)"/></g><g class="cls-2"><path class="cls-4" d="M43.5,464.2H34.9V448.9h8.6a8.88,8.88,0,0,1,6.2,2,7,7,0,0,1,2.2,5.6,7.47,7.47,0,0,1-2.2,5.8A9.37,9.37,0,0,1,43.5,464.2Zm.9-28.2H17v56H34.9V477l9.5-.1c7.8,0,13.9-1.8,18.1-5.5s6.4-8.8,6.4-15.5c0-6.3-2.1-11.2-6.4-14.7S52.2,436,44.4,436Z" transform="translate(-14.4 -14.4)"/></g><g class="cls-2"><path class="cls-4" d="M572.7,464.2h-8.6V448.9h8.6a8.88,8.88,0,0,1,6.2,2,7,7,0,0,1,2.2,5.6,7.47,7.47,0,0,1-2.2,5.8A9.37,9.37,0,0,1,572.7,464.2Zm.9-28.2H546.2v56h17.9V477l9.5-.1c7.8,0,13.9-1.8,18.1-5.5s6.4-8.8,6.4-15.5c0-6.3-2.1-11.2-6.4-14.7S581.4,436,573.6,436Z" transform="translate(-14.4 -14.4)"/></g><g class="cls-2"><path class="cls-4" d="M305.9,464.2h-8.6V448.9h8.6a8.88,8.88,0,0,1,6.2,2,7,7,0,0,1,2.2,5.6,7.47,7.47,0,0,1-2.2,5.8A9.37,9.37,0,0,1,305.9,464.2Zm.9-28.2H279.4v56h17.9V477l9.5-.1c7.8,0,13.9-1.8,18.1-5.5s6.4-8.8,6.4-15.5c0-6.3-2.1-11.2-6.4-14.7S314.6,436,306.8,436Z" transform="translate(-14.4 -14.4)"/></g><g class="cls-2"><path class="cls-3" d="M835.1,464.2h-8.6V448.9h8.6a8.88,8.88,0,0,1,6.2,2,7,7,0,0,1,2.2,5.6,7.47,7.47,0,0,1-2.2,5.8,9.37,9.37,0,0,1-6.2,1.9M836,436H808.6v56h17.9V477l9.5-.1c7.8,0,13.9-1.8,18.1-5.5s6.4-8.8,6.4-15.5c0-6.3-2.1-11.2-6.4-14.7S843.8,436,836,436" transform="translate(-14.4 -14.4)"/></g><g class="cls-2"><path class="cls-4" d="M1100.9,464.2h-8.6V448.9h8.6a8.88,8.88,0,0,1,6.2,2,7,7,0,0,1,2.2,5.6,7.47,7.47,0,0,1-2.2,5.8A9.56,9.56,0,0,1,1100.9,464.2Zm.8-28.2h-27.4v56h17.9V477l9.5-.1c7.8,0,13.9-1.8,18.1-5.5s6.4-8.8,6.4-15.5c0-6.3-2.1-11.2-6.4-14.7S1109.5,436,1101.7,436Z" transform="translate(-14.4 -14.4)"/></g><g class="cls-2"><path class="cls-4" d="M175.2,464.2h-8.6V448.9h8.6a8.88,8.88,0,0,1,6.2,2,7,7,0,0,1,2.2,5.6,7.47,7.47,0,0,1-2.2,5.8A9.37,9.37,0,0,1,175.2,464.2Zm.9-28.2H148.7v56h17.9V477l9.5-.1c7.8,0,13.9-1.8,18.1-5.5s6.4-8.8,6.4-15.5c0-6.3-2.1-11.2-6.4-14.7S183.9,436,176.1,436Z" transform="translate(-14.4 -14.4)"/></g><g class="cls-2"><path class="cls-4" d="M704.4,464.2h-8.6V448.9h8.6a8.88,8.88,0,0,1,6.2,2,7,7,0,0,1,2.2,5.6,7.47,7.47,0,0,1-2.2,5.8A9.37,9.37,0,0,1,704.4,464.2Zm.9-28.2H677.9v56h17.9V477l9.5-.1c7.8,0,13.9-1.8,18.1-5.5s6.4-8.8,6.4-15.5c0-6.3-2.1-11.2-6.4-14.7S713.1,436,705.3,436Z" transform="translate(-14.4 -14.4)"/></g><g class="cls-2"><path class="cls-4" d="M437.6,464.2H429V448.9h8.6a8.88,8.88,0,0,1,6.2,2,7,7,0,0,1,2.2,5.6,7.47,7.47,0,0,1-2.2,5.8A9.37,9.37,0,0,1,437.6,464.2Zm.9-28.2H411.1v56H429V477l9.5-.1c7.8,0,13.9-1.8,18.1-5.5s6.4-8.8,6.4-15.5c0-6.3-2.1-11.2-6.4-14.7S446.3,436,438.5,436Z" transform="translate(-14.4 -14.4)"/></g><g class="cls-2"><path class="cls-4" d="M966.8,464.2h-8.6V448.9h8.6a8.88,8.88,0,0,1,6.2,2,7,7,0,0,1,2.2,5.6,7.47,7.47,0,0,1-2.2,5.8A9.37,9.37,0,0,1,966.8,464.2Zm.8-28.2H940.2v56h17.9V477l9.5-.1c7.8,0,13.9-1.8,18.1-5.5s6.4-8.8,6.4-15.5c0-6.3-2.1-11.2-6.4-14.7S975.5,436,967.6,436Z" transform="translate(-14.4 -14.4)"/></g><g class="cls-2"><path class="cls-4" d="M1232.5,464.2h-8.6V448.9h8.6a8.88,8.88,0,0,1,6.2,2,7,7,0,0,1,2.2,5.6,7.47,7.47,0,0,1-2.2,5.8A9.37,9.37,0,0,1,1232.5,464.2Zm.9-28.2H1206v56h17.9V477l9.5-.1c7.8,0,13.9-1.8,18.1-5.5s6.4-8.8,6.4-15.5c0-6.3-2.1-11.2-6.4-14.7S1241.2,436,1233.4,436Z" transform="translate(-14.4 -14.4)"/></g><g class="cls-2"><path class="cls-4" d="M109.3,464.2h-8.6V448.9h8.6a8.88,8.88,0,0,1,6.2,2,7,7,0,0,1,2.2,5.6,7.47,7.47,0,0,1-2.2,5.8A9.37,9.37,0,0,1,109.3,464.2Zm.9-28.2H82.8v56h17.9V477l9.5-.1c7.8,0,13.9-1.8,18.1-5.5s6.4-8.8,6.4-15.5c0-6.3-2.1-11.2-6.4-14.7S118,436,110.2,436Z" transform="translate(-14.4 -14.4)"/></g><g class="cls-2"><path class="cls-4" d="M638.5,464.2h-8.6V448.9h8.6a8.88,8.88,0,0,1,6.2,2,7,7,0,0,1,2.2,5.6,7.47,7.47,0,0,1-2.2,5.8A9.37,9.37,0,0,1,638.5,464.2Zm.9-28.2H612v56h17.9V477l9.5-.1c7.8,0,13.9-1.8,18.1-5.5s6.4-8.8,6.4-15.5c0-6.3-2.1-11.2-6.4-14.7S647.2,436,639.4,436Z" transform="translate(-14.4 -14.4)"/></g><g class="cls-2"><path class="cls-4" d="M371.7,464.2h-8.6V448.9h8.6a8.88,8.88,0,0,1,6.2,2,7,7,0,0,1,2.2,5.6,7.47,7.47,0,0,1-2.2,5.8C376.4,463.7,374.4,464.2,371.7,464.2Zm.9-28.2H345.2v56h17.9V477l9.5-.1c7.8,0,13.9-1.8,18.1-5.5s6.4-8.8,6.4-15.5c0-6.3-2.1-11.2-6.4-14.7S380.4,436,372.6,436Z" transform="translate(-14.4 -14.4)"/></g><g class="cls-2"><path class="cls-4" d="M900.9,464.2h-8.6V448.9h8.6a8.88,8.88,0,0,1,6.2,2,7,7,0,0,1,2.2,5.6,7.47,7.47,0,0,1-2.2,5.8A9.37,9.37,0,0,1,900.9,464.2Zm.9-28.2H874.4v56h17.9V477l9.5-.1c7.8,0,13.9-1.8,18.1-5.5s6.4-8.8,6.4-15.5c0-6.3-2.1-11.2-6.4-14.7S909.6,436,901.8,436Z" transform="translate(-14.4 -14.4)"/></g><g class="cls-2"><path class="cls-4" d="M1166.7,464.2h-8.6V448.9h8.6a8.88,8.88,0,0,1,6.2,2,7,7,0,0,1,2.2,5.6,7.47,7.47,0,0,1-2.2,5.8C1171.4,463.7,1169.4,464.2,1166.7,464.2Zm.8-28.2h-27.4v56H1158V477l9.5-.1c7.8,0,13.9-1.8,18.1-5.5s6.4-8.8,6.4-15.5c0-6.3-2.1-11.2-6.4-14.7S1175.3,436,1167.5,436Z" transform="translate(-14.4 -14.4)"/></g><g class="cls-2"><path class="cls-4" d="M241,464.2h-8.6V448.9H241a8.88,8.88,0,0,1,6.2,2,7,7,0,0,1,2.2,5.6,7.47,7.47,0,0,1-2.2,5.8A9.37,9.37,0,0,1,241,464.2Zm.9-28.2H214.5v56h17.9V477l9.5-.1c7.8,0,13.9-1.8,18.1-5.5s6.4-8.8,6.4-15.5c0-6.3-2.1-11.2-6.4-14.7S249.7,436,241.9,436Z" transform="translate(-14.4 -14.4)"/></g><g class="cls-2"><path class="cls-4" d="M770.2,464.2h-8.6V448.9h8.6a8.88,8.88,0,0,1,6.2,2,7,7,0,0,1,2.2,5.6,7.47,7.47,0,0,1-2.2,5.8C774.9,463.7,772.9,464.2,770.2,464.2ZM771,436H743.6v56h17.9V477l9.5-.1c7.8,0,13.9-1.8,18.1-5.5s6.4-8.8,6.4-15.5c0-6.3-2.1-11.2-6.4-14.7S778.9,436,771,436Z" transform="translate(-14.4 -14.4)"/></g><g class="cls-2"><path class="cls-4" d="M503.4,464.2h-8.6V448.9h8.6a8.88,8.88,0,0,1,6.2,2,7,7,0,0,1,2.2,5.6,7.47,7.47,0,0,1-2.2,5.8A9.37,9.37,0,0,1,503.4,464.2Zm.9-28.2H476.9v56h17.9V477l9.5-.1c7.8,0,13.9-1.8,18.1-5.5s6.4-8.8,6.4-15.5c0-6.3-2.1-11.2-6.4-14.7S512.1,436,504.3,436Z" transform="translate(-14.4 -14.4)"/></g><g class="cls-2"><path class="cls-4" d="M1032.6,464.2H1024V448.9h8.6a8.88,8.88,0,0,1,6.2,2,7,7,0,0,1,2.2,5.6,7.47,7.47,0,0,1-2.2,5.8A9.37,9.37,0,0,1,1032.6,464.2Zm.8-28.2H1006v56h17.9V477l9.5-.1c7.8,0,13.9-1.8,18.1-5.5s6.4-8.8,6.4-15.5c0-6.3-2.1-11.2-6.4-14.7S1041.2,436,1033.4,436Z" transform="translate(-14.4 -14.4)"/></g><g class="cls-2"><path class="cls-4" d="M43.2,183.5H34.6V168.2h8.6a8.88,8.88,0,0,1,6.2,2,7,7,0,0,1,2.2,5.6,7.47,7.47,0,0,1-2.2,5.8A9.37,9.37,0,0,1,43.2,183.5Zm.9-28.1H16.7v56H34.6v-15l9.5-.1c7.8,0,13.9-1.8,18.1-5.5s6.4-8.8,6.4-15.5c0-6.3-2.1-11.2-6.4-14.7S51.9,155.4,44.1,155.4Z" transform="translate(-14.4 -14.4)"/></g><g class="cls-2"><path class="cls-4" d="M572.4,183.5h-8.6V168.2h8.6a8.88,8.88,0,0,1,6.2,2,7,7,0,0,1,2.2,5.6,7.47,7.47,0,0,1-2.2,5.8C577.1,183,575.1,183.5,572.4,183.5Zm.9-28.1H545.9v56h17.9v-15l9.5-.1c7.8,0,13.9-1.8,18.1-5.5s6.4-8.8,6.4-15.5c0-6.3-2.1-11.2-6.4-14.7S581.1,155.4,573.3,155.4Z" transform="translate(-14.4 -14.4)"/></g><g class="cls-2"><path class="cls-4" d="M305.6,183.5H297V168.2h8.6a8.88,8.88,0,0,1,6.2,2,7,7,0,0,1,2.2,5.6,7.47,7.47,0,0,1-2.2,5.8C310.3,183,308.3,183.5,305.6,183.5Zm.9-28.1H279.1v56H297v-15l9.5-.1c7.8,0,13.9-1.8,18.1-5.5s6.4-8.8,6.4-15.5c0-6.3-2.1-11.2-6.4-14.7S314.3,155.4,306.5,155.4Z" transform="translate(-14.4 -14.4)"/></g><g class="cls-2"><path class="cls-4" d="M834.8,183.5h-8.6V168.2h8.6a8.88,8.88,0,0,1,6.2,2,7,7,0,0,1,2.2,5.6,7.47,7.47,0,0,1-2.2,5.8A9.37,9.37,0,0,1,834.8,183.5Zm.9-28.1H808.3v56h17.9v-15l9.5-.1c7.8,0,13.9-1.8,18.1-5.5s6.4-8.8,6.4-15.5c0-6.3-2.1-11.2-6.4-14.7S843.5,155.4,835.7,155.4Z" transform="translate(-14.4 -14.4)"/></g><g class="cls-2"><path class="cls-4" d="M1100.5,183.5h-8.6V168.2h8.6a8.88,8.88,0,0,1,6.2,2,7,7,0,0,1,2.2,5.6,7.47,7.47,0,0,1-2.2,5.8A9.37,9.37,0,0,1,1100.5,183.5Zm.9-28.1H1074v56h17.9v-15l9.5-.1c7.8,0,13.9-1.8,18.1-5.5s6.4-8.8,6.4-15.5c0-6.3-2.1-11.2-6.4-14.7S1109.2,155.4,1101.4,155.4Z" transform="translate(-14.4 -14.4)"/></g><g class="cls-2"><path class="cls-4" d="M174.9,183.5h-8.6V168.2h8.6a8.88,8.88,0,0,1,6.2,2,7,7,0,0,1,2.2,5.6,7.47,7.47,0,0,1-2.2,5.8A9.37,9.37,0,0,1,174.9,183.5Zm.9-28.1H148.4v56h17.9v-15l9.5-.1c7.8,0,13.9-1.8,18.1-5.5s6.4-8.8,6.4-15.5c0-6.3-2.1-11.2-6.4-14.7S183.6,155.4,175.8,155.4Z" transform="translate(-14.4 -14.4)"/></g><g class="cls-2"><path class="cls-4" d="M704.1,183.5h-8.6V168.2h8.6a8.88,8.88,0,0,1,6.2,2,7,7,0,0,1,2.2,5.6,7.47,7.47,0,0,1-2.2,5.8A9.37,9.37,0,0,1,704.1,183.5Zm.8-28.1H677.5v56h17.9v-15l9.5-.1c7.8,0,13.9-1.8,18.1-5.5s6.4-8.8,6.4-15.5c0-6.3-2.1-11.2-6.4-14.7S712.7,155.4,704.9,155.4Z" transform="translate(-14.4 -14.4)"/></g><g class="cls-2"><path class="cls-4" d="M437.3,183.5h-8.6V168.2h8.6a8.88,8.88,0,0,1,6.2,2,7,7,0,0,1,2.2,5.6,7.47,7.47,0,0,1-2.2,5.8A9.37,9.37,0,0,1,437.3,183.5Zm.8-28.1H410.7v56h17.9v-15l9.5-.1c7.8,0,13.9-1.8,18.1-5.5s6.4-8.8,6.4-15.5c0-6.3-2.1-11.2-6.4-14.7S446,155.4,438.1,155.4Z" transform="translate(-14.4 -14.4)"/></g><g class="cls-2"><path class="cls-3" d="M966.5,183.5h-8.6V168.2h8.6a8.88,8.88,0,0,1,6.2,2,7,7,0,0,1,2.2,5.6,7.47,7.47,0,0,1-2.2,5.8,9.56,9.56,0,0,1-6.2,1.9m.8-28.1H939.9v56h17.9v-15l9.5-.1c7.8,0,13.9-1.8,18.1-5.5s6.4-8.8,6.4-15.5c0-6.3-2.1-11.2-6.4-14.7s-10.3-5.2-18.1-5.2" transform="translate(-14.4 -14.4)"/></g><g class="cls-2"><path class="cls-4" d="M1232.2,183.5h-8.6V168.2h8.6a8.88,8.88,0,0,1,6.2,2,7,7,0,0,1,2.2,5.6,7.47,7.47,0,0,1-2.2,5.8A9.37,9.37,0,0,1,1232.2,183.5Zm.9-28.1h-27.4v56h17.9v-15l9.5-.1c7.8,0,13.9-1.8,18.1-5.5s6.4-8.8,6.4-15.5c0-6.3-2.1-11.2-6.4-14.7S1240.9,155.4,1233.1,155.4Z" transform="translate(-14.4 -14.4)"/></g><g class="cls-2"><path class="cls-4" d="M109,183.5h-8.6V168.2H109a8.88,8.88,0,0,1,6.2,2,7,7,0,0,1,2.2,5.6,7.47,7.47,0,0,1-2.2,5.8A9.37,9.37,0,0,1,109,183.5Zm.9-28.1H82.5v56h17.9v-15l9.5-.1c7.8,0,13.9-1.8,18.1-5.5s6.4-8.8,6.4-15.5c0-6.3-2.1-11.2-6.4-14.7S117.7,155.4,109.9,155.4Z" transform="translate(-14.4 -14.4)"/></g><g class="cls-2"><path class="cls-4" d="M638.2,183.5h-8.6V168.2h8.6a8.88,8.88,0,0,1,6.2,2,7,7,0,0,1,2.2,5.6,7.47,7.47,0,0,1-2.2,5.8A9.37,9.37,0,0,1,638.2,183.5Zm.9-28.1H611.7v56h17.9v-15l9.5-.1c7.8,0,13.9-1.8,18.1-5.5s6.4-8.8,6.4-15.5c0-6.3-2.1-11.2-6.4-14.7S646.9,155.4,639.1,155.4Z" transform="translate(-14.4 -14.4)"/></g><g class="cls-2"><path class="cls-4" d="M371.4,183.5h-8.6V168.2h8.6a8.88,8.88,0,0,1,6.2,2,7,7,0,0,1,2.2,5.6,7.47,7.47,0,0,1-2.2,5.8C376.1,183,374.1,183.5,371.4,183.5Zm.9-28.1H344.9v56h17.9v-15l9.5-.1c7.8,0,13.9-1.8,18.1-5.5s6.4-8.8,6.4-15.5c0-6.3-2.1-11.2-6.4-14.7S380.1,155.4,372.3,155.4Z" transform="translate(-14.4 -14.4)"/></g><g class="cls-2"><path class="cls-4" d="M900.6,183.5H892V168.2h8.6a8.88,8.88,0,0,1,6.2,2,7,7,0,0,1,2.2,5.6,7.47,7.47,0,0,1-2.2,5.8C905.3,183,903.3,183.5,900.6,183.5Zm.8-28.1H874v56h18v-15l9.5-.1c7.8,0,13.9-1.8,18.1-5.5s6.4-8.8,6.4-15.5c0-6.3-2.1-11.2-6.4-14.7S909.3,155.4,901.4,155.4Z" transform="translate(-14.4 -14.4)"/></g><g class="cls-2"><path class="cls-4" d="M1166.3,183.5h-8.6V168.2h8.6a8.88,8.88,0,0,1,6.2,2,7,7,0,0,1,2.2,5.6,7.47,7.47,0,0,1-2.2,5.8A9.37,9.37,0,0,1,1166.3,183.5Zm.9-28.1h-27.4v56h17.9v-15l9.5-.1c7.8,0,13.9-1.8,18.1-5.5s6.4-8.8,6.4-15.5c0-6.3-2.1-11.2-6.4-14.7S1175,155.4,1167.2,155.4Z" transform="translate(-14.4 -14.4)"/></g><g class="cls-2"><path class="cls-4" d="M240.7,183.5h-8.6V168.2h8.6a8.88,8.88,0,0,1,6.2,2,7,7,0,0,1,2.2,5.6,7.47,7.47,0,0,1-2.2,5.8C245.4,183,243.4,183.5,240.7,183.5Zm.8-28.1H214.1v56H232v-15l9.5-.1c7.8,0,13.9-1.8,18.1-5.5s6.4-8.8,6.4-15.5c0-6.3-2.1-11.2-6.4-14.7S249.4,155.4,241.5,155.4Z" transform="translate(-14.4 -14.4)"/></g><g class="cls-2"><path class="cls-4" d="M769.9,183.5h-8.6V168.2h8.6a8.88,8.88,0,0,1,6.2,2,7,7,0,0,1,2.2,5.6,7.47,7.47,0,0,1-2.2,5.8C774.6,183,772.6,183.5,769.9,183.5Zm.8-28.1H743.3v56h17.9v-15l9.5-.1c7.8,0,13.9-1.8,18.1-5.5s6.4-8.8,6.4-15.5c0-6.3-2.1-11.2-6.4-14.7S778.5,155.4,770.7,155.4Z" transform="translate(-14.4 -14.4)"/></g><g class="cls-2"><path class="cls-4" d="M503.1,183.5h-8.6V168.2h8.6a8.88,8.88,0,0,1,6.2,2,7,7,0,0,1,2.2,5.6,7.47,7.47,0,0,1-2.2,5.8A9.37,9.37,0,0,1,503.1,183.5Zm.8-28.1H476.5v56h17.9v-15l9.5-.1c7.8,0,13.9-1.8,18.1-5.5s6.4-8.8,6.4-15.5c0-6.3-2.1-11.2-6.4-14.7S511.7,155.4,503.9,155.4Z" transform="translate(-14.4 -14.4)"/></g><g class="cls-2"><path class="cls-4" d="M1032.3,183.5h-8.6V168.2h8.6a8.88,8.88,0,0,1,6.2,2,7,7,0,0,1,2.2,5.6,7.47,7.47,0,0,1-2.2,5.8A9.56,9.56,0,0,1,1032.3,183.5Zm.8-28.1h-27.4v56h17.9v-15l9.5-.1c7.8,0,13.9-1.8,18.1-5.5s6.4-8.8,6.4-15.5c0-6.3-2.1-11.2-6.4-14.7S1040.9,155.4,1033.1,155.4Z" transform="translate(-14.4 -14.4)"/></g></svg>