<?xml version="1.0" encoding="utf-8"?>
<!-- Generator: Adobe Illustrator 21.1.0, SVG Export Plug-In . SVG Version: 6.00 Build 0)  -->
<svg version="1.1" id="Layer_1" xmlns="http://www.w3.org/2000/svg" xmlns:xlink="http://www.w3.org/1999/xlink" x="0px" y="0px"
	 viewBox="0 0 792 612" style="enable-background:new 0 0 792 612;" xml:space="preserve">
<style type="text/css">
	.st0{fill:#74C7BC;}
	.st1{fill:#98CC6A;}
	.st2{fill:#F0583F;stroke:#FFFFFF;stroke-width:0.3;stroke-miterlimit:10;}
	.st3{fill:#3B314C;stroke:#FFFFFF;stroke-width:0.3;stroke-miterlimit:10;}
	.st4{fill:#EB5F30;stroke:#FFFFFF;stroke-width:0.3;stroke-miterlimit:10;}
	.st5{fill:#FED8AE;stroke:#FFFFFF;stroke-width:0.3;stroke-miterlimit:10;}
	.st6{fill:#D2854E;stroke:#FFFFFF;stroke-width:0.3;stroke-miterlimit:10;}
	.st7{fill:#4A99B2;stroke:#FFFFFF;stroke-width:0.3;stroke-miterlimit:10;}
	.st8{fill:#FCBC4D;stroke:#FFFFFF;stroke-width:0.3;stroke-miterlimit:10;}
	.st9{stroke:#FFFFFF;stroke-width:0.3;stroke-miterlimit:10;}
	.st10{fill:#69BEB5;stroke:#FFFFFF;stroke-width:0.3;stroke-miterlimit:10;}
	.st11{fill:#FDECD9;stroke:#FFFFFF;stroke-width:0.3;stroke-miterlimit:10;}
	.st12{fill:#FCD2AC;stroke:#FFFFFF;stroke-width:0.3;stroke-miterlimit:10;}
	.st13{fill:#FAB94F;stroke:#FFFFFF;stroke-width:0.3;stroke-miterlimit:10;}
	.st14{fill:#C49A6C;stroke:#FFFFFF;stroke-width:0.3;stroke-miterlimit:10;}
	.st15{fill:none;stroke:#FFFFFF;stroke-width:0.3;stroke-miterlimit:10;}
	.st16{fill:#A97C50;stroke:#FFFFFF;stroke-width:0.3;stroke-miterlimit:10;}
	.st17{fill:#C9822D;stroke:#FFFFFF;stroke-width:0.3;stroke-miterlimit:10;}
	.st18{fill:#72A896;stroke:#FFFFFF;stroke-width:0.3;stroke-miterlimit:10;}
	.st19{fill:#F16F52;stroke:#FFFFFF;stroke-width:0.3;stroke-miterlimit:10;}
	.st20{fill:#DC6C54;stroke:#FFFFFF;stroke-width:0.3;stroke-miterlimit:10;}
	.st21{fill:#FCB134;stroke:#FFFFFF;stroke-width:0.3;stroke-miterlimit:10;}
	.st22{opacity:0.19;stroke:#FFFFFF;stroke-width:0.3;stroke-miterlimit:10;}
	.st23{fill:#2D2743;stroke:#FFFFFF;stroke-width:0.3;stroke-miterlimit:10;}
	.st24{fill:#F4825B;stroke:#FFFFFF;stroke-width:0.3;stroke-miterlimit:10;}
	.st25{fill:#FDBA53;stroke:#FFFFFF;stroke-width:0.3;stroke-miterlimit:10;}
	.st26{fill:#ABBCA6;stroke:#FFFFFF;stroke-width:0.3;stroke-miterlimit:10;}
	.st27{fill:none;stroke:#009444;stroke-miterlimit:10;}
	.st28{fill:#E0C193;stroke:#FFFFFF;stroke-width:0.5;stroke-miterlimit:10;}
	.st29{fill:#FFFFFF;stroke:#BCBEC0;stroke-miterlimit:10;}
	.st30{fill:none;stroke:#BCBEC0;stroke-miterlimit:10;}
	.st31{fill:none;stroke:#BCBEC0;stroke-width:3;stroke-miterlimit:10;}
	.st32{fill:none;stroke:#000000;stroke-width:3;stroke-miterlimit:10;}
	.st33{fill:#177667;stroke:#FFFFFF;stroke-width:0.2;stroke-miterlimit:10;}
	.st34{fill:#E6E7E8;stroke:#FFFFFF;stroke-width:0.2;stroke-miterlimit:10;}
	.st35{fill:#5F9FA7;stroke:#FFFFFF;stroke-width:0.2;stroke-miterlimit:10;}
	.st36{fill:#CA774D;stroke:#FFFFFF;stroke-width:0.2;stroke-miterlimit:10;}
	.st37{fill:#F05839;stroke:#FFFFFF;stroke-width:0.2;stroke-miterlimit:10;}
	.st38{fill:#FBDAB5;stroke:#FFFFFF;stroke-width:0.2;stroke-miterlimit:10;}
	.st39{fill:#F6D6B4;stroke:#FFFFFF;stroke-width:0.2;stroke-miterlimit:10;}
	.st40{fill:#77988F;}
	.st41{fill:#CD7C5B;stroke:#FFFFFF;stroke-width:0.2;stroke-miterlimit:10;}
	.st42{fill:#ED552F;}
	.st43{fill:#3692B7;stroke:#FFFFFF;stroke-width:0.2;stroke-miterlimit:10;}
	.st44{fill:#2C2440;stroke:#FFFFFF;stroke-width:0.2;stroke-miterlimit:10;}
	.st45{stroke:#FFFFFF;stroke-width:0.2;stroke-miterlimit:10;}
	.st46{fill:#FFFFFF;stroke:#FFFFFF;stroke-width:0.2;stroke-miterlimit:10;}
	.st47{fill:#F47C48;}
	.st48{fill:#FEE6D6;}
</style>
<polygon class="st0" points="0,179.4 0,-1.5 792,-1.5 792,107.1 "/>
<polygon class="st1" points="1.4,255.1 1.4,612 792,612 792,105.8 14.8,176 "/>
<g>
	<path class="st2" d="M316.7,527.5c9.7,1.2,8.8,1,16.9,2.3c7.3,1.1,22.4,4.6,29,0.6c3.4-2.1,7.8-7.3,7.3-11
		c-0.7-5.1-5.2-4.4-10.5-6.3c-7.8-2.8-18-7.2-26.2-8.7c-10.5-1.9-23.4-1.5-34.4,0.9c-3.5,3.8-1.7,7.3-1.4,11.6
		c1.3,4.7-2.3,4.3,9.4,8.3c3.3,1.2,3.8,1.3,6.9,1.6C314.2,526.7,315.4,527.3,316.7,527.5z"/>
	<path class="st3" d="M356.4,433.9c-19.7-2.4-25.9,21-26.5,36.7c-0.6,16-11.2,36.3,8.4,44.5c8.9,3.7,21.5,2.4,31.3,1.8
		c0.5-12.1,0.1-24.4,0.5-36.4c0.3-12.3-1.4-20.1-5.9-30.5C362.2,445.1,359.8,438,356.4,433.9z"/>
	<path class="st4" d="M338.2,403c-4.5-1-4.6-6.7-10.7-5.4c-5.6,1.2-6,5.4-3.2,9.4c2.6,3.6,5.5,4.6,9.4,6.3c1.8,0.8,4.2,1.4,5.9,2.6
		c1.8,1.3,2.3,3,3.9,4.3c4.3-9.7,9,8.5,12.4,10.1c-0.2-7.9,6.6-13.5,2.7-21.4c-2.1-4.3-4.5-6.4-9.7-6.4
		C345.1,402.5,338.9,403.5,338.2,403z"/>
	<path class="st5" d="M330.1,411.7c-1.7,4.4-4,5.5-7.6,8.1c7.1-0.7,6.2,7.5,6.6,12.8c3.9,1.8,7.6,2.1,11.6,3.3
		c3.4,1,11.7,3.1,14.4,0.5c4.2-4-1.5-9.7-3.4-13.8c-0.8-1.8-1.1-4.7-2.9-5.5c-3.7-1.7-2.3,2.4-5.1,1.9c-0.8-0.1-4.3-4.9-5.4-5.7
		C336.2,411.9,333.2,411.1,330.1,411.7z"/>
	<path class="st5" d="M343,469.8c3.9,2.4,10,1.7,14.2,3.2c-3.6,9.5-3,26.6-14.7,30.4c-5.8,1.9-14.2,1.8-20.2,2.1
		c-6.5,0.4-10.6-2.3-17-1.7c-0.6,3.1-4.1,4.5-7.2,4.5c-1.4-7,2.4-9.1,8.5-11.7c4.9-2.1,10.9-2.1,16.3-2.9c7.7-1.2,10.1,0,13.7-6.7
		c2.9-5.3,2.5-10.3,4.6-15.7C342,471.2,344.3,471.3,343,469.8z"/>
</g>
<g>
	<path class="st6" d="M136.6,482.6c0-3.7,0.6-7.4,0.1-11c-0.8-5.4-2.5-10.9-4.3-15.8c-2-5.4-2.5-11.8-5.6-16.7
		c-1.5-2.5-5-4.3-6.4-6.7c-1.6,3.2,2.4,8.4,3.5,11.4c1.1,3.2,2.2,5.8,3,9c0.9,3.6,2.8,6.2,3.2,10.1c0.4,4,0.9,7.4,1.7,11.2
		c0.7,3.7,1.2,7.6,1.4,11.2C135.4,486.1,137.7,484.2,136.6,482.6z"/>
	<path class="st7" d="M93.3,514.5c0,11.7,7.5,22.6,18,28.2c-0.3-0.2-0.5-0.4-0.7-0.6c3,1.8,5.2,2.7,7.5,3.7c2,0.9,4.8,1.7,7,2.3
		c4.6,1.4,9.5,1.9,14.4,2.1c15.2,0.9,32.1,2.6,47.5,0.4c12.4-1.8,26.2-0.2,38.2-3.4c3.7-1,5.5-2.2,5.8-5.9c0.2-2.6,0.9-6.2-0.1-8.5
		c-1.5-3.4-3.7-3.2-6.8-3.5c-4.6-0.4-9.3-2.2-14-3.1c-5.5-1.1-12-1.4-17.3-3.3c-4.4-1.6-8.8-3.9-13.6-4.6
		c-8.4-1.3-17.9-1.8-25.9-4.5c-0.1,0.1,0-1,0-0.9c1.8-0.2,2.7-3.2,3.2-4.5c1.1-2.4,3.7-6.3,4-9c3-0.3,8.2,3.7,9.9,5.9
		c2.1,2.9,3.5,7,5.8,10c3.7,4.8,12,8.4,18.2,8.1c1.6-5.4-3.3-13.6-5-19c-1.7-5.5-3.6-10.4-5.8-15.7c-4.1-9.7-9.8-24-20.7-28.2
		c-6.3-2.4-11.2,3.5-15.1,7.6c-3.7,3.9-9.4,8.1-10.9,12.9c-0.6,2-3.4,5.2-4,7.6c-0.7,2.7,2.6,6.1,2.2,8.9c-0.7,4.7-3.8,7.5-8.4,9.4
		c-5.9,2.4-14,6.2-20.3,7.8C103.8,515.3,94.4,517.9,93.3,514.5z"/>
	<path class="st8" d="M96.4,435.2c4.7,2.3,7.2,0.1,11.2-1.3c1.8-0.6,4.7-0.4,6.6-0.8c2.4-0.4,3.9-0.8,6.3-0.8
		c0.8,3.2,0.1,5.3,2.1,8.6c1.8,3,2.7,5.4,3.5,8.6c0.8,3,2.2,6.2,3.3,9.1c1.1,3.1,0.5,5.1,1.1,8.1c1.1,5.4,3.2,10.5,3.3,16.2
		c0,5.8,2.1,11.9,0.2,17.6c-1.8,5.3-6.1,6.9-11.1,9c-5.1,2.1-11.2,4.7-17,6.2c-3.6,0.9-8.3,2.9-12.1,1.1c-2.8-1.3-3.9-5-5.5-7.4
		c-1.7-2.5-4.2-5.9-3.6-9.2c0.5-2.7,2.7-2.8,3.3-6.1c0.6-3.8,0.5-7.5,1.6-11.4c0.9-3.3,2-5.9,2.7-9.3c1.2-6-1.8-11.5-1.2-17.6
		c0.4-4.2,1.4-8.4,2.3-12.7c0.4,0.1,1.1-0.1,1.5-0.1C95.5,441.5,94.9,436.7,96.4,435.2z"/>
	<path class="st6" d="M97.8,438.1c5.1-0.1,9.1-4.8,12.6-4.8c-5.5,1.3-8.4-2.3-7.6-7.5c2.4-1.6,5.2-3.3,8.1-3.7
		c0.3-1,0.7-3.6,0.7-4.5c-0.8-0.1-1.5-0.7-2.3-0.8c0.1-1.4,0.4-1.4,1.4-2.3c3.2-0.6,1.5-1.9,3.7-3.8c-0.6-0.2-1.3,0.1-1.9-0.2
		c-2.9-4.7-5.4-6.2-6.3-11.7c-3.6,4.4-7.9,10.3-10,15.4c-2.2,5.5-1,15.6,0.3,22C98.8,435.5,97,436.9,97.8,438.1z"/>
	<path class="st9" d="M108.9,421.7c2.2,4.9,6.9,5.8,9.6,10.6c-4.6,0.7-18.1,5.8-15.7-6.5c2.5-2.2,5.9-2.6,8.8-1
		c-0.2,1.7,0.5,2,0.8,2.8"/>
	<path class="st6" d="M97.9,444.8c-5-5.7-7.1,10.4-7.1,12.9c0,3.9,2.9,9.1,5.1,12.2c2.2,3.1,5,5.6,7.2,8.7
		c3.6,5.1,7.9,9.6,12.7,13.5c6.4,5.3,14.3,5.3,22.5,5.3c7.6,0,15-1,21.8-3.7c3.8-1.5,6.6-3.7,9.8-5.9c1-0.7,10.6-5.1,10.7-6.5
		c0.5-4.9-20.3,0.7-22.3,1c-4.6,0.7-8.1,0.4-12.3,1.9c-4.5,1.6-9.8,1.1-14.7,1.3c-4.1,0.2-7.3,1.6-9.4-2.3c-1.5-2.8-3.2-5.9-4.6-8.8
		c-4.1-8.4-10.1-16.1-14.9-24C101.5,449,97.8,446.3,97.9,444.8z"/>
	<path class="st6" d="M182.4,485.6c-2.3,1.2-2.9,5.1,1,4.1c0.1-0.9,0.2-2.1,0.1-3"/>
	<path class="st9" d="M107.5,393.1c-6.6-0.3-19.2,3.3-24.2,7.1c-8.7,6.5-4.6,14-7.6,22.7c-1.1,3.2-4.4,5.1-5.4,8.4
		c-1.2,3.9-0.2,9.6-0.2,13.7c0,9.8-5.3,13.5-6.2,22.8c-0.4,4.7,0,9.2,0.1,13.7c0.1,4.2-1.8,8.2-1.5,12.6
		c0.6,10.9,10.9,10.6,18.7,7.3c11.9-5,6-9.9,8.9-20.3c1.3-4.7,4.4-6.6,4.2-12.6c-0.2-5.3-2.6-8.8-2.8-14c-0.2-7.2,4.5-9,4.8-15.8
		c0.3-5.3-1.9-11.1-0.7-16.6c1-4.5,3.4-12.8,6-17.6C103.8,400.9,109.4,397.3,107.5,393.1z"/>
	<path class="st6" d="M248.3,530.4c-1.2,12.7-10.9,13.5-19.2,14.9c1.1-2.7,2.6-9.5,1.6-12.5C234.5,532.6,245.1,533.7,248.3,530.4z"
		/>
	<path class="st8" d="M237.8,542.4c0.8-0.2,1.9,0,2.6,0.1c-1,8,8.9-0.1,10.9-1.6c3-2.3,10-4.7,9.2-10.7c-4.2-0.3-8.6-0.3-12.8,0
		C248.1,534.1,242.4,544.1,237.8,542.4z"/>
	<ellipse class="st6" cx="238.8" cy="542.1" rx="1.7" ry="0.9"/>
</g>
<g>
	<path class="st10" d="M403,527.6c-1,5.7,2.7,7.5-1,15.9c-2.9,6.4-10.9,11.2-15.8,15.5c-2,1.7-8.5,4.7-9.6,7.2
		c-2.3,5.1,4.1,5,7.8,5.6c9.2,1.5,22.1-1.9,31.6-0.4c4.6,0.7,5.4,0.9,3.8,6.7c-1.4,5,1.4,5.3-3.1,5.7c-9.8,0.9-26.4,1-36,1.5
		c-9.3,0.5-19.4,2.7-28.2,1c-7-1.3-18.2,1.2-19.3-8.4c-0.9-8,7.8-19.5,11.8-25.4c4.6-6.9,7.3-16.2,14.5-21.4
		c9.7-7,25.7-5.7,37.9-4.7C399.6,526.3,401.9,525.4,403,527.6z"/>
	<path class="st11" d="M394.6,466.6c-6.3,0-11.7,1.5-17.6,2.3c0,1-0.4,4.2-0.6,5.2c-4.2,1.4-8.4,6.5-10.2,10.3
		c-3.5,7.6-2.3,14.1-2.3,22.3c0,5.3-1.4,15.8-0.1,20.8c1.4,5.3,12.8,2.3,17.3,1.8c3.9-0.4,7.9,0.4,11.8,0c3.1-0.3,7.1-1.2,10.2-2
		c0.5-10.3,1.1-20.5,0.6-30.8c-0.4-8.1,0.2-15.4-4.4-22C397.5,472.1,396.1,468.7,394.6,466.6z"/>
	<path class="st12" d="M392.1,455.9c0,3.1,3.3,9.9,0.2,11.8c-1.8,1.1-6.4,0.2-8.5,0.6c-2.2,0.4-4.1,1.1-6.3,1.1c0.6-1.6,1-4.2,0.8-6
		c-2.3-1.9-4.9-0.5-7.9-0.6c-1.3-2.6-2.9-6.1-6.3-5.8c2.1-2.1,0.3-5.9,0.5-8.5c0.2-3.1,2.3-4.7,5-5.5c3.1-1,7.2-1.1,10.5-0.5
		c3.7,0.6,5.5,2.6,8.1,5.1C390.2,449.6,391.6,452.4,392.1,455.9z"/>
	<path class="st13" d="M386.8,433.2c2.3-9.5,14.2-9.2,22.5-8.6c4.1,0.3,7.8,3.5,9.4,7.5c1,2.5,0.7,5.5,0.7,8.2
		c0,2.4-1.2,4.4-1.1,6.5c0.2,2.8,3.1,3.6,4.2,5.8c1.2,2.3,1.5,5.4,1.6,8c0.1,4.9-2.9,7.9-8,7.7c-6.5-0.2-3.8-6.1-5.6-10.3
		c-1-2.4-2.6-4.2-5.1-4.8c-2.1-0.6-5,0-5.7-2.9c-0.6-2.4,1.9-3.9,2.5-6.1c0.7-2.4,0.6-5.8-0.8-7.9c-1.1-1.6-3.4-2.8-5.3-3.1
		c-2.7-0.5-4,0.6-6.4,0.9C388.8,434.2,388.1,434.4,386.8,433.2z"/>
	<path class="st13" d="M388.5,434c-2.8,0-5.5-0.7-8.3-0.3c-2.1,0.3-4,1.6-6.1,2.4c-4.7,1.7-9.7,0.5-14.3,2.7
		c-0.4,5.1,3.4,7.6,7.7,8.2c3.7,0.6,11-4.6,11.1,1.9c3.4,0.7,4.5-2.8,7.7-0.1c2,1.7,2.3,4.4,3.4,6.7c4.2,0.7,4.7-8.5,4.2-11
		C393.4,442.1,391.3,433.4,388.5,434z"/>
	<path class="st12" d="M391.7,480.6c-3.2-6.5-12.7,5.2-14.6,8.2c-4.5,6.9-7.3,15.2-11.1,22.6c-2.5,4.8-6.1,9.2-10.4,12.4
		c-4.4,3.2-9.5,4.8-14.3,7.5c-3.8,2.2-7,3.9-11.4,4.3c-3.1,0.3-10.1-1.8-8.8,3.4c3.2,2.9,4.8,3.5,8.7,1.8c3.3-1.5,5.4-2.4,9.5-3.2
		c6.1-1.2,13.6-3.3,19.2-6.1c13.9-6.9,22.4-19.5,30-32.5C390.1,495.9,396.7,479.2,391.7,480.6z"/>
	<path class="st12" d="M419.3,582.2c4.2,0,8.4,0,12.6,0c3.4,0,9.3,1.5,12.2,0c1.6-0.8,3-2.2,1.9-4.1c-1.1-1.8-3.3-0.8-5.2-1
		c-3.8-0.4-5.4-2.6-8.6-3.7c-2.9-1-9.2,0.4-12,1.6C420.2,577.4,419.6,579.5,419.3,582.2z"/>
</g>
<g>
	<path class="st14" d="M324.5,587.3h-30.3c-4.2,0-7.6-3.4-7.6-7.6v-20.9c0-4.2,3.4-7.6,7.6-7.6h30.3c4.2,0,7.6,3.4,7.6,7.6v20.9
		C332,583.9,328.6,587.3,324.5,587.3z"/>
	<line class="st15" x1="293.7" y1="551.8" x2="293.7" y2="586.5"/>
	<line class="st15" x1="304" y1="551.8" x2="304" y2="586.5"/>
	<line class="st15" x1="314.3" y1="551.8" x2="314.3" y2="586.5"/>
	<line class="st15" x1="324.6" y1="551.8" x2="324.6" y2="586.5"/>
	<line class="st15" x1="287.7" y1="556.7" x2="331.2" y2="556.7"/>
	<line class="st15" x1="287.7" y1="553.6" x2="331.2" y2="553.6"/>
	<line class="st15" x1="287.7" y1="559.8" x2="331.2" y2="559.8"/>
	<line class="st15" x1="287.7" y1="562.9" x2="331.2" y2="562.9"/>
	<line class="st15" x1="287.7" y1="566" x2="331.2" y2="566"/>
	<line class="st15" x1="287.7" y1="569.1" x2="331.2" y2="569.1"/>
	<line class="st15" x1="287.7" y1="572.1" x2="331.2" y2="572.1"/>
	<line class="st15" x1="287.7" y1="575.2" x2="331.2" y2="575.2"/>
	<line class="st15" x1="287.7" y1="578.3" x2="331.2" y2="578.3"/>
	<line class="st15" x1="287.7" y1="581.4" x2="331.2" y2="581.4"/>
	<line class="st15" x1="287.7" y1="584.5" x2="331.2" y2="584.5"/>
	<path class="st16" d="M331.9,552.3l-1.4,1.3c-0.4,0.4-1.1,0.4-1.5-0.1l-29.4-31.8c-0.4-0.4-0.4-1.1,0.1-1.5l1.4-1.3
		c0.4-0.4,1.1-0.4,1.5,0.1l29.4,31.8C332.3,551.3,332.3,552,331.9,552.3z"/>
</g>
<g>
	<path class="st17" d="M722.8,364.3c0,2.7,0,5.4-0.1,8c-2.6,1.5-17.6,9.2-14.9-0.4c4.7-1.6,8.4-5,13.2-6.5"/>
	<path class="st17" d="M773.3,345.2c0.7-0.6,0.4-1.4,1.6-1.1c1.2,6.3-4.2,10.6-5.4,16.1c-3.5-0.4-2.7-9.4-2.6-12.6
		c2.5-0.3,4.2-2.4,5.7-3.6"/>
	<path class="st18" d="M707.7,272.1c0,12.6-4.4,25.6-6.4,38c-0.7,4.5-2.1,9.3-1.7,15.1c0.3,5.9,3.1,11.5,4.8,17
		c2,6.4,3.2,22.5,8.6,26.4c14.5,10.7,9-18.9,8.4-23.1c-1-7.3-8.1-27.7-0.3-32.1c4.8,6.6,7.8,13,14.7,18.4c5.3,4.2,11.3,8.1,17.4,11
		c3.5,1.7,18.9,11.4,20.2,3.6c0.9-5.2-12.6-12.7-16.1-15.8c-2.9-2.5-18.3-15.1-18-17.2c5.1-3,7.7-15,9.5-20.4
		c2.1-6.4,4.5-14.1,4-21.1c-1.2-0.5,0.1-4-0.6-4.4c-8.7-2.3-16,4-24.6,3.4C720.3,270.5,713,267.7,707.7,272.1z"/>
	<path class="st19" d="M671.1,209.5c0.1-0.7,0.3-1.2,0.3-1.9c-2.4-2.7-4.9-10.5-9.2-10.4c-2.7,3.6-0.4,5.6,1.1,8.9
		c0.4,0.8,4.5,11.6,6,4.1c0.8,0.3,1.1,0.1,1.6-0.2"/>
	<path class="st20" d="M717.3,187.8c-0.1,2.8,1,7.2,2.5,9.7c-4.7-0.2-9.1,2-14,0.6c0.1-1.5-0.7-5.5-2-6.4c-1.9-1.3-6.1-0.1-8.4-0.2
		c-0.9-1.7-1.1-2.9-1.2-5c-5.7,0.7-1.8-3.2-1.5-5.7c0.4-3.3-0.4-5.5,3.9-6.6c3.7-0.9,7.4,0.6,10.3,1.2c3.7,0.7,5.8,0.7,7.7,4
		C715.3,181.1,717.5,186.7,717.3,187.8z"/>
	<path class="st9" d="M716.9,188.5c-3.8-3-3.4-9.7-7.9-11.4c-6-2.3-15.9,1.7-20.3-4.4c-9-12.7,23.4-6.4,32.3-4.1
		C725.9,169.8,723.2,185.3,716.9,188.5z"/>
	<g>
		<path class="st21" d="M721,196.3c7.3,4.3,17.6,8.1,23.2,14.9c6.8,8.3,7.6,20.7,7.8,31.4c0.3,10.8,0.1,17.8-11.6,20.3
			c-5.2,1.1-10.2,2.5-15.5,4c-3.9,1.1-12.4,5.2-12.4-1.1c-0.1-7.2,21.5-11,27.6-11.9c0.6-6.3-5.2-20.8-7.8-25.4
			c0,6.3,4.2,19.2,7.3,24.7c2.9,5,9,0.8,10.3,5.2c1.1,3.8,2.3,7.3,2.4,12.1c-8.6,4.3-21.9,0.5-31.9,1c-6,0.3-9.3,2.2-12.4-3.4
			c-2.8-5.1-4.1-13.4-4.6-19.1c0.2-0.1-1.6,0-1.5,0c-0.2,2-1.5,3.7-3,4.9c-6.2,2.1-8.2-0.9-13.4-2.8c-2-8.2-8.2-16.3-11.8-23.6
			c-2.6-5.2-8.8-13.8-7.9-19.7c7.9-3.3,8.7,5,12.6,10.4c5.1,7,8.4,14.8,14.5,21c0.4-5.8-0.9-10.7,0.5-16.6
			c1.5-5.9,2.9-12.5,5.3-17.6c2.8-6,3.1-7.1,9.4-6.8c5.3,0.2,8.6-1.7,13.5-2.8C720.8,195.2,720,195.2,721,196.3z"/>
		<path class="st22" d="M739.1,253.4c-9.2,1-14.9,6.1-23.7,8.5"/>
	</g>
	<path class="st20" d="M711.4,265.2c0.2,1.8,0,3.8-0.1,5.6c-1.1,0.3-3.3,0.3-4.3,0c-1.2-4.7,2.3-6.9,6-7.8c0.4,2.8-2.1,5.5-1,6.7"/>
</g>
<g>
	<path class="st17" d="M412.9,390.4c0,2.7,0,5.4,0.1,8.1c2.6,1.5,17.7,9.3,15-0.4c-4.8-1.6-8.4-5.1-13.4-6.5"/>
	<path class="st17" d="M362.3,372.6c-0.7-0.6-0.5-1.4-1.7-1.1c-1.2,6.4,4.2,10.7,5.4,16.2c3.6-0.4,2.7-9.4,2.6-12.7
		c-2.5-0.3-4.2-2.4-5.8-3.6"/>
	<path class="st23" d="M423.4,295c0,12.7,8.5,29.3,10.5,41.8c0.7,4.5,2.1,9.4,1.8,15.2c-0.3,6-3.1,11.6-4.8,17.1
		c-2,6.5-3.3,22.7-8.6,26.6c-14.7,10.8-9.1-19-8.5-23.3c1-7.3,8.2-27.9,0.3-32.4c-4.9,6.7-7.8,13.1-14.8,18.6
		c-5.4,4.2-11.4,8.1-17.6,11.1c-3.5,1.7-19.1,11.5-20.4,3.7c-0.9-5.2,12.7-12.9,16.3-16c2.9-2.5,18.5-15.2,18.2-17.3
		c-5.1-3.1-7.7-15.1-9.6-20.6c-2.1-6.4-3-13.9-2.5-20.9c1.2-0.5-1.6-4.4-0.9-4.9c8.8-2.3,16.2,4,24.8,3.5
		C414.7,296.7,418.1,290.5,423.4,295z"/>
	<path class="st24" d="M395.1,206.1c0,2.6,0.3,7.6,0.5,10.2c2.1,0.2,8.1-2.3,9.7-3.5c2.8-2,1.7-5.7,1.9-9c4.7,0.2,5.9-4.6,5.6-8.3
		c0.8,0,1.5-0.5,2.1-0.5c-3.9-3-5.1-10.2-11.4-7.7C394.7,190.7,397.6,200.6,395.1,206.1z"/>
	<path class="st25" d="M402.5,191.8c1.4-3,8.2-4.9,8.3-8.3c0.3-5.6-9-3-11.9-2.2c-4.5,1.2-8.1,2.7-9.4,7.5c-0.9,3.4-1.4,11,0.2,14.1
		c0.9,1.7,3.1,4.1,5.3,3.3c2.8-1,1.8-5,1.9-7.4c1.4,0,3-0.2,4.5-0.1c0.5-2.4,1.7-4.7,1.5-7.3"/>
	<path class="st24" d="M481.2,220.4c3.7,0,6.9-0.5,10.6-0.4c1,5.1-3.9,7.2-8.2,7.3c-0.6-2.6-1-4.8-2.8-6.9"/>
	<path class="st26" d="M407.2,212.1c-3.9-0.6-11.4,2-14.4,4.4c-5.4,4.3-9.2,11.5-11.5,17.8c-5,13.4-4.4,28.4-1.8,42.4
		c1.4,7.4,2.6,14.8,4.2,21.9c5.9-0.2,11.6,1.9,17.8,1.9c5.7,0,11.8,0.9,16.9-1.9c5.7-3.1,4.2-8.1,4.2-14.5c0-6.5-0.1-12.9,0.8-19.2
		c0.7-4.5,1.2-9,2-13.5c0.7-3.9,2.7-7.7,2.8-11.5c10.1-0.5,20.4-1.3,30-3.2c9.2-1.9,17-7.8,25.8-9.9c0.1-4.9-0.5-7.1-5.2-6.9
		c-6.1,0.3-12.6,3.2-18.8,4c-6.7,0.9-13.1,1.3-18.9-1.5c-5.8-2.8-10.7-5.4-17.2-7.3C419.5,214,411.9,212,407.2,212.1z"/>
</g>
<ellipse class="st8" cx="529.8" cy="219.9" rx="19.5" ry="7"/>
<path class="st27" d="M503.5,470.4c-1.1-6.4,0-14.2,2-18.7c1.2,2.6,6,10.5,6.1,10.9c0-8.7,0-17.4-0.1-26.2
	c1.7,7.7,7.9,15.9,14.4,19.7"/>
<path class="st27" d="M593.3,192.8c0.7,1.6,3.7,5.4,9.9,5.8c0.5-5.4,2.5-10.4,2.3-15.4c0.2,7.9,3.3,10.9,7.8,15.5
	c-1.1,0.5,2.8-4.6,2.4-4.2c1.1,2.4,4,4.7,6.1,6.6c1.6-1.5,3.8-2.7,6.1-2.2"/>
<path class="st27" d="M126.8,369.7c-0.6-4.7,0-9.9,0-14.6c0,0,4.5,6.6,6,9.7c5.4-6.5,6.8-23.9,6.2-30.1c-1.1,8.5-0.8,17.3,4.1,24
	c0.8-0.9,3-4.4,4-5.6c0.4,0.6,3.9,5.8,4.6,6.2c0.1-0.1,3.9-5.5,3.9-5.6c-0.4,0,6.2-0.7,5.4,0c1.3,3.9,3.8,8,4.4,11.9"/>
<path class="st27" d="M654.6,535.7c-0.4-8.9,1.4-17.1,1.9-25.9c2.1,7.1,4.6,15.4,10.4,21.1c-0.2-13.9-0.1-27.7-0.1-41.6
	c-0.7,11.4,4.3,26,10.2,30.3c0.1-2.4,0.6-6,0.4-8.3c3.4,2.6,6.1,7.3,7.8,12.1"/>
<g>
	<path class="st28" d="M792,101.4c0,0,0,0.1,0,0.1c0,0,0,0,0,0V101.4z"/>
	<path class="st28" d="M792,101.5c-40.9-19.4-238.4-24.8-238.4-24.8L352,89.3l-52.1,6.4l-70.4,9.8c0,0-84.3,17.3-128.4,22.7
		c-24.9,3-52,6.1-75.9,11c-12.5,2.5-15.1,5.1-25.1,8.3c-0.9,36.3,0.5,72.1,1.4,107.7c9.2-10.8,32.8-17.5,50.3-22.4
		c34.5-9.7,68.9-17.3,105.2-24c32.6-6.1,66.9-11,99.4-17.4c32.4-6.4,65.5-15.4,98.8-19.5c26-3.2,49.8-9.9,75.5-13.2
		c49.7-6.2,97.9-13.5,146.9-22.1c37.1-6.6,73.3-10.5,110.7-16.3c34.9-5.4,68.1-12.6,103.8-14.5C791.9,104.1,791.9,102.7,792,101.5z"
		/>
</g>
<g>
	<g>
		<line class="st29" x1="249.1" y1="107.5" x2="260.1" y2="162.2"/>
		<line class="st30" x1="227.5" y1="141" x2="282.7" y2="129.9"/>
		<line class="st30" x1="230.1" y1="119.5" x2="277.9" y2="150.8"/>
		<line class="st30" x1="270.5" y1="111.6" x2="239.8" y2="158.5"/>
		
			<ellipse transform="matrix(0.9806 -0.1961 0.1961 0.9806 -21.446 52.5531)" class="st31" cx="254.6" cy="134.6" rx="29.1" ry="28.7"/>
		
			<ellipse transform="matrix(0.9806 -0.1961 0.1961 0.9806 -21.3334 52.6035)" class="st32" cx="254.9" cy="134" rx="32.2" ry="31.7"/>
	</g>
	<path class="st33" d="M112.7,113.9c-0.4-6.9-9.5-8.7-13-3.3c-3.8,5.9-6.7,12-9.3,18.5c-1.3,3.2-2,6.4-3.8,9.4
		c2-0.2,3.7-1.1,5.7-1.5c2.7-6.9,2.1-10.8,9.3-12.3c7.4-1.6,12.2-2.6,19-3.9c1-2,1.7-3.6,2.5-4.6c-7.9,0.9-15.8,3.1-23.8,4.7
		c2-2.6,2.2-5.8,4-8.7c1.2-1.9,3.8-1.8,5.2-0.8c1.6,1.2,0.5,4.2,4.1,2.7C112.9,113.3,113,112.3,112.7,113.9z"/>
	<path class="st33" d="M159.4,108.2c0.4-4.1,2.9-8.6,4.7-12.6c5.6-6.3,11.4-2.5,13.3,5.1c-3.3,2.9-4.1-5.5-9.2-2.9
		c-2.8,1.4-4.5,7.4-4.6,10.3c4.3-1.4,7-1.4,11.4-2c4.5-0.6,10.5-1.7,14.9-2.6c-0.8,0.4-1.4,2.1-2.5,4.1c-5.2,1.3-10.6,2.2-15.9,3.3
		c-4.3,0.9-7.6,1.6-10.4,1.8C160,112.5,160,109.9,159.4,108.2z"/>
	<path class="st33" d="M158.7,117c-1.8,0.3-3.5,1.2-5.2,1.6c0.3,0.8,1.6,1.8,2.1,2.7c0.7,1.1,1.3,1.9,2.1,2.9
		c1.8,2.2,3.3,4.5,5.2,6.6c3.7,4,8.2,8.2,11.6,12.6c1.3,1.7,3.5,3,4.5,4.8c-6.6,1.1-11.4,1.5-18.1,2.9c-7.6,1.5-17,4.1-24.6,5.7
		c-3.5,0.7-8.2,2.6-11.7,2.2c0.4,0.8,0.5,1.9,0.9,2.7c8.3-2,17.2-3.2,25.8-4.9c8.1-1.6,16.1-3.2,24-5.2c4-1,9.5-2.2,13.6-2.9
		c-0.9-0.5-2.3-1.1-2.9-1.9c-1,0.1-2.1,0.6-2.9,0.2c-1.2-0.6-3-3.9-4-5.1c-1.8-2.2-3.3-3.5-5-5.8c-1.5-2.1-3.6-3.7-5.2-5.8
		c-1.9-2.4-4.3-4.6-6.3-6.7c-1-1.1-2.2-2.1-3.1-3.2c-0.4-0.6-0.5-0.8-0.8-1.5C158.6,118.6,158.4,117,158.7,117z"/>
	<path class="st34" d="M192.8,99.7c-2.9,1-4.1,6.5-5.5,9c-1.8,3.3-3.6,5.8-5.4,9.4c-3,6.1-7.2,16.9-2.3,23.9
		c2.1,2.9,6.6,4.4,9.2,6.7c2.9,2.5,5.5,5.4,8.1,8.3c2.5,2.8,3.9,7.9,8.5,5.5c4.8-2.5,5-5.3,2.4-9.5c-4.7-7.6-9.4-14.4-15.7-20.6
		c-0.1,0.1,0.1,1,0.1,0.7c0,0-0.4-0.6-0.5-0.6c5.3-0.3,8.5-5.5,12.2-9.2c1.9-1.9,3.3-3.9,4.9-5.9c1.7-2.1,6.2-6,6.3-8.7
		c1.7-1.2,4.3-5,3.8-7.3c-0.2,0-0.6,0.4-0.8,0.4c-0.9-2.9-4.6-0.6-6.5,0c-2.6,0.8-3.9,0.8-6.5,0.3
		C201.4,101.4,196.3,98.6,192.8,99.7z"/>
	<path class="st35" d="M209.7,45.8c-5.1,1.1-9.7-0.9-12.5,4.7c-1.7,3.4-4.2,7.4-5.2,11.3c-1.2,4.8-1.6,9.8-1.6,15.2
		c-0.1,5.3,1,11,1,16.4c0,3-0.1,4.3,2.3,5.9c1.7,1.2,4,1.6,5.9,2.1c5,1.2,8.1,2.2,13.5,1.1c1.8-0.4,6.5-0.5,7.6-2
		c0.9-1.3,0.1-5.7,0.1-7.3c0.1-5.7,0-11.2-0.6-16.9c-0.5-5.7-1.4-11.7-2.5-17.2c-1-4.9-2.4-9-6.1-12.4
		C210.6,45.8,209.9,44.7,209.7,45.8z"/>
	<path class="st36" d="M194.2,33.1c-0.3,2.6-0.1,3-0.6,4.9c0.4-0.1,0.9,1.5,0.9,1.5s1.1-0.2,1.5,0.4c-3.5,0.9,2.5,2.3,3.4,2.5
		c0.8,1.5,0.8,3.5,1.8,4.9c3-0.4,6.1-0.6,8.9-1.3c-0.4-2.6-1.8-12.2-6-10.8c0-1.8-3.2-2.4-4.4-3.5C198.2,31.6,194.2,30.1,194.2,33.1
		z"/>
	<path class="st37" d="M128.9,63.6c2.7-0.5,5.9-0.8,8.4-1.9c1.4,3.4,4.7,3.6,7.6,4.9c3.6,1.7,4.3,5.4,6.3,8.8
		c4,6.7,4.3,14.6,4.7,22.2c0.2,3.4,1.9,8.3,0.6,11.5c-0.8,1.9-2.1,2.1-4.2,2.4c-1.9,0.3-4.1,0.6-6,0.6c-3,0-6.5-1.1-9.5-1.6
		c-2.8-0.5-7.4-1.1-8.6-4c-1.6-3.9-1.1-8.6-2-12.5c-0.9-3.8-3.9-6.5-4.8-10.2c-0.1-0.5-0.2-1.2,0.3-2.2c1.4-2.6,2.2-6.1,3.4-8.9
		C126.3,69.8,127.7,66.7,128.9,63.6z"/>
	<path class="st38" d="M147.1,69.4c0-2.5-2.6-4.5-4.8-4.3c-3.5,0.3-3.3,2.1-4.1,4.6c-1.4,4.1-2.7,9.2-2.6,13.6
		c0.1,2.5,0.6,4.8,0.6,7.3c0.1,3.3-0.3,3.8-3.3,5.3c-4,2.1-8.5,3.3-12.5,5.7c-3.6,2.2-9.9,2.9-12.8,6.1c-5.3,5.9,5.3,1.2,7.9,0.6
		c9.7-2.5,20.2-4.2,27.3-11.2C151,89.2,146.3,76.6,147.1,69.4z"/>
	<path class="st39" d="M126.6,59.8c0.4,0.1,0.8,1.3,1.7,0.9c0.2,1,0.5,2,0.7,3c2.6-0.7,6-1,8.7-1.7c-1.8-5.9,4.4-10.8,2.6-16.3
		c-0.8-2.4-4.8-2.7-7.2-1.2c-2.9,1.8-2.5,5.3-3.3,7.9C129.1,54,128.3,59.9,126.6,59.8z"/>
	<path class="st40" d="M134.7,43.3c-1,0.4-2.1,1.5-1.9,2.6c-0.8,0.2-2.5,1.4-2,2.3c1,0,1.5-0.9,2.3-0.8c0.8,0.1,1.2,0.9,2.2,0.9
		c1.9-0.1,4.2-0.6,3.4-3"/>
	<path class="st41" d="M126.2,60.1c-3.9,0.6-6.4-6.6-6.9-9.6c-0.5-3.3,1.5-7.4,3.4-10.2c3.6-5.4,16.3-11.2,20.7-3.5
		c2.7,4.6,1.5,6.6,1.1,11.1c4-0.5,6.3-2.3,9.6,2c2-0.1,4.2-1.4,6.2-1.9c2.5-0.7,3.9-0.4,6.1-0.1c3.1,0.4,9-2.2,11.9-0.6
		c1.5,6.1-2.4,6.6-7.4,8.8c-0.4,3.5-4.9,6.5-7.9,7.2c-2.1,0.5-3.9-0.2-5.5,0c-2,0.3-3.7,1.8-5.4,2.5c-7.9,3.3-15.4,1.2-15.5-8.6
		c0-2.9,0.9-2.5,2.2-4.4c1.4-2.1,1.3-2.5,0.8-5.3c0.3-0.2,0.6-0.1,0.9-0.3c0.1,0.1-0.1-1-0.2-0.9c-2.4-0.4-2.5-3.5-5.5-2.9
		c-1.8,0.4-3.7,3.1-4.3,4.9C129.4,52,131.6,58.6,126.2,60.1z"/>
	<path class="st42" d="M139.9,48.4c-0.7,0.1-1.3,0.3-2,0.4"/>
	<path class="st43" d="M129.6,107.2c6.7,3,19.9,7.5,26.7,1.8c0.1-0.2,0.1-0.2,0,0c0.2,2.9-1.2,5.7-2.6,8.3c-1.7,3-5.6,5.6-8,7.6
		c-3.1,2.5-5.8,4.5-9,6.3c-1.9,1.1-9.2,4.6-9.9,6.5c-0.6,1.5,5.2,6.6,7.3,8.7c3.6,3.5,4.3,4.8,6.7,9c0-0.5,0.1,0.8-0.1,0.2
		c-1.4,1.6-2.3,3.5-3.7,4.7c-2.7,2.4-3.6,1.3-6.2-0.7c-4.4-3.5-7.6-7.5-11.5-11.5c-3.2-3.3-8.1-7.9-6.5-13.2
		c0.6-2.1,2.7-4.5,3.7-6.6c1-2.2,2.3-4.4,3.6-6.3C123,117.6,126.2,111.6,129.6,107.2z"/>
	<path class="st38" d="M134.7,161.3c2.2,2,3.9,4.3,5,5.8c1.1,1.6,1.4,3.9,1.3,6c3.2-5.1,6-13.6-0.6-17.5c-2.2,1.5-3.4,5.6-6,6"/>
	<path class="st44" d="M142.3,171.7c-1-0.9-1.6-1.3-2.5,0c0.5,1.3,0.4,1.6,0.3,2.9c0.3,0.5,1.3,1,1.8,1.3c2.9-3.6,5.3-10.6,2.3-15.8
		c-1.7,1.9-0.8,9.1-2.6,11.3"/>
	<path class="st45" d="M195.1,31.7c-2.7,1.1-3.8-2.3-3.9-4.4c1.7-1.1,4.5-2.5,7.2-0.7c0.2,0.5,1.4-1.4,1.5-0.8
		c4.4-1.8,5.9-2.3,9.5,1c2.1,1.9,3.2,1.9,2.8,5.2c-0.2,1.7-1.8,4.2-1,6.2c-0.9,0.6-2,0.9-3.1,0.9c-0.8-1.2-1.1-2.4-2-3.5
		c-0.5,0.2-1.4,0.1-2,0.3C204.3,32.8,197.8,31.7,195.1,31.7z"/>
	<path class="st36" d="M196.7,71.3c1.6-0.6,3.9-0.5,5.4-0.2c2.5,0.5,2.2,0.1,1.7,3c-0.6,3.5-2,6.2-4.3,9
		c-4.3,5.2-11.3,8.2-17.5,10.7c-2,0.8-4.4,0.5-6.3,1.3c-1.8,0.7-2.4,2.7-3.9,3.1c-2.4-6.4,6.1-8.8,10.1-11.1
		c4.1-2.2,11.3-3.7,13.1-8.7C195.9,76.4,195.5,69.9,196.7,71.3z"/>
	<path class="st46" d="M203.1,85.4c0.9,0.1,1.8,0.6,2.4,1.3"/>
	<path class="st46" d="M206.8,73.1c0.7,0.9,1.7,1.5,2.7,1.6"/>
	<path class="st46" d="M204.5,63.3c1.1-0.1,2.1,0,3.1,0.3"/>
	<path class="st46" d="M207.3,82.2c1-0.2,1.9-0.4,2.9-0.6"/>
	<path class="st46" d="M195,88.8c0.4-1.2,1.4-2.3,2.4-2.9"/>
	<path class="st46" d="M212.6,98.3c0.5-0.8,1.2-1.3,2.1-1.6"/>
	<path class="st46" d="M208.2,91.5c0.7,0.6,1.7,1.4,2.2,2"/>
	<path class="st46" d="M194.6,67.1c0.7,0.6,1.7,1.4,2.2,2"/>
	<path class="st46" d="M199.4,96.7c0.8-0.3,1.8-0.4,2.4-0.2"/>
	<path class="st46" d="M196.3,63.5c0.2-1,1-1.8,2-2.2"/>
	<path class="st46" d="M203.6,51.4c0.5,1.2,1.2,2.2,2.1,2.9"/>
	<path class="st46" d="M212.6,59.9c0.1-0.6,0.4-1.3,0.9-1.7"/>
	<path class="st46" d="M214.9,85.2c0.2,1.7,0.5,3.3,2,4.1"/>
	<path class="st46" d="M214.4,76.8c-0.1-0.6,0.1-1,0.6-1.3"/>
	<path class="st46" d="M212,69.4c-0.1-0.6,0.1-1,0.6-1.3"/>
	<path class="st35" d="M210.6,157.8c0.4,2.4,2.9,1,2.6,3.7c-0.1,1-2.6,2.9-3.3,3.4c-2.3,1.8-5.4,5-8.7,5.1c-1-2.1,0.7-3.7,2.2-4.8
		C203.3,163.3,213.9,154,210.6,157.8z"/>
	<path class="st33" d="M203.4,146.1c3.6-0.5,7-1.2,10.6-1.8c3.5-0.5,6.9-1.5,10.5-2c6.4-0.9,13-2.3,19.5-3.6
		c3.9-0.8,7.9-1.4,11.7-2.4c0.1-2.1-4.3-5.6-5.6-6.9c-2.3-2.4-4.5-4.8-6.7-7.5c-3.6-4.4-8-8.5-11.9-13.4c-2.2-2.8-4-4.8-6-7.5
		c-0.3,1.7-1.3,2.9-2.8,3.9c7,7.2,14.5,15.5,20.6,23c1.6,2,2.4,3.2,4.2,5.1c-2.6,0.6-4.3,1.1-7.2,1.7c-2.9,0.6-5.9,1.2-8.8,1.8
		c-6.4,1.3-12.8,2.6-19.3,3.9c-3.5,0.7-7.8,1.4-11.2,2.4C202.2,144.4,203.3,145,203.4,146.1z"/>
	<path class="st45" d="M152.8,118.3c2.4-2.3,3.5-6.7,3.7-9.3c1-0.3,1.9-0.3,2.9-0.3c0.5,1.8,1.4,5.4,0.3,6.9c-1.1,1.5-4.4,2.1-6,2.8
		"/>
	<path class="st45" d="M217.7,106.2c2-1.8,2-9.8,6.1-9.5c0.4,2,1.8,2.9,2,4.9c-2.1,2.6-5,6.5-8.5,4.9"/>
	<line class="st29" x1="88.5" y1="142.2" x2="99.5" y2="196.8"/>
	<line class="st30" x1="66.9" y1="175.6" x2="122.1" y2="164.6"/>
	<line class="st30" x1="69.5" y1="154.2" x2="117.3" y2="185.5"/>
	<line class="st30" x1="109.9" y1="146.2" x2="79.2" y2="193.1"/>
	<ellipse transform="matrix(0.9806 -0.1961 0.1961 0.9806 -31.3658 21.732)" class="st31" cx="94" cy="169.2" rx="29.1" ry="28.7"/>
	
		<ellipse transform="matrix(0.9806 -0.1961 0.1961 0.9806 -31.2532 21.7824)" class="st32" cx="94.4" cy="168.7" rx="32.2" ry="31.7"/>
</g>
<path class="st47" d="M477.6,21.8c-7.2-5-18.1-2.6-17,8C461.7,40.6,477.5,30.1,477.6,21.8z"/>
<path class="st48" d="M444.5,38.8h82.7c-0.7-4.4-5.1-4.8-8.1-2.1c0.3-5.3-8.3-7.1-12.2-7c0.8-4.1-4.1-6.1-7.6-5.7
	c-0.7-10.4-24.4-9-23.8,1.9c-4.2-1.4-13.3-0.3-12.3,6.1c-3.5,0.2-8.5-0.4-9,4.3C452,35.7,442.6,36.9,444.5,38.8z"/>
<path class="st48" d="M342,51.6h53.5c-0.5-2.9-3.3-3.1-5.2-1.3c0.2-3.4-5.4-4.6-7.9-4.5c0.5-2.6-2.7-3.9-4.9-3.7
	c-0.4-6.7-15.8-5.8-15.4,1.2c-2.7-0.9-8.6-0.2-7.9,4c-2.3,0.1-5.5-0.2-5.8,2.8C346.9,49.6,340.7,50.4,342,51.6z"/>
<path class="st48" d="M28.1,39h53.5c-0.5-2.9-3.3-3.1-5.2-1.3c0.2-3.4-5.4-4.6-7.9-4.5c0.5-2.6-2.7-3.9-4.9-3.7
	c-0.4-6.7-15.8-5.8-15.4,1.2c-2.7-0.9-8.6-0.2-7.9,4c-2.3,0.1-5.5-0.2-5.8,2.8C32.9,37,26.8,37.8,28.1,39z"/>
<path class="st48" d="M677.3,61.2h37.5c-0.3-2-2.3-2.2-3.7-0.9c0.1-2.4-3.8-3.2-5.5-3.2c0.3-1.8-1.9-2.8-3.4-2.6
	c-0.3-4.7-11.1-4.1-10.8,0.9c-1.9-0.6-6-0.2-5.6,2.8c-1.6,0.1-3.9-0.2-4.1,1.9C680.7,59.8,676.4,60.3,677.3,61.2z"/>
</svg>
