<?xml version="1.0" encoding="utf-8"?>
<!-- Generator: Adobe Illustrator 16.0.0, SVG Export Plug-In . SVG Version: 6.00 Build 0)  -->
<!DOCTYPE svg PUBLIC "-//W3C//DTD SVG 1.1//EN" "http://www.w3.org/Graphics/SVG/1.1/DTD/svg11.dtd">
<svg version="1.1" id="Layer_1" xmlns="http://www.w3.org/2000/svg" xmlns:xlink="http://www.w3.org/1999/xlink" x="0px" y="0px"
	 width="130px" height="178px" viewBox="0 0 130 178" enable-background="new 0 0 130 178" xml:space="preserve">
<g>
	<defs>
		<polyline id="SVGID_1_" points="1436.985,-1988.008 1436.985,611.984 -1163.004,611.984 -1163.004,-1988.008 		"/>
	</defs>
	<clipPath id="SVGID_2_">
		<use xlink:href="#SVGID_1_"  overflow="visible"/>
	</clipPath>
	<g clip-path="url(#SVGID_2_)">
		<path fill="#FFFFFF" d="M-1042.852-1900.648"/>
	</g>
	<g clip-path="url(#SVGID_2_)">
		<defs>
			<line id="SVGID_3_" x1="324.196" y1="-1857.628" x2="-208.075" y2="-1857.628"/>
		</defs>
		<clipPath id="SVGID_4_">
			<use xlink:href="#SVGID_3_"  overflow="visible"/>
		</clipPath>
		<g clip-path="url(#SVGID_4_)">
			<defs>
				<line id="SVGID_5_" x1="324.196" y1="-1857.628" x2="-208.075" y2="-1857.628"/>
			</defs>
			<clipPath id="SVGID_6_">
				<use xlink:href="#SVGID_5_"  overflow="visible"/>
			</clipPath>
			<path clip-path="url(#SVGID_6_)" fill="#FFFFFF" d="M238.61-1674.2c0.047-8.891-6.436-16.38-5.463-25.509
				c0.094-0.886-0.943-2.096-1.746-2.84c-3.506-3.246-4.861-7.385-4.133-11.854c1.65-10.104-2.207-17.604-10.053-23.556
				c-1.197-0.907-2.084-2.22-3.264-3.158c-3.529-2.812-5.271-6.37-4.826-10.903c0.344-3.502-1.133-6.238-3.508-8.617
				c-2.941-2.951-5.824-5.966-8.859-8.82c-3.092-2.908-5.426-5.941-6.096-10.479c-0.768-5.215-7.072-9.794-12.729-10.289
				c-6.469-0.566-9.451-3.67-9.766-10.188c-0.117-2.427,0.76-5.389-1.305-7.046c-8.139-6.534-10.764-15.354-11.303-25.221
				c-0.07-1.294-0.545-2.595-0.994-3.835c-2.457-6.819-7.748-10.711-15-10.445c-4.954,0.183-8.814-1.374-12.016-5.091
				c-2.914-3.382-6.693-5.59-11.047-3.686c-5.326,2.329-10.755,2.072-16.17,1.68c-2.889-0.209-6.558,0.25-8.17-3.466
				 M-208.07-1852.474c-0.003-4.413,1.153-5.156,5.296-5.15c95.282,0.131,190.564,0.101,285.845,0.101
				c-2.364,3.844-6.509,4.279-9.804,3.156c-8.555-2.919-17.271-1.198-25.848-2.069c-8.298-0.843-15.46,3.038-21.604,6.714
				c-6.377,3.814-12.301,5.414-19.116,4.713c-6.836-0.703-12.011,1.4-16.492,6.613c-4.493,5.226-11.503,6.914-17.073,10.755
				c-3.137,2.163-7.728,2.281-11.599,3.466c-7.629,2.335-15.347,4.021-22,8.712c-0.265,0.187-0.751,0.024-1.118,0.102
				c-2.962,0.62-5.574,1.888-8.241,3.41c-10.595,6.044-17.848,15.698-26.462,23.869c-2.551,2.418-5.13,4.669-8.825,4.41
				c-3.545-0.249-4.005,1.566-3.961,4.481c0.126,8.334-0.001,16.671,0.076,25.006c0.024,2.522,0.183,5.418-1.631,7.005
				c-5.283,4.622-7.132,11.018-10.04,16.966c-3.092,6.326-7.754,11.794-10.083,18.641c-0.822,2.414-3.569,3.796-3.441,7.221
				c0.376,10.028,0.163,20.077,0.188,30.118c0.005,2.047-0.153,3.963,2.007,5.443 M92.166-1857.522
				c75.771,0,151.542,0.034,227.312-0.102c3.779-0.007,4.713,0.6,4.711,4.596"/>
			<path clip-path="url(#SVGID_6_)" fill="#0D0D0D" d="M-131.995-1668.792c-2.16-1.48-2.003-3.396-2.008-5.443
				c-0.024-10.041,0.188-20.09-0.188-30.118c-0.128-3.425,2.62-4.807,3.44-7.221c2.329-6.848,6.991-12.315,10.083-18.642
				c2.908-5.948,4.757-12.344,10.041-16.966c1.814-1.587,1.654-4.483,1.631-7.005c-0.077-8.335,0.05-16.672-0.076-25.006
				c-0.044-2.915,0.415-4.73,3.96-4.481c3.696,0.259,6.275-1.992,8.825-4.41c8.615-8.171,15.867-17.825,26.462-23.869
				c2.667-1.522,5.28-2.79,8.242-3.41c0.366-0.077,0.853,0.085,1.116-0.102c6.656-4.691,14.371-6.377,22.002-8.712
				c3.871-1.185,8.461-1.303,11.598-3.466c5.57-3.841,12.58-5.529,17.072-10.755c4.482-5.213,9.658-7.316,16.492-6.613
				c6.816,0.701,12.74-0.899,19.117-4.713c6.145-3.676,13.305-7.557,21.603-6.714c8.577,0.871,17.294-0.85,25.849,2.069
				c3.295,1.123,7.439,0.688,9.805-3.156h9.094c1.611,3.716,5.281,3.257,8.171,3.466c5.413,0.392,10.844,0.649,16.169-1.68
				c4.354-1.904,8.133,0.304,11.046,3.686c3.201,3.717,7.063,5.273,12.017,5.091c7.251-0.266,12.542,3.626,15.001,10.445
				c0.447,1.24,0.922,2.541,0.992,3.835c0.539,9.867,3.164,18.687,11.303,25.221c2.064,1.657,1.188,4.619,1.305,7.046
				c0.316,6.518,3.297,9.622,9.766,10.188c5.656,0.495,11.961,5.074,12.729,10.289c0.668,4.538,3.004,7.571,6.096,10.479
				c3.033,2.854,5.916,5.869,8.861,8.819c2.373,2.38,3.852,5.116,3.506,8.618c-0.445,4.533,1.297,8.091,4.826,10.903
				c1.18,0.938,2.066,2.25,3.262,3.158c7.848,5.951,11.705,13.452,10.057,23.555c-0.73,4.47,0.625,8.608,4.131,11.854
				c0.803,0.744,1.84,1.954,1.746,2.84c-0.973,9.129,5.51,16.618,5.463,25.509 M155.503-1658.448
				c-1.182-4.834-1.754-9.75,1.484-14.133c1.109-1.499,1.34-3.095,1.229-4.819c-0.158-2.44-12.605-15.952-15.007-16.332
				c-0.373-0.059-0.775-0.175-1.125-0.094c-10.155,2.35-20.284-2.015-30.396-0.177c-6.371,1.158-12.467,0.996-18.722-0.968
				c-7.196-2.261-13.421-5.793-17.856-11.874c-4.533-6.212-9.012-7.859-15.986-4.547c-3.11,1.477-6.328,2.443-9.557,3.472
				c-16.193,5.16-33.162,4.396-49.777,6.127c-7.932,0.826-14.176,3.343-20.146,8.453c-5.346,4.576-9.039,11.259-16.402,13.422
				c-1.414,0.416-2.055,1.699-1.312,3.203c2.241,4.534,3.155,9.662,6.729,13.615 M94.742-1707.252
				c2.674,0.307,5.703-0.408,7.945-3.109c1.205-1.454,1.732-3.814-0.627-3.828c-3.943-0.025-7.031-2.747-10.82-2.656
				c-2.637,0.064-6.596-1.148-6.861,2.777c-0.236,3.488,2.48,6.012,6.299,6.536C91.791-1707.38,92.924-1707.372,94.742-1707.252"/>
			<path clip-path="url(#SVGID_6_)" fill="#FFFFFF" d="M-31.34-1663.101c-3.576-3.954-4.49-9.081-6.731-13.616
				c-0.743-1.504-0.103-2.786,1.312-3.202c7.365-2.163,11.057-8.846,16.403-13.423c5.97-5.11,12.214-7.626,20.146-8.453
				c16.615-1.73,33.584-0.966,49.777-6.127c3.229-1.028,6.446-1.994,9.557-3.472c6.975-3.311,11.453-1.664,15.986,4.547
				c4.436,6.082,10.659,9.614,17.856,11.874c6.255,1.965,12.351,2.127,18.721,0.969c10.113-1.839,20.242,2.526,30.397,0.177
				c0.35-0.081,0.752,0.035,1.125,0.094c2.402,0.379,14.849,13.892,15.007,16.332c0.111,1.724-0.121,3.32-1.229,4.819
				c-3.238,4.383-2.666,9.298-1.484,14.133"/>
			<path clip-path="url(#SVGID_6_)" fill="#FFFFFF" d="M94.743-1707.252c-1.818-0.12-2.951-0.128-4.065-0.281
				c-3.82-0.523-6.535-3.047-6.3-6.535c0.267-3.926,4.224-2.714,6.862-2.778c3.789-0.09,6.877,2.631,10.82,2.656
				c2.359,0.015,1.832,2.374,0.627,3.828C100.445-1707.66,97.417-1706.945,94.743-1707.252"/>
		</g>
	</g>
	<path clip-path="url(#SVGID_2_)" fill="#FFFFFF" d="M-490.871-292.016"/>
	<g clip-path="url(#SVGID_2_)">
		<path fill="#FFFFFF" d="M0.184,91.077c0-28.935,0.012-57.868-0.037-86.804C0.146,2.951,0.407,2.689,1.731,2.69
			c42.145,0.045,84.289,0.045,126.434,0c1.324-0.001,1.584,0.261,1.583,1.583c-0.042,57.997-0.042,115.996,0,173.993
			c0.001,1.322-0.259,1.584-1.583,1.583c-42.145-0.044-84.289-0.044-126.434,0c-1.324,0.001-1.585-0.261-1.583-1.583
			C0.196,149.203,0.184,120.14,0.184,91.077 M122.679,36.354c0.229-0.032,0.458-0.064,0.687-0.096c0-0.605,0.146-1.256-0.027-1.807
			c-0.542-1.725-1.205-3.412-1.819-5.115c-0.13-0.358-0.187-0.766-0.396-1.066c-1.765-2.538-3.555-5.059-5.341-7.581
			c-0.409-0.576-0.754-1.229-1.266-1.697c-0.835-0.765-1.704-1.845-2.698-2.024c-3.197-0.579-5.757-2.102-8.262-4.1
			c-2.577-2.056-5.424-3.814-8.312-5.421c-1.45-0.807-3.242-1.015-4.894-1.437c-1.089-0.278-2.196-0.565-3.309-0.643
			c-1.011-0.07-2.061,0.044-3.058,0.248c-0.853,0.176-1.653,0.6-2.48,0.905c-0.406,0.149-0.811,0.364-1.23,0.404
			c-2.706,0.254-4.148-1.199-4.631-3.438c-2.448,0.666-4.75,1.761-7.076,1.814c-3.612,0.084-6.442,1.65-9.076,3.688
			c-2.729,2.111-5.248,4.505-7.793,6.847c-1.153,1.062-2.579,2.125-3.119,3.49c-1.192,3.01-1.855,6.225-2.827,9.327
			c-0.357,1.141-0.733,2.428-1.516,3.254c-2.56,2.703-5.163,5.402-8.026,7.771c-3.337,2.761-5.142,7.879-3.894,11.953
			c0.278,0.901,0.078,1.963,0.038,2.948c-0.039,0.91-0.373,1.858-0.199,2.714c0.425,2.108,1.681,4.235,1.477,6.24
			c-0.292,2.854-1.519,5.634-2.486,8.396c-0.605,1.729-2.058,3.352-2.099,5.046c-0.098,4.128-1.477,7.772-3.503,11.149
			c-1.834,3.058-4.207,5.788-6.27,8.715c-1.497,2.127-2.963,4.286-4.241,6.545c-0.326,0.576-0.143,1.75,0.25,2.363
			c1.26,1.959,0.786,3.96-1.415,3.939c-3.667-0.035-6.866,1.182-10.188,2.396c-1.571,0.574-3.111,1.18-2.664,2.824
			c0.292,1.076,1.847,2.321,3.02,2.549c4.23,0.824,8.539,1.247,12.581,1.789c-0.634-0.53-1.599-1.338-2.564-2.147
			c1.077-0.085,1.93,0.159,2.693,0.568c5.114,2.743,8.047,7.229,9.87,12.559c1.222,3.578,3.491,4.767,7.25,3.7
			c4.249-1.206,6.35-0.203,8.289,3.525c0.356,0.686,1.872,1.233,2.744,1.105c3.909-0.57,4.971,0.21,4.888,4.047
			c-0.006,0.257,0.019,0.52-0.017,0.771c-0.208,1.461,0.481,1.804,1.863,1.918c1.739,0.145,3.494,0.557,5.149,1.123
			c1.766,0.605,3.44,1.494,5.126,2.317c1.885,0.919,2.556-0.105,2.992-1.715c1.151-4.254,0.116-7.818-3.198-10.754
			c-4.22-3.738-7.139-8.454-9.425-13.5c-1.346-2.971-2.037-6.244-2.97-9.396c-0.313-1.058-0.464-2.165-0.689-3.251
			c0.229-0.043,0.458-0.088,0.688-0.131c2.077,3.599,4.153,7.198,6.229,10.799c0.225-0.112,0.451-0.226,0.677-0.337
			c-0.315-0.599-0.757-1.167-0.915-1.805c-0.267-1.076-0.354-2.198-0.516-3.301c1.058,0.184,2.298,0.074,3.144,0.599
			c3.644,2.262,7.094,4.842,10.771,7.043c2.257,1.353,4.707,2.576,7.232,3.237c3.177,0.832,6.52,1.03,9.791,1.503
			c-0.008,0.242-0.015,0.484-0.022,0.728h-3.274c0.793,0.729,1.381,1.281,1.981,1.819c0.549,0.495,1.62,1.37,1.593,1.405
			c-1.431,1.847-1.797,3.85-1.129,6.071c0.023,0.076-0.134,0.209-0.211,0.311c-2.011,2.66-4.042,5.305-6.012,7.994
			c-0.313,0.429-0.625,1.168-0.466,1.582c1.489,3.899-1.345,6.888-2.261,10.222c-0.441,1.61-0.183,2.441,0.632,3.557
			c0.38,0.519,0.844,1.286,0.717,1.806c-0.455,1.859,0.101,2.661,2.023,2.889c0.602,0.07,1.185,0.968,1.629,1.592
			c2.196,3.092,4.387,5.943,8.758,6.189c2.225,0.126,5.01,0.614,6.452,2.039c2.73,2.701,5.922,2.341,9.057,2.618
			c1.618,0.143,2.379-0.782,2.295-2.71c-0.18-4.173-0.093-8.277-2.164-12.171c-1.255-2.36-1.312-5.29-3.91-7.019
			c-0.81-0.539-1.057-1.946-1.527-2.971c-1.26-2.745-1.996-5.916-3.852-8.166c-4.459-5.408-6.568-11.723-1.717-17.908
			c0.625-0.799,0.962-1.823,1.708-3.282c-1.288,0.441-1.928,0.817-2.589,0.859c-2.413,0.151-5.21,1.006-7.167,0.099
			c-3.648-1.695-6.803-4.443-10.173-6.741c-1.378-0.939-2.78-1.842-4.171-2.762c-0.298,0.808-0.426,1.691-0.674,1.727
			c-0.911,0.128-2.068,0.306-2.761-0.128c-4.098-2.567-5.576-7.013-7.442-11.104c-0.787-1.723-0.828-3.784-2.913-4.714
			c-0.279-0.124-0.475-0.778-0.456-1.175c0.084-1.775,0.26-3.544,0.443-5.809c0.865,0.826,1.177,1.124,1.267,1.211
			c0.687-1.618,1.455-3.133,1.959-4.731c0.282-0.892,0.265-1.942,0.13-2.885c-0.154-1.06-0.801-2.062-0.873-3.114
			c-0.21-3.044,0.238-5.968,2.077-8.562c0.313-0.441,0.328-1.158,0.331-1.748c0.015-2.815,1.337-4.077,3.679-3.295
			c1.433,0.479,2.779,1.218,4.165,1.841c0.173,1.241,0.621,2.449,1.481,3.15c1.828,1.491,4.505,0.993,5.946,0.229
			c2.565-1.356,5.172-1.815,7.867-2.433c1.474-0.336,2.349-0.503,2.574,1.312c0.056,0.452,0.681,0.819,0.783,1.283
			c0.25,1.129,0.347,2.291,0.476,3.233c-1.909-0.347-3.436-1.116-4.29-0.653c-1.06,0.578-1.704,2.118-2.227,3.369
			c-0.185,0.441,0.52,1.253,1.052,2.405c0.867-3.274,2.425-3.907,4.774-2.766c1.45,0.705,2.854,1.06,3.903-0.899
			c0.815-1.524,2.131-1.698,3.502-0.422c3.093,2.88,3.224,4.81,0.492,8.381c2.979,3.587,0.149,5.189-2.623,6.951
			c1.301,0.262,2.371,0.246,3.441,0.267c1.037,0.02,2.099-0.051,3.102,0.15c0.89,0.18,1.716,0.678,2.665,1.073
			c-2.096,1.172-3.765,2.104-5.434,3.035l0.244,0.464c0.406-0.03,0.813-0.06,1.219-0.091c-1.254,0.983-2.633,1.996-4.038,2.031
			c-4.824,0.121-9.708-0.09-14.13-2.26c-1.933-0.948-3.71-2.469-5.141-4.096c-1.081-1.227-0.231-2.107,1.405-2.023
			c1.003,0.052,2.011,0.01,3.017,0.01c-0.016-0.328-0.031-0.656-0.048-0.983c-2.354,0.181-4.711,0.329-7.052,0.616
			c-0.136,0.017-0.398,1.302-0.145,1.719c0.554,0.913,1.296,1.788,2.15,2.428c2.76,2.063,5.075,4.721,9.065,4.85
			c3.867,0.126,7.729,0.921,11.556,1.622c2.53,0.464,3.396,2.612,2.396,5.008c-0.35,0.838-0.41,1.798-0.564,2.52
			c-0.799,0.28-1.571,0.49-2.263,0.852c-0.118,0.062-0.011,0.849,0.195,1.173c0.667,1.051,1.427,2.043,2.18,3.099
			c0.422-0.142,0.963-0.323,1.967-0.659c-0.74,1.987-1.315,3.532-1.873,5.032c2.125-0.214,3.615-0.955,4.297-3.205
			c0.342-1.127,1.472-2.32,2.555-2.846c1.752-0.849,3.748-1.209,5.659-1.703c2.324-0.601,3.591-2.184,2.945-4.069
			c0.896,0.13,1.723,0.179,2.51,0.38c1.243,0.318,2.106,0.333,1.757-1.377c-0.064-0.312,0.186-0.708,0.343-1.042
			c1.05-2.245,2.115-4.484,3.174-6.725c-0.349,0.036-0.697,0.073-1.045,0.11c-0.253-0.49-0.747-0.994-0.719-1.467
			c0.141-2.384,0.283-4.781,0.692-7.13c0.295-1.693,0.83-3.405,1.588-4.945c0.664-1.349,2.109-2.35,2.628-3.722
			c0.624-1.647,1.225-3.686,0.801-5.28c-1.543-5.806-1.151-11.584-0.41-17.38c0.346-2.712,2.388-5.266,0.594-8.162
			c-0.155-0.248,0.216-0.822,0.507-1.793c0.455,1.054,0.663,1.535,1.066,2.467c0-0.787,0.07-1.11-0.012-1.391
			c-0.595-2.053-0.509-3.914,0.526-5.937c0.577-1.127,0.104-2.791,0.104-4.641c-1.338,0.558-2.097,0.872-3.096,1.288
			C124.207,41.317,123.443,38.836,122.679,36.354 M74.547,89.369c-0.167-0.233-0.335-0.467-0.502-0.7
			c-1.774,1.098-3.548,2.196-5.322,3.296c0.197,0.301,0.394,0.604,0.591,0.905C71.059,91.703,72.802,90.535,74.547,89.369"/>
		<path d="M122.679,36.353c0.764,2.483,1.527,4.965,2.259,7.342c0.999-0.416,1.757-0.73,3.096-1.288c0,1.85,0.474,3.514-0.104,4.641
			c-1.035,2.022-1.121,3.884-0.526,5.937c0.082,0.28,0.012,0.604,0.012,1.391c-0.403-0.932-0.611-1.413-1.066-2.467
			c-0.291,0.971-0.662,1.545-0.507,1.793c1.794,2.896-0.248,5.45-0.594,8.162c-0.741,5.796-1.133,11.574,0.41,17.38
			c0.423,1.595-0.178,3.632-0.801,5.28c-0.52,1.372-1.964,2.373-2.628,3.722c-0.758,1.54-1.293,3.251-1.588,4.945
			c-0.409,2.349-0.551,4.746-0.692,7.13c-0.028,0.473,0.466,0.977,0.719,1.467c0.348-0.037,0.697-0.074,1.045-0.11
			c-1.06,2.24-2.124,4.479-3.174,6.725c-0.157,0.334-0.407,0.729-0.343,1.042c0.349,1.71-0.514,1.695-1.757,1.377
			c-0.787-0.202-1.613-0.25-2.51-0.38c0.646,1.886-0.621,3.469-2.945,4.069c-1.911,0.494-3.907,0.854-5.659,1.704
			c-1.083,0.524-2.212,1.718-2.555,2.845c-0.682,2.25-2.172,2.991-4.297,3.205c0.558-1.5,1.133-3.045,1.873-5.032
			c-1.004,0.336-1.545,0.518-1.967,0.659c-0.753-1.056-1.514-2.048-2.18-3.099c-0.206-0.324-0.312-1.111-0.195-1.173
			c0.692-0.361,1.464-0.571,2.263-0.852c0.154-0.722,0.214-1.682,0.564-2.52c1-2.396,0.134-4.544-2.396-5.008
			c-3.827-0.701-7.688-1.496-11.556-1.622c-3.99-0.129-6.305-2.786-9.065-4.85c-0.854-0.64-1.596-1.515-2.15-2.428
			c-0.253-0.417,0.009-1.702,0.145-1.719c2.34-0.286,4.698-0.436,7.052-0.616c0.017,0.327,0.032,0.656,0.048,0.983
			c-1.005,0-2.013,0.042-3.017-0.01c-1.635-0.084-2.485,0.797-1.405,2.023c1.432,1.627,3.208,3.147,5.141,4.096
			c4.422,2.17,9.306,2.381,14.13,2.26c1.404-0.035,2.784-1.048,4.038-2.031c-0.406,0.031-0.813,0.062-1.219,0.091l-0.244-0.464
			c1.669-0.932,3.338-1.863,5.434-3.035c-0.949-0.396-1.775-0.894-2.665-1.073c-1.003-0.201-2.065-0.132-3.102-0.15
			c-1.07-0.021-2.14-0.005-3.441-0.267c2.772-1.762,5.602-3.364,2.623-6.951c2.732-3.571,2.601-5.501-0.492-8.381
			c-1.371-1.276-2.688-1.103-3.502,0.422c-1.048,1.959-2.453,1.604-3.902,0.899c-2.35-1.142-3.908-0.509-4.775,2.766
			c-0.532-1.152-1.236-1.964-1.052-2.405c0.522-1.251,1.167-2.791,2.227-3.369c0.854-0.465,2.381,0.308,4.29,0.653
			c-0.129-0.94-0.226-2.104-0.476-3.233c-0.103-0.464-0.727-0.831-0.783-1.283c-0.225-1.815-1.1-1.648-2.574-1.312
			c-2.694,0.617-5.301,1.076-7.867,2.434c-1.44,0.763-4.118,1.261-5.946-0.23c-0.861-0.701-1.308-1.909-1.481-3.15
			c-1.386-0.623-2.732-1.361-4.165-1.841c-2.342-0.782-3.664,0.479-3.678,3.295c-0.004,0.59-0.019,1.307-0.332,1.748
			c-1.838,2.594-2.287,5.519-2.077,8.562c0.072,1.053,0.719,2.055,0.873,3.114c0.135,0.942,0.152,1.993-0.13,2.885
			c-0.504,1.599-1.272,3.113-1.959,4.731c-0.09-0.087-0.401-0.385-1.267-1.211c-0.183,2.265-0.359,4.033-0.443,5.809
			c-0.02,0.396,0.176,1.051,0.456,1.175c2.085,0.93,2.126,2.991,2.913,4.714c1.866,4.092,3.344,8.537,7.442,11.104
			c0.693,0.434,1.85,0.256,2.76,0.128c0.249-0.035,0.376-0.919,0.674-1.727c1.391,0.92,2.793,1.822,4.171,2.762
			c3.37,2.298,6.525,5.046,10.173,6.741c1.957,0.907,4.754,0.053,7.167-0.099c0.661-0.042,1.301-0.418,2.589-0.859
			c-0.747,1.459-1.084,2.483-1.709,3.282c-4.851,6.186-2.742,12.5,1.717,17.908c1.855,2.25,2.592,5.421,3.852,8.166
			c0.47,1.024,0.717,2.434,1.527,2.973c2.597,1.727,2.654,4.656,3.909,7.017c2.071,3.894,1.984,7.998,2.164,12.171
			c0.083,1.93-0.678,2.853-2.295,2.71c-3.135-0.277-6.327,0.083-9.057-2.618c-1.442-1.425-4.228-1.913-6.452-2.039
			c-4.371-0.246-6.562-3.098-8.758-6.189c-0.444-0.624-1.027-1.521-1.629-1.592c-1.923-0.228-2.478-1.029-2.023-2.889
			c0.127-0.52-0.337-1.287-0.716-1.806c-0.815-1.115-1.074-1.946-0.632-3.557c0.916-3.334,3.75-6.322,2.261-10.222
			c-0.159-0.414,0.152-1.153,0.466-1.582c1.969-2.689,4.001-5.334,6.012-7.992c0.077-0.104,0.234-0.236,0.211-0.312
			c-0.667-2.222-0.302-4.225,1.129-6.071c0.027-0.035-1.043-0.91-1.593-1.405c-0.6-0.538-1.188-1.09-1.981-1.819h3.274
			c0.007-0.243,0.014-0.485,0.022-0.728c-3.271-0.473-6.614-0.671-9.791-1.503c-2.525-0.661-4.975-1.885-7.232-3.237
			c-3.677-2.201-7.128-4.781-10.771-7.043c-0.846-0.524-2.086-0.415-3.144-0.599c0.163,1.103,0.25,2.225,0.516,3.301
			c0.158,0.638,0.6,1.206,0.915,1.805c-0.226,0.111-0.452,0.225-0.677,0.337c-2.077-3.601-4.153-7.2-6.229-10.799
			c-0.229,0.043-0.458,0.088-0.688,0.131c0.225,1.086,0.376,2.193,0.689,3.251c0.933,3.152,1.624,6.426,2.97,9.396
			c2.287,5.046,5.206,9.762,9.425,13.5c3.314,2.936,4.35,6.499,3.198,10.754c-0.435,1.609-1.106,2.634-2.992,1.715
			c-1.687-0.823-3.36-1.712-5.126-2.317c-1.655-0.566-3.41-0.979-5.149-1.123c-1.382-0.114-2.07-0.457-1.863-1.918
			c0.036-0.252,0.011-0.515,0.017-0.771c0.083-3.837-0.979-4.617-4.888-4.047c-0.872,0.128-2.388-0.42-2.744-1.105
			c-1.938-3.729-4.04-4.731-8.289-3.525c-3.76,1.066-6.028-0.122-7.25-3.7c-1.822-5.329-4.756-9.815-9.87-12.559
			c-0.764-0.409-1.616-0.653-2.693-0.568c0.965,0.81,1.93,1.617,2.564,2.147c-4.042-0.542-8.351-0.965-12.581-1.789
			c-1.173-0.228-2.728-1.474-3.02-2.548c-0.448-1.646,1.092-2.251,2.664-2.825c3.321-1.214,6.521-2.431,10.188-2.396
			c2.201,0.021,2.675-1.98,1.415-3.939c-0.395-0.613-0.576-1.787-0.25-2.363c1.278-2.259,2.745-4.418,4.241-6.545
			c2.062-2.927,4.436-5.657,6.27-8.715c2.026-3.377,3.405-7.021,3.503-11.149c0.042-1.694,1.494-3.317,2.099-5.046
			c0.967-2.762,2.195-5.541,2.486-8.396c0.204-2.005-1.052-4.132-1.477-6.24c-0.174-0.855,0.16-1.804,0.198-2.714
			c0.041-0.985,0.241-2.047-0.036-2.948c-1.25-4.074,0.555-9.192,3.893-11.953c2.863-2.368,5.466-5.067,8.026-7.771
			c0.783-0.826,1.159-2.113,1.516-3.254c0.971-3.103,1.635-6.317,2.827-9.327c0.54-1.365,1.966-2.429,3.119-3.49
			c2.545-2.344,5.064-4.735,7.793-6.847c2.634-2.037,5.464-3.604,9.076-3.688c2.326-0.054,4.628-1.148,7.076-1.814
			c0.482,2.239,1.925,3.692,4.631,3.438c0.419-0.04,0.824-0.255,1.23-0.404c0.827-0.306,1.627-0.729,2.48-0.905
			c0.997-0.204,2.047-0.318,3.058-0.248c1.113,0.077,2.22,0.364,3.309,0.643c1.651,0.422,3.444,0.63,4.894,1.437
			c2.887,1.606,5.734,3.365,8.312,5.421c2.504,1.998,5.065,3.521,8.262,4.1c0.994,0.18,1.863,1.26,2.698,2.024
			c0.512,0.469,0.857,1.121,1.266,1.697c1.786,2.521,3.577,5.043,5.341,7.581c0.209,0.301,0.266,0.708,0.396,1.066
			c0.615,1.703,1.277,3.391,1.819,5.115c0.172,0.551,0.027,1.201,0.027,1.807C123.137,36.289,122.908,36.322,122.679,36.353
			 M62.4,23.6c-1.14,0.505-2.28,1.008-3.742,1.652c-0.233,0.55-0.734,1.729-1.234,2.907c0.098,0.116,0.195,0.233,0.294,0.35
			c1.549-1.648,3.099-3.296,4.65-4.942l7.212-3.537C66.78,20.399,64.377,21.572,62.4,23.6 M121.167,51.786
			c1.005-1.793,0.703-6.85-1.061-8.198c0.414,3.091,0.758,5.664,1.104,8.236c-2.219,1.455-1.245,3.203-0.581,5.084
			C122.856,55.265,121.513,53.484,121.167,51.786 M42.714,83.561c0.126,0.922,0.252,1.841,0.378,2.763
			c0.152-0.016,0.303-0.029,0.455-0.044c-0.483,1.622-0.966,3.247-1.449,4.869c0.308,0.099,0.617,0.195,0.924,0.295
			c-0.005-3.747,3.744-6.144,3.442-10.237c-1.471,0.934-2.629,1.668-3.787,2.401c-0.045-0.926-0.089-1.854-0.134-2.779
			c-0.152-0.107-0.304-0.215-0.456-0.321c-1.635,2.378-3.271,4.755-4.907,7.135c0.097,0.089,0.193,0.18,0.29,0.269
			c0.515-0.368,1.03-0.737,1.544-1.105c0.085,0.077,0.17,0.155,0.255,0.231c-0.619,1.104-1.237,2.209-1.856,3.312
			c0.218,0.139,0.435,0.278,0.653,0.419c0.814-1.31,1.614-2.63,2.449-3.928C41.227,85.733,41.979,84.654,42.714,83.561
			 M99.642,64.705c0.39,0.211,0.46,0.279,0.499,0.266c3.627-1.362,7.277-2.004,11.077-0.605c0.358,0.133,0.987-0.47,1.49-0.73
			c-0.832-1.546-1.392-4.09-2.558-4.407c-1.808-0.491-4.03,0.525-6.071,0.927c-0.596,0.116-1.173,0.314-1.76,0.477
			c-0.115-0.266-0.23-0.531-0.346-0.797c1.703-0.937,3.406-1.874,5.109-2.811l0.111,0.657h2.336
			c-0.488-0.949-0.665-1.678-1.123-2.105c-1.026-0.957-2.089-1.991-3.334-2.561c-0.944-0.432-3.449-3.16-3.35-4.229
			c0.105-1.14,0.024-2.297,0.024-3.445c-0.247-0.096-0.496-0.192-0.743-0.288c0.797-0.222,1.593-0.441,3.292-0.913
			c-1.331-0.867-2.173-1.312-2.885-1.915c-0.539-0.453-1.302-1.118-1.285-1.666c0.055-1.706-0.767-2.088-2.373-1.817
			c-0.126-1.484-0.302-2.866-0.348-4.253c-0.066-2.004-1.987-4.315-3.818-4.245c-1.331,0.053-2.642,0.482-3.974,0.663
			c-0.713,0.097-1.451,0.022-2.177,0.026V28.88c-1.389-0.174-2.88-0.36-4.371-0.545c0.027-0.127,0.055-0.254,0.082-0.38
			c-4.716,1.324-9.432,2.648-14.148,3.973c0.074,0.296,0.147,0.591,0.221,0.886c1.46-0.113,2.921-0.227,4.332-0.338
			c-2.233,3.719-4.282,7.128-6.526,10.861c0.988-0.065,1.828,0.103,2.42-0.205c1.464-0.761,2.735-0.604,3.375,0.835
			c0.31,0.697-0.237,1.776-0.422,2.832c0.57,0.396,1.517,0.914,2.261,1.641c0.281,0.274,0.328,1.312,0.081,1.517
			c-1.639,1.355-3.354,2.626-5.109,3.83c-1.258,0.862-2.617,1.579-3.747,2.252c0.378,0.713,0.765,1.438,0.817,1.538
			c-0.97,0.959-1.764,1.401-1.987,2.042c-0.372,1.068-0.393,2.263-0.527,3.407c-0.053,0.452-0.18,1.202,0.014,1.312
			c0.514,0.292,1.208,0.462,1.783,0.375c0.305-0.045,0.793-0.793,0.719-1.113c-0.481-2.094,1.082-2.38,2.397-2.657
			c1.456-0.309,3.029-0.11,4.457-0.491c2.524-0.673,4.82-0.123,6.975,1.022c3.106,1.648,6.108,3.493,9.406,5.399
			c-0.603,2.182,1.621,1.531,2.876,1.772c0.304,0.058,0.875-1.219,1.303-1.896c0.194-0.307,0.388-0.631,0.498-0.974
			c0.924-2.911,3.818-2.786,6.068-4.106C100.283,62.835,99.968,63.756,99.642,64.705 M42.245,72.354
			c0.329,0.103,1.035,0.356,1.759,0.542c2.797,0.713,5.794,0.276,6.732-3.065c0.891-3.175,2.07-6.529,4.054-9.084
			c4.266-5.49,5.684-11.75,6.473-18.348c0.04-0.33,0.346-0.636,0.555-0.938c0.688-0.99,1.416-1.952,2.076-2.96
			c1.756-2.68,3.51-5.36,5.213-8.071c0.879-1.401,1.65-2.869,2.469-4.306c-0.325-0.227-0.649-0.453-0.974-0.68
			c-1.264,1.58-2.523,3.162-3.794,4.736c-0.398,0.493-0.771,1.031-1.256,1.425c-0.536,0.436-1.331,0.604-1.762,1.105
			c-1.258,1.458-2.392,3.022-3.748,4.771c-0.746-3.188-0.746-3.188-5.029,0.473c1.289,2.812-0.306,4.888-1.622,7.043
			c-0.227-0.062-0.452-0.126-0.678-0.188c0.466-1.392,0.933-2.782,1.399-4.174c-2.181,2.288-4.415,4.421-5.618,7.027
			c-2.303,4.998-3.991,10.274-5.996,15.412c-0.58,1.487-0.86,2.696,1.384,2.93C43.302,68.261,42.77,70.32,42.245,72.354
			 M108.621,90.714c0.719,0.945,1.421,1.651,1.826,2.499c0.192,0.4,0.003,1.302-0.336,1.578c-1.08,0.881-2.274,1.646-3.499,2.321
			c-1.244,0.686-1.544,1.611-1.087,2.876c0.832,2.306,1.891,4.552,1.294,7.14c-0.177,0.773-0.027,1.624-0.027,3.163
			c1.075-1.391,1.596-2.219,2.264-2.901c2.479-2.529,4.339-5.387,4.961-8.93c0.171-0.97,0.1-1.99,0.326-2.944
			c0.541-2.277,1.253-4.513,1.76-6.796c0.156-0.702,0.047-1.583-0.249-2.245c-0.986-2.201-2.112-4.342-4.976-4.33
			c0.122-0.522,0.209-0.893,0.297-1.268c-1.104,0.056-2.626,0.472-2.863,0.09c-1.401-2.265-3.826-2.042-5.85-2.749
			c-0.416-0.146-1.144-0.165-1.356,0.079c-0.229,0.264-0.135,0.949,0.021,1.375c0.398,1.08,1.137,2.078,1.324,3.18
			c0.255,1.501,0.798,3.359-1.678,3.793c-0.203,0.035-0.472,0.638-0.418,0.923c0.051,0.266,0.467,0.496,0.76,0.68
			c1.166,0.731,2.583,1.225,3.466,2.204C105.885,91.896,107.007,92.221,108.621,90.714 M43.697,110.533v2.265
			c3.1-3.055,3.966-8.646,1.918-13.352c-0.367,1.552-0.639,2.696-0.909,3.84c-0.193,0.021-0.386,0.043-0.579,0.065
			c-0.258-0.822-0.517-1.644-0.803-2.552c-0.526-0.105-1.134-0.227-1.817-0.362c0.096,0.856,0.423,1.679,0.21,2.322
			c-0.458,1.387-0.138,1.66,1.278,1.643c0.899-0.01,1.807,0.631,2.127,0.754c-1.66,2.968-3.104,5.548-4.547,8.127
			c0.187,0.129,0.375,0.258,0.562,0.386C41.955,112.668,42.772,111.666,43.697,110.533 M50.893,102.074
			c-0.22-0.001-0.439-0.001-0.658-0.001c-0.101,0.434-0.21,0.866-0.3,1.303c-0.782,3.809,1.186,6.792,3.005,9.797
			c0.263,0.437,0.882,0.656,1.337,0.977c0.005-0.594,0.153-1.229-0.008-1.773c-0.63-2.133-1.354-4.237-2.05-6.351
			C51.783,104.706,51.334,103.392,50.893,102.074 M80.262,67.982c-3.606-0.251-6.735-0.47-9.865-0.688
			c-0.065,0.336-0.131,0.673-0.197,1.008c1.661,0.488,3.299,1.087,4.989,1.435C76.997,70.107,78.969,70.578,80.262,67.982
			 M42.653,94.348c-2.084,1.581-3.917,2.908-2.951,5.698C41.473,99.549,42.904,97.017,42.653,94.348 M107.938,74.191
			c0.083-0.172,0.167-0.344,0.251-0.517c-0.708-0.917-1.291-1.991-2.173-2.687c-0.443-0.348-1.43-0.005-2.171,0.024
			c0.25,0.688,0.302,1.698,0.792,2.001C105.609,73.611,106.823,73.821,107.938,74.191 M81.436,65.089
			c-1.223-0.991-2.102-1.703-3.209-2.601C77.754,65.802,78.182,66.179,81.436,65.089 M78.525,122.998
			c-0.148,0.305-0.296,0.609-0.444,0.914c1.466,0.591,2.933,1.18,4.399,1.771c0.073-0.183,0.147-0.364,0.221-0.545
			C81.309,124.424,79.917,123.712,78.525,122.998 M33.87,107.514c0.273,0.282,0.545,0.563,0.818,0.845
			c1.01-1.128,2.021-2.255,3.031-3.384c-0.159-0.168-0.318-0.336-0.477-0.504C36.119,105.485,34.994,106.499,33.87,107.514"/>
		<path d="M74.547,89.369c-1.745,1.166-3.489,2.334-5.233,3.501c-0.198-0.302-0.395-0.604-0.591-0.905
			c1.774-1.1,3.548-2.198,5.322-3.296C74.212,88.902,74.38,89.136,74.547,89.369"/>
		<path fill="#FFFFFF" d="M99.642,64.705c0.327-0.949,0.642-1.87,1.042-3.035c-2.25,1.32-5.144,1.195-6.068,4.106
			c-0.109,0.343-0.303,0.667-0.498,0.974c-0.428,0.677-0.999,1.953-1.303,1.896c-1.255-0.241-3.479,0.409-2.876-1.772
			c-3.297-1.906-6.3-3.751-9.406-5.399c-2.155-1.144-4.45-1.695-6.975-1.022c-1.427,0.38-3,0.183-4.457,0.491
			c-1.315,0.277-2.878,0.563-2.397,2.657c0.074,0.32-0.414,1.068-0.719,1.113c-0.576,0.087-1.269-0.083-1.783-0.375
			c-0.194-0.11-0.067-0.86-0.014-1.312c0.134-1.145,0.155-2.339,0.527-3.407c0.223-0.641,1.017-1.084,1.987-2.043
			c-0.053-0.1-0.439-0.824-0.817-1.537c1.13-0.673,2.489-1.39,3.747-2.252c1.755-1.204,3.471-2.475,5.109-3.829
			c0.248-0.205,0.2-1.243-0.081-1.518c-0.745-0.727-1.691-1.245-2.261-1.641c0.186-1.056,0.732-2.135,0.422-2.832
			c-0.641-1.439-1.912-1.596-3.375-0.835c-0.593,0.309-1.433,0.14-2.42,0.205c2.244-3.733,4.292-7.143,6.526-10.861
			c-1.411,0.111-2.871,0.225-4.332,0.338c-0.074-0.295-0.147-0.59-0.221-0.887c4.716-1.323,9.432-2.647,14.148-3.972
			c-0.027,0.126-0.055,0.253-0.082,0.38c1.491,0.185,2.981,0.371,4.371,0.545v2.052c0.726-0.004,1.463,0.07,2.177-0.026
			c1.332-0.181,2.643-0.61,3.974-0.662c1.831-0.071,3.752,2.24,3.818,4.244c0.045,1.387,0.221,2.769,0.348,4.253
			c1.606-0.271,2.428,0.11,2.373,1.817c-0.018,0.548,0.746,1.213,1.285,1.668c0.712,0.6,1.554,1.046,2.885,1.913
			c-1.699,0.472-2.495,0.691-3.292,0.913c0.248,0.096,0.496,0.192,0.743,0.288c0,1.149,0.082,2.306-0.024,3.445
			c-0.099,1.069,2.406,3.798,3.35,4.229c1.246,0.569,2.309,1.604,3.334,2.561c0.458,0.428,0.635,1.156,1.124,2.105h-2.336
			l-0.111-0.657c-1.703,0.937-3.406,1.874-5.109,2.811c0.116,0.266,0.231,0.531,0.346,0.797c0.586-0.162,1.164-0.36,1.76-0.477
			c2.041-0.401,4.264-1.418,6.071-0.927c1.166,0.317,1.727,2.861,2.558,4.407c-0.502,0.261-1.131,0.863-1.49,0.73
			c-3.8-1.398-7.45-0.757-11.077,0.605C100.102,64.984,100.032,64.916,99.642,64.705"/>
		<path fill="#FFFFFF" d="M42.245,72.354c0.525-2.034,1.057-4.094,1.639-6.35c-2.244-0.233-1.964-1.442-1.384-2.93
			c2.004-5.138,3.692-10.414,5.995-15.412c1.203-2.606,3.438-4.739,5.618-7.027c-0.467,1.392-0.933,2.782-1.399,4.174
			c0.226,0.062,0.451,0.126,0.678,0.188c1.316-2.155,2.911-4.231,1.622-7.042c4.283-3.661,4.283-3.661,5.029-0.474
			c1.356-1.748,2.489-3.312,3.748-4.771c0.432-0.501,1.227-0.67,1.762-1.105c0.485-0.394,0.857-0.932,1.256-1.425
			c1.271-1.574,2.531-3.157,3.794-4.736c0.325,0.227,0.649,0.453,0.974,0.68c-0.82,1.437-1.59,2.904-2.469,4.304
			c-1.703,2.713-3.457,5.394-5.213,8.073c-0.66,1.008-1.389,1.97-2.076,2.96c-0.209,0.302-0.516,0.607-0.555,0.938
			c-0.79,6.598-2.207,12.857-6.473,18.348c-1.983,2.554-3.163,5.909-4.054,9.085c-0.938,3.341-3.935,3.777-6.732,3.064
			C43.28,72.711,42.574,72.457,42.245,72.354 M56.35,48.109c2.569-2.532,3.553-6.911,2.176-8.946
			C56.792,41.807,55.667,44.582,56.35,48.109"/>
		<path fill="#FFFFFF" d="M108.621,90.714c-1.614,1.507-2.736,1.182-4.038-0.263c-0.883-0.979-2.3-1.473-3.466-2.204
			c-0.293-0.184-0.709-0.414-0.76-0.68c-0.054-0.285,0.215-0.888,0.418-0.923c2.476-0.434,1.932-2.292,1.678-3.793
			c-0.188-1.102-0.926-2.1-1.325-3.18c-0.156-0.426-0.25-1.111-0.021-1.375c0.212-0.244,0.94-0.225,1.356-0.079
			c2.024,0.707,4.449,0.484,5.85,2.749c0.236,0.382,1.759-0.033,2.863-0.09c-0.088,0.375-0.175,0.745-0.297,1.268
			c2.864-0.012,3.99,2.129,4.976,4.33c0.296,0.662,0.405,1.543,0.249,2.245c-0.506,2.283-1.219,4.519-1.76,6.796
			c-0.227,0.954-0.155,1.975-0.326,2.944c-0.622,3.543-2.482,6.402-4.96,8.93c-0.669,0.683-1.19,1.511-2.265,2.901
			c0-1.539-0.15-2.388,0.027-3.163c0.596-2.588-0.462-4.834-1.294-7.14c-0.457-1.265-0.157-2.19,1.087-2.876
			c1.225-0.675,2.419-1.44,3.499-2.321c0.34-0.276,0.529-1.178,0.336-1.578C110.042,92.365,109.339,91.659,108.621,90.714"/>
		<path fill="#FFFFFF" d="M43.698,110.533c-0.926,1.133-1.743,2.135-2.561,3.136c-0.187-0.128-0.374-0.257-0.562-0.386
			c1.443-2.579,2.887-5.159,4.547-8.127c-0.32-0.123-1.228-0.764-2.127-0.754c-1.416,0.018-1.737-0.256-1.278-1.643
			c0.213-0.644-0.114-1.466-0.21-2.322c0.684,0.136,1.292,0.257,1.817,0.362c0.286,0.908,0.544,1.729,0.803,2.552
			c0.193-0.022,0.386-0.044,0.579-0.065c0.271-1.144,0.542-2.288,0.909-3.84c2.047,4.705,1.181,10.297-1.918,13.352V110.533z"/>
		<path fill="#FFFFFF" d="M50.893,102.074c0.442,1.317,0.891,2.632,1.326,3.951c0.697,2.113,1.42,4.218,2.05,6.351
			c0.161,0.544,0.013,1.18,0.008,1.772c-0.455-0.319-1.074-0.539-1.337-0.976c-1.819-3.005-3.787-5.987-3.005-9.797
			c0.089-0.437,0.199-0.869,0.3-1.304C50.454,102.073,50.673,102.073,50.893,102.074"/>
		<path fill="#FFFFFF" d="M80.262,67.981c-1.293,2.597-3.265,2.126-5.073,1.755c-1.69-0.348-3.329-0.946-4.989-1.435
			c0.065-0.335,0.131-0.672,0.197-1.008C73.526,67.513,76.655,67.731,80.262,67.981"/>
		<path fill="#FFFFFF" d="M42.713,83.563c-0.734,1.091-1.486,2.17-2.198,3.276c-0.834,1.298-1.635,2.618-2.449,3.928
			c-0.218-0.141-0.435-0.28-0.653-0.419c0.619-1.104,1.237-2.208,1.856-3.312c-0.085-0.076-0.17-0.154-0.255-0.231
			c-0.515,0.368-1.03,0.737-1.544,1.106c-0.097-0.09-0.193-0.181-0.29-0.27c1.636-2.38,3.271-4.757,4.907-7.135
			c0.152,0.106,0.304,0.214,0.456,0.321c0.044,0.926,0.089,1.854,0.134,2.779L42.713,83.563z"/>
		<path fill="#FFFFFF" d="M42.677,83.607c1.158-0.733,2.316-1.468,3.787-2.401c0.302,4.094-3.448,6.49-3.442,10.237
			c-0.309-0.1-0.616-0.196-0.924-0.295c0.483-1.622,0.966-3.246,1.449-4.87c-0.152,0.016-0.303,0.029-0.455,0.045
			c-0.126-0.922-0.251-1.841-0.378-2.762C42.713,83.563,42.677,83.607,42.677,83.607"/>
		<path fill="#FFFFFF" d="M42.653,94.348c0.25,2.669-1.18,5.201-2.951,5.698C38.736,97.256,40.569,95.929,42.653,94.348"/>
		<path fill="#FFFFFF" d="M107.938,74.191c-1.114-0.37-2.329-0.58-3.301-1.179c-0.49-0.302-0.542-1.312-0.792-2
			c0.741-0.029,1.728-0.372,2.171-0.024c0.882,0.695,1.466,1.77,2.173,2.687C108.104,73.848,108.021,74.02,107.938,74.191"/>
		<path fill="#FFFFFF" d="M121.208,51.824c-0.345-2.572-0.689-5.146-1.103-8.236c1.764,1.349,2.066,6.405,1.061,8.198
			L121.208,51.824z"/>
		<path fill="#FFFFFF" d="M121.167,51.786c0.346,1.698,1.689,3.479-0.539,5.122c-0.664-1.881-1.639-3.629,0.581-5.084
			C121.208,51.824,121.167,51.786,121.167,51.786"/>
		<path fill="#FFFFFF" d="M81.436,65.089c-3.253,1.09-3.682,0.713-3.209-2.601C79.334,63.386,80.213,64.098,81.436,65.089"/>
		<path fill="#FFFFFF" d="M62.365,23.564c-1.549,1.648-3.098,3.296-4.647,4.944c-0.099-0.116-0.196-0.233-0.294-0.35
			c0.5-1.179,1.001-2.357,1.234-2.907c1.462-0.645,2.603-1.147,3.743-1.652L62.365,23.564z"/>
		<path fill="#FFFFFF" d="M62.4,23.6c1.977-2.027,4.38-3.2,7.18-3.57c-2.404,1.179-4.809,2.357-7.214,3.537
			C62.365,23.564,62.4,23.6,62.4,23.6"/>
		<path fill="#FFFFFF" d="M78.525,122.998c1.391,0.714,2.784,1.426,4.176,2.141c-0.074,0.181-0.148,0.362-0.221,0.545
			c-1.467-0.592-2.933-1.181-4.399-1.771C78.229,123.607,78.377,123.303,78.525,122.998"/>
		<path fill="#FFFFFF" d="M33.87,107.514c1.124-1.015,2.249-2.028,3.373-3.043c0.159,0.168,0.318,0.336,0.477,0.504
			c-1.01,1.129-2.021,2.256-3.031,3.384C34.416,108.077,34.143,107.796,33.87,107.514"/>
		<path d="M56.35,48.109c-0.683-3.527,0.442-6.303,2.176-8.946C59.902,41.198,58.918,45.577,56.35,48.109"/>
	</g>
</g>
</svg>
