<?xml version="1.0" encoding="utf-8"?>
<!-- Generator: Adobe Illustrator 16.0.0, SVG Export Plug-In . SVG Version: 6.00 Build 0)  -->
<!DOCTYPE svg PUBLIC "-//W3C//DTD SVG 1.1//EN" "http://www.w3.org/Graphics/SVG/1.1/DTD/svg11.dtd">
<svg version="1.1" id="Layer_1" xmlns="http://www.w3.org/2000/svg" xmlns:xlink="http://www.w3.org/1999/xlink" x="0px" y="0px"
	 width="112px" height="166px" viewBox="0 0 112 166" enable-background="new 0 0 112 166" xml:space="preserve">
<g>
	<path fill="#FFFFFF" d="M110.967,163.084h-108V1.633h108V163.084z M32.384,151.015c-0.872,0.035-1.106,0.239-1.373,1.077
		c-0.056,0.175-0.272,0.299-0.414,0.445c-0.147-0.171-0.411-0.338-0.417-0.515c-0.013-0.329,0.104-0.671,0.202-0.997
		c0.415-1.375,0.847-2.746,1.263-4.12c0.052-0.173,0.042-0.363,0.071-0.543c0.058-0.354,0.04-0.756,0.205-1.055
		c0.394-0.712,0.39-1.388,0.034-2.092c-0.165-0.326-0.296-0.674-0.494-0.978c-0.449-0.691-0.519-1.391-0.156-2.135
		c0.071-0.145,0.123-0.306,0.147-0.465c0.116-0.774,0.407-1.589-0.225-2.269c-1.059-1.138-0.96-2.381-0.413-3.685
		c0.367-0.876,0.822-1.725,1.09-2.63c0.263-0.888,0.719-1.506,1.554-1.903c1.294-0.615,1.445-2.458,0.326-3.375
		c-0.287-0.235-0.524-0.56-0.7-0.888c-0.075-0.14,0.013-0.442,0.132-0.577c0.066-0.075,0.368,0.002,0.532,0.078
		c0.508,0.236,1.018,0.477,1.495,0.77c0.283,0.174,0.615,0.402,0.732,0.687c0.225,0.546,0.588,0.652,1.104,0.629
		c0.734-0.034,1.255,0.268,1.624,0.948c0.39,0.721,0.939,1.271,1.823,1.483c0.757,0.182,1.463,0.574,2.194,0.867
		c0.544,0.218,1.079,0.54,1.643,0.611c0.868,0.111,1.281,0.529,1.475,1.352c0.192,0.815,1.43,1.187,2.105,0.69
		c0.442-0.325,0.85-0.732,1.342-0.941c0.636-0.271,1.333-0.42,2.017-0.547c0.471-0.087,0.972,0.001,1.447-0.074
		c1.322-0.21,2.634-0.489,3.957-0.694c1.146-0.177,2.307-0.346,3.393,0.28c0.58,0.334,1.137,0.266,1.744,0.012
		c1.759-0.735,3.562-0.984,5.483-0.657c1.93,0.329,3.745-0.046,5.491-1.082c1.434-0.851,2.996-1.546,4.73-1.668
		c0.272-0.019,0.633-0.181,0.777-0.395c0.457-0.675,1.153-1.188,1.311-2.085c0.054-0.31,0.469-0.558,0.723-0.83
		c0.363-0.388,0.863-0.713,1.067-1.171c0.408-0.913,0.855-1.292,1.853-1.229c0.65,0.042,0.879,0.415,0.556,0.982
		c-0.158,0.275-0.417,0.493-0.628,0.739c-0.663,0.775-0.661,1.231-0.05,2.036c0.368,0.485,0.657,1.033,1.052,1.493
		c0.228,0.265,0.591,0.415,0.898,0.607c0.279,0.176,0.656,0.274,0.834,0.521c0.509,0.703,0.849,1.516,0.737,2.398
		c-0.202,1.602-0.566,3.186-0.701,4.792c-0.12,1.443-0.071,2.907-0.008,4.359c0.049,1.131,0.274,2.254,0.335,3.385
		c0.021,0.39-0.218,0.794-0.338,1.191c-0.165,0.552-0.439,1.099-0.47,1.659c-0.047,0.861-0.289,1.613-0.687,2.368
		c-0.343,0.652-0.563,1.375-0.777,2.086c-0.074,0.246,0.039,0.549,0.066,0.826c0.062,0.006,0.124,0.013,0.186,0.02
		c0.095-0.118,0.22-0.223,0.281-0.356c0.385-0.851,0.754-1.708,1.134-2.561c0.164-0.37,0.325-0.741,0.512-1.099
		c0.306-0.589,0.63-1.168,0.95-1.747c0.146-0.264,0.313-0.515,0.451-0.782c0.236-0.461,0.474-0.924,0.68-1.398
		c0.184-0.425,0.326-0.867,0.485-1.302c0.236-0.642,0.599-1.269,0.68-1.929c0.18-1.476,0.317-2.957,0.024-4.455
		c-0.146-0.746-0.05-1.54-0.057-2.312c-0.025-2.562-0.044-5.124-0.073-7.686c-0.007-0.568,0.203-0.983,0.637-1.372
		c0.831-0.744,1.629-1.532,2.376-2.361c0.258-0.285,0.362-0.735,0.463-1.129c0.072-0.288,0.045-0.608,0.025-0.911
		c-0.046-0.667,0.13-1.213,0.631-1.699c0.493-0.479,0.498-1.276,0.099-1.781c-0.44-0.557-0.922-1.082-1.331-1.658
		c-0.188-0.266-0.265-0.616-0.363-0.938c-0.139-0.456-0.208-0.938-0.386-1.378c-0.248-0.617-0.25-1.348,0.144-1.72
		c0.551-0.52,1.004-1.201,1.882-1.247c0.125-0.007,0.263-0.116,0.361-0.213c0.554-0.538,1.118-1.069,1.638-1.64
		c0.383-0.421,0.361-0.9,0.083-1.405c-0.16-0.291-0.297-0.633-0.314-0.959c-0.042-0.811-0.027-1.626-0.002-2.438
		c0.023-0.785,0.349-1.09,1.143-1.11c0.61-0.015,1.227,0.045,1.828-0.028c0.328-0.041,0.697-0.222,0.931-0.456
		c0.443-0.446,0.313-1.256-0.123-1.833c-0.257-0.339-0.406-0.761-0.593-1.15c-0.185-0.386-0.328-0.794-0.541-1.163
		c-0.207-0.362-0.57-0.656-0.698-1.036c-0.169-0.503-0.438-0.599-0.869-0.452c-1.019,0.344-2.026,0.722-3.051,1.047
		c-0.708,0.225-1.429,0.486-2.159,0.544c-0.771,0.062-1.022-0.458-0.877-1.22c0.193-1.01,0.387-2.037,0.396-3.059
		c0.01-1.065,0.241-1.952,1.064-2.665c0.527-0.459,0.752-1.104,0.641-1.765c-0.154-0.918,0.086-1.732,0.432-2.542
		c0.247-0.579,0.594-1.038,1.269-1.214c0.243-0.062,0.523-0.343,0.608-0.585c0.275-0.784,0.462-1.598,0.693-2.396
		c0.19-0.661,0.59-0.938,1.271-0.867c1.135,0.119,2.039,0.659,2.701,1.581c0.482,0.671,0.543,0.673,1.148,0.121
		c0.232-0.213,0.732-0.512,0.818-0.438c0.274,0.239,0.567,0.635,0.567,0.971c0.001,0.657-0.146,1.327-0.315,1.97
		c-0.22,0.838-0.039,1.617,0.096,2.353c0.598-0.036,1.111-0.015,1.601-0.114c0.391-0.079,0.837-0.222,1.102-0.49
		c0.248-0.251,0.44-0.724,0.397-1.066c-0.192-1.535,0.204-2.764,1.438-3.776c0.986-0.81,1.864-1.754,2.761-2.668
		c0.226-0.23,0.462-0.57,0.472-0.867c0.021-0.628,0.254-1.093,0.719-1.476c0.404-0.333,0.568-0.75,0.545-1.285
		c-0.037-0.833-0.046-1.669-0.002-2.5c0.053-0.985-0.16-1.532-1.267-1.699c-0.098-0.015-0.217-0.046-0.279-0.113
		c-1.034-1.103-2.568-1.774-2.968-3.43c-0.031-0.129-0.13-0.266-0.235-0.349c-0.808-0.635-0.973-1.489-0.904-2.451
		c0.033-0.464,0.01-0.938-0.048-1.401c-0.039-0.311-0.185-0.609-0.279-0.914c-0.135-0.432-0.316-0.856-0.386-1.298
		c-0.067-0.437-0.049-0.895-0.019-1.339c0.063-0.914-0.221-1.676-0.905-2.286c-0.428-0.382-0.548-0.865-0.542-1.426
		c0.017-1.851-0.013-3.702,0.012-5.552c0.008-0.569-0.154-1.007-0.548-1.42c-0.221-0.232-0.311-0.591-0.454-0.895
		c-0.144-0.304-0.204-0.7-0.436-0.899c-0.672-0.578-0.884-1.289-0.808-2.123c0.083-0.907-0.16-1.647-0.874-2.275
		c-0.55-0.484-0.568-1.711,0.001-2.164c1.054-0.836,0.936-1.955,0.904-3.061c-0.016-0.586-0.457-0.774-0.957-0.463
		c-0.63,0.393-1.347,0.46-1.988,0.204c-0.634-0.254-0.474-0.959-0.512-1.515c-0.008-0.122-0.017-0.245-0.006-0.366
		c0.053-0.643-0.118-1.181-0.599-1.65c-0.195-0.19-0.228-0.542-0.345-0.816c-0.132-0.307-0.212-0.669-0.428-0.901
		c-0.425-0.455-0.847-0.877-0.843-1.556c0.001-0.091-0.057-0.205-0.123-0.271c-0.991-0.984-1.97-1.982-2.992-2.933
		c-0.449-0.418-0.947-0.747-0.987-1.449c-0.059-1.053-0.714-1.719-1.752-1.91c-0.265-0.049-0.55-0.183-0.747-0.363
		c-0.53-0.486-1.158-0.914-1.236-1.741c-0.015-0.157-0.179-0.317-0.305-0.445c-1.253-1.277-2.497-2.564-3.784-3.807
		c-0.25-0.241-0.677-0.296-1.02-0.445c-0.359-0.156-0.791-0.241-1.062-0.496c-1.11-1.044-2.174-2.139-3.249-3.22
		c-0.378-0.38-0.749-0.711-1.351-0.725c-0.265-0.006-0.551-0.233-0.779-0.419c-0.676-0.549-1.306-1.156-2.001-1.679
		c-0.25-0.188-0.639-0.185-0.956-0.292c-0.391-0.132-0.844-0.203-1.141-0.453c-0.434-0.365-0.855-0.59-1.425-0.541
		c-0.282,0.024-0.571-0.025-0.853,0.003c-0.667,0.067-1.173-0.183-1.611-0.677c-0.417-0.47-0.86-0.925-1.342-1.33
		c-0.246-0.208-0.594-0.393-0.904-0.408c-0.693-0.033-1.268-0.269-1.74-0.75c-0.353-0.358-0.747-0.501-1.253-0.496
		c-2.236,0.025-4.474,0.025-6.71,0.02c-0.298-0.001-0.658-0.001-0.884-0.156c-1.079-0.74-2.146-1.503-3.166-2.32
		c-0.456-0.365-0.853-0.727-1.487-0.708c-0.224,0.007-0.508-0.09-0.667-0.242c-0.425-0.408-0.916-0.477-1.462-0.444
		c-0.466,0.027-0.935,0.02-1.403,0.025c-0.762,0.009-1.556-0.137-2.168,0.528c-0.094,0.102-0.302,0.128-0.459,0.136
		c-1.417,0.069-2.524,0.791-3.507,1.716C39.4,5.246,38.382,6.3,37.355,7.343c-0.196,0.199-0.381,0.434-0.495,0.687
		c-0.438,0.971-1.513,1.185-2.384,0.537c-0.685-0.51-1.449-0.916-2.193-1.342c-0.144-0.082-0.364-0.018-0.537-0.067
		c-0.304-0.087-0.692-0.125-0.88-0.332c-0.523-0.578-1.146-0.705-1.869-0.655c-0.445,0.031-0.9-0.032-1.34,0.029
		c-0.342,0.048-0.669,0.215-0.998,0.342c-0.313,0.122-0.62,0.262-0.931,0.391c-0.22,0.092-0.498,0.123-0.655,0.277
		c-1.19,1.167-2.376,2.338-3.522,3.548c-0.487,0.514-0.427,2.172,0.017,2.693c0.592,0.694,0.56,1.307-0.104,1.967
		c-1.282,1.277-1.282,1.277-0.039,2.62c0.375,0.405,0.385,0.91,0.013,1.305c-1.377,1.461-2.826,2.861-4.106,4.401
		c-0.655,0.789-1.084,1.796-1.476,2.762c-0.267,0.659-0.458,1.312-0.952,1.868c-0.269,0.302-0.453,0.778-0.472,1.185
		c-0.072,1.522-0.051,3.049-0.088,4.574c-0.008,0.337-0.012,0.743-0.191,0.995c-0.494,0.695-0.568,1.445-0.535,2.251
		c0.045,1.117,0.109,2.238,0.068,3.354c-0.063,1.697-0.21,3.391-0.325,5.086c-0.005,0.08-0.025,0.167-0.065,0.234
		c-0.481,0.803-0.893,1.665-1.479,2.384c-0.434,0.532-0.67,1.042-0.62,1.703c0.049,0.633-0.15,1.161-0.649,1.562
		c-0.431,0.348-0.562,0.79-0.559,1.342c0.019,2.948,0.001,5.897,0.007,8.846c0,0.555-0.156,1.004-0.55,1.427
		c-0.236,0.254-0.394,0.668-0.413,1.021c-0.059,1.055-0.022,2.114-0.043,3.171c-0.016,0.802-0.335,1.106-1.125,1.113
		c-0.305,0.002-0.61-0.021-0.915-0.015c-0.71,0.014-2.555,1.847-2.616,2.556c-0.074,0.859,0.086,1.591,0.822,2.154
		c0.465,0.356,0.868,0.797,1.276,1.222c0.391,0.406,0.827,0.585,1.407,0.559c0.821-0.037,1.131,0.309,1.149,1.14
		c0.008,0.366-0.054,0.741,0.01,1.095c0.041,0.231,0.207,0.513,0.4,0.618c0.132,0.071,0.46-0.069,0.61-0.21
		c0.427-0.405,0.815-0.851,1.203-1.295c0.451-0.518,1.024-0.455,1.576-0.303c0.519,0.143,0.6,0.617,0.604,1.083
		c0.008,0.895,0.05,1.793-0.019,2.682c-0.03,0.387-0.228,0.816-0.479,1.118c-0.32,0.383-0.499,0.742-0.485,1.251
		c0.048,1.748,0.067,3.497,0.07,5.245c0,0.333-0.027,0.732-0.206,0.985c-0.52,0.736-1.118,1.418-1.693,2.114
		c-0.545,0.659-0.566,1.855-0.006,2.518c0.427,0.504,0.629,1.062,0.618,1.728c-0.021,1.22,0.074,2.446-0.023,3.658
		c-0.103,1.275,0.32,2.199,1.291,3.02c1.021,0.863,1.102,3.067,0.267,4.112c-0.467,0.584-0.46,1.596,0.09,2.11
		c0.463,0.433,0.645,0.927,0.576,1.525c-0.082,0.713,0.205,1.23,0.705,1.723c0.264,0.259,0.494,0.68,0.512,1.039
		c0.077,1.48,0.122,2.968,0.066,4.448c-0.025,0.684,0.17,1.152,0.638,1.61c0.465,0.455,0.944,0.739,1.619,0.637
		c0.926-0.141,1.655,0.166,2.208,0.956c0.276,0.394,0.629,0.766,1.023,1.04c0.952,0.664,1.229,1.556,1.062,2.648
		c-0.015,0.1-0.032,0.21-0.005,0.303c0.07,0.246,0.103,0.538,0.259,0.718c0.836,0.961,1.686,1.912,2.574,2.825
		c0.382,0.394,0.585,0.798,0.578,1.345c-0.021,1.606-0.031,3.213-0.021,4.819c0.003,0.545-0.167,0.974-0.553,1.363
		c-0.249,0.25-0.548,0.572-0.585,0.89c-0.116,1.004-0.123,2.021-0.166,3.033c-0.062,1.45,0.417,2.786,0.782,4.165
		c0.453,1.709,1.34,3.214,1.952,4.841c0.07,0.186,0.224,0.337,0.325,0.513c0.553,0.956,0.941,2.017,1.806,2.775
		c0.093,0.081,0.087,0.268,0.146,0.396c0.393,0.843,0.63,1.834,1.233,2.482c0.608,0.655,1.186,1.301,1.645,2.062
		c0.093,0.154,0.217,0.302,0.356,0.414c0.11,0.088,0.267,0.117,0.403,0.172c0.041-0.146,0.153-0.321,0.108-0.433
		c-0.135-0.332-0.298-0.664-0.51-0.951c-0.674-0.912-0.49-1.787,0.418-2.342c0.264-0.16,0.406-0.604,0.49-0.946
		c0.063-0.257-0.057-0.559-0.095-0.84c0.997-0.113,1.413-0.892,0.957-1.845c-0.094-0.196-0.31-0.334-0.469-0.498
		c-0.142,0.201-0.38,0.391-0.407,0.605C32.377,149.84,32.398,150.429,32.384,151.015 M110.642,162.932
		c0-1.031-0.003-1.982,0.001-2.935c0.016-4.432,0.04-8.864,0.035-13.296c-0.001-0.311-0.138-0.722-0.36-0.911
		c-0.684-0.585-0.936-1.269-0.856-2.154c0.056-0.621-0.464-1.093-1.11-1.113c-0.528-0.017-1.059,0.021-1.585-0.014
		c-0.295-0.02-0.661-0.047-0.858-0.224c-0.472-0.419-0.996-0.497-1.579-0.49c-0.65,0.009-1.302,0.013-1.951-0.019
		c-0.38-0.019-0.507,0.107-0.591,0.49c-0.265,1.204-0.591,2.396-0.904,3.589c-0.045,0.174-0.152,0.331-0.229,0.498
		c-0.733,1.611-2.121,2.894-2.383,4.746c-0.021,0.146-0.177,0.27-0.248,0.415c-0.177,0.362-0.352,0.726-0.506,1.098
		c-0.257,0.617-0.503,1.238-0.742,1.862c-0.18,0.472-0.397,0.938-0.503,1.429c-0.271,1.266,0.274,2.144,1.52,2.5
		c0.311,0.089,0.639,0.113,0.96,0.164c2.334,0.368,4.729,0.538,6.78,1.891c0.739,0.487,1.425,1.059,2.116,1.614
		c0.127,0.103,0.14,0.335,0.249,0.473c0.119,0.149,0.283,0.361,0.437,0.37C109.082,162.953,109.832,162.932,110.642,162.932
		 M10.02,162.926c0,0.002,0,0.005,0,0.008c0.61,0,1.22,0.019,1.828-0.013c0.164-0.009,0.441-0.148,0.458-0.26
		c0.085-0.562,0.491-0.695,0.937-0.819c0.333-0.093,0.674-0.174,0.983-0.32c0.694-0.328,0.886-1.062,0.457-1.675
		c-0.721-1.028-1.459-2.044-2.175-3.076c-0.485-0.698-1.043-1.367-1.394-2.13c-0.582-1.266-1.522-2.139-2.669-2.834
		c-0.45-0.272-0.702-0.626-0.833-1.135c-0.103-0.4-0.312-0.779-0.515-1.146c-0.205-0.37-0.425-0.741-0.698-1.062
		c-0.668-0.785-0.799-1.921-1.67-2.556c-0.254-0.186-0.611-0.404-0.877-0.358c-0.434,0.076-0.493,0.514-0.49,0.931
		c0.012,1.707,0.02,3.414,0.002,5.121c-0.005,0.534,0.072,0.991,0.494,1.374c0.146,0.132,0.252,0.396,0.246,0.596
		c-0.041,1.128-0.122,2.254-0.184,3.382c-0.006,0.114,0.007,0.236,0.042,0.347c0.151,0.487,0.306,0.974,0.475,1.455
		c0.058,0.167,0.121,0.37,0.25,0.466c0.91,0.682,1.725,1.608,3.059,1.287c0.058-0.014,0.128-0.019,0.181,0.002
		c0.232,0.093,0.603,0.147,0.655,0.306c0.072,0.217-0.055,0.536-0.177,0.77c-0.138,0.263-0.412,0.456-0.543,0.721
		c-0.18,0.361-0.1,0.632,0.394,0.622C8.841,162.917,9.431,162.926,10.02,162.926 M49.568,136.87c0.004,0,0.008,0,0.013,0
		c0-0.182,0-0.364,0-0.547c-0.008-1.954-1.368-3.112-3.271-2.786c-0.06,0.01-0.134-0.003-0.178,0.027
		c-0.266,0.187-0.689,0.347-0.742,0.586c-0.054,0.243,0.219,0.6,0.42,0.849c0.262,0.324,0.653,0.553,0.882,0.893
		c0.279,0.416,0.438,0.911,0.667,1.361c0.309,0.606,0.795,1.016,1.448,1.216c0.45,0.138,0.721-0.037,0.755-0.505
		C49.59,137.602,49.568,137.235,49.568,136.87 M40.179,130.718c-0.256-0.209-0.428-0.35-0.6-0.49
		c-0.114,0.146-0.345,0.324-0.315,0.427c0.055,0.189,0.244,0.369,0.423,0.472C39.739,131.156,39.947,130.915,40.179,130.718
		 M82.945,153.882c0.676-0.236,0.789-0.616,0.448-1.317C83.235,153.03,83.115,153.381,82.945,153.882 M82.345,156.833l-0.225-0.066
		c-0.072,0.288-0.151,0.576-0.204,0.868c-0.005,0.029,0.147,0.087,0.228,0.131c0.093-0.26,0.191-0.518,0.274-0.781
		C82.43,156.945,82.371,156.885,82.345,156.833"/>
	<path fill="#231F20" d="M32.367,150.998c0.038,0.281,0.158,0.583,0.095,0.84c-0.084,0.342-0.227,0.786-0.49,0.946
		c-0.909,0.555-1.093,1.43-0.418,2.342c0.212,0.288,0.375,0.619,0.51,0.951c0.045,0.111-0.067,0.287-0.108,0.433
		c-0.136-0.055-0.293-0.084-0.403-0.172c-0.14-0.112-0.263-0.26-0.356-0.414c-0.459-0.762-1.036-1.407-1.645-2.062
		c-0.604-0.648-0.84-1.64-1.233-2.482c-0.06-0.128-0.054-0.314-0.146-0.396c-0.864-0.758-1.252-1.819-1.806-2.775
		c-0.101-0.176-0.255-0.327-0.325-0.513c-0.612-1.627-1.5-3.132-1.952-4.841c-0.365-1.379-0.845-2.715-0.782-4.165
		c0.043-1.012,0.049-2.029,0.166-3.033c0.037-0.317,0.336-0.64,0.585-0.891c0.386-0.389,0.556-0.817,0.553-1.362
		c-0.01-1.606,0-3.213,0.021-4.819c0.008-0.547-0.195-0.951-0.578-1.345c-0.888-0.913-1.737-1.864-2.574-2.825
		c-0.156-0.18-0.188-0.472-0.259-0.718c-0.027-0.093-0.01-0.203,0.005-0.303c0.168-1.093-0.109-1.984-1.062-2.648
		c-0.394-0.274-0.747-0.646-1.023-1.04c-0.553-0.79-1.282-1.097-2.208-0.956c-0.675,0.103-1.154-0.182-1.619-0.637
		c-0.468-0.458-0.664-0.927-0.638-1.61c0.056-1.48,0.011-2.968-0.066-4.448c-0.019-0.359-0.249-0.78-0.512-1.04
		c-0.5-0.491-0.787-1.009-0.705-1.722c0.069-0.599-0.112-1.093-0.576-1.526c-0.551-0.514-0.557-1.525-0.09-2.109
		c0.835-1.044,0.755-3.249-0.267-4.112c-0.97-0.82-1.393-1.744-1.291-3.02c0.098-1.212,0.002-2.438,0.023-3.658
		c0.011-0.665-0.191-1.224-0.618-1.728c-0.56-0.663-0.539-1.857,0.006-2.519c0.575-0.695,1.174-1.377,1.693-2.113
		c0.178-0.253,0.207-0.652,0.206-0.985c-0.003-1.748-0.022-3.497-0.07-5.245c-0.014-0.509,0.166-0.869,0.485-1.251
		c0.251-0.301,0.449-0.73,0.479-1.118c0.069-0.889,0.027-1.788,0.019-2.682c-0.004-0.467-0.086-0.941-0.604-1.083
		c-0.552-0.152-1.125-0.215-1.577,0.303c-0.388,0.444-0.776,0.891-1.203,1.295c-0.149,0.142-0.478,0.282-0.61,0.21
		c-0.193-0.104-0.359-0.387-0.4-0.618c-0.063-0.354-0.002-0.729-0.01-1.095c-0.018-0.831-0.329-1.177-1.149-1.14
		c-0.581,0.026-1.017-0.153-1.407-0.559c-0.408-0.425-0.811-0.866-1.276-1.222c-0.736-0.563-0.896-1.295-0.822-2.154
		c0.061-0.709,1.905-2.542,2.616-2.556c0.305-0.006,0.61,0.017,0.915,0.015c0.79-0.008,1.11-0.312,1.125-1.113
		c0.021-1.057-0.016-2.116,0.043-3.171c0.019-0.352,0.177-0.767,0.413-1.021c0.394-0.423,0.55-0.872,0.549-1.428
		c-0.005-2.948,0.012-5.897-0.007-8.845c-0.003-0.552,0.128-0.995,0.559-1.342c0.499-0.402,0.698-0.93,0.649-1.563
		c-0.051-0.661,0.186-1.171,0.62-1.703c0.586-0.719,0.998-1.581,1.479-2.384c0.04-0.067,0.06-0.154,0.065-0.234
		c0.114-1.695,0.261-3.389,0.325-5.086c0.042-1.116-0.023-2.236-0.068-3.354c-0.033-0.806,0.041-1.557,0.535-2.251
		c0.179-0.251,0.183-0.657,0.192-0.994c0.037-1.525,0.015-3.052,0.087-4.574c0.02-0.407,0.204-0.883,0.473-1.185
		c0.494-0.556,0.685-1.209,0.952-1.868c0.391-0.965,0.82-1.974,1.475-2.762c1.28-1.541,2.73-2.94,4.106-4.401
		c0.373-0.395,0.362-0.9-0.013-1.305c-1.244-1.343-1.244-1.343,0.039-2.62c0.664-0.661,0.696-1.273,0.104-1.968
		c-0.444-0.521-0.504-2.178-0.017-2.692c1.146-1.209,2.332-2.381,3.522-3.548c0.157-0.154,0.435-0.185,0.655-0.277
		c0.311-0.13,0.617-0.27,0.931-0.392c0.329-0.127,0.656-0.294,0.998-0.342c0.439-0.061,0.894,0.002,1.34-0.029
		c0.723-0.05,1.345,0.077,1.869,0.655c0.188,0.208,0.576,0.245,0.88,0.332c0.172,0.049,0.393-0.015,0.537,0.068
		c0.744,0.426,1.508,0.832,2.192,1.341c0.872,0.648,1.947,0.435,2.384-0.537c0.114-0.252,0.298-0.487,0.494-0.687
		c1.027-1.043,2.045-2.097,3.111-3.1c0.983-0.926,2.09-1.647,3.508-1.716c0.157-0.008,0.365-0.035,0.459-0.137
		c0.612-0.664,1.406-0.519,2.168-0.527c0.468-0.005,0.937,0.002,1.403-0.025c0.547-0.032,1.037,0.037,1.462,0.445
		c0.159,0.152,0.443,0.249,0.667,0.242c0.634-0.019,1.031,0.343,1.487,0.708c1.021,0.818,2.087,1.581,3.166,2.321
		c0.226,0.155,0.585,0.155,0.884,0.156c2.237,0.006,4.474,0.005,6.71-0.02c0.506-0.006,0.901,0.138,1.253,0.496
		c0.473,0.482,1.047,0.718,1.74,0.751c0.311,0.015,0.658,0.2,0.904,0.407c0.481,0.405,0.925,0.859,1.342,1.33
		c0.438,0.494,0.944,0.744,1.611,0.677c0.281-0.028,0.57,0.021,0.853-0.003c0.569-0.049,0.991,0.176,1.425,0.541
		c0.297,0.25,0.75,0.321,1.141,0.453c0.317,0.107,0.706,0.104,0.956,0.292c0.695,0.521,1.325,1.129,2.001,1.678
		c0.229,0.186,0.515,0.414,0.779,0.419c0.602,0.014,0.973,0.345,1.351,0.725c1.075,1.081,2.139,2.176,3.249,3.22
		c0.271,0.254,0.702,0.339,1.062,0.496c0.342,0.148,0.769,0.204,1.019,0.445c1.287,1.243,2.531,2.53,3.784,3.807
		c0.126,0.128,0.29,0.288,0.305,0.445c0.078,0.827,0.706,1.254,1.236,1.74c0.197,0.181,0.482,0.314,0.747,0.363
		c1.037,0.19,1.693,0.856,1.753,1.91c0.039,0.703,0.537,1.032,0.986,1.449c1.022,0.951,2.001,1.949,2.992,2.933
		c0.066,0.066,0.123,0.18,0.123,0.271c-0.004,0.679,0.419,1.102,0.843,1.557c0.216,0.232,0.296,0.594,0.428,0.901
		c0.116,0.274,0.149,0.626,0.345,0.816c0.48,0.47,0.651,1.007,0.599,1.65c-0.011,0.121-0.002,0.245,0.006,0.366
		c0.038,0.556-0.122,1.261,0.512,1.515c0.642,0.257,1.358,0.189,1.988-0.204c0.499-0.31,0.941-0.122,0.957,0.464
		c0.03,1.106,0.149,2.225-0.904,3.061c-0.569,0.453-0.551,1.679-0.001,2.164c0.714,0.628,0.957,1.369,0.874,2.275
		c-0.076,0.833,0.137,1.544,0.808,2.123c0.231,0.199,0.292,0.595,0.436,0.899c0.144,0.304,0.233,0.663,0.454,0.896
		c0.394,0.413,0.555,0.851,0.548,1.42c-0.024,1.85,0.005,3.702-0.012,5.552c-0.006,0.562,0.114,1.044,0.542,1.426
		c0.685,0.61,0.969,1.372,0.905,2.286c-0.03,0.445-0.049,0.902,0.019,1.339c0.069,0.442,0.251,0.867,0.386,1.298
		c0.095,0.305,0.24,0.603,0.279,0.914c0.059,0.462,0.081,0.937,0.048,1.4c-0.068,0.963,0.097,1.816,0.904,2.452
		c0.106,0.083,0.204,0.22,0.235,0.349c0.399,1.656,1.934,2.327,2.968,3.43c0.062,0.067,0.182,0.099,0.279,0.113
		c1.107,0.167,1.319,0.714,1.267,1.699c-0.044,0.831-0.035,1.668,0.002,2.5c0.023,0.536-0.141,0.952-0.545,1.286
		c-0.465,0.383-0.697,0.848-0.719,1.476c-0.01,0.297-0.246,0.637-0.472,0.867c-0.896,0.915-1.774,1.858-2.761,2.668
		c-1.232,1.013-1.63,2.241-1.438,3.776c0.043,0.343-0.149,0.815-0.397,1.066c-0.265,0.269-0.711,0.411-1.102,0.49
		c-0.489,0.1-1.003,0.078-1.601,0.114c-0.135-0.735-0.315-1.515-0.096-2.353c0.169-0.643,0.316-1.312,0.315-1.97
		c0-0.335-0.294-0.731-0.567-0.971c-0.086-0.075-0.586,0.225-0.818,0.438c-0.604,0.553-0.666,0.551-1.148-0.121
		c-0.662-0.921-1.566-1.461-2.701-1.581c-0.682-0.071-1.081,0.207-1.271,0.867c-0.231,0.799-0.418,1.612-0.693,2.396
		c-0.085,0.244-0.365,0.523-0.608,0.586c-0.675,0.176-1.021,0.635-1.269,1.214c-0.346,0.81-0.586,1.624-0.432,2.542
		c0.111,0.661-0.113,1.306-0.641,1.764c-0.823,0.714-1.055,1.601-1.064,2.666c-0.008,1.021-0.202,2.049-0.396,3.059
		c-0.146,0.762,0.105,1.281,0.877,1.22c0.729-0.057,1.451-0.319,2.159-0.544c1.024-0.325,2.032-0.703,3.051-1.047
		c0.432-0.146,0.7-0.051,0.869,0.452c0.128,0.38,0.491,0.674,0.698,1.036c0.213,0.369,0.356,0.777,0.541,1.163
		c0.187,0.39,0.336,0.812,0.593,1.15c0.437,0.577,0.566,1.387,0.123,1.833c-0.233,0.234-0.603,0.415-0.931,0.456
		c-0.602,0.073-1.218,0.014-1.828,0.029c-0.794,0.02-1.119,0.324-1.143,1.109c-0.025,0.812-0.04,1.628,0.002,2.438
		c0.018,0.326,0.154,0.668,0.314,0.959c0.278,0.505,0.3,0.984-0.083,1.405c-0.52,0.571-1.084,1.102-1.638,1.64
		c-0.099,0.096-0.236,0.206-0.361,0.213c-0.878,0.046-1.331,0.728-1.882,1.247c-0.394,0.373-0.392,1.103-0.144,1.72
		c0.178,0.439,0.247,0.922,0.386,1.378c0.099,0.321,0.175,0.673,0.363,0.938c0.409,0.577,0.891,1.102,1.33,1.657
		c0.4,0.506,0.396,1.304-0.098,1.782c-0.502,0.485-0.677,1.032-0.632,1.699c0.021,0.303,0.049,0.623-0.024,0.911
		c-0.101,0.394-0.205,0.844-0.463,1.129c-0.747,0.829-1.545,1.616-2.377,2.361c-0.433,0.389-0.643,0.804-0.637,1.372
		c0.03,2.562,0.049,5.124,0.074,7.686c0.007,0.772-0.089,1.566,0.057,2.312c0.293,1.498,0.155,2.979-0.024,4.454
		c-0.081,0.661-0.443,1.288-0.68,1.93c-0.159,0.435-0.302,0.877-0.485,1.302c-0.206,0.475-0.443,0.938-0.68,1.398
		c-0.137,0.268-0.306,0.519-0.451,0.782c-0.32,0.58-0.645,1.158-0.95,1.747c-0.187,0.357-0.348,0.729-0.512,1.099
		c-0.38,0.853-0.749,1.71-1.135,2.561c-0.061,0.134-0.185,0.238-0.28,0.356c-0.062-0.007-0.123-0.014-0.186-0.02
		c-0.027-0.277-0.14-0.58-0.066-0.826c0.213-0.711,0.436-1.434,0.777-2.086c0.397-0.756,0.64-1.507,0.687-2.368
		c0.03-0.56,0.305-1.106,0.47-1.659c0.119-0.397,0.358-0.802,0.338-1.191c-0.061-1.131-0.286-2.254-0.335-3.385
		c-0.062-1.452-0.113-2.916,0.008-4.36c0.135-1.605,0.498-3.189,0.701-4.791c0.112-0.883-0.229-1.695-0.737-2.398
		c-0.178-0.245-0.555-0.345-0.835-0.521c-0.307-0.192-0.67-0.343-0.897-0.607c-0.395-0.46-0.684-1.008-1.052-1.493
		c-0.611-0.805-0.613-1.261,0.05-2.036c0.211-0.246,0.47-0.464,0.628-0.74c0.323-0.566,0.095-0.939-0.556-0.981
		c-0.997-0.064-1.444,0.315-1.852,1.229c-0.205,0.458-0.705,0.783-1.068,1.172c-0.254,0.271-0.669,0.52-0.723,0.829
		c-0.157,0.896-0.854,1.41-1.311,2.085c-0.145,0.214-0.505,0.376-0.777,0.396c-1.734,0.121-3.297,0.816-4.73,1.667
		c-1.746,1.036-3.562,1.411-5.491,1.082c-1.922-0.327-3.725-0.078-5.483,0.657c-0.607,0.254-1.164,0.322-1.744-0.012
		c-1.086-0.626-2.247-0.457-3.393-0.28c-1.323,0.205-2.634,0.484-3.957,0.694c-0.474,0.075-0.976-0.013-1.447,0.074
		c-0.684,0.127-1.381,0.276-2.017,0.547c-0.492,0.209-0.9,0.617-1.342,0.941c-0.675,0.496-1.913,0.125-2.105-0.69
		c-0.194-0.822-0.607-1.24-1.475-1.352c-0.564-0.071-1.099-0.394-1.643-0.612c-0.731-0.292-1.437-0.685-2.193-0.866
		c-0.885-0.212-1.434-0.764-1.824-1.483c-0.369-0.681-0.89-0.982-1.624-0.948c-0.516,0.023-0.879-0.083-1.104-0.629
		c-0.117-0.283-0.448-0.513-0.732-0.687c-0.477-0.292-0.987-0.533-1.495-0.77c-0.165-0.076-0.466-0.153-0.532-0.079
		c-0.119,0.136-0.207,0.438-0.132,0.578c0.176,0.328,0.413,0.652,0.7,0.888c1.119,0.917,0.968,2.76-0.326,3.375
		c-0.835,0.397-1.291,1.016-1.555,1.903c-0.268,0.905-0.723,1.754-1.09,2.63c-0.546,1.304-0.646,2.547,0.414,3.685
		c0.632,0.68,0.341,1.494,0.225,2.269c-0.024,0.159-0.076,0.319-0.147,0.465c-0.362,0.744-0.292,1.443,0.156,2.135
		c0.198,0.304,0.329,0.651,0.494,0.978c0.355,0.704,0.36,1.38-0.034,2.092c-0.165,0.299-0.146,0.699-0.205,1.055
		c-0.029,0.181-0.019,0.37-0.071,0.542c-0.416,1.376-0.848,2.746-1.263,4.121c-0.098,0.326-0.214,0.668-0.202,0.998
		c0.007,0.176,0.27,0.343,0.417,0.514c0.142-0.146,0.358-0.271,0.414-0.445c0.267-0.838,0.501-1.042,1.373-1.077L32.367,150.998z
		 M43.007,55.205c0-0.001,0-0.003,0-0.005c-0.651,0-1.304,0.038-1.952-0.007c-2.171-0.149-3.991,0.88-5.874,1.704
		c-0.054,0.024-0.105,0.065-0.145,0.11c-0.781,0.905-1.576,1.8-2.324,2.73c-0.126,0.156-0.054,0.471-0.073,0.713
		c0.247-0.007,0.562,0.081,0.726-0.039c0.459-0.335,0.928-0.336,1.449-0.271c0.27,0.034,0.56-0.025,0.831-0.086
		c1.026-0.234,2.063-0.629,2.937,0.369c0.073,0.083,0.213,0.14,0.328,0.151c1.127,0.11,2.254,0.256,3.384,0.293
		c0.868,0.028,1.739-0.108,2.61-0.132c0.61-0.017,0.765-0.145,0.722-0.75c-0.04-0.564,0.063-0.645,0.617-0.501
		c0.647,0.168,1.294,0.344,1.946,0.493c0.606,0.138,0.764,0.354,0.538,0.947c-0.219,0.573-0.066,1.043,0.304,1.463
		c0.213,0.241,0.512,0.408,0.716,0.655c0.137,0.166,0.284,0.444,0.235,0.62c-0.153,0.558-1.51,0.735-1.915,0.304
		c-0.424-0.453-0.864-0.896-1.336-1.297c-1.251-1.061-1.321-1.041-1.863,0.516c-0.235,0.676-0.644,1.102-1.364,1.237
		c-0.334,0.063-0.703,0.143-0.969,0.335c-0.854,0.62-1.83,0.742-2.83,0.814c-0.526,0.038-1.055,0.059-1.579,0.116
		c-1.06,0.114-1.125,0.179-1.368,1.21c-0.284,1.202-1.165,1.655-2.307,1.172c-0.645-0.272-1.316-0.31-1.861,0.109
		c-0.602,0.461-1.118,1.044-1.631,1.61c-0.379,0.418-0.449,0.922-0.288,1.484c0.092,0.322,0.092,0.683,0.073,1.023
		c-0.065,1.127,0.301,2.075,1.274,2.655c0.67,0.399,0.729,0.873,0.667,1.577c-0.11,1.226-0.15,2.47-0.072,3.697
		c0.066,1.039,0.334,2.065,0.525,3.095c0.475,2.56,0.061,5.102-0.152,7.646c-0.049,0.587,0.082,1.038,0.444,1.516
		c0.444,0.584,0.929,1.229,1.085,1.919c0.242,1.064,0.517,2.082,1.125,2.995c0.637,0.954,0.763,1.993,0.503,3.094
		c-0.195,0.828-0.611,0.971-1.329,0.514c-0.401-0.255-0.84-0.472-1.29-0.625c-0.694-0.235-0.906-0.521-0.877-1.252
		c0.013-0.334-0.023-0.688-0.124-1.006c-0.255-0.807-0.558-1.599-0.843-2.396c-0.178-0.497-0.304-1.023-0.561-1.477
		c-0.154-0.271-0.514-0.424-0.781-0.63c-0.159,0.329-0.323,0.657-0.475,0.99c-0.021,0.047,0.005,0.12,0.02,0.179
		c0.435,1.771,0.822,3.558,1.333,5.307c0.19,0.652,0.472,1.354,1.208,1.685c1.177,0.529,1.639,1.324,1.595,2.662
		c-0.005,0.158-0.012,0.368,0.078,0.466c0.164,0.181,0.384,0.367,0.609,0.415c0.177,0.037,0.527-0.09,0.567-0.218
		c0.055-0.177-0.096-0.427-0.179-0.637c-0.104-0.263-0.276-0.506-0.337-0.775c-0.161-0.715,0.622-1.624,1.34-1.561
		c0.794,0.07,1.468,0.403,1.838,1.136c0.503,0.996,1.026,1.993,1.402,3.039c0.304,0.846,0.785,1.334,1.656,1.488
		c0.754,0.133,1.284,0.589,1.811,1.143c0.696,0.73,1.497,1.377,2.635,1.325c0.355-0.017,0.737,0.06,1.072,0.187
		c0.982,0.375,1.954,0.782,2.917,1.205c0.874,0.383,1.379,1.143,1.194,1.902c-0.16,0.658,0.134,1.048,0.581,1.413
		c0.429,0.35,0.896,0.361,1.371,0.123c0.604-0.302,1.208-0.283,1.836-0.087c0.483,0.15,1.001,0.213,1.461,0.412
		c0.347,0.149,0.635,0.445,0.936,0.692c0.309,0.254,0.569,0.585,0.91,0.777c0.474,0.268,1.002,0.438,1.507,0.65
		c0.812,0.341,1.381,0.076,1.61-0.797c0.137-0.52,0.443-0.794,0.955-0.894c0.319-0.062,0.627-0.186,0.947-0.233
		c1.135-0.172,2.275-0.31,3.408-0.494c0.281-0.046,0.622-0.146,0.796-0.345c0.452-0.515,0.833-1.093,1.23-1.654
		c0.315-0.447,0.717-0.657,1.259-0.495c0.47,0.141,0.8-0.04,1.024-0.435c0.2-0.353,0.357-0.729,0.552-1.086
		c0.444-0.819,0.914-0.987,1.742-0.586c0.543,0.265,0.981,0.13,1.384-0.256c0.132-0.126,0.233-0.284,0.366-0.409
		c0.796-0.741,1.15-0.945,1.505,0.238c0.023,0.077,0.068,0.148,0.113,0.216c0.34,0.515,0.809,0.562,1.191,0.075
		c0.196-0.249,0.325-0.561,0.441-0.861c0.461-1.189,0.46-1.195,1.73-1.018c0.55,0.076,0.966-0.065,1.13-0.657
		c0.037-0.135,0.096-0.272,0.177-0.386c0.717-1.008,1.48-1.985,2.15-3.023c0.399-0.617,0.658-1.326,0.977-1.996
		c0.197-0.417,0.277-1.003,0.605-1.224c0.831-0.562,1.293-1.38,1.865-2.139c0.565-0.749,0.793-1.583,0.918-2.479
		c0.072-0.521,0.083-1.098,0.321-1.542c0.568-1.065,0.314-2.037-0.096-3.044c-0.103-0.249-0.137-0.542-0.136-0.814
		c0.01-1.284-0.375-2.444-1.171-3.432c-0.604-0.749-1.097-1.535-1.144-2.5c-0.02-0.383,0.212-0.778,0.33-1.168
		c0.292,0.142,0.585,0.283,0.876,0.426c0.018,0.009,0.03,0.027,0.046,0.04c0.365,0.319,0.693,0.271,0.873-0.17
		c0.229-0.562,0.432-1.142,0.578-1.729c0.383-1.532-0.1-3.08,0.08-4.645c0.145-1.26-0.179-2.573,0.355-3.821
		c0.174-0.407-0.021-0.75-0.34-1.025c-0.393-0.34-0.36-0.633,0.076-0.918c0.523-0.342,0.616-0.77,0.349-1.366
		c-0.161-0.358-0.228-0.834-0.144-1.215c0.368-1.676,0.029-3.307-0.245-4.939c-0.054-0.319-0.283-0.633-0.501-0.891
		c-0.159-0.188-0.415-0.343-0.655-0.404c-1.214-0.31-2.518,0.751-2.468,1.988c0.024,0.581-0.171,1.027-0.699,1.313
		c-1.02,0.552-2.071,0.678-3.069,0.036c-2.432-1.562-5.165-1.973-7.957-2.165c-0.588-0.041-1.051-0.164-1.421-0.659
		c-0.143-0.191-0.543-0.411-0.69-0.34c-1.078,0.525-2.086,0.032-3.094-0.177c-0.932-0.193-1.219-0.88-0.869-1.765
		c0.097-0.245,0.203-0.49,0.342-0.712c0.744-1.18,1.981-1.389,3.211-1.607c0.438-0.078,0.68,0.017,0.708,0.548
		c0.013,0.223,0.31,0.582,0.52,0.616c1.178,0.191,2.373,0.279,3.556,0.448c0.815,0.116,1.626,0.283,2.43,0.47
		c0.829,0.193,1.669,0.54,2.447-0.065c0.41-0.32,0.8-0.37,1.242-0.177c0.354,0.154,0.688,0.351,1.037,0.512
		c0.667,0.307,1.169,0.715,1.195,1.538c0.005,0.16,0.243,0.417,0.4,0.439c0.162,0.023,0.448-0.146,0.521-0.303
		c0.342-0.754,0.738-1.509,0.906-2.308c0.179-0.846-0.171-2.149-1.227-2.542c-0.518-0.193-1.065-0.508-1.405-0.926
		c-0.509-0.625-1.101-0.994-1.855-1.184c-0.272-0.069-0.546-0.173-0.792-0.311c-1.877-1.055-3.901-1.15-5.977-0.948
		c-0.626,0.061-1.256,0.172-1.88,0.152c-1.521-0.049-3.042-0.149-4.562-0.255c-0.663-0.046-1.212-0.344-1.548-0.943
		c-0.084-0.15-0.146-0.346-0.131-0.513c0.099-1.059,1.521-2.449,2.587-2.546c1.395-0.127,2.789-0.274,4.187-0.366
		c0.785-0.051,1.59-0.095,2.364,0.015c1.301,0.185,2.487,0.142,3.555-0.774c0.207-0.178,0.726-0.087,1.066,0.005
		c0.662,0.178,1.299,0.449,1.948,0.673c0.707,0.245,1.416,0.482,2.125,0.721c0.135,0.045,0.272,0.117,0.407,0.112
		c0.127-0.004,0.304-0.061,0.361-0.154c0.049-0.081-0.012-0.261-0.073-0.37c-0.068-0.12-0.194-0.206-0.292-0.309
		c-0.912-0.965-0.78-1.889,0.385-2.469c0.516-0.258,0.768-0.607,0.736-1.198c-0.125-2.348-0.456-4.63-1.572-6.761
		c-0.503-0.958-0.726-2.059-1.179-3.047c-0.332-0.723-0.747-1.447-1.282-2.024c-0.418-0.449-0.701-0.867-0.729-1.468
		c-0.013-0.263-0.021-0.53-0.073-0.787c-0.145-0.708-0.475-0.837-1.05-0.394c-0.419,0.322-0.661,0.183-0.842-0.24
		c-0.048-0.111-0.081-0.229-0.118-0.346c-0.221-0.682-0.786-0.924-1.408-0.996c-0.562-0.065-0.877,0.284-1.047,0.82
		c-0.138,0.436-0.508,0.555-0.938,0.458c-0.658-0.15-1.019-0.75-0.766-1.395c0.203-0.516,0.039-0.814-0.393-1.053
		c-0.355-0.196-0.739-0.354-1.062-0.595c-1.297-0.969-2.708-1.63-4.3-2.011c-1.117-0.268-2.185-0.336-3.308-0.181
		c-0.609,0.084-1.258,0.106-1.857-0.008c-1.308-0.251-2.614-0.219-3.855,0.151c-1.32,0.394-2.556,0.443-3.866,0.003
		c-0.658-0.221-1.394-0.259-2.098-0.29c-1.278-0.055-2.56-0.058-3.84-0.052c-0.601,0.002-1.207,0.039-1.801,0.125
		c-0.538,0.079-1.058,0.274-1.595,0.37c-1.286,0.229-1.508,0.512-1.334,1.794c0.193,1.435-0.271,2.226-1.587,2.799
		c-0.365,0.159-0.786,0.35-1.007,0.653c-0.968,1.326-1.906,2.677-2.787,4.063c-0.486,0.765-0.219,1.277,0.657,1.457
		c0.613,0.126,1.173,0.382,1.405,0.958c0.401,0.994,0.996,2.012,0.187,3.098c-0.079,0.106-0.096,0.266-0.121,0.404
		c-0.135,0.76-0.217,1.533-0.412,2.277c-0.13,0.499-0.316,1.051-0.656,1.409c-0.529,0.558-0.654,1.03-0.18,1.65
		c0.09,0.118,0.128,0.309,0.122,0.463c-0.029,0.829,0.469,1.32,1.147,1.553c0.757,0.261,1.564,0.452,2.361,0.503
		c0.968,0.062,1.946-0.083,2.92-0.086c1.283-0.003,2.34,0.506,3.063,1.583c0.314,0.468,0.538,0.998,0.796,1.502
		c0.24,0.467,0.561,0.782,1.092,0.98c0.324,0.121,0.706,0.576,0.73,0.906c0.048,0.647,0.298,1.123,0.725,1.553
		c1.323,1.332,2.33,2.87,2.92,4.653c0.269,0.812,0.391,1.668,0.06,2.505c-0.364,0.92-0.299,1.858-0.254,2.82
		c0.045,0.961,0.088,1.981-0.178,2.883c-0.275,0.927-0.396,1.792-0.282,2.742c0.133,1.103,0.185,2.159-1.089,2.818
		c-0.823,0.425-0.909,1.502-0.407,2.318c0.244,0.397,0.445,0.822,0.702,1.211c1.214,1.845,2.205,2.604,4.217,2.312
		c0.553-0.081,1.113-0.107,1.668-0.174c0.176-0.021,0.381-0.046,0.512-0.147c0.555-0.432,1.098-0.88,1.624-1.346
		c0.913-0.806,1.254-0.825,2.197-0.071c0.542,0.433,0.908,0.441,1.204,0.027c0.431-0.603,0.353-1.176-0.226-1.514
		c-0.19-0.112-0.407-0.18-0.617-0.256c-0.396-0.145-0.616-0.382-0.487-0.834c0.178-0.623-0.09-1.05-0.517-1.511
		c-0.974-1.053-1.889-2.164-2.776-3.292c-0.16-0.204-0.132-0.61-0.085-0.907c0.057-0.354,0.234-0.688,0.348-1.036
		c0.288-0.889,0.394-0.909,1.242-0.512c0.248,0.116,0.597,0.017,0.899,0.017c-0.019-0.265,0.045-0.573-0.069-0.786
		c-0.45-0.837-0.958-1.643-1.438-2.463c-0.092-0.156-0.179-0.32-0.233-0.492c-0.16-0.498-0.285-1.006-0.455-1.5
		c-0.177-0.51-0.051-0.901,0.383-1.062c0.419-0.156,1.057,0.099,1.051,0.542c-0.012,0.959,0.476,1.632,1.02,2.319
		c0.158,0.2,0.214,0.479,0.322,0.721c0.278,0.627,0.534,1.267,0.85,1.875c0.234,0.453,0.305,0.845-0.139,1.19
		c-0.384,0.298-0.42,0.646-0.245,1.081c0.256,0.639,0.64,1.286,0.668,1.943c0.048,1.073,0.464,1.901,1.113,2.694
		c0.462,0.564,0.635,1.254,0.377,1.949c-0.241,0.649-0.104,1.158,0.275,1.7c0.374,0.536,0.57,1.201,0.209,1.785
		c-0.668,1.08-1.582,1.864-2.96,1.836c-0.548-0.011-1.096-0.049-1.643-0.076c-0.557-0.027-0.687,0.152-0.547,0.665
		c0.051,0.187,0.057,0.495-0.054,0.588c-0.126,0.106-0.403,0.055-0.613,0.038c-0.391-0.03-0.786-0.152-1.168-0.114
		c-0.825,0.082-1.643,0.247-2.464,0.368c-1.544,0.228-3.088,0.449-4.633,0.673c-0.696,0.101-1.355,0.132-1.959-0.38
		c-0.275-0.233-0.68-0.353-1.046-0.431c-1.039-0.22-2.015-0.366-2.924-1.147c-0.962-0.826-1.196-1.736-1.143-2.827
		c0.032-0.656,0.064-1.42,0.404-1.931c0.723-1.086,1.236-2.224,1.592-3.468c0.226-0.792,0.204-1.518-0.17-2.242
		c-0.186-0.361-0.352-0.735-0.553-1.087c-0.333-0.584-0.258-1.087,0.142-1.632c0.49-0.667,0.888-1.399,1.34-2.095
		c0.242-0.373,0.469-0.77,0.776-1.083c1.252-1.277,1.656-2.85,1.651-4.568c-0.002-0.771-0.005-1.549-0.118-2.308
		c-0.059-0.4-0.291-0.82-0.559-1.134c-0.405-0.473-0.921-0.851-1.371-1.289c-0.375-0.365-0.655-0.896-1.096-1.113
		c-1.143-0.562-2.315-1.106-3.661-0.991C44.149,55.245,43.576,55.205,43.007,55.205 M28.799,8.425
		c-0.322,0.039-0.658,0.033-0.959,0.133c-0.197,0.065-0.344,0.284-0.513,0.434c0.184,0.156,0.349,0.41,0.555,0.449
		c0.515,0.097,1.049,0.085,1.573,0.139c0.531,0.055,0.899,0.577,0.813,1.163c-0.077,0.528-0.503,0.531-0.891,0.509
		c-0.615-0.034-1.185-0.161-1.655-0.644c-0.436-0.446-0.978-0.71-1.656-0.544c-0.907,0.221-1.64,0.726-2.212,1.424
		c-0.233,0.285-0.343,0.724-0.376,1.104c-0.04,0.458,0.264,0.847,0.727,0.771c0.265-0.043,0.6-0.415,0.671-0.696
		c0.116-0.459,0.178-0.869,0.712-1.008c0.59-0.154,1.137-0.224,1.651,0.257c0.285,0.266,0.683,0.409,1.022,0.62
		c0.472,0.293,0.935,0.6,1.405,0.895c0.165,0.104,0.361,0.293,0.51,0.266c0.846-0.156,1.688-0.341,2.518-0.568
		c0.383-0.105,0.748-0.304,1.096-0.504c0.229-0.132,0.585-0.347,0.579-0.515c-0.008-0.234-0.267-0.497-0.478-0.679
		c-0.395-0.339-0.868-0.59-1.241-0.948c-0.474-0.454-0.916-0.915-1.605-1.036c-0.165-0.029-0.346-0.153-0.454-0.286
		C30.123,8.584,29.516,8.393,28.799,8.425 M43.481,7.927c0.007,0.044,0.014,0.087,0.021,0.131c0.36-0.046,0.826,0.034,1.063-0.161
		c0.942-0.775,2.118-1.141,3.074-1.855c0.323-0.242,0.433-0.766,0.641-1.161c-0.44-0.09-0.883-0.261-1.322-0.254
		c-1.402,0.021-2.618,0.706-3.839,1.273c-0.852,0.396-1.6,1.028-2.353,1.609C40.591,7.643,40.587,8,40.505,8.254
		c0.237,0.032,0.482,0.119,0.709,0.084C41.974,8.225,42.726,8.067,43.481,7.927 M29.533,66.483
		c-0.111-0.385-0.115-0.696-0.271-0.871c-0.234-0.262-0.625-0.639-0.858-0.583c-0.304,0.073-0.68,0.492-0.736,0.813
		c-0.121,0.691-0.097,1.417-0.048,2.122c0.018,0.251,0.264,0.668,0.435,0.684c0.258,0.023,0.672-0.171,0.79-0.394
		C29.15,67.672,29.332,67.025,29.533,66.483 M16.863,82.543c-0.094-0.212-0.232-0.616-0.455-0.965
		c-0.073-0.115-0.418-0.185-0.552-0.113c-0.801,0.429-1.194,1.81-0.758,2.62c0.065,0.122,0.288,0.244,0.422,0.229
		C16.048,84.254,16.877,83.255,16.863,82.543 M38.462,39.979c-0.005-0.458-0.367-0.868-0.764-0.866
		c-0.414,0.002-0.924,0.542-0.92,0.973c0.005,0.449,0.425,0.932,0.801,0.921C37.947,40.996,38.467,40.39,38.462,39.979
		 M85.224,125.074c0.252-0.296,0.486-0.467,0.542-0.684c0.026-0.105-0.326-0.449-0.427-0.419c-0.25,0.076-0.455,0.304-0.678,0.471
		C84.814,124.615,84.969,124.788,85.224,125.074 M20.3,91.15c0.452,0.236,0.825,0.491,1.198,0.062
		c0.068-0.079-0.011-0.431-0.118-0.493C20.942,90.462,20.631,90.709,20.3,91.15"/>
	<path fill="#231F20" d="M110.642,162.932c-0.809,0-1.561,0.021-2.309-0.017c-0.153-0.009-0.317-0.221-0.437-0.37
		c-0.109-0.138-0.122-0.37-0.249-0.473c-0.691-0.556-1.377-1.127-2.116-1.614c-2.052-1.353-4.446-1.522-6.78-1.891
		c-0.321-0.051-0.649-0.075-0.96-0.164c-1.245-0.356-1.792-1.234-1.52-2.501c0.105-0.488,0.323-0.956,0.504-1.428
		c0.238-0.624,0.484-1.245,0.741-1.862c0.154-0.372,0.329-0.735,0.506-1.098c0.071-0.146,0.228-0.269,0.248-0.415
		c0.262-1.853,1.649-3.135,2.383-4.746c0.076-0.167,0.184-0.324,0.229-0.498c0.313-1.193,0.64-2.385,0.904-3.589
		c0.084-0.383,0.211-0.509,0.591-0.49c0.649,0.031,1.301,0.027,1.951,0.019c0.583-0.007,1.108,0.071,1.579,0.49
		c0.197,0.177,0.563,0.204,0.858,0.224c0.526,0.034,1.057-0.003,1.585,0.014c0.646,0.021,1.166,0.492,1.11,1.113
		c-0.079,0.886,0.173,1.569,0.857,2.154c0.222,0.189,0.358,0.601,0.359,0.911c0.006,4.432-0.02,8.864-0.035,13.296
		C110.639,160.949,110.642,161.9,110.642,162.932"/>
	<path fill="#231F20" d="M10.02,162.926c-0.589,0-1.179-0.009-1.768,0.003c-0.494,0.01-0.574-0.261-0.394-0.622
		c0.132-0.265,0.405-0.458,0.543-0.721c0.123-0.233,0.249-0.553,0.177-0.77c-0.052-0.157-0.422-0.213-0.655-0.306
		c-0.053-0.021-0.124-0.016-0.181-0.002c-1.334,0.321-2.149-0.605-3.059-1.287c-0.128-0.096-0.191-0.299-0.25-0.465
		c-0.169-0.482-0.324-0.969-0.475-1.456c-0.034-0.109-0.048-0.232-0.042-0.348c0.062-1.127,0.144-2.253,0.184-3.381
		c0.007-0.199-0.1-0.463-0.246-0.596c-0.421-0.383-0.499-0.84-0.494-1.374c0.018-1.707,0.01-3.414-0.002-5.121
		c-0.003-0.417,0.056-0.854,0.49-0.931c0.266-0.046,0.623,0.173,0.877,0.358c0.871,0.635,1.002,1.771,1.67,2.555
		c0.272,0.321,0.493,0.692,0.698,1.062c0.203,0.366,0.413,0.745,0.515,1.146c0.131,0.509,0.383,0.862,0.833,1.135
		c1.147,0.695,2.088,1.568,2.67,2.834c0.351,0.762,0.909,1.433,1.394,2.13c0.716,1.032,1.455,2.048,2.175,3.076
		c0.43,0.612,0.237,1.347-0.457,1.675c-0.309,0.146-0.651,0.228-0.983,0.32c-0.445,0.124-0.851,0.257-0.937,0.819
		c-0.017,0.111-0.295,0.251-0.458,0.26c-0.608,0.031-1.218,0.012-1.828,0.012C10.02,162.931,10.02,162.928,10.02,162.926"/>
	<path fill="#231F20" d="M49.568,136.87c0,0.365,0.021,0.731-0.005,1.095c-0.035,0.467-0.306,0.641-0.755,0.504
		c-0.653-0.2-1.139-0.609-1.448-1.216c-0.23-0.45-0.389-0.945-0.667-1.361c-0.229-0.341-0.62-0.568-0.881-0.893
		c-0.202-0.249-0.474-0.605-0.42-0.849c0.053-0.239,0.476-0.399,0.742-0.586c0.044-0.03,0.119-0.018,0.178-0.027
		c1.902-0.326,3.263,0.833,3.271,2.786c0,0.183,0,0.365,0,0.547C49.577,136.87,49.573,136.87,49.568,136.87"/>
	<path fill="#231F20" d="M32.384,151.015c0.015-0.586-0.006-1.175,0.063-1.754c0.026-0.215,0.265-0.404,0.407-0.605
		c0.16,0.164,0.376,0.302,0.47,0.498c0.456,0.953,0.041,1.731-0.957,1.845L32.384,151.015"/>
	<path fill="#231F20" d="M40.179,130.718c-0.231,0.197-0.44,0.438-0.492,0.408c-0.179-0.103-0.368-0.282-0.423-0.472
		c-0.03-0.103,0.202-0.281,0.315-0.427C39.75,130.368,39.923,130.509,40.179,130.718"/>
	<path fill="#231F20" d="M82.945,153.882c0.17-0.501,0.29-0.852,0.448-1.317C83.734,153.266,83.621,153.646,82.945,153.882"/>
	<path fill="#231F20" d="M82.345,156.833c0.026,0.052,0.085,0.112,0.073,0.151c-0.083,0.264-0.182,0.521-0.274,0.781
		c-0.08-0.044-0.232-0.102-0.228-0.131c0.053-0.292,0.132-0.58,0.204-0.868L82.345,156.833z"/>
	<path fill="#FFFFFF" d="M43.007,55.205c0.569,0,1.142,0.04,1.708-0.008c1.346-0.115,2.518,0.429,3.661,0.992
		c0.44,0.217,0.721,0.747,1.096,1.112c0.45,0.438,0.965,0.815,1.371,1.29c0.268,0.313,0.5,0.733,0.56,1.133
		c0.112,0.759,0.115,1.538,0.118,2.309c0.005,1.718-0.399,3.292-1.651,4.568c-0.308,0.313-0.535,0.71-0.776,1.083
		c-0.452,0.696-0.85,1.429-1.34,2.095c-0.4,0.544-0.475,1.048-0.142,1.632c0.201,0.353,0.366,0.726,0.553,1.087
		c0.374,0.724,0.396,1.451,0.17,2.242c-0.355,1.245-0.868,2.382-1.592,3.468c-0.34,0.511-0.373,1.275-0.404,1.931
		c-0.053,1.091,0.181,2,1.143,2.827c0.909,0.781,1.885,0.928,2.924,1.148c0.366,0.077,0.771,0.196,1.046,0.43
		c0.604,0.512,1.263,0.48,1.959,0.38c1.544-0.224,3.089-0.445,4.633-0.673c0.821-0.121,1.639-0.286,2.464-0.368
		c0.382-0.038,0.777,0.084,1.168,0.114c0.21,0.017,0.487,0.068,0.613-0.038c0.11-0.093,0.104-0.401,0.054-0.588
		c-0.14-0.513-0.01-0.692,0.547-0.665c0.547,0.027,1.095,0.066,1.643,0.076c1.378,0.027,2.292-0.757,2.96-1.836
		c0.361-0.584,0.165-1.249-0.209-1.785c-0.38-0.542-0.517-1.05-0.275-1.7c0.258-0.695,0.085-1.384-0.377-1.949
		c-0.649-0.792-1.065-1.621-1.113-2.693c-0.028-0.657-0.412-1.305-0.668-1.943c-0.175-0.435-0.139-0.782,0.245-1.082
		c0.443-0.345,0.373-0.737,0.139-1.19c-0.315-0.608-0.571-1.248-0.85-1.875c-0.108-0.241-0.164-0.521-0.322-0.721
		c-0.544-0.688-1.031-1.36-1.019-2.32c0.005-0.442-0.633-0.697-1.052-0.542c-0.434,0.161-0.56,0.552-0.383,1.062
		c0.17,0.494,0.296,1.002,0.455,1.5c0.055,0.171,0.142,0.335,0.233,0.491c0.48,0.821,0.988,1.626,1.438,2.464
		c0.114,0.213,0.051,0.521,0.069,0.785c-0.303,0.001-0.651,0.1-0.899-0.016c-0.849-0.397-0.954-0.377-1.242,0.512
		c-0.113,0.347-0.291,0.681-0.348,1.036c-0.047,0.296-0.075,0.703,0.085,0.907c0.888,1.128,1.803,2.239,2.776,3.292
		c0.428,0.461,0.694,0.888,0.517,1.512c-0.129,0.451,0.092,0.689,0.487,0.834c0.209,0.077,0.427,0.145,0.617,0.256
		c0.578,0.338,0.656,0.912,0.226,1.514c-0.296,0.414-0.662,0.405-1.204-0.027c-0.943-0.754-1.285-0.735-2.197,0.072
		c-0.526,0.465-1.069,0.914-1.624,1.345c-0.131,0.102-0.336,0.126-0.512,0.147c-0.555,0.067-1.115,0.094-1.668,0.174
		c-2.013,0.292-3.003-0.467-4.217-2.312c-0.256-0.389-0.457-0.813-0.702-1.21c-0.502-0.816-0.416-1.893,0.407-2.318
		c1.274-0.659,1.223-1.715,1.089-2.818c-0.114-0.949,0.007-1.814,0.281-2.742c0.267-0.902,0.224-1.922,0.179-2.883
		c-0.045-0.962-0.11-1.9,0.254-2.82c0.332-0.837,0.209-1.693-0.06-2.505c-0.59-1.784-1.597-3.322-2.92-4.653
		c-0.427-0.43-0.677-0.905-0.725-1.553c-0.024-0.33-0.406-0.785-0.73-0.905c-0.531-0.199-0.852-0.513-1.092-0.981
		c-0.259-0.505-0.482-1.035-0.796-1.502c-0.723-1.077-1.781-1.586-3.063-1.583c-0.974,0.002-1.953,0.148-2.92,0.086
		c-0.796-0.051-1.604-0.242-2.361-0.503c-0.678-0.233-1.177-0.724-1.147-1.553c0.005-0.155-0.032-0.345-0.123-0.463
		c-0.475-0.62-0.349-1.092,0.18-1.65c0.34-0.358,0.526-0.911,0.656-1.409c0.194-0.744,0.276-1.517,0.411-2.277
		c0.025-0.139,0.042-0.298,0.121-0.405c0.809-1.086,0.214-2.104-0.187-3.098c-0.232-0.576-0.792-0.833-1.406-0.958
		c-0.875-0.18-1.142-0.692-0.656-1.457c0.88-1.385,1.818-2.737,2.787-4.062c0.221-0.304,0.642-0.494,1.007-0.654
		c1.316-0.573,1.78-1.364,1.587-2.799c-0.173-1.283,0.049-1.566,1.334-1.794c0.537-0.095,1.057-0.291,1.595-0.37
		c0.594-0.087,1.2-0.123,1.801-0.125c1.28-0.006,2.562-0.003,3.84,0.052c0.705,0.03,1.44,0.069,2.098,0.29
		c1.311,0.44,2.546,0.391,3.866-0.003c1.241-0.371,2.548-0.402,3.855-0.151c0.6,0.115,1.248,0.092,1.857,0.008
		c1.123-0.156,2.19-0.087,3.308,0.181c1.592,0.381,3.003,1.042,4.3,2.01c0.322,0.241,0.706,0.399,1.062,0.596
		c0.432,0.238,0.596,0.537,0.393,1.052c-0.253,0.645,0.107,1.245,0.766,1.395c0.43,0.098,0.8-0.021,0.938-0.458
		c0.169-0.536,0.484-0.885,1.046-0.82c0.623,0.072,1.188,0.314,1.408,0.997c0.037,0.116,0.071,0.234,0.119,0.346
		c0.18,0.422,0.422,0.562,0.841,0.239c0.575-0.443,0.905-0.313,1.05,0.394c0.053,0.257,0.061,0.524,0.073,0.787
		c0.028,0.6,0.312,1.019,0.729,1.468c0.535,0.577,0.95,1.301,1.282,2.024c0.453,0.988,0.676,2.089,1.179,3.047
		c1.116,2.131,1.447,4.413,1.572,6.761c0.031,0.591-0.221,0.94-0.737,1.198c-1.164,0.581-1.296,1.504-0.384,2.469
		c0.099,0.103,0.224,0.19,0.291,0.309c0.062,0.108,0.123,0.289,0.074,0.369c-0.058,0.094-0.234,0.15-0.361,0.155
		c-0.135,0.005-0.272-0.066-0.407-0.112c-0.709-0.239-1.418-0.476-2.125-0.721c-0.649-0.225-1.286-0.496-1.948-0.673
		c-0.341-0.092-0.859-0.183-1.066-0.005c-1.067,0.916-2.254,0.96-3.555,0.774c-0.774-0.11-1.579-0.066-2.364-0.015
		c-1.397,0.091-2.792,0.238-4.187,0.366c-1.065,0.098-2.488,1.487-2.587,2.546c-0.016,0.167,0.047,0.363,0.131,0.513
		c0.336,0.6,0.885,0.898,1.548,0.944c1.52,0.105,3.04,0.206,4.562,0.254c0.624,0.021,1.254-0.09,1.88-0.151
		c2.075-0.202,4.1-0.107,5.977,0.948c0.246,0.138,0.52,0.242,0.793,0.312c0.754,0.189,1.346,0.557,1.854,1.183
		c0.34,0.417,0.888,0.733,1.405,0.926c1.056,0.393,1.405,1.697,1.227,2.543c-0.168,0.798-0.564,1.554-0.906,2.308
		c-0.072,0.157-0.358,0.326-0.521,0.303c-0.157-0.022-0.396-0.279-0.4-0.439c-0.026-0.823-0.528-1.231-1.195-1.538
		c-0.35-0.161-0.684-0.358-1.037-0.512c-0.442-0.193-0.832-0.143-1.242,0.177c-0.778,0.605-1.618,0.258-2.447,0.065
		c-0.804-0.187-1.614-0.353-2.43-0.47c-1.183-0.169-2.378-0.257-3.556-0.448c-0.21-0.034-0.507-0.394-0.52-0.616
		c-0.028-0.531-0.271-0.625-0.708-0.547c-1.229,0.218-2.467,0.427-3.211,1.607c-0.14,0.221-0.245,0.467-0.342,0.711
		c-0.35,0.885-0.062,1.572,0.87,1.765c1.007,0.208,2.015,0.702,3.093,0.177c0.147-0.071,0.548,0.149,0.69,0.34
		c0.37,0.495,0.833,0.619,1.421,0.659c2.792,0.192,5.525,0.603,7.957,2.165c0.998,0.642,2.05,0.516,3.069-0.036
		c0.528-0.286,0.724-0.732,0.7-1.313c-0.051-1.237,1.253-2.298,2.467-1.989c0.24,0.062,0.496,0.217,0.655,0.404
		c0.218,0.258,0.447,0.572,0.501,0.891c0.274,1.633,0.613,3.263,0.245,4.939c-0.084,0.38-0.018,0.856,0.144,1.215
		c0.268,0.596,0.174,1.023-0.349,1.366c-0.437,0.285-0.469,0.578-0.076,0.918c0.318,0.275,0.514,0.619,0.34,1.026
		c-0.534,1.247-0.211,2.56-0.355,3.82c-0.18,1.565,0.303,3.113-0.08,4.645c-0.146,0.588-0.349,1.168-0.578,1.729
		c-0.18,0.441-0.508,0.489-0.873,0.17c-0.016-0.013-0.028-0.031-0.046-0.04c-0.291-0.143-0.584-0.284-0.876-0.426
		c-0.118,0.391-0.35,0.785-0.33,1.169c0.047,0.964,0.54,1.75,1.145,2.5c0.795,0.986,1.18,2.146,1.17,3.431
		c-0.001,0.272,0.033,0.565,0.136,0.815c0.41,1.006,0.664,1.978,0.096,3.043c-0.238,0.444-0.249,1.02-0.321,1.542
		c-0.125,0.896-0.353,1.729-0.918,2.479c-0.572,0.76-1.034,1.578-1.865,2.14c-0.328,0.221-0.408,0.807-0.605,1.224
		c-0.318,0.67-0.577,1.379-0.977,1.997c-0.671,1.037-1.434,2.015-2.15,3.022c-0.081,0.113-0.14,0.251-0.177,0.386
		c-0.164,0.592-0.58,0.733-1.13,0.656c-1.271-0.178-1.27-0.171-1.73,1.019c-0.116,0.3-0.245,0.612-0.441,0.861
		c-0.383,0.486-0.852,0.44-1.191-0.075c-0.045-0.067-0.09-0.139-0.113-0.216c-0.354-1.184-0.709-0.979-1.505-0.237
		c-0.133,0.124-0.234,0.282-0.366,0.408c-0.402,0.386-0.841,0.521-1.384,0.257c-0.828-0.402-1.298-0.234-1.742,0.585
		c-0.194,0.356-0.351,0.733-0.552,1.086c-0.225,0.395-0.555,0.575-1.024,0.435c-0.542-0.162-0.943,0.048-1.259,0.495
		c-0.397,0.562-0.779,1.14-1.23,1.654c-0.174,0.198-0.515,0.299-0.796,0.345c-1.133,0.185-2.273,0.322-3.408,0.494
		c-0.32,0.049-0.628,0.172-0.947,0.233c-0.512,0.1-0.818,0.374-0.955,0.894c-0.229,0.873-0.798,1.138-1.61,0.797
		c-0.505-0.212-1.033-0.382-1.507-0.65c-0.341-0.192-0.601-0.523-0.91-0.777c-0.301-0.247-0.589-0.543-0.936-0.692
		c-0.46-0.199-0.978-0.262-1.461-0.412c-0.628-0.196-1.233-0.215-1.836,0.087c-0.475,0.238-0.942,0.227-1.371-0.124
		c-0.447-0.364-0.741-0.754-0.581-1.412c0.185-0.76-0.32-1.52-1.194-1.903c-0.963-0.422-1.934-0.829-2.917-1.204
		c-0.334-0.127-0.717-0.203-1.072-0.187c-1.138,0.052-1.939-0.595-2.635-1.325c-0.527-0.554-1.057-1.01-1.811-1.143
		c-0.871-0.154-1.353-0.643-1.656-1.488c-0.375-1.046-0.898-2.043-1.402-3.039c-0.371-0.732-1.044-1.065-1.838-1.136
		c-0.718-0.063-1.501,0.846-1.34,1.561c0.061,0.27,0.232,0.513,0.337,0.775c0.083,0.21,0.234,0.46,0.179,0.638
		c-0.04,0.127-0.39,0.254-0.567,0.217c-0.226-0.048-0.445-0.234-0.609-0.415c-0.09-0.098-0.083-0.308-0.078-0.466
		c0.044-1.338-0.417-2.133-1.595-2.662c-0.736-0.331-1.018-1.032-1.208-1.685c-0.51-1.749-0.897-3.534-1.333-5.307
		c-0.015-0.059-0.042-0.132-0.02-0.179c0.152-0.333,0.315-0.661,0.475-0.99c0.267,0.206,0.627,0.359,0.781,0.63
		c0.256,0.453,0.383,0.979,0.561,1.477c0.285,0.797,0.588,1.589,0.843,2.396c0.101,0.318,0.137,0.672,0.124,1.006
		c-0.029,0.73,0.183,1.017,0.877,1.252c0.45,0.153,0.889,0.369,1.291,0.625c0.716,0.457,1.132,0.314,1.328-0.514
		c0.26-1.101,0.134-2.14-0.503-3.095c-0.609-0.912-0.883-1.93-1.125-2.994c-0.157-0.689-0.642-1.335-1.085-1.919
		c-0.362-0.477-0.493-0.929-0.444-1.516c0.212-2.545,0.626-5.087,0.152-7.646c-0.191-1.03-0.458-2.057-0.525-3.095
		c-0.078-1.227-0.038-2.471,0.072-3.697c0.062-0.704,0.003-1.177-0.667-1.577c-0.973-0.58-1.339-1.528-1.274-2.655
		c0.02-0.34,0.019-0.701-0.073-1.023c-0.161-0.562-0.091-1.067,0.288-1.484c0.513-0.566,1.029-1.148,1.631-1.611
		c0.545-0.418,1.216-0.381,1.861-0.108c1.142,0.483,2.023,0.03,2.307-1.172c0.244-1.031,0.308-1.096,1.368-1.21
		c0.524-0.057,1.053-0.078,1.579-0.116c1-0.072,1.976-0.194,2.83-0.814c0.266-0.193,0.635-0.271,0.969-0.335
		c0.721-0.136,1.129-0.562,1.364-1.237c0.542-1.557,0.612-1.577,1.863-0.516c0.473,0.401,0.912,0.844,1.336,1.297
		c0.404,0.432,1.762,0.253,1.915-0.304c0.048-0.176-0.099-0.454-0.235-0.62c-0.204-0.247-0.503-0.414-0.716-0.655
		c-0.37-0.42-0.522-0.891-0.304-1.463c0.226-0.593,0.068-0.809-0.538-0.947c-0.652-0.148-1.298-0.324-1.946-0.493
		c-0.553-0.144-0.656-0.062-0.617,0.5c0.043,0.606-0.112,0.734-0.722,0.751c-0.871,0.023-1.743,0.16-2.61,0.132
		c-1.13-0.037-2.256-0.183-3.384-0.293c-0.115-0.011-0.255-0.067-0.328-0.151c-0.874-0.998-1.911-0.603-2.937-0.369
		c-0.271,0.062-0.561,0.12-0.831,0.086c-0.521-0.065-0.99-0.064-1.449,0.271c-0.164,0.12-0.479,0.032-0.726,0.039
		c0.019-0.242-0.053-0.557,0.073-0.712c0.749-0.931,1.543-1.826,2.324-2.73c0.039-0.045,0.09-0.087,0.145-0.111
		c1.883-0.824,3.703-1.853,5.874-1.704c0.648,0.044,1.301,0.007,1.952,0.007C43.007,55.201,43.007,55.203,43.007,55.205
		 M49.495,89.275c-0.192,0.039-0.43,0.09-0.668,0.136c-1.094,0.208-2.186,0.423-3.282,0.619c-0.68,0.122-1.365,0.207-2.046,0.325
		c-0.432,0.075-0.565,0.356-0.454,0.764c0.183,0.667,0.356,1.336,0.561,1.995c0.146,0.472,0.433,0.848,0.968,0.889
		c0.718,0.055,1.392-0.039,2.046-0.431c1.645-0.983,3.207-2.166,5.199-2.408c0.704-0.085,1.406-0.189,2.109-0.279
		c1.126-0.144,2.252-0.287,3.379-0.419c0.765-0.088,1.536-0.122,2.296-0.24c0.74-0.114,1.465-0.354,2.216-0.044
		c0.135,0.056,0.337,0.036,0.476-0.023c0.791-0.335,1.541-0.16,2.316,0.082c0.408,0.128,0.869,0.168,1.295,0.129
		c0.445-0.041,0.771,0.045,1.103,0.351c0.292,0.269,0.641,0.51,1.008,0.655c1.394,0.551,1.752,1.041,1.766,2.57
		c0.003,0.335,0.165,0.5,0.45,0.299c0.979-0.689,1.957-1.382,2.887-2.135c0.498-0.403,0.627-1.101,0.396-1.619
		c-0.169-0.379-0.73-0.701-1.176-0.814c-0.877-0.221-1.797-0.27-2.695-0.406c-1.737-0.263-3.46-0.7-5.241-0.397
		c-0.116,0.02-0.242-0.035-0.363-0.032c-1.104,0.027-2.21,0.059-3.314,0.091c-0.04,0.001-0.079,0.022-0.119,0.028
		c-0.798,0.104-1.594,0.225-2.395,0.307c-0.786,0.079-1.578,0.109-2.365,0.177c-0.543,0.047-1.087,0.192-1.625,0.166
		C52.662,89.533,51.104,89.394,49.495,89.275 M49.861,98.73c0.546-0.03,1.092-0.081,1.638-0.083
		c0.492-0.002,0.834-0.223,0.992-0.659c0.253-0.7,0.802-1.024,1.432-1.309c0.493-0.223,0.983-0.483,1.408-0.812
		c0.44-0.343,0.428-0.71-0.071-0.961c-1.447-0.73-3.043-0.909-4.525-0.37c-0.764,0.277-1.35,0.686-2.255,0.502
		c-0.639-0.13-1.335,0.07-1.981-0.303c-0.346-0.2-0.678-0.001-0.645,0.429c0.04,0.522,0.239,1.015,0.821,1.16
		c0.671,0.167,1.041,0.604,1.364,1.19C48.421,98.208,49.012,98.701,49.861,98.73 M77.994,87.588h0.022
		c0-0.162-0.012-0.326,0.002-0.487c0.101-1.152-0.268-2.097-1.154-2.868c-0.343-0.299-0.64-0.697-0.841-1.107
		c-0.744-1.52-2.136-2.097-3.607-2.566c-0.388-0.123-0.666,0.113-0.532,0.469c0.154,0.41,0.456,0.78,0.753,1.115
		c0.292,0.329,0.694,0.56,0.986,0.889c1.042,1.177,1.999,2.438,3.108,3.545c0.561,0.559,0.742,1.116,0.708,1.832
		c-0.011,0.223-0.049,0.454-0.004,0.667c0.035,0.165,0.182,0.307,0.277,0.459c0.094-0.142,0.258-0.279,0.268-0.426
		C78.015,88.604,77.994,88.095,77.994,87.588 M64.271,96.018c0.492-0.054,0.865-0.05,1.208-0.149
		c0.202-0.059,0.467-0.261,0.499-0.437c0.032-0.168-0.154-0.453-0.324-0.57c-0.938-0.648-1.998-0.718-3.085-0.529
		c-0.165,0.028-0.327,0.16-0.458,0.28c-0.466,0.431-0.365,0.938,0.249,1.083C63.025,95.854,63.711,95.927,64.271,96.018
		 M84.492,92.566c0.035,0.099,0.058,0.411,0.226,0.565c0.181,0.167,0.565,0.328,0.743,0.243c0.608-0.292,0.911-1.83,0.546-2.402
		c-0.195-0.308-0.42-0.354-0.704-0.131C84.795,91.239,84.506,91.749,84.492,92.566 M68.444,94.769
		c-0.006-0.026-0.013-0.053-0.019-0.079c-0.367,0.098-0.759,0.145-1.094,0.307c-0.454,0.219-0.518,0.764-0.209,1.203
		c0.32,0.457,0.659,0.372,1.02,0.052c0.302-0.269,0.625-0.517,0.914-0.799c0.102-0.1,0.219-0.323,0.174-0.402
		c-0.075-0.131-0.267-0.213-0.425-0.273C68.7,94.736,68.565,94.769,68.444,94.769 M46.14,107.533
		c-0.168,0.269-0.286,0.379-0.309,0.507c-0.093,0.508,0.437,1.316,0.938,1.399c0.17,0.028,0.432-0.041,0.532-0.163
		c0.12-0.147,0.222-0.502,0.141-0.589C47.073,108.293,46.638,107.962,46.14,107.533 M85.229,95.536
		c0.099-0.023,0.198-0.047,0.297-0.069c-0.04-0.196-0.07-0.396-0.135-0.585c-0.007-0.023-0.199,0.017-0.306,0.026
		C85.133,95.117,85.18,95.327,85.229,95.536"/>
	<path fill="#FFFFFF" d="M28.799,8.425c0.717-0.033,1.324,0.159,1.793,0.736c0.108,0.133,0.289,0.256,0.454,0.286
		c0.689,0.121,1.131,0.582,1.605,1.036c0.373,0.358,0.847,0.609,1.241,0.948c0.211,0.182,0.47,0.445,0.478,0.679
		c0.006,0.167-0.35,0.383-0.579,0.515c-0.348,0.2-0.713,0.399-1.096,0.504c-0.83,0.227-1.672,0.412-2.518,0.567
		c-0.149,0.028-0.345-0.162-0.51-0.265c-0.471-0.295-0.934-0.602-1.405-0.895c-0.34-0.21-0.738-0.353-1.022-0.62
		c-0.514-0.481-1.061-0.411-1.651-0.257c-0.534,0.139-0.596,0.548-0.712,1.008c-0.071,0.282-0.407,0.653-0.671,0.696
		c-0.462,0.076-0.766-0.313-0.727-0.771c0.033-0.38,0.143-0.82,0.376-1.104c0.572-0.699,1.305-1.203,2.212-1.424
		c0.678-0.166,1.22,0.098,1.656,0.544c0.471,0.483,1.041,0.61,1.655,0.644c0.388,0.021,0.813,0.019,0.891-0.509
		c0.086-0.586-0.282-1.108-0.813-1.163c-0.524-0.054-1.058-0.042-1.573-0.139c-0.206-0.039-0.372-0.293-0.555-0.449
		c0.169-0.149,0.315-0.368,0.513-0.434C28.141,8.458,28.477,8.464,28.799,8.425 M31.706,12.585l0.032-0.089
		c0.101,0,0.221,0.035,0.298-0.007c0.225-0.121,0.432-0.273,0.646-0.414c-0.177-0.17-0.328-0.427-0.537-0.491
		c-0.378-0.116-0.792-0.151-1.191-0.147c-0.154,0.002-0.375,0.174-0.437,0.323c-0.044,0.106,0.083,0.376,0.205,0.443
		C31.028,12.37,31.375,12.462,31.706,12.585"/>
	<path fill="#FFFFFF" d="M43.481,7.927c-0.755,0.141-1.507,0.298-2.267,0.413c-0.227,0.034-0.473-0.053-0.709-0.084
		C40.587,8,40.591,7.643,40.767,7.508c0.752-0.581,1.501-1.213,2.353-1.609c1.221-0.567,2.438-1.252,3.839-1.273
		c0.439-0.006,0.881,0.165,1.322,0.254c-0.208,0.396-0.318,0.92-0.641,1.162c-0.956,0.715-2.132,1.08-3.074,1.855
		c-0.238,0.196-0.703,0.115-1.063,0.162C43.495,8.014,43.488,7.97,43.481,7.927"/>
	<path fill="#FFFFFF" d="M29.533,66.483c-0.201,0.542-0.382,1.189-0.688,1.771c-0.118,0.223-0.532,0.417-0.79,0.394
		c-0.171-0.015-0.417-0.433-0.435-0.684c-0.049-0.706-0.073-1.432,0.048-2.122c0.056-0.321,0.433-0.74,0.736-0.813
		c0.232-0.056,0.624,0.321,0.858,0.583C29.417,65.787,29.422,66.099,29.533,66.483"/>
	<path fill="#FFFFFF" d="M16.863,82.543c0.015,0.712-0.815,1.711-1.343,1.771c-0.134,0.015-0.356-0.107-0.422-0.229
		c-0.437-0.811-0.043-2.191,0.758-2.62c0.134-0.072,0.479-0.002,0.552,0.113C16.631,81.927,16.769,82.331,16.863,82.543"/>
	<path fill="#FFFFFF" d="M38.462,39.979c0.004,0.412-0.516,1.018-0.883,1.028c-0.376,0.011-0.797-0.473-0.801-0.921
		c-0.004-0.431,0.506-0.971,0.92-0.973C38.096,39.111,38.458,39.521,38.462,39.979"/>
	<path fill="#FFFFFF" d="M85.224,125.074c-0.255-0.286-0.409-0.459-0.562-0.631c0.223-0.168,0.427-0.396,0.678-0.472
		c0.101-0.03,0.453,0.313,0.427,0.419C85.71,124.607,85.476,124.778,85.224,125.074"/>
	<path fill="#FFFFFF" d="M20.3,91.15c0.332-0.441,0.642-0.688,1.081-0.431c0.107,0.062,0.186,0.414,0.118,0.493
		C21.125,91.642,20.752,91.387,20.3,91.15"/>
	<path fill="#231F20" d="M49.495,89.275c1.609,0.118,3.167,0.258,4.727,0.333c0.538,0.026,1.082-0.119,1.625-0.166
		c0.788-0.067,1.579-0.098,2.365-0.177c0.801-0.082,1.597-0.203,2.395-0.308c0.04-0.005,0.079-0.026,0.119-0.027
		c1.104-0.032,2.21-0.063,3.315-0.091c0.12-0.003,0.246,0.052,0.362,0.032c1.781-0.303,3.504,0.135,5.241,0.397
		c0.898,0.137,1.818,0.185,2.694,0.406c0.446,0.113,1.008,0.436,1.177,0.814c0.23,0.519,0.102,1.216-0.396,1.619
		c-0.93,0.753-1.908,1.445-2.887,2.135c-0.285,0.201-0.447,0.036-0.45-0.299c-0.014-1.529-0.372-2.02-1.766-2.57
		c-0.367-0.146-0.716-0.387-1.008-0.655c-0.331-0.306-0.657-0.392-1.103-0.351c-0.426,0.038-0.888-0.001-1.295-0.129
		c-0.774-0.242-1.525-0.417-2.316-0.082c-0.139,0.06-0.341,0.079-0.476,0.023c-0.752-0.311-1.476-0.07-2.216,0.044
		c-0.76,0.118-1.531,0.152-2.296,0.24c-1.127,0.132-2.253,0.276-3.379,0.419c-0.703,0.09-1.405,0.194-2.109,0.279
		c-1.993,0.242-3.554,1.425-5.199,2.408c-0.654,0.392-1.328,0.486-2.046,0.431c-0.536-0.041-0.823-0.416-0.969-0.889
		c-0.205-0.659-0.377-1.328-0.561-1.995c-0.112-0.407,0.021-0.688,0.454-0.764c0.68-0.118,1.366-0.203,2.046-0.325
		c1.095-0.196,2.188-0.411,3.282-0.619C49.065,89.365,49.303,89.313,49.495,89.275"/>
	<path fill="#231F20" d="M49.861,98.73c-0.849-0.028-1.44-0.522-1.822-1.216c-0.323-0.586-0.692-1.023-1.364-1.19
		c-0.582-0.146-0.781-0.637-0.821-1.16c-0.033-0.43,0.299-0.628,0.645-0.429c0.646,0.372,1.342,0.173,1.981,0.303
		c0.905,0.184,1.491-0.225,2.255-0.502c1.482-0.539,3.078-0.36,4.525,0.37c0.499,0.251,0.511,0.619,0.071,0.96
		c-0.425,0.33-0.916,0.591-1.408,0.813c-0.63,0.284-1.179,0.608-1.432,1.309c-0.158,0.437-0.5,0.657-0.992,0.659
		C50.953,98.649,50.407,98.7,49.861,98.73"/>
	<path fill="#231F20" d="M77.994,87.588c0,0.508,0.021,1.016-0.014,1.521c-0.01,0.147-0.174,0.284-0.268,0.426
		c-0.097-0.152-0.242-0.294-0.277-0.459c-0.045-0.213-0.007-0.444,0.004-0.667c0.034-0.717-0.147-1.273-0.708-1.832
		c-1.11-1.107-2.066-2.367-3.108-3.545c-0.292-0.329-0.694-0.56-0.986-0.889c-0.297-0.334-0.599-0.706-0.753-1.116
		c-0.134-0.356,0.145-0.592,0.532-0.468c1.472,0.469,2.863,1.046,3.607,2.565c0.201,0.41,0.498,0.809,0.841,1.107
		c0.887,0.771,1.255,1.716,1.154,2.868c-0.015,0.161-0.002,0.325-0.002,0.487H77.994z"/>
	<path fill="#231F20" d="M64.271,96.018c-0.561-0.091-1.246-0.163-1.911-0.321c-0.614-0.146-0.715-0.653-0.249-1.084
		c0.13-0.12,0.293-0.252,0.458-0.28c1.087-0.188,2.146-0.119,3.085,0.529c0.171,0.117,0.356,0.402,0.324,0.57
		c-0.032,0.176-0.297,0.378-0.499,0.437C65.137,95.968,64.764,95.964,64.271,96.018"/>
	<path fill="#231F20" d="M84.492,92.566c0.014-0.817,0.303-1.327,0.811-1.725c0.284-0.223,0.509-0.177,0.705,0.131
		c0.364,0.572,0.061,2.11-0.548,2.402c-0.177,0.084-0.562-0.076-0.742-0.243C84.551,92.978,84.528,92.665,84.492,92.566"/>
	<path fill="#231F20" d="M68.444,94.769c0.121,0,0.256-0.032,0.361,0.008c0.158,0.061,0.35,0.143,0.425,0.273
		c0.045,0.079-0.072,0.303-0.174,0.402c-0.289,0.282-0.612,0.529-0.914,0.799c-0.36,0.32-0.699,0.405-1.02-0.052
		c-0.309-0.439-0.246-0.984,0.209-1.203c0.335-0.163,0.727-0.209,1.094-0.307C68.432,94.716,68.438,94.742,68.444,94.769"/>
	<path fill="#231F20" d="M46.14,107.533c0.498,0.429,0.934,0.76,1.302,1.154c0.081,0.086-0.021,0.441-0.141,0.589
		c-0.1,0.122-0.362,0.191-0.532,0.163c-0.502-0.083-1.032-0.892-0.938-1.399C45.854,107.912,45.971,107.802,46.14,107.533"/>
	<path fill="#231F20" d="M85.229,95.536c-0.049-0.209-0.096-0.419-0.144-0.628c0.106-0.01,0.299-0.05,0.306-0.026
		c0.064,0.188,0.095,0.389,0.135,0.585C85.427,95.489,85.327,95.513,85.229,95.536"/>
	<path fill="#231F20" d="M31.706,12.585c-0.331-0.123-0.677-0.215-0.983-0.382c-0.122-0.066-0.249-0.337-0.205-0.443
		c0.062-0.149,0.283-0.321,0.437-0.323c0.398-0.004,0.812,0.032,1.191,0.147c0.209,0.064,0.36,0.321,0.537,0.491
		c-0.214,0.14-0.422,0.292-0.646,0.414c-0.078,0.042-0.198,0.007-0.298,0.007L31.706,12.585z"/>
</g>
</svg>
