<?xml version="1.0" encoding="utf-8"?>
<!-- Generator: Adobe Illustrator 19.2.1, SVG Export Plug-In . SVG Version: 6.00 Build 0)  -->
<svg version="1.1" id="Layer_1" xmlns="http://www.w3.org/2000/svg" xmlns:xlink="http://www.w3.org/1999/xlink" x="0px" y="0px"
	 viewBox="0 0 78.1 46.4" style="enable-background:new 0 0 78.1 46.4;" xml:space="preserve">
<style type="text/css">
	.st0{fill-rule:evenodd;clip-rule:evenodd;fill:#231F20;}
</style>
<path class="st0" d="M72.8,32.5c-2.1-1.5-9.9-3.9-15.2-5.8c-1.2-0.4-2.9-1.1-4.2-0.7c-1.2,0.4-2.2,0.7-3.3,1
	c-2.5,0.7-6.3,1.2-10,0.2C29.5,24,26.6,21.6,19.4,13.4c-3.9-4.4-4.9-5.8-7.6-11c-4.3,3-8.2,5.9-9.2,11.4c-0.9,5.5,2,10.9,3.4,16.1
	c1.1,4,2.1,8,3.1,12.2c0,0.2,0,0.4,0,0.7h4.1C13,38.5,11.1,31.6,14.7,30c4.2-1.9,18.4,8.3,24,10.7c5.3,2.2,7.2,2.5,16.5,2.7
	c4.6,0.1,13.2-2.6,17.2-5.2C74.9,36.5,75.3,34.4,72.8,32.5z"/>
</svg>
