<?xml version="1.0" encoding="utf-8"?>
<!-- Generator: Adobe Illustrator 19.2.1, SVG Export Plug-In . SVG Version: 6.00 Build 0)  -->
<svg version="1.1" id="Layer_1" xmlns="http://www.w3.org/2000/svg" xmlns:xlink="http://www.w3.org/1999/xlink" x="0px" y="0px"
	 viewBox="0 0 78.8 65.6" style="enable-background:new 0 0 78.8 65.6;" xml:space="preserve">
<style type="text/css">
	.st0{fill-rule:evenodd;clip-rule:evenodd;fill:#231F20;}
</style>
<path class="st0" d="M3.6,32.1c0.9-3.3,2.1-6.5,2.9-9.9c0.6-2.6,1.9-5.2,0.8-8.1C6.5,11.9,9.4,8.2,11.8,8c4.1-0.3,8.2-0.4,12.2-0.8
	c1.1-0.1,2.2-0.7,3.3-1.2c1.3-0.6,2.5-1.6,3.9-1.7c4.3-0.4,9.3-3.1,13.6-0.6c0.7,0.4,1.1,1.4,1,2.1c-0.3,2.2-0.7,4.5-1.4,6.6
	c-0.4,1.4-0.5,2.4,0.9,3.3c0.6,0.4,1.2,1.5,1.2,2.2c-0.2,7.2,1.8,13.8,5.5,19.9c2.4,4,5.5,6.6,10.2,7.3c2.4,0.4,4.8,0.7,7,1.5
	c4.4,1.6,8.4,7.2,2.9,11c-14.3,7.6-21.8,5.4-27.5,3.3c-4.7-2.1-7.9-4.6-11.7-7.2c-3.5-2.4-7.2-4.5-10.9-6.5c-2.2-1.2-3-0.6-3.1,2
	c-0.1,3.2,0.1,7.7,0.2,10.9c0,1.3-0.3,1.8-1.6,1.8c-2.7,0-5.5-0.1-8.2,0.1c-1.5,0.1-2-0.5-2.3-1.9C5.6,54,4.1,46.3,2.8,40
	C2.2,37.3,3.4,33,3.6,32.1z"/>
</svg>
