<svg id="Layer_1" data-name="Layer 1" xmlns="http://www.w3.org/2000/svg" viewBox="0 0 1376.94 838.2"><defs><style>.cls-1{fill:#cad5e0;}.cls-2{fill:#364d75;}.cls-3{fill:#a27c66;}.cls-4{fill:#e9e9ea;}.cls-5{fill:#88878e;}.cls-6{fill:#fff;}.cls-7{fill:#8d9092;}.cls-8{fill:#302e2f;}.cls-9{fill:#92705c;}.cls-10{fill:#612b09;}.cls-11{fill:#803d1b;}.cls-12{fill:#411500;}.cls-13{fill:#5a77a3;}</style></defs><title>bed</title><rect class="cls-1" width="1376.94" height="838.2"/><polygon class="cls-2" points="404.18 697.34 293.56 841.75 1376.94 841.75 1266.33 697.34 404.18 697.34"/><path class="cls-3" d="M1207,334.79v29.94a751.7,751.7,0,0,1-159.15-8.86c-99-16.32-124.35-41.45-208.24-41.32-74.07.12-96,19.78-186.76,36.36-46.23,8.46-110,16-189.39,13V331h-59.3V697.34h862.15V334.79Z"/><path class="cls-4" d="M749.66,431.72c-.9-23.3-8.86-42.1.29-49.73,10.12-8.44,33.72,2.92,53.21,14.72,26.58-2.83,48.8-3.67,64.79-3.87,47.76-.6,137.52,3.21,239.31,39.55l.12.05,1.76.66c19,7.13,24.71,10.3,32.31,9.47a31.87,31.87,0,0,0,5.44-1.08c5.23-1.73,7.2-4.74,15.74-5.37,8.22-.6,21.71,1.05,24.87,8.29,2.83,6.5-4.71,12.76-11,25.79-5.42,11.14-5.12,17.28-8.29,45.12-4,34.73-4.56,26.32-8.29,59.86-2.17,19.56-4.23,42.8-5.52,69.07a269.16,269.16,0,0,0,6,58.91c6.54,30.45,16.76,51.93,9.7,57-5,3.62-11.14-3.36-31.52-7.88-4.86-1.08-8.35-1.6-60.19-1h0l-209.42,2.53L720.6,729C683.35,621.64,694.5,563.58,713,530.11,725.21,507.94,751.42,477.08,749.66,431.72Z"/><rect class="cls-5" x="33.57" y="625.72" width="150.67" height="24.11" rx="11.35"/><path class="cls-6" d="M912.78,536.56c-10.06-8.89-22.74,4.23-54.1,6.92-46.39,4-58.55-21.31-136.19-30.46-8.73-1-18.2-2.3-28.46-2.28-29.55.05-48.61,8.34-104.67,7.4-47-.78-72.28-18.27-79.89-7.16-4.54,6.64,1.83,16.62,7.08,29.21,12.12,29,3.17,35.8,4.19,119.28.79,64.35,6.38,82-9.22,103.44-10.06,13.8-21.09,18.38-19.46,24.58,3.35,12.71,53.36,7.16,114.65,5,135.19-4.68,202.79-7,268.15-1.35,10.59.92,48.39,4.4,52-6.43,2.06-6.22-8.93-11.82-18-25.93-3.85-6-12.21-21.16-9.64-71.92.79-15.64,2.26-27.59,10.16-77.2C918,555.42,920.47,543.36,912.78,536.56Z"/><path class="cls-7" d="M1052.91,669.25a106,106,0,0,1-86.08-35.43A105.73,105.73,0,1,1,1146.18,530h0a105.84,105.84,0,0,1-93.27,139.26Zm-12.64-194.92a89.58,89.58,0,1,0,90.6,60.82h0a89.65,89.65,0,0,0-90.6-60.82Z"/><rect class="cls-7" x="1076.68" y="654.37" width="23.97" height="72.08" transform="translate(-163.42 383.6) rotate(-18.61)"/><rect class="cls-8" x="1095.69" y="714.83" width="37" height="102.72" rx="12" transform="translate(-186.28 395.71) rotate(-18.61)"/><rect class="cls-3" x="-17.76" y="651.43" width="251.99" height="190.32"/><rect class="cls-9" x="-17.76" y="637.78" width="276.93" height="13.65"/><path class="cls-10" d="M989.12,540.26l.27-2.83.14-1.41a11.18,11.18,0,0,1,.13-1.42c.11-.46.5-.6.86-.86a11.29,11.29,0,0,0,.93-.75A11.61,11.61,0,0,0,993,531.3c.17-.23-.19-.5-.35-.27a10.46,10.46,0,0,1-1.79,1.91,12.47,12.47,0,0,1-1,.74,1.1,1.1,0,0,0-.56.64,8,8,0,0,0-.14,1.3l-.14,1.5-.3,3.09a.22.22,0,0,0,.44,0Z"/><path class="cls-10" d="M987.92,547l-.38,3-.2,1.5a10.81,10.81,0,0,0-.16,1.38,1,1,0,0,0,.36.69c.29.31.57.62.83.95a11,11,0,0,1,1.36,2.31.22.22,0,0,0,.41-.18,11.42,11.42,0,0,0-1.12-2,10.64,10.64,0,0,0-.73-.93c-.3-.33-.65-.56-.65-1a11.33,11.33,0,0,1,.18-1.41l.18-1.4.36-2.82a.22.22,0,0,0-.44-.05Z"/><path class="cls-10" d="M997.94,551.83l1.18,2,.54.91a2.13,2.13,0,0,0,.46.65c.42.3,1.16.08,1.63.06a20.34,20.34,0,0,1,2.21,0,21.58,21.58,0,0,1,8,2.14c.26.13.42-.28.17-.41A21.8,21.8,0,0,0,1001,555c-.26,0-.53.09-.75-.12a3.46,3.46,0,0,1-.32-.52l-.49-.84-1.13-1.89c-.15-.24-.56-.06-.41.18Z"/><path class="cls-10" d="M999.9,537.71l1.46-1.53.73-.76a3,3,0,0,1,.42-.44.85.85,0,0,1,.76,0,21.36,21.36,0,0,0,3.7.78,21.71,21.71,0,0,0,7.62-.43c.28-.07.21-.51-.06-.44a21.53,21.53,0,0,1-8.31.32,20.76,20.76,0,0,1-2.08-.44c-.34-.09-.68-.2-1-.3a1,1,0,0,0-.61,0,1.61,1.61,0,0,0-.6.5l-.79.83-1.58,1.66c-.2.2.16.47.35.26Z"/><path class="cls-10" d="M983.24,542.4a11.22,11.22,0,0,1-4.5-1.71c-.24-.16-.51.2-.27.36a11.8,11.8,0,0,0,4.72,1.79c.29,0,.33-.4,0-.44Z"/><path class="cls-10" d="M983.17,543.07a12,12,0,0,0-5,.71c-.26.1-.08.51.18.41a11.28,11.28,0,0,1,4.78-.68c.28,0,.33-.42,0-.44Z"/><path class="cls-11" d="M999.41,535.5c6.3.7,10.38,10.43,10.38,10.43s-6.13,8.59-12.42,7.88-10.94-5.37-10.38-10.43S993.12,534.8,999.41,535.5Z"/><path class="cls-10" d="M987.89,539.91c1.82.21,2.91,3.9,2.91,3.9s-1.88,3.36-3.7,3.16a3.56,3.56,0,0,1,.79-7.06Z"/><ellipse class="cls-12" cx="983.83" cy="543" rx="1.63" ry="1.43" transform="translate(334.93 1460.44) rotate(-83.62)"/><path class="cls-10" d="M986.74,540.87c-.36-1-.74-2-1.15-3a.22.22,0,0,0-.29-.12c-1.36.58-2.72,1.16-4.06,1.77a.22.22,0,0,0,.18.4c1.34-.6,2.7-1.19,4.06-1.76l-.29-.11c.4,1,.79,2,1.15,2.95.1.27.5.09.4-.18Z"/><path class="cls-12" d="M993.84,544.15v.06a16.43,16.43,0,0,1-2.69,7.3l-.22-.15a16.28,16.28,0,0,0,2.65-7.18v-.06a16.25,16.25,0,0,0-1-7.65l.25-.1A16.52,16.52,0,0,1,993.84,544.15Z"/><path class="cls-12" d="M998.16,544.6v.07a19,19,0,0,1-3.24,8.6l-.22-.15a18.73,18.73,0,0,0,3.2-8.48v-.07a18.81,18.81,0,0,0-1.24-9l.24-.1A18.94,18.94,0,0,1,998.16,544.6Z"/><path class="cls-12" d="M1002.11,545v.07a20,20,0,0,1-3.27,8.84l-.22-.15a19.65,19.65,0,0,0,2-18.08l.25-.1A20.12,20.12,0,0,1,1002.11,545Z"/><path class="cls-12" d="M1005.52,545.4v.05a15.34,15.34,0,0,1-2.51,6.77l-.22-.14a15,15,0,0,0,1.54-13.8l.25-.1A15.28,15.28,0,0,1,1005.52,545.4Z"/><path class="cls-10" d="M985.87,545.27c-.57.89-1.17,1.76-1.78,2.62l.31,0q-1.8-1.29-3.57-2.62a.22.22,0,0,0-.26.36c1.18.88,2.37,1.76,3.57,2.61a.22.22,0,0,0,.31,0c.61-.86,1.2-1.74,1.77-2.63.16-.24-.2-.51-.35-.26Z"/><path class="cls-10" d="M1010.08,602.62l.16,2.81.09,1.4a13.14,13.14,0,0,1,.08,1.4c0,.48-.4.67-.71,1s-.54.57-.79.87a10.56,10.56,0,0,0-1.23,1.89.22.22,0,0,0,.38.21,10.29,10.29,0,0,1,2.34-3,1.09,1.09,0,0,0,.45-.71,9.29,9.29,0,0,0-.06-1.29l-.09-1.49-.18-3.07c0-.28-.46-.26-.44,0Z"/><path class="cls-10" d="M1010.22,595.82l-.08-3,0-1.5a9,9,0,0,0-.05-1.37,1,1,0,0,0-.45-.63,12,12,0,0,1-1-.8,10.26,10.26,0,0,1-1.68-2,.22.22,0,0,0-.37.23,10.4,10.4,0,0,0,1.39,1.78,10.85,10.85,0,0,0,.86.8c.34.28.72.44.79.91a11,11,0,0,1,0,1.41l0,1.4.08,2.81a.22.22,0,0,0,.43,0Z"/><path class="cls-10" d="M999.69,592.64l-1.45-1.74-.67-.81a2.13,2.13,0,0,0-.55-.57c-.45-.23-1.15.1-1.61.19-.71.14-1.43.24-2.16.31a21.16,21.16,0,0,1-8.18-.88c-.27-.08-.37.35-.1.43a21.4,21.4,0,0,0,7.5.94,21.11,21.11,0,0,0,3.71-.52.86.86,0,0,1,.75,0,2.82,2.82,0,0,1,.38.46l.62.74,1.39,1.68c.18.21.55,0,.37-.24Z"/><path class="cls-10" d="M999.92,606.75l-1.2,1.72-.59.86a3.7,3.7,0,0,1-.35.5c-.22.19-.5.11-.75.07a21.5,21.5,0,0,0-11.13,1.38c-.26.11-.12.53.14.42a21.3,21.3,0,0,1,8.08-1.58c.7,0,1.4,0,2.1.12l1,.14a1.06,1.06,0,0,0,.61,0,1.51,1.51,0,0,0,.51-.58l.64-.93,1.3-1.86c.16-.23-.23-.44-.39-.21Z"/><path class="cls-10" d="M1015.5,599.63a11,11,0,0,1,4.67,1c.26.11.46-.27.21-.39a11.66,11.66,0,0,0-4.9-1c-.28,0-.26.44,0,.44Z"/><path class="cls-10" d="M1015.47,599a11.71,11.71,0,0,0,4.79-1.45c.25-.14,0-.51-.24-.37a11.3,11.3,0,0,1-4.57,1.38c-.28,0-.26.46,0,.44Z"/><path class="cls-11" d="M1000.73,608.84c-6.26.27-11.73-8.62-11.73-8.62s4.68-9.33,11-9.6,11.52,3.59,11.73,8.62S1007,608.57,1000.73,608.84Z"/><path class="cls-10" d="M1011.34,602.77c-1.82.08-3.44-3.37-3.44-3.37s1.32-3.57,3.13-3.65a3.52,3.52,0,0,1,.31,7Z"/><ellipse class="cls-12" cx="1014.83" cy="599.13" rx="1.42" ry="1.61" transform="translate(-24.86 44.25) rotate(-2.47)"/><path class="cls-10" d="M1012.31,601.66c.5.92,1,1.82,1.58,2.71a.21.21,0,0,0,.3.07c1.24-.77,2.48-1.55,3.7-2.34.24-.16,0-.53-.23-.37-1.23.79-2.46,1.57-3.71,2.34l.31.07c-.55-.9-1.08-1.8-1.58-2.72-.14-.25-.51,0-.37.24Z"/><path class="cls-12" d="M1004.87,599.53v0a16.36,16.36,0,0,1,1.52-7.56l.24.11a16,16,0,0,0-1.5,7.44v0a16.13,16.13,0,0,0,2.14,7.34l-.23.13A16.42,16.42,0,0,1,1004.87,599.53Z"/><path class="cls-12" d="M1000.57,599.75v-.07a18.9,18.9,0,0,1,1.86-8.9l.24.11a18.63,18.63,0,0,0-1.84,8.78v.07a18.42,18.42,0,0,0,2.59,8.65l-.23.14A18.89,18.89,0,0,1,1000.57,599.75Z"/><path class="cls-12" d="M996.65,599.94v-.07a19.74,19.74,0,0,1,1.85-9.14l.24.11a19.41,19.41,0,0,0,.77,18l-.22.13A19.72,19.72,0,0,1,996.65,599.94Z"/><path class="cls-12" d="M993.25,600.09V600a15.21,15.21,0,0,1,1.42-7l.24.11a14.78,14.78,0,0,0,.59,13.73l-.23.13A15.12,15.12,0,0,1,993.25,600.09Z"/><path class="cls-10" d="M1012.5,597.23c.42-1,.87-1.91,1.34-2.84l-.3.09c1.3.65,2.6,1.33,3.89,2,.25.14.45-.25.2-.39-1.28-.68-2.58-1.35-3.89-2a.21.21,0,0,0-.29.09c-.47.94-.92,1.88-1.34,2.84-.11.26.27.47.39.21Z"/><path class="cls-10" d="M1095,514.67l1,2.33.52,1.17a12.06,12.06,0,0,1,.52,1.16c.12.41-.13.7-.3,1.06s-.28.65-.39,1a10.5,10.5,0,0,0-.44,2,.2.2,0,0,0,.39,0,10,10,0,0,1,.56-2.28,10.45,10.45,0,0,1,.46-1,1,1,0,0,0,.16-.75,7.73,7.73,0,0,0-.47-1.07l-.55-1.24-1.13-2.55a.2.2,0,0,0-.37.16Z"/><path class="cls-10" d="M1092.92,508.85l-1-2.51-.51-1.25a7.33,7.33,0,0,0-.48-1.15.9.9,0,0,0-.59-.39c-.36-.11-.71-.23-1.06-.37a9.48,9.48,0,0,1-2.09-1.21.2.2,0,0,0-.24.32,10.78,10.78,0,0,0,1.75,1.07c.32.15.65.28,1,.4s.75.15,1,.52a8.58,8.58,0,0,1,.48,1.18l.49,1.19,1,2.36c.09.23.46.08.36-.16Z"/><path class="cls-10" d="M1083,509.51l-1.79-1-.82-.48a1.83,1.83,0,0,0-.65-.3c-.46-.05-1,.45-1.31.67a17.14,17.14,0,0,1-1.73.95,19.17,19.17,0,0,1-7.23,1.88c-.26,0-.2.41,0,.39a19.6,19.6,0,0,0,9.65-3.22c.19-.13.37-.3.64-.24a2.27,2.27,0,0,1,.48.27l.76.43,1.71,1c.22.13.47-.19.24-.32Z"/><path class="cls-10" d="M1087.66,521.42l-.46,1.85-.23.92a3.18,3.18,0,0,1-.14.53c-.13.23-.39.25-.61.3a19.32,19.32,0,0,0-9,4.73c-.19.17.06.48.25.31a19.07,19.07,0,0,1,6.35-3.92q.9-.33,1.83-.57l.92-.22a.89.89,0,0,0,.5-.23,1.39,1.39,0,0,0,.24-.65l.26-1,.5-2c.06-.24-.33-.29-.4-.05Z"/><path class="cls-10" d="M1098.62,510.4a9.94,9.94,0,0,1,4.28-.65c.26,0,.31-.38,0-.4a10.53,10.53,0,0,0-4.48.68c-.24.09-.09.46.15.37Z"/><path class="cls-10" d="M1098.38,509.84a10.48,10.48,0,0,0,3.6-2.77c.17-.19-.15-.43-.32-.23a10,10,0,0,1-3.43,2.63c-.23.11-.08.48.15.37Z"/><path class="cls-11" d="M1089,522.94c-5.23,2.23-12.72-3.58-12.72-3.58s1-9.42,6.24-11.65,10.92-.63,12.71,3.58S1094.26,520.71,1089,522.94Z"/><path class="cls-10" d="M1096.09,514.4c-1.52.64-4-1.77-4-1.77s0-3.45,1.5-4.1a3.2,3.2,0,0,1,2.5,5.87Z"/><ellipse class="cls-12" cx="1097.89" cy="510.19" rx="1.29" ry="1.46" transform="translate(-112.13 471.24) rotate(-23.08)"/><path class="cls-10" d="M1096.56,513.14c.72.62,1.46,1.22,2.21,1.8a.18.18,0,0,0,.27,0c.82-1,1.61-2.1,2.4-3.17.15-.21-.17-.45-.32-.24-.79,1.07-1.58,2.13-2.4,3.17l.28,0c-.75-.58-1.48-1.18-2.2-1.8-.2-.17-.44.15-.24.32Z"/><path class="cls-12" d="M1089.56,513.71l0-.05a14.89,14.89,0,0,1-1.12-6.9l.24,0a14.65,14.65,0,0,0,1.1,6.79l0,0a14.62,14.62,0,0,0,4.16,5.54l-.15.19A14.91,14.91,0,0,1,1089.56,513.71Z"/><path class="cls-12" d="M1086,515.27l0-.06a17.06,17.06,0,0,1-1.26-8.15l.24,0a16.79,16.79,0,0,0,1.24,8l0,0a17,17,0,0,0,5,6.53l-.15.18A17.15,17.15,0,0,1,1086,515.27Z"/><path class="cls-12" d="M1082.71,516.69l0-.06a17.93,17.93,0,0,1-1.35-8.36l.24,0a17.75,17.75,0,0,0,1.33,8.24,17.55,17.55,0,0,0,5.08,6.79l-.16.18A18.05,18.05,0,0,1,1082.71,516.69Z"/><path class="cls-12" d="M1079.88,517.9l0,0a13.66,13.66,0,0,1-1-6.4l.24,0a13.43,13.43,0,0,0,1,6.29,13.58,13.58,0,0,0,3.87,5.18l-.15.18A13.64,13.64,0,0,1,1079.88,517.9Z"/><path class="cls-10" d="M1095.3,509.32c.06-.95.13-1.9.23-2.84l-.22.17c1.32.14,2.63.3,4,.47a.2.2,0,0,0,0-.4c-1.32-.17-2.63-.32-4-.47a.2.2,0,0,0-.22.18c-.1.94-.18,1.89-.23,2.84,0,.25.38.3.39.05Z"/><path class="cls-10" d="M1038.94,496.58l2.78.44,1.39.22a12.41,12.41,0,0,1,1.38.23c.46.13.57.53.81.9s.44.65.68,1a10.93,10.93,0,0,0,1.58,1.61c.21.18.5-.15.28-.33a10.87,10.87,0,0,1-1.77-1.88,11.63,11.63,0,0,1-.67-1.05,1.1,1.1,0,0,0-.6-.6,7.83,7.83,0,0,0-1.27-.21l-1.47-.24-3-.48c-.28,0-.36.39-.08.43Z"/><path class="cls-10" d="M1032.34,495l-2.94-.56-1.46-.28a7.93,7.93,0,0,0-1.36-.25,1,1,0,0,0-.7.31c-.33.26-.65.52-1,.76a10.56,10.56,0,0,1-2.37,1.2.23.23,0,0,0,.16.42,11.51,11.51,0,0,0,2-1,10.94,10.94,0,0,0,1-.67c.35-.27.6-.61,1.07-.58a11.2,11.2,0,0,1,1.38.27l1.38.26,2.76.53c.28.06.35-.38.08-.43Z"/><path class="cls-10" d="M1027,504.57l-2,1-.93.48a2.11,2.11,0,0,0-.67.42c-.33.39-.16,1.14-.17,1.61a20,20,0,0,1-.16,2.18,21.07,21.07,0,0,1-2.62,7.8c-.14.25.26.43.4.19a21.6,21.6,0,0,0,2.54-7.12,22.36,22.36,0,0,0,.29-3.74c0-.25-.06-.52.17-.73a3,3,0,0,1,.53-.28l.85-.44,1.94-1c.25-.13.1-.55-.15-.42Z"/><path class="cls-10" d="M1040.79,507.39l1.42,1.54.71.77a2.82,2.82,0,0,1,.41.44c.14.26,0,.51-.09.75a21.45,21.45,0,0,0-1,11.16c0,.28.49.24.44,0a21.11,21.11,0,0,1,.2-8.23c.16-.68.34-1.36.57-2,.11-.33.23-.65.35-1a1,1,0,0,0,.09-.6,1.55,1.55,0,0,0-.46-.62l-.77-.83-1.54-1.66c-.19-.21-.47.13-.28.33Z"/><path class="cls-10" d="M1037.19,490.64a11.3,11.3,0,0,1,2-4.35c.17-.22-.16-.51-.33-.28a11.55,11.55,0,0,0-2.07,4.55c-.06.28.37.35.43.08Z"/><path class="cls-10" d="M1036.53,490.52a11.66,11.66,0,0,0-.39-5c-.08-.27-.49-.12-.41.15a11.1,11.1,0,0,1,.37,4.76.22.22,0,0,0,.43.07Z"/><path class="cls-11" d="M1043,507c-1.08,6.18-11,9.6-11,9.6s-8.1-6.58-7-12.76,6-10.47,11-9.6S1044.09,500.87,1043,507Z"/><path class="cls-10" d="M1039.36,495.38c-.32,1.79-4,2.64-4,2.64s-3.2-2.06-2.89-3.85a3.52,3.52,0,0,1,6.92,1.21Z"/><ellipse class="cls-12" cx="1036.56" cy="491.19" rx="1.42" ry="1.61" transform="translate(373.26 1427) rotate(-80.03)"/><path class="cls-10" d="M1038.48,494.19c1-.29,2-.61,3-.95a.23.23,0,0,0,.13-.28c-.49-1.38-1-2.76-1.49-4.12a.22.22,0,0,0-.42.15c.52,1.37,1,2.74,1.49,4.12l.13-.28c-1,.34-2,.66-3,.95-.27.08-.12.49.15.41Z"/><path class="cls-12" d="M1034.81,501h-.06a16.25,16.25,0,0,1-7-3.12l.16-.2a16.15,16.15,0,0,0,6.94,3.06h0a16.18,16.18,0,0,0,7.62-.5l.08.25A16.4,16.4,0,0,1,1034.81,501Z"/><path class="cls-12" d="M1034.09,505.24H1034a18.81,18.81,0,0,1-8.29-3.74l.16-.2a18.59,18.59,0,0,0,8.18,3.68h.07a18.47,18.47,0,0,0,9-.66l.09.25A18.78,18.78,0,0,1,1034.09,505.24Z"/><path class="cls-12" d="M1033.44,509.11h-.07a19.66,19.66,0,0,1-8.53-3.78l.16-.21a19.39,19.39,0,0,0,17.73,3.12l.08.25A19.66,19.66,0,0,1,1033.44,509.11Z"/><path class="cls-12" d="M1032.85,512.46h-.06a15.22,15.22,0,0,1-6.53-2.9l.16-.21a14.77,14.77,0,0,0,13.53,2.38l.08.25A15.06,15.06,0,0,1,1032.85,512.46Z"/><path class="cls-10" d="M1034.2,493.05c-.85-.61-1.67-1.25-2.49-1.91l0,.31c.92-1.14,1.86-2.26,2.8-3.37a.22.22,0,0,0-.33-.28q-1.43,1.67-2.81,3.36a.22.22,0,0,0,0,.31c.81.66,1.64,1.3,2.48,1.92.23.17.52-.17.29-.34Z"/><path class="cls-10" d="M1045.75,556.93l2.09-1.47,1-.73a10.28,10.28,0,0,1,1-.73c.39-.2.71,0,1.1.08a9.65,9.65,0,0,0,1,.19,10,10,0,0,0,2,.06.2.2,0,0,0,0-.4,9.63,9.63,0,0,1-2.34-.11,10.3,10.3,0,0,1-1.1-.25,1,1,0,0,0-.77,0,6.82,6.82,0,0,0-1,.66l-1.11.78-2.28,1.6c-.21.15,0,.48.22.33Z"/><path class="cls-10" d="M1040.43,560.06l-2.26,1.49-1.13.74a8.15,8.15,0,0,0-1,.69.93.93,0,0,0-.27.65,10.41,10.41,0,0,1-.16,1.12,9.32,9.32,0,0,1-.78,2.28.2.2,0,0,0,.36.17,9.81,9.81,0,0,0,.71-1.92,9.12,9.12,0,0,0,.21-1c0-.4,0-.77.32-1a9.36,9.36,0,0,1,1.07-.7l1.07-.7,2.13-1.4c.21-.14,0-.47-.23-.33Z"/><path class="cls-10" d="M1043,569.71l-.65,1.95-.3.9a1.69,1.69,0,0,0-.18.7c0,.46.62.84.91,1.15a18.58,18.58,0,0,1,1.27,1.52,19.23,19.23,0,0,1,3.23,6.73c.06.25.44.12.38-.13a19.44,19.44,0,0,0-5-8.85c-.16-.16-.36-.3-.35-.58a2,2,0,0,1,.18-.52l.27-.82.63-1.88c.08-.24-.27-.42-.36-.17Z"/><path class="cls-10" d="M1053.78,562.8l1.9.1,1,.05a3.32,3.32,0,0,1,.55,0c.25.09.32.34.41.55a19.55,19.55,0,0,0,6.37,7.93c.21.15.47-.16.26-.31a19.35,19.35,0,0,1-5.07-5.48c-.33-.54-.63-1.1-.91-1.68-.14-.28-.26-.57-.39-.86a.9.9,0,0,0-.32-.45,1.48,1.48,0,0,0-.69-.11l-1-.06-2-.11c-.26,0-.23.39,0,.4Z"/><path class="cls-10" d="M1040.85,554.17a10.22,10.22,0,0,1-1.46-4.07c0-.26-.43-.23-.4,0a10.74,10.74,0,0,0,1.53,4.28c.14.21.47,0,.33-.23Z"/><path class="cls-10" d="M1040.35,554.51a10.63,10.63,0,0,0-3.4-3c-.23-.12-.4.24-.18.36a10.07,10.07,0,0,1,3.25,2.87c.15.2.49,0,.33-.23Z"/><path class="cls-11" d="M1055,561.18c3.19,4.7-1.06,13.16-1.06,13.16s-9.44.84-12.63-3.87-2.73-10.6,1.06-13.17S1051.81,556.47,1055,561.18Z"/><path class="cls-10" d="M1045.27,555.89c.92,1.36-1,4.26-1,4.26s-3.39.68-4.32-.68a3.2,3.2,0,0,1,5.28-3.58Z"/><ellipse class="cls-12" cx="1040.79" cy="554.93" rx="1.46" ry="1.29" transform="translate(-131.98 680.65) rotate(-34.18)"/><path class="cls-10" d="M1043.94,555.67c.47-.83.92-1.67,1.35-2.51a.2.2,0,0,0-.1-.27q-1.77-.89-3.57-1.74a.2.2,0,0,0-.17.36c1.19.57,2.39,1.15,3.57,1.74l-.09-.27q-.65,1.28-1.35,2.52c-.12.22.24.39.36.17Z"/><path class="cls-12" d="M1045.85,562.42l0,0a14.81,14.81,0,0,1-6.56,2.43l0-.24a14.51,14.51,0,0,0,6.46-2.39l0,0a14.68,14.68,0,0,0,4.64-5.15l.21.11A14.87,14.87,0,0,1,1045.85,562.42Z"/><path class="cls-12" d="M1048.07,565.64l0,0a17.11,17.11,0,0,1-7.76,2.81l0-.24a16.87,16.87,0,0,0,7.65-2.77l0,0a16.93,16.93,0,0,0,5.45-6.13l.21.11A17.19,17.19,0,0,1,1048.07,565.64Z"/><path class="cls-12" d="M1050.09,568.57l0,0a18,18,0,0,1-7.94,2.93l0-.24a17.59,17.59,0,0,0,13.51-9.18l.21.11A17.94,17.94,0,0,1,1050.09,568.57Z"/><path class="cls-12" d="M1051.82,571.12l0,0a13.83,13.83,0,0,1-6.08,2.25l0-.24a13.45,13.45,0,0,0,10.31-7l.21.11A13.68,13.68,0,0,1,1051.82,571.12Z"/><path class="cls-10" d="M1040.43,557.64c-.94.13-1.88.23-2.83.32l.22.18c-.12-1.32-.22-2.64-.31-4a.2.2,0,0,0-.39,0q.12,2,.3,4a.2.2,0,0,0,.21.19c.95-.09,1.89-.2,2.83-.33.25,0,.23-.43,0-.39Z"/><polygon class="cls-5" points="124.54 464.41 115.42 464.41 101.05 464.41 91.93 464.41 91.93 478.32 101.05 478.32 101.05 637.78 115.42 637.78 115.42 478.32 124.54 478.32 124.54 464.41"/><path class="cls-10" d="M1106.78,567.71l2.16,1.36,1.08.68a10.82,10.82,0,0,1,1.08.67c.33.28.28.65.35,1.05a9.15,9.15,0,0,0,.22,1,10.07,10.07,0,0,0,.74,1.91c.12.22.48.05.36-.18a10.2,10.2,0,0,1-.81-2.2,10.45,10.45,0,0,1-.18-1.12,1,1,0,0,0-.29-.71,7.77,7.77,0,0,0-1-.63l-1.15-.72-2.36-1.49a.2.2,0,0,0-.22.34Z"/><path class="cls-10" d="M1101.84,564l-2.24-1.51-1.13-.76a7.21,7.21,0,0,0-1-.69.94.94,0,0,0-.7,0c-.36.11-.72.21-1.09.29a9.7,9.7,0,0,1-2.4.16.2.2,0,0,0,0,.4,10,10,0,0,0,2-.09,9.15,9.15,0,0,0,1-.22c.39-.1.71-.29,1.1-.1a9.29,9.29,0,0,1,1,.72l1.06.71,2.12,1.43c.21.14.43-.2.21-.34Z"/><path class="cls-10" d="M1093.94,570.11l-2.06.14-.94.07a1.94,1.94,0,0,0-.72.11c-.41.21-.53.9-.71,1.28a16.26,16.26,0,0,1-.91,1.76,19.19,19.19,0,0,1-5,5.58c-.21.16.06.45.26.3a19.41,19.41,0,0,0,4.65-5,17.93,17.93,0,0,0,1.57-3c.09-.21.15-.46.41-.55a2.41,2.41,0,0,1,.54,0l.87-.06,2-.15c.25,0,.27-.41,0-.39Z"/><path class="cls-10" d="M1104.47,577.39l.64,1.78.32.9a2.47,2.47,0,0,1,.18.52c0,.26-.18.42-.34.59a18.8,18.8,0,0,0-2.12,2.65,19.28,19.28,0,0,0-2.73,6.29c-.06.24.32.37.38.12a19.14,19.14,0,0,1,3.1-6.79,17.26,17.26,0,0,1,1.19-1.49c.21-.24.43-.47.65-.69a.92.92,0,0,0,.28-.47,1.4,1.4,0,0,0-.16-.69l-.34-1-.69-1.93c-.09-.24-.45-.06-.36.18Z"/><path class="cls-10" d="M1107.44,562.13a10,10,0,0,1,3.19-2.93c.22-.13,0-.48-.18-.35a10.54,10.54,0,0,0-3.35,3.06c-.14.21.19.43.34.22Z"/><path class="cls-10" d="M1106.93,561.79a10.56,10.56,0,0,0,1.45-4.3c0-.25-.37-.27-.4,0a10.18,10.18,0,0,1-1.38,4.1c-.14.22.2.44.33.21Z"/><path class="cls-11" d="M1106.44,577.89c-3.11,4.76-12.56,4.1-12.56,4.1s-4.41-8.38-1.3-13.14,8.73-6.61,12.55-4.11S1109.55,573.12,1106.44,577.89Z"/><path class="cls-10" d="M1107.56,566.86c-.9,1.38-4.3.76-4.3.76s-1.94-2.86-1-4.24a3.19,3.19,0,0,1,5.34,3.48Z"/><ellipse class="cls-12" cx="1106.72" cy="562.36" rx="1.29" ry="1.46" transform="translate(31.2 1182.3) rotate(-56.9)"/><path class="cls-10" d="M1107.25,565.55c.94.12,1.89.2,2.84.27a.19.19,0,0,0,.2-.19c.1-1.32.17-2.64.23-4a.2.2,0,0,0-.4,0c-.06,1.33-.13,2.65-.22,4l.21-.19c-.95-.06-1.9-.15-2.84-.27-.26,0-.28.37,0,.4Z"/><path class="cls-12" d="M1101.75,569.92l0,0a14.85,14.85,0,0,1-4.77-5.11l.21-.12a14.57,14.57,0,0,0,4.69,5l0,0a14.68,14.68,0,0,0,6.54,2.3l0,.23A14.81,14.81,0,0,1,1101.75,569.92Z"/><path class="cls-12" d="M1099.65,573.21l-.06,0a17.07,17.07,0,0,1-5.58-6.07l.21-.12a16.74,16.74,0,0,0,5.51,6l0,0a16.8,16.8,0,0,0,7.75,2.66l0,.24A17.17,17.17,0,0,1,1099.65,573.21Z"/><path class="cls-12" d="M1097.72,576.2l0,0a18,18,0,0,1-5.77-6.19l.21-.12a17.59,17.59,0,0,0,13.68,8.92l0,.24A17.94,17.94,0,0,1,1097.72,576.2Z"/><path class="cls-12" d="M1096,578.79l0,0a13.79,13.79,0,0,1-4.42-4.74l.21-.12a13.49,13.49,0,0,0,10.44,6.81l0,.24A13.91,13.91,0,0,1,1096,578.79Z"/><path class="cls-10" d="M1104.08,563.08c-.48-.82-.95-1.65-1.39-2.49l-.09.27c1.17-.62,2.35-1.22,3.54-1.81a.2.2,0,0,0-.18-.36c-1.19.59-2.37,1.19-3.54,1.81a.21.21,0,0,0-.09.27c.45.84.91,1.67,1.39,2.48.13.22.49,0,.36-.17Z"/><path class="cls-10" d="M1054,622l-1.89-2.08-.95-1a11.58,11.58,0,0,1-1-1c-.27-.39-.11-.77-.06-1.21a11.46,11.46,0,0,0,.06-1.17,11.3,11.3,0,0,0-.23-2.25.22.22,0,0,0-.43.09,10.55,10.55,0,0,1,.21,2.57,10.21,10.21,0,0,1-.12,1.24,1.11,1.11,0,0,0,.09.84,9.81,9.81,0,0,0,.86,1l1,1.1,2.07,2.27c.19.21.52-.08.33-.29Z"/><path class="cls-10" d="M1058.16,627.37l1.94,2.27,1,1.14a8.94,8.94,0,0,0,.91,1,1,1,0,0,0,.74.2c.42,0,.84,0,1.25,0a10.92,10.92,0,0,1,2.6.53.22.22,0,0,0,.14-.42,11.88,11.88,0,0,0-2.2-.5,11.5,11.5,0,0,0-1.17-.08c-.44,0-.84.11-1.2-.21a11.91,11.91,0,0,1-.91-1.07l-.91-1.06-1.83-2.14c-.19-.21-.52.08-.33.29Z"/><path class="cls-10" d="M1068.35,623.21l2.22.45,1,.2a1.91,1.91,0,0,0,.79.09c.49-.1.83-.79,1.13-1.15a20.45,20.45,0,0,1,1.48-1.61,21.45,21.45,0,0,1,6.91-4.47c.26-.1.07-.5-.19-.39a21.36,21.36,0,0,0-6.42,4,20,20,0,0,0-2.55,2.74c-.16.2-.29.44-.59.46a2.53,2.53,0,0,1-.6-.11l-.94-.19-2.14-.43c-.27,0-.41.37-.13.42Z"/><path class="cls-10" d="M1059.28,612.39l-.15-2.08-.08-1a3.08,3.08,0,0,1,0-.6c0-.29.32-.4.53-.53a21.24,21.24,0,0,0,3-2.19,21.61,21.61,0,0,0,4.75-5.89c.13-.24-.23-.49-.37-.24a21,21,0,0,1-5.28,6.31c-.55.44-1.12.85-1.71,1.24l-.89.54a1.09,1.09,0,0,0-.44.41,1.58,1.58,0,0,0,0,.78l.08,1.13.17,2.26c0,.28.46.19.43-.09Z"/><path class="cls-10" d="M1051.66,627.74a11.22,11.22,0,0,1-4.25,2.17c-.27.07-.19.5.09.43a11.69,11.69,0,0,0,4.45-2.27c.22-.18-.07-.51-.29-.33Z"/><path class="cls-10" d="M1052.11,628.24a11.71,11.71,0,0,0-2.81,4.14c-.1.27.32.4.42.14a11.13,11.13,0,0,1,2.68-3.95c.2-.2-.09-.53-.29-.33Z"/><path class="cls-11" d="M1057.34,611.28c4.69-4.15,14.54-.68,14.54-.68s2.24,10.19-2.46,14.35-11.21,4.46-14.55.69S1052.64,615.44,1057.34,611.28Z"/><path class="cls-10" d="M1052.92,622.68c1.36-1.21,4.79.45,4.79.45s1.23,3.6-.13,4.81a3.52,3.52,0,0,1-4.66-5.26Z"/><ellipse class="cls-12" cx="1052.5" cy="627.7" rx="1.42" ry="1.61" transform="translate(-151.74 854.81) rotate(-41.49)"/><path class="cls-10" d="M1052.87,624.15c-1-.39-1.95-.77-2.94-1.11a.23.23,0,0,0-.28.14c-.48,1.37-1,2.76-1.4,4.15a.22.22,0,0,0,.42.13c.45-1.38.92-2.77,1.4-4.15l-.28.14c1,.35,2,.72,2.94,1.12.26.11.4-.31.14-.42Z"/><path class="cls-12" d="M1060,621.12l0,0a16.46,16.46,0,0,1,3.58,6.83l-.26.07a16.1,16.1,0,0,0-3.52-6.72l0-.05a16.09,16.09,0,0,0-6.28-4.35l.09-.25A16.43,16.43,0,0,1,1060,621.12Z"/><path class="cls-12" d="M1063.19,618.25l0,0a18.8,18.8,0,0,1,4.16,8.09l-.26.06a18.56,18.56,0,0,0-4.1-8l0-.05a18.62,18.62,0,0,0-7.46-5.09l.09-.25A18.94,18.94,0,0,1,1063.19,618.25Z"/><path class="cls-12" d="M1066.11,615.63l.05,0a19.75,19.75,0,0,1,4.31,8.27l-.25.06a19.41,19.41,0,0,0-11.93-13.49l.09-.24A19.72,19.72,0,0,1,1066.11,615.63Z"/><path class="cls-12" d="M1068.66,613.37l0,0a15.12,15.12,0,0,1,3.31,6.34l-.25.06a14.88,14.88,0,0,0-9.11-10.29l.1-.25A15.29,15.29,0,0,1,1068.66,613.37Z"/><path class="cls-10" d="M1055.51,627.71c.27,1,.52,2,.75,3l.17-.25c-1.43.31-2.86.6-4.29.88a.22.22,0,0,0,.08.43c1.44-.28,2.87-.57,4.3-.88a.23.23,0,0,0,.17-.26c-.23-1-.48-2-.75-3-.07-.27-.51-.19-.43.08Z"/><path class="cls-13" d="M179.84,375.75A289.06,289.06,0,0,1,167.91,282H48.56a289.06,289.06,0,0,1-11.93,93.77A289.14,289.14,0,0,1-7.7,464.41H224.17A289.14,289.14,0,0,1,179.84,375.75Z"/><rect class="cls-9" x="4.36" y="676.96" width="206.08" height="69.64"/><rect class="cls-9" x="4.36" y="760.75" width="206.08" height="69.64"/><rect class="cls-3" x="40.74" y="711.77" width="110.62" height="8" rx="4"/><rect class="cls-3" x="40.74" y="785.77" width="110.62" height="8" rx="4"/><circle class="cls-3" cx="433.79" cy="302.05" r="25.21"/><rect class="cls-3" x="419.75" y="322.94" width="28.09" height="12.98"/><circle class="cls-3" cx="1236.7" cy="301.89" r="25.21"/><rect class="cls-3" x="1222.66" y="322.78" width="28.09" height="12.98"/></svg>