<?xml version="1.0" encoding="iso-8859-1"?>
<!-- Generator: Adobe Illustrator 16.0.0, SVG Export Plug-In . SVG Version: 6.00 Build 0)  -->
<!DOCTYPE svg PUBLIC "-//W3C//DTD SVG 1.1//EN" "http://www.w3.org/Graphics/SVG/1.1/DTD/svg11.dtd">
<svg version="1.1" id="Layer_1" xmlns="http://www.w3.org/2000/svg" xmlns:xlink="http://www.w3.org/1999/xlink" x="0px" y="0px"
	 width="800px" height="600px" viewBox="0 0 800 600" style="enable-background:new 0 0 800 600;" xml:space="preserve">
<g>
	<path d="M19.782,42.582c0-2.122,0.436-3.972,1.307-5.55c0.871-1.579,2.096-2.923,3.675-4.035c1.579-1.111,3.473-2.027,5.683-2.747
		c2.21-0.72,4.641-1.282,7.293-1.686c2.652-0.404,5.494-0.682,8.524-0.833c3.031-0.152,6.163-0.228,9.396-0.228
		c4.395,0,8.998,0.177,13.81,0.53c4.812,0.354,9.832,0.999,15.06,1.933c1.212,0.252,2.065,0.708,2.558,1.364
		c0.493,0.657,0.739,1.389,0.739,2.197c0,0.506-0.114,0.998-0.341,1.478c-0.228,0.48-0.531,0.922-0.91,1.326
		c-0.378,0.404-0.821,0.727-1.326,0.966c-0.506,0.24-1.036,0.36-1.591,0.36c-1.945,0-3.972-0.101-6.081-0.303
		c-2.109-0.202-4.307-0.429-6.592-0.682c-2.286-0.252-4.641-0.505-7.066-0.758s-4.925-0.442-7.501-0.568
		c-0.455,2.829-1.036,5.873-1.743,9.131c-0.708,3.258-1.484,6.586-2.33,9.983c-0.847,3.397-1.73,6.782-2.652,10.154
		c-0.922,3.372-1.812,6.592-2.671,9.661c-0.859,3.069-1.661,5.904-2.406,8.506c-0.746,2.602-1.358,4.837-1.837,6.706
		c-0.203,0.858-0.512,1.647-0.928,2.368c-0.417,0.72-0.885,1.345-1.402,1.875c-0.518,0.53-1.055,0.94-1.61,1.231
		c-0.556,0.29-1.074,0.436-1.553,0.436c-1.44,0-2.627-0.341-3.562-1.023c-0.935-0.682-1.402-1.78-1.402-3.296
		c0-0.479,0.076-1.01,0.228-1.591c0.328-2.298,0.764-4.56,1.307-6.782c0.542-2.222,1.18-4.54,1.913-6.952
		c0.732-2.412,1.566-4.969,2.5-7.672c0.934-2.703,1.97-5.677,3.107-8.922c1.136-3.246,2.368-6.826,3.694-10.741
		c1.326-3.915,2.759-8.271,4.3-13.071c-1.339,0.101-2.697,0.215-4.073,0.341c-1.377,0.127-2.715,0.297-4.016,0.512
		c-1.301,0.215-2.514,0.486-3.637,0.814c-1.125,0.329-2.109,0.745-2.955,1.25c-0.847,0.506-1.516,1.112-2.008,1.819
		c-0.493,0.708-0.739,1.541-0.739,2.5c0,0.051-0.032,0.329-0.095,0.833c-0.063,0.505-0.284,1.055-0.663,1.648
		c-0.379,0.594-0.979,1.137-1.799,1.629c-0.821,0.492-1.989,0.739-3.505,0.739c-1.515,0-2.69-0.252-3.523-0.758
		c-0.833-0.505-1.439-1.061-1.818-1.667C20.085,44.299,19.832,43.491,19.782,42.582z"/>
	<path d="M114.916,83.689c-0.582,0.809-1.358,1.756-2.33,2.842c-0.973,1.086-2.065,2.121-3.277,3.106s-2.514,1.818-3.902,2.5
		c-1.39,0.683-2.779,1.023-4.167,1.023c-1.667,0-3.057-0.536-4.167-1.61c-1.112-1.073-2.072-2.633-2.88-4.679
		c-0.606,0.707-1.351,1.427-2.235,2.159c-0.885,0.733-1.851,1.396-2.898,1.989c-1.048,0.594-2.141,1.08-3.277,1.459
		s-2.273,0.568-3.41,0.568c-1.212,0-2.394-0.247-3.542-0.739c-1.15-0.492-2.166-1.199-3.05-2.122
		c-0.885-0.921-1.591-2.046-2.122-3.371c-0.53-1.326-0.795-2.823-0.795-4.49c0-1.895,0.265-3.839,0.795-5.834
		c0.531-1.995,1.263-3.946,2.198-5.854c0.934-1.907,2.039-3.706,3.315-5.399c1.275-1.692,2.671-3.169,4.187-4.433
		c1.516-1.263,3.113-2.267,4.792-3.012c1.68-0.745,3.391-1.118,5.134-1.118c0.581,0,1.036,0.114,1.364,0.341
		c0.328,0.227,0.6,0.486,0.814,0.776c0.214,0.291,0.422,0.575,0.625,0.853c0.202,0.278,0.455,0.48,0.758,0.606
		s0.612,0.208,0.928,0.246c0.315,0.038,0.638,0.057,0.966,0.057c0.277,0,0.562-0.006,0.852-0.019
		c0.29-0.013,0.574-0.019,0.853-0.019c0.379,0,0.732,0.038,1.061,0.114c0.328,0.076,0.619,0.24,0.871,0.492
		c0.252,0.253,0.448,0.606,0.587,1.061c0.139,0.455,0.208,1.074,0.208,1.856c0,1.212-0.127,2.557-0.379,4.035
		c-0.253,1.478-0.53,2.993-0.833,4.546c-0.303,1.553-0.582,3.106-0.833,4.66c-0.253,1.554-0.379,3.025-0.379,4.414
		c0,1.188,0.107,2.116,0.322,2.785c0.214,0.669,0.675,1.004,1.383,1.004c0.53,0,1.085-0.133,1.667-0.398
		c0.581-0.265,1.168-0.612,1.762-1.042c0.593-0.429,1.187-0.915,1.781-1.458c0.593-0.543,1.155-1.104,1.686-1.687
		c1.237-1.363,2.488-2.904,3.751-4.622L114.916,83.689z M82.561,80.696c0,0.632,0.043,1.244,0.132,1.838
		c0.088,0.594,0.247,1.124,0.474,1.591c0.228,0.468,0.53,0.847,0.909,1.137c0.379,0.291,0.858,0.436,1.44,0.436
		c0.934,0,1.781-0.403,2.538-1.212c0.758-0.809,1.415-1.781,1.97-2.918s1.004-2.311,1.345-3.523
		c0.341-1.212,0.562-2.223,0.663-3.031l2.311-11.139c-1.036,0-2.046,0.259-3.031,0.777c-0.985,0.518-1.913,1.219-2.785,2.103
		c-0.871,0.884-1.673,1.895-2.406,3.031c-0.733,1.137-1.364,2.33-1.894,3.581c-0.531,1.25-0.941,2.507-1.231,3.77
		C82.706,78.398,82.561,79.584,82.561,80.696z"/>
	<path d="M122.607,71.792c0.909-1.162,1.907-2.438,2.993-3.827c1.085-1.389,2.153-2.715,3.201-3.978
		c1.048-1.263,2.008-2.387,2.879-3.372c0.872-0.985,1.56-1.654,2.065-2.008c0.783-0.556,1.743-1.029,2.879-1.421
		c1.137-0.391,2.399-0.587,3.789-0.587c0.707,0,1.383,0.165,2.027,0.493c0.644,0.329,1.206,0.795,1.686,1.402
		c0.479,0.606,0.858,1.339,1.136,2.197c0.278,0.859,0.417,1.819,0.417,2.879c0,1.036-0.253,2.078-0.758,3.126
		c-0.505,1.048-1.137,2.103-1.895,3.164c-0.757,1.061-1.579,2.122-2.462,3.182c-0.884,1.061-1.705,2.128-2.463,3.201
		c-0.758,1.074-1.389,2.141-1.894,3.202c-0.506,1.061-0.758,2.121-0.758,3.183c0,0.909,0.221,1.56,0.663,1.951
		c0.441,0.392,1.13,0.587,2.065,0.587c0.505,0,1.054-0.171,1.648-0.512c0.593-0.341,1.206-0.789,1.837-1.345
		c0.631-0.556,1.269-1.175,1.913-1.856c0.645-0.682,1.263-1.376,1.856-2.084c0.593-0.707,1.156-1.383,1.686-2.026
		c0.531-0.645,1.01-1.194,1.44-1.648l2.273,9.282c-0.783,1.137-1.774,2.191-2.974,3.163c-1.2,0.973-2.5,1.819-3.902,2.539
		s-2.854,1.282-4.357,1.686c-1.503,0.404-2.949,0.606-4.338,0.606c-1.819,0-3.303-0.221-4.452-0.663
		c-1.15-0.441-2.053-1.028-2.709-1.762c-0.657-0.732-1.105-1.56-1.345-2.481c-0.24-0.922-0.36-1.876-0.36-2.86
		c0-0.581,0.069-1.294,0.208-2.141c0.139-0.846,0.404-1.8,0.795-2.86c0.392-1.062,0.941-2.229,1.648-3.505
		c0.707-1.275,1.629-2.646,2.766-4.111c0.455-0.455,0.872-0.865,1.25-1.231c0.378-0.366,0.707-0.694,0.985-0.985
		c0.278-0.29,0.493-0.562,0.644-0.814c0.151-0.252,0.228-0.518,0.228-0.796c0-0.53-0.095-0.959-0.284-1.288
		c-0.189-0.328-0.461-0.492-0.815-0.492c-0.43,0-0.985,0.278-1.667,0.833c-0.682,0.556-1.427,1.528-2.235,2.917L118.78,90.281
		c-0.581,1.011-1.181,1.712-1.799,2.104c-0.62,0.392-1.333,0.587-2.141,0.587c-1.086,0-1.945-0.233-2.577-0.701
		c-0.631-0.467-1.112-1.099-1.439-1.895c-0.329-0.795-0.537-1.717-0.625-2.766c-0.088-1.048-0.132-2.165-0.132-3.353
		c0-1.439,0.05-3.347,0.151-5.721c0.101-2.374,0.252-4.982,0.455-7.824c0.202-2.841,0.474-5.815,0.815-8.922
		c0.341-3.106,0.751-6.125,1.231-9.055c0.177-1.036,0.404-2.292,0.682-3.77c0.278-1.478,0.625-3.062,1.042-4.755
		c0.417-1.692,0.909-3.454,1.478-5.285c0.568-1.831,1.225-3.611,1.97-5.342c0.745-1.73,1.584-3.378,2.52-4.944
		c0.934-1.566,1.982-2.936,3.145-4.111c1.162-1.174,2.437-2.103,3.827-2.785c1.389-0.682,2.904-1.023,4.546-1.023
		c1.288,0,2.349,0.208,3.183,0.625c0.833,0.417,1.496,0.999,1.989,1.743c0.493,0.745,0.839,1.635,1.042,2.671
		c0.202,1.036,0.303,2.16,0.303,3.372c0,2.147-0.272,4.458-0.815,6.933c-0.543,2.476-1.231,4.958-2.064,7.445
		c-0.833,2.488-1.743,4.906-2.728,7.255s-1.932,4.471-2.841,6.365c-0.91,1.894-1.711,3.492-2.406,4.792
		c-0.695,1.301-1.155,2.154-1.383,2.557l-4.508,6.744L122.607,71.792z M130.033,29.245c-0.809,0-1.503,0.253-2.083,0.758
		c-0.582,0.506-1.131,1.226-1.648,2.16c-0.518,0.935-1.036,2.071-1.553,3.41c-0.518,1.339-1.105,2.829-1.762,4.471
		c-0.404,1.44-0.777,2.931-1.118,4.471c-0.341,1.541-0.65,3.076-0.928,4.604c-0.278,1.528-0.524,3.037-0.739,4.527
		c-0.215,1.491-0.398,2.893-0.549,4.206c-0.379,3.106-0.682,6.163-0.909,9.168c0.555-1.667,1.161-3.479,1.818-5.437
		c0.657-1.958,1.307-3.89,1.951-5.797c0.644-1.907,1.25-3.713,1.818-5.418c0.568-1.705,1.042-3.15,1.421-4.338
		c0.176-0.555,0.429-1.25,0.758-2.084c0.328-0.833,0.682-1.729,1.061-2.69c0.379-0.959,0.757-1.957,1.136-2.993
		c0.379-1.035,0.726-2.033,1.042-2.993c0.315-0.96,0.574-1.856,0.777-2.69c0.202-0.833,0.303-1.541,0.303-2.122
		C130.829,29.65,130.563,29.245,130.033,29.245z"/>
	<path d="M171.026,84.901c-0.909,0.834-2.04,1.725-3.391,2.672c-1.352,0.946-2.811,1.818-4.376,2.613
		c-1.566,0.796-3.164,1.459-4.793,1.989c-1.629,0.53-3.176,0.796-4.641,0.796c-1.313,0-2.419-0.183-3.315-0.55
		c-0.897-0.365-1.624-0.877-2.179-1.534c-0.556-0.656-0.954-1.458-1.193-2.405c-0.24-0.947-0.36-1.989-0.36-3.126
		c0-1.591,0.183-3.441,0.549-5.551c0.366-2.108,0.814-4.293,1.345-6.554c0.53-2.26,1.092-4.515,1.686-6.763
		c0.593-2.248,1.118-4.319,1.572-6.213c0.177-0.657,0.531-1.218,1.061-1.686c0.53-0.467,1.13-0.846,1.8-1.137
		c0.669-0.29,1.364-0.505,2.083-0.644c0.72-0.139,1.37-0.208,1.951-0.208c1.061,0,1.781,0.196,2.16,0.587
		c0.379,0.392,0.568,0.916,0.568,1.572c0,0.556-0.127,1.358-0.379,2.406c-0.253,1.048-0.568,2.235-0.947,3.562
		s-0.783,2.753-1.212,4.281c-0.43,1.528-0.833,3.056-1.212,4.584c-0.379,1.529-0.695,3.019-0.947,4.471s-0.378,2.76-0.378,3.921
		c0,1.137,0.126,2.04,0.378,2.709c0.252,0.67,0.771,1.004,1.554,1.004c0.909,0,1.919-0.315,3.031-0.947
		c1.111-0.631,2.235-1.396,3.372-2.292s2.248-1.824,3.334-2.784c1.086-0.96,2.046-1.781,2.879-2.463V84.901z M154.091,45.954
		c0-0.581,0.126-1.237,0.379-1.97c0.252-0.732,0.663-1.421,1.231-2.065s1.326-1.187,2.273-1.629
		c0.947-0.442,2.128-0.663,3.542-0.663c0.884,0,1.717,0.101,2.5,0.303c0.783,0.202,1.465,0.511,2.046,0.928
		c0.581,0.417,1.042,0.966,1.383,1.648c0.341,0.682,0.511,1.491,0.511,2.425c0,0.859-0.139,1.692-0.417,2.5
		c-0.278,0.809-0.72,1.528-1.326,2.16c-0.606,0.631-1.371,1.143-2.292,1.534c-0.922,0.392-2.027,0.587-3.315,0.587
		c-2.223,0-3.864-0.524-4.925-1.572C154.622,49.092,154.091,47.696,154.091,45.954z"/>
	<path d="M168.336,85.053c0-1.667,0.101-3.593,0.303-5.778c0.202-2.185,0.455-4.407,0.757-6.668c0.303-2.26,0.644-4.438,1.023-6.536
		c0.379-2.096,0.745-3.889,1.099-5.38c0.277-1.161,0.814-2.134,1.61-2.917c0.796-0.783,1.875-1.175,3.239-1.175
		c1.364,0,2.312,0.417,2.842,1.25s0.795,1.945,0.795,3.334c0,0.379-0.038,0.89-0.113,1.534c-0.076,0.644-0.171,1.352-0.284,2.122
		c-0.114,0.771-0.234,1.566-0.36,2.387c-0.126,0.821-0.246,1.579-0.36,2.273c-0.113,0.695-0.208,1.301-0.284,1.819
		c-0.076,0.518-0.113,0.865-0.113,1.042h0.757c0.152-0.278,0.392-0.726,0.72-1.345c0.328-0.619,0.707-1.332,1.136-2.141
		c0.429-0.808,0.891-1.661,1.383-2.557c0.492-0.896,0.953-1.755,1.383-2.577c0.429-0.82,0.82-1.547,1.174-2.178
		c0.354-0.631,0.619-1.099,0.796-1.402c0.808-1.364,1.729-2.298,2.766-2.804c1.035-0.505,2.185-0.758,3.448-0.758
		c1.263,0,2.267,0.531,3.012,1.591c0.745,1.061,1.118,2.526,1.118,4.395c0,0.278-0.057,0.745-0.17,1.402
		c-0.114,0.657-0.259,1.439-0.436,2.349c-0.177,0.91-0.373,1.908-0.587,2.993c-0.215,1.086-0.411,2.198-0.587,3.334
		c-0.177,1.137-0.322,2.261-0.436,3.372c-0.114,1.112-0.17,2.135-0.17,3.069c0,1.566,0.195,2.854,0.587,3.864
		c0.391,1.011,1.004,1.516,1.837,1.516c0.379,0,0.814-0.114,1.307-0.342c0.493-0.227,1.023-0.523,1.591-0.89s1.149-0.789,1.743-1.27
		c0.593-0.479,1.18-0.972,1.762-1.478c1.338-1.187,2.74-2.525,4.206-4.016l0.644,8.486l-1.895,1.439
		c-1.036,0.783-2.09,1.566-3.164,2.35c-1.074,0.783-2.191,1.483-3.353,2.103c-1.162,0.619-2.375,1.124-3.637,1.516
		c-1.263,0.392-2.589,0.587-3.978,0.587c-1.389,0-2.557-1.004-3.504-3.012c-0.947-2.009-1.421-4.944-1.421-8.809
		c0-1.516,0.101-3.151,0.303-4.907c0.202-1.755,0.455-3.643,0.758-5.664h-0.606l-9.926,19.701c-0.505,1.036-1.074,1.743-1.705,2.122
		s-1.364,0.568-2.197,0.568c-1.036,0-1.87-0.221-2.5-0.663c-0.632-0.441-1.118-1.035-1.458-1.78
		c-0.341-0.745-0.568-1.592-0.682-2.539S168.336,86.063,168.336,85.053z"/>
	<path d="M219.105,88.993c-1.364,1.213-2.785,2.192-4.263,2.937c-1.478,0.745-2.911,1.118-4.3,1.118
		c-1.212,0-2.394-0.247-3.542-0.739c-1.15-0.492-2.166-1.199-3.05-2.122c-0.885-0.921-1.591-2.046-2.122-3.371
		c-0.53-1.326-0.795-2.823-0.795-4.49c0-1.895,0.265-3.839,0.795-5.834c0.531-1.995,1.263-3.946,2.198-5.854
		c0.934-1.907,2.039-3.706,3.315-5.399c1.275-1.692,2.671-3.169,4.187-4.433c1.516-1.263,3.113-2.267,4.792-3.012
		c1.68-0.745,3.391-1.118,5.134-1.118c0.581,0,1.036,0.114,1.364,0.341c0.328,0.227,0.6,0.486,0.814,0.776
		c0.214,0.291,0.422,0.575,0.625,0.853c0.202,0.278,0.455,0.48,0.758,0.606s0.612,0.208,0.928,0.246
		c0.315,0.038,0.638,0.057,0.966,0.057c0.277,0,0.562-0.006,0.852-0.019c0.29-0.013,0.574-0.019,0.853-0.019
		c0.379,0,0.732,0.038,1.061,0.114c0.328,0.076,0.619,0.24,0.871,0.492c0.252,0.253,0.448,0.606,0.587,1.061
		c0.139,0.455,0.208,1.074,0.208,1.856c0,0.657-0.051,1.541-0.151,2.652c-0.102,1.112-0.241,2.349-0.417,3.713
		c-0.177,1.364-0.373,2.811-0.587,4.338c-0.215,1.528-0.436,3.025-0.663,4.489c-0.53,3.486-1.136,7.212-1.818,11.177
		c0.758-0.429,1.578-0.959,2.463-1.591c0.884-0.631,1.869-1.478,2.955-2.539c1.085-1.061,2.298-2.393,3.637-3.997
		c1.338-1.604,2.841-3.604,4.508-6.005l1.819,8.411c-0.455,0.783-1.042,1.585-1.762,2.405c-0.72,0.821-1.516,1.643-2.387,2.463
		c-0.871,0.821-1.781,1.617-2.728,2.387c-0.947,0.771-1.875,1.497-2.785,2.179c-2.147,1.616-4.458,3.183-6.933,4.698
		c-0.48,2.702-1.048,5.336-1.705,7.899s-1.434,4.963-2.33,7.198s-1.919,4.287-3.069,6.157c-1.149,1.868-2.45,3.473-3.902,4.812
		c-1.453,1.338-3.075,2.38-4.868,3.125c-1.794,0.745-3.776,1.118-5.948,1.118c-0.859,0-1.787-0.089-2.785-0.266
		c-0.998-0.177-1.92-0.53-2.766-1.061c-0.846-0.53-1.546-1.288-2.103-2.273c-0.555-0.984-0.833-2.299-0.833-3.94
		c0-1.136,0.291-2.418,0.872-3.845c0.581-1.428,1.377-2.931,2.387-4.509c1.01-1.579,2.21-3.221,3.599-4.926
		c1.389-1.704,2.898-3.403,4.528-5.096c1.629-1.692,3.334-3.359,5.115-5.001c1.78-1.642,3.58-3.208,5.399-4.698L219.105,88.993z
		 M205.125,120.856c1.061,0,2.065-0.31,3.012-0.928c0.947-0.62,1.818-1.435,2.614-2.444c0.796-1.011,1.521-2.159,2.179-3.447
		c0.656-1.288,1.237-2.608,1.743-3.959c0.505-1.352,0.934-2.672,1.288-3.96c0.354-1.288,0.631-2.438,0.833-3.447
		c-0.985,0.656-1.989,1.439-3.012,2.349s-2.021,1.888-2.993,2.937c-0.973,1.048-1.895,2.128-2.766,3.239
		c-0.872,1.111-1.636,2.179-2.292,3.201c-0.657,1.023-1.174,1.977-1.553,2.86s-0.568,1.616-0.568,2.198
		C203.609,120.388,204.114,120.856,205.125,120.856z M210.732,80.696c0,0.632,0.043,1.244,0.132,1.838
		c0.088,0.594,0.247,1.124,0.474,1.591c0.228,0.468,0.53,0.847,0.909,1.137c0.379,0.291,0.858,0.436,1.44,0.436
		c0.934,0,1.781-0.403,2.538-1.212c0.758-0.809,1.415-1.781,1.97-2.918s1.004-2.311,1.345-3.523
		c0.341-1.212,0.562-2.223,0.663-3.031l2.311-11.139c-1.036,0-2.046,0.259-3.031,0.777c-0.985,0.518-1.913,1.219-2.785,2.103
		c-0.871,0.884-1.673,1.895-2.406,3.031c-0.733,1.137-1.364,2.33-1.894,3.581c-0.531,1.25-0.941,2.507-1.231,3.77
		C210.877,78.398,210.732,79.584,210.732,80.696z"/>
	<path d="M237.404,78.422c1.414-1.212,2.563-2.222,3.448-3.031c0.884-0.808,1.642-1.547,2.273-2.216
		c0.631-0.669,1.206-1.345,1.724-2.027c0.517-0.682,1.13-1.49,1.837-2.425c0.707-0.934,1.566-2.077,2.576-3.429
		c1.01-1.351,2.324-3.037,3.94-5.058c0.328-0.455,0.694-0.896,1.099-1.326c0.404-0.429,0.853-0.814,1.345-1.155
		c0.492-0.341,1.035-0.619,1.629-0.833c0.593-0.214,1.256-0.322,1.989-0.322c1.212,0,2.146,0.133,2.804,0.398
		c0.656,0.265,1.136,0.587,1.439,0.966c0.303,0.378,0.479,0.776,0.53,1.193c0.05,0.417,0.076,0.776,0.076,1.08
		c0,0.606-0.241,1.276-0.72,2.008c-0.48,0.732-1.01,1.439-1.591,2.122c-0.581,0.682-1.13,1.307-1.648,1.875
		c-0.518,0.568-0.814,0.991-0.89,1.269c0,0.783,0.057,1.497,0.17,2.141s0.265,1.276,0.455,1.894c0.189,0.62,0.385,1.276,0.587,1.97
		c0.202,0.695,0.397,1.497,0.587,2.406c0.189,0.909,0.341,1.957,0.455,3.145c0.114,1.188,0.171,2.589,0.171,4.205
		c0.909-0.606,1.888-1.155,2.936-1.647c1.048-0.493,2.141-1.005,3.277-1.535s2.305-1.117,3.504-1.762
		c1.199-0.644,2.406-1.421,3.618-2.33l0.038,8.487c-1.566,1.212-3.378,2.349-5.437,3.409c-2.059,1.062-4.218,1.996-6.479,2.804
		c-2.261,0.809-4.546,1.446-6.857,1.913c-2.311,0.468-4.503,0.701-6.574,0.701c-1.49,0-2.879-0.139-4.167-0.417
		c-1.288-0.277-2.419-0.713-3.391-1.307c-0.973-0.593-1.762-1.37-2.368-2.33c-0.606-0.96-0.973-2.122-1.099-3.485
		c-0.354,0.075-0.701,0.126-1.042,0.151c-0.341,0.025-0.676,0.038-1.004,0.038c-0.404,0-0.783-0.013-1.137-0.038
		c-0.354-0.025-0.657-0.12-0.909-0.284c-0.253-0.164-0.455-0.43-0.606-0.796c-0.152-0.365-0.228-0.891-0.228-1.572
		c0-0.606,0.151-1.168,0.455-1.686s0.657-0.979,1.061-1.383c0.404-0.404,0.808-0.758,1.212-1.062
		C236.899,78.839,237.202,78.599,237.404,78.422z M242.254,83.272c0.303,0,0.637,0.189,1.004,0.568
		c0.366,0.379,0.789,0.796,1.269,1.25c0.479,0.455,1.036,0.872,1.667,1.251s1.351,0.568,2.16,0.568c0.985,0,1.8-0.164,2.444-0.493
		c0.644-0.328,1.155-0.764,1.534-1.307s0.644-1.175,0.796-1.895c0.151-0.72,0.227-1.471,0.227-2.254
		c0-0.683-0.044-1.377-0.132-2.084c-0.089-0.707-0.203-1.383-0.341-2.027c-0.139-0.644-0.291-1.25-0.455-1.818
		c-0.165-0.568-0.31-1.054-0.436-1.458L242.254,83.272z"/>
	<path d="M292.037,85.053c0-1.667,0.101-3.593,0.303-5.778c0.202-2.185,0.455-4.407,0.757-6.668c0.303-2.26,0.644-4.438,1.023-6.536
		c0.379-2.096,0.745-3.889,1.099-5.38c0.277-1.161,0.814-2.134,1.61-2.917c0.796-0.783,1.875-1.175,3.239-1.175
		c1.364,0,2.312,0.417,2.842,1.25s0.795,1.945,0.795,3.334c0,0.379-0.038,0.89-0.113,1.534c-0.076,0.644-0.171,1.352-0.284,2.122
		c-0.114,0.771-0.234,1.566-0.36,2.387c-0.126,0.821-0.246,1.579-0.36,2.273c-0.113,0.695-0.208,1.301-0.284,1.819
		c-0.076,0.518-0.113,0.865-0.113,1.042h0.757c0.152-0.278,0.392-0.726,0.72-1.345c0.328-0.619,0.707-1.332,1.136-2.141
		c0.429-0.808,0.891-1.661,1.383-2.557c0.492-0.896,0.953-1.755,1.383-2.577c0.429-0.82,0.82-1.547,1.174-2.178
		c0.354-0.631,0.619-1.099,0.796-1.402c0.808-1.364,1.729-2.298,2.766-2.804c1.035-0.505,2.185-0.758,3.448-0.758
		c1.263,0,2.267,0.531,3.012,1.591c0.745,1.061,1.118,2.526,1.118,4.395c0,0.278-0.057,0.745-0.17,1.402
		c-0.114,0.657-0.259,1.439-0.436,2.349c-0.177,0.91-0.373,1.908-0.587,2.993c-0.215,1.086-0.411,2.198-0.587,3.334
		c-0.177,1.137-0.322,2.261-0.436,3.372c-0.114,1.112-0.17,2.135-0.17,3.069c0,1.566,0.195,2.854,0.587,3.864
		c0.391,1.011,1.004,1.516,1.837,1.516c0.379,0,0.814-0.114,1.307-0.342c0.493-0.227,1.023-0.523,1.591-0.89s1.149-0.789,1.743-1.27
		c0.593-0.479,1.18-0.972,1.762-1.478c1.338-1.187,2.74-2.525,4.206-4.016l0.644,8.486l-1.895,1.439
		c-1.036,0.783-2.09,1.566-3.164,2.35c-1.074,0.783-2.191,1.483-3.353,2.103c-1.162,0.619-2.375,1.124-3.637,1.516
		c-1.263,0.392-2.589,0.587-3.978,0.587c-1.389,0-2.557-1.004-3.504-3.012c-0.947-2.009-1.421-4.944-1.421-8.809
		c0-1.516,0.101-3.151,0.303-4.907c0.202-1.755,0.455-3.643,0.758-5.664h-0.606l-9.926,19.701c-0.505,1.036-1.074,1.743-1.705,2.122
		s-1.364,0.568-2.197,0.568c-1.036,0-1.87-0.221-2.5-0.663c-0.632-0.441-1.118-1.035-1.458-1.78
		c-0.341-0.745-0.568-1.592-0.682-2.539S292.037,86.063,292.037,85.053z"/>
	<path d="M350.421,64.594c0.732,1.465,1.281,3.012,1.648,4.641c0.366,1.629,0.549,3.189,0.549,4.679
		c0,1.491-0.165,2.993-0.493,4.508c-0.329,1.516-0.802,2.98-1.42,4.396c-0.62,1.414-1.377,2.74-2.273,3.978
		c-0.897,1.238-1.92,2.312-3.069,3.221c-1.149,0.909-2.406,1.629-3.77,2.159c-1.364,0.53-2.817,0.796-4.357,0.796
		c-2.223,0-4.124-0.486-5.702-1.459c-1.579-0.972-2.874-2.241-3.883-3.808c-1.011-1.565-1.75-3.334-2.217-5.304
		c-0.467-1.971-0.701-3.965-0.701-5.986c0-2.778,0.417-5.374,1.25-7.786c0.834-2.412,2.027-4.509,3.581-6.29
		c1.553-1.78,3.454-3.182,5.702-4.205c2.248-1.023,4.773-1.535,7.577-1.535c2.399,0,4.647,0.373,6.744,1.118
		c2.096,0.746,4.06,1.743,5.891,2.993c1.831,1.25,3.536,2.684,5.115,4.3c1.578,1.617,3.05,3.284,4.414,5.001l-0.72,5.342
		c-0.682-0.91-1.604-1.895-2.766-2.956c-1.162-1.061-2.393-2.096-3.694-3.106c-1.301-1.01-2.583-1.964-3.846-2.861
		c-1.263-0.896-2.349-1.648-3.258-2.254L350.421,64.594z M338.714,85.697c0.858,0,1.692-0.436,2.5-1.307
		c0.808-0.872,1.515-1.971,2.122-3.297c0.606-1.325,1.092-2.79,1.458-4.395c0.366-1.604,0.549-3.138,0.549-4.603
		c0-1.162-0.089-2.242-0.265-3.24c-0.177-0.997-0.442-1.862-0.795-2.595c-0.354-0.732-0.809-1.313-1.364-1.743
		c-0.556-0.429-1.225-0.644-2.008-0.644c-1.036,0-2.021,0.442-2.955,1.326c-0.935,0.884-1.756,2.014-2.463,3.391
		c-0.708,1.377-1.263,2.898-1.667,4.565c-0.404,1.667-0.606,3.271-0.606,4.812c0,1.061,0.101,2.059,0.303,2.993
		s0.518,1.749,0.947,2.443c0.429,0.695,0.998,1.25,1.705,1.667C336.882,85.489,337.729,85.697,338.714,85.697z"/>
	<path d="M391.756,84.485c-2.425,1.414-4.584,2.651-6.479,3.713c-1.894,1.061-3.58,1.945-5.058,2.651
		c-1.478,0.708-2.792,1.238-3.94,1.592c-1.149,0.354-2.191,0.53-3.125,0.53c-1.92,0-3.612-0.581-5.077-1.743
		c-1.465-1.161-2.69-2.835-3.675-5.02s-1.724-4.831-2.216-7.938s-0.739-6.604-0.739-10.495c0-1.516,0.062-3.131,0.189-4.85
		c0.126-1.717,0.303-3.422,0.53-5.115c-0.758-0.101-1.345-0.195-1.762-0.284c-0.417-0.088-0.859-0.176-1.326-0.265
		c-0.468-0.088-1.061-0.183-1.781-0.284c-0.72-0.101-1.762-0.227-3.125-0.379c-0.606-0.076-1.073-0.221-1.402-0.436
		c-0.328-0.214-0.568-0.467-0.72-0.758c-0.152-0.29-0.24-0.593-0.265-0.909c-0.025-0.315-0.038-0.587-0.038-0.814
		c0-0.505,0.246-0.891,0.739-1.156s1.124-0.46,1.895-0.587c0.771-0.126,1.616-0.195,2.538-0.208s1.806-0.006,2.652,0.019
		c0.846,0.026,1.604,0.044,2.273,0.057c0.669,0.013,1.13-0.006,1.383-0.057c0.682-3.41,1.547-6.712,2.595-9.907
		c1.048-3.195,2.222-6.037,3.523-8.524c1.3-2.488,2.721-4.483,4.262-5.986c1.541-1.502,3.157-2.254,4.85-2.254
		c1.085,0,2.077,0.303,2.974,0.909c0.896,0.606,1.661,1.415,2.292,2.425c0.631,1.011,1.118,2.192,1.458,3.542
		c0.341,1.352,0.512,2.76,0.512,4.225c0,1.238-0.177,2.545-0.53,3.921c-0.354,1.377-0.833,2.779-1.44,4.205
		c-0.606,1.428-1.32,2.874-2.141,4.338s-1.686,2.917-2.595,4.357c0.228,0.025,0.606,0.044,1.137,0.057
		c0.53,0.013,1.143,0.032,1.837,0.057c0.694,0.025,1.446,0.057,2.254,0.095c0.808,0.038,1.591,0.07,2.349,0.095
		c0.757,0.025,1.464,0.051,2.122,0.076c0.656,0.025,1.199,0.051,1.629,0.076c0.505,0.025,0.872,0.278,1.099,0.758
		c0.228,0.48,0.341,1.086,0.341,1.818c0,0.885-0.253,1.604-0.758,2.16c-0.505,0.556-1.061,0.833-1.667,0.833h-14.549
		c-0.733,1.011-1.472,2.002-2.216,2.974c-0.745,0.973-1.434,1.851-2.065,2.633c-0.101,1.566-0.189,3.106-0.265,4.622
		c-0.025,0.657-0.051,1.333-0.076,2.027c-0.025,0.695-0.051,1.383-0.076,2.065c-0.025,0.682-0.044,1.339-0.057,1.97
		c-0.013,0.632-0.019,1.212-0.019,1.743c0,1.363,0.126,2.513,0.379,3.447c0.252,0.935,0.619,1.699,1.099,2.292
		c0.479,0.594,1.067,1.023,1.762,1.288c0.694,0.266,1.471,0.398,2.33,0.398c0.53,0,1.193-0.126,1.989-0.379
		c0.796-0.253,1.667-0.6,2.614-1.042c0.947-0.441,1.945-0.967,2.993-1.572c1.048-0.606,2.084-1.27,3.107-1.989
		s2.001-1.478,2.936-2.273c0.934-0.796,1.781-1.609,2.539-2.443V84.485z M379.632,36.52c0-0.277-0.019-0.587-0.057-0.928
		c-0.038-0.341-0.12-0.663-0.247-0.966c-0.126-0.303-0.322-0.556-0.587-0.758s-0.638-0.303-1.118-0.303
		c-0.657,0-1.32,0.582-1.989,1.743c-0.669,1.162-1.313,2.646-1.932,4.452c-0.619,1.806-1.2,3.795-1.743,5.967
		c-0.543,2.173-1.042,4.281-1.497,6.327c0.379,0.051,0.758,0.095,1.137,0.133c0.379,0.038,0.77,0.082,1.174,0.132
		c0.758-1.288,1.547-2.683,2.368-4.187c0.821-1.502,1.56-2.98,2.217-4.433c0.656-1.452,1.199-2.81,1.629-4.073
		C379.417,38.364,379.632,37.328,379.632,36.52z"/>
	<path d="M403.387,92.971c-2.374,0-4.451-0.429-6.232-1.288c-1.781-0.858-3.265-2.014-4.452-3.467
		c-1.188-1.452-2.078-3.132-2.671-5.039c-0.594-1.906-0.891-3.908-0.891-6.005c0-1.414,0.139-2.911,0.417-4.49
		c0.277-1.578,0.701-3.125,1.269-4.641s1.282-2.961,2.141-4.338c0.858-1.376,1.862-2.589,3.012-3.637
		c1.149-1.048,2.437-1.881,3.864-2.5c1.427-0.619,3.012-0.928,4.755-0.928c1.414,0,2.729,0.227,3.939,0.682
		c1.213,0.455,2.268,1.093,3.164,1.914c0.896,0.821,1.598,1.812,2.104,2.974c0.504,1.162,0.758,2.462,0.758,3.902
		c0,1.566-0.387,3.132-1.156,4.698c-0.771,1.566-1.838,3.044-3.201,4.433s-2.987,2.627-4.869,3.712
		c-1.882,1.087-3.921,1.933-6.118,2.539c0.379,0.682,0.751,1.25,1.118,1.705c0.366,0.454,0.739,0.809,1.118,1.061
		c0.379,0.253,0.776,0.43,1.193,0.53c0.417,0.102,0.864,0.151,1.345,0.151c1.516,0,3.112-0.303,4.794-0.909
		c1.678-0.606,3.314-1.364,4.906-2.273c1.59-0.909,3.094-1.9,4.508-2.974s2.613-2.09,3.6-3.05l4.887,5.076
		c-2.223,2.299-4.584,4.333-7.084,6.101c-1.088,0.758-2.256,1.503-3.506,2.235s-2.562,1.383-3.939,1.951s-2.805,1.022-4.281,1.363
		C406.399,92.8,404.902,92.971,403.387,92.971z M398.348,75.165c0.91,0,1.9-0.233,2.974-0.701c1.073-0.467,2.07-1.067,2.993-1.8
		c0.922-0.732,1.698-1.528,2.33-2.387c0.631-0.858,0.947-1.692,0.947-2.5c0-1.137-0.208-2.071-0.625-2.804
		c-0.417-0.732-0.929-1.099-1.535-1.099c-1.086,0-2.015,0.203-2.784,0.606c-0.771,0.405-1.415,0.928-1.932,1.573
		c-0.518,0.644-0.935,1.377-1.25,2.197c-0.316,0.821-0.556,1.648-0.72,2.481c-0.165,0.833-0.271,1.642-0.322,2.425
		C398.373,73.939,398.348,74.609,398.348,75.165z"/>
	<path d="M419.186,78.422c1.415-1.212,2.563-2.222,3.448-3.031c0.884-0.808,1.642-1.547,2.273-2.216
		c0.631-0.669,1.205-1.345,1.724-2.027c0.518-0.682,1.13-1.49,1.838-2.425c0.706-0.934,1.565-2.077,2.576-3.429
		c1.01-1.351,2.323-3.037,3.939-5.058c0.328-0.455,0.695-0.896,1.1-1.326c0.403-0.429,0.852-0.814,1.345-1.155
		c0.492-0.341,1.035-0.619,1.629-0.833c0.593-0.214,1.256-0.322,1.989-0.322c1.212,0,2.146,0.133,2.804,0.398
		c0.656,0.265,1.137,0.587,1.439,0.966c0.303,0.378,0.479,0.776,0.53,1.193c0.051,0.417,0.076,0.776,0.076,1.08
		c0,0.606-0.24,1.276-0.72,2.008c-0.48,0.732-1.011,1.439-1.592,2.122c-0.581,0.682-1.131,1.307-1.647,1.875
		c-0.519,0.568-0.815,0.991-0.891,1.269c0,0.783,0.057,1.497,0.17,2.141c0.114,0.644,0.266,1.276,0.455,1.894
		c0.189,0.62,0.385,1.276,0.587,1.97c0.202,0.695,0.398,1.497,0.588,2.406c0.189,0.909,0.341,1.957,0.454,3.145
		c0.114,1.188,0.171,2.589,0.171,4.205c0.909-0.606,1.888-1.155,2.937-1.647c1.047-0.493,2.141-1.005,3.276-1.535
		c1.137-0.53,2.305-1.117,3.505-1.762c1.199-0.644,2.406-1.421,3.618-2.33l0.038,8.487c-1.566,1.212-3.379,2.349-5.437,3.409
		c-2.06,1.062-4.219,1.996-6.479,2.804c-2.261,0.809-4.546,1.446-6.857,1.913c-2.311,0.468-4.502,0.701-6.573,0.701
		c-1.49,0-2.879-0.139-4.167-0.417c-1.288-0.277-2.419-0.713-3.392-1.307c-0.973-0.593-1.762-1.37-2.367-2.33
		c-0.606-0.96-0.973-2.122-1.099-3.485c-0.354,0.075-0.701,0.126-1.042,0.151c-0.342,0.025-0.677,0.038-1.004,0.038
		c-0.405,0-0.783-0.013-1.137-0.038c-0.354-0.025-0.657-0.12-0.909-0.284c-0.253-0.164-0.455-0.43-0.606-0.796
		c-0.151-0.365-0.228-0.891-0.228-1.572c0-0.606,0.151-1.168,0.455-1.686c0.303-0.518,0.656-0.979,1.061-1.383
		c0.403-0.404,0.808-0.758,1.212-1.062C418.681,78.839,418.983,78.599,419.186,78.422z M424.035,83.272
		c0.304,0,0.638,0.189,1.004,0.568s0.79,0.796,1.27,1.25c0.479,0.455,1.035,0.872,1.667,1.251c0.631,0.379,1.351,0.568,2.16,0.568
		c0.984,0,1.799-0.164,2.443-0.493c0.644-0.328,1.155-0.764,1.534-1.307s0.645-1.175,0.796-1.895s0.228-1.471,0.228-2.254
		c0-0.683-0.045-1.377-0.133-2.084c-0.089-0.707-0.202-1.383-0.341-2.027c-0.14-0.644-0.291-1.25-0.455-1.818
		s-0.31-1.054-0.436-1.458L424.035,83.272z"/>
	<path d="M493.218,63.874c0.201-0.858,0.562-1.623,1.079-2.292c0.518-0.669,1.111-1.231,1.781-1.686
		c0.669-0.455,1.369-0.796,2.103-1.023c0.732-0.228,1.427-0.341,2.084-0.341c0.782,0,1.439,0.171,1.97,0.512s0.796,0.878,0.796,1.61
		c0,0.227-0.038,0.492-0.114,0.795c-0.151,0.657-0.341,1.553-0.568,2.69c-0.227,1.137-0.473,2.425-0.738,3.865
		c-0.266,1.439-0.537,2.961-0.814,4.565c-0.278,1.604-0.544,3.201-0.796,4.793c-0.632,3.738-1.275,7.754-1.932,12.048
		c0.757-0.429,1.578-0.959,2.462-1.591c0.884-0.631,1.869-1.478,2.955-2.539c1.086-1.061,2.299-2.393,3.638-3.997
		c1.338-1.604,2.842-3.604,4.509-6.005l1.818,8.411c-0.455,0.783-1.042,1.585-1.762,2.405c-0.72,0.821-1.516,1.643-2.387,2.463
		c-0.872,0.821-1.781,1.617-2.729,2.387c-0.947,0.771-1.875,1.497-2.784,2.179c-2.147,1.616-4.458,3.183-6.934,4.698
		c-0.48,2.702-1.049,5.336-1.705,7.899c-0.657,2.563-1.434,4.963-2.33,7.198s-1.92,4.287-3.068,6.157
		c-1.149,1.868-2.45,3.473-3.902,4.812c-1.453,1.338-3.075,2.38-4.869,3.125c-1.793,0.745-3.775,1.118-5.948,1.118
		c-0.858,0-1.787-0.089-2.784-0.266c-0.998-0.177-1.92-0.53-2.766-1.061s-1.547-1.288-2.103-2.273
		c-0.556-0.984-0.834-2.299-0.834-3.94c0-1.136,0.291-2.418,0.871-3.845c0.582-1.428,1.377-2.931,2.388-4.509
		c1.01-1.579,2.209-3.221,3.599-4.926c1.389-1.704,2.898-3.403,4.527-5.096c1.63-1.692,3.334-3.359,5.115-5.001
		c1.78-1.642,3.58-3.208,5.398-4.698l1.023-3.523c-1.364,1.213-2.785,2.192-4.263,2.937c-1.478,0.745-2.911,1.118-4.3,1.118
		c-1.213,0-2.394-0.247-3.543-0.739s-2.166-1.199-3.05-2.122c-0.884-0.921-1.591-2.046-2.121-3.371
		c-0.53-1.326-0.796-2.823-0.796-4.49c0-2.197,0.107-4.218,0.322-6.062c0.214-1.844,0.523-3.6,0.928-5.267s0.909-3.277,1.516-4.831
		c0.606-1.553,1.301-3.125,2.084-4.717c0.581-1.137,1.414-2.001,2.5-2.595c1.086-0.593,2.146-0.89,3.183-0.89
		c0.884,0,1.642,0.221,2.273,0.663c0.631,0.442,0.947,1.131,0.947,2.065c0,0.278-0.032,0.582-0.095,0.909
		c-0.063,0.329-0.171,0.682-0.322,1.061c-0.454,1.162-0.903,2.533-1.345,4.111c-0.442,1.579-0.834,3.195-1.175,4.85
		s-0.612,3.277-0.814,4.869c-0.202,1.591-0.303,2.993-0.303,4.205c0,0.632,0.044,1.244,0.133,1.838
		c0.088,0.594,0.246,1.124,0.474,1.591c0.227,0.468,0.53,0.847,0.909,1.137c0.379,0.291,0.858,0.436,1.439,0.436
		c0.934,0,1.78-0.403,2.538-1.212s1.414-1.781,1.971-2.918c0.555-1.137,1.004-2.311,1.345-3.523
		c0.341-1.212,0.562-2.223,0.663-3.031L493.218,63.874z M475.486,120.856c1.061,0,2.064-0.31,3.012-0.928
		c0.947-0.62,1.818-1.435,2.614-2.444c0.796-1.011,1.521-2.159,2.179-3.447c0.656-1.288,1.237-2.608,1.743-3.959
		c0.505-1.352,0.934-2.672,1.288-3.96c0.354-1.288,0.631-2.438,0.833-3.447c-0.985,0.656-1.989,1.439-3.012,2.349
		c-1.023,0.909-2.021,1.888-2.993,2.937c-0.973,1.048-1.895,2.128-2.766,3.239s-1.636,2.179-2.292,3.201
		c-0.657,1.023-1.175,1.977-1.554,2.86s-0.568,1.616-0.568,2.198C473.971,120.388,474.476,120.856,475.486,120.856z"/>
	<path d="M532.241,64.594c0.732,1.465,1.281,3.012,1.647,4.641c0.366,1.629,0.55,3.189,0.55,4.679c0,1.491-0.165,2.993-0.492,4.508
		c-0.329,1.516-0.803,2.98-1.421,4.396c-0.619,1.414-1.377,2.74-2.273,3.978c-0.896,1.238-1.92,2.312-3.068,3.221
		c-1.15,0.909-2.406,1.629-3.771,2.159c-1.363,0.53-2.816,0.796-4.356,0.796c-2.224,0-4.124-0.486-5.702-1.459
		c-1.579-0.972-2.874-2.241-3.884-3.808c-1.01-1.565-1.749-3.334-2.216-5.304c-0.468-1.971-0.701-3.965-0.701-5.986
		c0-2.778,0.417-5.374,1.25-7.786c0.834-2.412,2.027-4.509,3.58-6.29c1.554-1.78,3.454-3.182,5.702-4.205s4.774-1.535,7.578-1.535
		c2.398,0,4.646,0.373,6.743,1.118c2.097,0.746,4.061,1.743,5.892,2.993s3.536,2.684,5.115,4.3c1.578,1.617,3.05,3.284,4.413,5.001
		l-0.72,5.342c-0.682-0.91-1.604-1.895-2.766-2.956c-1.162-1.061-2.394-2.096-3.694-3.106s-2.582-1.964-3.845-2.861
		c-1.264-0.896-2.35-1.648-3.259-2.254L532.241,64.594z M520.534,85.697c0.858,0,1.691-0.436,2.5-1.307
		c0.809-0.872,1.516-1.971,2.122-3.297c0.606-1.325,1.092-2.79,1.459-4.395c0.365-1.604,0.549-3.138,0.549-4.603
		c0-1.162-0.089-2.242-0.265-3.24c-0.178-0.997-0.442-1.862-0.796-2.595c-0.354-0.732-0.809-1.313-1.364-1.743
		c-0.556-0.429-1.226-0.644-2.008-0.644c-1.036,0-2.021,0.442-2.955,1.326c-0.935,0.884-1.756,2.014-2.463,3.391
		c-0.707,1.377-1.264,2.898-1.667,4.565c-0.404,1.667-0.606,3.271-0.606,4.812c0,1.061,0.101,2.059,0.304,2.993
		c0.201,0.935,0.517,1.749,0.947,2.443c0.429,0.695,0.997,1.25,1.704,1.667S519.549,85.697,520.534,85.697z"/>
	<path d="M570.394,59.062c0,0.682-0.076,1.61-0.228,2.785c-0.151,1.174-0.348,2.462-0.588,3.864s-0.499,2.848-0.776,4.338
		c-0.278,1.49-0.537,2.879-0.776,4.167c-0.24,1.288-0.436,2.419-0.588,3.391c-0.151,0.973-0.227,1.648-0.227,2.027
		c0,0.707,0.012,1.357,0.037,1.951s0.101,1.111,0.228,1.553c0.126,0.442,0.322,0.783,0.588,1.023
		c0.265,0.24,0.649,0.359,1.155,0.359c0.555,0,1.231-0.138,2.026-0.416c0.796-0.278,1.642-0.65,2.539-1.118
		c0.896-0.467,1.812-0.997,2.746-1.591s1.825-1.219,2.672-1.876c0.846-0.656,1.616-1.307,2.311-1.951
		c0.694-0.644,1.257-1.243,1.687-1.8c0,0.834,0.006,1.592,0.019,2.273c0.013,0.683,0.019,1.333,0.019,1.951
		c0,0.619,0.006,1.257,0.02,1.913c0.013,0.657,0.019,1.39,0.019,2.198c-0.556,0.556-1.244,1.149-2.064,1.78
		c-0.821,0.632-1.73,1.264-2.729,1.895c-0.998,0.632-2.059,1.237-3.182,1.818c-1.125,0.581-2.255,1.093-3.392,1.534
		c-1.137,0.442-2.261,0.796-3.372,1.062c-1.111,0.265-2.146,0.397-3.106,0.397s-1.78-0.189-2.463-0.568
		c-0.682-0.379-1.269-0.909-1.762-1.591c-0.492-0.683-0.909-1.497-1.25-2.444s-0.638-2.001-0.891-3.163
		c-0.909,1.188-1.869,2.279-2.879,3.277c-1.011,0.998-2.04,1.862-3.088,2.595c-1.049,0.733-2.109,1.308-3.183,1.724
		c-1.073,0.417-2.115,0.626-3.126,0.626c-0.833,0-1.616-0.139-2.349-0.417c-0.732-0.277-1.383-0.745-1.951-1.402
		c-0.568-0.656-1.017-1.521-1.345-2.595c-0.329-1.073-0.493-2.406-0.493-3.997c0-1.945,0.233-4.42,0.701-7.426
		c0.467-3.006,1.042-6.441,1.724-10.306c0.051-0.379,0.146-0.89,0.284-1.534s0.328-1.345,0.568-2.103
		c0.24-0.758,0.537-1.528,0.891-2.312c0.354-0.782,0.771-1.49,1.25-2.122c0.479-0.631,1.042-1.149,1.687-1.553
		c0.644-0.404,1.369-0.619,2.179-0.644c1.338,0.051,2.298,0.221,2.879,0.511c0.581,0.291,0.871,0.651,0.871,1.08
		c-0.227,1.339-0.474,2.829-0.738,4.471c-0.266,1.642-0.537,3.296-0.814,4.963c-0.278,1.667-0.544,3.291-0.796,4.869
		c-0.253,1.579-0.48,2.987-0.682,4.224c-0.203,1.238-0.36,2.235-0.474,2.993c-0.114,0.758-0.171,1.149-0.171,1.175
		c0,0.454,0.044,0.891,0.133,1.307c0.088,0.417,0.221,0.79,0.397,1.118s0.404,0.594,0.683,0.795
		c0.277,0.203,0.605,0.304,0.984,0.304c0.556,0,1.124-0.146,1.705-0.436s1.13-0.707,1.648-1.251
		c0.518-0.542,0.979-1.212,1.383-2.008c0.403-0.796,0.707-1.698,0.909-2.709l3.751-19.246c0.126-0.606,0.638-1.118,1.534-1.535
		c0.896-0.417,1.913-0.625,3.05-0.625c1.288,0,2.312,0.227,3.069,0.682C570.015,57.774,570.394,58.355,570.394,59.062z"/>
	<path d="M611.312,71.792c0.909-1.162,1.906-2.438,2.992-3.827c1.086-1.389,2.153-2.715,3.202-3.978
		c1.048-1.263,2.008-2.387,2.879-3.372c0.872-0.985,1.56-1.654,2.065-2.008c0.782-0.556,1.742-1.029,2.879-1.421
		c1.137-0.391,2.399-0.587,3.789-0.587c0.707,0,1.383,0.165,2.026,0.493c0.645,0.329,1.206,0.795,1.687,1.402
		c0.479,0.606,0.858,1.339,1.137,2.197c0.277,0.859,0.416,1.819,0.416,2.879c0,1.036-0.252,2.078-0.758,3.126
		c-0.505,1.048-1.136,2.103-1.894,3.164c-0.758,1.061-1.579,2.122-2.463,3.182c-0.885,1.061-1.705,2.128-2.463,3.201
		c-0.758,1.074-1.39,2.141-1.895,3.202c-0.505,1.061-0.758,2.121-0.758,3.183c0,0.909,0.222,1.56,0.663,1.951
		c0.442,0.392,1.131,0.587,2.065,0.587c0.505,0,1.054-0.171,1.647-0.512s1.206-0.789,1.838-1.345
		c0.631-0.556,1.27-1.175,1.913-1.856c0.645-0.682,1.263-1.376,1.856-2.084c0.594-0.707,1.156-1.383,1.687-2.026
		c0.53-0.645,1.01-1.194,1.439-1.648l2.273,9.282c-0.783,1.137-1.775,2.191-2.975,3.163c-1.2,0.973-2.5,1.819-3.902,2.539
		c-1.401,0.72-2.854,1.282-4.356,1.686c-1.503,0.404-2.949,0.606-4.339,0.606c-1.818,0-3.302-0.221-4.451-0.663
		c-1.149-0.441-2.053-1.028-2.709-1.762c-0.657-0.732-1.105-1.56-1.345-2.481c-0.24-0.922-0.36-1.876-0.36-2.86
		c0-0.581,0.069-1.294,0.209-2.141c0.138-0.846,0.403-1.8,0.795-2.86c0.392-1.062,0.94-2.229,1.648-3.505
		c0.707-1.275,1.629-2.646,2.766-4.111c0.455-0.455,0.871-0.865,1.25-1.231c0.379-0.366,0.707-0.694,0.985-0.985
		c0.277-0.29,0.492-0.562,0.645-0.814c0.151-0.252,0.227-0.518,0.227-0.796c0-0.53-0.095-0.959-0.284-1.288
		c-0.189-0.328-0.461-0.492-0.814-0.492c-0.43,0-0.985,0.278-1.667,0.833s-1.427,1.528-2.235,2.917l-11.139,19.549
		c-0.581,1.011-1.181,1.712-1.8,2.104s-1.332,0.587-2.141,0.587c-1.086,0-1.945-0.233-2.576-0.701
		c-0.632-0.467-1.111-1.099-1.439-1.895c-0.329-0.795-0.537-1.717-0.625-2.766c-0.089-1.048-0.133-2.165-0.133-3.353
		c0-1.439,0.05-3.347,0.151-5.721c0.101-2.374,0.252-4.982,0.455-7.824c0.201-2.841,0.474-5.815,0.814-8.922
		c0.341-3.106,0.751-6.125,1.231-9.055c0.176-1.036,0.403-2.292,0.682-3.77c0.277-1.478,0.625-3.062,1.042-4.755
		c0.417-1.692,0.909-3.454,1.478-5.285c0.568-1.831,1.225-3.611,1.97-5.342c0.745-1.73,1.585-3.378,2.52-4.944
		c0.935-1.566,1.982-2.936,3.145-4.111c1.162-1.174,2.438-2.103,3.827-2.785c1.389-0.682,2.904-1.023,4.546-1.023
		c1.288,0,2.35,0.208,3.183,0.625c0.834,0.417,1.497,0.999,1.989,1.743c0.492,0.745,0.84,1.635,1.042,2.671
		c0.202,1.036,0.303,2.16,0.303,3.372c0,2.147-0.271,4.458-0.814,6.933c-0.543,2.476-1.231,4.958-2.064,7.445
		c-0.834,2.488-1.743,4.906-2.729,7.255c-0.984,2.349-1.932,4.471-2.841,6.365c-0.909,1.894-1.712,3.492-2.406,4.792
		c-0.694,1.301-1.155,2.154-1.383,2.557l-4.509,6.744L611.312,71.792z M618.737,29.245c-0.809,0-1.504,0.253-2.084,0.758
		c-0.582,0.506-1.131,1.226-1.648,2.16c-0.518,0.935-1.036,2.071-1.554,3.41c-0.518,1.339-1.104,2.829-1.762,4.471
		c-0.404,1.44-0.776,2.931-1.117,4.471c-0.341,1.541-0.65,3.076-0.929,4.604c-0.277,1.528-0.524,3.037-0.738,4.527
		c-0.215,1.491-0.397,2.893-0.55,4.206c-0.379,3.106-0.682,6.163-0.909,9.168c0.556-1.667,1.162-3.479,1.819-5.437
		c0.656-1.958,1.307-3.89,1.951-5.797c0.644-1.907,1.25-3.713,1.818-5.418c0.568-1.705,1.042-3.15,1.421-4.338
		c0.176-0.555,0.429-1.25,0.758-2.084c0.327-0.833,0.682-1.729,1.061-2.69c0.379-0.959,0.758-1.957,1.137-2.993
		c0.379-1.035,0.726-2.033,1.042-2.993c0.315-0.96,0.574-1.856,0.776-2.69s0.303-1.541,0.303-2.122
		C619.532,29.65,619.268,29.245,618.737,29.245z"/>
	<path d="M636.695,85.053c0-1.667,0.101-3.593,0.303-5.778c0.202-2.185,0.455-4.407,0.758-6.668c0.304-2.26,0.645-4.438,1.023-6.536
		c0.379-2.096,0.744-3.889,1.099-5.38c0.277-1.161,0.814-2.134,1.61-2.917c0.795-0.783,1.875-1.175,3.239-1.175
		c1.363,0,2.311,0.417,2.841,1.25c0.531,0.833,0.796,1.945,0.796,3.334c0,0.379-0.038,0.89-0.113,1.534
		c-0.076,0.644-0.171,1.352-0.284,2.122c-0.114,0.771-0.234,1.566-0.36,2.387c-0.126,0.821-0.246,1.579-0.359,2.273
		c-0.114,0.695-0.209,1.301-0.284,1.819c-0.076,0.518-0.114,0.865-0.114,1.042h0.758c0.151-0.278,0.392-0.726,0.72-1.345
		c0.328-0.619,0.707-1.332,1.137-2.141c0.43-0.808,0.891-1.661,1.383-2.557c0.493-0.896,0.953-1.755,1.383-2.577
		c0.43-0.82,0.821-1.547,1.175-2.178s0.619-1.099,0.796-1.402c0.808-1.364,1.729-2.298,2.766-2.804
		c1.035-0.505,2.185-0.758,3.447-0.758s2.267,0.531,3.013,1.591c0.744,1.061,1.117,2.526,1.117,4.395
		c0,0.278-0.057,0.745-0.17,1.402c-0.114,0.657-0.26,1.439-0.437,2.349c-0.177,0.91-0.372,1.908-0.587,2.993
		c-0.215,1.086-0.411,2.198-0.587,3.334c-0.178,1.137-0.322,2.261-0.436,3.372c-0.114,1.112-0.171,2.135-0.171,3.069
		c0,1.566,0.195,2.854,0.587,3.864c0.392,1.011,1.004,1.516,1.838,1.516c0.379,0,0.814-0.114,1.307-0.342
		c0.493-0.227,1.023-0.523,1.592-0.89s1.148-0.789,1.742-1.27c0.594-0.479,1.181-0.972,1.763-1.478
		c1.338-1.187,2.74-2.525,4.205-4.016l0.644,8.486l-1.894,1.439c-1.036,0.783-2.091,1.566-3.164,2.35s-2.191,1.483-3.353,2.103
		c-1.162,0.619-2.375,1.124-3.638,1.516s-2.589,0.587-3.978,0.587c-1.39,0-2.558-1.004-3.505-3.012
		c-0.947-2.009-1.421-4.944-1.421-8.809c0-1.516,0.101-3.151,0.303-4.907c0.202-1.755,0.455-3.643,0.758-5.664h-0.605l-9.927,19.701
		c-0.506,1.036-1.074,1.743-1.705,2.122c-0.632,0.379-1.363,0.568-2.197,0.568c-1.036,0-1.869-0.221-2.501-0.663
		c-0.631-0.441-1.117-1.035-1.458-1.78s-0.568-1.592-0.682-2.539C636.752,87.042,636.695,86.063,636.695,85.053z"/>
	<path d="M695.079,64.594c0.732,1.465,1.281,3.012,1.647,4.641c0.366,1.629,0.55,3.189,0.55,4.679c0,1.491-0.165,2.993-0.492,4.508
		c-0.329,1.516-0.803,2.98-1.421,4.396c-0.619,1.414-1.377,2.74-2.273,3.978c-0.896,1.238-1.92,2.312-3.068,3.221
		c-1.15,0.909-2.406,1.629-3.771,2.159c-1.363,0.53-2.816,0.796-4.356,0.796c-2.224,0-4.124-0.486-5.702-1.459
		c-1.579-0.972-2.874-2.241-3.884-3.808c-1.01-1.565-1.749-3.334-2.216-5.304c-0.468-1.971-0.701-3.965-0.701-5.986
		c0-2.778,0.417-5.374,1.25-7.786c0.834-2.412,2.027-4.509,3.58-6.29c1.554-1.78,3.454-3.182,5.702-4.205s4.774-1.535,7.578-1.535
		c2.398,0,4.646,0.373,6.743,1.118c2.097,0.746,4.061,1.743,5.892,2.993s3.536,2.684,5.115,4.3c1.578,1.617,3.05,3.284,4.413,5.001
		l-0.72,5.342c-0.682-0.91-1.604-1.895-2.766-2.956c-1.162-1.061-2.394-2.096-3.694-3.106s-2.582-1.964-3.845-2.861
		c-1.264-0.896-2.35-1.648-3.259-2.254L695.079,64.594z M683.372,85.697c0.858,0,1.691-0.436,2.5-1.307
		c0.809-0.872,1.516-1.971,2.122-3.297c0.606-1.325,1.092-2.79,1.459-4.395c0.365-1.604,0.549-3.138,0.549-4.603
		c0-1.162-0.089-2.242-0.265-3.24c-0.178-0.997-0.442-1.862-0.796-2.595c-0.354-0.732-0.809-1.313-1.364-1.743
		c-0.556-0.429-1.226-0.644-2.008-0.644c-1.036,0-2.021,0.442-2.955,1.326c-0.935,0.884-1.756,2.014-2.463,3.391
		c-0.707,1.377-1.264,2.898-1.667,4.565c-0.404,1.667-0.606,3.271-0.606,4.812c0,1.061,0.101,2.059,0.304,2.993
		c0.201,0.935,0.517,1.749,0.947,2.443c0.429,0.695,0.997,1.25,1.704,1.667S682.387,85.697,683.372,85.697z"/>
	<path d="M721.372,74.255c-0.732,2.753-1.598,5.273-2.595,7.559c-0.998,2.286-2.065,4.256-3.202,5.91
		c-1.136,1.654-2.311,2.942-3.523,3.864c-1.212,0.922-2.399,1.383-3.561,1.383c-1.971,0-3.417-1.452-4.339-4.357
		c-0.922-2.904-1.383-7.198-1.383-12.881c0-0.808,0-1.521,0-2.141c0-0.618,0.013-1.237,0.038-1.856
		c0.025-0.619,0.062-1.288,0.114-2.008c0.05-0.72,0.113-1.585,0.188-2.595c0.025-0.252,0.082-0.688,0.171-1.307
		c0.088-0.619,0.228-1.319,0.417-2.103c0.189-0.783,0.441-1.597,0.758-2.444c0.315-0.846,0.72-1.616,1.212-2.311
		c0.493-0.694,1.073-1.27,1.743-1.724c0.669-0.455,1.471-0.682,2.405-0.682l0.91,0.076c1.11,0,1.963,0.221,2.557,0.663
		s0.891,1.029,0.891,1.762l-2.652,20.497l0.493-0.038c1.11-2.576,2.077-4.931,2.898-7.065c0.82-2.134,1.578-4.047,2.272-5.74
		c0.694-1.692,1.364-3.169,2.008-4.433c0.645-1.263,1.346-2.311,2.104-3.145s1.61-1.458,2.557-1.875
		c0.947-0.417,2.078-0.625,3.392-0.625c1.111,0,1.963,0.221,2.557,0.663s0.891,1.029,0.891,1.762l-3.106,20.497l0.53-0.038
		l9.055-20.231c0.304-0.707,0.96-1.332,1.971-1.875c1.01-0.542,2.21-0.814,3.599-0.814c1.44,0,2.602,0.297,3.486,0.891
		c0.884,0.594,1.325,1.358,1.325,2.292c0,0.708-0.12,1.465-0.359,2.273c-0.24,0.809-0.499,1.56-0.776,2.254
		c-0.278,0.695-0.544,1.288-0.796,1.781c-0.253,0.493-0.392,0.764-0.417,0.814c-0.556,1.011-1.067,1.945-1.534,2.804
		c-0.468,0.859-0.878,1.617-1.231,2.273c-0.43,0.758-0.809,1.465-1.137,2.122c0.354,0.985,0.809,1.87,1.364,2.652
		c0.479,0.657,1.073,1.264,1.78,1.818c0.707,0.557,1.554,0.834,2.539,0.834c0.833,0,1.793-0.221,2.879-0.663
		c1.086-0.441,2.108-0.94,3.069-1.496c1.136-0.632,2.298-1.352,3.485-2.16v8.903c-1.667,1.062-3.391,1.907-5.172,2.539
		c-1.78,0.631-3.492,0.947-5.134,0.947c-1.288,0-2.507-0.152-3.656-0.455s-2.159-0.782-3.03-1.439
		c-0.872-0.657-1.566-1.509-2.084-2.558c-0.519-1.048-0.79-2.317-0.814-3.808c-0.859,2.021-1.756,3.871-2.69,5.551
		s-1.895,3.125-2.879,4.338c-0.985,1.212-1.983,2.159-2.993,2.842c-1.011,0.682-2.021,1.022-3.031,1.022
		c-0.354,0-0.663-0.271-0.928-0.814c-0.266-0.543-0.487-1.275-0.663-2.197c-0.178-0.922-0.322-1.995-0.436-3.221
		c-0.114-1.225-0.203-2.52-0.266-3.884c-0.063-1.363-0.107-2.766-0.133-4.205s-0.038-2.841-0.038-4.206L721.372,74.255z"/>
</g>
</svg>
