<svg id="Layer_1" data-name="Layer 1" xmlns="http://www.w3.org/2000/svg" viewBox="0 0 51.31 72"><defs><style>.cls-1{fill:#010101;}</style></defs><title>export_icon</title><path class="cls-1" d="M19,73.72v0a2.93,2.93,0,0,1-1,2.42,3.87,3.87,0,0,1-2.6.84,3.32,3.32,0,0,1-2.71-1.25,5,5,0,0,1-1-3.28V71a5,5,0,0,1,1-3.27,3.32,3.32,0,0,1,2.71-1.25,3.86,3.86,0,0,1,2.6.84,2.91,2.91,0,0,1,1,2.4v0H18.63a2.7,2.7,0,0,0-.87-2.15,3.45,3.45,0,0,0-2.35-.76A3,3,0,0,0,13,67.95a4.61,4.61,0,0,0-.92,3V72.5a4.63,4.63,0,0,0,.92,3,3,3,0,0,0,2.43,1.14,3.54,3.54,0,0,0,2.35-.73,2.7,2.7,0,0,0,.87-2.19H19Z" transform="translate(-7.02 -5.02)"/><path class="cls-1" d="M21,76.87H20.59V66.58H21v10.3Z" transform="translate(-7.02 -5.02)"/><path class="cls-1" d="M29.56,67H26v9.91H25.57V67H21.71V66.58h7.85V67Z" transform="translate(-7.02 -5.02)"/><path class="cls-1" d="M30.56,72v4.84H30.18V66.59h3.35a3.91,3.91,0,0,1,2.5.7,2.48,2.48,0,0,1,.88,2.05,2.51,2.51,0,0,1-.55,1.58,2.55,2.55,0,0,1-1.52.92,2.44,2.44,0,0,1,1.59.81,2.53,2.53,0,0,1,.48,1.59v1a3,3,0,0,0,.12.86,1.33,1.33,0,0,0,.39.62v0.18H37a1.88,1.88,0,0,1-.38-0.72,3.36,3.36,0,0,1-.13-1V74.26a2,2,0,0,0-.72-1.63,3.16,3.16,0,0,0-2-.59h-3.2Zm0-.38h2.9A3.42,3.42,0,0,0,35.78,71a2.32,2.32,0,0,0,0-3.42A3.5,3.5,0,0,0,33.53,67h-3v4.69Z" transform="translate(-7.02 -5.02)"/><path class="cls-1" d="M45.63,66.58v6.84a3.52,3.52,0,0,1-1,2.65,3.84,3.84,0,0,1-5.07,0,3.53,3.53,0,0,1-1-2.65V66.58H39v6.84a3.15,3.15,0,0,0,.89,2.34,3.31,3.31,0,0,0,4.5,0,3.15,3.15,0,0,0,.89-2.34V66.58h0.38Z" transform="translate(-7.02 -5.02)"/><path class="cls-1" d="M53.28,74.45A1.69,1.69,0,0,0,52.55,73a9.18,9.18,0,0,0-2.47-1.11,9.06,9.06,0,0,1-2.56-1.12A2,2,0,0,1,46.69,69a2.23,2.23,0,0,1,1-1.88,4,4,0,0,1,2.45-.72,3.71,3.71,0,0,1,2.48.79,2.66,2.66,0,0,1,.91,2.21v0H53.16a2.45,2.45,0,0,0-.85-1.91,3.18,3.18,0,0,0-2.2-.76,3.45,3.45,0,0,0-2.21.65A1.93,1.93,0,0,0,47.08,69a1.8,1.8,0,0,0,.66,1.45,7.28,7.28,0,0,0,2.46,1.09,10,10,0,0,1,2.61,1.15,2,2,0,0,1,.86,1.75,2.19,2.19,0,0,1-1,1.88,4.25,4.25,0,0,1-2.5.71,4.79,4.79,0,0,1-2.67-.72A2.45,2.45,0,0,1,46.41,74v0h0.32a2.2,2.2,0,0,0,1,2,4.47,4.47,0,0,0,2.38.63A3.78,3.78,0,0,0,52.39,76,1.86,1.86,0,0,0,53.28,74.45Z" transform="translate(-7.02 -5.02)"/><path class="cls-1" d="M43.27,13.32c0.42-.74.84-1.46,1.23-2.09a0.67,0.67,0,0,0,.1-0.14,0.68,0.68,0,0,0,0-.13h0a0.76,0.76,0,0,0,0-.44A1.19,1.19,0,0,0,44,9.84a1,1,0,0,0-1.35.26v0a26.68,26.68,0,0,0-1.56,2.5,23.26,23.26,0,0,0-4.32-.74c-0.54-.61-1-1.26-1.53-1.91C33.81,8,32.29,6,29.77,5.4c-4.29-1.09-8.26.42-10.83,1.88a24.43,24.43,0,0,0-6.23,4.93A65.6,65.6,0,0,0,7.07,19.8v0a0.31,0.31,0,0,0,0,.12,0.3,0.3,0,0,0,0,0,0.31,0.31,0,0,0,0,.15h0l0,0,0,0.06,0,0,0,0a0.33,0.33,0,0,0,.14,0h0c3.44-.1,7.29-1.94,10.69-3.57,1.07-.51,2.08-1,3-1.41a18.3,18.3,0,0,1,3.39-1A23.37,23.37,0,1,0,43.27,13.32ZM47.2,16a15.32,15.32,0,0,0-6.66,2.63c0.65-1.46,1.53-3.16,2.41-4.76A22.48,22.48,0,0,1,47.2,16Zm-3.94-5.63a0.23,0.23,0,0,1,.18-0.06,0.68,0.68,0,0,1,.31.08,0.57,0.57,0,0,1,.29.3,0.16,0.16,0,0,1,0,.06l0,0.05a0.53,0.53,0,0,1-.46,0,0.44,0.44,0,0,1-.3-0.38h0ZM42.83,11a1.3,1.3,0,0,0,.78.46,57.2,57.2,0,0,0-4.44,8.87h0a0.56,0.56,0,0,1-.84-0.3h0A46.87,46.87,0,0,1,40.59,15a0.33,0.33,0,0,0,.06-0.11h0A40.26,40.26,0,0,1,42.83,11Zm-5.1,8.82h0A1,1,0,0,0,38.46,21a1.36,1.36,0,0,0,.45.08,0.86,0.86,0,0,0,.85-0.52h0c0.06-.18.13-0.37,0.21-0.57a1,1,0,0,1,.3,1,1,1,0,0,1-.72.58,2.47,2.47,0,0,1-2.47-.88,1,1,0,0,1-.19-0.9A1.15,1.15,0,0,1,38,19.19C37.88,19.41,37.8,19.63,37.73,19.83ZM40.8,13.2c-0.2.37-.41,0.76-0.61,1.15a7.49,7.49,0,0,1-2.73-1.76A22.44,22.44,0,0,1,40.8,13.2Zm-27.61-.57a23.82,23.82,0,0,1,6.07-4.8,15.5,15.5,0,0,1,7.51-2.17A11.47,11.47,0,0,1,29.62,6c2.3,0.59,3.68,2.41,5.15,4.34l0.72,0.94C27.19,6.53,18.67,8.48,9.57,17.23A54,54,0,0,1,13.19,12.63Zm7.63,2.1c-1,.41-2,0.9-3.06,1.42-3.07,1.47-6.52,3.11-9.63,3.44C18.18,9,27.45,6.7,36.43,12.63a21.44,21.44,0,0,1-6.88.58l-0.6,0A21.7,21.7,0,0,0,20.82,14.73ZM34.94,58a22.76,22.76,0,0,1-8.09-44,18.28,18.28,0,0,1,2.1-.09l0.59,0c1.64,0.06,5,.19,7.53-0.76a8.05,8.05,0,0,0,2.84,1.83c-0.63,1.24-1.21,2.5-1.65,3.59-0.86-1.5-1.64-2.76-2.17-3.59a0.32,0.32,0,1,0-.54.34c0.5,0.79,1.23,2,2,3.36a1.66,1.66,0,0,0-1.28,1s0,0.06,0,.09a24.72,24.72,0,0,0-9.63.77,0.32,0.32,0,0,0,.19.61,23.94,23.94,0,0,1,9.4-.72,1.88,1.88,0,0,0,.33.74,2.56,2.56,0,0,0,.47.49,15.18,15.18,0,0,0-2.92,4.27,0.32,0.32,0,0,0,.16.42l0.13,0a0.32,0.32,0,0,0,.29-0.19,14.48,14.48,0,0,1,2.89-4.15A3.19,3.19,0,0,0,39,22.3a2.57,2.57,0,0,0,.47,0,34,34,0,0,1,2.1,5.27,0.32,0.32,0,0,0,.3.23H42a0.32,0.32,0,0,0,.22-0.39,34.48,34.48,0,0,0-2.1-5.29,1.49,1.49,0,0,0,.74-0.8,17.14,17.14,0,0,1,6.9,3.67,0.32,0.32,0,0,0,.43-0.46,17.87,17.87,0,0,0-7.25-3.88,1.85,1.85,0,0,0-.52-1.06,14.25,14.25,0,0,1,7.63-2.91A22.75,22.75,0,0,1,34.94,58Z" transform="translate(-7.02 -5.02)"/></svg>