<svg id="Layer_1" data-name="Layer 1" xmlns="http://www.w3.org/2000/svg" viewBox="0 0 80.27 72"><defs><style>.cls-1{fill:#010101;}</style></defs><title>crustacean_icon</title><path class="cls-1" d="M11.46,75.58v0a3,3,0,0,1-1,2.51,4,4,0,0,1-2.7.87A3.44,3.44,0,0,1,5,77.71a5.21,5.21,0,0,1-1.06-3.4v-1.6A5.21,5.21,0,0,1,5,69.31,3.44,3.44,0,0,1,7.78,68a4,4,0,0,1,2.7.87,3,3,0,0,1,1,2.49v0H11.12a2.8,2.8,0,0,0-.9-2.23,3.58,3.58,0,0,0-2.44-.78,3.08,3.08,0,0,0-2.52,1.18,4.79,4.79,0,0,0-1,3.1v1.61a4.81,4.81,0,0,0,1,3.12A3.08,3.08,0,0,0,7.78,78.6a3.67,3.67,0,0,0,2.44-.76,2.8,2.8,0,0,0,.9-2.27h0.34Z" transform="translate(-3.92 -7)"/><path class="cls-1" d="M13.22,73.84v5h-0.4V68.18H16.3a4.06,4.06,0,0,1,2.6.73A2.57,2.57,0,0,1,19.8,71a2.6,2.6,0,0,1-.58,1.64,2.65,2.65,0,0,1-1.57,1,2.53,2.53,0,0,1,1.65.84,2.62,2.62,0,0,1,.5,1.65v1a3.05,3.05,0,0,0,.12.89,1.39,1.39,0,0,0,.4.65v0.18H19.94a1.94,1.94,0,0,1-.4-0.74,3.47,3.47,0,0,1-.13-1v-1a2.07,2.07,0,0,0-.74-1.69,3.27,3.27,0,0,0-2.12-.61H13.22Zm0-.4h3a3.55,3.55,0,0,0,2.41-.69,2.41,2.41,0,0,0,0-3.55,3.63,3.63,0,0,0-2.33-.63H13.22v4.87Z" transform="translate(-3.92 -7)"/><path class="cls-1" d="M28.85,68.17v7.09a3.66,3.66,0,0,1-1,2.75,3.61,3.61,0,0,1-2.63,1,3.61,3.61,0,0,1-2.63-1,3.66,3.66,0,0,1-1-2.75V68.17h0.4v7.09a3.27,3.27,0,0,0,.92,2.43,3.43,3.43,0,0,0,4.66,0,3.27,3.27,0,0,0,.92-2.43V68.17h0.4Z" transform="translate(-3.92 -7)"/><path class="cls-1" d="M36.78,76.33A1.76,1.76,0,0,0,36,74.85a9.5,9.5,0,0,0-2.56-1.16,9.4,9.4,0,0,1-2.66-1.17,2.11,2.11,0,0,1-.85-1.83,2.32,2.32,0,0,1,1-1.95A4.15,4.15,0,0,1,33.49,68a3.85,3.85,0,0,1,2.57.82,2.77,2.77,0,0,1,.94,2.3v0H36.65a2.54,2.54,0,0,0-.88-2,3.3,3.3,0,0,0-2.28-.78,3.58,3.58,0,0,0-2.3.68,2,2,0,0,0-.85,1.6,1.87,1.87,0,0,0,.69,1.5,7.57,7.57,0,0,0,2.56,1.13,10.37,10.37,0,0,1,2.71,1.19,2.07,2.07,0,0,1,.89,1.81,2.27,2.27,0,0,1-1,2,4.41,4.41,0,0,1-2.59.73,5,5,0,0,1-2.76-.75,2.54,2.54,0,0,1-1.12-2.36v0H30a2.29,2.29,0,0,0,1.07,2.11,4.63,4.63,0,0,0,2.47.66A3.91,3.91,0,0,0,35.86,78,1.93,1.93,0,0,0,36.78,76.33Z" transform="translate(-3.92 -7)"/><path class="cls-1" d="M45.33,68.56H41.59V78.85h-0.4V68.56h-4V68.17h8.14v0.39Z" transform="translate(-3.92 -7)"/><path class="cls-1" d="M51.06,75.66H45.84l-1.2,3.19H44.22l4-10.68h0.48l4,10.68H52.25ZM46,75.26h4.92l-2.24-6-0.21-.62h0l-0.2.62Z" transform="translate(-3.92 -7)"/><path class="cls-1" d="M60.25,75.58v0a3,3,0,0,1-1,2.51,4,4,0,0,1-2.7.87,3.44,3.44,0,0,1-2.81-1.29,5.21,5.21,0,0,1-1.06-3.4v-1.6a5.21,5.21,0,0,1,1.06-3.4A3.44,3.44,0,0,1,56.57,68a4,4,0,0,1,2.7.87,3,3,0,0,1,1,2.49v0H59.91A2.8,2.8,0,0,0,59,69.2a3.58,3.58,0,0,0-2.44-.78,3.08,3.08,0,0,0-2.52,1.18,4.79,4.79,0,0,0-1,3.1v1.61a4.81,4.81,0,0,0,1,3.12,3.08,3.08,0,0,0,2.52,1.18A3.67,3.67,0,0,0,59,77.85a2.8,2.8,0,0,0,.9-2.27h0.34Z" transform="translate(-3.92 -7)"/><path class="cls-1" d="M67.18,73.48H62v5h5.88v0.4H61.65V68.17h6.28v0.39H62v4.52h5.13v0.39Z" transform="translate(-3.92 -7)"/><path class="cls-1" d="M74.35,75.66H69.14l-1.2,3.19H67.51l4-10.68H72l4,10.68H75.55Zm-5.07-.4h4.92l-2.24-6-0.21-.62h0l-0.2.62Z" transform="translate(-3.92 -7)"/><path class="cls-1" d="M84.19,78.85h-0.4L76.94,68.9h0v9.93H76.5V68.17h0.4l6.85,9.92,0,0V68.17h0.4V78.85Z" transform="translate(-3.92 -7)"/><path class="cls-1" d="M22.77,24.62h0a2,2,0,0,0,1.16-.8c0.26-.25.58-0.57,1-0.89a12,12,0,0,1,1.15-.83c0.66-.44,1.06-0.71,1.05-1.07a1.49,1.49,0,0,1,.54-1.27A2.85,2.85,0,0,0,28.21,19a8.13,8.13,0,0,0,1.35-.2A6.83,6.83,0,0,0,32.2,18a7.21,7.21,0,0,0,1.61-1.3,10.61,10.61,0,0,1,3-2.19l1.28-.51a0.87,0.87,0,0,0,.43-0.35,8.29,8.29,0,0,1,2.77-.66c1.17-.14,2.18-0.26,2.18-1.07,0-.37-0.44-0.58-1.14-0.78a0.76,0.76,0,0,0-.55.11l-0.08,0-0.11-.1a1.08,1.08,0,0,0-.53-0.35,0.94,0.94,0,0,0-.6.14L40.38,11l-0.12-.11a1,1,0,0,0-.53-0.33,1,1,0,0,0-.56.13,0.43,0.43,0,0,0-.14.07l-0.18-.11a1,1,0,0,0-.52-0.23h0a1.44,1.44,0,0,0-.73.31,2.72,2.72,0,0,1-1.28.5l-0.07-.07c0.53-.88,2.09-1.49,3.47-1.65A5.54,5.54,0,0,1,42,9.63l0.43,0.1a0.69,0.69,0,0,0,.8-0.29A0.64,0.64,0,0,0,43,8.67C42.21,7.91,40.52,7,37,7a11.36,11.36,0,0,0-5.14,1.33,1.3,1.3,0,0,0-1,.13,20.52,20.52,0,0,0-2.3,1.64,9.69,9.69,0,0,0-2.22,2.81l-0.18,0a1.28,1.28,0,0,0-.82.43,2.18,2.18,0,0,0-.39.9h-0.2c-1.46,0-3.91.68-3.91,5.26C20.8,23.44,22.09,24.57,22.77,24.62ZM36.62,13.84a11.2,11.2,0,0,0-3.28,2.35,6.58,6.58,0,0,1-1.47,1.19,6.24,6.24,0,0,1-1.27.56c0.67-.61,1.61-1.47,2.45-2.21,1.82-1.61.87-3.62,0.13-5l0.61-.34a0.83,0.83,0,0,1,.88.12l0.92,0.88h0L36,11.79a17.32,17.32,0,0,0,1.92,1.39,0.77,0.77,0,0,0,.11.09,0.26,0.26,0,0,1-.12.08ZM38,11.26L38.3,11a1.28,1.28,0,0,1,.18.11,0.76,0.76,0,0,0,1,.1l0.18-.08a1.09,1.09,0,0,1,.18.16,0.93,0.93,0,0,0,.48.3,0.9,0.9,0,0,0,.52-0.13L41,11.41a0.94,0.94,0,0,1,.19.17,0.91,0.91,0,0,0,.47.31,0.78,0.78,0,0,0,.47-0.11s0.12-.06.08-0.07a3.6,3.6,0,0,1,.63.23,4.53,4.53,0,0,1-1.56.34,9.91,9.91,0,0,0-2.73.62,1,1,0,0,0-.28-0.27C37.74,12.29,37.32,12,37,11.75A4.26,4.26,0,0,0,38,11.26ZM37,7.66c3.31,0,4.82.85,5.46,1.41L42.13,9a6.18,6.18,0,0,0-2.5-.15,5.73,5.73,0,0,0-3.88,1.84l-0.63-.6a1.49,1.49,0,0,0-1.65-.22L33.18,10A2,2,0,0,0,33,9.53l0,0c0-.09-0.1-0.19-0.16-0.28L32.75,9.1,32.53,8.8l0-.05A10.77,10.77,0,0,1,37,7.66Zm-10.75,6a0.78,0.78,0,0,0,.62-0.36A9.24,9.24,0,0,1,29,10.6,20,20,0,0,1,31.18,9a0.63,0.63,0,0,1,.76.1v0a4.81,4.81,0,0,1,.29.41l0,0a2.6,2.6,0,0,1,.19.36v0a0.94,0.94,0,0,1,.07.28h0a0.26,0.26,0,0,1-.05.19l0,0a0.34,0.34,0,0,0,0,.45h0c0.88,1.57,1.51,3.07.11,4.32s-3,2.67-3.29,3a7.63,7.63,0,0,1-.91.15,2.93,2.93,0,0,0,0-.37,3.7,3.7,0,0,0-1.16-2.69A4,4,0,0,0,28,15.2a3.27,3.27,0,0,0,2.18-1.71,0.33,0.33,0,0,0-.59-0.29,2.62,2.62,0,0,1-1.75,1.37,3.6,3.6,0,0,1-1.89,0l-0.17-.06-0.24-.09a1.44,1.44,0,0,1,.24-0.54A0.65,0.65,0,0,1,26.25,13.61Zm-1.54,1.33A3.06,3.06,0,0,1,27.77,18a1.63,1.63,0,0,1-.58,1.31A2.12,2.12,0,0,0,26.47,21a5.2,5.2,0,0,1-.76.56,12.6,12.6,0,0,0-1.21.88c-0.4.34-.73,0.66-1,0.92a3.75,3.75,0,0,1-.7.61c-0.29,0-1.34-.92-1.34-4.42C21.46,16.53,22.58,14.94,24.71,14.94Z" transform="translate(-3.92 -7)"/><path class="cls-1" d="M16.13,29.62h2.94a0.74,0.74,0,0,0,.53-0.22,0.7,0.7,0,0,0,.2-0.51,5.75,5.75,0,0,0-.66-2.42,4.45,4.45,0,0,1-.56-2.23,0.65,0.65,0,0,0-.19-0.48,0.83,0.83,0,0,0-.59-0.26h-2a0.85,0.85,0,0,0-.81.67,8.14,8.14,0,0,0,.26,4.89A1,1,0,0,0,16.13,29.62Zm-0.48-5.34a0.19,0.19,0,0,1,.16-0.12h2a0.29,0.29,0,0,1,.12,0,5,5,0,0,0,.62,2.54,4.92,4.92,0,0,1,.59,2.2l-0.06,0H16.13a0.33,0.33,0,0,1-.25-0.15A7.57,7.57,0,0,1,15.65,24.28Z" transform="translate(-3.92 -7)"/><path class="cls-1" d="M16.25,23.23h1.13a1.23,1.23,0,0,0,.9-0.44,10.36,10.36,0,0,0,1.77-4.2,0.73,0.73,0,0,0-.58-0.85l-0.39-.08a1.12,1.12,0,0,0-1,.31,9.55,9.55,0,0,0-2.54,4.49,0.66,0.66,0,0,0,.15.53A0.69,0.69,0,0,0,16.25,23.23Zm2.35-4.82a0.49,0.49,0,0,1,.34-0.11h0l0.39,0.08a0.07,0.07,0,0,1,.06.08,9.71,9.71,0,0,1-1.65,3.93,0.58,0.58,0,0,1-.38.18H16.23A9,9,0,0,1,18.6,18.42Z" transform="translate(-3.92 -7)"/><path class="cls-1" d="M20,32.29a0.74,0.74,0,0,1,0-.63,1.88,1.88,0,0,0,.05-1.22,1,1,0,0,0-.87-0.58H16.33a0.63,0.63,0,0,0-.52.26,0.61,0.61,0,0,0-.07.56A8,8,0,0,0,19,34.88a0.62,0.62,0,0,0,.35.11,0.63,0.63,0,0,0,.6-0.47l0.4-1.25A1.3,1.3,0,0,0,20,32.29Zm-0.7,2a7.39,7.39,0,0,1-2.93-3.78h2.84a0.33,0.33,0,0,1,.25.14,1.27,1.27,0,0,1-.06.82,1.34,1.34,0,0,0,.07,1.22,1.87,1.87,0,0,1,.22.39Z" transform="translate(-3.92 -7)"/><path class="cls-1" d="M29.32,41.27a24.77,24.77,0,0,1-4.46-2.52,2.85,2.85,0,0,0-.8-0.38l-1.66-.46a0.67,0.67,0,0,0-.83.58l-0.22,2.18a0.68,0.68,0,0,0,.17.53,0.71,0.71,0,0,0,.54.22,17.93,17.93,0,0,1,3.17.31,20.17,20.17,0,0,0,3.58.34h0.36A0.4,0.4,0,1,0,29.32,41.27Zm-4-.19A21.22,21.22,0,0,0,22,40.74l0.23-2.19L23.88,39a2.24,2.24,0,0,1,.59.28A26.56,26.56,0,0,0,28,41.4,21.35,21.35,0,0,1,25.33,41.08Z" transform="translate(-3.92 -7)"/><path class="cls-1" d="M19.33,37a3.34,3.34,0,0,0-.94-0.8,1.2,1.2,0,0,0-1,0L15,37.49a0.58,0.58,0,0,0-.33.48,0.57,0.57,0,0,0,.27.5,15,15,0,0,0,5.24,2.3h0.14a0.71,0.71,0,0,0,.7-0.61L21.21,39a0.91,0.91,0,0,0-.48-0.92A4,4,0,0,1,19.33,37Zm1.23,1.92L20.4,40.07a0,0,0,0,1,0,0h0A14.28,14.28,0,0,1,15.47,38l2.2-1.19a0.72,0.72,0,0,1,.4,0,2.73,2.73,0,0,1,.76.66,4.69,4.69,0,0,0,1.61,1.25A0.26,0.26,0,0,1,20.56,38.92Z" transform="translate(-3.92 -7)"/><path class="cls-1" d="M15,37.13l1.91-1a0.79,0.79,0,0,0,.38-1,13.63,13.63,0,0,0-2.27-3.77,0.77,0.77,0,0,0-1-.1l-1.14.9a1.09,1.09,0,0,0-.39.94l0,0.14A6.5,6.5,0,0,0,14,36.95,0.88,0.88,0,0,0,15,37.13Zm-1.87-3.92,0-.14a0.45,0.45,0,0,1,.14-0.33l1.2-.92a0.08,0.08,0,0,1,.06,0,13,13,0,0,1,2.16,3.58,0.13,0.13,0,0,1-.06.14l-1.91,1-0.09,0a0.21,0.21,0,0,1-.14,0A5.83,5.83,0,0,1,13.18,33.21Z" transform="translate(-3.92 -7)"/><path class="cls-1" d="M13,31.8l0.85-.68a1.09,1.09,0,0,0,.38-0.94,16.94,16.94,0,0,0-1-4.32,0.68,0.68,0,0,0-1-.28l-0.48.36A1.22,1.22,0,0,0,11.36,27,11.73,11.73,0,0,0,12,31.58a0.63,0.63,0,0,0,.58.37A0.69,0.69,0,0,0,13,31.8ZM12,27a1,1,0,0,1,.07-0.53l0.56-.33a16.81,16.81,0,0,1,1,4.12,0.46,0.46,0,0,1-.14.33l-0.85.67A11.27,11.27,0,0,1,12,27Z" transform="translate(-3.92 -7)"/><path class="cls-1" d="M24,41.83H23.72a0.74,0.74,0,0,0-.72.74v2.32a0.7,0.7,0,0,0,.74.7h0a33.9,33.9,0,0,1,4.78.28c1.27,0.13,2.47.26,3.57,0.28h0a0.6,0.6,0,0,0,.5-0.25,0.61,0.61,0,0,0,.06-0.57l-0.52-1.46a1.09,1.09,0,0,0-.77-0.65c-0.72-.14-1.44-0.33-2.21-0.52A20.54,20.54,0,0,0,24,41.83Zm7.56,2.27L32,45.48c-1.05,0-2.21-.14-3.43-0.27a41.45,41.45,0,0,0-4.18-.3,6.31,6.31,0,0,1-.75,0V42.57a0.08,0.08,0,0,1,.07-0.08H24a20,20,0,0,1,5,.85c0.78,0.2,1.52.39,2.25,0.53A0.45,0.45,0,0,1,31.52,44.1Z" transform="translate(-3.92 -7)"/><path class="cls-1" d="M22.63,44.37V43a0.72,0.72,0,0,0-.73-0.72h0c-1.73,0-3.67.27-4.93,1.6a0.65,0.65,0,0,0-.18.53,0.69,0.69,0,0,0,.31.49l2.2,1.45a1.08,1.08,0,0,0,.58.17,0.83,0.83,0,0,0,.46-0.13,3,3,0,0,0,.6-0.57,1.59,1.59,0,0,1,1-.66A0.79,0.79,0,0,0,22.63,44.37Zm-0.66,0a0.14,0.14,0,0,1-.12.11,2.22,2.22,0,0,0-1.39.88,2.47,2.47,0,0,1-.47.45,0.6,0.6,0,0,1-.32,0l-2.22-1.46c1.09-1.15,2.79-1.35,4.47-1.39A0.05,0.05,0,0,1,22,43v1.4Z" transform="translate(-3.92 -7)"/><path class="cls-1" d="M16.4,49.11h0.12a1.1,1.1,0,0,0,.82-0.39,6.1,6.1,0,0,1,1.46-1.41,0.6,0.6,0,0,0,.29-0.49,0.59,0.59,0,0,0-.27-0.49L16.89,45a0.91,0.91,0,0,0-1,0,4.49,4.49,0,0,0-1.75,2.84l0,0.11a0.68,0.68,0,0,0,.11.53,0.75,0.75,0,0,0,.5.31ZM14.76,48a3.86,3.86,0,0,1,1.52-2.47,0.19,0.19,0,0,1,.12,0,0.22,0.22,0,0,1,.12,0l1.82,1.26a7.1,7.1,0,0,0-1.53,1.49,0.45,0.45,0,0,1-.3.14l-1.72-.25-0.06-.05Z" transform="translate(-3.92 -7)"/><path class="cls-1" d="M18.94,53A0.72,0.72,0,0,0,19,52a5.66,5.66,0,0,0-.45-0.44A6.16,6.16,0,0,1,17.2,50a1.17,1.17,0,0,0-.83-0.56l-1.42-.16H14.86a0.52,0.52,0,0,0-.48.25,0.54,0.54,0,0,0,0,.55,12.09,12.09,0,0,0,3.46,3.13,1,1,0,0,0,.49.14,0.74,0.74,0,0,0,.5-0.18Zm-0.44-.49-0.09.08a0.22,0.22,0,0,1-.21,0,12.19,12.19,0,0,1-3.09-2.68l1.17,0.13a0.54,0.54,0,0,1,.33.22,6.81,6.81,0,0,0,1.5,1.8,4.89,4.89,0,0,1,.39.38A0.07,0.07,0,0,1,18.51,52.56Z" transform="translate(-3.92 -7)"/><path class="cls-1" d="M34.84,46.68a0.66,0.66,0,0,0-.5-0.26c-3.49-.21-7.13-0.26-8.24-0.26a0.57,0.57,0,0,0-.55.82l0.94,2.24a0.85,0.85,0,0,0,.77.5H27.4a18,18,0,0,1,2.85-.17h1a18.51,18.51,0,0,0,2.66-.14,1,1,0,0,0,.75-0.7l0.34-1.47A0.67,0.67,0,0,0,34.84,46.68ZM34,48.55a0.31,0.31,0,0,1-.21.2,17.92,17.92,0,0,1-2.56.14h-1a18.46,18.46,0,0,0-3,.18h0a0.19,0.19,0,0,1-.16-0.1l-0.9-2.15c1.21,0,4.72.05,8.1,0.27Z" transform="translate(-3.92 -7)"/><path class="cls-1" d="M26.12,52.94a6.79,6.79,0,0,0,.24-2.53,4.67,4.67,0,0,0-.18-1.08c-0.45-1.11-.71-1.7-0.91-2.16a0.87,0.87,0,0,0-.93-0.5,2.53,2.53,0,0,0-1.74,1.91c-0.6,1.93-.13,4.75.66,5.61a0.75,0.75,0,0,0,.56.22,1.12,1.12,0,0,0,.51-0.12l1.15-.62A1.48,1.48,0,0,0,26.12,52.94Zm-1,.16L24,53.71a0.89,0.89,0,0,1-.27,0h0c-0.59-.65-1.07-3.19-0.52-5a1.89,1.89,0,0,1,1.27-1.46,0.24,0.24,0,0,1,.17.13c0.2,0.45.46,1,.9,2.14a4.38,4.38,0,0,1,.13.86,6.2,6.2,0,0,1-.21,2.29A0.85,0.85,0,0,1,25.16,53.1Z" transform="translate(-3.92 -7)"/><path class="cls-1" d="M29.85,55.57a28.34,28.34,0,0,0-3.22-1.76,0.84,0.84,0,0,0-.78,0l-1,.55a0.57,0.57,0,0,0-.36.46,0.56,0.56,0,0,0,.25.51A10.28,10.28,0,0,0,29,56.95h0.16A1,1,0,0,0,30,56.53,0.65,0.65,0,0,0,29.85,55.57Zm-0.39.62a0.41,0.41,0,0,1-.3.12H29.06a9.84,9.84,0,0,1-3.82-1.37l0.93-.5a0.14,0.14,0,0,1,.19,0A33.59,33.59,0,0,1,29.5,56.1,0.23,0.23,0,0,1,29.46,56.18Z" transform="translate(-3.92 -7)"/><path class="cls-1" d="M37.42,47.42a1.9,1.9,0,0,1-.88-0.77,0.85,0.85,0,0,0-.62-0.44l-0.13,0a0.91,0.91,0,0,0-.49.68l-0.37,1.66a0.68,0.68,0,0,0,.12.57,0.65,0.65,0,0,0,.5.25h0.07a2.55,2.55,0,0,0,2.12-1,0.58,0.58,0,0,0,.1-0.51A0.69,0.69,0,0,0,37.42,47.42Zm-1.79,1.31,0,0L36,47.05,36,47l0,0a2.66,2.66,0,0,0,1.18,1A1.89,1.89,0,0,1,35.63,48.73Z" transform="translate(-3.92 -7)"/><path class="cls-1" d="M19.36,17.44a1,1,0,0,1,.63.22,0.33,0.33,0,0,0,.24.11h0.08a0.33,0.33,0,0,0,.24-0.24,6,6,0,0,1,.65-1.38,0.33,0.33,0,0,0-.38-0.49A3.38,3.38,0,0,0,19.07,17,0.33,0.33,0,0,0,19.36,17.44Z" transform="translate(-3.92 -7)"/><path class="cls-1" d="M11.77,25.52A0.33,0.33,0,0,0,12,25.46a3.42,3.42,0,0,1,.72-0.39,0.33,0.33,0,0,0,.23-0.33A4.67,4.67,0,0,1,13,23.48a0.33,0.33,0,0,0-.5-0.36,2.93,2.93,0,0,0-1.08,2A0.33,0.33,0,0,0,11.77,25.52Z" transform="translate(-3.92 -7)"/><path class="cls-1" d="M19.88,52.89a0.33,0.33,0,0,0-.54,0,3.17,3.17,0,0,1-.46.54,0.33,0.33,0,0,0,0,.49,2.42,2.42,0,0,0,1.6.54,2.68,2.68,0,0,0,.42,0,0.33,0.33,0,0,0,.13-0.6A6.19,6.19,0,0,1,19.88,52.89Z" transform="translate(-3.92 -7)"/><path class="cls-1" d="M32.33,56.21a7,7,0,0,1-1.4-.3,0.32,0.32,0,0,0-.27,0,0.33,0.33,0,0,0-.17.21,1.13,1.13,0,0,1-.23.48,0.33,0.33,0,0,0,.17.59l0.4,0h0a3.22,3.22,0,0,0,1.64-.4A0.33,0.33,0,0,0,32.33,56.21Z" transform="translate(-3.92 -7)"/><path class="cls-1" d="M51.51,46.88A1.72,1.72,0,0,0,52,45.56a2.54,2.54,0,0,0-.14-0.64L52,44.87a2,2,0,0,0,.82,1,4.78,4.78,0,0,0,1.71.26h0a0.92,0.92,0,0,0,.83-0.57L56,44.08a1.69,1.69,0,0,0-.34-1.27c0.22-.17.42-0.34,0.62-0.51,5-2,7.93-3.78,9.52-6h0.1a3.93,3.93,0,0,0,2.33-.69A0.61,0.61,0,0,0,68.38,35c-0.11-.44-0.35-1.23-0.43-1.52a1,1,0,0,0-.8-0.58,12.08,12.08,0,0,0,.16-2,9.08,9.08,0,0,0-.09-1.22s0,0,0,0v0a10.33,10.33,0,0,0-3.57-6.28l-0.16-.14a13.76,13.76,0,0,0-2.6-1.74l-0.17-.08a15.53,15.53,0,0,0-2.57-1l-0.16,0a16.64,16.64,0,0,0-3.1-.57s-1-.07-1.5-0.07H48.87a1.05,1.05,0,0,0-2-.29,1,1,0,0,0-1.82.08,0.88,0.88,0,0,0-1.61,0,1,1,0,0,0-1.82-.08,1.05,1.05,0,0,0-2,.29h-4.5c-0.5,0-1.49.07-1.5,0.07a16.66,16.66,0,0,0-3.1.57l-0.16,0a15.53,15.53,0,0,0-2.57,1l-0.17.08A13.8,13.8,0,0,0,25,23.23l-0.16.14a10.33,10.33,0,0,0-3.57,6.27v0s0,0,0,0a9.08,9.08,0,0,0-.09,1.21,12.07,12.07,0,0,0,.16,2,1,1,0,0,0-.8.58c-0.09.29-.32,1.08-0.43,1.52a0.61,0.61,0,0,0,.17.58,3.92,3.92,0,0,0,2.33.69h0.1c1.59,2.23,4.54,4,9.51,6,0.2,0.18.41,0.35,0.62,0.51a1.69,1.69,0,0,0-.34,1.27l0.63,1.45a0.93,0.93,0,0,0,.83.59h0a4.79,4.79,0,0,0,1.71-.26,2,2,0,0,0,.82-1l0.14,0.06a2.54,2.54,0,0,0-.14.64,1.72,1.72,0,0,0,.46,1.31,2,2,0,0,0,1.18.58,1.11,1.11,0,0,0,0,.71,0.8,0.8,0,0,0,.62.47h0.12a1.28,1.28,0,0,0,.74-0.32,0.59,0.59,0,0,1,.38-0.2,0.78,0.78,0,0,1,.33.11,2,2,0,0,0,1,.23,3,3,0,0,0,.81-0.12,0.74,0.74,0,0,1,.59,0,4.85,4.85,0,0,0,3,0,0.75,0.75,0,0,1,.59,0,3,3,0,0,0,.81.12,2,2,0,0,0,1-.23,0.77,0.77,0,0,1,.33-0.11,1,1,0,0,1,.38.2,1.28,1.28,0,0,0,.74.32h0.12a0.8,0.8,0,0,0,.62-0.47,1.11,1.11,0,0,0,0-.71A2,2,0,0,0,51.51,46.88Zm3.86-3.06-0.64,1.48a0.23,0.23,0,0,1-.22.16A4.18,4.18,0,0,1,53,45.24a1.53,1.53,0,0,1-.46-0.63A15.52,15.52,0,0,0,55.1,43.2,3,3,0,0,1,55.37,43.81ZM67.31,33.68l0.43,1.44a3,3,0,0,1-1.55.49A7.85,7.85,0,0,0,67,33.56,0.51,0.51,0,0,1,67.31,33.68ZM47.82,19.42a0.39,0.39,0,0,1,.38.3H47.44A0.4,0.4,0,0,1,47.82,19.42ZM46,19.53a0.34,0.34,0,0,1,.3.19h-0.6A0.34,0.34,0,0,1,46,19.53Zm-1.74.11a0.23,0.23,0,0,1,.17.07H44.05A0.23,0.23,0,0,1,44.22,19.64Zm-1.74-.11a0.34,0.34,0,0,1,.3.19h-0.6A0.34,0.34,0,0,1,42.48,19.53Zm-1.87-.11a0.39,0.39,0,0,1,.38.3H40.23A0.4,0.4,0,0,1,40.61,19.42ZM20.69,35.17c0.11-.44.34-1.21,0.43-1.5a0.51,0.51,0,0,1,.3-0.12,7.84,7.84,0,0,0,.82,2.06A3.43,3.43,0,0,1,20.69,35.17ZM32.47,41.7C25.94,39.09,23,36.88,22.1,33.53h1.34a0.33,0.33,0,1,0,0-.66H22a10.9,10.9,0,0,1-.17-2c0-.27,0-0.53.05-0.79l1.38,0.25h0.06a0.33,0.33,0,0,0,.06-0.65l-1.41-.26a8.84,8.84,0,0,1,1-2.74l1.3,0.81A0.33,0.33,0,0,0,24.53,27l-1.31-.82A10.82,10.82,0,0,1,25.06,24l1.05,1.13a0.33,0.33,0,1,0,.48-0.45l-1-1.11a13.09,13.09,0,0,1,2.08-1.39l0.76,1.33a0.33,0.33,0,0,0,.29.17,0.32,0.32,0,0,0,.16,0A0.33,0.33,0,0,0,29,23.18l-0.73-1.29a14.88,14.88,0,0,1,2-.79l0.39,1.39a0.33,0.33,0,0,0,.32.24H31a0.33,0.33,0,0,0,.23-0.41l-0.4-1.4a16.18,16.18,0,0,1,2.42-.44l0.09,1.36a0.33,0.33,0,0,0,.33.31h0A0.33,0.33,0,0,0,34,21.8l-0.09-1.38c0.37,0,.73,0,1.11,0h1.35v0.85a0.33,0.33,0,0,0,.33.33h0a0.33,0.33,0,0,0,.33-0.33V20.37h2.45V20.8a0.33,0.33,0,0,0,.66,0V20.37h8.08V20.8a0.33,0.33,0,0,0,.66,0V20.37h2.45v0.85a0.33,0.33,0,0,0,.33.33h0A0.33,0.33,0,0,0,52,21.23V20.37h1.35c0.37,0,.74,0,1.11,0L54.4,21.8a0.33,0.33,0,0,0,.31.35h0a0.33,0.33,0,0,0,.33-0.31l0.09-1.36a16.1,16.1,0,0,1,2.42.44l-0.4,1.4a0.33,0.33,0,0,0,.23.41h0.09a0.33,0.33,0,0,0,.32-0.24l0.39-1.39a14.8,14.8,0,0,1,2,.79l-0.73,1.29a0.33,0.33,0,0,0,.12.45,0.32,0.32,0,0,0,.16,0A0.33,0.33,0,0,0,60,23.51l0.76-1.33a13.07,13.07,0,0,1,2.08,1.39l-1,1.11a0.33,0.33,0,1,0,.48.45L63.37,24a10.78,10.78,0,0,1,1.83,2.16L63.9,27a0.33,0.33,0,1,0,.35.56l1.3-.81a8.85,8.85,0,0,1,1,2.74l-1.41.26a0.33,0.33,0,0,0,.06.65h0.06l1.38-.25c0,0.26.05,0.52,0.05,0.79a10.9,10.9,0,0,1-.17,2H65a0.33,0.33,0,1,0,0,.66h1.34C65.44,36.88,62.49,39.09,56,41.7l-0.1.06c-2.69,2.42-7.15,3.93-11.64,3.93s-9-1.51-11.64-3.93Zm2.92,3.54a4.19,4.19,0,0,1-1.48.21h0a0.29,0.29,0,0,1-.22-0.18l-0.63-1.42a2.15,2.15,0,0,1,.26-0.66,15.53,15.53,0,0,0,2.53,1.41A1.52,1.52,0,0,1,35.4,45.24Zm1.73,0.36a1.81,1.81,0,0,1,.1-0.45,21.06,21.06,0,0,0,14,0,1.82,1.82,0,0,1,.1.45,1.08,1.08,0,0,1-.28.82,1.53,1.53,0,0,1-1.13.41H38.53a1.53,1.53,0,0,1-1.13-.41A1.08,1.08,0,0,1,37.13,45.6Zm2.12,2.19a0.78,0.78,0,0,1-.38.19,0.14,0.14,0,0,1-.12-0.09,0.54,0.54,0,0,1,0-.4h1.06A1.56,1.56,0,0,0,39.24,47.79Zm8.56-.15a1.37,1.37,0,0,1-.7.17,2.38,2.38,0,0,1-.65-0.1,1.35,1.35,0,0,0-1,0,3.41,3.41,0,0,1-1.21.18h0A3.43,3.43,0,0,1,43,47.74a1.36,1.36,0,0,0-1,0,2.4,2.4,0,0,1-.65.1,1.37,1.37,0,0,1-.7-0.17,1.63,1.63,0,0,0-.46-0.15h8.1A1.63,1.63,0,0,0,47.8,47.64Zm1.88,0.25a0.14,0.14,0,0,1-.12.09,0.72,0.72,0,0,1-.38-0.19,1.6,1.6,0,0,0-.61-0.3h1.08A0.54,0.54,0,0,1,49.69,47.89Z" transform="translate(-3.92 -7)"/><path class="cls-1" d="M47.1,12.93a8.3,8.3,0,0,1,2.77.66,0.87,0.87,0,0,0,.42.35l1.28,0.51a10.65,10.65,0,0,1,3,2.19A7.2,7.2,0,0,0,56.23,18a6.83,6.83,0,0,0,2.64.89,8.11,8.11,0,0,0,1.35.2,2.85,2.85,0,0,0,.54.72A1.49,1.49,0,0,1,61.3,21c0,0.37.39,0.63,1.05,1.07a12,12,0,0,1,1.15.83c0.38,0.32.7,0.64,1,.89a2.05,2.05,0,0,0,1.16.8h0c0.68-.05,2-1.18,2-5.08,0-4.58-2.45-5.26-3.91-5.26h-0.2a2.19,2.19,0,0,0-.39-0.9A1.29,1.29,0,0,0,62.3,13l-0.16,0a9.89,9.89,0,0,0-2.24-2.84,20.36,20.36,0,0,0-2.3-1.64,1.3,1.3,0,0,0-1-.13A11.36,11.36,0,0,0,51.43,7c-3.52,0-5.2.91-6,1.67a0.64,0.64,0,0,0-.2.77,0.69,0.69,0,0,0,.8.29l0.43-.1a5.55,5.55,0,0,1,2.27-.14c1.37,0.16,2.94.77,3.47,1.65l-0.07.07a2.66,2.66,0,0,1-1.28-.5,1.45,1.45,0,0,0-.73-0.31h0a1,1,0,0,0-.52.23,0.58,0.58,0,0,0-.14.11l-0.18-.07a1,1,0,0,0-.56-0.13,1,1,0,0,0-.53.33L48.06,11l-0.13-.06a1,1,0,0,0-.6-0.14,1.08,1.08,0,0,0-.53.35l-0.11.1-0.08,0a0.76,0.76,0,0,0-.55-0.11c-0.7.21-1.14,0.41-1.14,0.79C44.92,12.67,45.93,12.79,47.1,12.93Zm8,3.26a11.25,11.25,0,0,0-3.28-2.35l-1.27-.5-0.11-.06a0.33,0.33,0,0,1,.11-0.1,17.25,17.25,0,0,0,1.92-1.39l0.38-.36h0l0.92-.87a0.83,0.83,0,0,1,.88-0.12l0.61,0.34c-0.74,1.32-1.7,3.34.13,5,0.84,0.74,1.78,1.6,2.45,2.21a6.26,6.26,0,0,1-1.27-.56A6.57,6.57,0,0,1,55.09,16.19ZM67,19.54c0,3.5-1.06,4.38-1.34,4.42a3.77,3.77,0,0,1-.7-0.61c-0.27-.26-0.6-0.58-1-0.92a12.61,12.61,0,0,0-1.21-.88A5.17,5.17,0,0,1,62,21a2.12,2.12,0,0,0-.72-1.69A1.63,1.63,0,0,1,60.66,18a3.06,3.06,0,0,1,3.06-3.06C65.85,14.94,67,16.53,67,19.54ZM57.25,9a19.79,19.79,0,0,1,2.22,1.58,9.22,9.22,0,0,1,2.09,2.65,0.78,0.78,0,0,0,.62.36,0.66,0.66,0,0,1,.44.2,1.43,1.43,0,0,1,.24.54l-0.25.1-0.16.06a3.61,3.61,0,0,1-1.9,0,2.62,2.62,0,0,1-1.75-1.37,0.33,0.33,0,1,0-.59.29,3.27,3.27,0,0,0,2.18,1.71,4,4,0,0,0,.77.11A3.71,3.71,0,0,0,60,18a3,3,0,0,0,0,.37,7.81,7.81,0,0,1-.91-0.15c-0.34-.31-1.94-1.79-3.29-3s-0.74-2.81.17-4.42h0v0a0.3,0.3,0,0,0,0-.06,0.34,0.34,0,0,0,0-.06s0,0,0,0v0a0.35,0.35,0,0,0,0-.06l0-.06,0,0h0a0.26,0.26,0,0,1-.05-0.18s0,0,0,0A0.92,0.92,0,0,1,56,10v0a2.54,2.54,0,0,1,.19-0.35l0,0a4.68,4.68,0,0,1,.29-0.4h0A0.63,0.63,0,0,1,57.25,9ZM48.8,8.83A6.18,6.18,0,0,0,46.3,9L46,9.06c0.64-.56,2.15-1.41,5.46-1.41a10.77,10.77,0,0,1,4.52,1.08l0,0-0.23.31-0.07.11-0.16.27,0,0.05a2,2,0,0,0-.17.48L55,9.86a1.49,1.49,0,0,0-1.65.22l-0.63.6A5.72,5.72,0,0,0,48.8,8.83Zm-2.61,2.88,0.14,0.06a0.79,0.79,0,0,0,.47.11,0.91,0.91,0,0,0,.47-0.31l0.17-.16a1,1,0,0,1,.2.08,0.91,0.91,0,0,0,.52.13,0.93,0.93,0,0,0,.48-0.3l0.15-.15a1.16,1.16,0,0,1,.21.08,1,1,0,0,0,.48.12A1,1,0,0,0,50,11.16L50.1,11a1.79,1.79,0,0,1,.38.21,4.29,4.29,0,0,0,1,.49c-0.33.25-.76,0.54-1.28,0.88a1,1,0,0,0-.28.27,9.91,9.91,0,0,0-2.73-.62,4.49,4.49,0,0,1-1.56-.34A3.3,3.3,0,0,1,46.18,11.71Z" transform="translate(-3.92 -7)"/><path class="cls-1" d="M70.63,23.5a0.84,0.84,0,0,0-.6.26,0.65,0.65,0,0,0-.19.48,4.45,4.45,0,0,1-.56,2.23,5.75,5.75,0,0,0-.66,2.42,0.7,0.7,0,0,0,.2.51,0.74,0.74,0,0,0,.53.22H72.3a1,1,0,0,0,.86-0.57,8.16,8.16,0,0,0,.26-4.91,0.85,0.85,0,0,0-.81-0.65h-2Zm2.16,0.8a7.53,7.53,0,0,1-.23,4.51,0.33,0.33,0,0,1-.25.16H69.36l-0.07-.06a5.13,5.13,0,0,1,.6-2.16,5,5,0,0,0,.61-2.52,0.17,0.17,0,0,1,.13-0.06h2A0.19,0.19,0,0,1,72.78,24.29Z" transform="translate(-3.92 -7)"/><path class="cls-1" d="M69,17.74a0.73,0.73,0,0,0-.58.85,10.36,10.36,0,0,0,1.77,4.2,1.22,1.22,0,0,0,.9.44h1.13A0.69,0.69,0,0,0,72.71,23a0.66,0.66,0,0,0,.15-0.53A9.57,9.57,0,0,0,70.31,18a1.13,1.13,0,0,0-1-.31Zm0.87,0.68a9,9,0,0,1,2.38,4.15H71.05a0.59,0.59,0,0,1-.38-0.18A9.71,9.71,0,0,1,69,18.46a0.08,0.08,0,0,1,.06-0.08l0.44-.08A0.48,0.48,0,0,1,69.83,18.41Z" transform="translate(-3.92 -7)"/><path class="cls-1" d="M72.63,30.12a0.63,0.63,0,0,0-.52-0.26H69.22a1,1,0,0,0-.87.58,1.88,1.88,0,0,0,.05,1.22,0.73,0.73,0,0,1,0,.67,1.23,1.23,0,0,0-.29.94l0.39,1.23a0.63,0.63,0,0,0,.6.48,0.62,0.62,0,0,0,.35-0.11,8,8,0,0,0,3.24-4.2A0.61,0.61,0,0,0,72.63,30.12Zm-3.5,4.19-0.38-1.2A1.53,1.53,0,0,1,69,32.65a1.33,1.33,0,0,0,0-1.18A1.27,1.27,0,0,1,69,30.66a0.33,0.33,0,0,1,.25-0.14h2.84A7.39,7.39,0,0,1,69.13,34.3Z" transform="translate(-3.92 -7)"/><path class="cls-1" d="M66.93,41.2a0.67,0.67,0,0,0,.17-0.53L66.87,38.5A0.65,0.65,0,0,0,66,37.92l-1.64.46a2.84,2.84,0,0,0-.81.38,24.77,24.77,0,0,1-4.46,2.51,0.4,0.4,0,1,0,.15.79h0.36a20.17,20.17,0,0,0,3.58-.34,18,18,0,0,1,3.2-.31A0.69,0.69,0,0,0,66.93,41.2Zm-3.82-.12a21.35,21.35,0,0,1-2.67.31A26.44,26.44,0,0,0,64,39.3a2.25,2.25,0,0,1,.6-0.28l1.66-.45,0.17,2.2A18.77,18.77,0,0,0,63.11,41.08Z" transform="translate(-3.92 -7)"/><path class="cls-1" d="M69.11,37a4,4,0,0,1-1.41,1.1,0.91,0.91,0,0,0-.48.91l0.16,1.15a0.71,0.71,0,0,0,.7.61h0.14a15,15,0,0,0,5.24-2.3,0.57,0.57,0,0,0,.27-0.5,0.58,0.58,0,0,0-.33-0.47l-2.32-1.25a1.21,1.21,0,0,0-1,0A3.36,3.36,0,0,0,69.11,37Zm1.39-.25a0.59,0.59,0,0,1,.26.06L73,38a14.28,14.28,0,0,1-4.87,2.11h0l0,0-0.16-1.15A0.26,0.26,0,0,1,68,38.69a4.7,4.7,0,0,0,1.61-1.25,2.73,2.73,0,0,1,.76-0.66A0.33,0.33,0,0,1,70.5,36.75Z" transform="translate(-3.92 -7)"/><path class="cls-1" d="M74.39,31.32a0.77,0.77,0,0,0-1,.1,13.64,13.64,0,0,0-2.27,3.77,0.79,0.79,0,0,0,.38,1l1.91,1a0.88,0.88,0,0,0,1-.18,6.5,6.5,0,0,0,1.5-3.65l0-.14a1.1,1.1,0,0,0-.39-0.94Zm0.86,1.89a5.83,5.83,0,0,1-1.34,3.3,0.26,0.26,0,0,1-.23,0l-1.91-1a0.13,0.13,0,0,1-.06-0.14,13,13,0,0,1,2.16-3.58l0,0H74l1.15,0.9a0.45,0.45,0,0,1,.14.33Z" transform="translate(-3.92 -7)"/><path class="cls-1" d="M77.07,27A1.22,1.22,0,0,0,76.73,26l-0.53-.39a0.7,0.7,0,0,0-1,.29,17,17,0,0,0-1,4.32,1.1,1.1,0,0,0,.38.95L75.4,31.8a0.68,0.68,0,0,0,.42.15,0.63,0.63,0,0,0,.58-0.37A11.76,11.76,0,0,0,77.07,27Zm-1.27,4.27L75,30.61a0.46,0.46,0,0,1-.14-0.33,15.66,15.66,0,0,1,1-4.12,0.08,0.08,0,0,1,0,0h0l0.53,0.38a1.19,1.19,0,0,1,.07.54A11.25,11.25,0,0,1,75.81,31.28Z" transform="translate(-3.92 -7)"/><path class="cls-1" d="M64.48,41.83a20.54,20.54,0,0,0-5.2.87c-0.77.2-1.5,0.39-2.21,0.52a1.09,1.09,0,0,0-.77.65l-0.52,1.45a0.61,0.61,0,0,0,.06.57,0.6,0.6,0,0,0,.5.25h0c1.1,0,2.3-.14,3.57-0.28A41,41,0,0,1,64,45.57l0.7,0a0.7,0.7,0,0,0,.71-0.7V42.57a0.74,0.74,0,0,0-.72-0.74H64.48Zm0.29,0.74-0.05,2.36a33.89,33.89,0,0,0-4.87.28c-1.22.13-2.38,0.25-3.43,0.27l0.5-1.38a0.45,0.45,0,0,1,.28-0.23c0.74-.14,1.47-0.33,2.25-0.53a20,20,0,0,1,5-.85H64.7A0.08,0.08,0,0,1,64.77,42.57Z" transform="translate(-3.92 -7)"/><path class="cls-1" d="M67.48,45.79a3,3,0,0,0,.6.57,0.83,0.83,0,0,0,.46.13,1.09,1.09,0,0,0,.58-0.17l2.2-1.45a0.69,0.69,0,0,0,.31-0.49,0.65,0.65,0,0,0-.18-0.52c-1.26-1.33-3.2-1.55-4.95-1.6a0.71,0.71,0,0,0-.71.72v1.4a0.79,0.79,0,0,0,.66.76A1.58,1.58,0,0,1,67.48,45.79Zm-1-1.42V43a0.05,0.05,0,0,1,.06-0.06h0c1.68,0,3.38.25,4.45,1.41l-2.2,1.45a0.61,0.61,0,0,1-.32,0A2.46,2.46,0,0,1,68,45.36a2.22,2.22,0,0,0-1.39-.88A0.14,0.14,0,0,1,66.46,44.37Z" transform="translate(-3.92 -7)"/><path class="cls-1" d="M74.32,47.91a4.49,4.49,0,0,0-1.75-2.84,0.91,0.91,0,0,0-1,0l-1.91,1.32a0.59,0.59,0,0,0-.27.49,0.6,0.6,0,0,0,.29.49,6.07,6.07,0,0,1,1.46,1.41,1.1,1.1,0,0,0,.82.39H72l1.69-.25a0.74,0.74,0,0,0,.5-0.31A0.68,0.68,0,0,0,74.35,48Zm-0.68.3-1.69.25h0a0.45,0.45,0,0,1-.3-0.14,7.16,7.16,0,0,0-1.53-1.49l1.83-1.26a0.28,0.28,0,0,1,.23,0A3.86,3.86,0,0,1,73.68,48l0,0.14A0.09,0.09,0,0,1,73.64,48.21Z" transform="translate(-3.92 -7)"/><path class="cls-1" d="M73.58,49.24H73.49l-1.42.16a1.18,1.18,0,0,0-.83.56,6.17,6.17,0,0,1-1.36,1.63,5.56,5.56,0,0,0-.45.44,0.72,0.72,0,0,0,.06,1l0.09,0.08a0.74,0.74,0,0,0,.5.18,1,1,0,0,0,.49-0.14A12.09,12.09,0,0,0,74,50a0.54,0.54,0,0,0,0-.55A0.53,0.53,0,0,0,73.58,49.24Zm-3.35,3.37a0.22,0.22,0,0,1-.21,0l-0.09-.08a0.07,0.07,0,0,1,0-.09,4.87,4.87,0,0,1,.39-0.38,6.82,6.82,0,0,0,1.49-1.8,0.54,0.54,0,0,1,.33-0.22l1.17-.13A12.22,12.22,0,0,1,70.23,52.61Z" transform="translate(-3.92 -7)"/><path class="cls-1" d="M58.18,49.54a18,18,0,0,1,2.85.17h0.13a0.85,0.85,0,0,0,.77-0.5L62.87,47a0.57,0.57,0,0,0-.55-0.82c-1.11,0-4.75,0-8.23.26a0.65,0.65,0,0,0-.61.81l0.34,1.47a1,1,0,0,0,.75.7,18.58,18.58,0,0,0,2.66.14h0.95Zm-3.72-1-0.34-1.47c3.36-.21,6.87-0.25,8.1-0.26L61.32,49a0.19,0.19,0,0,1-.16.1h0a18.46,18.46,0,0,0-3-.18H57.23a18,18,0,0,1-2.56-.14A0.32,0.32,0,0,1,54.46,48.55Z" transform="translate(-3.92 -7)"/><path class="cls-1" d="M64.1,46.68a0.87,0.87,0,0,0-.93.5c-0.21.47-.48,1.07-0.91,2.16a4.77,4.77,0,0,0-.18,1.08,6.78,6.78,0,0,0,.24,2.53,1.48,1.48,0,0,0,.65.74l1.15,0.62a1.12,1.12,0,0,0,.51.12,0.75,0.75,0,0,0,.56-0.22c0.79-.86,1.25-3.68.66-5.61A2.52,2.52,0,0,0,64.1,46.68Zm0.6,7.07a0.67,0.67,0,0,1-.28,0l-1.15-.62a0.85,0.85,0,0,1-.33-0.36,6.18,6.18,0,0,1-.21-2.29,4.38,4.38,0,0,1,.13-0.87c0.43-1.08.69-1.67,0.9-2.14a0.24,0.24,0,0,1,.18-0.13h0a1.89,1.89,0,0,1,1.26,1.46C65.76,50.57,65.28,53.11,64.7,53.75Z" transform="translate(-3.92 -7)"/><path class="cls-1" d="M63.62,54.4l-1-.55a0.83,0.83,0,0,0-.79,0,28.43,28.43,0,0,0-3.22,1.76,0.65,0.65,0,0,0-.17,1,1,1,0,0,0,.87.44l0.21,0a10.21,10.21,0,0,0,4.22-1.58A0.56,0.56,0,0,0,64,54.85,0.55,0.55,0,0,0,63.62,54.4Zm-4.29,1.9A0.44,0.44,0,0,1,59,56.18l0-.06a27.71,27.71,0,0,1,3.13-1.71c0.06,0,.06-0.06.2,0l0.92,0.49A9.93,9.93,0,0,1,59.32,56.3Z" transform="translate(-3.92 -7)"/><path class="cls-1" d="M53.12,46.91a0.91,0.91,0,0,0-.49-0.68l-0.13,0a0.85,0.85,0,0,0-.62.44,1.91,1.91,0,0,1-.88.77,0.68,0.68,0,0,0-.42.43,0.57,0.57,0,0,0,.1.51,2.55,2.55,0,0,0,2.12,1h0.07a0.65,0.65,0,0,0,.5-0.25,0.68,0.68,0,0,0,.12-0.57Zm-0.32,1.82a1.88,1.88,0,0,1-1.54-.7,2.56,2.56,0,0,0,1.18-1l0,0,0,0.07,0.38,1.67H52.81Z" transform="translate(-3.92 -7)"/><path class="cls-1" d="M67.88,17.51a0.33,0.33,0,0,0,.24.24H68.2a0.33,0.33,0,0,0,.24-0.11,1,1,0,0,1,.63-0.22A0.33,0.33,0,0,0,69.36,17a3.38,3.38,0,0,0-1.75-1.31,0.33,0.33,0,0,0-.38.49A6,6,0,0,1,67.88,17.51Z" transform="translate(-3.92 -7)"/><path class="cls-1" d="M75.52,24.74a0.33,0.33,0,0,0,.23.33,3.39,3.39,0,0,1,.72.39A0.33,0.33,0,0,0,77,25.13a2.93,2.93,0,0,0-1.08-2,0.33,0.33,0,0,0-.5.36A4.71,4.71,0,0,1,75.52,24.74Z" transform="translate(-3.92 -7)"/><path class="cls-1" d="M69.09,52.91a0.33,0.33,0,0,0-.26-0.15,0.34,0.34,0,0,0-.27.13,6.19,6.19,0,0,1-1.16,1,0.33,0.33,0,0,0,.13.6,2.69,2.69,0,0,0,.42,0,2.42,2.42,0,0,0,1.6-.54,0.33,0.33,0,0,0,0-.49A3.12,3.12,0,0,1,69.09,52.91Z" transform="translate(-3.92 -7)"/><path class="cls-1" d="M57.95,56.12a0.33,0.33,0,0,0-.44-0.21,7.07,7.07,0,0,1-1.4.3,0.33,0.33,0,0,0-.14.6,3.22,3.22,0,0,0,1.64.4l0.4,0A0.33,0.33,0,0,0,58.29,57a0.34,0.34,0,0,0-.1-0.35A1.08,1.08,0,0,1,57.95,56.12Z" transform="translate(-3.92 -7)"/></svg>