<?xml version="1.0" encoding="utf-8"?>
<!-- Generator: Adobe Illustrator 16.0.0, SVG Export Plug-In . SVG Version: 6.00 Build 0)  -->
<!DOCTYPE svg PUBLIC "-//W3C//DTD SVG 1.1//EN" "http://www.w3.org/Graphics/SVG/1.1/DTD/svg11.dtd">
<svg version="1.1" id="Layer_1" xmlns="http://www.w3.org/2000/svg" xmlns:xlink="http://www.w3.org/1999/xlink" x="0px" y="0px"
	 width="91.258px" height="75.174px" viewBox="0 0 91.258 75.174" enable-background="new 0 0 91.258 75.174" xml:space="preserve">
<g>
	<path d="M23.809,20.37c0.008,0.001,0.032,0.001,0.04,0.001c0.344,0,0.65-0.3,1.159-0.797c0.259-0.253,0.582-0.568,0.963-0.893
		c0.364-0.31,0.781-0.586,1.148-0.83c0.663-0.439,1.063-0.705,1.051-1.072c-0.021-0.673,0.228-0.934,0.543-1.265
		c0.183-0.192,0.388-0.413,0.541-0.724c0.704-0.044,1.295-0.19,1.349-0.204c0.913-0.105,1.824-0.41,2.639-0.886
		c0.22-0.128,0.804-0.468,1.613-1.3c0.785-0.807,2.137-1.848,3.04-2.192c0.528-0.201,0.958-0.376,1.284-0.512
		c0.197-0.082,0.338-0.206,0.426-0.353c0.811-0.421,1.849-0.551,2.771-0.662c1.172-0.14,2.184-0.26,2.184-1.074
		c-0.002-0.37-0.438-0.575-1.141-0.784c-0.207-0.062-0.399,0.031-0.554,0.104c-0.024,0.012-0.054,0.026-0.081,0.038
		c-0.033-0.029-0.075-0.071-0.106-0.103c-0.133-0.134-0.299-0.301-0.525-0.347c-0.227-0.048-0.436,0.056-0.605,0.139
		c-0.038,0.019-0.09,0.043-0.128,0.059c-0.035-0.029-0.084-0.077-0.12-0.112c-0.143-0.14-0.305-0.299-0.528-0.332
		c-0.203-0.03-0.392,0.057-0.56,0.13c-0.059,0.026-0.148,0.066-0.139,0.075c-0.034-0.012-0.121-0.071-0.178-0.111
		c-0.162-0.111-0.328-0.226-0.524-0.226c0,0-0.001,0-0.002,0c-0.239,0-0.456,0.139-0.729,0.314
		c-0.339,0.216-0.755,0.464-1.283,0.502l-0.072-0.068c0.531-0.881,2.093-1.492,3.468-1.648c1.145-0.13,1.69,0,2.267,0.139
		c0.138,0.033,0.278,0.066,0.426,0.097c0.433,0.085,0.696-0.091,0.798-0.288c0.098-0.187,0.097-0.488-0.198-0.77
		c-0.795-0.761-2.481-1.668-5.999-1.668c-1.677,0-3.732,0.534-5.14,1.332c-0.341-0.095-0.729-0.06-1.035,0.134
		c-0.71,0.45-1.687,1.101-2.304,1.644c-0.935,0.826-1.71,1.807-2.22,2.812c-0.025,0.016-0.114,0.032-0.178,0.045
		c-0.223,0.043-0.559,0.108-0.821,0.426c-0.222,0.27-0.335,0.635-0.393,0.898c-0.067-0.004-0.134-0.01-0.202-0.01
		c-1.461,0-3.914,0.683-3.914,5.258C21.841,19.193,23.128,20.32,23.809,20.37z M37.659,9.593c-1.025,0.391-2.453,1.502-3.277,2.349
		c-0.746,0.766-1.273,1.074-1.473,1.189c-0.402,0.235-0.831,0.42-1.271,0.56c0.667-0.611,1.608-1.465,2.451-2.209
		c1.823-1.61,0.872-3.622,0.129-4.959c0.127-0.072,0.316-0.177,0.608-0.337c0.256-0.14,0.669-0.085,0.883,0.117l0.925,0.875
		c0.001,0.001,0.002,0.002,0.004,0.003l0.375,0.356c0.386,0.365,1.256,0.957,1.918,1.389c0.076,0.05,0.104,0.097,0.112,0.086
		c-0.003,0.005-0.029,0.04-0.119,0.077C38.604,9.222,38.18,9.395,37.659,9.593z M38.995,7.007c0.133-0.086,0.316-0.203,0.343-0.214
		c0.035,0.012,0.128,0.075,0.184,0.114c0.147,0.102,0.3,0.207,0.477,0.221c0.166,0.014,0.327-0.057,0.48-0.124
		c0.064-0.028,0.172-0.076,0.179-0.084c0.038,0.016,0.126,0.104,0.18,0.156c0.131,0.128,0.279,0.273,0.476,0.305
		c0.191,0.028,0.366-0.055,0.521-0.131C41.897,7.22,42,7.169,42.016,7.164c0.042,0.014,0.136,0.109,0.193,0.166
		c0.127,0.129,0.271,0.274,0.47,0.308c0.176,0.03,0.332-0.045,0.47-0.113c0.046-0.022,0.117-0.056,0.081-0.067
		c0.352,0.104,0.536,0.184,0.628,0.233c-0.192,0.176-1.002,0.273-1.561,0.339c-0.843,0.101-1.859,0.238-2.728,0.616
		c-0.068-0.1-0.158-0.192-0.276-0.27c-0.511-0.333-0.935-0.626-1.266-0.871C38.422,7.373,38.75,7.164,38.995,7.007z M38.047,3.407
		c3.312,0,4.82,0.846,5.457,1.406c-0.113-0.024-0.222-0.051-0.331-0.077c-0.607-0.146-1.234-0.296-2.495-0.153
		c-1.484,0.169-3.161,0.797-3.885,1.837l-0.63-0.596c-0.421-0.398-1.147-0.494-1.653-0.217c-0.109,0.06-0.203,0.112-0.288,0.159
		c-0.031-0.151-0.088-0.312-0.174-0.486c-0.006-0.013-0.016-0.028-0.022-0.042c-0.047-0.091-0.101-0.186-0.163-0.283
		c-0.022-0.035-0.045-0.071-0.07-0.106c-0.066-0.099-0.14-0.202-0.222-0.306c-0.015-0.02-0.024-0.035-0.039-0.054
		C34.661,3.925,36.391,3.407,38.047,3.407z M27.295,9.362c0.201-0.039,0.477-0.092,0.617-0.364c0.495-0.96,1.219-1.875,2.092-2.646
		c0.584-0.515,1.53-1.145,2.22-1.582c0.233-0.146,0.601-0.099,0.763,0.097c0.004,0.006,0.01,0.012,0.014,0.018
		c0.114,0.142,0.211,0.278,0.293,0.406c0.008,0.013,0.016,0.025,0.023,0.037c0.08,0.128,0.144,0.249,0.188,0.355
		c0.003,0.007,0.005,0.013,0.007,0.02c0.043,0.107,0.069,0.203,0.074,0.282c0,0.004-0.001,0.006-0.001,0.01
		c0.003,0.08-0.013,0.145-0.053,0.188c-0.008,0.009-0.012,0.021-0.019,0.031c-0.1,0.135-0.105,0.333,0.017,0.449
		c0.005,0.004,0.011,0.006,0.016,0.01c0.876,1.566,1.515,3.072,0.106,4.316c-1.353,1.192-2.953,2.668-3.288,2.978
		c-0.149,0.035-0.499,0.107-0.915,0.149c0.014-0.114,0.023-0.234,0.023-0.366c0-1.059-0.447-2.013-1.159-2.691
		c0.262-0.015,0.521-0.046,0.774-0.111c0.99-0.254,1.765-0.863,2.183-1.715c0.08-0.163,0.012-0.36-0.151-0.44
		c-0.163-0.079-0.36-0.012-0.44,0.151c-0.331,0.675-0.954,1.16-1.755,1.366c-0.606,0.155-1.261,0.135-1.895-0.049
		c-0.058-0.021-0.113-0.045-0.172-0.062c-0.08-0.027-0.159-0.061-0.238-0.093c0.047-0.187,0.12-0.401,0.236-0.542
		C26.964,9.431,27.093,9.401,27.295,9.362z M25.755,10.688c1.688,0,3.061,1.373,3.061,3.061c0,0.703-0.269,0.985-0.581,1.312
		c-0.347,0.364-0.739,0.776-0.725,1.686c-0.097,0.12-0.475,0.37-0.756,0.556c-0.383,0.254-0.817,0.542-1.211,0.877
		c-0.399,0.34-0.73,0.664-0.997,0.924c-0.273,0.268-0.583,0.57-0.703,0.608c-0.289-0.044-1.343-0.922-1.343-4.424
		C22.5,12.278,23.625,10.688,25.755,10.688z"/>
	<path d="M17.172,25.364h2.944c0.197,0,0.39-0.081,0.528-0.223c0.136-0.138,0.208-0.319,0.205-0.509
		c-0.022-1.017-0.348-1.731-0.663-2.422c-0.312-0.683-0.605-1.327-0.557-2.229c0.009-0.174-0.057-0.345-0.186-0.481
		c-0.152-0.161-0.375-0.257-0.594-0.257H16.86c-0.378,0-0.733,0.285-0.813,0.667c-0.188,0.911-0.582,2.804,0.264,4.889
		C16.442,25.121,16.812,25.364,17.172,25.364z M16.696,20.024c0.012-0.058,0.098-0.122,0.164-0.122h1.989
		c0.053,0,0.114,0.042,0.122,0.044c-0.056,1.063,0.285,1.813,0.616,2.538c0.301,0.659,0.585,1.282,0.588,2.196
		c-0.015,0.016-0.037,0.025-0.058,0.025h-2.944c-0.089,0-0.221-0.081-0.25-0.154C16.151,22.652,16.516,20.89,16.696,20.024z"/>
	<path d="M17.296,18.981h1.127c0.327,0,0.716-0.19,0.905-0.443c0.846-1.139,1.458-2.592,1.769-4.201
		c0.077-0.391-0.184-0.773-0.581-0.853l-0.388-0.075c-0.328-0.065-0.748,0.071-0.967,0.31c-0.552,0.604-2.231,2.438-2.544,4.491
		c-0.03,0.192,0.025,0.387,0.151,0.533C16.897,18.894,17.09,18.981,17.296,18.981z M19.646,14.164
		c0.048-0.053,0.175-0.109,0.336-0.109c0.005,0,0.012,0,0.018,0l0.388,0.075c0.039,0.008,0.068,0.046,0.062,0.081
		c-0.293,1.514-0.864,2.874-1.651,3.934c-0.065,0.088-0.255,0.178-0.376,0.178l-1.156-0.014
		C17.55,16.455,19.128,14.73,19.646,14.164z"/>
	<path d="M21.044,28.04c-0.1-0.155-0.057-0.323,0.034-0.632c0.098-0.332,0.22-0.746,0.053-1.223
		c-0.127-0.361-0.544-0.576-0.873-0.576H17.37c-0.215,0-0.406,0.093-0.523,0.255c-0.114,0.157-0.141,0.361-0.075,0.559
		c0.213,0.633,0.863,2.56,3.245,4.203c0.107,0.073,0.229,0.112,0.352,0.112c0.28,0,0.522-0.192,0.6-0.47l0.396-1.252
		C21.461,28.677,21.226,28.318,21.044,28.04z M20.347,30.051c-2.096-1.463-2.715-3.15-2.931-3.784h2.842
		c0.104,0,0.233,0.085,0.251,0.136c0.097,0.277,0.023,0.527-0.063,0.818c-0.1,0.339-0.225,0.76,0.073,1.22
		c0.058,0.088,0.211,0.322,0.215,0.386L20.347,30.051z"/>
	<path d="M30.357,37.023c-2.035-0.855-3.796-2.044-4.459-2.515c-0.221-0.157-0.569-0.32-0.804-0.38l-1.657-0.463
		c-0.4-0.104-0.792,0.169-0.834,0.58l-0.223,2.177c-0.02,0.197,0.041,0.384,0.169,0.527c0.128,0.142,0.315,0.223,0.537,0.223
		c1.281,0,2.201,0.15,3.175,0.31c1.018,0.167,2.071,0.339,3.582,0.339l0.365-0.003c0.373-0.006,0.466-0.201,0.489-0.316
		C30.718,37.385,30.704,37.169,30.357,37.023z M26.367,36.831c-0.957-0.156-1.947-0.318-3.332-0.343l0.229-2.188l1.659,0.464
		c0.163,0.042,0.44,0.173,0.593,0.281c0.559,0.397,1.88,1.292,3.518,2.098C27.986,37.096,27.166,36.962,26.367,36.831z"/>
	<path d="M20.369,32.75c-0.254-0.284-0.518-0.578-0.94-0.804c-0.274-0.147-0.73-0.125-1.023,0.034l-2.32,1.254
		c-0.197,0.105-0.316,0.279-0.327,0.476c-0.011,0.195,0.087,0.379,0.266,0.502c0.587,0.409,2.699,1.785,5.237,2.296
		c0.046,0.009,0.092,0.014,0.137,0.014c0.348,0,0.648-0.264,0.697-0.614l0.16-1.146c0.051-0.365-0.155-0.758-0.48-0.916
		C21.032,33.49,20.695,33.114,20.369,32.75z M21.604,34.67l-0.16,1.146c-0.004,0.03-0.026,0.046-0.044,0.046l-0.008-0.001
		c-2.263-0.456-4.178-1.64-4.875-2.113l2.203-1.19c0.086-0.047,0.345-0.063,0.399-0.032c0.32,0.171,0.524,0.399,0.76,0.663
		c0.334,0.373,0.75,0.838,1.612,1.251C21.555,34.472,21.614,34.592,21.604,34.67z"/>
	<path d="M16.089,32.876l1.908-0.973c0.344-0.175,0.515-0.607,0.38-0.962c-0.648-1.709-1.702-3.099-2.272-3.775
		c-0.244-0.291-0.727-0.337-1.025-0.101l-1.143,0.897c-0.27,0.209-0.438,0.615-0.391,0.943l0.02,0.14
		c0.112,0.812,0.32,2.325,1.502,3.649c0.15,0.169,0.387,0.271,0.636,0.271C15.842,32.966,15.975,32.935,16.089,32.876z
		 M14.218,28.957l-0.02-0.144c-0.014-0.096,0.06-0.266,0.144-0.331l1.199-0.916c0.025,0,0.048,0.009,0.062,0.024
		c0.543,0.645,1.546,1.967,2.16,3.584c0.015,0.04-0.013,0.116-0.064,0.142l-1.908,0.973c-0.022,0.011-0.053,0.018-0.087,0.018
		c-0.066,0-0.122-0.025-0.144-0.049C14.509,31.082,14.327,29.751,14.218,28.957z"/>
	<path d="M14.076,27.547l0.849-0.677c0.269-0.213,0.434-0.62,0.384-0.944c-0.325-2.163-0.669-3.615-1.025-4.318
		c-0.193-0.383-0.627-0.542-1.021-0.282l-0.484,0.357c-0.374,0.206-0.377,0.775-0.378,1.093c-0.005,0.835-0.02,3.057,0.677,4.55
		c0.106,0.23,0.327,0.373,0.576,0.373C13.803,27.698,13.952,27.645,14.076,27.547z M13.059,22.768
		c0.002-0.366,0.037-0.49,0.073-0.53l0.564-0.333c0.319,0.631,0.652,2.055,0.962,4.12c0.014,0.092-0.061,0.265-0.144,0.331
		l-0.848,0.673C13.04,25.668,13.054,23.571,13.059,22.768z"/>
	<path d="M24.999,37.576l-0.235,0.002c-0.396,0.007-0.718,0.339-0.718,0.739v2.32c0,0.391,0.31,0.698,0.737,0.697h0.001
		c1.467-0.064,3.15,0.109,4.776,0.28c1.271,0.133,2.471,0.257,3.572,0.276c0.002,0,0.013,0,0.013,0c0.208,0,0.391-0.09,0.501-0.246
		c0.111-0.16,0.133-0.367,0.06-0.566l-0.523-1.459c-0.115-0.312-0.439-0.586-0.772-0.648c-0.717-0.139-1.444-0.326-2.213-0.525
		C28.546,38.019,26.837,37.576,24.999,37.576z M32.564,39.847l0.497,1.387c-1.05-0.022-2.208-0.145-3.432-0.271
		c-1.401-0.147-2.849-0.299-4.178-0.299c-0.235,0.001-0.469,0.005-0.746-0.024v-2.32c0-0.041,0.035-0.079,0.072-0.08l0.222-0.002
		c1.754,0,3.421,0.432,5.034,0.849c0.78,0.202,1.517,0.394,2.254,0.534C32.39,39.64,32.53,39.755,32.564,39.847z"/>
	<path d="M23.669,40.12v-1.396c0-0.396-0.319-0.716-0.732-0.716l0,0c-1.731,0.046-3.669,0.272-4.927,1.599
		c-0.135,0.143-0.2,0.334-0.178,0.525c0.023,0.199,0.136,0.381,0.31,0.494l2.203,1.449c0.161,0.105,0.373,0.166,0.581,0.166
		c0.177,0,0.338-0.045,0.465-0.131c0.255-0.17,0.431-0.373,0.601-0.568c0.277-0.316,0.495-0.566,1.014-0.661
		C23.39,40.812,23.669,40.49,23.669,40.12z M23.01,40.12c0,0.049-0.056,0.102-0.122,0.111c-0.747,0.136-1.091,0.529-1.394,0.877
		c-0.148,0.172-0.289,0.332-0.47,0.455c-0.024,0.017-0.248,0.006-0.318-0.041l-2.219-1.463c1.09-1.148,2.792-1.35,4.47-1.395
		c0.03,0,0.054,0.025,0.054,0.057v1.398H23.01z"/>
	<path d="M17.437,44.858c0.038,0.004,0.078,0.008,0.117,0.008c0.303,0,0.63-0.154,0.815-0.387c0.685-0.851,1.121-1.188,1.457-1.406
		c0.183-0.119,0.289-0.297,0.292-0.488c0.003-0.188-0.096-0.365-0.271-0.488l-1.913-1.322c-0.293-0.205-0.762-0.186-1.033,0.041
		c-1.412,1.186-1.622,2.223-1.746,2.84l-0.023,0.113c-0.04,0.186,0,0.375,0.11,0.535c0.117,0.165,0.301,0.278,0.502,0.309
		L17.437,44.858z M15.799,43.786c0.115-0.568,0.289-1.428,1.524-2.467c0.018-0.016,0.061-0.032,0.119-0.032
		c0.045,0,0.088,0.012,0.116,0.028l1.823,1.262c-0.504,0.344-0.965,0.795-1.525,1.49c-0.061,0.074-0.202,0.141-0.303,0.141
		l-1.716-0.248l-0.063-0.053L15.799,43.786z"/>
	<path d="M19.985,48.797c0.3-0.264,0.329-0.711,0.066-1.019c-0.116-0.135-0.271-0.278-0.449-0.44
		c-0.411-0.375-0.922-0.842-1.364-1.635c-0.16-0.287-0.51-0.521-0.833-0.56l-1.422-0.158c-0.012,0-0.071-0.004-0.083-0.004
		c-0.21,0-0.384,0.095-0.476,0.256c-0.093,0.162-0.082,0.365,0.031,0.554c0.812,1.344,2.818,2.742,3.457,3.127
		c0.149,0.09,0.323,0.14,0.487,0.14c0.19,0,0.363-0.062,0.5-0.185L19.985,48.797z M19.548,48.306l-0.086,0.073
		c-0.036,0.033-0.136,0.021-0.212-0.024c-0.708-0.426-2.315-1.599-3.086-2.685l1.169,0.131c0.108,0.013,0.274,0.125,0.33,0.224
		c0.494,0.887,1.073,1.416,1.495,1.801c0.156,0.143,0.292,0.266,0.394,0.383C19.573,48.233,19.58,48.276,19.548,48.306z"/>
	<path d="M35.881,42.422c-0.115-0.153-0.296-0.248-0.496-0.26c-3.486-0.213-7.127-0.261-8.235-0.261
		c-0.216,0-0.401,0.095-0.509,0.255c-0.108,0.159-0.121,0.366-0.038,0.567l0.942,2.242c0.123,0.297,0.44,0.502,0.772,0.502
		c0.042,0,0.084-0.002,0.125-0.01c0.976-0.158,1.982-0.172,2.849-0.172l0.95,0.002l0,0c0.807,0,1.744-0.01,2.659-0.145
		c0.348-0.052,0.67-0.354,0.751-0.701l0.339-1.467C36.037,42.78,35.997,42.579,35.881,42.422z M35.009,44.293
		c-0.02,0.084-0.127,0.188-0.205,0.199c-0.87,0.129-1.779,0.139-2.562,0.139h-0.001l-0.95-0.002c-0.892,0-1.93,0.015-2.954,0.181
		l-0.021,0.002c-0.066,0-0.143-0.045-0.165-0.097l-0.902-2.151c1.209,0.002,4.724,0.053,8.099,0.264L35.009,44.293z"/>
	<path d="M27.166,48.685c0.226-0.709,0.296-1.466,0.237-2.527c-0.01-0.193-0.072-0.809-0.18-1.076
		c-0.449-1.113-0.708-1.699-0.915-2.158c-0.157-0.35-0.574-0.582-0.93-0.496c-0.813,0.193-1.415,0.854-1.74,1.91
		c-0.595,1.932-0.127,4.746,0.659,5.607c0.13,0.145,0.331,0.223,0.564,0.223c0.175,0,0.359-0.045,0.507-0.123l1.147-0.615
		C26.756,49.299,27.066,48.995,27.166,48.685z M26.205,48.849l-1.145,0.612c-0.066,0.037-0.257,0.039-0.274,0.039
		c-0.001,0-0.001,0-0.001,0c-0.59-0.646-1.066-3.185-0.516-4.972c0.256-0.832,0.681-1.323,1.267-1.463
		c0.051,0,0.142,0.06,0.171,0.125c0.205,0.455,0.46,1.033,0.905,2.138c0.056,0.137,0.121,0.621,0.134,0.864
		c0.054,0.978-0.008,1.662-0.208,2.291C26.502,48.594,26.334,48.78,26.205,48.849z"/>
	<path d="M30.888,51.315c-0.577-0.369-1.993-1.213-3.216-1.756c-0.269-0.121-0.548-0.103-0.781,0.034l-1.014,0.548
		c-0.208,0.092-0.339,0.258-0.36,0.457c-0.021,0.194,0.07,0.383,0.25,0.514c1.492,1.088,3.334,1.418,4.27,1.586
		c0.048,0.01,0.102,0.014,0.157,0.014c0.299,0,0.683-0.135,0.868-0.438C31.335,51.823,31.151,51.483,30.888,51.315z M30.499,51.933
		c-0.035,0.057-0.172,0.118-0.305,0.118l-0.09-0.012c-0.81-0.146-2.468-0.442-3.82-1.371l0.93-0.5
		c0.117-0.067,0.129-0.035,0.191-0.008c1.101,0.489,2.475,1.291,3.132,1.684C30.537,51.844,30.535,51.874,30.499,51.933z"/>
	<path d="M38.461,43.165c-0.234-0.094-0.578-0.301-0.88-0.768c-0.107-0.166-0.33-0.443-0.617-0.443c-0.033,0-0.095,0.01-0.125,0.02
		c-0.265,0.08-0.429,0.418-0.489,0.685l-0.373,1.655c-0.045,0.203-0.001,0.412,0.123,0.572c0.119,0.15,0.299,0.242,0.499,0.248
		c0.002,0,0.066,0,0.068,0c1.179,0,1.833-0.643,2.118-1.029c0.113-0.153,0.148-0.332,0.099-0.506
		C38.829,43.409,38.675,43.25,38.461,43.165z M36.667,44.476l-0.047-0.019l0.373-1.656c0.006-0.022,0.012-0.049,0.02-0.069
		c0.005,0.008,0.011,0.016,0.016,0.022c0.377,0.582,0.819,0.865,1.176,1.022C37.937,44.112,37.461,44.476,36.667,44.476z"/>
	<path d="M20.397,13.185c0.091,0.001,0.464,0.042,0.629,0.222c0.063,0.069,0.152,0.107,0.243,0.107c0.027,0,0.055-0.003,0.082-0.01
		c0.118-0.03,0.209-0.123,0.239-0.241c0.141-0.578,0.646-1.372,0.651-1.379c0.075-0.117,0.068-0.269-0.017-0.379
		c-0.085-0.11-0.23-0.155-0.362-0.112c-0.052,0.017-1.273,0.419-1.752,1.306c-0.055,0.102-0.052,0.224,0.006,0.323
		C20.175,13.123,20.282,13.184,20.397,13.185z"/>
	<path d="M12.815,21.266c0.066,0,0.133-0.02,0.189-0.06c0.117-0.083,0.475-0.313,0.722-0.392c0.142-0.045,0.236-0.18,0.229-0.33
		c-0.032-0.7,0.109-1.249,0.11-1.254c0.035-0.131-0.015-0.271-0.125-0.351c-0.109-0.08-0.257-0.085-0.372-0.011
		c-0.034,0.022-0.84,0.554-1.08,2.014c-0.021,0.131,0.038,0.262,0.15,0.333C12.693,21.249,12.754,21.266,12.815,21.266z"/>
	<path d="M20.925,48.64c-0.064-0.084-0.154-0.127-0.274-0.13c-0.106,0.005-0.205,0.06-0.263,0.148
		c-0.199,0.301-0.454,0.534-0.457,0.536c-0.07,0.062-0.109,0.152-0.108,0.246c0,0.095,0.041,0.185,0.111,0.246
		c0.504,0.441,1.149,0.535,1.603,0.535c0.252,0,0.421-0.029,0.421-0.029c0.133-0.022,0.239-0.127,0.266-0.258
		c0.027-0.133-0.028-0.268-0.141-0.342C21.843,49.437,21.167,48.956,20.925,48.64z"/>
	<path d="M33.372,51.956c-0.265-0.031-1.033-0.148-1.399-0.301c-0.087-0.039-0.186-0.035-0.271,0.006s-0.148,0.117-0.174,0.209
		c-0.097,0.348-0.235,0.48-0.234,0.48c-0.106,0.082-0.151,0.221-0.114,0.35c0.038,0.131,0.15,0.223,0.285,0.238
		c0.142,0.012,0.277,0.02,0.405,0.02l0,0c1.011,0,1.616-0.381,1.642-0.398c0.117-0.074,0.174-0.215,0.143-0.352
		C33.623,52.073,33.51,51.972,33.372,51.956z"/>
	<path d="M52.551,42.625c0.326-0.347,0.484-0.799,0.455-1.313c-0.014-0.229-0.075-0.461-0.137-0.641
		c0.049-0.02,0.094-0.038,0.139-0.059c0.162,0.342,0.449,0.837,0.822,0.986c0.479,0.193,1.01,0.242,1.707,0.258
		c0.006,0,0.012,0,0.018,0c0.352,0,0.707-0.25,0.826-0.571l0.637-1.462c0.109-0.252-0.014-0.686-0.342-1.272
		c0.216-0.167,0.425-0.338,0.623-0.515c4.977-1.99,7.931-3.78,9.516-6.011c0.037,0.001,0.062,0.008,0.104,0.008
		c0.709,0,1.908-0.242,2.33-0.692c0.219-0.233,0.201-0.466,0.172-0.584c-0.114-0.443-0.348-1.228-0.436-1.52
		c-0.113-0.375-0.492-0.523-0.798-0.583c0.104-0.627,0.158-1.288,0.158-1.999c0-0.411-0.031-0.816-0.087-1.216
		c0-0.008,0.004-0.016,0.002-0.023c-0.002-0.008-0.008-0.015-0.01-0.023c-0.34-2.408-1.638-4.581-3.571-6.279l-0.154-0.137
		c-0.776-0.661-1.649-1.244-2.604-1.737l-0.174-0.084c-0.806-0.403-1.662-0.739-2.565-1.005c-0.024-0.015-0.132-0.045-0.157-0.045
		c-0.99-0.281-2.025-0.481-3.104-0.575c-0.008,0-1.004-0.067-1.5-0.067h-1.68h-0.002h-2.826c-0.051-0.537-0.498-0.958-1.047-0.958
		c-0.445,0-0.826,0.277-0.982,0.667c-0.164-0.326-0.5-0.553-0.891-0.553c-0.423,0-0.781,0.265-0.93,0.636
		c-0.14-0.308-0.446-0.523-0.806-0.523c-0.36,0-0.666,0.216-0.806,0.523c-0.146-0.371-0.507-0.636-0.929-0.636
		c-0.39,0-0.726,0.227-0.891,0.553c-0.157-0.39-0.537-0.667-0.981-0.667c-0.549,0-0.998,0.422-1.049,0.958h-2.825l0,0h-1.679
		c-0.497,0-1.493,0.067-1.5,0.067c-1.078,0.093-2.114,0.294-3.105,0.575c-0.026,0-0.132,0.031-0.157,0.046
		c-0.904,0.266-1.762,0.602-2.567,1.004l-0.171,0.084c-0.954,0.493-1.826,1.076-2.603,1.735l-0.158,0.141
		c-1.934,1.697-3.23,3.868-3.569,6.274c-0.003,0.01-0.009,0.018-0.011,0.027s0.001,0.018,0,0.026
		c-0.054,0.399-0.085,0.803-0.085,1.213c0,0.71,0.054,1.372,0.159,1.999c-0.307,0.06-0.686,0.208-0.798,0.583
		c-0.087,0.292-0.321,1.077-0.435,1.521c-0.03,0.118-0.048,0.351,0.17,0.583c0.422,0.451,1.622,0.692,2.33,0.692
		c0.041,0,0.067-0.006,0.104-0.008c1.586,2.231,4.54,4.021,9.515,6.011c0.198,0.177,0.408,0.347,0.623,0.515
		c-0.327,0.588-0.45,1.021-0.341,1.272l0.63,1.444c0.126,0.338,0.482,0.588,0.832,0.588c0.006,0,0.012,0,0.017,0
		c0.699-0.017,1.229-0.064,1.708-0.258c0.373-0.149,0.66-0.646,0.821-0.986c0.046,0.021,0.092,0.039,0.139,0.059
		c-0.06,0.18-0.122,0.412-0.135,0.641c-0.029,0.515,0.128,0.97,0.455,1.315c0.289,0.306,0.698,0.502,1.176,0.576
		c-0.058,0.248-0.051,0.496,0.043,0.705c0.117,0.26,0.344,0.434,0.622,0.475c0.042,0.009,0.083,0.011,0.123,0.011
		c0.307,0,0.547-0.177,0.745-0.32c0.141-0.104,0.253-0.221,0.376-0.199c0.122,0.004,0.206,0.045,0.334,0.105
		c0.203,0.1,0.48,0.233,0.982,0.233c0.351,0,0.606-0.067,0.812-0.121c0.252-0.062,0.378-0.098,0.585-0.002
		c0.536,0.248,1.38,0.236,1.495,0.236c0.115,0,0.958,0.012,1.495-0.236c0.207-0.094,0.332-0.062,0.586,0.002
		c0.205,0.054,0.459,0.121,0.812,0.121c0.502,0,0.779-0.135,0.983-0.233c0.127-0.062,0.212-0.103,0.33-0.105
		c0.105,0.018,0.238,0.096,0.379,0.199c0.197,0.145,0.439,0.32,0.744,0.32c0.039,0,0.08-0.002,0.121-0.011
		c0.279-0.041,0.508-0.215,0.623-0.475c0.096-0.207,0.103-0.457,0.045-0.705C51.854,43.127,52.263,42.933,52.551,42.625z
		 M56.413,39.563l-0.644,1.478c-0.028,0.075-0.114,0.174-0.218,0.158c-0.641-0.015-1.088-0.054-1.475-0.209
		c-0.127-0.052-0.315-0.334-0.461-0.632c0.913-0.409,1.766-0.883,2.527-1.414C56.295,39.231,56.409,39.499,56.413,39.563z
		 M68.353,29.427c0.087,0.287,0.315,1.059,0.433,1.445c-0.104,0.197-0.918,0.43-1.547,0.493c0.367-0.644,0.641-1.325,0.818-2.061
		C68.217,29.337,68.342,29.389,68.353,29.427z M48.866,15.164c0.184,0,0.334,0.128,0.379,0.3h-0.76
		C48.532,15.292,48.681,15.164,48.866,15.164z M46.993,15.278c0.131,0,0.241,0.077,0.301,0.186h-0.6
		C46.752,15.354,46.861,15.278,46.993,15.278z M45.258,15.39c0.066,0,0.125,0.029,0.167,0.073h-0.167h-0.167
		C45.133,15.419,45.192,15.39,45.258,15.39z M43.523,15.278c0.131,0,0.241,0.077,0.299,0.186h-0.599
		C43.281,15.354,43.391,15.278,43.523,15.278z M41.651,15.164c0.185,0,0.333,0.128,0.379,0.3h-0.759
		C41.316,15.292,41.466,15.164,41.651,15.164z M21.735,30.922c0.112-0.436,0.341-1.208,0.428-1.495
		c0.011-0.039,0.136-0.09,0.296-0.123c0.178,0.736,0.452,1.417,0.819,2.061C22.65,31.305,21.836,31.082,21.735,30.922z
		 M33.515,37.448c-6.53-2.605-9.477-4.818-10.372-8.173h1.339c0.182,0,0.33-0.147,0.33-0.329c0-0.182-0.147-0.33-0.33-0.33H23
		c-0.111-0.614-0.17-1.261-0.17-1.959c0-0.268,0.026-0.529,0.051-0.792l1.384,0.25c0.02,0.003,0.04,0.005,0.059,0.005
		c0.156,0,0.295-0.111,0.324-0.271c0.032-0.179-0.086-0.35-0.266-0.383l-1.412-0.255c0.167-0.959,0.486-1.879,0.957-2.738
		l1.299,0.812c0.054,0.034,0.115,0.05,0.174,0.05c0.11,0,0.217-0.055,0.28-0.155c0.096-0.154,0.049-0.357-0.105-0.454l-1.306-0.817
		c0.5-0.781,1.115-1.505,1.834-2.16l1.05,1.127c0.065,0.069,0.153,0.105,0.241,0.105c0.08,0,0.161-0.029,0.224-0.088
		c0.133-0.124,0.141-0.333,0.017-0.465l-1.036-1.112c0.634-0.517,1.328-0.986,2.083-1.392l0.756,1.332
		c0.06,0.107,0.171,0.167,0.287,0.167c0.055,0,0.111-0.013,0.162-0.043c0.158-0.089,0.214-0.291,0.124-0.449l-0.734-1.293
		c0.636-0.305,1.305-0.569,2.005-0.787l0.394,1.393c0.041,0.146,0.173,0.24,0.317,0.24c0.03,0,0.06-0.004,0.09-0.012
		c0.175-0.05,0.277-0.232,0.227-0.407l-0.396-1.398c0.777-0.205,1.585-0.352,2.418-0.441l0.088,1.362
		c0.011,0.174,0.156,0.308,0.328,0.308c0.007,0,0.015,0,0.022-0.001c0.181-0.011,0.319-0.168,0.307-0.35l-0.089-1.379
		c0.367-0.024,0.735-0.044,1.109-0.044h1.351v0.854c0,0.182,0.147,0.329,0.329,0.329l0,0c0.182,0,0.329-0.148,0.329-0.329v-0.854
		h2.452v0.427c0,0.182,0.147,0.329,0.329,0.329c0.182,0,0.33-0.147,0.33-0.329v-0.427h4.041h4.04v0.427
		c0,0.182,0.147,0.329,0.33,0.329s0.33-0.147,0.33-0.329v-0.427h2.451v0.854c0,0.181,0.147,0.329,0.329,0.329l0,0
		c0.183,0,0.33-0.147,0.33-0.329v-0.854h1.351c0.375,0,0.742,0.021,1.109,0.044l-0.089,1.379c-0.013,0.181,0.126,0.338,0.308,0.35
		c0.008,0.001,0.015,0.001,0.021,0.001c0.172,0,0.316-0.134,0.328-0.308l0.088-1.362c0.832,0.089,1.641,0.235,2.417,0.441
		l-0.396,1.398c-0.049,0.175,0.053,0.357,0.229,0.407c0.029,0.008,0.061,0.012,0.09,0.012c0.143,0,0.275-0.095,0.316-0.24
		l0.394-1.393c0.701,0.217,1.37,0.481,2.007,0.787l-0.734,1.293c-0.09,0.159-0.034,0.36,0.123,0.449
		c0.053,0.03,0.107,0.043,0.164,0.043c0.113,0,0.226-0.06,0.285-0.167l0.756-1.332c0.756,0.405,1.451,0.874,2.084,1.392
		l-1.037,1.112c-0.125,0.133-0.116,0.341,0.018,0.465c0.062,0.06,0.145,0.088,0.225,0.088c0.088,0,0.176-0.036,0.24-0.105
		l1.051-1.127c0.719,0.654,1.336,1.378,1.836,2.16l-1.309,0.817c-0.152,0.097-0.199,0.3-0.104,0.454
		c0.062,0.1,0.17,0.155,0.279,0.155c0.059,0,0.119-0.016,0.174-0.05l1.299-0.812c0.471,0.859,0.791,1.779,0.957,2.738l-1.412,0.255
		c-0.18,0.033-0.299,0.204-0.266,0.383c0.028,0.159,0.168,0.271,0.323,0.271c0.021,0,0.039-0.002,0.06-0.005l1.386-0.25
		c0.024,0.263,0.05,0.524,0.05,0.792c0,0.698-0.061,1.346-0.171,1.959h-1.481c-0.182,0-0.328,0.147-0.328,0.33
		c0,0.183,0.146,0.329,0.328,0.329h1.34c-0.896,3.355-3.844,5.567-10.373,8.173l-0.099,0.062c-2.688,2.423-7.149,3.929-11.645,3.929
		c-4.495,0-8.957-1.506-11.645-3.929L33.515,37.448z M36.439,40.99c-0.389,0.155-0.836,0.194-1.477,0.209c-0.001,0-0.001,0-0.002,0
		c-0.075,0-0.186-0.082-0.221-0.175l-0.625-1.424c-0.004-0.093,0.107-0.365,0.258-0.656c0.763,0.531,1.614,1.005,2.528,1.414
		C36.754,40.656,36.566,40.938,36.439,40.99z M38.167,41.351c0.009-0.152,0.053-0.314,0.097-0.447
		c2.156,0.766,4.571,1.195,6.994,1.195c2.423,0,4.837-0.43,6.993-1.195c0.045,0.133,0.088,0.295,0.099,0.447
		c0.019,0.328-0.077,0.613-0.276,0.824c-0.246,0.264-0.648,0.406-1.132,0.406h-5.683h-5.682c-0.482,0-0.885-0.143-1.132-0.406
		C38.245,41.963,38.148,41.679,38.167,41.351z M40.284,43.542c-0.145,0.105-0.288,0.197-0.38,0.191
		c-0.042-0.006-0.087-0.023-0.12-0.094c-0.04-0.091-0.041-0.236,0.025-0.398h1.065C40.636,43.29,40.446,43.422,40.284,43.542z
		 M48.846,43.388c-0.178,0.086-0.346,0.166-0.696,0.166c-0.267,0-0.459-0.05-0.646-0.099c-0.299-0.078-0.607-0.158-1.027,0.037
		c-0.344,0.157-0.991,0.184-1.211,0.176H45.25c-0.219,0.006-0.868-0.019-1.211-0.176c-0.42-0.193-0.729-0.115-1.026-0.037
		c-0.187,0.049-0.379,0.099-0.646,0.099c-0.351,0-0.519-0.08-0.696-0.166c-0.126-0.062-0.279-0.119-0.463-0.146h4.051h4.05
		C49.124,43.269,48.972,43.327,48.846,43.388z M50.73,43.64c-0.03,0.069-0.078,0.088-0.12,0.094
		c-0.105,0.008-0.234-0.086-0.379-0.191c-0.165-0.121-0.367-0.252-0.609-0.301h1.084C50.771,43.403,50.771,43.549,50.73,43.64z"/>
	<path d="M48.142,8.682c0.923,0.11,1.96,0.24,2.771,0.661C51,9.49,51.142,9.614,51.336,9.696c0.328,0.137,0.759,0.312,1.287,0.512
		c0.9,0.345,2.254,1.386,3.039,2.193c0.81,0.832,1.395,1.171,1.612,1.299c0.815,0.477,1.728,0.782,2.64,0.887
		c0.055,0.014,0.645,0.16,1.35,0.204c0.152,0.311,0.357,0.531,0.54,0.724c0.315,0.331,0.563,0.592,0.543,1.265
		c-0.013,0.367,0.388,0.632,1.05,1.072c0.368,0.244,0.785,0.521,1.148,0.831c0.381,0.324,0.703,0.639,0.963,0.892
		c0.51,0.498,0.816,0.798,1.16,0.798c0.008,0,0.031,0,0.039-0.001c0.682-0.05,1.969-1.176,1.969-5.083
		c0-4.575-2.452-5.258-3.915-5.258c-0.067,0-0.134,0.006-0.201,0.01c-0.058-0.263-0.171-0.628-0.394-0.898
		c-0.262-0.318-0.598-0.383-0.819-0.426c-0.063-0.013-0.153-0.027-0.157-0.02c-0.529-1.03-1.307-2.012-2.242-2.838
		c-0.617-0.545-1.593-1.195-2.304-1.645c-0.306-0.192-0.69-0.228-1.033-0.133c-1.407-0.797-3.463-1.332-5.141-1.332
		c-3.519,0-5.204,0.907-5.998,1.668C46.174,4.699,46.174,5,46.271,5.187c0.103,0.197,0.366,0.375,0.799,0.287
		c0.147-0.03,0.287-0.064,0.427-0.097c0.576-0.139,1.121-0.269,2.267-0.139c1.375,0.156,2.937,0.767,3.468,1.648l-0.075,0.071
		c-0.521-0.03-0.94-0.288-1.278-0.504c-0.274-0.176-0.492-0.314-0.729-0.314c-0.001,0-0.002,0-0.002,0
		c-0.197,0-0.363,0.115-0.523,0.226c-0.059,0.04-0.146,0.099-0.138,0.107c-0.032-0.005-0.12-0.044-0.181-0.071
		c-0.168-0.074-0.355-0.161-0.559-0.128c-0.224,0.033-0.386,0.191-0.529,0.333c-0.034,0.034-0.082,0.082-0.118,0.111
		c-0.037-0.016-0.091-0.041-0.128-0.059c-0.17-0.083-0.379-0.185-0.604-0.139c-0.229,0.046-0.395,0.213-0.527,0.347
		c-0.03,0.032-0.073,0.074-0.105,0.103c-0.025-0.012-0.059-0.026-0.081-0.038C47.5,6.857,47.307,6.764,47.1,6.826
		c-0.704,0.21-1.141,0.415-1.141,0.786C45.958,8.422,46.97,8.542,48.142,8.682z M56.133,11.941c-0.823-0.847-2.252-1.958-3.276-2.35
		c-0.521-0.197-0.944-0.37-1.267-0.504c-0.075-0.031-0.104-0.061-0.113-0.062c0.009-0.017,0.038-0.055,0.107-0.101
		C52.247,8.492,53.118,7.9,53.5,7.536l0.377-0.355c0.002-0.002,0.004-0.003,0.006-0.005l0.923-0.874
		c0.215-0.203,0.627-0.258,0.883-0.118c0.296,0.162,0.485,0.267,0.608,0.336c-0.736,1.324-1.7,3.344,0.129,4.96
		c0.843,0.744,1.783,1.598,2.451,2.209c-0.439-0.139-0.869-0.325-1.271-0.561C57.409,13.015,56.879,12.708,56.133,11.941z
		 M68.016,15.287c0,3.504-1.057,4.38-1.344,4.424c-0.121-0.038-0.432-0.341-0.705-0.608c-0.266-0.261-0.598-0.584-0.995-0.923
		c-0.396-0.335-0.828-0.623-1.212-0.878c-0.28-0.186-0.657-0.436-0.756-0.555c0.015-0.91-0.379-1.322-0.725-1.686
		c-0.312-0.327-0.58-0.609-0.58-1.312c0-1.688,1.372-3.061,3.061-3.061C66.89,10.688,68.016,12.278,68.016,15.287z M58.29,4.77
		c0.69,0.437,1.637,1.066,2.222,1.582c0.875,0.772,1.599,1.688,2.093,2.646c0.141,0.271,0.416,0.325,0.617,0.364
		c0.201,0.039,0.33,0.069,0.438,0.198c0.115,0.142,0.189,0.354,0.236,0.543c-0.082,0.034-0.163,0.068-0.245,0.096
		c-0.056,0.017-0.108,0.04-0.162,0.06c-0.635,0.185-1.288,0.205-1.897,0.05c-0.801-0.206-1.424-0.69-1.754-1.366
		c-0.08-0.164-0.278-0.23-0.44-0.151c-0.164,0.081-0.231,0.277-0.151,0.44c0.418,0.852,1.192,1.46,2.184,1.715
		c0.253,0.065,0.512,0.096,0.773,0.111c-0.713,0.678-1.158,1.632-1.158,2.691c0,0.132,0.008,0.252,0.022,0.366
		c-0.414-0.042-0.765-0.115-0.915-0.149c-0.335-0.309-1.938-1.785-3.288-2.978c-1.437-1.268-0.743-2.809,0.166-4.421
		c0.003-0.003,0-0.008,0.003-0.011c0.002-0.006,0.008-0.012,0.01-0.018c0.01-0.02,0.01-0.04,0.017-0.06
		c0.004-0.021,0.013-0.042,0.013-0.063c0-0.012-0.004-0.022-0.004-0.033c-0.002-0.012-0.004-0.022-0.006-0.034
		c-0.003-0.019-0.003-0.039-0.01-0.057c-0.008-0.021-0.023-0.039-0.036-0.059c-0.011-0.016-0.017-0.035-0.029-0.05
		c-0.001,0-0.001-0.001-0.001-0.001c-0.039-0.043-0.054-0.106-0.052-0.183c0-0.007-0.002-0.013-0.001-0.021
		c0.005-0.078,0.029-0.172,0.072-0.276c0.002-0.009,0.007-0.018,0.011-0.027c0.045-0.106,0.106-0.224,0.187-0.35
		c0.01-0.014,0.021-0.029,0.028-0.043c0.081-0.127,0.177-0.262,0.29-0.402c0.002-0.004,0.006-0.007,0.009-0.011
		C57.687,4.671,58.058,4.622,58.29,4.77z M49.836,4.583c-1.26-0.143-1.887,0.007-2.494,0.153c-0.107,0.026-0.217,0.052-0.33,0.077
		c0.636-0.56,2.146-1.406,5.457-1.406c1.656,0,3.386,0.518,4.515,1.083c-0.013,0.016-0.021,0.029-0.032,0.045
		c-0.084,0.107-0.16,0.212-0.228,0.313c-0.026,0.038-0.05,0.075-0.072,0.11c-0.06,0.093-0.11,0.184-0.155,0.271
		c-0.01,0.018-0.021,0.036-0.029,0.054c-0.084,0.171-0.143,0.333-0.172,0.483c-0.086-0.047-0.18-0.099-0.289-0.159
		c-0.506-0.277-1.23-0.182-1.652,0.217l-0.63,0.596C52.999,5.379,51.321,4.751,49.836,4.583z M47.224,7.462
		c0.026,0.005,0.098,0.039,0.144,0.061c0.139,0.067,0.295,0.141,0.471,0.113c0.199-0.033,0.344-0.179,0.47-0.308
		c0.058-0.057,0.151-0.152,0.172-0.164c0.037,0.003,0.142,0.054,0.203,0.084c0.153,0.076,0.33,0.157,0.521,0.131
		c0.197-0.031,0.346-0.177,0.478-0.305c0.053-0.052,0.142-0.14,0.147-0.15c0.039,0.003,0.146,0.051,0.211,0.079
		c0.152,0.067,0.312,0.138,0.479,0.124c0.178-0.014,0.33-0.119,0.479-0.221c0.055-0.038,0.147-0.104,0.146-0.109
		c0.062,0.008,0.246,0.125,0.38,0.21c0.246,0.157,0.58,0.357,0.979,0.487c-0.332,0.245-0.76,0.541-1.276,0.879
		c-0.12,0.078-0.209,0.171-0.276,0.27c-0.869-0.377-1.886-0.515-2.729-0.616c-0.561-0.067-1.374-0.163-1.562-0.34
		C46.745,7.64,46.913,7.562,47.224,7.462z"/>
	<path d="M71.667,19.243c-0.22,0-0.44,0.096-0.595,0.257c-0.129,0.136-0.194,0.307-0.186,0.481c0.048,0.902-0.246,1.546-0.558,2.229
		c-0.314,0.691-0.642,1.405-0.662,2.422c-0.004,0.19,0.066,0.37,0.203,0.508c0.139,0.142,0.332,0.223,0.528,0.223h2.944
		c0.357,0,0.729-0.243,0.859-0.565c0.848-2.086,0.453-3.981,0.26-4.908c-0.074-0.363-0.43-0.647-0.808-0.647H71.667z M73.823,20.041
		c0.176,0.847,0.543,2.609-0.229,4.509c-0.03,0.074-0.162,0.155-0.252,0.155h-2.943l-0.074-0.059
		c0.021-0.881,0.303-1.503,0.604-2.163c0.331-0.725,0.672-1.474,0.612-2.519c0.01-0.021,0.071-0.063,0.125-0.063h1.99
		C73.721,19.902,73.808,19.967,73.823,20.041z"/>
	<path d="M70,13.484c-0.397,0.079-0.658,0.461-0.582,0.851c0.312,1.61,0.924,3.063,1.771,4.202c0.188,0.253,0.576,0.443,0.903,0.443
		h1.128c0.206,0,0.397-0.087,0.528-0.239c0.125-0.146,0.182-0.34,0.151-0.533c-0.313-2.05-1.991-3.887-2.545-4.491
		c-0.222-0.239-0.646-0.374-0.967-0.31L70,13.484z M70.87,14.163c0.519,0.567,2.096,2.293,2.381,4.149
		c-0.002,0.002-0.012,0.01-0.03,0.01h-1.128c-0.118,0-0.311-0.091-0.375-0.177c-0.787-1.06-1.358-2.42-1.651-3.935
		c-0.007-0.033,0.022-0.072,0.062-0.079l0.438-0.08C70.685,14.051,70.819,14.109,70.87,14.163z"/>
	<path d="M73.668,25.864c-0.117-0.163-0.308-0.256-0.522-0.256h-2.89c-0.327,0-0.744,0.215-0.871,0.576
		c-0.168,0.478-0.045,0.891,0.053,1.224c0.092,0.309,0.135,0.477,0.008,0.673c-0.154,0.237-0.392,0.597-0.292,0.944l0.39,1.234
		c0.082,0.286,0.324,0.479,0.604,0.479c0.123,0,0.245-0.039,0.354-0.112c2.381-1.643,3.03-3.57,3.244-4.203
		C73.81,26.227,73.782,26.022,73.668,25.864z M70.168,30.053l-0.381-1.202c-0.002-0.087,0.15-0.32,0.237-0.453
		c0.269-0.416,0.146-0.837,0.044-1.176c-0.086-0.291-0.16-0.541-0.062-0.818c0.019-0.051,0.146-0.136,0.25-0.136l2.844,0.001
		C72.887,26.896,72.268,28.587,70.168,30.053z"/>
	<path d="M67.967,36.946c0.129-0.142,0.188-0.329,0.168-0.525l-0.223-2.176c-0.041-0.411-0.402-0.693-0.84-0.579l-1.645,0.46
		c-0.243,0.062-0.592,0.227-0.811,0.383c-0.664,0.471-2.425,1.658-4.461,2.515c-0.346,0.146-0.359,0.362-0.338,0.478
		c0.021,0.115,0.115,0.31,0.488,0.316l0.365,0.003c1.51,0,2.562-0.172,3.58-0.339c0.976-0.16,1.896-0.31,3.197-0.31
		C67.651,37.171,67.838,37.089,67.967,36.946z M64.148,36.831c-0.798,0.131-1.619,0.265-2.667,0.312
		c1.626-0.798,2.956-1.699,3.518-2.098c0.152-0.107,0.431-0.239,0.601-0.283l1.657-0.451l0.173,2.202
		C66.095,36.512,65.105,36.674,64.148,36.831z"/>
	<path d="M70.146,32.75c-0.325,0.364-0.663,0.74-1.407,1.098c-0.324,0.157-0.529,0.55-0.479,0.915l0.158,1.146
		c0.049,0.35,0.35,0.614,0.697,0.614c0.045,0,0.092-0.005,0.139-0.014c2.537-0.511,4.649-1.887,5.236-2.296
		c0.18-0.125,0.276-0.308,0.266-0.504c-0.01-0.197-0.131-0.371-0.325-0.475l-2.319-1.254c-0.293-0.159-0.749-0.181-1.023-0.035
		C70.665,32.171,70.401,32.465,70.146,32.75z M71.538,32.502c0.107,0,0.207,0.028,0.26,0.057L74,33.75
		c-0.687,0.465-2.605,1.655-4.875,2.112l-0.01,0.001l-0.045-0.046l-0.158-1.146c-0.012-0.078,0.049-0.199,0.112-0.229
		c0.862-0.414,1.278-0.879,1.612-1.252c0.234-0.264,0.439-0.492,0.76-0.663C71.42,32.515,71.467,32.502,71.538,32.502z"/>
	<path d="M75.436,27.066c-0.301-0.237-0.779-0.19-1.025,0.101c-0.57,0.676-1.623,2.065-2.271,3.775
		c-0.135,0.355,0.035,0.787,0.381,0.962l1.908,0.973c0.113,0.059,0.246,0.09,0.385,0.09c0.248,0,0.486-0.101,0.637-0.269
		c1.184-1.326,1.393-2.838,1.504-3.651l0.02-0.14c0.046-0.328-0.122-0.733-0.391-0.942L75.436,27.066z M76.299,28.957
		c-0.109,0.794-0.293,2.125-1.344,3.302c-0.031,0.035-0.166,0.063-0.229,0.031l-1.908-0.973c-0.05-0.026-0.077-0.102-0.062-0.142
		c0.613-1.619,1.615-2.94,2.158-3.584c0.008-0.009,0.021-0.017,0.047-0.017c0.018,0,0.039,0.003,0.068,0.01l1.145,0.898
		c0.084,0.065,0.158,0.235,0.146,0.331L76.299,28.957z"/>
	<path d="M78.116,22.764c-0.003-0.306-0.006-0.875-0.344-1.059l-0.533-0.389c-0.353-0.23-0.812-0.092-1.008,0.292
		c-0.354,0.701-0.699,2.154-1.023,4.318c-0.051,0.324,0.114,0.73,0.383,0.945l0.851,0.678c0.122,0.097,0.272,0.15,0.422,0.15
		c0.248,0,0.47-0.142,0.576-0.373C78.135,25.833,78.122,23.611,78.116,22.764z M76.849,27.031l-0.847-0.676
		c-0.082-0.066-0.158-0.239-0.146-0.332c0.394-2.61,0.74-3.681,0.961-4.118c0.019-0.035,0.038-0.049,0.046-0.049c0,0,0,0,0,0.001
		l0.526,0.379c0.028,0.04,0.063,0.165,0.065,0.543C77.461,23.571,77.475,25.668,76.849,27.031z"/>
	<path d="M65.518,37.576c-1.839,0-3.548,0.442-5.199,0.87c-0.77,0.199-1.497,0.388-2.213,0.525
		c-0.332,0.063-0.656,0.338-0.773,0.651l-0.521,1.456c-0.073,0.199-0.053,0.406,0.061,0.566c0.108,0.156,0.291,0.248,0.5,0.248
		c0.002,0,0.012,0,0.015,0c1.101-0.021,2.302-0.145,3.571-0.277c1.385-0.146,2.814-0.294,4.108-0.294
		c0.228,0,0.449,0.005,0.698,0.015c0.396,0,0.707-0.309,0.707-0.697v-2.32c0-0.4-0.322-0.732-0.717-0.74L65.518,37.576z
		 M65.812,38.317l-0.052,2.361c-1.506-0.072-3.223,0.109-4.872,0.282c-1.226,0.127-2.384,0.248-3.435,0.271l0.496-1.383
		c0.035-0.096,0.176-0.211,0.278-0.231c0.737-0.142,1.476-0.332,2.254-0.534c1.613-0.417,3.28-0.85,5.035-0.85l0.224,0.002
		C65.775,38.237,65.812,38.278,65.812,38.317z"/>
	<path d="M68.525,41.543c0.17,0.194,0.347,0.397,0.601,0.569c0.127,0.084,0.287,0.129,0.465,0.129c0.209,0,0.42-0.061,0.582-0.166
		l2.203-1.449c0.174-0.113,0.287-0.295,0.31-0.494c0.022-0.191-0.042-0.384-0.177-0.525c-1.26-1.326-3.197-1.552-4.948-1.599
		c-0.394,0-0.713,0.321-0.713,0.716v1.396c0,0.37,0.278,0.691,0.664,0.761C68.03,40.976,68.249,41.226,68.525,41.543z M67.506,40.12
		v-1.396c0-0.033,0.022-0.058,0.057-0.058l0,0c1.676,0.045,3.378,0.245,4.451,1.409l-2.203,1.447
		c-0.072,0.049-0.296,0.057-0.316,0.041c-0.184-0.123-0.324-0.283-0.473-0.453c-0.303-0.35-0.646-0.743-1.395-0.879
		C67.562,40.222,67.506,40.169,67.506,40.12z"/>
	<path d="M75.362,43.655c-0.125-0.617-0.334-1.654-1.746-2.84c-0.271-0.229-0.74-0.244-1.033-0.041l-1.914,1.324
		c-0.174,0.121-0.273,0.299-0.271,0.486c0.002,0.191,0.108,0.369,0.291,0.488c0.337,0.221,0.772,0.559,1.456,1.408
		c0.188,0.229,0.516,0.385,0.816,0.385c0.039,0,0.078-0.004,0.117-0.008l1.691-0.246c0.202-0.029,0.387-0.144,0.503-0.309
		c0.11-0.158,0.151-0.349,0.11-0.533L75.362,43.655z M74.678,43.959l-1.691,0.246l-0.023,0.002c-0.102,0-0.243-0.065-0.303-0.142
		c-0.556-0.688-1.015-1.139-1.527-1.489l1.826-1.261c0.062-0.041,0.203-0.023,0.232,0.004c1.237,1.039,1.41,1.897,1.525,2.466
		l0.018,0.141C74.722,43.942,74.7,43.958,74.678,43.959z"/>
	<path d="M74.618,44.983c-0.013,0-0.072,0.004-0.084,0.004l-1.425,0.158c-0.319,0.037-0.67,0.271-0.831,0.559
		c-0.441,0.791-0.953,1.258-1.363,1.635c-0.18,0.162-0.334,0.307-0.449,0.441c-0.264,0.307-0.233,0.754,0.064,1.018l0.09,0.078
		c0.135,0.119,0.309,0.182,0.498,0.182c0.164,0,0.338-0.049,0.488-0.139c0.639-0.385,2.645-1.783,3.455-3.127
		c0.113-0.188,0.125-0.389,0.031-0.553C75.002,45.079,74.825,44.983,74.618,44.983z M71.267,48.354
		c-0.077,0.045-0.179,0.059-0.212,0.026l-0.09-0.077c-0.029-0.027-0.022-0.07,0-0.097c0.102-0.119,0.238-0.24,0.395-0.383
		c0.422-0.388,1-0.916,1.494-1.8c0.057-0.1,0.223-0.213,0.329-0.225l1.17-0.129C73.586,46.752,71.976,47.926,71.267,48.354z"/>
	<path d="M59.225,45.288c0.865,0,1.872,0.014,2.85,0.172c0.041,0.008,0.082,0.01,0.125,0.01c0.33,0,0.648-0.205,0.771-0.5
		l0.941-2.244c0.084-0.201,0.069-0.408-0.037-0.567c-0.107-0.16-0.293-0.255-0.51-0.255c-1.107,0-4.748,0.048-8.234,0.261
		c-0.2,0.012-0.381,0.104-0.496,0.26c-0.115,0.154-0.155,0.354-0.11,0.556l0.341,1.467c0.081,0.348,0.403,0.65,0.752,0.701
		c0.913,0.135,1.852,0.145,2.658,0.145L59.225,45.288z M55.506,44.293l-0.336-1.476c3.365-0.202,6.871-0.254,8.097-0.256
		l-0.904,2.152c-0.021,0.051-0.098,0.096-0.163,0.096l-0.021-0.002c-1.024-0.166-2.062-0.18-2.954-0.18l-0.949,0.002
		c-0.783,0-1.693-0.01-2.562-0.137C55.633,44.481,55.525,44.377,55.506,44.293z"/>
	<path d="M65.137,42.426c-0.352-0.086-0.771,0.146-0.93,0.496c-0.213,0.474-0.477,1.07-0.914,2.158
		c-0.115,0.282-0.174,0.933-0.182,1.076c-0.059,1.062,0.014,1.817,0.238,2.526c0.102,0.312,0.41,0.617,0.648,0.744l1.148,0.617
		c0.146,0.076,0.33,0.121,0.505,0.121c0.233,0,0.435-0.078,0.565-0.223c0.785-0.861,1.254-3.676,0.658-5.609
		C66.551,43.28,65.95,42.62,65.137,42.426z M65.741,49.493c-0.017,0.01-0.216,0.006-0.283-0.029l-1.146-0.615
		c-0.13-0.067-0.298-0.254-0.333-0.363c-0.201-0.629-0.264-1.313-0.208-2.291c0.015-0.245,0.077-0.727,0.134-0.866
		c0.434-1.076,0.694-1.668,0.904-2.136c0.029-0.065,0.121-0.125,0.176-0.125l0,0c0.582,0.14,1.008,0.632,1.264,1.464
		C66.797,46.315,66.322,48.854,65.741,49.493z"/>
	<path d="M64.661,50.151l-1.025-0.551c-0.256-0.15-0.521-0.16-0.791-0.041c-1.223,0.543-2.639,1.387-3.217,1.756
		c-0.264,0.168-0.445,0.508-0.172,0.959c0.183,0.303,0.566,0.438,0.866,0.438c0.056,0,0.107-0.004,0.207-0.023
		c0.886-0.157,2.728-0.489,4.22-1.576c0.18-0.131,0.271-0.317,0.25-0.516C64.977,50.399,64.846,50.231,64.661,50.151z
		 M60.366,52.049c-0.129,0.019-0.311-0.055-0.348-0.116c-0.02-0.031-0.03-0.056-0.034-0.064c0.565-0.361,1.942-1.18,3.128-1.709
		c0.062-0.025,0.062-0.064,0.201,0.016l0.92,0.494C62.885,51.597,61.223,51.896,60.366,52.049z"/>
	<path d="M54.167,42.657c-0.061-0.266-0.226-0.604-0.485-0.684c-0.032-0.011-0.097-0.021-0.13-0.021
		c-0.286,0-0.51,0.276-0.617,0.442c-0.301,0.465-0.645,0.674-0.879,0.769c-0.215,0.088-0.368,0.246-0.424,0.437
		c-0.049,0.172-0.014,0.352,0.101,0.506c0.284,0.383,0.937,1.026,2.117,1.026c0.003,0,0.067,0,0.071,0
		c0.195-0.006,0.377-0.098,0.496-0.25c0.123-0.159,0.168-0.366,0.123-0.569L54.167,42.657z M53.849,44.476
		c-0.8,0-1.272-0.367-1.541-0.701c0.323-0.131,0.787-0.414,1.179-1.021c0.006-0.008,0.012-0.017,0.018-0.022
		c0.008,0.021,0.014,0.045,0.021,0.069l0.38,1.675H53.849z"/>
	<path d="M68.926,13.263c0.029,0.118,0.121,0.21,0.238,0.241c0.026,0.007,0.055,0.01,0.082,0.01c0.09,0,0.18-0.038,0.242-0.107
		c0.159-0.175,0.52-0.22,0.631-0.222c0.114-0.001,0.221-0.062,0.28-0.162c0.058-0.099,0.062-0.222,0.006-0.323
		c-0.479-0.887-1.7-1.29-1.753-1.306c-0.132-0.043-0.277,0.002-0.361,0.113c-0.086,0.11-0.092,0.261-0.017,0.378
		C68.279,11.892,68.784,12.684,68.926,13.263z"/>
	<path d="M76.561,20.485c-0.007,0.149,0.087,0.284,0.229,0.329c0.246,0.078,0.604,0.309,0.721,0.392
		c0.058,0.04,0.125,0.06,0.191,0.06c0.059,0,0.12-0.017,0.174-0.05c0.112-0.071,0.172-0.202,0.149-0.333
		c-0.239-1.46-1.045-1.992-1.079-2.014c-0.113-0.073-0.262-0.069-0.371,0.011s-0.158,0.219-0.125,0.35
		C76.452,19.236,76.592,19.784,76.561,20.485z"/>
	<path d="M70.127,48.659c-0.059-0.09-0.156-0.145-0.264-0.148c-0.115,0.002-0.209,0.043-0.273,0.129
		c-0.241,0.316-0.918,0.797-1.158,0.955c-0.112,0.074-0.168,0.209-0.141,0.342c0.026,0.131,0.133,0.234,0.267,0.258
		c0,0,0.168,0.029,0.421,0.029c0.454,0,1.1-0.094,1.604-0.535c0.07-0.062,0.111-0.151,0.111-0.246
		c0.001-0.094-0.039-0.184-0.107-0.248C70.583,49.194,70.327,48.959,70.127,48.659z"/>
	<path d="M58.987,51.87c-0.025-0.092-0.088-0.168-0.173-0.209c-0.085-0.039-0.185-0.043-0.271-0.006
		c-0.367,0.152-1.135,0.27-1.4,0.301c-0.137,0.016-0.25,0.117-0.281,0.252c-0.031,0.137,0.025,0.277,0.143,0.352
		c0.027,0.019,0.632,0.398,1.643,0.398c0.128,0,0.264-0.008,0.404-0.02c0.13-0.015,0.236-0.105,0.275-0.23
		c0.041-0.125,0-0.264-0.097-0.352C59.229,52.354,59.086,52.226,58.987,51.87z"/>
</g>
<rect x="3.896" y="60.622" fill="none" width="83.217" height="17.482"/>
<text transform="matrix(1 0 0 1 1.2422 69.5264)" font-family="'Montserrat-UltraLight'" font-size="13">CRUSTACEAN</text>
</svg>
