<?xml version="1.0" encoding="utf-8"?>
<!-- Generator: Adobe Illustrator 19.2.1, SVG Export Plug-In . SVG Version: 6.00 Build 0)  -->
<svg version="1.1" id="Layer_1" xmlns="http://www.w3.org/2000/svg" xmlns:xlink="http://www.w3.org/1999/xlink" x="0px" y="0px"
	 viewBox="0 0 80.7 145.9" style="enable-background:new 0 0 80.7 145.9;" xml:space="preserve">
<style type="text/css">
	.st0{fill:#010101;}
</style>
<g>
	<g>
		<g>
			<path class="st0" d="M28.1,129.9h-9.8v9.5h11.2v0.8h-12v-20.4h12v0.8H18.3v8.6h9.8V129.9z"/>
			<path class="st0" d="M45.4,137.5c-0.4,0.7-1.3,1.4-2.5,2.1c-1.2,0.6-2.7,1-4.5,1c-2.3,0-4.2-0.8-5.7-2.5
				c-1.5-1.7-2.2-3.8-2.2-6.5v-3.3c0-2.6,0.7-4.6,2.1-6.3c1.4-1.6,3.2-2.4,5.5-2.4c2.2,0,3.9,0.6,5.2,1.7c1.3,1.1,1.9,2.6,1.9,4.3
				l0,0.1h-0.6c0-1.6-0.6-2.8-1.7-3.8c-1.1-1-2.7-1.5-4.7-1.5c-2.1,0-3.7,0.7-5,2.2c-1.3,1.5-1.9,3.4-1.9,5.7v3.4
				c0,2.4,0.6,4.4,1.9,5.9c1.3,1.5,3,2.3,5.2,2.3c1.6,0,3-0.3,4-0.8c1.1-0.5,1.8-1.1,2.2-1.8v-5.8h-6.2v-0.8h7V137.5z"/>
			<path class="st0" d="M63.2,137.5c-0.4,0.7-1.3,1.4-2.5,2.1c-1.2,0.6-2.7,1-4.5,1c-2.3,0-4.2-0.8-5.7-2.5
				c-1.5-1.7-2.2-3.8-2.2-6.5v-3.3c0-2.6,0.7-4.6,2.1-6.3c1.4-1.6,3.2-2.4,5.5-2.4c2.2,0,3.9,0.6,5.2,1.7c1.3,1.1,1.9,2.6,1.9,4.3
				l0,0.1h-0.6c0-1.6-0.6-2.8-1.7-3.8c-1.1-1-2.7-1.5-4.7-1.5c-2.1,0-3.7,0.7-5,2.2c-1.3,1.5-1.9,3.4-1.9,5.7v3.4
				c0,2.4,0.6,4.4,1.9,5.9c1.3,1.5,3,2.3,5.2,2.3c1.6,0,3-0.3,4-0.8c1.1-0.5,1.8-1.1,2.2-1.8v-5.8h-6.2v-0.8h7V137.5z"/>
		</g>
	</g>
</g>
<path class="st0" d="M40.2,3.5c-15,0-27.2,15.5-32.8,34.1c-0.1,0.1-0.1,0.1-0.2,0.2c-0.1,0.1,0,0.3,0,0.4c-2,6.8-3.1,14-3.1,21
	c0,25.4,14.5,42.5,36,42.5c21.5,0,36-17.1,36-42.5C76.2,32.9,60.8,3.5,40.2,3.5z M71.9,38.6l-7.5,3.7l-7.8-3.9
	c-0.2-0.1-0.4-0.1-0.6,0l-7.8,3.9l-7.8-3.9c-0.2-0.1-0.4-0.1-0.6,0l-7.8,3.9l-7.8-3.9c-0.2-0.1-0.4-0.1-0.6,0l-7.8,3.9l-3.4-1.7
	l3.3,1.3c0.1,0,0.2,0,0.2,0c0.1,0,0.2,0,0.3-0.1l7.3-4.4l7.9,3.2c0.2,0.1,0.4,0.1,0.6,0l7.3-4.4l7.9,3.2c0.2,0.1,0.4,0.1,0.6,0
	l7.3-4.4l7.9,3.2c0.2,0.1,0.4,0.1,0.6,0l6.8-4.1C70.9,35.6,71.4,37.1,71.9,38.6z M40.2,4.8c12.8,0,23.7,12.5,29.7,28.1L63.2,37
	l-7.9-3.2c-0.2-0.1-0.4-0.1-0.6,0l-7.3,4.4L39.6,35c-0.2-0.1-0.4-0.1-0.6,0l-7.3,4.4l-7.9-3.2c-0.2-0.1-0.4-0.1-0.6,0L16,40.7
	l-7.2-2.9C14.4,19.9,26.2,4.8,40.2,4.8z M40.2,100.4c-20.8,0-34.7-16.6-34.7-41.3c0-6.3,1-13,2.7-19.3l7.4,3.7
	c0.2,0.1,0.4,0.1,0.6,0l7.8-3.9l7.8,3.9c0.2,0.1,0.4,0.1,0.6,0l7.8-3.9l7.8,3.9c0.1,0,0.2,0.1,0.3,0.1s0.2,0,0.3-0.1l7.8-3.9
	l7.8,3.9c0.2,0.1,0.4,0.1,0.6,0l7.5-3.8c1.8,6.4,2.8,13,2.8,19.4C75,83.9,61,100.4,40.2,100.4z"/>
</svg>
