<svg id="Layer_1" data-name="Layer 1" xmlns="http://www.w3.org/2000/svg" viewBox="0 0 35.94 72"><defs><style>.cls-1{fill:#010101;}</style></defs><title>gmo_icon</title><path class="cls-1" d="M16.8,78.46a2.92,2.92,0,0,1-1.18,1,4.52,4.52,0,0,1-2.15.47,3.43,3.43,0,0,1-2.71-1.19,4.54,4.54,0,0,1-1-3.1V74a4.37,4.37,0,0,1,1-3,3.33,3.33,0,0,1,2.63-1.15,3.67,3.67,0,0,1,2.49.8,2.51,2.51,0,0,1,.89,2.06v0h-0.3a2.34,2.34,0,0,0-.8-1.83,3.29,3.29,0,0,0-2.27-.71A3,3,0,0,0,11,71.3a4,4,0,0,0-.9,2.72v1.61A4.23,4.23,0,0,0,11,78.46a3.08,3.08,0,0,0,2.46,1.09,4.31,4.31,0,0,0,1.93-.38,2.32,2.32,0,0,0,1-.88V75.52h-3V75.15H16.8v3.31Z" transform="translate(-4.87 -7.91)"/><path class="cls-1" d="M23,79.2h0L27.07,70h0.41v9.75H27.12V70.92h0l-3.95,8.86H22.84l-4-9.06h0v9.05H18.4V70h0.5Z" transform="translate(-4.87 -7.91)"/><path class="cls-1" d="M36,75.63a4.69,4.69,0,0,1-1,3.13,3.34,3.34,0,0,1-2.69,1.15,3.35,3.35,0,0,1-2.7-1.15,4.68,4.68,0,0,1-1-3.13V74.17a4.7,4.7,0,0,1,1-3.13,3.33,3.33,0,0,1,2.69-1.16A3.35,3.35,0,0,1,35,71a4.67,4.67,0,0,1,1,3.13v1.46ZM35.6,74.15a4.38,4.38,0,0,0-.86-2.85,3,3,0,0,0-2.46-1.06,3,3,0,0,0-2.44,1.06A4.4,4.4,0,0,0,29,74.15v1.47a4.41,4.41,0,0,0,.86,2.87,3,3,0,0,0,2.45,1.06,3,3,0,0,0,2.45-1.05,4.42,4.42,0,0,0,.86-2.87V74.15Z" transform="translate(-4.87 -7.91)"/><path class="cls-1" d="M40.5,54.64L26.57,32.07V11.39a0.27,0.27,0,0,0,0,0,0.64,0.64,0,0,0,.4-0.28l1-2.13a0.29,0.29,0,0,0,.06-0.17h0v0c0-.21,0-0.85-5.23-0.85s-5.23.64-5.23,0.85v0h0a0.29,0.29,0,0,0,.06.17l1.06,2.15a0.73,0.73,0,0,0,.39.25,0.29,0.29,0,0,0,0,0V32.07L5.18,54.64C3.82,57,7.35,60.37,7.53,60.53s3.73,2.58,15.3,2.58S38,60.64,38.17,60.51,41.86,57,40.5,54.64ZM22.84,8.51a27.65,27.65,0,0,1,4.09.24A27.64,27.64,0,0,1,22.84,9a27.65,27.65,0,0,1-4.09-.24A27.66,27.66,0,0,1,22.84,8.51Zm-4.31.81a22.35,22.35,0,0,0,4.31.28,22.35,22.35,0,0,0,4.31-.28l-0.71,1.44a12.16,12.16,0,0,1-3.61.3,12.94,12.94,0,0,1-3.61-.31Zm4.31,2.34A20,20,0,0,0,26,11.49v3.33a17.85,17.85,0,0,1-3.13.2,0.3,0.3,0,1,0,0,.6A19.37,19.37,0,0,0,26,15.43v2.69a14.31,14.31,0,0,1-3.13.25,0.3,0.3,0,1,0,0,.6A15.77,15.77,0,0,0,26,18.73v2.68a11.81,11.81,0,0,1-3.13.31,0.3,0.3,0,1,0,0,.6A13.42,13.42,0,0,0,26,22v2.67a10.08,10.08,0,0,1-3.13.36,0.3,0.3,0,1,0,0,.6A11.67,11.67,0,0,0,26,25.34V28a8.8,8.8,0,0,1-3.13.41,0.3,0.3,0,1,0,0,.6A10.37,10.37,0,0,0,26,28.64V32a7,7,0,0,1-3.13.53A7,7,0,0,1,19.71,32V11.48A21,21,0,0,0,22.84,11.66ZM5.69,55l13.82-22.4a7.83,7.83,0,0,0,3.32.56,7.8,7.8,0,0,0,3.32-.56L40,54.95a1.75,1.75,0,0,1,.23.83,0.3,0.3,0,0,0,0,.12c0,1.7-7.12,3.6-17.34,3.6S5.5,57.59,5.5,55.89a0.29,0.29,0,0,0,0-.12A1.75,1.75,0,0,1,5.69,55ZM37.79,60s-3.62,2.46-15,2.46S7.92,60.07,7.91,60.07a11.13,11.13,0,0,1-2.06-2.74c2.58,1.81,10,2.76,17,2.76s14.39-1,17-2.76A11.09,11.09,0,0,1,37.79,60Z" transform="translate(-4.87 -7.91)"/></svg>