<?xml version="1.0" encoding="utf-8"?>
<!-- Generator: Adobe Illustrator 16.0.0, SVG Export Plug-In . SVG Version: 6.00 Build 0)  -->
<!DOCTYPE svg PUBLIC "-//W3C//DTD SVG 1.1//EN" "http://www.w3.org/Graphics/SVG/1.1/DTD/svg11.dtd">
<svg version="1.1" id="Layer_1" xmlns="http://www.w3.org/2000/svg" xmlns:xlink="http://www.w3.org/1999/xlink" x="0px" y="0px"
	 width="40.333px" height="104.667px" viewBox="16.833 76.333 40.333 104.667"
	 enable-background="new 16.833 76.333 40.333 104.667" xml:space="preserve">
<title>milk_icon</title>
<path d="M49.963,95.353L49.963,95.353l-6.83-6.111v-4.261c0.008-0.456-0.355-0.832-0.812-0.839c-0.01,0-0.018,0-0.026,0h-0.12
	L29.552,85.26c-0.479,0.078-0.833,0.488-0.839,0.972v2.09c-0.965,0.361-1.818,0.967-2.477,1.758l0,0l0,0l0,0
	c-0.333,0.461-0.462,1.038-0.359,1.598l0,0l0.226,0.759l-3.781,2.796h-0.08l0,0c-0.334,0.264-0.531,0.666-0.533,1.092v56.164
	c0.018,0.772,0.573,1.427,1.332,1.571l10.772,1.984c0.291,0.046,0.584,0.073,0.879,0.079h0.16h0.12c0.306,0.024,0.613,0.024,0.919,0
	l13.315-2.036c0.757-0.128,1.316-0.777,1.331-1.545V96.432C50.531,96.001,50.317,95.599,49.963,95.353z M47.94,94.635l-8.215-2.397
	l3.009-2.303L47.94,94.635z M46.249,95.007h-10.2l2.795-2.144L46.249,95.007z M29.631,86.072L42.28,84.98v3.995l-7.656,0.386
	l-0.493-1.092c0-0.12-0.187-0.426-1.544-0.879l0,0c-0.128-0.016-0.258-0.016-0.386,0c-0.918,0.068-1.818,0.288-2.664,0.652v-1.824
	C29.543,86.158,29.578,86.103,29.631,86.072z M33.732,89.401l0.666,1.504c-0.834,0.964-1.923,1.675-3.143,2.051
	c-1.129,0.57-2.383,0.85-3.648,0.812l-0.679-1.544l0,0c1.236-0.119,2.445-0.434,3.582-0.932
	C31.688,90.857,32.778,90.216,33.732,89.401z M29.472,88.882c0.842-0.388,1.741-0.635,2.664-0.733
	c-0.716,0.572-1.521,1.021-2.384,1.332c-0.842,0.387-1.742,0.635-2.663,0.732C27.805,89.642,28.61,89.193,29.472,88.882z
	 M30.071,90.294c0.758-0.308,1.481-0.696,2.157-1.159c0.289-0.182,0.542-0.417,0.746-0.692l0.373,0.16
	c-0.852,0.93-1.93,1.623-3.129,2.01c-1.114,0.577-2.354,0.865-3.608,0.839c0.023-0.117,0.054-0.233,0.094-0.346
	c0.119,0.013,0.24,0.013,0.359,0c1.042-0.088,2.061-0.358,3.009-0.799L30.071,90.294L30.071,90.294z M34.398,155.286h-0.492
	l-10.772-1.984c-0.358-0.082-0.619-0.392-0.639-0.759V96.432c0-0.316,0.256-0.573,0.573-0.573l0,0h11.331V155.286z M34.665,95.007
	H24.012l2.397-1.798l0.413,0.945c0.238,0.384,0.687,0.585,1.132,0.506c1.236-0.119,2.445-0.434,3.582-0.932
	c0.942-0.378,1.835-0.865,2.664-1.452c0.839-0.625,1.158-1.158,0.958-1.625l-0.187-0.439l6.418-0.319L34.665,95.007z M49.618,152.49
	c-0.013,0.359-0.272,0.663-0.626,0.731l-13.262,2.037h-0.506V95.833h13.821h0.106h0.134c0.203,0.093,0.333,0.296,0.333,0.519V152.49
	L49.618,152.49z"/>
<rect y="209.5" fill="none" width="72" height="31.666"/>
<text transform="matrix(1 0 0 1 21 176.4268)" font-family="'Montserrat-UltraLight'" font-size="13">MILK</text>
</svg>
