<svg id="Layer_1" data-name="Layer 1" xmlns="http://www.w3.org/2000/svg" viewBox="0 0 55.16 72"><defs><style>.cls-1{fill:#010101;}</style></defs><title>mustard_icon</title><path class="cls-1" d="M13.72,77.09h0l4.13-9.3H18.3v9.88H17.93v-9h0l-4,9H13.59L9.5,68.49h0v9.18H9.09V67.79H9.6Z" transform="translate(-9.09 -5.81)"/><path class="cls-1" d="M26.55,67.79v6.56a3.39,3.39,0,0,1-.94,2.55,3.34,3.34,0,0,1-2.43.92,3.34,3.34,0,0,1-2.44-.92,3.38,3.38,0,0,1-.94-2.54V67.79h0.37v6.56A3,3,0,0,0,21,76.6a3.18,3.18,0,0,0,4.32,0,3,3,0,0,0,.85-2.25V67.79h0.37Z" transform="translate(-9.09 -5.81)"/><path class="cls-1" d="M33.89,75.34A1.63,1.63,0,0,0,33.2,74a8.79,8.79,0,0,0-2.37-1.07,8.7,8.7,0,0,1-2.46-1.08,2,2,0,0,1-.79-1.69,2.15,2.15,0,0,1,.93-1.8,3.84,3.84,0,0,1,2.35-.69,3.56,3.56,0,0,1,2.38.76,2.56,2.56,0,0,1,.87,2.12v0H33.78A2.35,2.35,0,0,0,33,68.74,3.05,3.05,0,0,0,30.85,68a3.31,3.31,0,0,0-2.13.63,1.85,1.85,0,0,0-.79,1.48,1.73,1.73,0,0,0,.63,1.39,7,7,0,0,0,2.37,1,9.6,9.6,0,0,1,2.5,1.1,1.91,1.91,0,0,1,.82,1.68,2.1,2.1,0,0,1-1,1.81,4.08,4.08,0,0,1-2.4.68,4.59,4.59,0,0,1-2.56-.7,2.35,2.35,0,0,1-1-2.19v0h0.31a2.12,2.12,0,0,0,1,2,4.29,4.29,0,0,0,2.29.61,3.62,3.62,0,0,0,2.15-.6A1.79,1.79,0,0,0,33.89,75.34Z" transform="translate(-9.09 -5.81)"/><path class="cls-1" d="M41.81,68.15H38.35v9.52H38V68.15H34.27V67.79h7.53v0.37Z" transform="translate(-9.09 -5.81)"/><path class="cls-1" d="M47.11,74.72H42.28l-1.11,3h-0.4l3.69-9.88h0.45l3.7,9.88h-0.4Zm-4.69-.37H47L44.9,68.82l-0.19-.58h0l-0.18.58Z" transform="translate(-9.09 -5.81)"/><path class="cls-1" d="M49.43,73v4.64H49.06V67.79h3.22a3.76,3.76,0,0,1,2.4.68,2.38,2.38,0,0,1,.84,2A2.41,2.41,0,0,1,55,72a2.45,2.45,0,0,1-1.46.89,2.34,2.34,0,0,1,1.53.78,2.42,2.42,0,0,1,.46,1.53v0.93a2.82,2.82,0,0,0,.11.83,1.28,1.28,0,0,0,.37.6v0.17H55.64A1.8,1.8,0,0,1,55.28,77a3.24,3.24,0,0,1-.12-0.92v-0.9a1.91,1.91,0,0,0-.69-1.57,3,3,0,0,0-2-.56H49.43Zm0-.37h2.78A3.29,3.29,0,0,0,54.44,72a2.23,2.23,0,0,0,0-3.28,3.36,3.36,0,0,0-2.15-.59H49.43v4.51Z" transform="translate(-9.09 -5.81)"/><path class="cls-1" d="M57.24,77.67V67.79h2.94A3.88,3.88,0,0,1,63.07,69a4.29,4.29,0,0,1,1.19,3.12v1.21a4.29,4.29,0,0,1-1.19,3.12,3.89,3.89,0,0,1-2.89,1.22H57.24Zm0.37-9.52V77.3h2.57a3.51,3.51,0,0,0,2.63-1.13,3.93,3.93,0,0,0,1.09-2.84V72.11a3.9,3.9,0,0,0-1.09-2.82,3.52,3.52,0,0,0-2.63-1.13H57.61Z" transform="translate(-9.09 -5.81)"/><path class="cls-1" d="M44.88,23.1c0-.54-0.91-1-1.75-1.39V20.92a0.89,0.89,0,0,0,.64-0.71v-3.9h0c0-.27-0.17-0.65-3.28-0.88L38.06,6.3c0-.32-0.51-0.48-1.38-0.48S35.34,6,35.29,6.3l-2.42,9.14c-3.12.23-3.28,0.61-3.28,0.88h0v3.9h0a0.9,0.9,0,0,0,.64.7v0.79c-0.84.35-1.75,0.85-1.75,1.35-0.17,1.12-4.06,27.53-4.06,29.43a10.75,10.75,0,0,0,3.49,7.61c1.26,1.21,4.29,1.85,8.76,1.85s7.5-.64,8.76-1.85a10.76,10.76,0,0,0,3.49-7.61C48.93,50.59,45,24.18,44.88,23.1Zm-8.2-6.5c3.29,0,3.81-.27,3.89-0.55a15.8,15.8,0,0,1,2.18.28,33.17,33.17,0,0,1-6.07.41,33.17,33.17,0,0,1-6.07-.41,15.84,15.84,0,0,1,2.18-.28C32.87,16.34,33.39,16.61,36.68,16.61ZM35.87,6.51a3.72,3.72,0,0,1,1.62,0l2.45,9.27a13.49,13.49,0,0,1-3.26.21,13.48,13.48,0,0,1-3.26-.21ZM30.2,20.21V16.81a26.83,26.83,0,0,0,6.48.55,26.82,26.82,0,0,0,6.48-.55v3.37c-0.2.33-2.5,0.92-6.48,0.92s-6.31-.6-6.48-0.9h0Zm6.48,1.51a26.58,26.58,0,0,0,5.84-.58v0.95c-0.32.3-2.52,0.71-5.84,0.71s-5.52-.41-5.84-0.71V21.14A26.58,26.58,0,0,0,36.68,21.72ZM45,59.66c-0.65.63-2.61,1.68-8.34,1.68S29,60.28,28.34,59.66A10.15,10.15,0,0,1,25,52.49c0-1.85,4-29.07,4-29.36a2.84,2.84,0,0,1,1.21-.78c0.58,1,5.38,1.06,6.39,1.06s5.81-.05,6.39-1.06a2.57,2.57,0,0,1,1.21.8c0,0.27,4,27.49,4,29.34A10.15,10.15,0,0,1,45,59.66Z" transform="translate(-9.09 -5.81)"/></svg>