<svg id="Layer_1" data-name="Layer 1" xmlns="http://www.w3.org/2000/svg" viewBox="0 0 85.75 72"><defs><style>.cls-1{fill:#010101;}</style></defs><title>Preservative_icon</title><path class="cls-1" d="M51.83,10.71c-8.74,0-17.78,1.89-17.78,5v39c0,3.16,9,5,17.78,5s17.78-1.89,17.78-5v-39C69.61,12.59,60.57,10.71,51.83,10.71ZM34.71,23.59c2.23,2.3,9.78,3.63,17.12,3.63S66.72,25.89,69,23.59v0.1h0c0,2.12-6.88,4.38-17.12,4.38S34.71,25.82,34.71,23.7V23.59ZM69,22.18h0c0,2.12-6.88,4.38-17.12,4.38S34.71,24.3,34.71,22.18v-5c2.23,2.3,9.78,3.63,17.12,3.63S66.72,19.46,69,17.16v5Zm-17.12-2c-9.31,0-15.84-1.87-17-3.8,1.11-1.93,7.64-3.8,17-3.8s15.84,1.87,17,3.8C67.67,18.26,61.14,20.13,51.83,20.13Zm-17.12,5c2.23,2.3,9.78,3.63,17.12,3.63S66.72,27.41,69,25.11v9.37h0c0,2.12-6.88,4.38-17.12,4.38S34.71,36.6,34.71,34.48V25.11Zm0,10.78c2.23,2.3,9.78,3.63,17.12,3.63S66.72,38.19,69,35.9V36h0c0,2.12-6.88,4.38-17.12,4.38S34.71,38.12,34.71,36V35.9Zm0,1.52C36.94,39.71,44.49,41,51.83,41S66.72,39.71,69,37.42v9.37h0c0,2.12-6.88,4.38-17.12,4.38s-17.12-2.27-17.12-4.38V37.42Zm0,10.79c2.23,2.29,9.78,3.63,17.12,3.63S66.72,50.5,69,48.2v0.1h0c0,2.11-6.88,4.38-17.12,4.38s-17.12-2.27-17.12-4.38V48.2ZM51.83,11.36c9.76,0,16.46,2.06,17.07,4.08-2.29-2.27-9.78-3.58-17.07-3.58S37,13.18,34.76,15.44C35.37,13.42,42.07,11.36,51.83,11.36Zm0,47.76c-10.24,0-17.12-2.26-17.12-4.38v-5c2.23,2.29,9.78,3.62,17.12,3.62S66.72,52,69,49.72v5C69,56.86,62.07,59.12,51.83,59.12Z" transform="translate(-8.94 -10.71)"/><path class="cls-1" d="M48.2,14.8c-1.61,0-2.83.62-2.83,1.44s1.22,1.44,2.83,1.44S51,17.06,51,16.24,49.81,14.8,48.2,14.8Zm0,2.21C46.9,17,46,16.55,46,16.24s0.86-.78,2.17-0.78,2.17,0.47,2.17.78S49.5,17,48.2,17Z" transform="translate(-8.94 -10.71)"/><path class="cls-1" d="M48.18,13.94h0l-5.27.3c-2.34,0-4.1.86-4.1,2s1.76,2,4.08,2h0l5.29,0.3h0c2.72,0,4.77-1,4.77-2.3S50.92,13.94,48.18,13.94Zm0,3.93-5.3-.3c-2,0-3.44-.71-3.44-1.34s1.47-1.34,3.46-1.34l5.27-.29c2.42,0,4.11.86,4.11,1.64S50.63,17.87,48.21,17.88Z" transform="translate(-8.94 -10.71)"/><path class="cls-1" d="M40.34,16.24c0,0.67.94,1,1.88,1s1.88-.35,1.88-1C44.09,14.91,40.34,14.91,40.34,16.24Zm1.88,0.36A1.62,1.62,0,0,1,41,16.24a1.57,1.57,0,0,1,1.22-.36,1.61,1.61,0,0,1,1.22.35A1.58,1.58,0,0,1,42.22,16.59Z" transform="translate(-8.94 -10.71)"/><path class="cls-1" d="M9.34,78v4.58H8.94V71.88h3.34a3.61,3.61,0,0,1,2.55.83,3.2,3.2,0,0,1,0,4.43,3.62,3.62,0,0,1-2.55.83H9.34Zm0-.4h2.94a3.13,3.13,0,0,0,2.28-.76,2.54,2.54,0,0,0,.77-1.88A2.57,2.57,0,0,0,14.56,73a3.14,3.14,0,0,0-2.29-.75H9.34v5.3Z" transform="translate(-8.94 -10.71)"/><path class="cls-1" d="M17.12,77.54v5h-0.4V71.88H20.2a4.05,4.05,0,0,1,2.59.73,2.57,2.57,0,0,1,.91,2.13,2.6,2.6,0,0,1-.57,1.64,2.65,2.65,0,0,1-1.57,1,2.53,2.53,0,0,1,1.65.84,2.62,2.62,0,0,1,.5,1.65v1a3.09,3.09,0,0,0,.12.9,1.38,1.38,0,0,0,.4.64v0.18H23.83a2,2,0,0,1-.4-0.74,3.49,3.49,0,0,1-.13-1v-1a2.07,2.07,0,0,0-.74-1.69,3.28,3.28,0,0,0-2.12-.61H17.12Zm0-.4h3a3.55,3.55,0,0,0,2.41-.69,2.41,2.41,0,0,0,0-3.54,3.63,3.63,0,0,0-2.33-.63H17.12v4.87Z" transform="translate(-8.94 -10.71)"/><path class="cls-1" d="M31.08,77.18H26v5h5.88v0.4H25.56V71.88h6.28v0.4H26v4.52h5.13v0.4Z" transform="translate(-8.94 -10.71)"/><path class="cls-1" d="M38.94,80a1.76,1.76,0,0,0-.75-1.48,9.51,9.51,0,0,0-2.56-1.16A9.41,9.41,0,0,1,33,76.24a2.11,2.11,0,0,1-.85-1.83,2.31,2.31,0,0,1,1-1.95,4.14,4.14,0,0,1,2.54-.74,3.85,3.85,0,0,1,2.57.82,2.76,2.76,0,0,1,.94,2.29v0H38.81a2.54,2.54,0,0,0-.88-2,3.3,3.3,0,0,0-2.28-.78,3.58,3.58,0,0,0-2.29.68,2,2,0,0,0-.85,1.6,1.86,1.86,0,0,0,.69,1.5A7.54,7.54,0,0,0,35.75,77a10.4,10.4,0,0,1,2.71,1.19A2.06,2.06,0,0,1,39.34,80a2.27,2.27,0,0,1-1,1.95,4.4,4.4,0,0,1-2.59.73A5,5,0,0,1,32.94,82a2.54,2.54,0,0,1-1.12-2.37v0h0.33a2.28,2.28,0,0,0,1.07,2.11,4.63,4.63,0,0,0,2.47.66A3.91,3.91,0,0,0,38,81.66,1.93,1.93,0,0,0,38.94,80Z" transform="translate(-8.94 -10.71)"/><path class="cls-1" d="M45.93,77.18H40.79v5h5.88v0.4H40.4V71.88h6.28v0.4H40.79v4.52h5.13v0.4Z" transform="translate(-8.94 -10.71)"/><path class="cls-1" d="M47.83,77.54v5h-0.4V71.88h3.48a4.05,4.05,0,0,1,2.59.73,2.57,2.57,0,0,1,.91,2.13,2.6,2.6,0,0,1-.57,1.64,2.65,2.65,0,0,1-1.57,1,2.53,2.53,0,0,1,1.65.84,2.62,2.62,0,0,1,.5,1.65v1a3.09,3.09,0,0,0,.12.9,1.38,1.38,0,0,0,.4.64v0.18H54.55a2,2,0,0,1-.4-0.74,3.49,3.49,0,0,1-.13-1v-1a2.07,2.07,0,0,0-.74-1.69,3.27,3.27,0,0,0-2.12-.61H47.83Zm0-.4h3a3.55,3.55,0,0,0,2.41-.69,2.41,2.41,0,0,0,0-3.54,3.63,3.63,0,0,0-2.33-.63H47.83v4.87Z" transform="translate(-8.94 -10.71)"/><path class="cls-1" d="M58.94,81.51l0.19,0.58h0l0.19-.58L63,71.88h0.43l-4,10.67H58.91l-4-10.67h0.43Z" transform="translate(-8.94 -10.71)"/><path class="cls-1" d="M69,79.36H63.76l-1.19,3.19H62.13l4-10.67H66.6l4,10.67H70.17ZM63.91,79h4.92l-2.24-6-0.2-.62h0l-0.2.62Z" transform="translate(-8.94 -10.71)"/><path class="cls-1" d="M77.26,72.27H73.52V82.55h-0.4V72.27h-4v-0.4h8.14v0.4Z" transform="translate(-8.94 -10.71)"/><path class="cls-1" d="M78.63,82.55h-0.4V71.88h0.4V82.55Z" transform="translate(-8.94 -10.71)"/><path class="cls-1" d="M83.46,81.51l0.19,0.58h0l0.19-.58,3.59-9.63h0.43l-4,10.67H83.43l-4-10.67h0.43Z" transform="translate(-8.94 -10.71)"/><path class="cls-1" d="M93.95,77.18H88.82v5H94.7v0.4H88.42V71.88H94.7v0.4H88.82v4.52h5.13v0.4Z" transform="translate(-8.94 -10.71)"/></svg>