<?xml version="1.0" encoding="utf-8"?>
<!-- Generator: Adobe Illustrator 16.0.0, SVG Export Plug-In . SVG Version: 6.00 Build 0)  -->
<!DOCTYPE svg PUBLIC "-//W3C//DTD SVG 1.1//EN" "http://www.w3.org/Graphics/SVG/1.1/DTD/svg11.dtd">
<svg version="1.1" id="Layer_1" xmlns="http://www.w3.org/2000/svg" xmlns:xlink="http://www.w3.org/1999/xlink" x="0px" y="0px"
	 width="77px" height="68.5px" viewBox="-3 105.5 77 68.5" enable-background="new -3 105.5 77 68.5" xml:space="preserve">
<title>soya_icon</title>
<path d="M33.468,131.091c-2.101,0.021-4.147,0.668-5.877,1.861c-1.469,0.937-2.371,2.548-2.399,4.29
	c0.088,3.183,3.722,5.681,8.267,5.681h0.343c2.101-0.021,4.147-0.668,5.876-1.86c1.469-0.938,2.369-2.549,2.4-4.291
	C41.988,133.5,38.17,130.963,33.468,131.091z M39.286,140.523c-1.624,1.115-3.544,1.72-5.515,1.733
	c-4.339,0.138-7.835-2.135-7.924-5.024c0.021-1.545,0.826-2.973,2.135-3.791c1.621-1.114,3.538-1.717,5.505-1.733h0.323
	c4.182,0,7.512,2.213,7.59,5.034c-0.024,1.539-0.823,2.96-2.125,3.781H39.286z"/>
<path d="M15.583,129.27c-0.343,0-0.695-0.049-1.038-0.049c-3.918,0-7.179,2.281-7.473,5.299c-0.111,1.734,0.617,3.418,1.959,4.524
	c1.507,1.321,3.399,2.121,5.396,2.282c0.343,0,0.696,0.049,1.039,0.049c3.917,0,7.179-2.282,7.483-5.299
	c0.113-1.736-0.616-3.419-1.959-4.525C19.48,130.229,17.584,129.43,15.583,129.27z M22.244,136.008
	c-0.265,2.674-3.193,4.691-6.856,4.691c-0.323,0-0.646,0-0.979,0c-1.851-0.147-3.605-0.885-5.005-2.106
	c-1.172-0.973-1.809-2.446-1.714-3.967c0.264-2.674,3.193-4.69,6.856-4.69c0.326-0.018,0.653-0.018,0.979,0
	c1.851,0.146,3.605,0.885,5.005,2.105c1.172,0.977,1.806,2.455,1.705,3.977L22.244,136.008z"/>
<path d="M70.648,126.712c-0.275-0.103-0.568-0.146-0.861-0.127c-1.383,0-4.398,0.254-7.895,0.539
	c-2.939,0.245-6.23,0.519-8.816,0.666c5.438-3.095,10.617-7.679,13.557-12.332c0.034-0.056,0.051-0.121,0.049-0.187
	c0-1.076-1.959-6.347-3.047-6.543c-0.117-0.008-0.234-0.008-0.352,0c-4.373,0.354-8.674,1.313-12.782,2.852
	c-2.651,1.002-5.16,2.345-7.464,3.996c-1.172,0.852-2.426,1.586-3.741,2.193c-1.729,0.614-3.524,1.021-5.348,1.215
	c-1.929,0.205-3.826,0.639-5.652,1.293c-0.979,0.412-1.958,0.861-2.831,1.312c-1.767,0.968-3.654,1.695-5.612,2.165
	c-0.375,0.066-0.755,0.1-1.136,0.098c-0.918-0.037-1.831-0.168-2.723-0.392c-0.841-0.185-1.691-0.326-2.547-0.421
	c-0.48,0-0.979-0.068-1.449-0.068c-3.742,0-6.964,1.489-10.079,2.938l-1.597,0.745c-0.107,0.047-0.182,0.147-0.196,0.265
	c-0.468,3.16,0.37,6.374,2.321,8.903c0.884,1.121,1.996,2.042,3.262,2.703v0.068c0.842,1.918,2.436,3.406,4.407,4.114
	c2.101,0.666,4.303,0.954,6.504,0.853c1.136,0,2.243,0,3.222-0.078h0.833c2.165,0.041,4.316,0.351,6.406,0.92
	c1.51,0.359,3.041,0.625,4.584,0.793c0.637,0.06,1.283,0.089,1.959,0.089c2.176-0.052,4.341-0.341,6.455-0.862
	c0.715-0.146,1.42-0.294,2.125-0.421c-0.41,0.812-0.547,1.729-0.394,2.625c0.479,2.576,3.469,4.31,7.426,4.31
	c0.854-0.002,1.707-0.084,2.547-0.244c2.197-0.368,4.249-1.344,5.925-2.812c1.394-1.098,2.11-2.844,1.892-4.604
	c-0.125-0.651-0.406-1.265-0.822-1.782c4.804-1.615,9.238-4.169,13.048-7.513c0.048-0.045,0.082-0.104,0.098-0.168
	C72.195,132.775,71.695,127.202,70.648,126.712z M2.958,135.4c-1.796-2.338-2.589-5.295-2.204-8.219l1.479-0.676
	c3.193-1.479,6.209-2.87,9.794-2.87c0.46,0,0.92,0,1.381,0.068c0.836,0.094,1.667,0.231,2.488,0.412
	c0.932,0.223,1.883,0.351,2.84,0.382c0.417,0,0.833-0.036,1.244-0.107c2.027-0.477,3.981-1.225,5.808-2.224
	c0.911-0.44,1.851-0.901,2.801-1.304c1.773-0.629,3.614-1.047,5.485-1.243c1.878-0.198,3.726-0.619,5.505-1.253
	c1.338-0.621,2.614-1.369,3.812-2.233c2.262-1.618,4.726-2.935,7.325-3.917c4.022-1.511,8.234-2.457,12.519-2.811h0.226
	c0.606,0.254,2.41,4.447,2.488,5.818c-3.136,4.896-8.815,9.726-14.535,12.732c-1.454,0.169-2.896,0.441-4.312,0.812
	c-1.146,0.274-2.33,0.559-3.762,0.765c-0.587,0.086-1.179,0.128-1.771,0.127c-1.313-0.029-2.623-0.157-3.918-0.382
	c-1.332-0.229-2.675-0.367-4.024-0.412h-0.088c-1.906,0.076-3.801,0.324-5.661,0.744c-1.053,0.244-2.125,0.404-3.203,0.48h-0.137
	c-1.229-0.188-2.414-0.595-3.497-1.205c-0.783-0.361-1.596-0.744-2.498-1.076c-1.3-0.502-2.681-0.766-4.074-0.774
	c-1.603,0.058-3.192,0.315-4.731,0.764c-0.979,0.245-2.057,0.509-3.232,0.705c-0.115,0.021-0.211,0.097-0.254,0.206
	c-1.273,2.773-1.59,5.891-0.901,8.864C4.434,136.99,3.626,136.255,2.958,135.4z M52.107,138.984
	c-0.857,0.002-1.715,0.084-2.559,0.246c-2.18,0.375-4.213,1.345-5.877,2.801c-1.359,0.156-2.723,0.441-4.033,0.705
	c-1.981,0.478-4.008,0.754-6.043,0.822c-2.097-0.078-4.18-0.387-6.209-0.92c-1.195-0.265-2.439-0.549-3.683-0.725
	c-0.997-0.135-2.001-0.197-3.007-0.186c-0.725,0-1.439,0-2.165,0c-0.979,0-1.959,0.059-2.938,0
	c-3.418-0.099-6.092-1.244-7.532-3.213c-1.44-1.968-1.616-4.447-0.745-7.453c1.528-1.373,5.965-2.519,8.071-2.321
	c1.521,0.237,2.989,0.739,4.339,1.479c1.481,0.827,3.113,1.351,4.799,1.538c1.593-0.005,3.179-0.209,4.721-0.607
	c1.103-0.262,2.222-0.452,3.35-0.567c1.663-0.065,3.328,0.05,4.966,0.343c1.355,0.229,2.729,0.358,4.104,0.393
	c1.916-0.051,3.818-0.324,5.672-0.813c1.037-0.245,2.105-0.5,3.163-0.666c2.247-0.315,4.511-0.516,6.778-0.597
	c1.185-0.059,2.419-0.127,3.613-0.227l2.381-0.215c2.115-0.205,4.309-0.41,6.453-0.421c0.275,0.806,0.426,1.647,0.439,2.498v0.187
	c0.195,1.752,0.167,2.008-1.154,3.045c-3.541,2.729-7.541,4.803-11.812,6.123c-1.561-0.861-3.321-1.287-5.104-1.234L52.107,138.984z
	 M57.132,147.418c-1.569,1.387-3.491,2.312-5.554,2.674c-0.801,0.15-1.614,0.227-2.43,0.227c-3.564,0-6.348-1.549-6.77-3.762
	c-0.168-1.531,0.471-3.041,1.688-3.986c1.582-1.383,3.519-2.299,5.592-2.646c0.801-0.149,1.613-0.225,2.43-0.225
	c3.564,0,6.348,1.547,6.758,3.761C58.999,144.988,58.352,146.484,57.132,147.418z M71.305,133.568
	c-3.826,3.328-8.283,5.853-13.104,7.425l-0.333-0.284c4.171-1.344,8.075-3.398,11.548-6.073c1.598-1.253,1.605-1.831,1.398-3.653
	v-0.186c-0.225-2.352-0.479-3.105-0.979-3.105c-2.204,0-4.447,0.217-6.611,0.422l-2.371,0.215c-1.186,0.098-2.408,0.167-3.594,0.225
	c-2.295,0.083-4.584,0.286-6.857,0.607c-1.086,0.176-2.162,0.431-3.211,0.686c-1.813,0.506-3.683,0.799-5.562,0.872
	c-1.369-0.028-2.732-0.157-4.084-0.382c-1.687-0.302-3.401-0.42-5.113-0.354c-1.157,0.117-2.306,0.31-3.438,0.578
	c-1.488,0.385-3.018,0.586-4.555,0.598c-1.591-0.186-3.129-0.684-4.525-1.469c-1.417-0.775-2.958-1.297-4.555-1.539
	c-2.272-0.215-7.023,0.979-8.658,2.558c-0.042,0.04-0.072,0.091-0.088,0.146c-0.979,3.263-0.676,6.073,0.823,8.131
	c1.499,2.057,4.417,3.389,8.051,3.486c0.979,0,1.959,0,2.997,0c0.715,0,1.43,0,2.145,0c0.983-0.011,1.965,0.051,2.938,0.187
	c1.214,0.176,2.438,0.45,3.634,0.715c2.076,0.562,4.208,0.89,6.356,0.979c2.083-0.07,4.155-0.353,6.179-0.843
	c1.039-0.215,2.104-0.421,3.175-0.577c-0.127,0.146-0.245,0.303-0.345,0.459c-0.92,0.147-1.819,0.334-2.692,0.521
	c-2.063,0.509-4.18,0.791-6.307,0.842c-0.617,0-1.234,0-1.851-0.088c-1.498-0.181-2.983-0.456-4.447-0.823
	c-2.018-0.55-4.091-0.879-6.18-0.979h-0.392h-0.842c-0.979,0-2.076,0.078-3.203,0.078c-2.121,0.104-4.243-0.168-6.269-0.803
	c-1.828-0.638-3.3-2.018-4.055-3.8c-1.067-2.468-0.901-5.72,0.47-9.196c1.126-0.197,2.125-0.441,3.095-0.687
	c1.484-0.437,3.018-0.687,4.564-0.745c1.313,0.012,2.614,0.26,3.839,0.734c0.872,0.324,1.675,0.695,2.439,1.059
	c1.16,0.652,2.433,1.081,3.751,1.264h0.176c1.122-0.072,2.235-0.236,3.331-0.49c1.821-0.418,3.677-0.67,5.543-0.754h0.088
	c1.33,0.039,2.655,0.17,3.967,0.393c1.317,0.225,2.65,0.352,3.986,0.382c0.614,0.009,1.229-0.028,1.842-0.108
	c1.449-0.205,2.654-0.5,3.817-0.782c1.772-0.47,3.589-0.759,5.418-0.862c2.693-0.137,6.199-0.431,9.285-0.686
	c3.33-0.274,6.482-0.539,7.836-0.539c0.188-0.012,0.377-0.012,0.566,0C70.844,127.702,71.549,132.227,71.305,133.568z"/>
<rect y="159.5" fill="none" width="71.5" height="17.333"/>
<text transform="matrix(1 0 0 1 0 169.1455)" font-family="'Montserrat-UltraLight'" font-size="13">SOYBEANS</text>
</svg>
