<svg id="Layer_1" data-name="Layer 1" xmlns="http://www.w3.org/2000/svg" viewBox="0 0 73.51 72"><defs><style>.cls-1{fill:#010101;}</style></defs><title>soya_icon</title><path class="cls-1" d="M35.48,78a1.82,1.82,0,0,0-.78-1.53A9.85,9.85,0,0,0,32,75.28a9.75,9.75,0,0,1-2.76-1.21,2.19,2.19,0,0,1-.89-1.89,2.4,2.4,0,0,1,1-2,4.3,4.3,0,0,1,2.64-.77,4,4,0,0,1,2.67.85,2.87,2.87,0,0,1,1,2.38l0,0H35.35a2.64,2.64,0,0,0-.91-2.05,3.42,3.42,0,0,0-2.37-.81,3.72,3.72,0,0,0-2.38.7,2.08,2.08,0,0,0-.88,1.66,1.93,1.93,0,0,0,.71,1.55,7.83,7.83,0,0,0,2.65,1.17A10.79,10.79,0,0,1,35,76.12,2.14,2.14,0,0,1,35.9,78a2.36,2.36,0,0,1-1.09,2,4.57,4.57,0,0,1-2.69.76A5.16,5.16,0,0,1,29.26,80a2.64,2.64,0,0,1-1.16-2.45l0,0h0.34a2.37,2.37,0,0,0,1.11,2.19,4.8,4.8,0,0,0,2.56.68,4.06,4.06,0,0,0,2.4-.67A2,2,0,0,0,35.48,78Z" transform="translate(-7.67 -8.78)"/><path class="cls-1" d="M44.84,75.91a5.33,5.33,0,0,1-1.11,3.56,4.23,4.23,0,0,1-6.13,0,5.32,5.32,0,0,1-1.11-3.56V74.25a5.34,5.34,0,0,1,1.11-3.55,4.22,4.22,0,0,1,6.13,0,5.31,5.31,0,0,1,1.12,3.55v1.66Zm-0.41-1.67a5,5,0,0,0-1-3.24,3.82,3.82,0,0,0-5.57,0,5,5,0,0,0-1,3.24v1.67a5,5,0,0,0,1,3.26,3.83,3.83,0,0,0,5.57,0,5,5,0,0,0,1-3.26V74.24Z" transform="translate(-7.67 -8.78)"/><path class="cls-1" d="M48.71,75.7l0.2,0.38,0.21-.38,3.67-6.15h0.5l-4.16,6.87v4.21H48.71V76.42l-4.16-6.87h0.5Z" transform="translate(-7.67 -8.78)"/><path class="cls-1" d="M59.07,77.31H53.66l-1.24,3.31H52l4.14-11.07h0.5l4.14,11.07H60.31Zm-5.26-.41h5.1l-2.32-6.2-0.21-.65h0l-0.21.65Z" transform="translate(-7.67 -8.78)"/><path class="cls-1" d="M41.84,31.6a10.75,10.75,0,0,0-6,1.9,5.3,5.3,0,0,0-2.45,4.38c0.09,3.25,3.8,5.8,8.44,5.8h0.35a10.75,10.75,0,0,0,6-1.9,5.31,5.31,0,0,0,2.45-4.38C50.54,34.06,46.64,31.47,41.84,31.6Zm5.94,9.63A10.06,10.06,0,0,1,42.15,43c-4.43.14-8-2.18-8.09-5.13A4.64,4.64,0,0,1,36.24,34a10.07,10.07,0,0,1,5.62-1.77h0.33c4.27,0,7.67,2.26,7.75,5.14A4.65,4.65,0,0,1,47.77,41.23Z" transform="translate(-7.67 -8.78)"/><path class="cls-1" d="M23.58,29.74c-0.35,0-.71-0.05-1.06-0.05-4,0-7.33,2.33-7.63,5.41a5.53,5.53,0,0,0,2,4.62,9.52,9.52,0,0,0,5.51,2.33c0.35,0,.71.05,1.06,0.05,4,0,7.33-2.33,7.64-5.41a5.52,5.52,0,0,0-2-4.62A9.53,9.53,0,0,0,23.58,29.74Zm6.8,6.88c-0.27,2.73-3.26,4.79-7,4.79-0.33,0-.66,0-1,0a8.84,8.84,0,0,1-5.11-2.15,4.87,4.87,0,0,1-1.75-4.05c0.27-2.73,3.26-4.79,7-4.79a9.89,9.89,0,0,1,1,0,8.84,8.84,0,0,1,5.11,2.15A4.86,4.86,0,0,1,30.37,36.63Z" transform="translate(-7.67 -8.78)"/><path class="cls-1" d="M79.8,27.13A2.16,2.16,0,0,0,78.92,27c-1.41,0-4.49.26-8.06,0.55-3,.25-6.36.53-9,0.68,5.55-3.16,10.84-7.84,13.84-12.59a0.34,0.34,0,0,0,.05-0.19c0-1.1-2-6.48-3.11-6.68a2.33,2.33,0,0,0-.36,0,48.37,48.37,0,0,0-13.05,2.91,33.28,33.28,0,0,0-7.62,4.08A22.72,22.72,0,0,1,47.79,18a23.84,23.84,0,0,1-5.46,1.24,24.82,24.82,0,0,0-5.77,1.32c-1,.42-2,0.88-2.89,1.34a23.23,23.23,0,0,1-5.73,2.21,6.66,6.66,0,0,1-1.16.1A13.75,13.75,0,0,1,24,23.81a25.12,25.12,0,0,0-2.6-.43c-0.49,0-1-.07-1.48-0.07-3.82,0-7.11,1.52-10.29,3L8,27.07a0.34,0.34,0,0,0-.2.27,12,12,0,0,0,2.37,9.09,10.34,10.34,0,0,0,3.33,2.76l0,0.07A7.79,7.79,0,0,0,18,43.46a19.06,19.06,0,0,0,6.64.87c1.16,0,2.29,0,3.29-.08l0.85,0a26.86,26.86,0,0,1,6.54.94A38.09,38.09,0,0,0,40,46c0.65,0.06,1.31.09,2,.09a30.4,30.4,0,0,0,6.59-.88c0.73-.15,1.45-0.3,2.17-0.43a4.31,4.31,0,0,0-.4,2.68c0.49,2.63,3.54,4.4,7.58,4.4a14.19,14.19,0,0,0,2.6-.25,12.28,12.28,0,0,0,6.05-2.87,5.17,5.17,0,0,0,1.93-4.7,4.16,4.16,0,0,0-.84-1.82A39.06,39.06,0,0,0,81,34.55a0.34,0.34,0,0,0,.1-0.17C81.38,33.32,80.87,27.63,79.8,27.13ZM10.69,36a11.34,11.34,0,0,1-2.25-8.39l1.51-.69c3.26-1.51,6.34-2.93,10-2.93,0.47,0,.94,0,1.41.07a24.6,24.6,0,0,1,2.54.42,14.46,14.46,0,0,0,2.9.39,7.34,7.34,0,0,0,1.27-.11A23.62,23.62,0,0,0,34,22.49c0.93-.45,1.89-0.92,2.86-1.33a24.4,24.4,0,0,1,5.6-1.27,24.27,24.27,0,0,0,5.62-1.28,23.49,23.49,0,0,0,3.89-2.28,32.71,32.71,0,0,1,7.48-4A47.52,47.52,0,0,1,72.23,9.46h0.23C73.08,9.72,74.92,14,75,15.4c-3.2,5-9,9.93-14.84,13a31.82,31.82,0,0,0-4.4.83c-1.17.28-2.38,0.57-3.84,0.78a12.41,12.41,0,0,1-1.81.13,26.94,26.94,0,0,1-4-.39A30.1,30.1,0,0,0,42,29.33H41.91a32.07,32.07,0,0,0-5.78.76,21,21,0,0,1-3.27.49H32.72a10.47,10.47,0,0,1-3.57-1.23c-0.8-.37-1.63-0.76-2.55-1.1a11.76,11.76,0,0,0-4.16-.79,19.79,19.79,0,0,0-4.83.78c-1,.25-2.1.52-3.3,0.72a0.34,0.34,0,0,0-.26.21,14.08,14.08,0,0,0-.92,9.05A9.79,9.79,0,0,1,10.69,36Zm50.18,3.66a14.11,14.11,0,0,0-2.61.25,12.28,12.28,0,0,0-6,2.86c-1.39.16-2.78,0.45-4.12,0.72a30.78,30.78,0,0,1-6.17.84,29.19,29.19,0,0,1-6.34-.94c-1.22-.27-2.49-0.56-3.76-0.74a21,21,0,0,0-3.07-.19c-0.74,0-1.47,0-2.21,0-1,0-2,.06-3,0-3.49-.1-6.22-1.27-7.69-3.28s-1.65-4.54-.76-7.61c1.56-1.4,6.09-2.57,8.24-2.37a13.6,13.6,0,0,1,4.43,1.51,13,13,0,0,0,4.9,1.57,19.51,19.51,0,0,0,4.82-.62,26.08,26.08,0,0,1,3.42-.58,23.59,23.59,0,0,1,5.07.35,29.73,29.73,0,0,0,4.19.4A25.3,25.3,0,0,0,56,31c1.06-.25,2.15-0.51,3.23-0.68a67,67,0,0,1,6.92-.61c1.21-.06,2.47-0.13,3.69-0.23l2.43-.22c2.16-.21,4.4-0.42,6.59-0.43a8.29,8.29,0,0,1,.45,2.55l0,0.19c0.2,1.79.17,2.05-1.18,3.11a38.28,38.28,0,0,1-12.06,6.25A10.16,10.16,0,0,0,60.86,39.67ZM66,48.27A11.59,11.59,0,0,1,60.33,51a13.54,13.54,0,0,1-2.48.23c-3.64,0-6.48-1.58-6.91-3.84a4.53,4.53,0,0,1,1.72-4.07,11.57,11.57,0,0,1,5.71-2.7,13.44,13.44,0,0,1,2.48-.23c3.64,0,6.48,1.58,6.9,3.84A4.52,4.52,0,0,1,66,48.27ZM80.47,34.13a38.66,38.66,0,0,1-13.38,7.58l-0.34-.29a38.82,38.82,0,0,0,11.79-6.2c1.63-1.28,1.64-1.87,1.43-3.73l0-.19c-0.23-2.4-.49-3.17-1-3.17-2.25,0-4.54.22-6.75,0.43l-2.42.22c-1.21.1-2.46,0.17-3.67,0.23a67.28,67.28,0,0,0-7,.62c-1.11.18-2.21,0.44-3.28,0.7a24.8,24.8,0,0,1-5.68.89A29.13,29.13,0,0,1,46,30.83a24.23,24.23,0,0,0-5.22-.36,26.78,26.78,0,0,0-3.51.59,19.19,19.19,0,0,1-4.65.61A12.32,12.32,0,0,1,28,30.17a14.07,14.07,0,0,0-4.65-1.57c-2.32-.22-7.17,1-8.84,2.61a0.34,0.34,0,0,0-.09.15c-1,3.33-.69,6.2.84,8.3s4.51,3.46,8.22,3.56c1,0,2,0,3.06,0,0.73,0,1.46,0,2.19,0a20.24,20.24,0,0,1,3,.19c1.24,0.18,2.49.46,3.71,0.73a29.71,29.71,0,0,0,6.49,1,31.32,31.32,0,0,0,6.31-.86c1.06-.22,2.15-0.43,3.24-0.59-0.13.15-.25,0.31-0.35,0.47-0.94.15-1.86,0.34-2.75,0.53a29.89,29.89,0,0,1-6.44.86c-0.63,0-1.26,0-1.89-.09a36.84,36.84,0,0,1-4.54-.84,29.35,29.35,0,0,0-6.31-1h-0.4l-0.86,0c-1,0-2.12.08-3.27,0.08a18.45,18.45,0,0,1-6.4-.82A7,7,0,0,1,14.13,39c-1.09-2.52-.92-5.84.48-9.39,1.15-.2,2.17-0.45,3.16-0.7a19,19,0,0,1,4.66-.76,11.08,11.08,0,0,1,3.92.75c0.89,0.33,1.71.71,2.49,1.08a10.85,10.85,0,0,0,3.83,1.29h0.18a21.21,21.21,0,0,0,3.4-.5A31.55,31.55,0,0,1,41.91,30H42a29.34,29.34,0,0,1,4.05.4,28.08,28.08,0,0,0,4.07.39A13.21,13.21,0,0,0,52,30.68c1.48-.21,2.71-0.51,3.9-0.8A27.78,27.78,0,0,1,61.43,29c2.75-.14,6.33-0.44,9.48-0.7,3.4-.28,6.62-0.55,8-0.55a4.84,4.84,0,0,1,.58,0C80,28.14,80.72,32.76,80.47,34.13Z" transform="translate(-7.67 -8.78)"/></svg>