<svg id="Layer_1" data-name="Layer 1" xmlns="http://www.w3.org/2000/svg" viewBox="0 0 110.51 107.51"><defs><style>.cls-1{fill:#010101;}</style></defs><title>transfat_icon</title><path class="cls-1" d="M93.34,88.23A27.34,27.34,0,0,1,66,60.93c0-21.2,25.86-46.12,27-47.17a0.5,0.5,0,0,1,.7,0c1.1,1.1,26.95,27.25,26.95,47.16a27.33,27.33,0,0,1-27.3,27.3h0Zm0-73.41C90.17,17.95,67,41.48,67,60.93a26.3,26.3,0,1,0,52.61,0c0-18.28-23.18-42.87-26.31-46.1h0Z" transform="translate(-38.08 -13.62)"/><path class="cls-1" d="M50.44,105.29H44.76V120.9h-0.6V105.29H38.08v-0.6H50.44v0.6Z" transform="translate(-38.08 -13.62)"/><path class="cls-1" d="M52,113.29v7.61h-0.6V104.7H56.7a6.16,6.16,0,0,1,3.94,1.11A3.91,3.91,0,0,1,62,109a4,4,0,0,1-.87,2.49A4,4,0,0,1,58.76,113a3.84,3.84,0,0,1,2.5,1.28,4,4,0,0,1,.76,2.5v1.53a4.62,4.62,0,0,0,.18,1.36,2.09,2.09,0,0,0,.61,1v0.28H62.22a3,3,0,0,1-.6-1.13,5.31,5.31,0,0,1-.2-1.51v-1.48a3.13,3.13,0,0,0-1.13-2.57,5,5,0,0,0-3.22-.92H52Zm0-.6h4.56a5.39,5.39,0,0,0,3.66-1,3.66,3.66,0,0,0,0-5.38,5.51,5.51,0,0,0-3.54-1H52v7.39Z" transform="translate(-38.08 -13.62)"/><path class="cls-1" d="M73.38,116.05H65.46l-1.81,4.84H63L69,104.69h0.74l6.07,16.21H75.19Zm-7.69-.6h7.47l-3.4-9.07-0.31-.95H69.38l-0.3.95Z" transform="translate(-38.08 -13.62)"/><path class="cls-1" d="M88.31,120.9h-0.6l-10.4-15.1-0.07,0V120.9H76.63V104.69h0.61l10.4,15.06,0.07,0v-15h0.6V120.9Z" transform="translate(-38.08 -13.62)"/><path class="cls-1" d="M100.51,117.08a2.67,2.67,0,0,0-1.14-2.24,14.46,14.46,0,0,0-3.89-1.75,14.24,14.24,0,0,1-4-1.77,3.19,3.19,0,0,1-1.3-2.77,3.52,3.52,0,0,1,1.52-3,6.3,6.3,0,0,1,3.86-1.13,5.84,5.84,0,0,1,3.9,1.25,4.2,4.2,0,0,1,1.43,3.48l0,0.07h-0.51a3.85,3.85,0,0,0-1.34-3,5,5,0,0,0-3.46-1.19,5.42,5.42,0,0,0-3.48,1,3,3,0,0,0-1.29,2.43,2.83,2.83,0,0,0,1,2.28,11.52,11.52,0,0,0,3.88,1.71,15.75,15.75,0,0,1,4.11,1.8,3.14,3.14,0,0,1,1.35,2.75,3.44,3.44,0,0,1-1.59,3,6.69,6.69,0,0,1-3.93,1.11,7.53,7.53,0,0,1-4.2-1.14,3.85,3.85,0,0,1-1.7-3.59l0-.07h0.5a3.47,3.47,0,0,0,1.63,3.2,7,7,0,0,0,3.75,1,5.93,5.93,0,0,0,3.52-1A2.93,2.93,0,0,0,100.51,117.08Z" transform="translate(-38.08 -13.62)"/><path class="cls-1" d="M114.93,112.93h-8v8h-0.6V104.69h9.71v0.6H107v7h8v0.63Z" transform="translate(-38.08 -13.62)"/><path class="cls-1" d="M125,116.05H117l-1.81,4.84h-0.66l6.06-16.21h0.73l6.07,16.21h-0.66Zm-7.69-.6h7.47l-3.39-9.07-0.31-.95H121l-0.3.95Z" transform="translate(-38.08 -13.62)"/><path class="cls-1" d="M137.55,105.29h-5.68V120.9h-0.6V105.29h-6.08v-0.6h12.36v0.6Z" transform="translate(-38.08 -13.62)"/><path class="cls-1" d="M148,117.08a2.67,2.67,0,0,0-1.14-2.24,14.46,14.46,0,0,0-3.89-1.75,14.29,14.29,0,0,1-4-1.77,3.19,3.19,0,0,1-1.3-2.77,3.52,3.52,0,0,1,1.52-3,6.3,6.3,0,0,1,3.86-1.13,5.85,5.85,0,0,1,3.9,1.25,4.2,4.2,0,0,1,1.43,3.48l0,0.07h-0.51a3.85,3.85,0,0,0-1.34-3,5,5,0,0,0-3.46-1.19,5.43,5.43,0,0,0-3.48,1,3,3,0,0,0-1.29,2.43,2.83,2.83,0,0,0,1,2.28,11.49,11.49,0,0,0,3.88,1.71,15.74,15.74,0,0,1,4.11,1.8,3.14,3.14,0,0,1,1.35,2.75,3.44,3.44,0,0,1-1.59,3,6.69,6.69,0,0,1-3.93,1.11,7.54,7.54,0,0,1-4.2-1.14,3.86,3.86,0,0,1-1.7-3.59l0-.07h0.5a3.47,3.47,0,0,0,1.63,3.2,7,7,0,0,0,3.75,1,5.93,5.93,0,0,0,3.52-1A2.93,2.93,0,0,0,148,117.08Z" transform="translate(-38.08 -13.62)"/></svg>