<?xml version="1.0" encoding="utf-8"?>
<!-- Generator: Adobe Illustrator 16.0.0, SVG Export Plug-In . SVG Version: 6.00 Build 0)  -->
<!DOCTYPE svg PUBLIC "-//W3C//DTD SVG 1.1//EN" "http://www.w3.org/Graphics/SVG/1.1/DTD/svg11.dtd">
<svg version="1.1" id="Layer_1" xmlns="http://www.w3.org/2000/svg" xmlns:xlink="http://www.w3.org/1999/xlink" x="0px" y="0px"
	 width="74.5px" height="117px" viewBox="0 82.5 74.5 117" enable-background="new 0 82.5 74.5 117" xml:space="preserve">
<title>gluten_icon</title>
<path d="M34.253,126.037c-0.102-0.221-0.359-0.319-0.582-0.225c-1.601,0.771-3.105,1.728-4.479,2.853l-0.672,0.179
	c0.619-1.281,0.95-2.683,0.97-4.105c0.066-0.584,0.228-1.155,0.478-1.688c1.259-1.051,2.597-2.004,4.001-2.852
	c0.227-0.107,0.324-0.378,0.217-0.605c-0.107-0.227-0.378-0.323-0.605-0.216l0,0c-1.456,0.884-2.838,1.883-4.136,2.986l-0.747,0.238
	c0.665-1.304,1.007-2.748,1-4.209c0.076-0.565,0.242-1.115,0.493-1.629c2.314-1.926,3.688-2.986,3.703-2.986
	c0.198-0.147,0.238-0.428,0.089-0.627c-0.148-0.197-0.429-0.237-0.627-0.088c0,0-1.403,1.06-3.748,2.985l-0.672,0.345
	c0.698-1.328,1.038-2.815,0.985-4.315c0.039-0.57,0.17-1.129,0.388-1.657c1.176-0.957,2.279-2,3.3-3.121
	c0.137-0.207,0.08-0.484-0.126-0.621c-0.176-0.115-0.41-0.094-0.561,0.055c-1.002,1.07-2.081,2.068-3.226,2.985l-1,0.538
	c0.09-0.135,0.194-0.254,0.284-0.389c0.649-1.311,0.948-2.766,0.866-4.227c0.031-0.51,0.136-1.013,0.313-1.492
	c1.176-0.949,2.243-2.025,3.181-3.211c0.118-0.217,0.037-0.488-0.18-0.606c-0.185-0.101-0.414-0.06-0.552,0.101
	c-0.912,1.137-1.943,2.172-3.076,3.09l-1.06,0.522c0.16-0.213,0.305-0.438,0.433-0.672c0.583-1.28,0.835-2.688,0.731-4.091
	c0.014-0.508,0.105-1.012,0.269-1.493c1.171-0.953,2.211-2.058,3.091-3.285c0.141-0.231,0.067-0.532-0.164-0.672
	s-0.532-0.067-0.672,0.164l0,0c-0.854,1.176-1.858,2.235-2.986,3.149c-0.194,0.104-1.06,0.612-1.583,0.926l-0.135,0.076
	c0.141-0.377,0.241-0.768,0.299-1.166c0.094-1.445-0.206-2.891-0.866-4.181c-0.232-0.688-0.393-1.399-0.478-2.12
	c-0.024-0.18-0.154-0.328-0.329-0.373c-0.173-0.043-0.355,0.021-0.463,0.164l-1.404,1.731c-0.996,1.194-1.669,2.623-1.956,4.151
	c-0.076,0.711-0.01,1.433,0.194,2.119c-0.224-0.299-0.433-0.566-0.642-0.791s-1.03-1.149-1.209-1.345
	c-1.209-2.985-1.956-4.375-2.001-4.479c-0.125-0.213-0.399-0.284-0.613-0.159c-0.2,0.116-0.278,0.368-0.178,0.577
	c0,0,0.761,1.494,1.956,4.346c0.008,0.504-0.057,1.008-0.194,1.493c-0.52,1.308-0.705,2.724-0.538,4.12
	c0.089,0.445,0.235,0.877,0.433,1.285l-1.224-0.94c-0.736-1.626-1.636-3.172-2.688-4.614c-0.167-0.182-0.451-0.193-0.633-0.025
	c-0.162,0.149-0.191,0.396-0.069,0.578c1.014,1.402,1.884,2.903,2.598,4.479c0.08,0.528,0.08,1.067,0,1.599
	c-0.419,1.406-0.471,2.896-0.149,4.329c0.092,0.288,0.207,0.567,0.343,0.837l-1.269-0.837c0.017-0.069,0.017-0.141,0-0.209
	c-0.786-1.591-1.792-3.063-2.986-4.375c-0.177-0.173-0.461-0.17-0.635,0.007c-0.173,0.178-0.169,0.461,0.008,0.635l0,0
	c1.135,1.248,2.094,2.645,2.852,4.151l0,0c-0.007,0.044-0.007,0.091,0,0.134c0.132,0.573,0.172,1.162,0.12,1.748
	c-0.304,1.489-0.216,3.032,0.254,4.479c0,0.164,0.149,0.299,0.224,0.447c-0.567-0.297-1.314-0.672-1.598-0.805
	c-0.934-1.617-2.051-3.121-3.33-4.479c-0.177-0.173-0.461-0.171-0.634,0.007c-0.173,0.178-0.17,0.461,0.007,0.635
	c1.24,1.312,2.327,2.76,3.24,4.315c0.178,0.575,0.264,1.175,0.254,1.776c-0.204,1.58,0.007,3.186,0.612,4.659l-1.493-0.583
	c-1.074-1.613-2.377-3.062-3.868-4.3c-0.169-0.181-0.453-0.188-0.633-0.021c-0.181,0.17-0.189,0.453-0.02,0.634
	c0.033,0.036,0.072,0.065,0.115,0.088c1.439,1.207,2.696,2.614,3.733,4.181c0.236,0.596,0.373,1.227,0.403,1.866
	c-0.081,1.533,0.185,3.063,0.776,4.479L12,127.872c-1.239-1.576-2.733-2.933-4.419-4.017c-0.197-0.149-0.479-0.111-0.628,0.086
	s-0.111,0.478,0.086,0.627c0.024,0.019,0.051,0.035,0.079,0.048c1.626,1.096,3.055,2.458,4.226,4.032
	c0.298,0.615,0.489,1.276,0.567,1.955c0.028,1.438,0.327,2.855,0.881,4.182l-1.643-0.344c-1.351-1.625-2.997-2.977-4.853-3.986
	c-0.233-0.083-0.489,0.04-0.572,0.273c-0.067,0.19,0.001,0.402,0.168,0.518c1.771,0.97,3.342,2.268,4.629,3.822
	c0.355,0.636,0.597,1.328,0.717,2.046c0.116,1.387,0.464,2.745,1.03,4.017l-1.971-0.299c-1.487-1.594-3.286-2.864-5.286-3.732
	c-0.242-0.055-0.481,0.098-0.535,0.338c-0.042,0.188,0.041,0.383,0.207,0.482c1.911,0.841,3.629,2.066,5.047,3.6
	c0.418,0.652,0.717,1.375,0.881,2.135c0.16,2.039,0.924,3.982,2.195,5.584c0.827,0.879,1.917,1.466,3.105,1.672
	c0.716,0.744,1.635,1.265,2.643,1.492c-2.449,23.712-15.126,24.13-15.245,24.13c-0.248,0.002-0.448,0.202-0.447,0.448
	c0.001,0.248,0.201,0.446,0.447,0.446c0.552,0,13.618-0.299,16.126-24.965c0.154,0.017,0.309,0.017,0.463,0
	c1.101-0.326,2.062-1.009,2.732-1.94c0.233,0.021,0.468,0.021,0.702,0l0,0c1.408-0.022,2.737-0.654,3.644-1.731
	c1.052-1.457,1.649-3.19,1.717-4.987c0.11-0.65,0.333-1.277,0.657-1.852c1.189-0.98,2.469-1.846,3.822-2.583
	c0.228-0.097,0.334-0.359,0.237-0.587c-0.097-0.229-0.359-0.334-0.587-0.237c-0.013,0.006-0.025,0.013-0.038,0.019
	c-1.413,0.758-2.749,1.653-3.987,2.674l-0.866,0.164c0.587-1.237,0.932-2.575,1.015-3.942c0.097-0.627,0.298-1.231,0.598-1.792
	c1.246-1.025,2.598-1.916,4.031-2.658c0.227-0.111,0.32-0.385,0.209-0.611c-0.111-0.228-0.385-0.32-0.612-0.209
	c-1.499,0.766-2.911,1.691-4.21,2.763l-0.762,0.179c0.599-1.258,0.935-2.625,0.986-4.018c0.08-0.607,0.262-1.198,0.537-1.746
	c1.299-1.075,2.717-1.997,4.226-2.748c0.238-0.068,0.375-0.316,0.308-0.555C34.259,126.057,34.256,126.047,34.253,126.037z
	 M28.893,123.499c-0.138,0.396-0.223,0.808-0.254,1.224c0,1.449-0.386,2.873-1.12,4.121c-0.116,0.152-0.241,0.297-0.374,0.434l0,0
	l-0.702,0.209c-0.821,0.212-1.625,0.486-2.404,0.82c-0.17-0.33-0.359-0.648-0.567-0.955c1.179-1.031,1.795-2.562,1.657-4.121
	c0-0.104,0-0.209,0-0.313c0.667-0.315,1.355-0.586,2.061-0.806l0.552-0.254L28.893,123.499z M22.442,135.997
	c-0.468-0.565-0.966-1.103-1.493-1.613c-0.506-0.647-0.914-1.368-1.209-2.135c-0.068-0.156-0.218-0.26-0.389-0.269
	c-0.175-0.013-0.34,0.082-0.418,0.238c0,0-0.687,1.12-1.149,2.092c-0.138-0.36-0.228-0.737-0.269-1.121
	c0.052-1.754,0.646-3.449,1.702-4.853c0.329-0.508,0.732-1.226,1.045-1.776c0.249,0.539,0.571,1.041,0.956,1.492
	c1.279,1.174,2.178,2.702,2.583,4.391c0.163,1.328-0.34,2.652-1.344,3.539L22.442,135.997z M23.263,139.55
	c0.208,1.39-0.304,2.79-1.358,3.718c-0.597-0.709-1.246-1.373-1.941-1.985c-0.604-0.625-1.108-1.341-1.493-2.12
	c-0.074-0.155-0.231-0.253-0.403-0.254l0,0c-0.172,0-0.329,0.099-0.403,0.254c0,0-0.553,1.15-1.075,2.12
	c-0.083-0.263-0.144-0.533-0.179-0.806c0.027-1.838,0.61-3.623,1.672-5.123c0.344-0.552,0.776-1.358,1.09-1.955
	c0.287,0.576,0.653,1.109,1.09,1.582c1.445,1.183,2.497,2.775,3.016,4.569H23.263L23.263,139.55z M21.77,103.715
	c0.231-1.445,0.838-2.806,1.762-3.941l0.806-1.121c0.106,0.479,0.267,0.945,0.478,1.39c0.728,1.155,1.126,2.487,1.149,3.853
	c-0.016,1.149-0.568,2.228-1.493,2.912l-0.179-0.285c-0.338-0.666-0.589-1.375-0.747-2.104c-0.039-0.176-0.18-0.312-0.358-0.344
	c-0.174-0.029-0.35,0.047-0.448,0.194l-0.806,1.225c-0.158-0.562-0.203-1.152-0.134-1.732L21.77,103.715z M22.128,106.85
	l0.866-1.283c0.135,0.521,0.336,1.022,0.597,1.492c0.867,1.16,1.385,2.543,1.493,3.987c0.038,1.14-0.439,2.237-1.299,2.986
	l-0.358-0.493c-0.389-0.658-0.686-1.366-0.881-2.105c-0.047-0.175-0.194-0.304-0.374-0.328c-0.178-0.026-0.354,0.057-0.448,0.209
	c0,0-0.538,0.881-1.03,1.643c-0.25-0.584-0.367-1.216-0.344-1.852c0.202-1.543,0.827-3,1.807-4.211L22.128,106.85z M21.083,113.973
	c0.284-0.402,0.642-0.971,0.926-1.492c0.172,0.526,0.413,1.028,0.716,1.492c1.013,1.161,1.662,2.594,1.867,4.121
	c0.081,1.186-0.387,2.342-1.269,3.137c-0.239-0.313-0.478-0.599-0.672-0.821c-0.438-0.649-0.781-1.358-1.016-2.104
	c-0.057-0.164-0.202-0.279-0.373-0.3c-0.177-0.021-0.349,0.068-0.433,0.224c0,0-0.583,1.03-1.105,1.867
	c-0.239-0.541-0.366-1.125-0.374-1.717c0.165-1.595,0.775-3.111,1.762-4.375L21.083,113.973z M20.143,121.096
	c0.299-0.464,0.687-1.104,0.985-1.613c0.21,0.533,0.491,1.037,0.836,1.494c1.178,1.195,1.964,2.722,2.254,4.375
	c0.124,1.258-0.358,2.5-1.299,3.344c-0.388-0.492-0.776-0.91-1.06-1.209c-0.486-0.651-0.873-1.37-1.15-2.135
	c-0.063-0.162-0.215-0.271-0.388-0.283c-0.175-0.014-0.34,0.082-0.418,0.238c0,0-0.583,1.105-1.105,1.971
	c-0.197-0.475-0.308-0.979-0.329-1.492c0.086-1.686,0.68-3.303,1.702-4.645L20.143,121.096z M29.102,117.198
	c-0.117,0.368-0.187,0.75-0.209,1.135c0.036,1.414-0.321,2.81-1.03,4.032c-0.199,0.283-0.429,0.544-0.687,0.775l-0.343,0.12
	c-0.666,0.21-1.319,0.46-1.956,0.747l0,0c-0.236-0.703-0.568-1.372-0.985-1.986c0.938-0.815,1.518-1.97,1.612-3.209
	c0.656-0.362,1.34-0.672,2.046-0.927l0.493-0.194L29.102,117.198z M29.236,110.941c-0.089,0.336-0.14,0.682-0.149,1.029
	c0.046,1.348-0.252,2.684-0.866,3.883c-0.295,0.47-0.681,0.875-1.135,1.193c-0.344,0.135-0.732,0.299-1.135,0.493h-0.403l0,0
	c-0.165-1.013-0.542-1.979-1.105-2.837l0,0c0.581-0.499,1.019-1.143,1.269-1.866c0.708-0.51,1.469-0.94,2.27-1.284l0.328-0.148
	L29.236,110.941z M29.027,104.67c-0.075,0.309-0.115,0.624-0.119,0.939c0.067,1.298-0.189,2.591-0.747,3.764
	c-0.443,0.841-1.208,1.466-2.121,1.732c0,0,0,0,0-0.105c-0.025-1.189-0.359-2.354-0.97-3.374v-0.09l0,0
	c0.419-0.306,0.774-0.692,1.045-1.136c0.61-0.463,1.26-0.873,1.941-1.225h0.104L29.027,104.67z M28.101,98.802l0.597-0.329
	c-0.029,0.278-0.029,0.559,0,0.836c0.084,1.25-0.136,2.5-0.642,3.645c-0.289,0.556-0.703,1.036-1.209,1.402c0-0.119,0-0.224,0-0.328
	c0.031-1.233-0.263-2.453-0.851-3.539c0.623-0.625,1.32-1.17,2.075-1.627L28.101,98.802z M23.174,96.458
	c0.273-1.371,0.889-2.649,1.792-3.718l0.746-0.956c0.08,0.459,0.205,0.909,0.374,1.344c0.592,1.151,0.865,2.44,0.792,3.733
	c-0.036,1.029-0.515,1.992-1.314,2.643c-0.234-0.629-0.409-1.279-0.523-1.941c-0.027-0.246-0.249-0.422-0.494-0.396
	c-0.134,0.015-0.254,0.089-0.327,0.202l-0.806,1.105C23.175,97.83,23.093,97.139,23.174,96.458z M20.441,98.475
	c0.088-0.268,0.148-0.543,0.179-0.822l0.522,0.584c0.463,0.539,0.878,1.119,1.239,1.731c-0.8,1.101-1.313,2.384-1.493,3.733
	c0,0.148,0,0.283,0,0.418c-0.524-0.551-0.869-1.249-0.985-2C19.781,100.877,19.965,99.625,20.441,98.475z M18.336,104.805
	c0.069-0.309,0.104-0.625,0.104-0.94l0.657,0.583c0.8,0.685,1.481,1.496,2.016,2.404c-0.779,1.146-1.289,2.453-1.493,3.822
	c-0.681-0.492-1.171-1.205-1.389-2.016c-0.302-1.271-0.271-2.598,0.089-3.854H18.336z M16.604,111.21
	c0.042-0.356,0.042-0.718,0-1.075l0.836,0.567c0.926,0.606,1.739,1.37,2.404,2.254c0.1,0.271,0.225,0.53,0.373,0.776
	c-0.734,1.067-1.275,2.254-1.598,3.51c-0.863-0.385-1.536-1.102-1.866-1.986c-0.411-1.311-0.468-2.707-0.165-4.046H16.604
	L16.604,111.21z M15.977,116.93c0.954,0.495,1.825,1.135,2.583,1.896c0.054,0.764,0.284,1.505,0.672,2.165
	c-0.562,0.867-1.013,1.8-1.344,2.777h-0.149c-0.429-0.3-0.878-0.568-1.344-0.807c-0.328-0.318-0.605-0.688-0.821-1.09
	c-0.56-1.339-0.746-2.805-0.538-4.241c0.019-0.416-0.017-0.833-0.104-1.239L15.977,116.93z M13.692,122.723l1.224,0.493
	c0.98,0.403,1.9,0.941,2.732,1.599c-0.034,0.332-0.034,0.668,0,1c0.014,0.812,0.219,1.609,0.598,2.328
	c-0.382,0.621-0.717,1.271-1,1.941c-0.664-0.424-1.37-0.779-2.105-1.061c-0.134-0.156-0.259-0.321-0.374-0.494
	c-0.703-1.383-1.012-2.932-0.896-4.479c-0.008-0.443-0.073-0.886-0.194-1.314L13.692,122.723z M12.498,129.055l1.493,0.432
	c1.059,0.361,2.063,0.863,2.986,1.494c-0.249,0.733-0.351,1.511-0.298,2.285c0.066,0.689,0.269,1.359,0.597,1.971
	c-0.179,0.283-0.343,0.597-0.508,0.91c-0.875-0.449-1.796-0.806-2.748-1.06c-0.786-1.36-1.193-2.907-1.179-4.479
	c-0.044-0.526-0.165-1.045-0.358-1.537L12.498,129.055z M12.169,137.027c-0.071-0.551-0.222-1.09-0.448-1.598l1.613,0.373
	c1.034,0.256,2.036,0.625,2.986,1.105c-0.569,1.146-0.822,2.425-0.732,3.703c0.07,0.517,0.216,1.02,0.433,1.492
	c-0.866-0.336-1.761-0.597-2.673-0.775c-0.713-1.322-1.126-2.785-1.209-4.285L12.169,137.027z M13.468,148.539
	c-1.137-1.439-1.818-3.188-1.956-5.018c-0.112-0.609-0.318-1.199-0.612-1.746c0.583,0.089,1.329,0.193,1.852,0.298
	c1.02,0.182,2.02,0.462,2.986,0.836c-0.924,1.509-1.362,3.266-1.254,5.03c0.099,0.597,0.296,1.172,0.583,1.703
	c-0.608-0.254-1.161-0.625-1.627-1.091L13.468,148.539z M19.709,151.525c-2.175,0.056-4.04-1.545-4.315-3.703
	c-0.036-1.918,0.545-3.797,1.657-5.36c0.374-0.597,0.821-1.493,1.135-2.12c0.329,0.594,0.741,1.137,1.225,1.612
	c1.566,1.187,2.725,2.83,3.314,4.704c0.37,2.148-0.906,4.242-2.986,4.896L19.709,151.525z M28.235,142.238
	c-0.207,0.475-0.343,0.978-0.403,1.492c-0.065,1.604-0.583,3.158-1.493,4.479c-0.729,0.91-1.82,1.456-2.986,1.492h-0.224
	c0.468-0.97,0.619-2.062,0.433-3.12c-0.179-0.902-0.556-1.755-1.105-2.494c0.197-0.17,0.382-0.355,0.553-0.552
	c0.878-0.333,1.782-0.593,2.702-0.776l0.926-0.179L28.235,142.238z M28.459,135.982c-0.184,0.442-0.305,0.91-0.358,1.388
	c-0.054,1.508-0.501,2.976-1.299,4.256h-0.299l-0.881,0.179c-0.567,0.104-1.225,0.254-1.867,0.418
	c0.414-0.869,0.574-1.836,0.463-2.791c-0.107-0.712-0.351-1.396-0.716-2.017c0.895-0.375,1.826-0.66,2.777-0.851l0.836-0.209
	L28.459,135.982z M28.385,131.023c-0.024,1.502-0.458,2.968-1.254,4.242l-0.135,0.148h-0.164l-0.806,0.193
	c-0.97,0.197-1.92,0.48-2.837,0.852l0,0c1.467-1.393,1.95-3.532,1.225-5.42c0.741-0.316,1.504-0.576,2.285-0.777l0.731-0.209
	l1.269-0.298c-0.168,0.416-0.278,0.853-0.328,1.3L28.385,131.023z"/>
<path d="M42.615,148.227c-0.604,1.223-1.346,2.367-2.211,3.418c-0.44,0.223-0.914,0.367-1.402,0.436
	c-1.123,0.041-2.227,0.311-3.241,0.791l0.134-0.645c0.861-1.045,1.607-2.182,2.225-3.389c0.083-0.182,0.003-0.396-0.179-0.479
	c-0.184-0.082-0.396-0.002-0.479,0.18c-0.601,1.158-1.32,2.249-2.15,3.256c-0.466,0.243-0.972,0.404-1.493,0.477
	c-1.103,0.068-2.183,0.35-3.18,0.822l0.134-0.701c0.837-0.977,1.577-2.031,2.21-3.149c0.101-0.173,0.043-0.392-0.127-0.491
	s-0.39-0.043-0.491,0.127c-0.009,0.018-0.018,0.033-0.024,0.053c-0.616,1.092-1.336,2.12-2.15,3.074
	c-0.462,0.266-0.968,0.445-1.493,0.537c-1.453,0.061-2.856,0.547-4.031,1.402c-0.884,0.74-1.397,1.832-1.404,2.986l0,0
	c-0.017,0.188-0.017,0.379,0,0.566c-0.711,0.555-1.225,1.324-1.463,2.195c-0.014,0.123-0.014,0.248,0,0.373
	c-19.979,1.985-20.203,12.526-20.203,12.976c0,0.198,0.161,0.358,0.359,0.358c0.198-0.002,0.357-0.161,0.358-0.358
	c0-0.104,0.284-10.349,19.516-12.319c0.185,0.816,0.605,1.561,1.209,2.137c0.167,0.963,0.645,1.844,1.358,2.51
	c1.284,1.021,2.843,1.645,4.479,1.775c0.609,0.131,1.19,0.369,1.717,0.701c1.24,1.146,2.23,2.532,2.912,4.076
	c0.088,0.178,0.304,0.249,0.481,0.16c0.163-0.081,0.239-0.271,0.176-0.443c-0.693-1.613-1.709-3.064-2.986-4.271
	c0-0.283-0.134-0.97-0.239-1.582c1.022,0.448,2.112,0.728,3.226,0.821c0.582,0.097,1.143,0.293,1.657,0.582
	c1.258,1.041,2.307,2.312,3.091,3.748c0.101,0.17,0.319,0.228,0.489,0.127c0.151-0.09,0.218-0.276,0.15-0.44
	c-0.808-1.494-1.893-2.821-3.195-3.912c0-0.237-0.164-0.791-0.284-1.329c1.075,0.445,2.226,0.684,3.389,0.702
	c0.551,0.063,1.085,0.22,1.583,0.463c1.271,0.943,2.369,2.095,3.255,3.404c0.104,0.169,0.323,0.223,0.493,0.119
	c0.169-0.104,0.224-0.324,0.119-0.492c-0.916-1.367-2.058-2.569-3.375-3.556c0-0.254-0.254-0.896-0.418-1.491
	c1.139,0.475,2.366,0.688,3.6,0.627c0.513,0.026,1.017,0.138,1.492,0.327c1.263,0.83,2.397,1.836,3.375,2.986
	c0.136,0.146,0.358,0.155,0.506,0.021c0.13-0.117,0.153-0.31,0.062-0.454c-1.026-1.178-2.221-2.196-3.539-3.031
	c-0.074-0.209-0.283-0.73-0.463-1.21c1.189,0.486,2.486,0.656,3.764,0.493c0.506-0.016,1.011,0.059,1.493,0.209
	c1.251,0.753,2.411,1.646,3.464,2.657c0.143,0.141,0.367,0.141,0.508,0c0.143-0.142,0.143-0.367,0-0.509
	c-1.082-1.028-2.277-1.932-3.566-2.688c-0.104-0.268-0.403-0.881-0.717-1.283l0.356,0.18c1.181,0.389,2.44,0.459,3.657,0.209
	c0.471-0.045,0.943-0.014,1.402,0.091h0.105l0,0c1.244,0.604,2.4,1.378,3.434,2.3c0.141,0.141,0.367,0.141,0.508,0
	c0.143-0.143,0.143-0.367,0-0.508l0,0c-1.047-0.971-2.223-1.788-3.494-2.436c-0.053-0.014-0.108-0.014-0.164,0l-0.672-1.031
	c0.217,0.109,0.44,0.199,0.672,0.271c1.156,0.262,2.359,0.221,3.494-0.118c0.428-0.063,0.858-0.063,1.283,0
	c1.272,0.577,2.482,1.283,3.614,2.104c0.157,0.124,0.384,0.097,0.507-0.061c0.125-0.156,0.098-0.385-0.059-0.509l0,0
	c-1.162-0.853-2.408-1.582-3.719-2.18l-0.809-0.955c0.328,0.155,0.676,0.271,1.031,0.343c1.129,0.139,2.271-0.012,3.33-0.434
	c0.396-0.109,0.812-0.159,1.224-0.149c2.347,0.957,3.511,1.568,3.511,1.584c0.18,0.082,0.393,0.004,0.476-0.176
	c0.075-0.162,0.019-0.354-0.132-0.451c0,0-1.195-0.628-3.584-1.612c-0.164-0.148-0.717-0.673-1.074-0.972l-0.643-0.521
	c0.553,0.156,1.131,0.201,1.7,0.134c1.237-0.229,2.396-0.775,3.359-1.582l1.493-1.104c0.156-0.119,0.188-0.345,0.068-0.502
	c-0.061-0.078-0.148-0.13-0.248-0.141c-0.584-0.062-1.16-0.188-1.719-0.374c-1.041-0.533-2.207-0.774-3.373-0.701
	c-0.342,0.038-0.678,0.113-1.002,0.226v-0.104c0.254-0.418,0.657-1.119,0.747-1.271c0.761-0.943,1.644-1.783,2.628-2.492
	c0.17-0.104,0.223-0.323,0.119-0.492s-0.322-0.225-0.492-0.12c-0.994,0.709-1.888,1.548-2.658,2.494
	c-0.381,0.126-0.776,0.194-1.18,0.209c-1.137-0.088-2.275,0.11-3.314,0.582c-0.187,0.104-0.364,0.218-0.535,0.344l0.433-0.853
	c0.739-0.914,1.575-1.743,2.493-2.479c0.161-0.113,0.195-0.34,0.082-0.5c-0.115-0.158-0.34-0.195-0.5-0.082l0,0
	c-0.959,0.758-1.83,1.618-2.6,2.568c-0.394,0.146-0.807,0.229-1.225,0.254c-1.177-0.064-2.35,0.176-3.404,0.701l-0.312,0.225
	l0.373-0.865c0.753-0.93,1.569-1.803,2.446-2.613c0.154-0.127,0.176-0.354,0.047-0.506c-0.127-0.153-0.354-0.174-0.51-0.045l0,0
	c-0.898,0.82-1.736,1.711-2.508,2.655c-0.404,0.165-0.834,0.267-1.27,0.3c-1.21-0.037-2.408,0.238-3.479,0.807l0.072-0.508
	c1.583-1.896,2.419-2.986,2.436-2.986c0.119-0.16,0.086-0.389-0.074-0.508c-0.161-0.119-0.389-0.086-0.508,0.074
	c0,0-0.836,1.121-2.404,2.985c-0.417,0.185-0.859,0.302-1.312,0.345c-1.184-0.006-2.351,0.271-3.404,0.807l0.18-0.553
	c0.879-1.051,1.673-2.168,2.375-3.346c0.1-0.174,0.038-0.396-0.135-0.49c-0.176-0.102-0.396-0.039-0.493,0.133l0,0
	c-0.685,1.133-1.451,2.211-2.3,3.227c-0.43,0.201-0.889,0.333-1.358,0.389c-1.147,0.02-2.278,0.287-3.313,0.791l0.148-0.553
	c0.908-1.096,1.686-2.293,2.314-3.568c0.115-0.158,0.084-0.384-0.074-0.502c-0.158-0.117-0.383-0.084-0.502,0.074
	C42.645,148.156,42.627,148.189,42.615,148.227z M44.824,153.303l-0.18,0.508c-0.182,0.566-0.398,1.121-0.656,1.656h-0.254
	c-1.256-0.105-2.486,0.395-3.314,1.346c-0.244-0.17-0.498-0.324-0.762-0.463c0.268-0.631,0.488-1.279,0.656-1.94l0.164-0.567l0,0
	l0.344-0.299c1.01-0.594,2.158-0.908,3.33-0.91c0.334-0.049,0.66-0.139,0.971-0.271c0,0.314-0.193,0.674-0.283,0.941H44.824z
	 M37.926,156.498c1.365,0.322,2.604,1.045,3.555,2.075c0.379,0.315,0.803,0.577,1.254,0.776c-0.446,0.254-1.028,0.582-1.491,0.836
	c-1.142,0.855-2.519,1.338-3.942,1.373c-0.307-0.029-0.605-0.102-0.896-0.209c0.748-0.418,1.628-0.865,1.642-0.865
	c0.126-0.062,0.203-0.189,0.195-0.328c-0.01-0.141-0.098-0.262-0.227-0.314c-0.621-0.26-1.199-0.611-1.717-1.045
	c-0.41-0.427-0.844-0.83-1.299-1.209c0.731-0.841,1.839-1.252,2.941-1.09H37.926z M35.836,159.29
	c0.384,0.353,0.816,0.649,1.283,0.881c-0.477,0.254-1.134,0.597-1.582,0.881c-1.21,0.86-2.652,1.334-4.136,1.358
	c-0.223-0.029-0.443-0.08-0.657-0.148c0.776-0.418,1.702-0.865,1.702-0.865c0.128-0.061,0.21-0.188,0.209-0.33l0,0
	c0.001-0.141-0.081-0.27-0.209-0.326c-0.627-0.295-1.207-0.684-1.717-1.15c-0.5-0.533-1.039-1.033-1.612-1.49
	c0.745-0.852,1.868-1.267,2.986-1.105c1.452,0.373,2.757,1.174,3.748,2.3h-0.015V159.29z M59.727,157.932l0.985-0.658
	c0.169-0.104,0.222-0.322,0.117-0.49c-0.054-0.088-0.138-0.146-0.237-0.164c-0.59-0.125-1.162-0.326-1.701-0.6l-0.328-0.146
	c0.562-0.729,1.424-1.158,2.346-1.165c1.104,0.015,2.186,0.334,3.119,0.926c0.356,0.173,0.732,0.304,1.119,0.39l-0.896,0.656
	c-0.908,0.771-2.006,1.286-3.181,1.492c-0.479,0.012-0.957-0.076-1.403-0.254L59.727,157.932z M55.246,159.23
	c-0.512,0.016-1.021-0.082-1.492-0.285l1.328-0.836c0.172-0.1,0.23-0.317,0.131-0.488c-0.048-0.084-0.127-0.145-0.22-0.168
	c-0.626-0.161-1.224-0.412-1.776-0.746l-0.404-0.299c0.604-0.691,1.486-1.075,2.404-1.045c1.168,0.088,2.287,0.507,3.227,1.209
	c0.361,0.205,0.748,0.367,1.148,0.479l-1.029,0.762c-0.977,0.768-2.144,1.252-3.375,1.402L55.246,159.23z M49.273,160.051
	c-0.479-0.004-0.95-0.105-1.39-0.298c0.673-0.419,1.493-0.881,1.493-0.896c0.141-0.059,0.229-0.193,0.225-0.344
	c-0.02-0.16-0.141-0.289-0.297-0.314c-0.605-0.188-1.181-0.465-1.703-0.82l-0.672-0.537c0.644-0.715,1.577-1.095,2.537-1.031
	c1.231,0.162,2.391,0.683,3.329,1.494c0.366,0.243,0.765,0.439,1.181,0.582l-1.164,0.746c-1.025,0.801-2.258,1.292-3.555,1.418
	H49.273z M43.302,160.798c-0.401-0.026-0.796-0.122-1.165-0.284c0.702-0.418,1.584-0.881,1.598-0.896
	c0.133-0.062,0.209-0.199,0.195-0.343c-0.025-0.154-0.146-0.275-0.3-0.299c-0.608-0.227-1.183-0.537-1.702-0.928
	c-0.238-0.225-0.582-0.535-0.984-0.852c0.685-0.76,1.688-1.146,2.701-1.047c1.297,0.246,2.492,0.869,3.437,1.793
	c0.372,0.275,0.776,0.504,1.21,0.673c-0.418,0.237-0.928,0.552-1.299,0.791C45.926,160.229,44.643,160.713,43.302,160.798
	L43.302,160.798z M49.871,153.062l-0.164,0.402c-0.215,0.572-0.475,1.126-0.775,1.657c-0.998,0.078-1.926,0.544-2.584,1.299
	c-0.494-0.335-1.031-0.603-1.598-0.791l0,0c0.229-0.517,0.428-1.044,0.598-1.583l0.09-0.326c0.188-0.21,0.396-0.396,0.627-0.555
	c0.98-0.559,2.098-0.836,3.227-0.809c0.311-0.008,0.611-0.053,0.91-0.135C50.096,152.511,49.977,152.824,49.871,153.062z
	 M54.918,152.854l-0.119,0.271c-0.281,0.646-0.632,1.254-1.045,1.821c-0.585,0.219-1.102,0.591-1.494,1.074l0,0
	c-0.721-0.433-1.523-0.707-2.357-0.808l0,0c-0.01-0.108-0.01-0.219,0-0.328c0.148-0.327,0.283-0.642,0.389-0.909
	c0.258-0.371,0.588-0.687,0.973-0.927c0.969-0.498,2.047-0.739,3.135-0.702c0.283-0.013,0.562-0.058,0.838-0.134L54.918,152.854z
	 M59.98,152.854v0.09c-0.291,0.524-0.627,1.024-1.002,1.494c-0.355,0.222-0.666,0.511-0.91,0.852l0,0h-0.074
	c-0.822-0.495-1.758-0.768-2.717-0.791h-0.15c0.215-0.74,0.721-1.359,1.404-1.719c0.932-0.438,1.957-0.646,2.986-0.598
	c0.26,0.045,0.524,0.061,0.791,0.045L59.98,152.854z M63.758,154.602c-0.875-0.475-1.857-0.711-2.852-0.688h-0.27
	c0.299-0.406,0.688-0.738,1.135-0.971c0.938-0.406,1.965-0.576,2.984-0.492c0.225,0.021,0.449,0.021,0.674,0l-0.328,0.537
	c-0.377,0.615-0.828,1.184-1.346,1.688L63.758,154.602L63.758,154.602z M65.251,156.723l0.926-0.658
	c0.122-0.082,0.181-0.229,0.149-0.373c-0.033-0.137-0.145-0.241-0.283-0.269c-0.514-0.075-1.018-0.194-1.509-0.358
	c0.524-0.645,1.304-1.029,2.136-1.061c1.034-0.053,2.064,0.168,2.986,0.643c0.347,0.138,0.707,0.236,1.074,0.299l-0.775,0.599
	c-0.854,0.743-1.881,1.257-2.986,1.493c-0.56,0.052-1.123-0.03-1.643-0.238L65.251,156.723z M62.266,159.529
	c-0.605-0.094-1.17-0.369-1.613-0.793h0.346c1.076-0.141,2.104-0.547,2.984-1.18c0.492,0.291,0.957,0.627,1.391,1.002l0.654,0.49
	c-0.223,0.025-0.441,0.076-0.654,0.149c-0.941,0.38-1.963,0.519-2.975,0.401L62.266,159.529z M57.068,161.037
	c-0.604-0.205-1.129-0.598-1.493-1.12c1.077-0.199,2.097-0.632,2.985-1.269c0.731,0.432,1.389,0.979,1.94,1.627l0.463,0.537
	c-0.257,0.002-0.513,0.029-0.762,0.09C59.188,161.219,58.107,161.266,57.068,161.037z M51.738,162.156
	c-0.717-0.26-1.299-0.799-1.613-1.492c1.016-0.264,1.975-0.704,2.838-1.299c0.199,0.117,0.409,0.217,0.627,0.298
	c0.715,0.536,1.331,1.192,1.821,1.94l0.448,0.672c-0.293-0.035-0.59-0.035-0.881,0c-1.049,0.23-2.141,0.189-3.166-0.119H51.738z
	 M50.812,163.65c-0.328-0.041-0.658-0.041-0.986,0c-1.158,0.166-2.34,0.016-3.419-0.436c-0.325-0.172-0.622-0.396-0.882-0.654
	c-0.193-0.379-0.414-0.742-0.656-1.093c-0.002-0.038-0.002-0.077,0-0.118c0.793-0.264,1.551-0.623,2.255-1.074
	c0.532,0.314,1.13,0.506,1.747,0.553c0.602,0.611,1.104,1.311,1.492,2.074c0.21,0.148,0.373,0.464,0.523,0.748H50.812L50.812,163.65
	z M44.615,164.516c-1.232,0.088-2.465-0.16-3.568-0.717c-0.141-0.09-0.275-0.189-0.402-0.299c-0.229-0.595-0.521-1.165-0.867-1.701
	c0.52-0.232,1.018-0.502,1.494-0.807c0.566,0.32,1.201,0.504,1.854,0.537c0.27,0.027,0.537,0.027,0.807,0
	c0.533,0.673,0.971,1.416,1.299,2.21c0.121,0.284,0.27,0.657,0.402,0.985c-0.309-0.111-0.629-0.188-0.955-0.226L44.615,164.516z
	 M39.391,165.382c-1.283,0.022-2.547-0.302-3.659-0.94c-0.205-0.765-0.49-1.506-0.852-2.209l0.747-0.418
	c0.496,0.264,1.039,0.427,1.598,0.479c0.652,0.05,1.311-0.036,1.926-0.254c0.498,0.755,0.891,1.572,1.166,2.436
	c0.104,0.327,0.238,0.775,0.357,1.148c-0.39-0.143-0.797-0.227-1.21-0.254L39.391,165.382z M30.685,164.934
	c-0.1-0.738-0.265-1.469-0.493-2.18c0.384,0.174,0.792,0.289,1.209,0.344c1.031,0.068,2.061-0.139,2.986-0.598
	c0.384,0.771,0.68,1.582,0.881,2.419c0.089,0.374,0.209,0.896,0.298,1.329c-0.408-0.182-0.841-0.303-1.284-0.357
	c-1.237-0.054-2.447-0.386-3.539-0.972L30.685,164.934z M23.935,163.545c0.429,0.232,0.893,0.395,1.374,0.479
	c1.426,0.086,2.843-0.27,4.062-1.016c0.301,0.783,0.526,1.594,0.672,2.419c0.075,0.419,0.164,1.03,0.239,1.493
	c-0.437-0.223-0.905-0.379-1.389-0.463c-1.481-0.111-2.895-0.663-4.062-1.582c-0.363-0.391-0.647-0.848-0.836-1.346L23.935,163.545z
	 M26.384,157.408c1.511,0.467,2.841,1.391,3.807,2.643c0.389,0.391,0.831,0.723,1.314,0.986c-0.507,0.254-1.224,0.627-1.717,0.926
	c-1.265,0.893-2.782,1.357-4.33,1.328c-1.747-0.223-3.039-1.732-2.986-3.494c0.534-1.683,2.232-2.711,3.972-2.402L26.384,157.408z
	 M29.684,154.168c0,0.209-0.09,0.463-0.149,0.747c-0.126,0.761-0.316,1.511-0.567,2.239c-0.16,0.139-0.31,0.287-0.448,0.447
	c-0.597-0.443-1.286-0.75-2.016-0.896c-0.856-0.15-1.739-0.033-2.523,0.344c0,0,0-0.104,0-0.148
	c0.021-0.934,0.446-1.812,1.165-2.403c1.066-0.736,2.319-1.155,3.614-1.21c0.407-0.053,0.804-0.162,1.18-0.328
	c-0.015,0.357-0.12,0.852-0.194,1.193L29.684,154.168z M34.716,153.885c0,0.193-0.104,0.418-0.164,0.672
	c-0.154,0.77-0.385,1.52-0.687,2.24c-0.5-0.297-1.053-0.494-1.627-0.583c-0.793-0.112-1.603,0.007-2.33,0.345
	c0.135-0.521,0.254-1.047,0.344-1.494c0.089-0.446,0.089-0.521,0.149-0.717v-0.238c1.034-0.643,2.218-1.004,3.434-1.045
	c0.384-0.043,0.761-0.139,1.12-0.283c0.015,0.328-0.104,0.762-0.179,1.09L34.716,153.885z M40.047,152.57
	c-0.09,0.344-0.209,0.746-0.299,1.031c-0.09,0.281-0.105,0.373-0.18,0.597c-0.162,0.627-0.373,1.241-0.627,1.837
	c-1.49-0.541-3.16-0.162-4.271,0.971l0,0c0.3-0.744,0.53-1.514,0.687-2.3c0-0.239,0.104-0.463,0.149-0.642v-0.135l0.134-0.119
	c1.026-0.645,2.208-0.994,3.418-1.018c0.358-0.037,0.711-0.123,1.045-0.254L40.047,152.57z"/>
<rect x="6.25" y="183" fill="none" width="63" height="16"/>
<text transform="matrix(1 0 0 1 13.25 194.8721)" font-family="'Montserrat-UltraLight'" font-size="13">WHEAT</text>
</svg>
