<svg id="Layer_1" data-name="Layer 1" xmlns="http://www.w3.org/2000/svg" viewBox="0 0 552.75 311.81"><defs><style>.cls-1{fill:#231f20;}.cls-2,.cls-3{fill:#4c4c4c;}.cls-3{stroke:#d1d3d4;}.cls-3,.cls-4{stroke-miterlimit:10;}.cls-4{fill:#e9e8e2;stroke:#4c4c4c;stroke-width:2px;}.cls-5{fill:#fbb040;}.cls-6{fill:#c4b27b;}.cls-7,.cls-8{fill:#414042;}.cls-8{opacity:0.28;isolation:isolate;}</style></defs><title>PM illustration</title><rect class="cls-1" width="552.75" height="311.81" rx="28.16" ry="28.16"/><rect class="cls-2" x="40.27" y="122.36" width="12.49" height="82.43" rx="5.35" ry="5.35"/><circle class="cls-2" cx="46.87" cy="102.31" r="6.87"/><circle class="cls-3" cx="524.66" cy="167.72" r="15.9"/><circle class="cls-2" cx="24.84" cy="161.09" r="3.78"/><rect class="cls-4" x="79.05" y="29.35" width="415.92" height="251.93"/><rect class="cls-5" x="79.04" y="29.35" width="415.92" height="115.06"/><rect class="cls-6" x="79.04" y="144.38" width="414.75" height="136.9"/><path d="M80.78,119.25l.15-1.29,1.48,1.34.4-.58,1.84.82.28-1.65c1,.32.81,2,2.78,1.37l.57.79.28-.12.19-1.87,1.54,2.42,1.59.15.91-.9.17.14v-1.46c.27,0,.55,0,.6.11.81,1.22,2.58,1.31,3.66,2.22.11.09.41,0,.61,0s.41-.07.43,0c.62,1.06,2.16.66,3.08,1.42v-2.44l1.17,2a15.48,15.48,0,0,1,2.57-.61c1.57-.09,3.15,0,4.71,0,1.29-.08,2,.31,2.35,1.35,0,.15.12.29.26.61.32-.59.55-1.42,1.39-.21l-.19-1.94.26-.08a9.91,9.91,0,0,0,1,1.5,13.34,13.34,0,0,0,1.62,1.25l1.19-1.59,2.69,1.62-.31-1.58.34-.13c.43.53.85,1.06,1.3,1.58a6.37,6.37,0,0,0,3.14.92,11.19,11.19,0,0,1,3.85.14c2.15.74,4.24.45,6.4.34l.42.71.34-.66,1.35,1-.57-2,.32-.14,2,2.58c.19-.73.57-.66,1.08-.13l-.16-1.57.29-.11,1.82,2.49,1.61-.88,1.5,1.55-.15-1.89.23-.14c1.43,1.62,3.46,2.52,5.45,3.66.2-.68.33-1.14.47-1.6.19-.62.63-.59,1.09-.24s.79.69,1.28,1.13l.29-1.08.91.71-.05-.89.2-.06,1.74,3,.32-.06-.61-2.85.36-.25,1.45,1.86.45-.23c0-.33.1-.65.12-1,.23-4.27.38-8.55.72-12.81a34,34,0,0,1,1-5.91,7.93,7.93,0,0,0-1.63-7.36c-1.24-1.54-2.51-3.08-3.89-4.52-2.21-2.31-5.07-2.6-8.3-1.72a27.3,27.3,0,0,1-4.46.84,9.21,9.21,0,0,1-7-2.33,13.2,13.2,0,0,0-2-1.3,4.53,4.53,0,0,0-4.62-.19,5.23,5.23,0,0,1-2.22.35H113a7.74,7.74,0,0,1-2.26-.35c2.39.06,4.76.31,7.26-.36l-1.37-1.6.16-.23c2.43,2.38,5.52,2.11,8.86,1.73a31.73,31.73,0,0,0-2.79-2.81,3.82,3.82,0,0,0-2.09-.63,4,4,0,0,1-3.86-2.17,3.19,3.19,0,0,0-2.35-1.68c-2.14-.45-4.32-.8-6.49-1.18a1.48,1.48,0,0,0-.68,0L98,86.69l2.68,3.68c-1.73-.75-2.32-2.12-3.13-3.57-1,.33-2,.71-3,1a8,8,0,0,1-1.61.15,5.87,5.87,0,0,0-.75,0c-1.31.26-1.89,0-2.29-1-.23-.58-.12-.93.7-.81.28-.52-.12-1.52,1-1.22l2-1.49c.15-.11.36-.21.43-.36.75-1.49,2.2-2.49,3.37-3.7,1.43-1.47,3.57-1.65,5.15-2.82l-.29-.76h2a1.85,1.85,0,0,1,1.78-1.2,2.61,2.61,0,0,0,1.46-1.15,1.7,1.7,0,0,1,1.95-.73,2.24,2.24,0,0,0,2.44-.84c.87-.44,1.56-.85,2.31-1.14s1.7-.5,2.55-.74a.56.56,0,0,0,.32-.06c1.45-1.12,3.42-1.09,5.13-1.63.3-.1.52-.37.82-.48.85-.3,1.72-.59,2.6-.82s2.06-.47,3.09-.68c.71-.14,1.42-.27,2.13-.36a7.52,7.52,0,0,1,1.46-.05c.94.06,1.87.18,2.5.25.38-.48.93-.87,1-1.3.12-.93,1.23-1.12,1.6-1.7.84-1.31,2.27-1,3.5-1.15a11.85,11.85,0,0,0,3.31-.45,14.53,14.53,0,0,1,3.1-.25c2.32-.27,4.62-.61,6.93-.91.83-.1,1.66-.15,2.5-.22h1.61c.14.14.27.4.42.4,1,0,2,0,3,.06a9,9,0,0,0,1.22,0,4.79,4.79,0,0,1,4.22,1.22,2.65,2.65,0,0,1,2.79-.5,5.81,5.81,0,0,0,1.48-.06c2.33-.1,4.72-.32,6.87.59a5.64,5.64,0,0,0,2.66.73,10.49,10.49,0,0,0,1.11-.13,5.94,5.94,0,0,1,1.32-.08,12.19,12.19,0,0,1,2.42.52c.53.19.93.63,1.38.8,1.1.27,2.2.51,3.29.8,2,.54,4,1.07,5.9,1.69a10.62,10.62,0,0,1,2,1.05c.21.12.33.42.55.46a4.63,4.63,0,0,1,3.47,2.78c.46.9,1.65.81,2.61,1,.33.06.76,0,1,.17s.87.72.9,1.11-.61.61-1,.88a3,3,0,0,1-.7.27c.1,1.62.35,1.72,2.14,2.15a6.55,6.55,0,0,1,2.51,1.37c1.19,1,2.18,2.16,3.35,3.18a8.14,8.14,0,0,0,1.86,1c.82.39,1.67.73,2.59,1.12.28,1.33-1.27,2.79-3.14,2.86a10.1,10.1,0,0,0-1.87.28c-.37.08-.57.29-1-.11s-2.72.45-3,1.06c-.45,1-.87,1.92-1.32,2.93a5.17,5.17,0,0,0,4.27-2.86,3,3,0,0,1-2.28,3.24A11.27,11.27,0,0,0,204,93.57,5,5,0,0,1,198.68,95c-2-.5-4.11-.22-5.41,1.59a20.58,20.58,0,0,1-1.94,2l3.91.35v.33a8.32,8.32,0,0,1-2.19.14,14.31,14.31,0,0,0-9.19,1.21,7,7,0,0,1-6.13,0,2.36,2.36,0,0,0-2.59.19c-1.95,1.34-4.1,2.47-6,3.88a9.07,9.07,0,0,0-3.75,6.94c-.31,5.78-.47,11.57-.65,17.36a4.63,4.63,0,0,0,.47,1.46l.42-.06V128.1l2.11,2.45h.49c.32-1.27.67-2.53,1-3.81.73-3.27,2.54-6.16,4.44-9a4.22,4.22,0,0,0,.57-.88A2.77,2.77,0,0,1,176.4,115a49.31,49.31,0,0,1,5-.89c1.11-.14,2.19,0,2.53,1.33,2.64-.52,4.93.5,7.37,1a22.63,22.63,0,0,0,6.37.17c4.46-.45,9.31,2.09,9.68,5.92a11.76,11.76,0,0,1-.12,2.78,51.81,51.81,0,0,1-1.1,5.57v-3.44l-.28-.14c-1.58,1.58-3.17,3.14-4.71,4.74a2.53,2.53,0,0,0-.46,1c-.51,1.49-.38,1.75,1.16,2.57l1.1-.48v-.84l2.12,2,.19-.38,1.83.36-.82-.91.27-.25,2.54,1.53.19-.69,1.32.7.08-.89,2.33,1.79-.12-1.18a10.53,10.53,0,0,0,1,.6c.35.17.59.86,1.21.22a5.54,5.54,0,0,1,1.06.45l.28-.56,1.89,1.82.31-.19V138l.27-.2c.88.65,1.78,1.28,2.63,2,.57.45,272.6,4.2,273.14,4.69,0,7.85.46,11.64.46,19.49-48,0-368.06.83-416.1.83V118Zm95.68-39.63.56-.26a5.53,5.53,0,0,0,1.43,4.43,1.14,1.14,0,0,0,1.55.43l.06,0a15.21,15.21,0,0,0,2.38-1.28c.78-.63.6-1.1-.33-1.57-1.44-.73-2.85-1.51-4.31-2.21a21.69,21.69,0,0,0-2.3-.83,3.14,3.14,0,0,1-.84-.26c-1.17-.93-2.61-.59-4-.65-.22,0-.47.15-.67.11-1.62-.38-2.9.53-4.36.77a1,1,0,0,0-.5.21c-.53.49-.18,2.87.45,3.26a6.62,6.62,0,0,1,.61.43,1.93,1.93,0,0,0,.06.38c-1.87-.79-3.73-1.43-4.63-3-.52-.92-1.17-1-2.18-.82a21.41,21.41,0,0,1-2.65.2l-.09-.28.54-.5-2.13.16c1.59,2.8,0,5.33-.68,7.92s-.14,3.85,2.6,5.23c1.08.54,2.24,1,3.38,1.44,4.5,1.86,6.79,5.52,6.07,9.68,0,.24-.07.48-.11.83,1.4-.63,2.68-1.18,3.92-1.78a1.15,1.15,0,0,0,.45-.72c.58-2.06,1.25-4.11,1.65-6.19.29-1.5.15-3.05.31-4.58a3.83,3.83,0,0,0-2-4,15.15,15.15,0,0,1-1.81-1.61,9.6,9.6,0,0,1-1.65-1.63,3.14,3.14,0,0,1,.61.2q1.93,1.13,3.84,2.29a4.44,4.44,0,0,0,5.15.14,6.73,6.73,0,0,1,.84-.43c-.44-1.94-.83-3.71-1.22-5.47ZM117.6,81.1l-1.76.4c.28.57.53,1.09.8,1.61.59,1.11,1.17,2.23,1.8,3.33a1.93,1.93,0,0,0,.73.68,2.33,2.33,0,0,0,1,.24c3.82.15,3,0,5.31,2.73,1.21,1.44,2,1.69,3.88.94a5,5,0,0,1,4.65.28c1.52.87,3.12,1.64,4.6,2.54a5,5,0,0,0,4.43.49c.81-.27,1.64-.5,2.45-.75-.42-1.11-.8-2.18-1.23-3.23a1.73,1.73,0,0,0-.57-.7c-2-1.49-2.93-3.33-2.49-5.59.13-.67-.29-.9-.92-1.29-2.53-1.56-5.2-1.3-7.9-.62-3.09.77-6,.12-9.37-.43l12.89-1.06c-.72-.79-1.22-1.4-1.81-1.93a1.45,1.45,0,0,0-1-.26c-2.48.33-5,.75-7.44,1.06-1.28.16-2.6.14-3.89.26-.66.06-1.3.32-2,.38s-1.37,0-2.06,0a7.26,7.26,0,0,0-1.24.32Zm61,10.54a3.38,3.38,0,0,0,2.66-3.07,1.94,1.94,0,0,1,.62-1.07c.43,3-.77,4.86-3.44,5.29a11.71,11.71,0,0,0-3.4,1.36,3.5,3.5,0,0,0-1.36,1.34c-.87,1.57-1.68,3.18-1,5.23.57-.42,1.26-.7,1.48-1.14.84-1.66,2.43-2.43,4.37-2.8,1.6-.31,3.24-.47,4.84-.78,2.13-.41,3.39-1.61,3.3-3.43-.11-2.08-.51-4.14-.78-6.21a3.45,3.45,0,0,1-.08-1.53c.32-.89-.68-1.41-.7-2.2,0-.12-.48-.23-.87-.41-.39,2.47-2.61,3.31-4.85,4.14-1.57.58-3.18,1.12-4.69,1.8a1.69,1.69,0,0,0-.82,1.2,7.93,7.93,0,0,0,.21,2.93l1.23-1.11-.3,1.68c1.29-.41,2.44-.83,3.61-1.21ZM173.89,122c-3.31,2.25-4.65,5-4.64,7.94l2,1.16-.45-1.88.15-.06,2.16,2.49.23-1,1.24.9.17-.06-.67-1.47.24-.15,2.45,2.32c.25-.48.46-.81.61-1.16.75-1.74,1.48-3.49,2.21-5.23a8.35,8.35,0,0,0,.41-1c.22-.81.58-1.69-.25-2.36a4.43,4.43,0,0,0-4-1,1.45,1.45,0,0,0-.71.65c-.52.79-1,1.61-1.48,2.42l-.32-.13ZM148,92a3.26,3.26,0,0,0,1.71.88,12.19,12.19,0,0,1,8.19,4.38c1.37,1.56,2.52,3.27,3.76,4.9a3.67,3.67,0,0,0,.09-6.24,14.61,14.61,0,0,0-3.14-1.75,14.36,14.36,0,0,1-5-3.6c-1.44-1.52-3.1-2.88-4.69-4.33-2.65,1.88-2.89,3.9-.89,5.77Zm51-4.7a5.15,5.15,0,0,1-1.25,3.33,15.9,15.9,0,0,0-1.28,2.48,16.58,16.58,0,0,0,3.38.55,4.45,4.45,0,0,0,2.47-.92,58,58,0,0,0,4.41-4.42,23.52,23.52,0,0,0,1.76-2.44l-1.91-.84c-.1,0-.25-.11-.32-.08-1.75.85-2.68-.51-3.91-1a5.93,5.93,0,0,1-.81-.5,3.61,3.61,0,0,0-2.49,3.85ZM187.58,94.7c2.16-.22,4.41-.43,6.64-.68a1,1,0,0,0,1-.94,9,9,0,0,1,1-2.33,2.65,2.65,0,0,0-.37-3.34c-.67-.73-1.31-1.49-2-2.31-1.59,2-3,4.08-6.31,4.48ZM154.76,80.43c-.1-1.79-.38-2.08-2.06-2.08l.15.78-.19.24c-.75-1.57-2.2-1.46-3.69-1.41-.38,0-.78-.36-1.37-.46a7,7,0,0,1-.74,6.41,6.47,6.47,0,0,0,2.34.57c.58-.12,1-.85,1.69-1.24l-.63,1.64.24-.28,2.67,2.46a11.14,11.14,0,0,0,.86-1.49,12.05,12.05,0,0,0,.75-2.41c.17-.94.73-2-.7-2.73Zm32,52.36.12-1.45,1.51,1.58.45-.44.89.86H190l-.5-2.49.25-.06,1.84,3.06.23-.07v-.92l1.64.89a26.93,26.93,0,0,0,1.76-3.42c.34-1-.31-1.45-1.49-1.49a18.73,18.73,0,0,1-6.74-1.73l-1.29-.56c-2,2.31-1.73,3.84,1.18,6.25Zm.43-37.07a7.16,7.16,0,0,0-1.49.47c-1.68.58-3.36,1.18-5,1.76-1,.34-2,.65-3,1v.34c1,.38,2,.8,3,1.12a3.26,3.26,0,0,0,2.82-.41,9.09,9.09,0,0,1,5.57-1.43,1.55,1.55,0,0,0,.88-.13c1.22-1,2.4-2,3.59-3l-.23-.3c-2,.19-4,.36-6.09.59Zm3.6-8.46c.94-1,1.82-2.06,2.74-3.08a1.88,1.88,0,0,0,.26-2.11c-.28-.73-.58-1.45-1-2.38a13.64,13.64,0,0,0-1.7,1q-1.84,1.43-3.56,3a1.4,1.4,0,0,0-.34,1v4.09a4.55,4.55,0,0,0,3.68-1.51Zm-50.11-6.78.23-.2c.25.2.7.39.72.6.09.89.67,1.27,1.67,1.38,1.52-1.19.56-2.85,1-4.25,1.22,1.58.84,3.19.34,4.84.55.55,1,.5,1.47-.12,1.09-1.42.89-2.94.54-4.47a.74.74,0,0,0-.41-.4c-2.5-.21-5-.39-7.4-.57-1.29,2.16-.77,3.19,2.26,4.61Zm55.76,0a1.94,1.94,0,0,0-.92-.7,6.29,6.29,0,0,0-1.5,0c0,.32.09.64.12,1,.08,1.06.15,2.13.22,3.2,0,.3-.1.68.07.89,1,1.19,2.09,2.34,3.31,3.68.63-2.05,1-4,3-5.53a5.72,5.72,0,0,1-4.23-2.54Zm-54.2,2.92a5.11,5.11,0,0,0,1.54,3.3,1.06,1.06,0,0,0,1.49.14l.07-.06a17.66,17.66,0,0,1,2.15-1.22Zm-26.48.74.26-.22a21.37,21.37,0,0,1-1.63-1.67c-.72-.9-1.51-.41-2.29-.15l-2.33.8c1.93,1.09,4,.83,5.95,1.24Zm48.8-5.63a9.6,9.6,0,0,0-1.22-.09,8.67,8.67,0,0,0-1.34.2,3.5,3.5,0,0,0,.51,1.11A14.32,14.32,0,0,0,164.2,81Zm16.63,53.86v-2.58c-1.31.87-.75,1.6,0,2.59Z" transform="translate(0)"/><path d="M449.3,150.47a1.43,1.43,0,0,0-2.15.86,16.83,16.83,0,0,0,1.87,13,1.51,1.51,0,0,0,2.8-.76l.34-12.48C452.24,149.41,449.9,149.2,449.3,150.47Z" transform="translate(0)"/><path class="cls-7" d="M191.67,210.2a30,30,0,0,1,5.51-.59c3.34.24,6.49.32,9.48,3,2.23,2,6.22,2.15,9.45,3,3.07.84,6.18,1.52,9.24,2.38a2,2,0,0,1,1.16,1.31c.07.38-.5,1-.94,1.3-2.17,1.26-4.18,1.64-6.66.16s-5.28-1.88-7.89-2.92c-3.52-1.4-7-3-10.49-4.4a41.21,41.21,0,0,0-5.15-1.41c-1.23-.31-2.49-.53-3.73-.79Z" transform="translate(0)"/><path class="cls-7" d="M154.57,195.07c-.57.09-.72.33-.76.85-.24,3.59-.53,7.17-.74,10.76-.11,1.9-.56,3.59-2.29,4.66a1.27,1.27,0,0,0-.67,1.11c-.06.85-.45,1-1.25.85a3.86,3.86,0,0,0-1.58,0,5.81,5.81,0,0,1-6.08-2,2.55,2.55,0,0,0-2.14-1.1c-1.59,0-1.8-.33-2.09-1.81a.92.92,0,0,0-.57-.51c-.94-.31-1.89-.6-2.85-.84a13.57,13.57,0,0,0-2.08-.38,2.54,2.54,0,0,0-2.07,1.76c0,.22,0,.55-.17.62-.78.41-.84,1.18-1,1.88a2.22,2.22,0,0,1-1.72,1.68,2,2,0,0,1-2.13-.93,28.07,28.07,0,0,1-1.76-3.49A2.2,2.2,0,0,1,123,206c.71-1,1.51-1.89,2.24-2.86a2.22,2.22,0,0,0,.46-1,3.61,3.61,0,0,1,3.2-2.89c1.55.1,3.1.29,4.64.48s3.35.41,5,.73c1.12.22,2.21.63,3.42,1a3.62,3.62,0,0,0,.14-1.29c-.29-1-.69-2-1.07-3a25.79,25.79,0,0,1-1.56-7.39c-.26-3.64,2.32-5.82,4.31-8.31a3.91,3.91,0,0,0,1-1.63c.18-1.25.19-1.34,1.46-1.6a7.52,7.52,0,0,0,2.19-.66c2.37-1.33,4.7-2.75,7-4.14.19-.11.34-.29.53-.38a5.63,5.63,0,0,1,1.78-.79,29,29,0,0,1,10.2,1.24,1.92,1.92,0,0,0,1.12-.1,1.32,1.32,0,0,1,1.6.33,1.56,1.56,0,0,0,1.31.27,21.41,21.41,0,0,0,2.66-1.14.83.83,0,0,0,.58-1l0-.1A4.34,4.34,0,0,1,175,171c-.11-.67.21-.94.85-1a2.51,2.51,0,0,0,1-.34,8.18,8.18,0,0,1,5.4-1.54c2.81.4,4.47,2.29,5.36,4.81s.56,4.66-1.59,6.38c-1.2,1-2.33,1.94-2,3.74,0,.18-.26.42-.41.63a2.15,2.15,0,0,1-.61-.43c-.33-.51-.6-1.07-.8-1.45a17.49,17.49,0,0,0-1.75.26,1.36,1.36,0,0,0-.71.48,10.37,10.37,0,0,0-.68,1.21,4.36,4.36,0,0,0-1.08-.25,2,2,0,0,0-2.16,2.41,4.92,4.92,0,0,0,.21,1.24,23.09,23.09,0,0,0,2.44,5.64,13.23,13.23,0,0,1,2.18,6.24,17,17,0,0,0,2.11,6.69c.11.19.41.45.56.42,1.24-.3,2.47-.66,3.73-1-.1-.64-.16-1.21-.27-1.77a.82.82,0,0,1,.72-1.09c.65-.13,1.32-.18,2-.28a1,1,0,0,1,1.22.72v0c.15.43.45.8.63,1.22a5.21,5.21,0,0,1,.7,2.07,6.21,6.21,0,0,0,0,1.47,5.52,5.52,0,0,1,.17,1,.75.75,0,0,1-.33.58c-.81.29-1.65.53-2.49.76a1,1,0,0,1-1.27-.62l0-.06c-.22-.6-.48-1.19-.73-1.82l-2.85.6a3.59,3.59,0,0,0,.37.47c1.6,1.39,3.11,3,5.43,3.09.21,0,.4.23.6.35-.16.2-.28.53-.48.59a3.54,3.54,0,0,1-1.37.16c-.91-.1-1.8-.34-2.71-.44a1.2,1.2,0,0,0-.95.28c-.43.59-1,.82-1.43.28s-1.72-.61-1.37-1.81a.53.53,0,0,0-.09-.11l-1.91-1.92a2.25,2.25,0,0,0-.12.45,1,1,0,0,1-1.09,1.1c-.18,0-.36.2-.55.3s-.41.32-.56.27c-.88-.27-1.62.35-2.26.61a2,2,0,0,1-2.3-.32,2,2,0,0,0-2.07-.45c-.79.19-1.7.81-2.43-.22,0-.06-.24,0-.36,0l-4.83-.15c-1.61-.06-3.22-.18-4.83-.25-.63,0-1-.28-1-.93a22.34,22.34,0,0,1-.08-2.82,8.69,8.69,0,0,1,.67-1.91,5.22,5.22,0,0,0,.37-1.2c.07-.76-.06-1.55.08-2.29.26-1.43,1-2.72,1.14-4.22a3.58,3.58,0,0,0-.55-2.66C158.13,194.45,156.36,194.8,154.57,195.07Zm21.23,5.56a24.5,24.5,0,0,1-1.65-3.47c-.56-1.4-.9-2.89-1.51-4.26-.68-1.55-1.56-3-2.35-4.52h-.22a13,13,0,0,1-.22,1.55c-.47,1.77-1,3.53-1.44,5.3a1.62,1.62,0,0,0,0,1,43.8,43.8,0,0,0,4.81,7.67,3.42,3.42,0,0,0,2,1.27c1.35.33,2.73.54,4,.79-1.07-1.66-2.3-3.46-3.41-5.33ZM165.48,203c-.26.51-.48,1-.76,1.46a.68.68,0,0,0,.1,1l.06,0c.75.56,1.51,1.12,2.28,1.66a1.48,1.48,0,0,0,.55.12,6.7,6.7,0,0,1,.85.17c.84.28,1.67.58,2.5.87l.09-.19Z" transform="translate(0)"/><path class="cls-8" d="M438.13,180.61h46.24a12,12,0,0,1,12,12h0a12,12,0,0,1-12,12H438.13a12,12,0,0,1-12-12h0A12,12,0,0,1,438.13,180.61Z" transform="translate(0)"/><path class="cls-7" d="M469,103.27c-1.19-2-2.45-1.27-4-.11a8.89,8.89,0,0,1-4.19,1.84c-6.15.68-12.32,1.18-18.49,1.57-1,.07-2.12-.76-3.21-1.06s-2.73-.82-2.88-.55c-2.07,3.74-5.85,2.37-8.83,2.91a95.43,95.43,0,0,1-12.44,1,3.19,3.19,0,0,1-2.08-1.06c-1.42-1.48-2.52-1.42-3.79.2a5.47,5.47,0,0,1-8.66-.43c-6.92-10.47-13.88-20.91-20.69-31.45a3.72,3.72,0,0,0-4.34-1.87c-10.72,1.75-21.46,3.42-32.2,5.13a62.69,62.69,0,0,0-6.54,1.18c-6.82,1.85-12.85-1.29-19.11-2.92s-12.46-3.51-18.69-5.28h-1.75c-2.6,3.68-5.16,7.39-7.8,11-3.23,4.46-6.57,8.84-9.76,13.32-.4.56-.2,1.54-.27,2.32l.87.16,3.43-3.69c.36,3.18,1.57,5.65-1.46,8.75-10.63,10.92-20.7,22.39-31,33.67-.4.44-.84,1.46-.64,1.69.57.68,1.51,1.61,2.2,1.52,3.31-.41,3.5,1.36,3.59,4,.32,9.39.91,18.77,1.35,28.16.19,3.94.23,7.89.4,11.83,0,1.21.21,2.22-1.44,2.63-.38.1-.35,1.88-.5,2.88,2.75.23,2.07,2.5,2.11,4,.07,2.59,1.43,3.2,3.62,3.16H267l1,7.25,1.47-.1.35-6.68,16.61,1.39,1,8.37c2.45-2.7,1-5.42,1.84-8,3.42.25,6.94.45,10.45.76,8.1.73,16.31.89,24.24,2.49,6.55,1.32,12.12-1.49,18.12-2.3,8.17-1.1,16.15-3.51,24.31-4.74,3.75-.56,7.73.22,11.58.6,10.48,1,21,2.2,31.42,3.33,2.86.31,5.7.69,8.58,1-.71,3.66-1.41,7-2,10.38a7.76,7.76,0,0,0,.43,2.47c1.08-.36,2.74-.41,3.15-1.14,1.8-3.21,3.19-6.66,4.87-10a2.28,2.28,0,0,1,1.85-.93c7,.68,14.18.93,21,2.46a15.33,15.33,0,0,0,8.64-.58c7.35-2.27,14.84-4.15,22.33-5.91,2.09-.49,2.82-1.29,2.63-3.29a19.8,19.8,0,0,1-.07-3.49,3.16,3.16,0,0,1,.79-1.62c.65-.76,1.42-1.42,2.15-2.12l-2.6-1.88c0-7.88.11-16,0-24.14-.14-7.9-1-15.82,2-23.13a33.14,33.14,0,0,0,5,4.42c.5.3,2.21-1.37,3.51-2.24C484,127.95,476.55,115.6,469,103.27ZM297.49,75.64l.86.6-4.85,6.7-.74-.52Zm8,15.1c0,6.64,0,12.55-.06,18.46a2,2,0,0,1-1.26,1.49c-3.14.5-6.32.81-10,1.25l-1.45-19.38Zm-40.86,95.12h-.87c-.3-4.17-.64-8.34-.85-12.52,0-.58.55-1.18.85-1.77.29.6.82,1.19.84,1.79C264.67,177.53,264.63,181.69,264.63,185.86Zm4.26-5.09-.6-9.11c2.07.78,2.48,6,.6,9.1Zm-6.42-13.3L261,140.29l5,1.71-.23-.52,6.47-2,1.18,27.2Zm18.71,16.73c-2.42-1.24-2.59-7.38,0-9.43Zm12.31-6.26a16,16,0,0,1-3.37,2.72c-1.79,1.11-3.7,2-6,3.27V168.86l-5.67-.27V139.32l6.81,1.18c3.9-2.26,6-2.29,8.79.66l1.61-1.48c.12.14.32.25.32.37.31,10.47.36,20.95,1,31.39.21,3.36-1.82,4.66-3.5,6.49Zm8.84,1.1c-.13.54-1,.89-1.58,1.32a6.32,6.32,0,0,1-1.23-1.62c-1-2.89,1.35-4,2.92-5.55l.78.23c-.29,1.87-.46,3.77-.9,5.61Zm7.45.16h-4.46l-.73-6.53c6-1.08,7.12.4,5.17,6.52Zm7.42-2.07c-.9.89-2.63.95-4,1.37L312,172.93h6.53c-.48,1.6-.5,3.33-1.37,4.18Zm6.31-14.49c-3.08,1.28,0,4.53-2,7.05-4.35,0-9.33.13-14.3,0-3-.11-5.83-.45-7.68,2.85L299,172v-9.79h.11a2.75,2.75,0,0,1-.13-.32c-.31-1-.27-1.92-.57-2.87a2.44,2.44,0,0,1,0-1.5v-.32c-.14-5.71-.32-11.43-.37-17.14a1.82,1.82,0,0,1,1.21-1.31c1.56,0,3.46-.29,4.59.48s1.59,1.14,2.73,0c2.1-2.09,9-1.81,11.08.33l4.19-2.22c0,3.33-.12,6.1,0,8.86a22.16,22.16,0,0,0,1,4.06,12.39,12.39,0,0,1,.62,2.71c.05,3.12,0,6.31,0,9.67Zm70.15-59,4.29,6.3-4.29.5Zm0,10.85,4-.48-.58,7.18-.74.24L395.11,118c-2.35.16-2.14-1.49-1.5-3.5Zm-7.42-21.08.61-.16c1.35,2,2.7,4.08,4,6.13a1.28,1.28,0,0,1,.26.77c-.49,3.48-1,7-1.53,10.48l-3.34-2.7ZM390.45,132c-.23,1.14-1.16,2.13-1.78,3.19l-1-.56c.11-2.18.15-4.37.39-6.54.06-.54.79-1,1.21-1.5a4.93,4.93,0,0,1,.91,1.5,10.92,10.92,0,0,1,.28,3.91Zm-5.71,1c.09,1.9-.52,2.81-2.94,2.1.14-2.46.19-5,.53-7.56.07-.5,1.2-.87,2.39-1.65,0,3.11-.07,5.13,0,7.14Zm-7.19-52.4.68-.12a72.38,72.38,0,0,1,5,7.35c.54,1-.17,2.68-.22,4.06-.21,5.53-.67,11.08-.47,16.6.16,4.43-2.61,6.94-5,10Zm1.17,45.8v9.33c-.89-.47-2.06-.8-2.06-1.12,0-2.56-.28-5.28,2-8.18Zm-11.24-35c.16-2.5,3.53-4.79,6.16-7l-.92,36.41H367c.1-3.43-.43-6.83.07-10.29a57.58,57.58,0,0,1-.47-6.8c-.78-4,.61-8.23.84-12.32ZM358.39,101a1.36,1.36,0,0,1,.24-.82c1.54-1.82,3.11-3.61,4.92-5.69v5h0a22.86,22.86,0,0,0,.28,2.86,1.74,1.74,0,0,1-.48,1.58c.64,5.44-.87,11,.08,16.67l-5-.24c-.06-6.61-.06-13,0-19.35Zm-9.27,16.45a11,11,0,0,0,.24-3.16c-.83-4.49,1.64-7.17,5-9.54v15.52c-1.08,0-1.93-.07-2.77,0-2.24.25-2.7-1-2.48-2.81Zm-20.74,15.76c0-3.65,5.06-8.08,8.7-7.71,1.34.13,2.68.31,4.73.56v43.11l-12.35.81c-.28-4.24-.67-8.16-.76-12.08-.21-8.22-.28-16.45-.33-24.68Zm3.77,43.43a2.29,2.29,0,0,1-1.81.18,28.33,28.33,0,0,1-1.63-3.93h4.16a24.34,24.34,0,0,1-.72,3.76Zm4,.26c-.53-.66-1.36-1.24-1.53-2-.43-1.91.3-3,3.49-2.3Zm5.7-.2a2,2,0,0,1-1.23,0c-.49-1.35-.86-2.74-1.34-4.38h3.6c-.39,1.6-.64,3-1.07,4.38Zm3.8-57h-6l6-6.58Zm16.72,28.65c.06.28,1.13.35,1.94.58.19-2.34-.88-5,2.48-5.94v34.92l-1.17.2c-.12-.56-.26-1.13-.4-1.69a12.25,12.25,0,0,1-.2,1.9c-.19,1.26-1.48,1.36-2.31.77v.74c-.93-.59-1.85-1.65-2.83-1.71-3.71-.2-7.45-.08-11.89-.08V152.94a9.3,9.3,0,0,0-1-2.78c.23-.49.89-1.23.9-2,.08-7.25,0-14.5,0-21.94h23.78l-7.2,11-.23-4.36c-1.62-.72-2.16-.19-2.27,1.56-.13,2.21-.87,4.4-.81,6.59a40.57,40.57,0,0,0,1.16,7.4ZM399,180.08l-26.89-1.47c0-4.06.33-8-.1-11.86-.41-3.68,1-7.56-1.18-11.12-.26-.43-2-2.4.69-3.09.53-.13.56-2.8.58-4.3,0-2-.2-4-.34-6.44,3.9,0,7.56-.07,11.21.07.64,0,1.3.9,1.86,1.48,1.58,1.63,3,1.93,4.56-.1a4.37,4.37,0,0,1,2.81-1.39c2.28-.2,4.58-.06,6.81-.06Zm69.2-66.64a8.77,8.77,0,0,1,3.53,8.1c-.22,3.38,0,6.8-.11,10.19a2.5,2.5,0,0,1-1.59,1.73c-.48.12-1.75-.78-1.76-1.24C468.17,126,468.24,119.7,468.24,113.44Zm-6.3,4c.13-1.74,1.78-3.38,3.35-4.85,0,6.17,0,12.34,0,18.51,0,1.93-1.37,2.33-3.45,1.8-.07-5.24-.31-10.39.06-15.5Zm-24.62-6c3.13,5.28,6.1,10.16,8.92,15.13,1,1.73-2.39,6.42-4.69,6.49-4.07.13-8.16.13-12.23.06-1.69,0-4.39-4.4-3.48-5.71,3.63-5.29,7.4-10.45,11.4-16Zm-6.32.36-8.62,11.67-6.45-10.67Zm-20,1.66c2.76,4.6,5.37,8.92,7.94,13.28a1.76,1.76,0,0,1,0,1.34c-1.61,4.22-5.21,6.39-10.32,6v-7.51l4.12,5.33,2.5-2-7.72-11.75ZM402.81,133a7.9,7.9,0,0,1-1.86-3.73c-.09-.75,1-2.08,1.84-2.41s2.2.09,3.1.18a39.35,39.35,0,0,1,.35,4.87c0,.74-.61,2-1,2.05a3.34,3.34,0,0,1-2.5-1Zm45,52-16.08-.88a2.56,2.56,0,0,1,.06-.77q.37-2.53.75-5.06a36.64,36.64,0,0,0-6.23-.19c-.66.08-1.22,1.65-1.65,2.61a28.8,28.8,0,0,0-1,3.11l-9.91-.5.2-2.51h-4.33a45.29,45.29,0,0,1-.84-5.92c-.12-6.21,0-12.43,0-18.66-2.44-.4-2.21,1-2.17,2.45q.28,10.33.49,20.67c0,.73-.07,1.47-.13,2.45-3-1.14-3.34-3.6-3.35-5.81,0-9.09.25-18.18.33-27.27a48.09,48.09,0,0,0-.55-5.34l3.11-.15v6.68c2.6.32,2.22-1.42,2.26-2.78s0-2.84,0-5c2.47,3,4.52,3.67,6.39.3.22-.39,1.21-.46,1.85-.47q4.67-.07,9.34,0a2.89,2.89,0,0,1,1.85.5c1.43,1.44,2.51,1.58,4.15.08,1.2-1.1,2.85-1.15,4.24.49,2.76,3.24,3.27,3,6.35.21,1.09-1,2.93-1.18,4.94-1.93Zm2.33-61.55-7.5-12.31,17.75-1.41Zm8.28-1.37v11.1l-2.94-.68c-.07-3.94-1-7.87,2.88-10.5ZM454,141.87c.66.27,1.4.33,1.72.74,1.19,1.5,2.2,1.57,3.46.07A2.64,2.64,0,0,1,461,142c4.84-.06,9.67,0,14.64,0v22.85l-21.63.92Zm20.85,44.73c-4.11-1.34-7.84-.56-11.49-.74a75.45,75.45,0,0,1-8-.8c-.47-.07-1.1-1.17-1.11-1.8-.09-4.63,0-9.26,0-14.14l21.36-1c-.11,6.31.36,12.5-.83,18.4Zm2.64-53.92c-.23.64-1.44.93-2.68,1.66v-10a7.31,7.31,0,0,1,2.61,8.26Z" transform="translate(0)"/></svg>