<svg id="Layer_2" data-name="Layer 2" xmlns="http://www.w3.org/2000/svg" viewBox="0 0 1280 700"><defs><style>.cls-1{fill:#6b97bf;opacity:0.3;}.cls-2{fill:#fff;}.cls-3{fill:#f7e0cd;}.cls-4{fill:#c1946b;}.cls-5{fill:none;stroke:#9b7759;stroke-miterlimit:10;}.cls-6{fill:#931d09;}.cls-7{fill:#ef3218;}.cls-8{fill:#6b77bf;}</style></defs><title>birthingnew</title><rect class="cls-1" width="1280" height="698.82"/><path class="cls-2" d="M413.19,344.6s-1.27,2.53,2.53,2.53,22.18-2.58,26.28-12.68-6.46,0-12.92,1.1-22.37-4.1-25.47-11.92c0,0,0-1.36,1.19-1.18s2.18-1.37-2-3.28-3.19-5.18-.82-5.64,4.45-2.54,4.36-3.45-8-.44-7.18,2.73c0,0-4.28,3.18-4.19-1.82s6.55-4.55,6.55-4.55,8.19,1.27,8.37-1.55-.36-3.45,4.73-3.45,14.64-1.55,16.55,2.45,7.64-3.27,16.65-3.54a3,3,0,0,1,3.09,2.27c.64,2.46,3.09,3.55,5.09,1.55s4.55.45,4.82-1.28-1.27-2-2.82-1.91-1.63-3,1-3.82-7.09-13.55-7.09-18.37-.18-6.91-5.09-7-8-7.82-4.46-13.1-2.09-7.28-6.18-6.55-7.37-2.18-7.37-8.46,14.46-9.64,14.82-14.28,6-8.64,9.92-8.46,2.45,9.83,8.36,8.83.73-3.73,11.92-3.73,7.19-7.55,13.1-9.37-1.46-7.09,8.46-9.91,17.37-15.65,17.73-21,9.64-1.82,9.73-4.73,3.73-2.1,2.91-7,13.92-14.19,13.92-14.19,1.45-1.09,0-2a3.43,3.43,0,0,1-.18-5.82c2.73-2.27-.58-2.71-.47-6.71s6.34-4.5,7.06-5.94,6.45,0,7.27-1.53,4.1-3.28,1.33-6.45-12.18-1.33-12.18-5.53-4.82-1.64-5.94-3.38a17.55,17.55,0,0,0-8.5-7.58c-5-1.95-4.2-6.86-2.66-8.5s-1.85-2.56-1.44-4.81,1.85-3.79.11-5.53c0,0-3.49-10.45-1.34-14.23s5.09.56,5.62-2.49,3.45-1.4,5.45-3.73,4.12-6-.07-7.64-3.85-2-3.85-3.92,2.32-1.66,1.73-2.93-11.5-.33-12.1-7.64c0,0-.47-2.59-3.52-1.46s-7.25-1.46-7.25-5.85a4.29,4.29,0,0,1,4-4.59s4.78.2,6.25-3.72,3.78-5.52,5.85-5.58,4.32.2,6,2.46,2.53-3.06,5.26-3.39,3.45,1.59,5.84-.74,15.18-3,21.88,0A9.94,9.94,0,0,1,564.93,36c-.23,3.27,1.67-1.75,3.88-.91s4.79,11.34,9.13,11.26,2.66,3.35,4.57,3.35,5.93-.23,5.25,5.93,11.41,2.29,13,5.71c0,0,.92,1.07,0,3.35s8.31,3.71,17.15-2.59,12.92-2.3,16.69-4.59,2.21,3.28,10.23,3.44,9.49,5.81,8.18,9.9-1.52,11.29-6.16,13.35-2.06,5.15-4.89,5.15-1.29,6.05-3.74,7.85-6.69,1.16-6.69,1.16-4.64-1.41-3.61,2.58,3.86,4.12,2.83,6.57-5.15.12-3.22,4.76,8.37,0,8.5,4-3.73,1.55-1.28,6.18,4.5,3.74,2.57,6.57-6.57-.64-8.76,4.64-5.15.12-5.15.12-1.67-6.43-4.12-3.86-.9,10.56,1.16,16,3,5.15,1.81,8.75-.26,2.45,1,4.51-.26-4.63,3-3.86,7.34,14.16,10.3,12.75,4.12-1.94,5.41.51,3.86.65,5.66,2.71-.77,6.69,3.61,6.95,7.08,1.54,7.59,3,4.77,1.67,4.77,3.86-3.86,1.68-4.51,4.64-4.38.77-4.38,4.51-2.57.38-2.44,5.66-3.09,1.55-2.45,6.83-4.63,7.21-4.63,7.21-1.68,2.57.51,3.47,2.06,2.71,3.48,2.84,3-2.45,4.63-1.68,4.9,6.7,9.15,7.34,3.47,6.18,6.82,6.18,6.05,6.18,9.27,5.54,2.71-2.45,7.73,1.67,5.66.91,7.72,2.32.26,5,4.38,5,6.18,0,6.57,2.58,2.19-2.45,4.89-2.45,4.77,4,8.5,1.93,6.18-1.41,6.18-1.41a5.25,5.25,0,0,1,3,3c.78,2.19,5.8-1.42,6.57,1.8s-1.93,7.21,1.67,7.21,7.6,5,10.31,4.77,3.86-3.86,7.08-3.86.64,6.95,3.6,7.08,7.6-4.51,14.43.9,6.56-.9,9.27-.77.64,4.37,5.28,4.37,7.08-4.37,9.91-3,1.68,3.61,3.74,2.45-1.42-5.15.77-5.15,5.28-3,2.32-6.44-4.51-4.51-4.51-9.92,3.86-5.53,3.86-9.14.9-6.82,3.48-6.44,3.48-3.6,6.18-3.09,5,.78,5.28,6.06-3.74,6.43-2.45,9.14,3.09,1.16,3.09,3.22-3.35,3.09-1.8,5.53,3,.91,4.64,3.22,3.21.65,5.28.78,6.43,6.31,11.2,4.76,6.44-6.7,11.72-6.57,6.05,3.74,12.61,3.74,19.45,0,20.61-2.84-2.71-2.57-2.71-5.4,3.14-3.22,2.92-4.9-2.79-3.86-6.26-1.93-7.86-3.09-4.9-5.92,6.05.9,7.6-.52,3.73-5.28,8.63-4,2.19-7,6.69-9.27,5.93-2.7,7.73-8.63,7.21-.77,9.27-1.54,8.24-8,11.72-13.52,8-4,10.69-.65,5.28-.77,9.14,2.58,3.22-8,12-9.92,5.8,7,3.09,9.15,4.12,5.79,7.73-.13,8.24,3.09-1.67,11.46,4.07-2.45,6-1.16c0,0,1.8.35,1.34,2.65s10.3-4,12.22,2.29-4.41,10.85-4.41,10.85-5.23,5.05-.73,9.09,5.24,5.06,3.77,6.16-5-1.29-6.71-3.77-8.36-1.84-12,2.57-11.85,9.19-17,13.42-2.39,7.44-2.29,10.84-3.4,2.76-2.58,6,.83,4.6-2.29,7.26-6.25,8.46-3.31,10.39,1.93,6.89.64,8.36-7.53,7.62-8.45,15.53-2.48,1.47-5.61,1.93-2.2-3.77-5.42-1.47-7.62-2.12-7.44,2.11,7.26,8.73,4.59,17.92-7.35,4.77-6.8,7.16-.91,8,2.21,9.19,2.48,6.89.09,6.8-1.93,1.38-3.12,3.77-4,1.56-4.69-1.75-4.87,3.49-5.24-.55.1-10.38-3.85-15.9,1-18.19-3.22-18.74-2.3,2.3-5.24,2,1.38,4.6-1.19,4.6-4.23,3.86-2.76,6.15-.46,5.06-2,4.78-3.49.09-4.14-4.32-4,.92-4.31-1.84-6-12.86.92-16.81,3.76-3.4,8.36-3,.36-4.32,5.33-5.52.82-10.56,4.31-10.56,5.15,2.29,4.78-.65-1-3.67-4.78-3.58-5.42-3-8.82-2-3.86,1.65-12.68.27-26.46,1.93-29.95-2.66,3-19.11-1.47-18.95-.16,6.82-6.5,5.87-6-11.1-8.56-10-2.22,9.19-4.91,6.82-3.81-8.56-7.14-8.56,2.54,2.85,1.27,4-6,3.49-5.86,7-1.91,5.08,2.53,5.71,2.86,6.82,6.34,6.5,3.65-4.76,5.71-1.27-.63,4.28,2.22,5.87-3.33,1.58-7.77.31,1,8.41-3.49,8.41-7,0-5.54,4,12.2,3.33,13.31,8.24-3.8,7.77-3.8,9-2.22,7,3.8,8.24-3,6.18,2.86,8.24,3.64,18.08,3.64,18.08-7.29.35-8.24,6-6.18,7.27-7,5.53-3.64-7.29-5.55-2.22-8.24,8.24-8.24,8.24-16.8.48-15.06,11.26,5.55,5.39,3.81,10.3-9.36-.47-7.61,5.39-6.34,2.54-6.34,6.82-12.84,6.18-12.84,6.18-15.38,3.17-23.15,18.07-23.14,23.15-23.14,23.15-7.77,4-10.31,9-4.28.32-7.61,2.54S683.85,485,683.85,485s-1.9,6.66-7.45,7.77-8.4-1.9-11.09,0-5.71,15.06-12.21,14-5.86-6.34-11.89-1.74-8.24,17.12-4.44,21.4-3.33,9.51-1.11,16.64,2.22,5.08,1.59,18.08-4.44,20.29-4.44,20.29-9.83,7.45-8.4,15.22,5.55,25.36,4,28.85-1,.47-7.45,1.58-8.4-2.38-8.4,1.9-13,14.43-6.34,18.08-9.36,3.48-9.36,3.48-9,.16-10.3,9-7.29,18.07-18.39,16S544.67,654,545,645.28s.79-7.45-1.91-14.26-8.71-30.44-10.62-32.5-12.2-10.78-12.36-19.34-10-22.83-8.72-33.93-12.84-25.84-14.11-33.92S489.5,497.38,487.6,466s-7-29-6.5-36.94-2.38-6.49-.47-21.87,6-9.2,6.81-15.38-1.58-10.3-2.53-16.17,4.59-5.39,2.85-7.61-2.85-.47-3.81-5.55-.15-10.14-3.32-7.29-1.75,16.65-6.19,18.87-12,1.9-17.75,7.29-17.6,2.54-26.79-8.72-23-24.73-20.45-29.64S413.19,344.6,413.19,344.6Z"/><rect class="cls-3" x="592.96" y="204.13" width="7.4" height="18.61" rx="3.7" ry="3.7"/><rect class="cls-3" x="561.18" y="204.13" width="7.4" height="18.61" rx="3.7" ry="3.7"/><rect class="cls-3" x="571.35" y="223.2" width="7.4" height="23.04" rx="3.7" ry="3.7"/><rect class="cls-3" x="582.31" y="223.2" width="7.4" height="23.04" rx="3.7" ry="3.7"/><rect class="cls-3" x="565.62" y="199.18" width="30.29" height="33.04" rx="8.13" ry="8.13"/><circle class="cls-4" cx="563.36" cy="222.99" r="3.84"/><circle class="cls-4" cx="598.23" cy="222.99" r="3.84"/><circle class="cls-4" cx="580.76" cy="188.24" r="15.89"/><circle cx="572.33" cy="188.24" r="1.49"/><circle cx="589.2" cy="188.24" r="1.49"/><path class="cls-5" d="M579.18,192.11a1.59,1.59,0,0,1,3.17,0"/><line class="cls-5" x1="580.76" y1="190.53" x2="580.76" y2="183.36"/><line class="cls-5" x1="578.75" y1="196.75" x2="582.78" y2="196.75"/><path class="cls-6" d="M565.82,183.23a42.75,42.75,0,0,1,29.91,0V165.94H565.82S565.37,183.23,565.82,183.23Z"/><path class="cls-4" d="M578.75,242.54a3.72,3.72,0,0,1-3.7,3.7h0a3.71,3.71,0,0,1-3.7-3.7"/><path class="cls-4" d="M589.71,242.54a3.72,3.72,0,0,1-3.7,3.7h0a3.72,3.72,0,0,1-3.7-3.7"/><circle class="cls-7" cx="580.88" cy="181.68" r="0.65"/><rect class="cls-3" x="784.43" y="345.31" width="7.4" height="18.61" rx="3.7" ry="3.7"/><rect class="cls-3" x="752.65" y="345.31" width="7.4" height="18.61" rx="3.7" ry="3.7"/><rect class="cls-3" x="762.83" y="364.38" width="7.4" height="23.04" rx="3.7" ry="3.7"/><rect class="cls-3" x="773.79" y="364.38" width="7.4" height="23.04" rx="3.7" ry="3.7"/><rect class="cls-3" x="757.1" y="340.36" width="30.29" height="33.04" rx="8.13" ry="8.13"/><circle class="cls-4" cx="754.84" cy="364.17" r="3.84"/><circle class="cls-4" cx="789.71" cy="364.17" r="3.84"/><circle class="cls-4" cx="772.24" cy="329.42" r="15.89"/><circle cx="763.81" cy="329.42" r="1.49"/><circle cx="780.67" cy="329.42" r="1.49"/><path class="cls-5" d="M770.66,333.29a1.58,1.58,0,1,1,3.16,0"/><line class="cls-5" x1="772.24" y1="331.71" x2="772.24" y2="324.54"/><line class="cls-5" x1="770.22" y1="337.93" x2="774.26" y2="337.93"/><path class="cls-6" d="M757.3,324.41a42.75,42.75,0,0,1,29.91,0V307.12H757.3S756.85,324.41,757.3,324.41Z"/><path class="cls-4" d="M770.22,383.72a3.71,3.71,0,0,1-3.69,3.7h0a3.71,3.71,0,0,1-3.7-3.7"/><path class="cls-4" d="M781.19,383.72a3.72,3.72,0,0,1-3.7,3.7h0a3.71,3.71,0,0,1-3.7-3.7"/><circle class="cls-7" cx="772.36" cy="322.86" r="0.65"/><rect class="cls-3" x="711.54" y="447.81" width="7.4" height="18.61" rx="3.7" ry="3.7"/><rect class="cls-3" x="679.76" y="447.81" width="7.4" height="18.61" rx="3.7" ry="3.7"/><rect class="cls-3" x="689.93" y="466.87" width="7.4" height="23.04" rx="3.7" ry="3.7"/><rect class="cls-3" x="700.9" y="466.87" width="7.4" height="23.04" rx="3.7" ry="3.7"/><rect class="cls-3" x="684.2" y="442.85" width="30.29" height="33.04" rx="8.13" ry="8.13"/><circle class="cls-4" cx="681.95" cy="466.66" r="3.84"/><circle class="cls-4" cx="716.82" cy="466.66" r="3.84"/><circle class="cls-4" cx="699.35" cy="431.92" r="15.89"/><circle cx="690.92" cy="431.92" r="1.49"/><circle cx="707.78" cy="431.92" r="1.49"/><path class="cls-5" d="M697.77,435.78a1.58,1.58,0,1,1,3.16,0"/><line class="cls-5" x1="699.35" y1="434.2" x2="699.35" y2="427.03"/><line class="cls-5" x1="697.33" y1="440.42" x2="701.37" y2="440.42"/><path class="cls-6" d="M684.4,426.9a42.83,42.83,0,0,1,29.91,0V409.61H684.4S684,426.9,684.4,426.9Z"/><path class="cls-4" d="M697.33,486.21a3.7,3.7,0,0,1-3.7,3.7h0a3.71,3.71,0,0,1-3.7-3.7"/><path class="cls-4" d="M708.29,486.21a3.7,3.7,0,0,1-3.7,3.7h0a3.7,3.7,0,0,1-3.69-3.7"/><circle class="cls-7" cx="699.46" cy="425.35" r="0.65"/><rect class="cls-3" x="627.11" y="518.36" width="7.4" height="18.61" rx="3.7" ry="3.7"/><rect class="cls-3" x="595.33" y="518.36" width="7.4" height="18.61" rx="3.7" ry="3.7"/><rect class="cls-3" x="605.5" y="537.43" width="7.4" height="23.04" rx="3.7" ry="3.7"/><rect class="cls-3" x="616.46" y="537.43" width="7.4" height="23.04" rx="3.7" ry="3.7"/><rect class="cls-3" x="599.77" y="513.41" width="30.29" height="33.04" rx="8.13" ry="8.13"/><circle class="cls-4" cx="597.51" cy="537.22" r="3.84"/><circle class="cls-4" cx="632.38" cy="537.22" r="3.84"/><circle class="cls-4" cx="614.91" cy="502.47" r="15.89"/><circle cx="606.48" cy="502.47" r="1.49"/><circle cx="623.35" cy="502.47" r="1.49"/><path class="cls-5" d="M613.33,506.34a1.59,1.59,0,0,1,3.17,0"/><line class="cls-5" x1="614.91" y1="504.76" x2="614.91" y2="497.59"/><line class="cls-5" x1="612.89" y1="510.98" x2="616.93" y2="510.98"/><path class="cls-6" d="M600,497.46a42.75,42.75,0,0,1,29.91,0V480.17H600S599.52,497.46,600,497.46Z"/><path class="cls-4" d="M612.9,556.77a3.72,3.72,0,0,1-3.7,3.7h0a3.71,3.71,0,0,1-3.7-3.7"/><path class="cls-4" d="M623.86,556.77a3.72,3.72,0,0,1-3.7,3.7h0a3.72,3.72,0,0,1-3.7-3.7"/><circle class="cls-7" cx="615.03" cy="495.91" r="0.65"/><rect class="cls-4" x="801.94" y="335.29" width="7.4" height="23.04" rx="3.7" ry="3.7"/><rect class="cls-4" x="812.9" y="335.29" width="7.4" height="23.04" rx="3.7" ry="3.7"/><rect class="cls-4" x="823.55" y="316.22" width="7.4" height="18.61" rx="3.7" ry="3.7"/><rect class="cls-4" x="791.77" y="316.22" width="7.4" height="18.61" rx="3.7" ry="3.7"/><rect class="cls-8" x="796.21" y="311.27" width="30.29" height="45.43" rx="8.13" ry="8.13"/><circle class="cls-4" cx="811.35" cy="300.33" r="15.89"/><circle class="cls-4" cx="793.95" cy="335.08" r="3.84"/><circle class="cls-4" cx="828.82" cy="335.08" r="3.84"/><circle cx="802.92" cy="300.33" r="1.49"/><circle cx="819.79" cy="300.33" r="1.49"/><path class="cls-5" d="M809.77,304.2a1.59,1.59,0,0,1,3.17,0"/><line class="cls-5" x1="811.35" y1="302.62" x2="811.35" y2="295.45"/><line class="cls-5" x1="809.34" y1="308.84" x2="813.37" y2="308.84"/><path d="M804.42,292.53s2.56-7.15,10-5.07,0,7,7.93,8.84-2.39,9.77,1.46,12.25c2.35,1.51-3.85,3.23-1.46,5.57s4.42-.91,6.5,0,4.43,1.06,2.87-2.85-3.51-4.79-1.82-7.86,3.45-3.6,1.07-8.67.88-5.77-6.66-10.3-4.3-6.87-13.79-4.39-9.46-.78-13.84,3S796.65,296.3,804.42,292.53Z"/><path d="M792.25,293.54s2.75-3.72,5.74-1.93-1.28,8.13,0,10.22-1.25,5.69.37,7.65,2.83.59,2.36,2.65-1.34,1.1-4.07,2.17-5-3.54-3.84-5.46,1.58-1.82-.56-4.07,1-5.56,0-7.75A3.54,3.54,0,0,1,792.25,293.54Z"/><rect class="cls-4" x="647.53" y="498.07" width="7.4" height="23.04" rx="3.7" ry="3.7"/><rect class="cls-4" x="658.49" y="498.07" width="7.4" height="23.04" rx="3.7" ry="3.7"/><rect class="cls-4" x="669.14" y="479" width="7.4" height="18.61" rx="3.7" ry="3.7"/><rect class="cls-4" x="637.36" y="479" width="7.4" height="18.61" rx="3.7" ry="3.7"/><rect class="cls-8" x="641.8" y="474.04" width="30.29" height="45.43" rx="8.13" ry="8.13"/><circle class="cls-4" cx="656.94" cy="463.11" r="15.89"/><circle class="cls-4" cx="639.54" cy="497.85" r="3.84"/><circle class="cls-4" cx="674.41" cy="497.85" r="3.84"/><circle cx="648.51" cy="463.11" r="1.49"/><circle cx="665.38" cy="463.11" r="1.49"/><path class="cls-5" d="M655.36,467a1.59,1.59,0,0,1,3.17,0"/><line class="cls-5" x1="656.94" y1="465.39" x2="656.94" y2="458.22"/><line class="cls-5" x1="654.93" y1="471.61" x2="658.96" y2="471.61"/><path d="M650,455.3s2.56-7.15,10-5.07,0,7,7.93,8.85-2.39,9.76,1.46,12.24c2.35,1.51-3.85,3.23-1.46,5.57s4.42-.91,6.5,0,4.43,1.06,2.87-2.85-3.51-4.78-1.82-7.86,3.45-3.59,1.07-8.66.88-5.77-6.66-10.3-4.3-6.87-13.79-4.4-9.46-.78-13.84,3S642.24,459.08,650,455.3Z"/><path d="M637.84,456.31s2.75-3.72,5.74-1.93-1.28,8.13,0,10.22-1.26,5.69.37,7.65,2.83.6,2.36,2.66-1.34,1.09-4.07,2.16-5-3.54-3.84-5.46,1.58-1.82-.56-4.06,1-5.56,0-7.76A3.54,3.54,0,0,1,637.84,456.31Z"/><rect class="cls-4" x="484.59" y="332.95" width="7.4" height="23.04" rx="3.7" ry="3.7"/><rect class="cls-4" x="495.55" y="332.95" width="7.4" height="23.04" rx="3.7" ry="3.7"/><rect class="cls-4" x="506.2" y="313.88" width="7.4" height="18.61" rx="3.7" ry="3.7"/><rect class="cls-4" x="474.42" y="313.88" width="7.4" height="18.61" rx="3.7" ry="3.7"/><rect class="cls-8" x="478.86" y="308.92" width="30.29" height="45.43" rx="8.13" ry="8.13"/><circle class="cls-4" cx="494.01" cy="297.99" r="15.89"/><circle class="cls-4" cx="476.6" cy="332.73" r="3.84"/><circle class="cls-4" cx="511.48" cy="332.73" r="3.84"/><circle cx="485.57" cy="297.99" r="1.49"/><circle cx="502.44" cy="297.99" r="1.49"/><path class="cls-5" d="M492.42,301.86a1.59,1.59,0,1,1,3.17,0"/><line class="cls-5" x1="494.01" y1="300.27" x2="494.01" y2="293.1"/><line class="cls-5" x1="491.99" y1="306.49" x2="496.02" y2="306.49"/><path d="M487.07,290.19s2.56-7.16,10-5.08,0,7,7.94,8.85-2.4,9.77,1.45,12.24c2.36,1.51-3.85,3.23-1.45,5.58s4.41-.91,6.5,0,4.42,1.05,2.86-2.86-3.51-4.78-1.82-7.85,3.45-3.6,1.07-8.67.88-5.77-6.66-10.3-4.29-6.87-13.79-4.4-9.46-.78-13.83,3S479.3,294,487.07,290.19Z"/><path d="M474.9,291.19s2.75-3.72,5.75-1.93-1.29,8.14,0,10.22-1.26,5.69.37,7.65,2.82.6,2.35,2.66-1.34,1.09-4.06,2.16-5-3.54-3.85-5.46,1.58-1.81-.56-4.06,1-5.56,0-7.76A3.54,3.54,0,0,1,474.9,291.19Z"/><rect class="cls-3" x="467.42" y="345.05" width="7.4" height="18.61" rx="3.7" ry="3.7"/><rect class="cls-3" x="435.64" y="345.05" width="7.4" height="18.61" rx="3.7" ry="3.7"/><rect class="cls-3" x="445.82" y="364.12" width="7.4" height="23.04" rx="3.7" ry="3.7"/><rect class="cls-3" x="456.78" y="364.12" width="7.4" height="23.04" rx="3.7" ry="3.7"/><rect class="cls-3" x="440.09" y="340.1" width="30.29" height="33.04" rx="8.13" ry="8.13"/><circle class="cls-4" cx="437.83" cy="363.91" r="3.84"/><circle class="cls-4" cx="472.7" cy="363.91" r="3.84"/><circle class="cls-4" cx="455.23" cy="329.16" r="15.89"/><circle cx="446.8" cy="329.16" r="1.49"/><circle cx="463.66" cy="329.16" r="1.49"/><path class="cls-5" d="M453.65,333a1.58,1.58,0,0,1,3.16,0"/><line class="cls-5" x1="455.23" y1="331.45" x2="455.23" y2="324.28"/><line class="cls-5" x1="453.21" y1="337.66" x2="457.25" y2="337.66"/><path class="cls-6" d="M440.29,324.15a42.75,42.75,0,0,1,29.91,0V306.86H440.29S439.83,324.15,440.29,324.15Z"/><path class="cls-4" d="M453.21,383.46a3.71,3.71,0,0,1-3.7,3.7h0a3.71,3.71,0,0,1-3.69-3.7"/><path class="cls-4" d="M464.17,383.46a3.71,3.71,0,0,1-3.69,3.7h0a3.71,3.71,0,0,1-3.7-3.7"/><circle class="cls-7" cx="455.34" cy="322.6" r="0.65"/><rect class="cls-4" x="409.52" y="325.53" width="7.4" height="23.04" rx="3.7" ry="3.7"/><rect class="cls-4" x="420.48" y="325.53" width="7.4" height="23.04" rx="3.7" ry="3.7"/><rect class="cls-4" x="431.13" y="306.46" width="7.4" height="18.61" rx="3.7" ry="3.7"/><rect class="cls-4" x="399.35" y="306.46" width="7.4" height="18.61" rx="3.7" ry="3.7"/><rect class="cls-8" x="403.79" y="301.51" width="30.29" height="45.43" rx="8.13" ry="8.13"/><circle class="cls-4" cx="418.93" cy="290.57" r="15.89"/><circle class="cls-4" cx="401.53" cy="325.31" r="3.84"/><circle class="cls-4" cx="436.4" cy="325.31" r="3.84"/><circle cx="410.5" cy="290.57" r="1.49"/><circle cx="427.37" cy="290.57" r="1.49"/><path class="cls-5" d="M417.35,294.44a1.59,1.59,0,0,1,3.17,0"/><line class="cls-5" x1="418.93" y1="292.86" x2="418.93" y2="285.69"/><line class="cls-5" x1="416.91" y1="299.07" x2="420.95" y2="299.07"/><path d="M412,282.77s2.56-7.15,10-5.07,0,7,7.93,8.84-2.39,9.77,1.46,12.24c2.35,1.52-3.85,3.23-1.46,5.58s4.42-.91,6.5,0,4.43,1.06,2.87-2.85-3.51-4.79-1.82-7.86,3.45-3.6,1.07-8.67.88-5.77-6.67-10.3-4.29-6.87-13.78-4.4-9.46-.78-13.84,3S404.23,286.54,412,282.77Z"/><path d="M399.83,283.77s2.75-3.71,5.74-1.92-1.28,8.13,0,10.22-1.26,5.69.37,7.65,2.83.59,2.36,2.65-1.34,1.1-4.07,2.17-5-3.54-3.84-5.47,1.58-1.81-.56-4.06,1-5.56,0-7.76A3.54,3.54,0,0,1,399.83,283.77Z"/><rect class="cls-4" x="494.52" y="407.85" width="7.4" height="23.04" rx="3.7" ry="3.7"/><rect class="cls-4" x="505.49" y="407.85" width="7.4" height="23.04" rx="3.7" ry="3.7"/><rect class="cls-4" x="516.13" y="388.78" width="7.4" height="18.61" rx="3.7" ry="3.7"/><rect class="cls-4" x="484.35" y="388.78" width="7.4" height="18.61" rx="3.7" ry="3.7"/><rect class="cls-8" x="488.79" y="383.82" width="30.29" height="45.43" rx="8.13" ry="8.13"/><circle class="cls-4" cx="503.94" cy="372.89" r="15.89"/><circle class="cls-4" cx="486.54" cy="407.63" r="3.84"/><circle class="cls-4" cx="521.41" cy="407.63" r="3.84"/><circle cx="495.51" cy="372.89" r="1.49"/><circle cx="512.37" cy="372.89" r="1.49"/><path class="cls-5" d="M502.36,376.76a1.58,1.58,0,0,1,3.16,0"/><line class="cls-5" x1="503.94" y1="375.18" x2="503.94" y2="368.01"/><line class="cls-5" x1="501.92" y1="381.39" x2="505.96" y2="381.39"/><path d="M497,365.09s2.56-7.16,10-5.07,0,7,7.94,8.84-2.4,9.77,1.45,12.24c2.36,1.52-3.85,3.23-1.45,5.58s4.41-.91,6.5,0,4.42,1.05,2.86-2.86-3.51-4.78-1.82-7.85,3.45-3.6,1.08-8.67.87-5.77-6.67-10.3-4.29-6.87-13.79-4.4-9.46-.78-13.83,3S489.24,368.86,497,365.09Z"/><path d="M484.83,366.09s2.75-3.72,5.75-1.93-1.29,8.14,0,10.22-1.26,5.69.37,7.66,2.83.59,2.35,2.65-1.34,1.09-4.06,2.16-5-3.53-3.85-5.46,1.58-1.81-.56-4.06,1-5.56,0-7.76A3.54,3.54,0,0,1,484.83,366.09Z"/><rect class="cls-3" x="558.74" y="363.16" width="7.4" height="18.61" rx="3.7" ry="3.7"/><rect class="cls-3" x="526.96" y="363.16" width="7.4" height="18.61" rx="3.7" ry="3.7"/><rect class="cls-3" x="537.13" y="382.22" width="7.4" height="23.04" rx="3.7" ry="3.7"/><rect class="cls-3" x="548.09" y="382.22" width="7.4" height="23.04" rx="3.7" ry="3.7"/><rect class="cls-3" x="531.4" y="358.2" width="30.29" height="33.04" rx="8.13" ry="8.13"/><circle class="cls-4" cx="529.14" cy="382.01" r="3.84"/><circle class="cls-4" cx="564.01" cy="382.01" r="3.84"/><circle class="cls-4" cx="546.54" cy="347.27" r="15.89"/><circle cx="538.11" cy="347.27" r="1.49"/><circle cx="554.98" cy="347.27" r="1.49"/><path class="cls-5" d="M545,351.13a1.58,1.58,0,0,1,3.16,0"/><line class="cls-5" x1="546.54" y1="349.55" x2="546.54" y2="342.38"/><line class="cls-5" x1="544.52" y1="355.77" x2="548.56" y2="355.77"/><path class="cls-6" d="M531.6,342.25a42.82,42.82,0,0,1,29.91,0V325H531.6S531.15,342.25,531.6,342.25Z"/><path class="cls-4" d="M544.53,401.56a3.71,3.71,0,0,1-3.7,3.7h0a3.7,3.7,0,0,1-3.7-3.7"/><path class="cls-4" d="M555.49,401.56a3.71,3.71,0,0,1-3.7,3.7h0a3.71,3.71,0,0,1-3.7-3.7"/><circle class="cls-7" cx="546.66" cy="340.7" r="0.65"/><rect class="cls-3" x="583.3" y="393.35" width="7.4" height="18.61" rx="3.7" ry="3.7"/><rect class="cls-3" x="551.52" y="393.35" width="7.4" height="18.61" rx="3.7" ry="3.7"/><rect class="cls-3" x="561.69" y="412.42" width="7.4" height="23.04" rx="3.7" ry="3.7"/><rect class="cls-3" x="572.66" y="412.42" width="7.4" height="23.04" rx="3.7" ry="3.7"/><rect class="cls-3" x="555.96" y="388.4" width="30.29" height="33.04" rx="8.13" ry="8.13"/><circle class="cls-4" cx="553.71" cy="412.2" r="3.84"/><circle class="cls-4" cx="588.58" cy="412.2" r="3.84"/><circle class="cls-4" cx="571.11" cy="377.46" r="15.89"/><circle cx="562.67" cy="377.46" r="1.49"/><circle cx="579.54" cy="377.46" r="1.49"/><path class="cls-5" d="M569.53,381.33a1.58,1.58,0,0,1,3.16,0"/><line class="cls-5" x1="571.11" y1="379.75" x2="571.11" y2="372.58"/><line class="cls-5" x1="569.09" y1="385.96" x2="573.13" y2="385.96"/><path class="cls-6" d="M556.16,372.44a42.83,42.83,0,0,1,29.91,0V355.16H556.16S555.71,372.44,556.16,372.44Z"/><path class="cls-4" d="M569.09,431.76a3.72,3.72,0,0,1-3.7,3.7h0a3.72,3.72,0,0,1-3.7-3.7"/><path class="cls-4" d="M580.05,431.76a3.71,3.71,0,0,1-3.7,3.7h0a3.71,3.71,0,0,1-3.69-3.7"/><circle class="cls-7" cx="571.22" cy="370.9" r="0.65"/><rect class="cls-4" x="524.68" y="441.27" width="7.4" height="23.04" rx="3.7" ry="3.7"/><rect class="cls-4" x="535.65" y="441.27" width="7.4" height="23.04" rx="3.7" ry="3.7"/><rect class="cls-4" x="546.29" y="422.2" width="7.4" height="18.61" rx="3.7" ry="3.7"/><rect class="cls-4" x="514.51" y="422.2" width="7.4" height="18.61" rx="3.7" ry="3.7"/><rect class="cls-8" x="518.95" y="417.24" width="30.29" height="45.43" rx="8.13" ry="8.13"/><circle class="cls-4" cx="534.1" cy="406.31" r="15.89"/><circle class="cls-4" cx="516.7" cy="441.05" r="3.84"/><circle class="cls-4" cx="551.57" cy="441.05" r="3.84"/><circle cx="525.67" cy="406.31" r="1.49"/><circle cx="542.53" cy="406.31" r="1.49"/><path class="cls-5" d="M532.52,410.17a1.58,1.58,0,0,1,3.16,0"/><line class="cls-5" x1="534.1" y1="408.59" x2="534.1" y2="401.42"/><line class="cls-5" x1="532.08" y1="414.81" x2="536.12" y2="414.81"/><path d="M527.16,398.51s2.56-7.16,10-5.08,0,7,7.94,8.85-2.4,9.76,1.45,12.24c2.36,1.51-3.85,3.23-1.45,5.58s4.41-.92,6.5,0,4.42,1,2.86-2.86-3.51-4.78-1.82-7.86,3.45-3.59,1.08-8.66.87-5.77-6.67-10.3-4.29-6.87-13.79-4.4-9.46-.78-13.83,3S519.39,402.28,527.16,398.51Z"/><path d="M515,399.51s2.75-3.72,5.75-1.93-1.29,8.13,0,10.22-1.26,5.69.37,7.65,2.83.6,2.35,2.66-1.34,1.09-4.06,2.16-5-3.54-3.85-5.46,1.58-1.82-.56-4.06,1-5.56,0-7.76A3.54,3.54,0,0,1,515,399.51Z"/><rect class="cls-3" x="514.55" y="455.3" width="7.4" height="18.61" rx="3.7" ry="3.7"/><rect class="cls-3" x="482.77" y="455.3" width="7.4" height="18.61" rx="3.7" ry="3.7"/><rect class="cls-3" x="492.94" y="474.37" width="7.4" height="23.04" rx="3.7" ry="3.7"/><rect class="cls-3" x="503.9" y="474.37" width="7.4" height="23.04" rx="3.7" ry="3.7"/><rect class="cls-3" x="487.21" y="450.35" width="30.29" height="33.04" rx="8.13" ry="8.13"/><circle class="cls-4" cx="484.95" cy="474.15" r="3.84"/><circle class="cls-4" cx="519.83" cy="474.15" r="3.84"/><circle class="cls-4" cx="502.36" cy="439.41" r="15.89"/><circle cx="493.92" cy="439.41" r="1.49"/><circle cx="510.79" cy="439.41" r="1.49"/><path class="cls-5" d="M500.77,443.28a1.59,1.59,0,0,1,3.17,0"/><line class="cls-5" x1="502.36" y1="441.7" x2="502.36" y2="434.53"/><line class="cls-5" x1="500.34" y1="447.91" x2="504.38" y2="447.91"/><path class="cls-6" d="M487.41,434.39a42.82,42.82,0,0,1,29.91,0V417.11H487.41S487,434.39,487.41,434.39Z"/><path class="cls-4" d="M500.34,493.71a3.72,3.72,0,0,1-3.7,3.7h0a3.72,3.72,0,0,1-3.7-3.7"/><path class="cls-4" d="M511.3,493.71a3.71,3.71,0,0,1-3.7,3.7h0a3.72,3.72,0,0,1-3.7-3.7"/><circle class="cls-7" cx="502.47" cy="432.85" r="0.65"/><rect class="cls-3" x="578.63" y="451.94" width="7.4" height="18.61" rx="3.7" ry="3.7"/><rect class="cls-3" x="546.85" y="451.94" width="7.4" height="18.61" rx="3.7" ry="3.7"/><rect class="cls-3" x="557.02" y="471.01" width="7.4" height="23.04" rx="3.7" ry="3.7"/><rect class="cls-3" x="567.98" y="471.01" width="7.4" height="23.04" rx="3.7" ry="3.7"/><rect class="cls-3" x="551.29" y="446.98" width="30.29" height="33.04" rx="8.13" ry="8.13"/><circle class="cls-4" cx="549.03" cy="470.79" r="3.84"/><circle class="cls-4" cx="583.91" cy="470.79" r="3.84"/><circle class="cls-4" cx="566.44" cy="436.05" r="15.89"/><circle cx="558" cy="436.05" r="1.49"/><circle cx="574.87" cy="436.05" r="1.49"/><path class="cls-5" d="M564.85,439.92a1.59,1.59,0,0,1,3.17,0"/><line class="cls-5" x1="566.44" y1="438.34" x2="566.44" y2="431.17"/><line class="cls-5" x1="564.42" y1="444.55" x2="568.46" y2="444.55"/><path class="cls-6" d="M551.49,431a42.82,42.82,0,0,1,29.91,0V413.74H551.49S551,431,551.49,431Z"/><path class="cls-4" d="M564.42,490.35a3.72,3.72,0,0,1-3.7,3.7h0a3.72,3.72,0,0,1-3.7-3.7"/><path class="cls-4" d="M575.38,490.35a3.71,3.71,0,0,1-3.7,3.7h0a3.72,3.72,0,0,1-3.7-3.7"/><circle class="cls-7" cx="566.55" cy="429.48" r="0.65"/><rect class="cls-4" x="526.1" y="522.01" width="7.4" height="23.04" rx="3.7" ry="3.7"/><rect class="cls-4" x="537.06" y="522.01" width="7.4" height="23.04" rx="3.7" ry="3.7"/><rect class="cls-4" x="547.71" y="502.94" width="7.4" height="18.61" rx="3.7" ry="3.7"/><rect class="cls-4" x="515.93" y="502.94" width="7.4" height="18.61" rx="3.7" ry="3.7"/><rect class="cls-8" x="520.37" y="497.98" width="30.29" height="45.43" rx="8.13" ry="8.13"/><circle class="cls-4" cx="535.51" cy="487.05" r="15.89"/><circle class="cls-4" cx="518.11" cy="521.79" r="3.84"/><circle class="cls-4" cx="552.98" cy="521.79" r="3.84"/><circle cx="527.08" cy="487.05" r="1.49"/><circle cx="543.95" cy="487.05" r="1.49"/><path class="cls-5" d="M533.93,490.92a1.59,1.59,0,1,1,3.17,0"/><line class="cls-5" x1="535.51" y1="489.33" x2="535.51" y2="482.16"/><line class="cls-5" x1="533.5" y1="495.55" x2="537.53" y2="495.55"/><path d="M528.58,479.25s2.56-7.16,10-5.08,0,7,7.94,8.85-2.4,9.77,1.45,12.24c2.35,1.51-3.85,3.23-1.45,5.58s4.41-.91,6.49,0,4.43,1.05,2.87-2.86-3.51-4.78-1.82-7.86,3.45-3.59,1.07-8.66.88-5.77-6.66-10.3-4.3-6.87-13.79-4.4-9.46-.78-13.84,3S520.81,483,528.58,479.25Z"/><path d="M516.41,480.25s2.75-3.72,5.75-1.93-1.29,8.14,0,10.22-1.26,5.69.36,7.65,2.83.6,2.36,2.66-1.34,1.09-4.07,2.16-5-3.54-3.84-5.46,1.58-1.81-.56-4.06,1-5.56,0-7.76A3.54,3.54,0,0,1,516.41,480.25Z"/><rect class="cls-4" x="597.03" y="248.82" width="7.4" height="23.04" rx="3.7" ry="3.7"/><rect class="cls-4" x="608" y="248.82" width="7.4" height="23.04" rx="3.7" ry="3.7"/><rect class="cls-4" x="618.64" y="229.76" width="7.4" height="18.61" rx="3.7" ry="3.7"/><rect class="cls-4" x="586.86" y="229.76" width="7.4" height="18.61" rx="3.7" ry="3.7"/><rect class="cls-8" x="591.3" y="224.8" width="30.29" height="45.43" rx="8.13" ry="8.13"/><circle class="cls-4" cx="606.45" cy="213.87" r="15.89"/><circle class="cls-4" cx="589.05" cy="248.61" r="3.84"/><circle class="cls-4" cx="623.92" cy="248.61" r="3.84"/><circle cx="598.02" cy="213.87" r="1.49"/><circle cx="614.88" cy="213.87" r="1.49"/><path class="cls-5" d="M604.87,217.73a1.58,1.58,0,1,1,3.16,0"/><line class="cls-5" x1="606.45" y1="216.15" x2="606.45" y2="208.98"/><line class="cls-5" x1="604.43" y1="222.37" x2="608.47" y2="222.37"/><path d="M599.51,206.06s2.56-7.15,10-5.07,0,7,7.94,8.85-2.4,9.76,1.45,12.24c2.36,1.51-3.85,3.23-1.45,5.57s4.41-.91,6.5,0,4.42,1.06,2.86-2.85-3.51-4.78-1.82-7.86,3.45-3.59,1.08-8.67.87-5.76-6.67-10.29-4.29-6.87-13.79-4.4-9.46-.78-13.83,3S591.75,209.84,599.51,206.06Z"/><path d="M587.34,207.07s2.75-3.72,5.75-1.93-1.29,8.13,0,10.22-1.26,5.69.37,7.65,2.83.6,2.35,2.65-1.34,1.1-4.06,2.17-5-3.54-3.85-5.46,1.58-1.82-.56-4.06,1-5.56,0-7.76A3.54,3.54,0,0,1,587.34,207.07Z"/></svg>