<svg id="Layer_3" data-name="Layer 3" xmlns="http://www.w3.org/2000/svg" viewBox="0 0 349.29 120.46"><defs><style>.cls-1,.cls-6{fill:#d80e0e;stroke:#8e1a0a;}.cls-1,.cls-2,.cls-3,.cls-5,.cls-6{stroke-miterlimit:10;}.cls-1{stroke-width:3px;}.cls-2{fill:#a56b2d;}.cls-2,.cls-3{stroke:#6b4124;stroke-width:2px;}.cls-3{fill:#f9cf7a;}.cls-4{fill:#56ff10;}.cls-5{fill:none;stroke:#56ff10;stroke-width:4px;}.cls-6{stroke-width:5px;}.cls-7{fill:#8e1a0a;}.cls-8{fill:#6b4124;}</style></defs><title>cheese-sticks</title><path class="cls-1" d="M220.54,115.79a29.7,29.7,0,0,1-3.27,12.93c-2.53,4.81-9.26,14.05-39.43,20.18-15.88,3.22-41.6,8.13-75-.57-18.6-4.85-43.38-11.29-45.47-26-1.39-9.76,7.87-19,13.5-23.72L84.95,95a84.56,84.56,0,0,1,22.2-9.54c33.91-9,63.49,6.22,72.78,11.52a52.4,52.4,0,0,0,8,1.17c.91.06,1.56.08,5.56.15,7.4.13,7.13.1,7.44.12,6.14.47,10.75,4.3,11.89,5.25A24.11,24.11,0,0,1,220.54,115.79Z" transform="translate(-55.73 -34.28)"/><path class="cls-2" d="M275.95,72.94a6.89,6.89,0,0,1,.06-3,5.09,5.09,0,0,1,2.06-3c1.94-1.23,4.82-.83,7,1.15a6.78,6.78,0,0,1,.1-5c1.79-3.72,7.84-5.06,10.06-2.79.3.3,1.24,1.41.92,4-1.23-4.28-.45-8.53,2.23-11a6.59,6.59,0,0,1,5-1.9c2.83.37,5.31,3.21,5.85,7.12-.07-.48-.57-4.38,2.15-7,2.49-2.36,7.06-3,9-.81a5.16,5.16,0,0,1,.92,4,12.2,12.2,0,0,1,3.17-7.94c1.09-1.14,3.36-3.5,6.06-2.87s3.81,3.76,3.92,4.08a6.06,6.06,0,0,1,.1-5,6.13,6.13,0,0,1,6.06-2.87,7,7,0,0,1,4.94,3.1,8.88,8.88,0,0,1,2.1-5c2.72-3,8.18-4.36,11-1.77a6.86,6.86,0,0,1,1.9,5,8.67,8.67,0,0,1,4.1-4.92c1.87-.95,5.58-1.85,7,.15,1,1.42.59,3.94-1.13,6A8.58,8.58,0,0,1,375.7,38c4-1.18,8.83,1.28,9.89,5.21a7.82,7.82,0,0,1-1.13,6,9.17,9.17,0,0,1,5-1.9c.69,0,5.7-.2,6.94,3.15.84,2.27-.37,5.31-3.15,6.94a6.57,6.57,0,0,1,5-.9c3.72,1.1,5.9,6.65,3.79,10.08-1.48,2.4-4.47,2.82-5.06,2.89a6,6,0,0,1,6,2.12c1.82,2.46,1,6.06-1.17,8a6.51,6.51,0,0,1-7,.85,6.19,6.19,0,0,1,2.94,3.06c1.19,3-.25,7.29-3.17,7.94-2.52.56-4.8-1.93-5-2.1.14.1,3.23,2.41,2.87,6.06a6.64,6.64,0,0,1-6.12,5.87c-3.67.21-5.84-3-5.94-3.12.35.36,2.29,2.45,1.9,5-.51,3.4-4.73,5.69-8.1,4.83a6.79,6.79,0,0,1-3.94-3.08,7.13,7.13,0,0,1,1.87,6c-.78,3.53-4.51,4.71-5.1,4.89-3.32,1-7.17-.24-9.94-3.21.48.52,2.29,2.61,1.9,5-.57,3.47-5.33,5.62-9.1,4.81s-5.67-4.62-5.89-5.12a7.49,7.49,0,0,1-.13,6c-1.84,3.39-6.74,4.06-10.06,2.79a8.85,8.85,0,0,1-3.94-3.08,4.7,4.7,0,0,1-.08,4c-1.48,2.56-6.22,2.67-9,.81a6.69,6.69,0,0,1-2-2,9.4,9.4,0,0,1-2.12,6c-3,3.43-9.06,4.13-14.65,1.19l-1.76-29.54-1.78-4.66L288.08,84.57C281,80.12,276.48,75.56,275.95,72.94Z" transform="translate(-55.73 -34.28)"/><path class="cls-3" d="M250.12,130.41l.6,1a16.86,16.86,0,0,0,6.83,8.14c.94.56,7.62,4.4,13,1.27a9.44,9.44,0,0,0,3.06-2.94,14,14,0,0,0,5.87,6.12c6.1,3.17,13.69.61,18.08-3.62a18.22,18.22,0,0,0,5.25-11.89A7,7,0,0,1,313,120.72a9.6,9.6,0,0,1-3.85-7.08,9.49,9.49,0,0,1,6.19-8.87,7,7,0,0,1-4.94-3.1c-1.52-2.67-.74-6.52,2.19-9a6.19,6.19,0,0,1-5.94-3.12,6.32,6.32,0,0,1,2.17-8,4.62,4.62,0,0,1-6-2.12,4.51,4.51,0,0,1,1.1-5,16.27,16.27,0,0,1-14-1.29,9.39,9.39,0,0,1-4.08,3.92,9.22,9.22,0,0,1-4,.92,6.74,6.74,0,0,1-1.13,6,6.46,6.46,0,0,1-7,1.85A10.57,10.57,0,0,1,264,72.69l-5.52,1L256.3,80l-9.75-.2-.36,5.12-6.33,3.74,1.35,7.15-2.88,6.32,4,2.08.9,5-1.71,4.09,4.58,2-.22,4.5-2.22,4.33,4.46,1.84Z" transform="translate(-55.73 -34.28)"/><path class="cls-2" d="M262.93,73.67a7.25,7.25,0,0,0,.21-10,9.89,9.89,0,0,0-7-.15,9.59,9.59,0,0,0-4.06,2.92c.55-6.14-3-10.77-6.77-11.14-3.1-.31-5.61,2.37-6.06,2.87a6.08,6.08,0,0,0-4.87-6.1,6,6,0,0,0-6.06,2.87c.45-4.66-2.8-8.66-6.81-9.14a8.11,8.11,0,0,0-8.1,4.83c-.19-5.9-4.47-9.58-7.81-9.17-2.2.27-4.11,2.34-5.1,4.89-1.07-3.48-4.13-5.55-6.89-5.15a6.16,6.16,0,0,0-4.06,2.92A9.14,9.14,0,0,0,182.6,41a8.67,8.67,0,0,0-5,1.9,9,9,0,0,0-17.06,2.64c-2.13-3.75-5.51-5-6.91-4.15s-1.62,3.83-.15,7c-4-2.92-9-2.08-11,.77s-.23,6.82-.15,7a6.15,6.15,0,1,0-2.25,12c-6.17,1.86-9,6.34-8.19,8.83.66,1.91,3.64,3.06,6.94,3.15-5.14,2-6.8,7.19-5.21,9.89,1.21,2.05,4.54,3.07,8,2.17-1.31,4.21.81,8.2,3.81,9.08a6.4,6.4,0,0,0,6-1.87c.51,7.82,3.07,13,5.73,13.12,2.27.14,4.32-3.39,5.1-4.89a7.18,7.18,0,0,0,2.85,7.06c3,1.91,7.61.94,10.06-2.79A6.41,6.41,0,0,0,187,116.09a7,7,0,0,0,12.91,4.27,6.19,6.19,0,0,0,11.93,3.25c0,4.5,3.26,7.4,5.85,7.12,1.75-.19,3.31-1.83,4.08-3.92-.17.24-2.35,3.38-1.13,6,1.48,3.14,7.08,3.73,10,1.21a6.94,6.94,0,0,0,2.1-5,8.49,8.49,0,0,0,.85,7,8,8,0,0,0,3.94,3.08,10.11,10.11,0,0,0,8-.83,9.82,9.82,0,0,0,4.1-4.92,6.59,6.59,0,0,0-7.81-9.17c.54-.27,3.5-1.82,4.1-4.92a6,6,0,0,0,0-2,4.23,4.23,0,0,0-1.94-3,4.32,4.32,0,0,0-4-.08,8,8,0,0,0,4.1-4.92,7,7,0,0,0,.06-3,6.18,6.18,0,0,0-2.94-3.06,6.3,6.3,0,0,0-5-.1,12.17,12.17,0,0,0,5.21-9.89,3,3,0,0,0,0-2,3.76,3.76,0,0,0-4-2.08,11.75,11.75,0,0,0,6-1.87,11.54,11.54,0,0,0,3.06-2.94,3,3,0,0,0,1-2,3.19,3.19,0,0,0-1.94-3c.65.4,4.7,2.8,9,1.19a9,9,0,0,0,3-1.94,3.6,3.6,0,0,0,1-2,3.8,3.8,0,0,0-.94-3,3.8,3.8,0,0,0,3,1.06A3.6,3.6,0,0,0,262.93,73.67Z" transform="translate(-55.73 -34.28)"/><path class="cls-4" d="M137-171" transform="translate(-55.73 -34.28)"/><path class="cls-5" d="M120-171" transform="translate(-55.73 -34.28)"/><path class="cls-6" d="M-95.5-217.5" transform="translate(-55.73 -34.28)"/><path class="cls-7" d="M164,127.25a271.7,271.7,0,0,1-43.52-.89c-7.27-.75-15.63-1.46-21.17-6.81-2.53-2.44-5-6.48-3.8-10.15,1.25-4,7.41-5.05,10.84-6.3,1.8-.66,1-3.56-.8-2.89-5.65,2.06-13,3.4-13.25,10.66-.28,6.94,5.47,12.48,11.39,15,8.33,3.6,18.49,3.77,27.41,4.32a273.79,273.79,0,0,0,32.91,0c1.92-.11,1.93-3.11,0-3Z" transform="translate(-55.73 -34.28)"/><path class="cls-8" d="M176.42,50a11,11,0,0,0-13.35,6.62c-.7,1.8,2.2,2.58,2.89.8a7.93,7.93,0,0,1,9.66-4.53c1.85.57,2.64-2.33.8-2.89Z" transform="translate(-55.73 -34.28)"/><path class="cls-8" d="M160.18,67.59a12.86,12.86,0,0,0-6.57,9c-.34,1.89,2.55,2.7,2.89.8a10,10,0,0,1,5.19-7.23c1.7-.92.19-3.51-1.51-2.59Z" transform="translate(-55.73 -34.28)"/><path class="cls-8" d="M176.86,83.32a10.32,10.32,0,0,0-.6,7.67c.58,1.83,3.48,1.05,2.89-.8a7.19,7.19,0,0,1,.3-5.36c.83-1.73-1.76-3.26-2.59-1.51Z" transform="translate(-55.73 -34.28)"/><path class="cls-8" d="M207.58,59.11a7.68,7.68,0,0,0-8.44-3.93c-1.89.39-1.09,3.28.8,2.89A4.65,4.65,0,0,1,205,60.63c.88,1.72,3.46.2,2.59-1.51Z" transform="translate(-55.73 -34.28)"/><path class="cls-8" d="M206.42,99.92a6.17,6.17,0,0,0-1.83,6c.42,1.88,3.31,1.09,2.89-.8a3.13,3.13,0,0,1,1.06-3.05c1.44-1.3-.69-3.41-2.12-2.12Z" transform="translate(-55.73 -34.28)"/><path class="cls-8" d="M220.88,68.49a7,7,0,0,1,4,5.43c.29,1.9,3.18,1.09,2.89-.8a9.73,9.73,0,0,0-5.38-7.22c-1.73-.83-3.26,1.76-1.51,2.59Z" transform="translate(-55.73 -34.28)"/><path class="cls-8" d="M208.2,77.63a5.25,5.25,0,0,0-2.61,3.48,1.54,1.54,0,0,0,1,1.85,1.52,1.52,0,0,0,1.85-1c0-.12.05-.25.09-.37s.1-.29.05-.18.1-.2.12-.23.21-.34.13-.23a2.37,2.37,0,0,1,.83-.69,1.5,1.5,0,1,0-1.51-2.59Z" transform="translate(-55.73 -34.28)"/><path class="cls-8" d="M321.16,65.12a18.08,18.08,0,0,1,14.89-1c1.82.65,2.61-2.25.8-2.89a21.07,21.07,0,0,0-17.2,1.35c-1.7.91-.19,3.5,1.51,2.59Z" transform="translate(-55.73 -34.28)"/><path class="cls-8" d="M327.84,84.47a68.32,68.32,0,0,0,3.52,8.2c.88,1.72,3.47.2,2.59-1.51a62.27,62.27,0,0,1-3.22-7.49c-.64-1.81-3.54-1-2.89.8Z" transform="translate(-55.73 -34.28)"/><path class="cls-8" d="M353.12,51.12a2.36,2.36,0,0,1,3.54.66c.94,1.69,3.53.18,2.59-1.51A5.39,5.39,0,0,0,351,49c-1.43,1.3.7,3.42,2.12,2.12Z" transform="translate(-55.73 -34.28)"/><path class="cls-8" d="M374.7,58.26a16.39,16.39,0,0,1,1.81,6.24c.16,1.91,3.16,1.93,3,0a20.22,20.22,0,0,0-2.22-7.75c-.89-1.71-3.48-.2-2.59,1.51Z" transform="translate(-55.73 -34.28)"/><path class="cls-8" d="M364.46,80a18.25,18.25,0,0,1-.32,6.12c-.43,1.88,2.46,2.68,2.89.8a20.71,20.71,0,0,0,.43-6.92c-.21-1.9-3.21-1.92-3,0Z" transform="translate(-55.73 -34.28)"/><path class="cls-8" d="M344.53,109A4.63,4.63,0,0,1,346.9,108a1.51,1.51,0,0,0,1-1.85,1.54,1.54,0,0,0-1.85-1,7.48,7.48,0,0,0-3.69,1.83,1.5,1.5,0,0,0,2.12,2.12Z" transform="translate(-55.73 -34.28)"/><path class="cls-8" d="M348.47,78.5a9.78,9.78,0,0,1,3.6-6.93c1.48-1.25-.65-3.36-2.12-2.12a12.75,12.75,0,0,0-4.48,9c-.13,1.93,2.87,1.92,3,0Z" transform="translate(-55.73 -34.28)"/><path class="cls-8" d="M188.08,68.42a6.61,6.61,0,0,0-4.58-1.89,1.5,1.5,0,0,0,0,3,3.48,3.48,0,0,1,2.46,1c1.39,1.35,3.51-.77,2.12-2.12Z" transform="translate(-55.73 -34.28)"/></svg>