<svg xmlns="http://www.w3.org/2000/svg" viewBox="0 0 452.79 209.05"><defs><style>.cls-1{fill:#eae0c3;}.cls-2{fill:#52341f;}.cls-3{fill:#513526;}</style></defs><title>coffee_post</title><g id="Layer_2" data-name="Layer 2"><rect class="cls-1" width="452.79" height="209.05"/></g><g id="Layer_1" data-name="Layer 1"><path class="cls-2" d="M72.29,140.19l-2.91-7.33-2.55-4.52c-.61-1.09-2-3.2-2.46-4.34-.3-.68-.7-2.13-1-2.84a10.43,10.43,0,0,1-.75-2,10.46,10.46,0,0,1,.65-2.66,9.29,9.29,0,0,1,.76-2,11.93,11.93,0,0,1,2.62-2.22,49.87,49.87,0,0,1,7.86-3.66c2.56-.9,7.88-2,10.53-2.56,2.3-.49,7-1.12,9.24-1.74a51.94,51.94,0,0,0,6.75-2.48c.73-.36,2.39-1,2.77-1.72a6.36,6.36,0,0,0-.17-4,7.83,7.83,0,0,0-2.73-2.92c-1.47-.74-4.9-.57-6.54-.76-2.94-.34-8.83-.9-11.76-1.35a65.45,65.45,0,0,1-8.21-1.59c-1.8-.6-5.64-1.85-6.82-3.34A8.47,8.47,0,0,1,66.71,82c.07-1.87,1.32-6.87,2.76-8.06,1-.86,4.79-.67,6.14-.72,2.47-.08,8.51,1.4,8.51,1.4l6.32,1.77-9.92-3.79s-3.74-1.18-5-1.43a19.92,19.92,0,0,0-4.6-.51A16.32,16.32,0,0,0,66.24,72a20.28,20.28,0,0,0-3.79,3.89c-.72,1.1-2,3.49-2.14,4.8a9.83,9.83,0,0,0,1.19,4.22A17.58,17.58,0,0,0,66,89.25c1.76,1.08,5.81,2.14,7.79,2.68,1.83.5,5.56,1.24,7.44,1.53s5.35.63,7.15.74c1.39.08,4.22-.19,5.59.09a25.24,25.24,0,0,1,4.29,1.8c.23.1.65,1,.75,1.26a2.5,2.5,0,0,1-.19,2.43c-1.14,1.33-4.66,2.52-6.34,3-2.38.7-7.41.8-9.85,1.26a62.23,62.23,0,0,0-8.55,2.18A57.74,57.74,0,0,0,65.44,111a23.62,23.62,0,0,0-4.71,4,13.29,13.29,0,0,0-1.82,4.89,14.7,14.7,0,0,0,1.37,6.55c.87,1.41,3.65,3.36,4.77,4.59C67,133.22,72.29,140.19,72.29,140.19Z"/><path class="cls-2" d="M75.24,130.72s2.47-7.38,2.73-9.94c.38-3.74-.57-11.27-1-15-.26-2.35-1.11-7-1.45-9.33-.42-2.89-1.58-11.57-1.58-11.57L71.5,76.09,69.39,67l-1.53-4.57,4.37,12.43,2.66,10.07S77,91.3,77.69,93.44s2.25,6.79,2.74,9.12a55.44,55.44,0,0,1,1,7.7,57.86,57.86,0,0,1-.86,10.41,64.22,64.22,0,0,1-2.44,6.47L74,134.42Z"/><path class="cls-2" d="M83,130.55s2.47-7.38,2.73-9.94c.38-3.74-.57-11.27-1-15-.26-2.35-1.11-7-1.45-9.33-.42-2.89-1.58-11.57-1.58-11.57l-2.45-8.78-2.11-9.07-1.53-4.57L80,74.71l2.66,10.07s2.12,6.36,2.79,8.49,2.25,6.79,2.74,9.12a55.44,55.44,0,0,1,1,7.7,57.86,57.86,0,0,1-.86,10.41A64.22,64.22,0,0,1,85.86,127l-4.1,7.28Z"/><polygon class="cls-2" points="47.49 152.79 45.41 145.77 43.77 136.07 43.77 131.63 44 129.76 44.82 128.24 46.46 126.95 48.09 126.37 120.09 126.25 121.26 126.6 121.73 127.19 121.96 128.82 122.2 134.32 121.61 139.69 120.44 146 118.46 151.97 114.95 158.39 111.85 162.65 108.6 165.95 107.52 166.92 107.81 166.98 109.86 165.38 112.02 163.45 114.24 160.88 115.95 158.78 119.08 153.76 120.45 150.92 121.59 147.9 122.22 145.68 123.07 141.57 123.58 138.33 123.87 134.97 123.98 130.47 123.92 126.48 123.3 125.28 122.22 124.49 121.53 124.49 44.87 124.49 43.38 124.54 42.64 124.77 42.36 125.11 43.1 133.77 44.01 141.18 45.26 146.87 47.88 153.71 47.49 152.79"/><polygon class="cls-2" points="26.64 167.78 33.15 168.15 49.08 168.24 137.63 167.22 122.26 167.13 96.28 166.85 66.58 166.57 42.65 166.85 29.71 167.41 26.64 167.78"/><path class="cls-3" d="M32.13,170l21.42.56,21.6.19,35,.09,16.39-.37,6.24-.28s6.6-.25,8.57-.56a36.78,36.78,0,0,0,4.2-1c.3-.08,2.13-.71,2.13-1s-1-.47-1-.47l-4.75-.47-13.59-.56-9.87-.28,17.51.84,3.45.37,1.49.09a5.78,5.78,0,0,1,1.3.37c.12.08.42.32.37.47-.21.64-1.94.55-2.61.65-3.8.57-15.36.84-15.36.84l-19.74.28-30.26.37Z"/><path class="cls-3" d="M90.44,166.62a45.18,45.18,0,0,0,4.52-1A38.45,38.45,0,0,0,99.82,163a34.54,34.54,0,0,0,3.47-2.43c2-1.75,7.29-7.82,7.29-7.82s-6.82,8.54-9.55,10.94a55.91,55.91,0,0,1-4.75,3.17l-6,.47Z"/><path class="cls-3" d="M52.24,145.61a28.57,28.57,0,0,1-1.67-3.74,18.7,18.7,0,0,1-.06-4.42,26,26,0,0,1,1-5.56,35.24,35.24,0,0,1,1.91-3.13c.16-.29.52-1.22.52-1.22L48.59,127a9.35,9.35,0,0,0-1,1.74c-.37,1.43.12,4.44.35,5.9.14.88.66,2.6.87,3.47a26.13,26.13,0,0,0,1.17,3.66C50.4,142.81,52.24,145.61,52.24,145.61Z"/><path class="cls-2" d="M119.66,153.81l-.27,1.48-1.08,1.88-.94,1.21,2.42-1.48s4.26-3.09,5.65-4.17c.93-.72,2.78-2.16,3.63-3a33.3,33.3,0,0,0,2.29-2.56c.29-.36.81-1.11,1.08-1.48a15.57,15.57,0,0,0,1-1.83c.31-.66,1-2.75,1-2.75s-1.2,2.89-1.75,3.77a20.28,20.28,0,0,1-2.56,3.09,61.48,61.48,0,0,1-5,3.77c-.72.5-3,1.88-3,1.88s-.85.78-1.21.81S119.66,153.81,119.66,153.81Z"/><path class="cls-2" d="M123.56,141l.54-1.75.27-2.15a15.41,15.41,0,0,1,2-1.61,9.69,9.69,0,0,1,2.69-.54,13.91,13.91,0,0,1,2.69.13,7.7,7.7,0,0,1,1.61.54,6.3,6.3,0,0,1,1.61,1.21,4.93,4.93,0,0,1,.54,1.35c.13.49.27,2,.27,2a19.17,19.17,0,0,1-.4,2.15,18.69,18.69,0,0,1-1.61,3.09c-.53.8-2.42,3-2.42,3a49.74,49.74,0,0,0,3.36-5.52,6.71,6.71,0,0,0,.4-1.88,5.42,5.42,0,0,0-.4-1.75,6.82,6.82,0,0,0-1.21-1.48,6.6,6.6,0,0,0-1.61-1.08,6.82,6.82,0,0,0-1.48-.13,12.86,12.86,0,0,0-1.61,0,6.39,6.39,0,0,0-1.61.4,7.52,7.52,0,0,0-1.21.94c-.37.34-1.35,1.48-1.35,1.48Z"/><path class="cls-2" d="M108.76,166.73l5.11-4.17,1.21-1.48-1,1.45,0,.17.41-.08,1-.41,4.57-2.23,4.12-2.35s2.28-1.45,3-2c.93-.68,2.7-2.15,3.6-2.87.44-.35,1.35-1,1.76-1.4a35.25,35.25,0,0,0,3.45-3.75c.57-.78,1.91-3.38,1.91-3.38l1.1-2.43.37-1.69v-1.54l-.22-1.1-.59-1.47-1.69-1.76a20.29,20.29,0,0,0-2-1.25,11.39,11.39,0,0,0-1.91-.51,13.32,13.32,0,0,0-2.28-.22,17.08,17.08,0,0,0-1.84.37l-1.47.29-1.25.66a31.1,31.1,0,0,1,3.75-1.47,13.72,13.72,0,0,1,1.91-.07,13,13,0,0,1,1.54,0,13,13,0,0,1,2.06.59c.32.12,1.25.59,1.25.59l1.1.88,1.18,1.54.73,1.76.15,1.84-.22,2-.59,1.84-.73,1.69-1.62,2.65s-1.66,2.14-2.28,2.79-2.07,2-2.79,2.57-2.36,1.83-3.16,2.43-3.23,2.35-3.23,2.35l-3.09,2.06-3.67,2.13-3.6,2.13-4.63,2.43-1.18.66-.59.07Z"/><polygon class="cls-2" points="183.4 149.28 181 141.18 179.11 129.99 179.11 124.87 179.38 122.71 180.32 120.96 182.21 119.47 184.1 118.8 267.16 118.67 268.5 119.07 269.04 119.74 269.31 121.63 269.58 127.97 268.91 134.17 267.56 141.45 265.27 148.33 261.22 155.75 257.65 160.65 253.9 164.46 252.65 165.58 252.98 165.65 255.35 163.81 257.84 161.57 260.4 158.62 262.38 156.19 265.99 150.4 267.57 147.12 268.88 143.64 269.6 141.07 270.59 136.34 271.18 132.6 271.51 128.72 271.64 123.53 271.57 118.93 270.85 117.55 269.6 116.63 268.82 116.63 180.38 116.63 178.67 116.7 177.81 116.96 177.49 117.35 178.34 127.34 179.39 135.88 180.84 142.45 183.86 150.34 183.4 149.28"/><polygon class="cls-2" points="159.35 166.57 166.87 167 185.24 167.11 287.38 165.93 269.66 165.82 239.69 165.5 205.43 165.17 177.82 165.5 162.89 166.14 159.35 166.57"/><path class="cls-3" d="M165.69,169.15l24.7.64,24.92.21,40.39.11,18.9-.43,7.2-.32s7.62-.29,9.89-.64a42.43,42.43,0,0,0,4.85-1.19c.35-.1,2.46-.82,2.45-1.18s-1.18-.54-1.18-.54l-5.48-.54-15.68-.64-11.39-.32,20.19,1,4,.43,1.72.11a6.66,6.66,0,0,1,1.5.43c.14.1.48.37.43.54-.25.73-2.24.64-3,.75-4.39.66-17.72,1-17.72,1l-22.77.32-34.91.43Z"/><path class="cls-3" d="M233,165.24a52.12,52.12,0,0,0,5.21-1.2,44.36,44.36,0,0,0,5.61-3,39.85,39.85,0,0,0,4-2.8c2.33-2,8.41-9,8.41-9s-7.87,9.86-11,12.62a64.49,64.49,0,0,1-5.48,3.66l-6.94.54Z"/><path class="cls-3" d="M188.88,141a33,33,0,0,1-1.93-4.32,21.57,21.57,0,0,1-.07-5.1,30,30,0,0,1,1.2-6.41,40.66,40.66,0,0,1,2.2-3.61c.19-.33.6-1.4.6-1.4l-6.21-.6a10.79,10.79,0,0,0-1.2,2c-.43,1.65.14,5.13.4,6.81.16,1,.76,3,1,4a30.14,30.14,0,0,0,1.35,4.22C186.77,137.77,188.88,141,188.88,141Z"/><path class="cls-2" d="M266.66,150.46l-.31,1.71-1.24,2.17-1.09,1.4,2.79-1.71s4.92-3.57,6.52-4.81c1.07-.83,3.2-2.49,4.19-3.41a38.41,38.41,0,0,0,2.64-2.95c.33-.41.94-1.28,1.24-1.71a18,18,0,0,0,1.19-2.11c.36-.77,1.14-3.17,1.14-3.17s-1.38,3.33-2,4.35a23.39,23.39,0,0,1-2.95,3.57,70.92,70.92,0,0,1-5.74,4.35c-.83.58-3.41,2.17-3.41,2.17s-1,.91-1.4.93S266.66,150.46,266.66,150.46Z"/><path class="cls-2" d="M271.16,135.72l.62-2,.31-2.48a17.78,17.78,0,0,1,2.33-1.86,11.17,11.17,0,0,1,3.1-.62,16,16,0,0,1,3.1.16,8.88,8.88,0,0,1,1.86.62,7.26,7.26,0,0,1,1.86,1.4,5.69,5.69,0,0,1,.62,1.55c.15.57.31,2.33.31,2.33a22.11,22.11,0,0,1-.47,2.48,21.56,21.56,0,0,1-1.86,3.57c-.61.92-2.79,3.41-2.79,3.41a57.38,57.38,0,0,0,3.88-6.36,7.74,7.74,0,0,0,.47-2.17,6.25,6.25,0,0,0-.47-2,7.87,7.87,0,0,0-1.4-1.71,7.61,7.61,0,0,0-1.86-1.24,7.87,7.87,0,0,0-1.71-.16,14.84,14.84,0,0,0-1.86,0,7.37,7.37,0,0,0-1.86.47,8.68,8.68,0,0,0-1.4,1.09c-.42.39-1.55,1.71-1.55,1.71Z"/><path class="cls-2" d="M254.09,165.36l5.9-4.81,1.4-1.71-1.18,1.67,0,.19.48-.1,1.14-.48,5.27-2.57,4.75-2.71s2.63-1.68,3.48-2.29c1.07-.78,3.11-2.48,4.15-3.31.51-.4,1.56-1.17,2-1.61a40.67,40.67,0,0,0,4-4.32c.66-.91,2.2-3.9,2.2-3.9l1.27-2.8.42-1.95v-1.78l-.25-1.27-.68-1.7-1.95-2a23.41,23.41,0,0,0-2.29-1.44,13.14,13.14,0,0,0-2.2-.59,15.36,15.36,0,0,0-2.63-.25,19.7,19.7,0,0,0-2.12.42l-1.7.34-1.44.76a35.88,35.88,0,0,1,4.32-1.7,15.82,15.82,0,0,1,2.2-.08,7.66,7.66,0,0,1,4.15.68c.37.14,1.44.68,1.44.68l1.27,1,1.36,1.78.85,2,.17,2.12-.25,2.29-.68,2.12-.85,1.95-1.87,3.05s-1.92,2.46-2.63,3.22-2.38,2.26-3.22,3-2.73,2.11-3.65,2.8-3.73,2.71-3.73,2.71l-3.56,2.37-4.24,2.46-4.15,2.46-5.34,2.8-1.36.76-.68.08Z"/><path class="cls-3" d="M229.87,111.14l3.61-2.06,1.29-2.84-.52-3.35s-2.59-3.39-3.61-4.38c-1.58-1.54-5.33-3.93-7-5.42-1.18-1.07-3.65-3.23-4.38-4.64A18.21,18.21,0,0,1,218,82.26a20,20,0,0,1,.77-4.13,36.21,36.21,0,0,1,2.32-6.19,21.33,21.33,0,0,1,3.09-3.87A34.94,34.94,0,0,1,227.29,66a20.77,20.77,0,0,1,2.58-1.81,14.92,14.92,0,0,1,2.84-.52,18.77,18.77,0,0,1,2.84-.26,15.15,15.15,0,0,1,3.35.77,20,20,0,0,1,3.61,2.06,23,23,0,0,1,3.87,3.87,29.87,29.87,0,0,1,1.81,4.13,18.09,18.09,0,0,1,1,2.58,14.06,14.06,0,0,1,0,3.35,19.87,19.87,0,0,1-1,3.87,17.61,17.61,0,0,1-2.32,3.87,12.37,12.37,0,0,1-3.61,2.58,11.7,11.7,0,0,1-4.64.26A13,13,0,0,1,234,89a15,15,0,0,1-2.32-2.32A40.36,40.36,0,0,1,229.61,83a35.53,35.53,0,0,0,1.72,4.08,14.3,14.3,0,0,0,2.12,2.41,11.79,11.79,0,0,0,2.41,1.54,13.89,13.89,0,0,0,2.89.58,11.71,11.71,0,0,0,2.31,0,12.22,12.22,0,0,0,2.79-1,17.87,17.87,0,0,0,2.41-1.83,20.56,20.56,0,0,0,1.64-1.64,15.59,15.59,0,0,0,1.44-2,15.18,15.18,0,0,0,1.16-3.08,16.56,16.56,0,0,0,.1-2.5,36.35,36.35,0,0,0-.19-4.14,21.79,21.79,0,0,0-.87-3.18,22.19,22.19,0,0,0-1.44-3A23,23,0,0,0,246,66.6a18.72,18.72,0,0,0-2.41-2.12,20.67,20.67,0,0,0-4.43-2.12,19.06,19.06,0,0,0-3.47-.29,24,24,0,0,0-4.43.19A19.3,19.3,0,0,0,227.28,64,25,25,0,0,0,223,67.18a26.74,26.74,0,0,0-2.89,4.33c-.61,1.13-.79,5.09-2,4.72s.54-3.88,1-5.1a54.24,54.24,0,0,1,3.56-6.83c1.93-3.35,6.24-9.78,8.31-13,1.06-1.67,3.54-4.83,4.21-6.68a30.16,30.16,0,0,0,1.24-9.16,31.14,31.14,0,0,0-2.23-8.17,28.13,28.13,0,0,0-3.71-5.45,38.59,38.59,0,0,0-6.19-5A17.58,17.58,0,0,0,221,15.37a28.79,28.79,0,0,0-5.94-.78,16.9,16.9,0,0,0-3.25.45,19.19,19.19,0,0,0-4.37,1.79,20.87,20.87,0,0,0-3.81,3.92,21.86,21.86,0,0,0-1.91,3.7,19.6,19.6,0,0,0-.9,3.36,31.33,31.33,0,0,0,0,5.49,19.21,19.21,0,0,0,.78,3.7A22.82,22.82,0,0,0,204,41a14.69,14.69,0,0,0,2,2.13,15.12,15.12,0,0,0,3,1.68,16.94,16.94,0,0,0,3.92.78,13.76,13.76,0,0,0,4.37-.56,12.39,12.39,0,0,0,3.25-2.58,13.69,13.69,0,0,0,1.79-3,47.26,47.26,0,0,0,1.23-5.83S222,38.94,221,40.48a14.6,14.6,0,0,1-2.8,2.91,6.93,6.93,0,0,1-1.79.9,16.27,16.27,0,0,1-4.6.11,12.55,12.55,0,0,1-2.91-.9,15.17,15.17,0,0,1-2.47-1.79,20.09,20.09,0,0,1-2-2.24,14,14,0,0,1-1.35-2.24,21.51,21.51,0,0,1-.9-3.81,20.72,20.72,0,0,1-.22-4.26,17.32,17.32,0,0,1,.9-2.69c.28-.77.86-2.3,1.23-3a18.49,18.49,0,0,1,1.79-2.91A21,21,0,0,1,209,17.95a12.09,12.09,0,0,1,2.47-1.35,10.36,10.36,0,0,1,1.79-.11c.87,0,2.61-.15,3.48-.11a29.89,29.89,0,0,1,3.81.45,17.81,17.81,0,0,1,3.14,1,26.45,26.45,0,0,1,3,2.13,24.11,24.11,0,0,1,2.47,2,35.59,35.59,0,0,1,2.24,3.25A21.15,21.15,0,0,1,233,27.59a21.39,21.39,0,0,1,.9,3.59c.17.89.38,2.69.45,3.59a48.63,48.63,0,0,1,.11,5.27,20.32,20.32,0,0,1-.67,4A29.78,29.78,0,0,1,231.57,48c-1,1.68-3.17,5-4.26,6.61S224,59.36,222.94,61s-2.9,4.81-3.7,6.5a36,36,0,0,0-1.91,4.93,29.9,29.9,0,0,0-.56,4.48,45.48,45.48,0,0,0,.22,6.28,21.76,21.76,0,0,0,1.35,5.38,24.56,24.56,0,0,0,3.36,3.81c.78.82,2.38,2.42,3.25,3.14,1,.84,3.37,2.15,4.37,3,.75.65,2.69,2.91,2.69,2.91l1.35,2.13.22,2.47-.34,1.57Z"/><polygon class="cls-2" points="331.24 151.42 329.16 144.41 327.53 134.71 327.53 130.26 327.76 128.39 328.58 126.87 330.21 125.59 331.85 125 403.85 124.89 405.02 125.24 405.49 125.82 405.72 127.46 405.95 132.95 405.37 138.33 404.2 144.64 402.21 150.6 398.71 157.03 395.61 161.28 392.36 164.59 391.28 165.56 391.56 165.61 393.61 164.02 395.78 162.08 398 159.52 399.71 157.41 402.84 152.4 404.21 149.55 405.35 146.53 405.97 144.31 406.83 140.21 407.34 136.96 407.62 133.6 407.74 129.1 407.68 125.12 407.06 123.92 405.97 123.12 405.29 123.12 328.62 123.12 327.14 123.18 326.4 123.41 326.12 123.75 326.86 132.41 327.77 139.81 329.02 145.51 331.64 152.34 331.24 151.42"/><polygon class="cls-2" points="310.39 166.41 316.91 166.79 332.83 166.88 421.38 165.86 406.02 165.76 380.04 165.48 350.34 165.2 326.41 165.48 313.47 166.04 310.39 166.41"/><path class="cls-3" d="M315.89,168.65l21.42.56,21.6.19,35,.09,16.39-.37,6.24-.28s6.6-.25,8.57-.56a36.78,36.78,0,0,0,4.2-1c.3-.08,2.13-.71,2.13-1s-1-.47-1-.47l-4.75-.47-13.59-.56-9.87-.28,17.51.84,3.45.37,1.49.09a5.78,5.78,0,0,1,1.3.37c.12.08.42.32.37.47-.21.64-1.94.55-2.61.65-3.8.57-15.36.84-15.36.84l-19.74.28-30.26.37Z"/><path class="cls-3" d="M374.2,165.26a45.18,45.18,0,0,0,4.52-1,38.45,38.45,0,0,0,4.86-2.61,34.54,34.54,0,0,0,3.47-2.43c2-1.75,7.29-7.82,7.29-7.82s-6.82,8.54-9.55,10.94a55.91,55.91,0,0,1-4.75,3.17l-6,.47Z"/><path class="cls-3" d="M336,144.25a28.57,28.57,0,0,1-1.67-3.74,18.7,18.7,0,0,1-.06-4.42,26,26,0,0,1,1-5.56,35.24,35.24,0,0,1,1.91-3.13c.16-.29.52-1.22.52-1.22l-5.38-.52a9.35,9.35,0,0,0-1,1.74c-.37,1.43.12,4.44.35,5.9.14.88.66,2.6.87,3.47a26.13,26.13,0,0,0,1.17,3.66C334.16,141.45,336,144.25,336,144.25Z"/><path class="cls-2" d="M403.42,152.45l-.27,1.48-1.08,1.88-.94,1.21,2.42-1.48s4.26-3.09,5.65-4.17c.93-.72,2.78-2.16,3.63-3a33.3,33.3,0,0,0,2.29-2.56c.29-.36.81-1.11,1.08-1.48a15.57,15.57,0,0,0,1-1.83c.31-.66,1-2.75,1-2.75s-1.2,2.89-1.75,3.77a20.28,20.28,0,0,1-2.56,3.09,61.48,61.48,0,0,1-5,3.77c-.72.5-3,1.88-3,1.88s-.85.78-1.21.81S403.42,152.45,403.42,152.45Z"/><path class="cls-2" d="M407.32,139.67l.54-1.75.27-2.15a15.41,15.41,0,0,1,2-1.61,9.69,9.69,0,0,1,2.69-.54,13.91,13.91,0,0,1,2.69.13,7.7,7.7,0,0,1,1.61.54,6.3,6.3,0,0,1,1.61,1.21,4.93,4.93,0,0,1,.54,1.35c.13.49.27,2,.27,2a19.17,19.17,0,0,1-.4,2.15,18.69,18.69,0,0,1-1.61,3.09c-.53.8-2.42,3-2.42,3a49.74,49.74,0,0,0,3.36-5.52,6.71,6.71,0,0,0,.4-1.88,5.42,5.42,0,0,0-.4-1.75,6.82,6.82,0,0,0-1.21-1.48,6.6,6.6,0,0,0-1.61-1.08,6.82,6.82,0,0,0-1.48-.13,12.86,12.86,0,0,0-1.61,0,6.39,6.39,0,0,0-1.61.4,7.52,7.52,0,0,0-1.21.94c-.37.34-1.35,1.48-1.35,1.48Z"/><path class="cls-2" d="M392.52,165.37l5.11-4.17,1.21-1.48-1,1.45,0,.17.41-.08,1-.41,4.57-2.23,4.12-2.35s2.28-1.45,3-2c.93-.68,2.7-2.15,3.6-2.87.44-.35,1.35-1,1.76-1.4a35.25,35.25,0,0,0,3.45-3.75c.57-.78,1.91-3.38,1.91-3.38l1.1-2.43.37-1.69v-1.54l-.22-1.1-.59-1.47-1.69-1.76a20.29,20.29,0,0,0-2-1.25,11.39,11.39,0,0,0-1.91-.51,13.32,13.32,0,0,0-2.28-.22,17.08,17.08,0,0,0-1.84.37l-1.47.29-1.25.66a31.1,31.1,0,0,1,3.75-1.47,13.72,13.72,0,0,1,1.91-.07,6.64,6.64,0,0,1,3.6.59c.32.12,1.25.59,1.25.59l1.1.88,1.18,1.54.73,1.76.15,1.84-.22,2-.59,1.84-.73,1.69L420.43,146s-1.66,2.14-2.28,2.79-2.07,2-2.79,2.57-2.36,1.83-3.16,2.43-3.23,2.35-3.23,2.35l-3.09,2.06-3.67,2.13-3.6,2.13L394,164.92l-1.18.66-.59.07Z"/><path class="cls-2" d="M367.4,121.28,355.82,110.5s-7.09-7-9.18-9.58a56.13,56.13,0,0,1-4.39-6.39,23.17,23.17,0,0,1-2-4.79,34.15,34.15,0,0,1,0-5.19l2.8-4.39,3.59-1.6H351l4,2.4,2.8,3.59-4.56-6L349,77l-5.44.53-2.28,1.05-2.1,1.75-1.75,3-.53,2.46s-.19,2.5-.18,3.33a25.43,25.43,0,0,0,.35,3.68,25.76,25.76,0,0,0,1.23,3.51,31,31,0,0,0,2.1,4,27.76,27.76,0,0,0,3,3.33c1.26,1.17,5.44,4.21,5.44,4.21Z"/><path class="cls-2" d="M361.28,80.29l4.81-3.57a29.78,29.78,0,0,1,3.57-1.55,21.67,21.67,0,0,1,4.35-.31,14.05,14.05,0,0,1,3.57.47,16.49,16.49,0,0,1,3.26,2.33,14,14,0,0,1,2.48,2.48,10,10,0,0,1,.78,2.8,27.51,27.51,0,0,1,0,4.19,24.43,24.43,0,0,1-.62,4.5A19.58,19.58,0,0,1,381.62,95c-.79,1.2-2.64,3.41-3.57,4.5-1.39,1.64-4.28,4.8-5.75,6.37-1.29,1.38-4,4.06-5.28,5.44-1.14,1.19-4.5,4.81-4.5,4.81l4.5-3.11s4.07-3.27,5.44-4.35,3.79-2.84,5-3.88A86.88,86.88,0,0,0,384,98.3a24.39,24.39,0,0,0,2.8-3.88,23.52,23.52,0,0,0,1.4-5.28,26,26,0,0,0,0-4.19,16.36,16.36,0,0,0-.62-3.57,22,22,0,0,0-3-4.35,14.89,14.89,0,0,0-2.8-2.64,16.36,16.36,0,0,0-7-1.4,25.31,25.31,0,0,0-3.57.47,21.17,21.17,0,0,0-4.19,1.4,32.6,32.6,0,0,0-3.57,3Z"/><rect class="cls-1" x="58.36" y="126.52" width="38.07" height="14.45"/></g></svg>