<svg id="Layer_1" data-name="Layer 1" xmlns="http://www.w3.org/2000/svg" viewBox="0 0 562.18 745.79"><defs><style>.cls-1{fill:#d30707;}.cls-2{fill:#ffdf40;}.cls-3{fill:#d8ba3a;}.cls-4{fill:#ff0606;}</style></defs><title>french-fries-icon</title><path class="cls-1" d="M127,441l562-6a224,224,0,0,1-30,58c-40.92,56.71-97.53,77.81-126,88-59.59,21.32-112.54,18.92-143,15-40.88-3.09-145.08-16.9-222-99A290.12,290.12,0,0,1,127,441Z" transform="translate(-127 -178.21)"/><path class="cls-2" d="M274.64,730.29a15.64,15.64,0,0,1-15.49-14.92l-17.3-462.68a67.58,67.58,0,0,1,64.93-70h.58a15.64,15.64,0,0,1,15.49,14.92l19.25,514.64a15.52,15.52,0,0,1-14.91,16.07l-52,1.94Z" transform="translate(-127 -178.21)"/><path class="cls-3" d="M307.36,187.21a11.1,11.1,0,0,1,11,10.59L337.6,712.44A11,11,0,0,1,327,723.84l-52,1.94h-.41a11.1,11.1,0,0,1-11-10.59l-17.3-462.68a63.21,63.21,0,0,1,60.6-65.31h.42m0-9h-.75a72.21,72.21,0,0,0-69.26,74.64l17.3,462.68a20.06,20.06,0,0,0,20,19.25h.75l52-1.94a20.06,20.06,0,0,0,19.24-20.73L327.35,197.46a20.06,20.06,0,0,0-20-19.25Z" transform="translate(-127 -178.21)"/><path class="cls-2" d="M341,786.5A15.52,15.52,0,0,1,325.5,771V256A15.52,15.52,0,0,1,341,240.5,67.58,67.58,0,0,1,408.5,308V771A15.52,15.52,0,0,1,393,786.5Z" transform="translate(-127 -178.21)"/><path class="cls-3" d="M341,245a63.21,63.21,0,0,1,63,63V771a11,11,0,0,1-11,11H341a11,11,0,0,1-11-11V256a11,11,0,0,1,11-11m0-9h0a20.06,20.06,0,0,0-20,20V771a20.06,20.06,0,0,0,20,20h52a20.06,20.06,0,0,0,20-20V308a72.21,72.21,0,0,0-72-72Z" transform="translate(-127 -178.21)"/><path class="cls-2" d="M191,863.5A15.52,15.52,0,0,1,175.5,848V333A15.52,15.52,0,0,1,191,317.5,67.58,67.58,0,0,1,258.5,385V848A15.52,15.52,0,0,1,243,863.5Z" transform="translate(-127 -178.21)"/><path class="cls-3" d="M191,322a63.21,63.21,0,0,1,63,63V848a11,11,0,0,1-11,11H191a11,11,0,0,1-11-11V333a11,11,0,0,1,11-11m0-9h0a20.06,20.06,0,0,0-20,20V848a20.06,20.06,0,0,0,20,20h52a20.06,20.06,0,0,0,20-20V385a72.21,72.21,0,0,0-72-72Z" transform="translate(-127 -178.21)"/><path class="cls-2" d="M525.08,729.81c-.52,0-1,0-1.55-.08l-51.74-5.21a15.56,15.56,0,0,1-13.87-17l46.37-460.67a67.75,67.75,0,0,1,67.16-60.74c2.24,0,4.52.11,6.76.34a15.52,15.52,0,0,1,13.87,17L540.5,715.86a15.64,15.64,0,0,1-15.42,13.95Z" transform="translate(-127 -178.21)"/><path class="cls-3" d="M571.45,190.64c2.09,0,4.22.11,6.31.32a11,11,0,0,1,9.84,12L536,715.41a11.1,11.1,0,0,1-10.94,9.9c-.37,0-.74,0-1.1-.06L472.24,720a11.06,11.06,0,0,1-9.84-12l46.37-460.67a63.25,63.25,0,0,1,62.68-56.69m0-9a72.25,72.25,0,0,0-71.63,64.79L453.44,707.1a20.06,20.06,0,0,0,17.9,21.9l51.74,5.21a20,20,0,0,0,21.9-17.9L596.56,203.9a20.06,20.06,0,0,0-17.9-21.9h0a72.08,72.08,0,0,0-7.21-.36Z" transform="translate(-127 -178.21)"/><path class="cls-2" d="M444.6,877.67a15.55,15.55,0,0,1-15.46-14.44L397.6,401.3a67.71,67.71,0,0,1,62.74-71.94c.36,0,.71,0,1.06,0a15.54,15.54,0,0,1,15.46,14.44l35.09,513.8a15.56,15.56,0,0,1-14.41,16.52l-51.88,3.54C445.3,877.66,445,877.67,444.6,877.67Z" transform="translate(-127 -178.21)"/><path class="cls-3" d="M461.4,333.83a11,11,0,0,1,11,10.25l35.09,513.8a11.06,11.06,0,0,1-10.23,11.72l-51.88,3.54-.75,0a11,11,0,0,1-11-10.25L402.09,401a63.21,63.21,0,0,1,58.56-67.15l.75,0m0-9q-.68,0-1.37,0h0a72.21,72.21,0,0,0-66.93,76.74l31.54,461.92a20.07,20.07,0,0,0,19.95,18.64q.68,0,1.37,0l51.88-3.54a20.06,20.06,0,0,0,18.59-21.32l-35.09-513.8a20.07,20.07,0,0,0-20-18.64Z" transform="translate(-127 -178.21)"/><path class="cls-2" d="M559,812.5A15.52,15.52,0,0,1,543.5,797V334A67.58,67.58,0,0,1,611,266.5,15.52,15.52,0,0,1,626.5,282V797A15.52,15.52,0,0,1,611,812.5Z" transform="translate(-127 -178.21)"/><path class="cls-3" d="M611,271a11,11,0,0,1,11,11V797a11,11,0,0,1-11,11H559a11,11,0,0,1-11-11V334a63.21,63.21,0,0,1,63-63m0-9h0a72.21,72.21,0,0,0-72,72V797a20.06,20.06,0,0,0,20,20h52a20.06,20.06,0,0,0,20-20V282a20.06,20.06,0,0,0-20-20Z" transform="translate(-127 -178.21)"/><path class="cls-4" d="M689.18,435.47C670.93,454.16,569.83,554,408,555c-160.31,1-262.12-95.65-281-114.28l46,454.52a3.64,3.64,0,0,0-.5,1.76c0,14.91,103.65,27,231.5,27s231.5-12.09,231.5-27a3.64,3.64,0,0,0-.5-1.76Z" transform="translate(-127 -178.21)"/></svg>