<svg id="Layer_1" data-name="Layer 1" xmlns="http://www.w3.org/2000/svg" viewBox="0 0 508.89 433.57"><defs><style>.cls-1{fill:#51331f;}.cls-2{fill:#ea9c5c;}.cls-3{fill:#e8a828;}.cls-4{fill:#ffc524;}.cls-5{fill:#ffcb92;}</style></defs><title>hamburger-icon</title><rect class="cls-1" x="13.17" y="194.36" width="472" height="70" rx="35" ry="35"/><path class="cls-2" d="M80.07,208.61a24,24,0,0,0-1.37,5.82,17,17,0,0,0,1,8.57c7.1,17.08,69,16,69,16,30.76-.61,72.29-.9,130,0l50,1c22.52-.8,30.82-7,34-13,5.06-9.57-2.71-19.21-4-50-.46-11,.46-10.06,0-18-1.46-25.5-11.36-40.36-18-58-5-13.2-9.92-32.61-9-59-22.9-1.22-93.51-2.06-159.93,44.73C171.79,86.73,109.9,131.58,80.07,208.61Z" transform="translate(-78.56 -41.64)"/><path class="cls-2" d="M576.34,209.61a24,24,0,0,1,1.37,5.82,17,17,0,0,1-1,8.57c-6.09,14.67-34.28,15.59-69,16-32,.38-73.66.36-123-1l-51.33.67L328.56,42c25-.67,92.3.89,156.06,45.69C484.62,87.73,545.79,130.72,576.34,209.61Z" transform="translate(-78.56 -41.64)"/><path class="cls-2" d="M83.73,204" transform="translate(-78.56 -41.64)"/><path class="cls-2" d="M336.73,22" transform="translate(-78.56 -41.64)"/><path class="cls-2" d="M346.73,471" transform="translate(-78.56 -41.64)"/><path class="cls-1" d="M342.73,516" transform="translate(-78.56 -41.64)"/><path class="cls-2" d="M335.73,406l-211.33-1-23.33-14.67-8.42,1.27a20.82,20.82,0,0,0-6.86,5.11c-12.42,14.43,1.07,37.51,5.79,45.31,11.56,19.08,30.2,28.82,40.15,33.11,68,.14,141-.27,209-.13Z" transform="translate(-78.56 -41.64)"/><path class="cls-2" d="M329.29,406,538,404.67,561.29,390l8.42,1.27a20.82,20.82,0,0,1,6.86,5.11c12.42,14.43-1.07,37.51-5.79,45.31-11.56,19.08-30.2,28.82-40.15,33.11l-204,.41Z" transform="translate(-78.56 -41.64)"/><rect class="cls-1" x="17.17" y="294.36" width="472" height="70" rx="35" ry="35"/><path class="cls-3" d="M118.73,298c-5.82,2.07-17.53,6.4-26,18-12.7,17.4-8.69,36.9-8,40,20.59,1.28,35.73-2.3,46-6,11.54-4.16,15.82-8.09,28-10,2.7-.43,12.34-1.78,34,2,19.41,3.39,21.65,6.21,36,9,29.69,5.77,31.79-4.06,50,2,24.57,8.18,25.43,27.64,47,29,13.72.87,26-6.21,29-8,11.49-7,9.81-12.12,20-18,14.83-8.56,32.06-5.56,41-4,12.8,2.23,11.28,5,25,8,20.23,4.42,37.35,1.42,45,0,16.36-3,17.38-6.61,29-8,17.27-2.07,32.15,3.77,42,9q6.59,7.46,14,15,2,2,4,4a18.26,18.26,0,0,0,6-7c3.58-7.46.53-14.77,0-16a157.53,157.53,0,0,1-14-30c-4.65-13.6-5.64-22.86-14-29-5.54-4.07-11.54-4.72-15-5-35.07-2.85-73,6-73,6-34.3,8-28.69-6-113-7-36.21-.44-70.93,1.74-75,2-36.8,2.36-37.9,4.51-59,4-30.26-.73-66-3-66-3C141.31,294.34,131.09,293.6,118.73,298Z" transform="translate(-78.56 -41.64)"/><path class="cls-4" d="M123.73,295c-5.82,2.07-17.53,6.4-26,18-12.7,17.4-8.69,36.9-8,40a111.23,111.23,0,0,0,17-2c15.77-3.1,23.32-8.18,33-12,24.39-9.64,48.39-5.84,60-4,16.39,2.59,15,5.69,34,9,27.57,4.8,31.28-1.58,48,3,28.73,7.87,29.64,30,49,30,18.3,0,22.84-19.71,47-29,20.62-7.93,42.05-3.08,58,3,24.14,6.75,42,5,54,2,12.22-3,18-7.29,30-8,17.46-1,32.18,6.41,42,13q6.59,7.46,14,15,2,2,4,4a18.26,18.26,0,0,0,6-7c3.58-7.46.53-14.77,0-16a157.53,157.53,0,0,1-14-30c-4.65-13.6-5.64-22.86-14-29-5.54-4.07-11.54-4.72-15-5-35.07-2.85-73,6-73,6-34.3,8-28.69-6-113-7-36.21-.44-70.93,1.74-75,2-36.8,2.36-37.9,4.51-59,4-30.26-.73-66-3-66-3C146.31,291.34,136.09,290.6,123.73,295Z" transform="translate(-78.56 -41.64)"/><ellipse class="cls-5" cx="193.23" cy="99" rx="19.5" ry="10" transform="translate(-99.57 92.58) rotate(-36.46)"/><ellipse class="cls-5" cx="146.23" cy="144" rx="19.5" ry="10" transform="translate(-94.41 -23.53) rotate(-6.72)"/><ellipse class="cls-5" cx="246.23" cy="121" rx="19.5" ry="10" transform="matrix(0.99, -0.12, 0.12, 0.99, -91.03, -11.98)"/><ellipse class="cls-5" cx="278.23" cy="77" rx="10" ry="19.5" transform="translate(-25.74 215.72) rotate(-54.13)"/><ellipse class="cls-5" cx="507.23" cy="130" rx="10" ry="19.5" transform="matrix(0.31, -0.95, 0.95, 0.31, 149.18, 531.15)"/><ellipse class="cls-5" cx="369.23" cy="68" rx="19.5" ry="10" transform="translate(-83.7 -1.85) rotate(-6.12)"/><ellipse class="cls-5" cx="355.23" cy="111" rx="19.5" ry="10" transform="translate(-83.72 -23.5) rotate(-2.9)"/><ellipse class="cls-5" cx="430.23" cy="147" rx="19.5" ry="10" transform="translate(-102.62 123.29) rotate(-21.12)"/><ellipse class="cls-5" cx="437.23" cy="102" rx="10" ry="19.5" transform="translate(178.52 471.6) rotate(-79.47)"/><ellipse class="cls-5" cx="311.23" cy="143" rx="10" ry="19.5" transform="translate(-25.78 326.12) rotate(-65.69)"/><polyline class="cls-2" points="254.5 364.7 52.17 364.36 22.5 348.7 11.84 350.7 1.84 365.36 9.84 392.7"/></svg>