<svg id="Layer_1" data-name="Layer 1" xmlns="http://www.w3.org/2000/svg" viewBox="0 0 411.6 627.36"><defs><style>.cls-1{fill:#ffda88;}.cls-2{fill:#dbba77;}.cls-3{fill:#ffb3db;stroke:#d879b6;stroke-miterlimit:10;stroke-width:7px;}.cls-4{fill:#94f2ff;}.cls-5{fill:#a6ffb9;}.cls-6{fill:#9fffc1;}.cls-7{fill:#a4ffb7;}</style></defs><title>ice-cream</title><polygon class="cls-1" points="78.65 258.86 316.25 258.86 197.45 616.26 78.65 258.86"/><path class="cls-2" d="M353.3,332,239.35,674.81,125.4,332H353.3m9.7-7H115.7L239.35,697,363,325Z" transform="translate(-41.9 -69.64)"/><path class="cls-3" d="M158.39,349.85a53.26,53.26,0,0,1-34.87,40.68c-19.79,6.73-42,.86-56.46-14.94-5.37-5.25-20.33-21.31-21.59-44.83-1.61-30.1,19.87-60.1,54-73.06a122,122,0,0,1-9.13-48.15c1.34-67.45,61.4-108.85,66.19-112,83.5-55.67,209-5.62,235.19,47.28,8.12,16.39,11.62,35.7,11.62,35.7a147.14,147.14,0,0,1-4.15,67.25c32.79,12.78,53.08,43.34,50.64,73.89S423,370.26,419.08,373.09c-19.55,21.65-49.53,28.79-73.89,18.26-27.42-11.85-34.86-40.53-35.7-44,.78,7.64,2.06,30.22-12.45,49-25.54,33-75.38,22.38-83,20.76-10.16-2.16-46.21-9.84-55.63-38.19C154.54,367.31,156.52,356.4,158.39,349.85Z" transform="translate(-41.9 -69.64)"/><rect class="cls-4" x="136.06" y="143.6" width="31" height="9.42" transform="matrix(0.83, -0.56, 0.56, 0.83, -98.99, 40.87)"/><rect class="cls-5" x="191.56" y="111.08" width="31" height="10.23" transform="translate(-38.99 167.78) rotate(-60)"/><rect class="cls-4" x="256.73" y="106.3" width="31" height="11.04" transform="translate(22.74 -166.43) rotate(22.81)"/><rect class="cls-4" x="311.27" y="162.04" width="31" height="10.33" transform="translate(-78.69 46.99) rotate(-19.18)"/><rect class="cls-6" x="210.26" y="159.89" width="31" height="10.59" transform="translate(-22.14 -93.71) rotate(6.38)"/><rect class="cls-7" x="340.05" y="138.82" width="31" height="10.18" transform="translate(405.49 446.68) rotate(-125.89)"/></svg>