<?xml version="1.0" encoding="utf-8"?>
<!-- Generator: Adobe Illustrator 22.0.1, SVG Export Plug-In . SVG Version: 6.00 Build 0)  -->
<svg version="1.1" id="Layer_1" xmlns="http://www.w3.org/2000/svg" xmlns:xlink="http://www.w3.org/1999/xlink" x="0px" y="0px"
	 viewBox="0 0 350 243.6" style="enable-background:new 0 0 350 243.6;" xml:space="preserve">
<style type="text/css">
	.st0{clip-path:url(#SVGID_2_);}
	.st1{clip-path:url(#SVGID_4_);}
	.st2{clip-path:url(#SVGID_6_);}
	.st3{clip-path:url(#SVGID_8_);}
	.st4{clip-path:url(#SVGID_20_);}
	.st5{clip-path:url(#SVGID_22_);}
	.st6{clip-path:url(#SVGID_24_);}
	.st7{clip-path:url(#SVGID_26_);}
	.st8{clip-path:url(#SVGID_28_);}
	.st9{clip-path:url(#SVGID_30_);}
	.st10{clip-path:url(#SVGID_32_);}
	.st11{clip-path:url(#SVGID_34_);}
	.st12{clip-path:url(#SVGID_36_);}
	.st13{clip-path:url(#SVGID_38_);}
	.st14{clip-path:url(#SVGID_40_);}
	.st15{clip-path:url(#SVGID_42_);}
	.st16{clip-path:url(#SVGID_44_);}
	.st17{clip-path:url(#SVGID_46_);}
	.st18{clip-path:url(#SVGID_48_);}
	.st19{clip-path:url(#SVGID_50_);}
	.st20{clip-path:url(#SVGID_52_);}
	.st21{clip-path:url(#SVGID_54_);}
	.st22{clip-path:url(#SVGID_56_);}
	.st23{clip-path:url(#SVGID_58_);}
	.st24{clip-path:url(#SVGID_60_);}
	.st25{clip-path:url(#SVGID_62_);}
	.st26{clip-path:url(#SVGID_64_);}
	.st27{clip-path:url(#SVGID_66_);}
	.st28{clip-path:url(#SVGID_68_);}
	.st29{clip-path:url(#SVGID_70_);}
	.st30{clip-path:url(#SVGID_72_);}
	.st31{clip-path:url(#SVGID_74_);}
	.st32{clip-path:url(#SVGID_76_);}
	.st33{fill:none;stroke:#5BC4B9;stroke-miterlimit:10;}
	.st34{clip-path:url(#SVGID_78_);}
	.st35{clip-path:url(#SVGID_80_);}
	.st36{clip-path:url(#SVGID_82_);}
	.st37{clip-path:url(#SVGID_84_);}
	.st38{clip-path:url(#SVGID_86_);}
	.st39{clip-path:url(#SVGID_88_);}
	.st40{clip-path:url(#SVGID_90_);}
	.st41{clip-path:url(#SVGID_92_);}
	.st42{clip-path:url(#SVGID_94_);}
</style>
<g>
	<defs>
		<polygon id="SVGID_1_" points="9.4,83.7 34.1,83.5 34.1,105.6 65.6,135.8 65.8,136.6 65.9,137.4 66.6,138.2 67.1,139.7 
			68.2,140.8 68.8,141.3 68.1,142.2 67.4,142.5 66.7,142.7 66.8,143.5 66.4,144.1 66.4,145.1 66.3,146.1 66.1,147 65.6,147.9 
			65,148 65.5,148.7 65.5,149.6 65.2,150.1 65.7,150.7 66.3,150.6 66.7,151.4 66.5,152 66.1,152.7 65.5,153 63.9,153.2 62.8,153.2 
			61.6,153.4 60.8,153.4 59.7,153.4 58.4,153.5 57.5,153.8 56.4,153.9 55.3,153.9 54.4,153.9 53.2,154.2 51.2,154.4 51,153.8 
			50.1,153.4 50.1,150.7 49.7,149.7 48.5,148.1 46.9,146.7 45.2,145.3 44.4,145.6 43.7,145.5 43.4,145 43.5,144.3 43.1,143.7 
			42.6,143.1 41.2,143.1 40.2,143 39,142.3 38.3,141.8 37.7,141.1 36.6,140.2 34.8,140.3 33.5,139.8 31.8,140.1 30.8,139.3 30,139 
			30.6,138.3 30.5,137.4 30.3,136.4 30.3,135.7 30.5,135 29.8,134.6 28.9,134.3 29.1,132.8 28.1,132.4 27.2,131.1 26.4,131 
			26.3,130.2 25.9,129.4 25.3,128.6 24.5,127.5 23.6,126.7 22.9,126.4 22.9,125.7 22.7,124.7 22.6,123.9 23.6,123.6 23.6,122.8 
			23.6,121.9 23.1,121.2 22.2,121.5 21.2,121 20.5,120.1 19.8,119.4 19.8,118.4 19.8,117.5 19.3,116.8 19.4,115 18.4,113.9 
			17.7,113.9 16.9,113.2 16.7,112.8 16.9,111.8 16.4,111.2 15.7,111.1 15.7,109.9 12.3,106.7 12.5,105.4 12,104.5 11.6,103.2 
			11.6,102.4 12,101.9 11.7,100.4 11.1,99.1 10,97.8 8.9,96.9 8.2,96.1 8.2,95.1 8.6,94 9.7,91.6 10,90.8 9.7,90 10.2,89.1 
			10.3,88.5 10.3,87.4 10.2,86.6 9.7,85.5 9.4,85 9.5,84.6 		"/>
	</defs>
	<clipPath id="SVGID_2_">
		<use xlink:href="#SVGID_1_"  style="overflow:visible;"/>
	</clipPath>
	<g id="oULIef.tif_7_" class="st0">
		
			<image style="overflow:visible;" width="320" height="213" id="Layer_0_13_" xlink:href="E44B34201CCF9203.png"  transform="matrix(0.4835 0 0 0.4835 -15.8165 67.8389)">
		</image>
	</g>
	<use xlink:href="#SVGID_1_"  style="overflow:visible;fill:none;stroke:#5BC4B9;stroke-miterlimit:10;"/>
</g>
<g>
	<defs>
		<polygon id="SVGID_3_" points="34.1,83.5 68.9,83.6 69.1,126.6 69.1,127.2 68.6,128.2 67.8,128.2 67.2,127.8 66.9,127.1 
			66.3,127.1 65.6,127.2 65.1,127.8 65,128.6 65.2,129.7 65.3,130.6 65.4,131.5 65.4,132.6 66,133.4 66.3,134.3 66.2,135 
			65.6,134.9 65.6,135.8 34.1,105.6 		"/>
	</defs>
	<clipPath id="SVGID_4_">
		<use xlink:href="#SVGID_3_"  style="overflow:visible;"/>
	</clipPath>
	<g id="oULIef.tif_5_" class="st1">
		
			<image style="overflow:visible;" width="320" height="213" id="Layer_0_12_" xlink:href="E44B34201CCF9201.png"  transform="matrix(0.4835 0 0 0.4835 -15.8165 67.8389)">
		</image>
	</g>
	<use xlink:href="#SVGID_3_"  style="overflow:visible;fill:none;stroke:#5BC4B9;stroke-miterlimit:10;"/>
</g>
<g>
	<defs>
		<polygon id="SVGID_5_" points="68.9,83.6 86.7,83.6 86.6,91.2 98.4,91.1 98.6,121 69.1,121 		"/>
	</defs>
	<clipPath id="SVGID_6_">
		<use xlink:href="#SVGID_5_"  style="overflow:visible;"/>
	</clipPath>
	<g id="oULIef.tif_3_" class="st2">
		
			<image style="overflow:visible;" width="320" height="213" id="Layer_0_11_" xlink:href="E44B34201CCF9207.png"  transform="matrix(0.4835 0 0 0.4835 -15.8165 67.8389)">
		</image>
	</g>
	<use xlink:href="#SVGID_5_"  style="overflow:visible;fill:none;stroke:#5BC4B9;stroke-miterlimit:10;"/>
</g>
<g>
	<defs>
		<polygon id="SVGID_7_" points="64.4,154.9 86.5,163.8 98.4,163.5 98.6,121 69.1,121 69.1,126.6 69.1,127.2 68.6,128.2 67.8,128.2 
			67.2,127.8 66.9,127.1 65.6,127.2 65.1,127.8 65,128.6 65.2,129.7 65.3,130.6 65.4,131.5 65.4,132.6 66,133.4 66.3,134.3 
			66.2,135 65.6,134.9 65.6,135.8 65.8,136.6 65.9,137.4 66.6,138.2 67.1,139.7 68.2,140.8 68.8,141.3 68.1,142.2 67.4,142.5 
			66.7,142.7 66.8,143.5 66.4,144.1 66.4,145.1 66.3,146.1 66.1,147 65.6,147.9 65,148 65.5,148.7 65.5,149.6 65.2,150.1 
			65.7,150.7 66.3,150.6 66.7,151.4 66.5,152 66.1,152.7 65.5,153 64.9,153.5 64.5,154.2 		"/>
	</defs>
	<clipPath id="SVGID_8_">
		<use xlink:href="#SVGID_7_"  style="overflow:visible;"/>
	</clipPath>
	<g id="oULIef.tif_1_" class="st3">
		
			<image style="overflow:visible;" width="320" height="213" id="Layer_0_10_" xlink:href="E44B34201CCF9200.png"  transform="matrix(0.4835 0 0 0.4835 -15.8165 67.8389)">
		</image>
	</g>
	<use xlink:href="#SVGID_7_"  style="overflow:visible;fill:none;stroke:#5BC4B9;stroke-miterlimit:10;"/>
</g>
<g>
	<defs>
		<polygon id="SVGID_9_" points="51.6,51.1 52.1,52 52.2,52.8 52.1,53.5 40.5,53.5 39.7,53.7 38.7,54 37.3,54.1 36.8,53.9 36.3,54 
			36.1,54.6 35.1,54.6 34,54.9 33.3,55.3 32.3,55.7 31.3,55.8 30.9,55.6 30.3,55.4 29.6,55.8 28.5,56.3 26.9,56.2 26.4,55.8 
			24.3,55.7 23.5,55.7 22.9,56.2 22.3,56.4 21.5,56.7 20.9,57.2 20.5,57.2 20.1,56.5 19.2,56.4 18.2,56.3 17.8,55.7 17.8,54.8 
			17.7,53.8 17.2,53 16.4,52.3 15.7,51.9 15.2,52.3 14.6,52.3 14.1,52.2 14.1,51.7 13.6,51.3 12.9,51.6 12.2,51.4 11.8,51.4 
			11.2,51.6 10.2,51.2 10.2,48.7 10.2,49.4 10.6,50 11,49.6 11,49.1 11.4,48.6 11.2,48 10.5,48 10,48 9.8,47.6 10.2,47.1 10.9,46.6 
			11.7,46.6 11.2,46.1 10.4,45.7 9.7,45.7 9.4,45.2 9.6,44.4 9,43.8 8.6,43.2 8.6,42.6 8.6,41.6 8.2,40.5 7.8,39.8 7.2,39.6 
			6.4,38.8 6.4,38.2 6.2,37.7 6.6,36.9 6.8,36.2 6.2,35.6 7.5,35.8 8.2,36.1 8.7,36.4 9.4,36.6 10.1,37 11,37.4 12.4,37.5 13.6,37 
			14.4,37.6 15.2,37.6 15.2,37.2 15.8,37.2 16.4,37.6 17.1,37.6 17.7,37.6 18.2,38 18.4,38.9 18.4,39.4 19,39.1 19.2,39.6 
			19.2,40.3 19.2,41.1 19.2,41.6 18.8,42.2 19.3,42.3 19.7,42.8 19.6,43.2 19,43.2 18.8,43.7 19.3,44.1 20.1,44 20.3,43.3 
			20.2,42.7 20.2,42.2 20.2,41.5 19.9,40.4 20.5,39.8 20.5,39.3 21.1,38.7 21.1,38.2 20.6,37.9 20.1,37.6 20.3,37.1 20.3,36.4 
			19.9,35.8 19.3,35.7 19.1,35.2 19.7,35.2 19.9,34.4 19.9,33.8 19.4,33.5 19.4,32.7 18.5,32.8 18,32.1 17.5,31.6 17.6,31 
			51.4,31.2 		"/>
	</defs>
	<clipPath id="SVGID_10_">
		<use xlink:href="#SVGID_9_"  style="overflow:visible;"/>
	</clipPath>
	<g transform="matrix(1 0 0 1 0 0)" style="clip-path:url(#SVGID_10_);">
		
			<image style="overflow:visible;" width="728" height="424" xlink:href="E44B34201CCF920E.png"  transform="matrix(0.1671 0 0 0.1671 6.026 19.9594)">
		</image>
	</g>
	<use xlink:href="#SVGID_9_"  style="overflow:visible;fill:none;stroke:#5BC4B9;stroke-miterlimit:10;"/>
</g>
<g>
	<defs>
		<polygon id="SVGID_11_" points="9.4,83.7 51.3,83.5 51.3,70.1 51.9,69.5 52.3,68.7 52.1,67.2 52.4,67 51.7,66.5 50.7,66.5 
			50.4,64.9 51,64.2 51.4,63.3 52.4,62.7 52.9,61.7 52.6,60.9 53.4,60.1 53.6,58.4 54.6,56.9 54.8,56.1 53.9,55.1 53,54.8 
			52.1,53.5 40.5,53.5 38.7,54 37.3,54.1 36.8,53.9 36.3,54 36.1,54.6 35.1,54.6 34,54.9 33.3,55.3 32.3,55.7 31.3,55.8 30.9,55.6 
			30.3,55.4 29.6,55.8 28.5,56.3 26.9,56.2 26.4,55.8 24.3,55.7 23.5,55.7 22.9,56.2 22.3,56.4 21.5,56.7 20.9,57.2 20.5,57.2 
			20.1,56.5 19.2,56.4 18.2,56.3 17.8,55.7 17.8,54.8 17.7,53.8 17.2,53 16.4,52.3 15.7,51.9 15.2,52.3 14.6,52.3 14.1,52.2 
			14.1,51.7 13.6,51.3 12.9,51.6 12.2,51.4 11.8,51.4 11.2,51.6 11,52.5 11.1,53.5 10.7,55.3 11.3,55.9 11.2,56.9 10.4,57.5 
			10.7,59 10.7,60.5 10.2,61.7 10.2,62.7 9.9,65.6 9.9,68.1 9.6,70.6 9,72.5 8.2,73.7 8.2,74.8 7.8,75.8 7.4,76.8 7.3,77.7 8,78.4 
			8.3,79.3 8.1,80 8,81.4 8.3,82.3 8.6,83 		"/>
	</defs>
	<clipPath id="SVGID_12_">
		<use xlink:href="#SVGID_11_"  style="overflow:visible;"/>
	</clipPath>
	<g transform="matrix(1 0 0 1 0 0)" style="clip-path:url(#SVGID_12_);">
		
			<image style="overflow:visible;" width="728" height="424" xlink:href="E44B34201CCF920F.png"  transform="matrix(0.1671 0 0 0.1671 6.026 19.9594)">
		</image>
	</g>
	<use xlink:href="#SVGID_11_"  style="overflow:visible;fill:none;stroke:#5BC4B9;stroke-miterlimit:10;"/>
</g>
<g>
	<defs>
		<polygon id="SVGID_13_" points="51.6,51.1 52.1,52 52.2,52.8 52.1,53.5 53,54.8 53.9,55.1 54.8,56.1 54.6,56.9 53.6,58.4 
			53.4,60.1 52.6,60.9 52.9,61.7 52.4,62.7 51.4,63.3 51,64.2 50.4,64.9 50.7,66.5 51.7,66.5 52.4,67 52.1,67.2 52.3,68.7 
			51.9,69.5 51.3,70.1 51.3,83.5 86.7,83.6 86.8,65.2 86.5,64.9 86.1,64.4 85.7,63.7 85.3,63.1 84.8,62.9 84.3,62.9 83.9,63.3 
			83.5,64.1 83.1,64.1 82.6,64.6 82.1,64.5 81.7,64.3 81.2,64.4 80.8,64.6 80.3,64.6 79.8,64.2 79.4,64.2 79,64.4 78.7,64.8 
			77.8,64.8 76.9,64.8 76.5,65.1 76.2,65.6 75.7,65.5 75.2,65 75.2,64.5 75.2,63.9 74.8,63.2 74.5,62.7 74,62.4 73.6,62.4 
			73.4,62.5 73.1,62.4 72.8,62.2 72.4,62 72.4,61.4 72.8,61.2 72.7,60.8 72.5,60.6 70.8,58.5 70.8,57.7 70.6,57.1 70.4,56.5 
			70.1,56.1 69.6,55.8 69.3,55.9 68.8,56.4 68.6,56.7 68.2,57 67.9,57 67.6,57.4 67.4,57.5 67.1,57.2 66.8,57 66.4,57 66.1,56.6 
			66.4,56.3 66.5,55.9 66.2,55.7 66.1,54.8 66.6,54.6 67.2,54.4 67.2,53.7 66.6,53.3 66.6,52.5 66.7,51.9 66.7,51.2 67.2,50.9 
			67.2,49.9 67.5,49.5 67.5,48.8 67,48.8 65.9,48.6 65.5,48 64.9,48 64.4,47.7 63.9,47.1 63.9,46.5 63.2,45.8 62.5,45.1 61.8,44.5 
			61.9,44 61.5,44 60.8,44 60.4,43.8 60,43.3 59.4,43.1 59.2,42.4 59.3,40.9 57.2,38.6 57.4,31.2 51.4,31.2 		"/>
	</defs>
	<clipPath id="SVGID_14_">
		<use xlink:href="#SVGID_13_"  style="overflow:visible;"/>
	</clipPath>
	<g transform="matrix(1 0 0 1 0 0)" style="clip-path:url(#SVGID_14_);">
		
			<image style="overflow:visible;" width="728" height="424" xlink:href="E44B34201CCF9202.png"  transform="matrix(0.1671 0 0 0.1671 6.026 19.9594)">
		</image>
	</g>
	<use xlink:href="#SVGID_13_"  style="overflow:visible;fill:none;stroke:#5BC4B9;stroke-miterlimit:10;"/>
</g>
<g>
	<defs>
		<polygon id="SVGID_15_" points="57.2,38.6 59.3,40.9 59.2,42.4 59.4,43.1 60,43.3 60.4,43.8 60.8,44 61.5,44 61.9,44 61.8,44.5 
			62.5,45.1 63.2,45.8 63.9,46.5 63.9,47.1 64.4,47.7 64.9,48 65.5,48 65.9,48.6 67,48.8 67.5,48.8 67.5,49.5 67.2,49.9 67.2,50.9 
			66.7,51.2 66.7,51.9 66.6,52.5 66.6,53.3 67.2,53.7 67.2,54.4 66.1,54.8 66.5,55.9 66.1,56.6 66.4,57 67.1,57.2 67.6,57.4 
			68.2,57 68.8,56.4 69.6,55.8 70.1,56.1 70.4,56.5 70.6,57.1 70.8,57.7 70.8,58.5 72.5,60.6 72.8,61.2 72.4,61.4 72.4,62 
			72.8,62.2 73.4,62.5 74,62.4 74.5,62.7 74.8,63.2 75.2,63.9 75.2,64.5 75.2,65 75.7,65.5 76.2,65.6 76.5,65.1 76.9,64.8 
			77.8,64.8 78.7,64.8 79,64.4 79.4,64.2 79.8,64.2 80.3,64.6 80.8,64.6 81.2,64.4 82.1,64.5 82.6,64.6 83.5,64.1 83.9,63.3 
			84.3,62.9 84.8,62.9 85.3,63.1 85.7,63.7 86.1,64.4 86.8,65.2 86.7,61 128.1,60.7 127.7,31.3 57.4,31.2 		"/>
	</defs>
	<clipPath id="SVGID_16_">
		<use xlink:href="#SVGID_15_"  style="overflow:visible;"/>
	</clipPath>
	<g transform="matrix(1 0 0 1 0 0)" style="clip-path:url(#SVGID_16_);">
		
			<image style="overflow:visible;" width="728" height="424" xlink:href="E44B34201CCF9205.png"  transform="matrix(0.1671 0 0 0.1671 6.026 19.9594)">
		</image>
	</g>
	<use xlink:href="#SVGID_15_"  style="overflow:visible;fill:none;stroke:#5BC4B9;stroke-miterlimit:10;"/>
</g>
<g>
	<defs>
		<polygon id="SVGID_17_" points="86.7,61 86.6,91.2 127.6,90.9 128.1,60.7 		"/>
	</defs>
	<clipPath id="SVGID_18_">
		<use xlink:href="#SVGID_17_"  style="overflow:visible;"/>
	</clipPath>
	<g transform="matrix(1 0 0 1 0 0)" style="clip-path:url(#SVGID_18_);">
		
			<image style="overflow:visible;" width="728" height="424" xlink:href="E44B34201CCF9206.png"  transform="matrix(0.1671 0 0 0.1671 6.026 19.9594)">
		</image>
	</g>
	<use xlink:href="#SVGID_17_"  style="overflow:visible;fill:none;stroke:#5BC4B9;stroke-miterlimit:10;"/>
</g>
<g>
	<defs>
		<polygon id="SVGID_19_" points="98.4,91.1 98.6,121 139.7,121 139.7,90.9 		"/>
	</defs>
	<clipPath id="SVGID_20_">
		<use xlink:href="#SVGID_19_"  style="overflow:visible;"/>
	</clipPath>
	<g id="W490Ai.tif_5_" class="st4">
		
			<image style="overflow:visible;" width="320" height="200" id="Layer_0_9_" xlink:href="FEDE88A42A001A70.png"  transform="matrix(0.3275 0 0 0.3275 90.5713 75.1821)">
		</image>
	</g>
	<use xlink:href="#SVGID_19_"  style="overflow:visible;fill:none;stroke:#5BC4B9;stroke-miterlimit:10;"/>
</g>
<g>
	<defs>
		<polygon id="SVGID_21_" points="98.4,163.5 103.2,163.4 103.3,160.3 113.4,160.1 112.9,159.5 112.9,158.9 112.9,158.4 
			133.8,158.5 133.7,124.8 134.3,124.8 134.2,121 98.6,121 		"/>
	</defs>
	<clipPath id="SVGID_22_">
		<use xlink:href="#SVGID_21_"  style="overflow:visible;"/>
	</clipPath>
	<g id="u5uKog_15_" class="st5">
		
			<image style="overflow:visible;" width="1280" height="896" id="u5uKog_12_" xlink:href="FEDE88A42A001A70.jpg"  transform="matrix(9.301870e-02 0 0 9.301870e-02 94.0181 121.2782)">
		</image>
	</g>
	<use xlink:href="#SVGID_21_"  style="overflow:visible;fill:none;stroke:#5BC4B9;stroke-miterlimit:10;"/>
</g>
<g>
	<defs>
		<polygon id="SVGID_23_" points="127.7,31.3 167.9,31.2 168,31.7 168.5,32.2 168.5,32.9 168.6,33.3 168.7,34.1 168.7,34.6 
			168.7,36.6 168.6,37.2 168.8,38.1 169.1,39 169.5,39.8 169.9,40.8 170.3,41.5 170.3,46.2 170.6,46.5 170.6,48.7 170.7,49.1 
			171,49.5 171,50.4 171.4,50.7 171.8,51.1 171.7,52 172,52.5 172,53.8 128.2,54 		"/>
	</defs>
	<clipPath id="SVGID_24_">
		<use xlink:href="#SVGID_23_"  style="overflow:visible;"/>
	</clipPath>
	<g id="x5ElKC_7_" class="st6">
		
			<image style="overflow:visible;" width="442" height="299" id="x5ElKC_6_" xlink:href="FEDE88A42A001A71.jpg"  transform="matrix(0.1695 0 0 0.1695 125.3688 31.0284)">
		</image>
	</g>
	<use xlink:href="#SVGID_23_"  style="overflow:visible;fill:none;stroke:#5BC4B9;stroke-miterlimit:10;"/>
</g>
<g>
	<defs>
		<polygon id="SVGID_25_" points="127.7,75.9 127.6,90.9 139.7,90.9 139.7,98.4 179.1,98.4 178.3,96.9 177.3,95.4 177.3,94.8 
			176.8,93.6 175.9,93.1 176.1,92.3 176.2,91.4 176.2,90.5 175.9,89.2 175.9,88.3 175.6,87.5 174.9,87.1 174.8,86.1 175,85.2 
			174.7,84.4 174.8,83.7 173.9,83.1 173.3,82.2 173.3,81.3 173,80.3 171.8,80 171.3,78.9 170.5,78.4 169.4,77.8 168.2,77.2 
			167,77.2 165.7,77.1 164.9,77.2 164.1,76.6 164,77.3 162.8,77.5 161.8,77 160.9,76.3 160.2,75.8 		"/>
	</defs>
	<clipPath id="SVGID_26_">
		<use xlink:href="#SVGID_25_"  style="overflow:visible;"/>
	</clipPath>
	<g id="W490Ai.tif_4_" class="st7">
		
			<image style="overflow:visible;" width="320" height="200" id="Layer_0_8_" xlink:href="FEDE88A42A001A73.png"  transform="matrix(0.3275 0 0 0.3275 90.5713 75.1821)">
		</image>
	</g>
	<use xlink:href="#SVGID_25_"  style="overflow:visible;fill:none;stroke:#5BC4B9;stroke-miterlimit:10;"/>
</g>
<g>
	<defs>
		<polygon id="SVGID_27_" points="128.2,54 127.7,75.9 160.2,75.8 160.9,76.3 161.8,77 162.8,77.5 164,77.3 164.1,76.6 164.9,77.2 
			165.7,77.1 167,77.2 168.2,77.2 169.4,77.8 170.5,78.4 171.3,78.9 171.8,80 173,80.3 172.6,79.2 172.2,78.6 171.6,78.2 
			171.8,77.7 172.5,76.8 172.3,75.8 172.6,75.7 172.8,74.9 172.6,74.3 172,74.1 172.1,73.7 172.3,73.2 171.9,72.8 171.5,72.5 
			171.7,72.1 172.2,72.1 172.6,72.1 172.8,58.8 172.5,58.4 172,58 171.5,58 171.1,57.9 171.1,57.4 170.8,57.2 170.3,56.7 
			170.4,56.2 171,55.8 171.5,55.6 171.7,55.2 172.1,54.8 172,54.2 172,53.8 		"/>
	</defs>
	<clipPath id="SVGID_28_">
		<use xlink:href="#SVGID_27_"  style="overflow:visible;"/>
	</clipPath>
	<g id="x5ElKC_5_" class="st8">
		
			<image style="overflow:visible;" width="442" height="299" id="x5ElKC_9_" xlink:href="FEDE88A42A001A6E.jpg"  transform="matrix(0.1695 0 0 0.1695 125.3688 31.0284)">
		</image>
	</g>
	<use xlink:href="#SVGID_27_"  style="overflow:visible;fill:none;stroke:#5BC4B9;stroke-miterlimit:10;"/>
</g>
<g>
	<defs>
		<polygon id="SVGID_29_" points="139.7,98.4 139.7,121 183.2,120.9 183.6,104.8 182.8,104.8 182.4,104.3 181.8,103.7 181.7,103.3 
			181.1,102.5 180.6,101.9 180.8,101.2 181.5,100.6 181.6,100.2 181.6,99.5 181.4,99 181,99.2 180.4,99.4 179.8,99 179.1,98.4 		"/>
	</defs>
	<clipPath id="SVGID_30_">
		<use xlink:href="#SVGID_29_"  style="overflow:visible;"/>
	</clipPath>
	<g id="W490Ai.tif_3_" class="st9">
		
			<image style="overflow:visible;" width="320" height="200" id="Layer_0_15_" xlink:href="FEDE88A42A001A6F.png"  transform="matrix(0.3275 0 0 0.3275 90.5713 75.1821)">
		</image>
	</g>
	<use xlink:href="#SVGID_29_"  style="overflow:visible;fill:none;stroke:#5BC4B9;stroke-miterlimit:10;"/>
</g>
<g>
	<defs>
		<polygon id="SVGID_31_" points="134.2,121 134.3,124.8 151.7,124.8 151.9,139.2 152.3,139.2 152.8,140 153.2,140.4 153.8,140.8 
			154.2,140.4 154.8,140.4 155.2,140.7 155.6,140.6 156,140.5 156.4,141.3 156.4,142 157,142 157.9,141.9 158.6,142.4 159.3,142.4 
			159.8,142.2 160.3,142.3 160.3,142.7 160.8,143.1 161.2,142.3 161.6,142.3 162.2,142.5 162.7,142.9 163,143.5 163.5,143.6 
			163.8,144.4 164.3,144.7 165,144.3 165.4,143.7 165.9,143.9 166.5,144.2 166.7,144.7 167.1,145.1 167.4,144.6 167.9,144.4 
			168.3,144.4 168.4,145.1 168.4,145.5 168.8,145.7 169.1,145.3 169.1,145 169.3,144.6 169.3,144.3 169.6,143.9 169.9,143.9 
			170,144.3 170.2,144.6 170.7,144.6 171,144.6 171.3,144.3 171.6,144.3 171.7,144.6 171.9,144.9 172.3,145 172.6,145.3 173,145.3 
			173.5,145.5 173.8,145.2 174.1,145.2 174.4,144.7 176.4,144.7 176.9,144.4 177.4,144 177.8,144 178.1,144.4 178.4,144.5 
			179,144.5 179.5,144.3 179.6,143.8 180,143.8 180.3,143.9 180.5,143.9 180.9,144.3 181.2,144.7 182,145.2 182.8,145.8 
			183.7,146.2 184.3,146.5 184.7,132.2 184.2,131.7 184.2,130.7 184.2,129.9 184.1,129.4 184.1,128.6 184.1,127.8 183.6,127 
			183.6,125.8 183.5,124.8 183.3,124.4 183.2,120.9 		"/>
	</defs>
	<clipPath id="SVGID_32_">
		<use xlink:href="#SVGID_31_"  style="overflow:visible;"/>
	</clipPath>
	<g id="u5uKog_11_" class="st10">
		
			<image style="overflow:visible;" width="1280" height="896" id="u5uKog_8_" xlink:href="FEDE88A42A001A90.jpg"  transform="matrix(9.301870e-02 0 0 9.301870e-02 94.0181 121.2782)">
		</image>
	</g>
	<use xlink:href="#SVGID_31_"  style="overflow:visible;fill:none;stroke:#5BC4B9;stroke-miterlimit:10;"/>
</g>
<g>
	<defs>
		<polygon id="SVGID_33_" points="133.7,124.8 133.8,158.5 112.9,158.4 112.9,159.5 113.4,160.1 114,160.3 114.4,161 114.6,161.6 
			115,162.3 115.7,162.7 116.3,163 117.4,164.2 118.7,165.8 120.2,167.2 120.8,167.6 121.9,168.2 122.7,169 123.3,169.8 
			123.2,170.6 124.1,171.5 124.1,173.9 124.9,174.7 124.9,175.5 125.3,176.2 125.8,176.9 126.6,177.1 127.2,177.9 127.8,178.4 
			128.4,179.1 129.1,179 129.9,179.8 130.9,179.8 131.4,180.4 132,181.2 132.8,181.2 133.5,180.9 133.8,180.2 134.8,179.5 
			134.9,178.4 135.3,177.9 135.3,177.2 135.8,176.4 135.9,175.6 136.5,175.3 137.3,175.3 137.9,175.2 137.9,174.6 138.4,174.4 
			139.1,175 139.6,175.3 140.3,174.9 140.9,175 141.7,175.3 142.6,175.1 143.5,175.2 143.8,175.9 144.3,176.3 144.3,177 
			145.1,177.6 145.7,177.8 146.3,178.5 146.9,178.9 147.5,179.9 147.9,180.8 148.1,181.6 148.5,182.3 148.8,183.1 148.8,184 
			149.4,184.5 149.8,185.4 149.8,186.2 150.2,186.9 150.8,187.1 151.4,187.6 151.7,188.3 152.4,189.2 152.4,190 153.6,191.1 
			154.1,191 154.8,191.7 154.8,192.5 154.7,193.5 154.1,193.4 154.6,194 155,194.6 155,195.6 155.2,196.5 155.9,197 156.6,197.8 
			156.6,198.9 156.9,200 157.8,200.7 158.8,200.8 159.4,201.4 160.4,201.7 161.1,202.3 161.9,202.8 163.3,203.2 164.3,203.2 
			164.9,203.1 166,203.9 166.9,204.4 167.4,204.3 168,203.9 168,202.7 167.8,201.6 167.3,201 167.1,200.1 167,199.1 167,198.2 
			166.5,197.5 166.1,195.9 166.9,195.2 166.9,194.5 166.4,194.2 165.7,194.2 165.7,193.5 166.4,193.2 167,193.2 167.2,192.7 
			167.2,192.1 167.3,191.3 167.3,190.6 166.9,190 167.1,189.5 167.6,189.3 168.3,189.3 168.7,188.5 168.9,187.5 169.8,187.3 
			170.3,187 170.4,186.4 170.6,185.5 171.2,185.5 171.7,185.7 172.3,185.6 172.9,185.2 172.5,184.6 172,184.2 171.3,183.9 
			171.3,183.3 171.8,183.1 172.5,183.7 173.3,183.7 173.8,183.2 174.3,184.1 175.1,183.7 175.7,183.6 176.9,183.2 178.8,181.9 
			180.4,180.4 182,179 181.9,178 181.6,177.1 181,177.1 181,176.6 181,176 181.6,175.9 182.2,175.1 183,175.3 183,176.1 
			183.2,176.7 183.8,177.1 185,176.7 186.8,175.9 188.1,175.9 187.7,175 188.4,173.7 189.1,172.5 188.8,171.9 188.6,171 
			188.8,170.3 188.4,169.6 189.4,168.3 190,166.9 190,165.8 189.9,165 189.2,164.4 189.1,163.6 188.8,162.8 188.3,161.8 
			188.2,161.1 188.2,160.5 187.7,159.5 187,158.8 186.9,158 186.9,146.9 186.3,146.3 185.5,146.3 185.1,146.8 184.3,146.5 
			183.7,146.2 182.8,145.8 182,145.2 181.2,144.7 180.9,144.3 180.3,143.9 179.6,143.8 179.5,144.3 179,144.5 178.4,144.5 
			177.8,144 177.4,144 176.9,144.4 176.4,144.7 174.4,144.7 173.8,145.2 173.5,145.5 173,145.3 172.6,145.3 171.9,144.9 
			171.6,144.3 171,144.6 170.2,144.6 169.9,143.9 169.3,144.3 169.1,145 168.8,145.7 168.4,145.1 168.3,144.4 167.9,144.4 
			167.4,144.6 167.1,145.1 166.7,144.7 166.5,144.2 165.9,143.9 165.4,143.7 165,144.3 164.3,144.7 163.8,144.4 163.5,143.6 
			163,143.5 162.7,142.9 162.2,142.5 161.6,142.3 161.2,142.3 160.8,143.1 160.3,142.7 160.3,142.3 159.8,142.2 159.3,142.4 
			158.6,142.4 157.9,141.9 157,142 156.4,142 156.4,141.3 156,140.5 155.6,140.6 155.2,140.7 154.8,140.4 154.2,140.4 153.8,140.8 
			153.2,140.4 152.8,140 152.3,139.2 151.9,139.2 151.7,124.8 		"/>
	</defs>
	<clipPath id="SVGID_34_">
		<use xlink:href="#SVGID_33_"  style="overflow:visible;"/>
	</clipPath>
	<g id="u5uKog_7_" class="st11">
		
			<image style="overflow:visible;" width="1280" height="896" id="u5uKog_4_" xlink:href="FEDE88A42A001A93.jpg"  transform="matrix(9.301870e-02 0 0 9.301870e-02 94.0181 121.2782)">
		</image>
	</g>
	<use xlink:href="#SVGID_33_"  style="overflow:visible;fill:none;stroke:#5BC4B9;stroke-miterlimit:10;"/>
</g>
<g>
	<defs>
		<polygon id="SVGID_35_" points="167.9,31.2 180.2,31.1 180.2,28.3 180.7,28.6 181.3,28.6 181.9,28.6 182.3,28.8 182.4,29.3 
			182.4,29.8 182.7,30.4 182.7,31.1 183.1,31.4 183,32.7 183.6,33.2 184.2,33.5 184.6,33.2 185,33.2 185.7,33.5 185.7,33.9 
			188,33.7 188.3,34.1 188.3,34.7 188.7,34.9 189.6,34.8 190.3,34.5 190.8,33.8 191.6,33.7 192.4,33.7 193.2,33.8 193.7,34.2 
			194.4,34.4 195.1,34.5 194.6,35 194.9,35.5 195.8,35.3 196.1,35.7 196.2,36.5 196.7,36.7 197.2,36.5 197.3,35.8 197.7,35.7 
			198.4,35.8 198.8,36.4 199.2,36.7 199.8,37 200.4,37 200.6,37.6 201.3,37.6 202.3,38 203.2,37.9 204.5,37 205.3,36.8 205.9,36.8 
			205.9,37.3 206.1,37.8 206.9,37.8 210.4,37.7 210.7,38.5 211.1,38.6 211.7,38.5 212.9,38.4 213.7,38.4 212.3,39.1 210.3,40.1 
			209.1,40.4 208,40.5 206.8,41 205,42.5 203.5,43.6 201.7,45.3 200,46.7 198.4,47.5 197.9,48.2 197.5,48.7 197,48.8 197.1,52.9 
			196.2,53.5 195,54.1 194.5,54.6 194.3,55.3 193.7,55.6 193.6,56.6 194.3,57.1 194.8,57.4 194.9,57.9 194.7,58.5 194.3,58.9 
			194.2,63 194.7,63.4 195.3,63.8 195.7,64.3 196.7,64.3 197.2,64.9 197.6,65.3 198.4,65.3 198.9,65.5 199.3,66.4 199.5,67.1 
			200.2,67.5 200.7,67.8 201.4,68.2 202.1,68.4 202.5,69 203,69.6 203.3,70.5 203.2,71.1 203.3,71.9 203.4,72.3 172.6,72.1 
			172.8,58.8 172.5,58.4 172,58 171.5,58 171.1,57.9 171.1,57.4 170.8,57.2 170.3,56.7 170.4,56.2 171,55.8 171.5,55.6 171.7,55.2 
			172.1,54.8 172,53.8 172,52.5 171.7,52 171.8,51.1 171,50.4 171,49.5 170.7,49.1 170.6,48.7 170.6,46.5 170.3,46.2 170.3,41.5 
			169.1,39 168.8,38.1 168.6,37.2 168.7,36.6 168.7,34.6 168.6,33.3 168.5,32.9 168.5,32.2 168,31.7 		"/>
	</defs>
	<clipPath id="SVGID_36_">
		<use xlink:href="#SVGID_35_"  style="overflow:visible;"/>
	</clipPath>
	<g id="fWXdjz_9_" class="st12">
		
			<image style="overflow:visible;" width="442" height="294" id="fWXdjz_6_" xlink:href="FEDE88A42A001A91.jpg"  transform="matrix(0.2192 0 0 0.2192 168.6938 28.42)">
		</image>
	</g>
	<use xlink:href="#SVGID_35_"  style="overflow:visible;fill:none;stroke:#5BC4B9;stroke-miterlimit:10;"/>
</g>
<g>
	<defs>
		<polygon id="SVGID_37_" points="203.4,72.3 203.5,72.8 203.5,73.2 203.7,73.6 204.1,73.6 204.3,74.1 204.2,74.5 203.9,74.8 
			203.6,75.2 203.6,75.8 203.8,76.4 204,76.9 204.3,77 204.3,77.8 204.6,78 205.1,78.3 205.5,78.4 206.4,78.5 206.6,79 206.9,79.2 
			206.9,79.8 206.8,80.1 207.1,80.2 207.5,80.4 207.9,80.6 208.1,81 208.1,81.6 208.2,82 208.8,82 209.2,82.2 209.5,82.6 
			209.5,83.1 209.5,83.7 209.5,84.2 209.5,84.7 209.2,85 208.8,85.2 208.6,85.6 208.5,86.1 208.4,86.5 208,87 207.4,87.3 
			206.7,87.3 206.4,87.4 205.7,87.5 205.2,87.6 204.6,87.8 204.3,88.2 204.3,88.9 204.3,89.4 204.7,89.7 205,90 205.2,90.4 
			205.2,90.9 204.9,91.3 204.4,91.9 204.4,92.6 204.1,93.3 203.7,93.8 203.1,93.8 202.6,93.8 202.3,94.1 202.4,94.7 202.5,95.2 
			202.3,95.5 201.7,95.5 201.4,95.1 201,94.5 200.5,94 200.1,93.8 177,94.2 176.8,93.6 175.9,93.1 176.1,92.3 176.2,91.4 
			176.2,90.5 175.9,89.2 175.9,88.3 175.6,87.5 174.9,87.1 174.8,86.1 175,85.2 174.7,84.4 174.8,83.7 173.9,83.1 173.3,82.2 
			173.3,81.3 173,80.3 172.6,79.2 172.2,78.6 171.6,78.2 171.8,77.7 172.5,76.8 172.3,75.8 172.6,75.7 172.8,74.9 172.6,74.3 
			172,74.1 172.1,73.7 172.3,73.2 171.5,72.5 171.7,72.1 		"/>
	</defs>
	<clipPath id="SVGID_38_">
		<use xlink:href="#SVGID_37_"  style="overflow:visible;"/>
	</clipPath>
	<g id="_x30_lWay4_21_" class="st13">
		
			<image style="overflow:visible;" width="320" height="213" id="_x30_lWay4_18_" xlink:href="FEDE88A42A001A97.jpg"  transform="matrix(0.2955 0 0 0.2955 171.8341 65.6362)">
		</image>
	</g>
	<use xlink:href="#SVGID_37_"  style="overflow:visible;fill:none;stroke:#5BC4B9;stroke-miterlimit:10;"/>
</g>
<g>
	<defs>
		<polygon id="SVGID_39_" points="201.7,95.5 201.4,95.1 201,94.5 200.5,94 200.1,93.8 177,94.2 177.3,94.8 177.3,95.4 178.3,96.9 
			179.1,98.4 179.8,99 180.4,99.4 181,99.2 181.4,99 181.6,99.5 181.6,100.2 181.5,100.6 180.8,101.2 180.6,101.9 181.1,102.5 
			181.7,103.3 181.8,103.7 182.4,104.3 182.8,104.8 183.6,104.8 183.3,124.4 183.5,124.8 209.6,124.7 210,125.2 210.4,126 
			210.1,126.7 209.3,127 208.8,127.7 208.6,128.5 212.4,128.4 212.9,127.8 212.9,127.4 212.5,126.8 213,126.5 213,126.1 
			213.5,125.6 213.4,124.9 212.8,124.2 213.4,124 213.9,124.5 214.2,124.3 214.2,123.8 214.6,123.7 215,124.1 215.4,123.7 
			215.4,123.1 215.9,122.8 215.5,122.4 215.8,121.9 215.8,121.4 215.5,121 214.7,121 214.1,120.5 213.9,119.7 213.6,119.1 
			213.6,118.6 214,118.4 214,118 213.8,117.5 213.5,117.3 213.5,115.8 211.8,114.5 210.9,114.4 210.6,113.8 209.9,113.2 
			209.3,112.7 208.7,112.3 208.5,111.9 208.5,111.2 208.6,110.5 208.8,109.9 209.4,109.3 209.5,108.7 209.5,108.2 209.9,107.7 
			209.9,107 209.4,106.5 208.8,106.3 208.1,106.1 207.6,106.4 207.4,106.9 206.9,107 206.5,106.4 206.5,104.4 206,103.7 
			204.5,102.6 203.6,101.7 202.7,100.9 202,99.6 201.7,98.6 201.7,97.5 201.7,96.6 		"/>
	</defs>
	<clipPath id="SVGID_40_">
		<use xlink:href="#SVGID_39_"  style="overflow:visible;"/>
	</clipPath>
	<g id="_x30_lWay4_17_" class="st14">
		
			<image style="overflow:visible;" width="320" height="213" id="_x30_lWay4_14_" xlink:href="FEDE88A42A001A8B.jpg"  transform="matrix(0.2955 0 0 0.2955 171.8341 65.6362)">
		</image>
	</g>
	<use xlink:href="#SVGID_39_"  style="overflow:visible;fill:none;stroke:#5BC4B9;stroke-miterlimit:10;"/>
</g>
<g>
	<defs>
		<polygon id="SVGID_41_" points="183.5,124.8 183.6,125.8 183.6,127 184.1,127.8 184.1,128.6 184.2,129.9 184.2,130.7 184.2,131.7 
			184.7,132.2 184.3,146.5 185.1,146.8 185.5,146.3 186.3,146.3 186.9,146.9 186.9,150.8 203.6,150.9 204.2,150.1 204.1,149.3 
			203.8,148.6 203.8,147.9 203.4,146.9 204,145.9 204,144.9 204.6,143.5 205.4,143.1 205.4,141.8 206,141 206.8,140.6 207.3,139.7 
			207.3,138.2 207.9,137.4 209,136.9 209,136.1 209.5,135.3 210.2,134.9 209.6,133.8 209.6,133 210.4,132.1 211.2,132 211.1,131.4 
			210.8,130.6 211.7,130.2 212.4,129.8 212.4,128.4 208.6,128.5 208.8,127.7 209.3,127 210.1,126.7 210.4,126 209.6,124.7 		"/>
	</defs>
	<clipPath id="SVGID_42_">
		<use xlink:href="#SVGID_41_"  style="overflow:visible;"/>
	</clipPath>
	<g id="Zdf6CF_11_" class="st15">
		
			<image style="overflow:visible;" width="800" height="800" id="Zdf6CF_8_" xlink:href="FEDE88A42A001AB5.jpg"  transform="matrix(0.1379 0 0 0.1379 153.5938 92.2398)">
		</image>
	</g>
	<use xlink:href="#SVGID_41_"  style="overflow:visible;fill:none;stroke:#5BC4B9;stroke-miterlimit:10;"/>
</g>
<g>
	<defs>
		<polygon id="SVGID_43_" points="186.9,150.8 186.9,158 187,158.8 187.7,159.5 188.2,160.5 188.2,161.1 188.3,161.8 188.8,162.8 
			189.1,163.6 189.2,164.4 189.9,165 190,165.8 190,166.9 189.4,168.3 188.4,169.6 188.8,170.3 188.6,171 188.8,171.9 189.1,172.5 
			188.4,173.7 187.7,175 188.1,175.9 189.1,175.5 190,175.3 191.1,175.3 191.9,175.3 192.9,175.6 194.3,176.6 195.7,176.8 
			197.2,176.9 197.8,176.3 197.7,175.6 198.7,175 199.6,174.8 199.6,175.5 200.7,175.5 200.9,175.9 201.3,176.2 201.7,176.7 
			202.1,176.9 202.7,177 203.2,177.4 203.6,177.9 203.1,178.7 202.9,179.1 203.5,179.3 204.2,179.6 204.9,179.7 205.3,180.2 
			205.9,180.5 206.3,180.3 206.6,179.9 206.8,179.5 207.2,179.4 207.2,178.8 207.8,178.9 207.9,179.4 208.3,179.2 208.5,178.8 
			208.9,179 208.8,179.6 209.4,180.1 210.1,179.8 210.5,179.2 210.5,178.1 210.5,177.5 210.9,177.5 211.5,177.6 211.6,178 
			211.6,178.5 212.3,178.8 212.8,178.9 213.3,179 213.8,179.4 214.2,179.9 214.6,180.6 215.2,180.6 215.6,180.7 216.1,180.4 
			216.2,179.9 216.5,179.5 215.8,179.2 215.2,178.7 214.5,178.3 213.6,177.9 212.7,177.4 212.4,176.4 213.2,176.1 213.2,175.6 
			213.9,175.4 214.3,174.9 214.6,174.1 214.2,173.6 213.7,173.1 213.1,173.8 212.9,174.6 212.4,174.4 212.4,173.8 211.6,173.6 
			212,173.2 212.9,172.5 213.1,171.7 213,171 212.9,170.5 212.4,169.9 211.7,169 211.7,168 211.8,167.2 212.2,166.6 212.1,165.7 
			201.4,165.9 201.2,165.1 201.2,164.3 201.6,163.8 201.5,163.2 201.5,162.4 201.8,161.8 202.1,161.4 202.4,160.8 202.5,160.3 
			202.5,159.7 203.4,159.4 203.9,158.7 204.3,157.9 203.7,157.4 204.1,156.6 204.9,156.6 205.3,156 204.6,155.3 204,154.8 204,154 
			204.2,153.2 203.8,152.8 204,152.1 204.1,151.4 203.6,150.9 		"/>
	</defs>
	<clipPath id="SVGID_44_">
		<use xlink:href="#SVGID_43_"  style="overflow:visible;"/>
	</clipPath>
	<g id="u5uKog_3_" class="st16">
		
			<image style="overflow:visible;" width="1280" height="896" id="u5uKog_17_" xlink:href="FEDE88A42A001AB7.jpg"  transform="matrix(9.301870e-02 0 0 9.301870e-02 94.0181 121.2782)">
		</image>
	</g>
	<use xlink:href="#SVGID_43_"  style="overflow:visible;fill:none;stroke:#5BC4B9;stroke-miterlimit:10;"/>
</g>
<g>
	<defs>
		<polygon id="SVGID_45_" points="197,48.8 197.5,48.7 197.9,48.2 198.5,48.2 199.2,48.5 200.5,48.2 201.7,47.8 202.7,47.5 
			203.3,47.4 204.1,47.1 204.7,46.5 205.5,46.4 206.2,46.6 206.2,47.5 205.5,47.9 205.3,48.6 205.2,49.2 205.8,49.2 206.6,48.6 
			207.3,48.9 207.9,49.3 208.7,49.4 209.3,49.8 209.7,50.7 210.5,51.2 212,51.4 212.8,51.7 213.8,51.9 214.8,52 215.6,52.5 
			216.4,52.8 217.6,53.4 218.4,53.4 219.1,53.5 219.7,53.8 220.8,53.8 221.5,54 222,54.6 221.7,55.2 222.3,55.2 223.1,55.4 
			223.6,56.1 223.6,56.7 223.5,57.5 223,58.2 223.6,58.6 224,58.2 224.5,58.4 224,59.2 223.8,59.8 224.3,60.3 224.6,60.8 
			224.5,61.3 223.5,61.3 223.2,61.8 222.8,62.5 222.4,63.4 222.4,64.3 222.6,64.8 223.1,64.4 223.8,63.6 224.5,62.8 225,62.2 
			225.8,62 225.9,61.4 226.4,60.8 226.7,60.2 226.7,59.6 227.5,59.6 227.7,59.1 228.1,58.6 228.3,58 229.6,57.9 229,58.6 
			228.3,59.5 228.2,60.2 227.5,60.9 227.2,61.4 227.2,62 226.6,62.5 225.9,63.7 225.4,64.4 225.4,65.1 225.2,65.6 225.2,66.5 
			225.1,67.1 224.8,67.7 224.4,67.8 224.1,68.9 223.9,69.4 224,70.2 224,70.7 224,71.6 223.5,72.1 223.4,72.9 223.1,73.3 
			222.8,74.2 223.2,74.7 223.2,75.4 223.2,76.4 223.4,76.9 223.7,77.6 223.5,78.2 223.5,79.9 206.9,79.8 206.9,79.2 206.6,79 
			206.4,78.5 205.5,78.4 205.1,78.3 204.3,77.8 204.3,77 204,76.9 203.8,76.4 203.6,75.8 203.6,75.2 203.9,74.8 204.2,74.5 
			204.3,74.1 204.1,73.6 203.7,73.6 203.5,73.2 203.5,72.8 203.4,72.3 203.3,71.9 203.2,71.1 203.3,70.5 203,69.6 202.5,69 
			202.1,68.4 201.4,68.2 200.7,67.8 200.2,67.5 199.5,67.1 199.3,66.4 198.9,65.5 198.4,65.3 197.6,65.3 197.2,64.9 196.7,64.3 
			195.7,64.3 195.3,63.8 194.7,63.4 194.2,63 194.3,58.9 194.7,58.5 194.9,57.9 194.8,57.4 194.3,57.1 193.6,56.6 193.7,55.6 
			194.3,55.3 194.5,54.6 195,54.1 196.2,53.5 197.1,52.9 		"/>
	</defs>
	<clipPath id="SVGID_46_">
		<use xlink:href="#SVGID_45_"  style="overflow:visible;"/>
	</clipPath>
	<g id="fWXdjz_5_" class="st17">
		
			<image style="overflow:visible;" width="442" height="294" id="fWXdjz_4_" xlink:href="FEDE88A42A001ABA.jpg"  transform="matrix(0.2192 0 0 0.2192 168.6938 28.42)">
		</image>
	</g>
	<use xlink:href="#SVGID_45_"  style="overflow:visible;fill:none;stroke:#5BC4B9;stroke-miterlimit:10;"/>
</g>
<g>
	<defs>
		<polygon id="SVGID_47_" points="223.5,79.9 206.9,79.8 207.1,80.2 207.9,80.6 208.1,81 208.1,81.6 208.2,82 208.8,82 209.2,82.2 
			209.5,82.6 209.5,83.1 209.5,83.7 209.5,84.2 209.5,84.7 208.8,85.2 208.5,86.1 208.4,86.5 208,87 207.4,87.3 206.7,87.3 
			206.4,87.4 205.7,87.5 205.2,87.6 204.6,87.8 204.3,88.2 204.3,88.9 204.3,89.4 205,90 205.2,90.4 205.2,90.9 204.9,91.3 
			204.4,91.9 204.4,92.6 204.1,93.3 203.7,93.8 203.1,93.8 202.6,93.8 202.4,94.7 202.5,95.2 201.7,95.5 201.7,96.6 201.7,97.5 
			201.7,98.6 202,99.6 202.7,100.9 203.6,101.7 204.5,102.6 206,103.7 206.5,104.4 206.5,106.4 206.9,107 207.6,106.4 208.1,106.1 
			208.8,106.3 209.4,106.5 209.9,107 209.9,107.7 209.5,108.2 209.5,108.7 209.4,109.3 208.8,109.9 208.6,110.5 208.5,111.2 
			208.5,111.9 208.7,112.3 209.3,112.7 209.9,113.2 210.6,113.8 210.9,114.4 211.8,114.5 213.5,115.8 213.5,117.3 214,118 
			214,118.4 213.6,119.1 213.9,119.7 214.1,120.5 214.7,121 215.5,121 215.4,120.4 216.2,119.7 217,119.4 217.8,119.8 218.5,119.9 
			219.1,120.4 219.8,120.3 219.8,119.5 219.3,118.7 219.6,117.9 220.2,117.9 220.9,117.3 222.2,117.4 221.7,116.6 221.4,116 
			222,115.4 221.7,114.9 221.9,113.8 222.3,113 222.7,112.2 222.6,111.3 223.3,111.2 224.1,110.5 224.4,109.2 224.6,108.3 
			225.1,108.3 225.1,107.4 225.2,106 224.7,105.6 224.4,105 224.7,103.8 225.3,103.3 225.3,85.5 224.8,84.6 224.4,83.9 224.3,83.1 
			223.4,81.6 		"/>
	</defs>
	<clipPath id="SVGID_48_">
		<use xlink:href="#SVGID_47_"  style="overflow:visible;"/>
	</clipPath>
	<g id="_x30_lWay4_13_" class="st18">
		
			<image style="overflow:visible;" width="320" height="213" id="_x30_lWay4_10_" xlink:href="FEDE88A42A001ABB.jpg"  transform="matrix(0.2955 0 0 0.2955 171.8341 65.6362)">
		</image>
	</g>
	<use xlink:href="#SVGID_47_"  style="overflow:visible;fill:none;stroke:#5BC4B9;stroke-miterlimit:10;"/>
</g>
<g>
	<defs>
		<path id="SVGID_49_" d="M208.7,49.4l0.3-0.7l0.6-0.1l0.7-0.1l0.9-1l0.6-0.3h1l1-0.1l0.6-0.3l0.7-0.2l0.6-0.7l1.3-0.1l0.1-0.9
			l1.4-0.6l0.7-0.6l0.5-0.6l1-0.5l1.1-0.2h1.3c0,0,1.1,0,1.1,0.3c0,0.2-0.8,0.5-0.8,0.5l-0.8,0.2l-1.4,1l-0.5,0.8l-0.7,0.4l-0.6,1.1
			l0.2,0.7l0.6-0.2l0.6-0.6l0.6-0.2l1.2,0.1l1.4,0.3l0.6,0.5L225,48l0.3,0.9h0.9v0.6l0.9,0.3l1.3-0.1l0.7,0.4L230,50l0.6-0.5h1
			l0.8-0.6l0.9-0.3l0.8-0.2l3.6-0.2l1.1-0.5l1-0.2c0,0,0.6-0.1,0.6,0c0.1,0.2-0.6,0.8-0.6,0.8v1.2l0.3,0.6l1-0.1h0.9l0.6,0.2
			l0.7-0.6h1.2h0.6l-0.1,1.6l-0.7,0.7l0.6,0.4l0.6,0.2l0.2,0.7l0.8,0.1l0.7-0.2c0,0-0.5-0.5-0.4-0.7c0.1-0.2,1.1,0,1.1,0l1,1
			l-0.4,0.6l-1.8,0.1l-1.6-0.4l-1.4,0.2l-0.9-0.5l-1-0.4l-0.2,0.8l0.3,0.6l1,0.6h0.7l-0.2,0.6l0.7,0.4l0.6,0.4l0.3,0.6l0.3,0.6
			l0.6-0.3l0.8,0.5l1.2,0.2l0.6,0.3l0.6,0.4l0.1,0.8l0.7,0.7l-0.7,0.5h-0.8l0.1,0.6l0.7,0.5l0.6,0.6l-0.1,3.3l-0.6,0.6l-0.7,0.1
			l-0.3,0.7l0.1,0.8l-0.6,0.4l-0.4,0.6l-0.9-0.1l-0.3,0.6v0.7l0.2,0.9l0.6,0.3h1l1-0.3l0.6-1.1l0.6-1l1-0.2l0.7-0.6h0.9l0.7,0.6
			l0.4,1.1l0.2,1.8l0.3,1.2v1l0.2,0.9l0.5,1.3l-0.1,1.3l-0.2,1.2l-0.4,0.9l-0.6,0.2v-1h-0.9l-0.1,1l-0.4,1l-0.6,0.5l-1,0.4l0.2,0.7
			l-0.2,0.7l-0.6,0.9l-0.5,0.8l-0.6,0.6l0.1,0.6l-8,0.2l-0.2-0.8l-11.5,0.2l0.5-0.6l1.1-1.2l0.6-1.5l0.6-1l0.3-1.5l0.2-0.9v-1V76
			l-0.5-1.6l-0.6-1.1l-0.1-0.8l-0.4-0.6l-0.1-0.7l0.4-0.7v-0.8l-0.2-0.6l-0.2-0.8l0.5-0.6l0.8-1l0.3-1l-0.1-1.2v-0.9l0.9-0.4v-0.9
			l0.5-0.6l0.6-0.3l0.8-0.2l0.7-0.8c0,0,0.2-1,0.5-0.9c0.4,0.1-0.3,1.8-0.3,1.8l-0.2,0.8l0.2,0.9l0.6,0.1l0.6-0.7l0.3-0.6v-1.4v-0.8
			l0.2-0.7l0.8-0.3h0.9l0.9-0.2l-0.8-0.7l-0.3-0.6l0.5-0.6l0.5-0.7c0,0-0.6-0.1-0.6-0.2c0.1-0.3,1.4,0,1.4,0s1,0.9,1.2,0.6
			c0.3-0.3-1-1.3-1-1.3l-0.6-0.6l-0.8-0.6l-0.8-0.2l-0.7-0.3l-0.7-0.2l-0.8,0.1l-0.7,1l-0.9-0.1l-0.9,0.2l-0.8-0.1l-1,0.2l-0.6,0.4
			V55l-1,0.5l-0.8,0.9l-0.5-0.7l0.6-0.6l0.7-0.5l-0.2-0.8l-1,0.4l-0.5,0.6l-0.2,0.6l-0.7,0.3l-0.2-0.9l-0.6-0.1v0.9l-0.7,0.7
			l-0.6,0.9l-0.7,1.1l-1.5,1.8l-0.4-0.4l0.7-1.5l-0.5-0.2l-0.4,0.4l-0.6-0.4l0.4-0.7l0.2-0.8v-0.7l-0.5-0.7l-0.8-0.2h-0.6l0.2-0.6
			l-0.5-0.6l-0.7-0.2h-1.1l-0.6-0.2l-0.7-0.2h-0.8l-1.1-0.6l-0.8-0.2l-0.8-0.5l-1-0.2l-1-0.2l-0.8-0.3l-1.5-0.2l-0.8-0.6l-0.4-0.8
			L208.7,49.4z"/>
	</defs>
	<clipPath id="SVGID_50_">
		<use xlink:href="#SVGID_49_"  style="overflow:visible;"/>
	</clipPath>
	<g id="fWXdjz_3_" class="st19">
		
			<image style="overflow:visible;" width="442" height="294" id="fWXdjz_13_" xlink:href="FEDE88A42A001ABD.jpg"  transform="matrix(0.2192 0 0 0.2192 168.6938 28.42)">
		</image>
	</g>
	<use xlink:href="#SVGID_49_"  style="overflow:visible;fill:none;stroke:#5BC4B9;stroke-miterlimit:10;"/>
</g>
<g>
	<defs>
		<polygon id="SVGID_51_" points="225.3,85.5 225.5,86 225.9,86.2 226.5,86.2 227.2,86.2 227.9,86.2 228.7,85.6 229.5,85.2 
			241.1,85.1 241.2,85.9 241.1,105 240.8,105.4 240.7,105.9 241.1,106.4 241.2,107 241.1,107.5 240.6,107.8 239.9,107.8 
			239.3,108.1 238.9,108.6 238.6,108.2 238.1,107.9 237.5,108.1 237.4,108.8 237.5,109.4 237.1,109.9 236.5,110.2 236.3,110.9 
			236,111.4 235.4,111.4 234.9,111.8 234.9,112.4 234.7,113.2 234.2,113.4 233.4,113.4 232.8,113.2 232.5,112.8 232.4,112.4 
			231.9,112.6 231.7,113 231,113.1 231.1,113.7 230.7,114.4 230.2,114.8 229.7,114.1 229.4,113.6 228.9,113.7 228.5,114.1 
			228.1,114.2 227.9,114.7 227.7,115.1 227.3,115 226.5,114.3 226,114.1 225.4,114.1 224.8,114.1 224.5,114.5 224.1,114.5 
			223.6,114.5 223.1,114.2 222.7,114.8 222,115.4 221.7,114.9 221.9,113.8 222.3,113 222.7,112.2 222.6,111.3 223.3,111.2 
			224.1,110.5 224.4,109.2 224.6,108.3 225.1,108.3 225.2,106 224.7,105.6 224.4,105 224.7,103.8 225.3,103.3 		"/>
	</defs>
	<clipPath id="SVGID_52_">
		<use xlink:href="#SVGID_51_"  style="overflow:visible;"/>
	</clipPath>
	<g id="_x30_lWay4_9_" class="st20">
		
			<image style="overflow:visible;" width="320" height="213" id="_x30_lWay4_6_" xlink:href="FEDE88A42A001ABF.jpg"  transform="matrix(0.2955 0 0 0.2955 171.8341 65.6362)">
		</image>
	</g>
	<use xlink:href="#SVGID_51_"  style="overflow:visible;fill:none;stroke:#5BC4B9;stroke-miterlimit:10;"/>
</g>
<g>
	<defs>
		<polygon id="SVGID_53_" points="209,136.1 244.2,136 244.1,135.3 244.1,134.5 244.3,134 245,134 245.6,133.9 245.6,133.2 
			246.2,132.3 246.8,132 247.6,131.6 248.7,131.6 249.2,131.3 249.8,131.1 250.2,130.6 251.3,130.2 251.9,130.2 252.2,129.5 
			252.2,128.9 252.7,128.8 253.2,128.5 253.6,128 254,128.1 254,128.6 254.5,128.7 255,128.5 255.2,127.9 255.7,127.6 256.2,127.4 
			256.7,127.4 257.2,127.9 257.8,127.4 257.8,126.8 258.1,126.3 258.5,126 259.1,126 259.3,124.1 223.4,123.8 223.2,123.2 
			221.8,123.2 222.1,123.7 222.1,124.6 213.4,124.9 213.5,125.6 213,126.1 213,126.5 212.5,126.8 212.9,127.4 212.9,127.8 
			212.4,128.4 212.4,129.8 211.7,130.2 210.8,130.6 211.1,131.4 211.2,132 210.4,132.1 209.6,133 209.6,133.8 210.2,134.9 
			209.5,135.3 		"/>
	</defs>
	<clipPath id="SVGID_54_">
		<use xlink:href="#SVGID_53_"  style="overflow:visible;"/>
	</clipPath>
	<g id="Zdf6CF_7_" class="st21">
		
			<image style="overflow:visible;" width="800" height="800" id="Zdf6CF_4_" xlink:href="FEDE88A42A001AB8.jpg"  transform="matrix(0.1379 0 0 0.1379 153.5938 92.2398)">
		</image>
	</g>
	<use xlink:href="#SVGID_53_"  style="overflow:visible;fill:none;stroke:#5BC4B9;stroke-miterlimit:10;"/>
</g>
<g>
	<defs>
		<polygon id="SVGID_55_" points="248.1,123.6 249.1,123.4 250.3,123.2 251,123 251.1,122.1 252.1,122.1 252.8,121.6 253,120.9 
			253.6,119.8 255.1,119.2 256.2,118.6 257.1,117.6 257.9,117.1 256.9,116.6 256.1,115.7 255.6,115.1 254.6,114 254.6,113.4 
			254.2,112.5 254.1,111.9 254.3,111.3 254.2,110.3 253.1,109.5 252.6,108.8 252.5,107.9 251.8,107.8 251.2,108.3 250.4,109 
			249.5,108.6 248.8,108.2 248.2,108.3 248,109 247.2,109 246.6,108 245.9,107.7 244.9,107.7 244.5,107 244.5,106.4 244.2,105.8 
			243.4,105.3 242.8,105 242.1,105.5 241.8,104.9 241.1,105 240.8,105.4 240.7,105.9 241.1,106.4 241.2,107 241.1,107.5 
			240.6,107.8 239.9,107.8 239.3,108.1 238.9,108.6 238.6,108.2 238.1,107.9 237.5,108.1 237.4,108.8 237.5,109.4 237.1,109.9 
			236.5,110.2 236.3,110.9 236,111.4 235.4,111.4 234.9,111.8 234.9,112.4 234.7,113.2 234.2,113.4 232.8,113.2 232.5,112.8 
			232.4,112.4 231.9,112.6 231.7,113 231,113.1 231.1,113.7 230.7,114.4 230.2,114.8 229.7,114.1 229.4,113.6 228.9,113.7 
			228.1,114.2 227.9,114.7 227.7,115.1 227.3,115 226.5,114.3 226,114.1 225.4,114.1 224.8,114.1 224.1,114.5 223.6,114.5 
			223.1,114.2 222.7,114.8 222,115.4 221.4,116 221.7,116.6 222.2,117.4 220.9,117.3 220.2,117.9 219.6,117.9 219.3,118.7 
			219.8,119.5 219.8,120.3 219.1,120.4 218.5,119.9 217.8,119.8 217,119.4 216.2,119.7 215.4,120.4 215.5,121 215.8,121.4 
			215.8,121.9 215.5,122.4 215.9,122.8 215.4,123.1 215.4,123.7 215,124.1 214.6,123.7 214.2,123.8 214.2,124.3 213.9,124.5 
			213.4,124 212.8,124.2 213.4,124.9 222.1,124.6 222.1,123.7 221.8,123.2 223.2,123.2 223.4,123.8 247.9,124 		"/>
	</defs>
	<clipPath id="SVGID_56_">
		<use xlink:href="#SVGID_55_"  style="overflow:visible;"/>
	</clipPath>
	<g id="_x30_lWay4_5_" class="st22">
		
			<image style="overflow:visible;" width="320" height="213" id="_x30_lWay4_4_" xlink:href="FEDE88A42A001AB9.jpg"  transform="matrix(0.2955 0 0 0.2955 171.8341 65.6362)">
		</image>
	</g>
	<use xlink:href="#SVGID_55_"  style="overflow:visible;fill:none;stroke:#5BC4B9;stroke-miterlimit:10;"/>
</g>
<g>
	<defs>
		<path id="SVGID_57_" d="M221.1,136.1l-12.2,0l0.1,0.8l-1.2,0.5l-0.6,0.9v1.5l-0.5,0.9L206,141l-0.6,0.8l-0.1,0.8l0.1,0.5l-0.8,0.5
			l-0.3,0.8l-0.3,0.5v1l-0.6,1l0.4,1v0.7l0.3,0.8l0.1,0.8l-0.6,0.8l0.5,0.5l-0.1,0.7l-0.2,0.7l0.4,0.3L204,154v0.8l1.3,1.2l-0.4,0.6
			h-0.8l-0.3,0.8l0.5,0.5l-0.3,0.8l-0.5,0.7l-0.9,0.2v0.6l-0.1,0.4l-0.2,0.6l-0.3,0.4l-0.3,0.5v0.8l0,0.6l-0.3,0.5v0.7l0.2,0.8
			l10.7-0.1l0,0.9l-0.4,0.6l-0.1,0.8v0.9l0.7,0.9l0.4,0.6l0.1,0.5l0,0.7l-0.2,0.8l0.8-0.2l0.4-0.7l0.5-0.5c0,0,0-0.5,0.1-0.6
			c0.1,0,0.3,0.5,0.3,0.5l0.4,0.1l0.7-0.3l0.7-0.3l0.7-0.1l0.6,0.1l0.2,0.5l1.1-0.2h0.8l0.3-0.4l-0.5-11.2l0.3-1.7l0.3-3.2l0.5-3.8
			l0.3-3.9l0.2-2.7l0.3-2v-2l0.2-1l0.4-0.9v-1l-0.3-0.4L221.1,136.1z"/>
	</defs>
	<clipPath id="SVGID_58_">
		<use xlink:href="#SVGID_57_"  style="overflow:visible;"/>
	</clipPath>
	<g id="Zdf6CF_3_" class="st23">
		
			<image style="overflow:visible;" width="800" height="800" id="Zdf6CF_13_" xlink:href="FEDE88A42A001AB6.jpg"  transform="matrix(0.1379 0 0 0.1379 153.5938 92.2398)">
		</image>
	</g>
	<use xlink:href="#SVGID_57_"  style="overflow:visible;fill:none;stroke:#5BC4B9;stroke-miterlimit:10;"/>
</g>
<g>
	<defs>
		<polygon id="SVGID_59_" points="221.1,136.1 236,136.2 236.3,136.9 236.8,138.2 236.9,139.4 237.1,140.7 237.3,141.7 237.3,142.8 
			237.7,143.4 237.9,144.5 238.1,145.7 238,146.9 238.2,147.7 238.2,148.9 238.6,149.7 238.7,150.7 239,152 239.2,152.7 
			239.6,153.9 240,154.8 240.1,156 240.6,156.6 240.2,157.2 239.6,157.5 239.7,158.4 239.2,159.3 239.2,160.1 239.4,161 240,161.5 
			239.7,162.9 239.5,163.6 239.5,164.5 239.8,165.2 240.1,165.8 225,165.9 224.6,166.7 224.6,167.3 225.2,167.8 225.9,168.5 
			225.7,169.4 225.8,170.2 225.4,171.1 224.5,171.6 223.8,171.3 223.1,170.6 222.8,169.9 222.8,169.2 222.7,168.4 221.9,168.4 
			221.7,169.1 221.7,170.2 221.7,170.9 221,171.1 220.8,170.5 220.1,170.5 219.6,159.2 220.1,154.3 220.6,150.6 220.9,146.7 
			221.1,144 221.4,141.9 221.4,139.9 221.6,138.9 221.9,138 221.9,137 		"/>
	</defs>
	<clipPath id="SVGID_60_">
		<use xlink:href="#SVGID_59_"  style="overflow:visible;"/>
	</clipPath>
	<g id="Qd27Jn_11_" class="st24">
		
			<image style="overflow:visible;" width="448" height="296" id="Qd27Jn_8_" xlink:href="FEDE88A42A001ADA.jpg"  transform="matrix(0.2736 0 0 0.2736 215.1244 136.2149)">
		</image>
	</g>
	<use xlink:href="#SVGID_59_"  style="overflow:visible;fill:none;stroke:#5BC4B9;stroke-miterlimit:10;"/>
</g>
<g>
	<defs>
		<path id="SVGID_61_" d="M240.1,165.8l-15.1,0.1l-0.4,0.7l0.1,0.7l0.6,0.5l0.7,0.7l-0.2,0.9l0.1,0.8l-0.4,0.8l0.9,0.5l0.9-0.2
			l1.1-0.4l0.8-0.1l1.2-0.4l2.1,0.2l1.8,0.6l2.1,1.6l0.9,0.9l0.9,0.6l0.1,1.4h1.3l1.1-0.6l0.9-0.1l1.2-0.8h1.2l-0.2-1.2l1.2-0.5h0.9
			l1.4,0.9l1.2,1.1l1.1,1.4v1.2l1.4,0.9l0.4,1.1l0.9,0.6h0.8l0.6,1.2l0.4,2.1l-0.6,2.5l-0.5,1.6l-0.4,1.6l0.7,1.6l0.9-0.2
			c0,0-0.1-1.2,0.2-1.3c0.3-0.1,0.8,0.8,0.8,0.8l-0.8,1.4l-0.9,0.7l1.9,4.7l0.8,1.3l0.8-0.9c0,0-0.2-1,0-1.1
			c0.3-0.1,0.8,0.8,0.8,0.8l-0.5,2l-0.5,0.8l1.2,0.7l0.8,0.6v0.9l0.1,1.6l0.8,1.1l1.3,0.1l0.8,1.3l0.8,1.6l-0.2,1.8l0.8,0.8l1.4-0.5
			h0.9l0.8-0.5l1.4-1.1v-1.1l0.1-1.5l0.8-0.2v-1.6v-1.2v-3.3l0.7-0.9v-1.5l-2.5-6.7l-1.2-2.8l0.1-2l0.6-0.9l-1.2-1.8l-2.1-3.6
			l-0.9-3.5l-0.8-3.2l-0.5-3.8l-1.1-0.6l-1.4-0.6l-1.1,0.5l-0.2,0.9l0.5,1.1l-0.6,1.1l-0.9-0.8V169l-15.4-0.8L240.1,165.8z"/>
	</defs>
	<clipPath id="SVGID_62_">
		<use xlink:href="#SVGID_61_"  style="overflow:visible;"/>
	</clipPath>
	<g id="Qd27Jn_7_" class="st25">
		
			<image style="overflow:visible;" width="448" height="296" id="Qd27Jn_4_" xlink:href="FEDE88A42A001AE5.jpg"  transform="matrix(0.2736 0 0 0.2736 215.1244 136.2149)">
		</image>
	</g>
	<use xlink:href="#SVGID_61_"  style="overflow:visible;fill:none;stroke:#5BC4B9;stroke-miterlimit:10;"/>
</g>
<g>
	<defs>
		<polygon id="SVGID_63_" points="236,136.2 251.1,136.1 250.1,137.4 249.6,138.4 250.5,139.1 251.4,139.8 252.3,140 253,140.7 
			253.2,141.7 253.6,142.7 254.4,143.7 254.9,144.4 256.1,144.9 256.4,146 257.1,146.9 258,147.6 258.4,148.6 258.8,149.4 
			260.1,150.5 260.7,151 261.2,152.4 261.2,153.7 262.2,154.8 262.8,156.1 262.8,157.4 263.6,158.2 264.4,158.4 263.5,159.7 
			263.1,160.6 262.6,161.6 262,162 262.3,162.7 261.8,163.4 262.2,164.1 261.3,164.8 260.8,165.8 261.3,166.3 261,168.5 260,167.9 
			258.6,167.4 257.5,167.8 257.3,168.8 257.7,169.8 257.1,170.9 256.2,170.1 256.2,169 240.8,168.2 240.1,165.8 239.8,165.2 
			239.5,164.5 239.5,163.6 239.7,162.9 240,161.5 239.4,161 239.2,160.1 239.2,159.3 239.7,158.4 239.6,157.5 240.2,157.2 
			240.6,156.6 240.1,156 240,154.8 239.6,153.9 239.2,152.7 239,152 238.7,150.7 238.6,149.7 238.2,148.9 238.2,147.7 238,146.9 
			238.1,145.7 237.9,144.5 237.7,143.4 237.3,142.8 237.3,141.7 237.1,140.7 236.9,139.4 236.8,138.2 236.3,136.9 		"/>
	</defs>
	<clipPath id="SVGID_64_">
		<use xlink:href="#SVGID_63_"  style="overflow:visible;"/>
	</clipPath>
	<g id="Qd27Jn_3_" class="st26">
		
			<image style="overflow:visible;" width="448" height="296" id="Qd27Jn_13_" xlink:href="FEDE88A42A001AE6.jpg"  transform="matrix(0.2736 0 0 0.2736 215.1244 136.2149)">
		</image>
	</g>
	<use xlink:href="#SVGID_63_"  style="overflow:visible;fill:none;stroke:#5BC4B9;stroke-miterlimit:10;"/>
</g>
<g>
	<defs>
		<polygon id="SVGID_65_" points="241.2,85.9 249.2,85.6 250.2,86 251.3,86.5 252.1,87.2 252.8,86.9 254,87.8 255.1,88.1 
			256.6,87.7 257.3,87.3 258.9,87.3 259.7,87 260.6,86.3 261.6,85.3 262.6,85 264.1,84.6 266.3,83.6 266.3,93.4 265.6,94 266,95.7 
			265.2,97.1 265.2,98.2 264.6,99.4 264.5,100.6 264.1,101.4 263.2,101.9 262.2,103.1 261.3,103.2 260.6,102.6 259.9,104 
			259.1,104.7 259.1,105.6 259,106.8 258.1,106.8 257.7,106 257,106.8 256.6,107.9 256.6,108.7 255.9,109.4 255.5,110.3 
			254.2,110.3 253.1,109.5 252.6,108.8 252.5,107.9 251.8,107.8 251.2,108.3 250.4,109 249.5,108.6 248.8,108.2 248.2,108.3 
			248,109 247.2,109 246.6,108 245.9,107.7 244.9,107.7 244.5,107 244.5,106.4 244.2,105.8 243.4,105.3 242.8,105 242.1,105.5 
			241.8,104.9 241.1,105 		"/>
	</defs>
	<clipPath id="SVGID_66_">
		<use xlink:href="#SVGID_65_"  style="overflow:visible;"/>
	</clipPath>
	<g id="_x30_lWay4_3_" class="st27">
		
			<image style="overflow:visible;" width="320" height="213" id="_x30_lWay4_25_" xlink:href="FEDE88A42A001AE4.jpg"  transform="matrix(0.2955 0 0 0.2955 171.8341 65.6362)">
		</image>
	</g>
	<use xlink:href="#SVGID_65_"  style="overflow:visible;fill:none;stroke:#5BC4B9;stroke-miterlimit:10;"/>
</g>
<g>
	<defs>
		<polygon id="SVGID_67_" points="266.3,93.4 265.6,94 266,95.7 265.2,97.1 265.2,98.2 264.6,99.4 264.5,100.6 264.1,101.4 
			263.2,101.9 262.2,103.1 261.3,103.2 260.6,102.6 259.9,104 259.1,104.7 259.1,105.6 259,106.8 258.1,106.8 257.7,106 257,106.8 
			256.6,107.9 256.6,108.7 255.9,109.4 255.5,110.3 254.2,110.3 254.3,111.3 254.1,111.9 254.2,112.5 254.6,113.4 254.6,114 
			255.6,115.1 256.1,115.7 256.9,116.6 257.9,117.1 258.3,118.5 259,119.1 260.1,119.5 260.8,119.1 261.5,118.5 262.1,119.2 
			263.1,118.9 264.1,118.7 264.3,117.6 265.4,118.1 266.3,117.6 267.1,117.6 267.4,116.9 268.2,116.4 268.4,114.7 269.4,113.4 
			270.2,112.1 270.7,111.3 271.2,110.3 271.4,109.3 272.1,109.2 273,110.3 274,110.1 274.4,108.9 274.9,107.8 275.5,107.3 
			276.2,107.9 276.5,107.2 277.5,106.4 278,105.7 278.4,105.1 278.7,104.1 278.8,103.5 279.2,102.4 281.9,104.8 282.5,104.6 
			282.6,102.7 282,101.8 281,101.4 280.3,100.9 279.5,101.2 278.7,101.2 278.4,101.9 277.1,102 276.6,101.3 275.7,102.7 
			274.6,102.5 272.6,104.4 272.5,100.6 266.4,100.5 		"/>
	</defs>
	<clipPath id="SVGID_68_">
		<use xlink:href="#SVGID_67_"  style="overflow:visible;"/>
	</clipPath>
	<g id="XSzZca_19_" class="st28">
		
			<image style="overflow:visible;" width="255" height="153" id="XSzZca_18_" xlink:href="FEDE88A42A001AEA.jpg"  transform="matrix(0.3329 0 0 0.3329 250.4346 78.2554)">
		</image>
	</g>
	<use xlink:href="#SVGID_67_"  style="overflow:visible;fill:none;stroke:#5BC4B9;stroke-miterlimit:10;"/>
</g>
<g>
	<defs>
		<polygon id="SVGID_69_" points="277.9,144.5 271.2,137.3 264.8,137.2 264.6,136.4 264.2,135.3 263.6,135.7 263.1,134.8 
			256.4,134.7 255.5,134.1 254.5,134.6 253.2,135.4 251.8,135.8 251.1,136.1 250.1,137.4 249.6,138.4 250.5,139.1 251.4,139.8 
			252.3,140 253,140.7 253.2,141.7 253.6,142.7 254.4,143.7 254.9,144.4 256.1,144.9 256.4,146 257.1,146.9 258,147.6 258.4,148.6 
			258.8,149.4 260.1,150.5 260.7,151 261.2,152.4 261.2,153.7 262.2,154.8 262.8,156.1 262.8,157.4 263.6,158.2 264.4,157.7 
			265.4,157 266.2,156.2 266.9,155.6 266.5,154.9 267.4,154.8 268.5,154.2 269.6,153.9 270.2,152.9 271.3,152.3 271.9,151.5 
			272,150.6 272.9,151 274,150.1 274.1,149.1 274.1,148.1 274.7,147.3 276.1,145.8 		"/>
	</defs>
	<clipPath id="SVGID_70_">
		<use xlink:href="#SVGID_69_"  style="overflow:visible;"/>
	</clipPath>
	<g id="ndUiX2_7_" class="st29">
		
			<image style="overflow:visible;" width="2363" height="1576" id="ndUiX2_6_" xlink:href="FEDE88A42A001AED.jpg"  transform="matrix(3.116176e-02 0 0 3.116176e-02 233.5573 111.4724)">
		</image>
	</g>
	<use xlink:href="#SVGID_69_"  style="overflow:visible;fill:none;stroke:#5BC4B9;stroke-miterlimit:10;"/>
</g>
<g>
	<defs>
		<polygon id="SVGID_71_" points="293.8,124.3 259.3,124.1 259.1,126 258.5,126 258.1,126.3 257.8,126.8 257.8,127.4 257.2,127.9 
			256.7,127.4 256.2,127.4 255.7,127.6 255.2,127.9 255,128.5 254.5,128.7 254,128.6 254,128.1 253.6,128 253.2,128.5 252.7,128.8 
			252.2,128.9 252.2,129.5 251.9,130.2 251.3,130.2 250.2,130.6 249.8,131.1 249.2,131.3 248.7,131.6 247.6,131.6 246.8,132 
			246.2,132.3 245.6,133.2 245.6,133.9 245,134 244.3,134 244.1,134.5 244.1,135.3 244.2,136 251.1,136.1 251.8,135.8 253.2,135.4 
			254.5,134.6 255.5,134.1 256.4,134.7 263.1,134.8 263.6,135.7 264.2,135.3 264.6,136.4 264.8,137.2 271.2,137.3 277.9,144.5 
			279,144.3 279.5,143.9 280.6,144.1 281.4,144.8 282.1,142.7 283,141 284.9,139.5 286.9,138.4 287.9,138.4 289.1,138.4 
			289.9,139.1 290.1,138.3 290.6,137.3 291.4,136.5 290.4,135.9 289.3,135.9 290.2,134.5 289.5,133.6 289.5,132.8 290.8,132.8 
			292.3,133.5 293.2,132.2 294.4,131.7 294.4,129.7 293.9,128.8 293,129.2 291.7,128.7 290.8,128.7 289.3,129.2 288.5,128.8 
			288.9,128 290,127.9 290.9,127.8 292,127.6 292.7,127 293.8,127.3 294,126.4 293.7,125.2 		"/>
	</defs>
	<clipPath id="SVGID_72_">
		<use xlink:href="#SVGID_71_"  style="overflow:visible;"/>
	</clipPath>
	<g id="ndUiX2_5_" class="st30">
		
			<image style="overflow:visible;" width="2363" height="1576" id="ndUiX2_9_" xlink:href="FEDE88A42A001AEE.jpg"  transform="matrix(3.116176e-02 0 0 3.116176e-02 233.5573 111.4724)">
		</image>
	</g>
	<use xlink:href="#SVGID_71_"  style="overflow:visible;fill:none;stroke:#5BC4B9;stroke-miterlimit:10;"/>
</g>
<g>
	<defs>
		<polygon id="SVGID_73_" points="257.9,117.1 257.1,117.6 256.2,118.6 255.1,119.2 253.6,119.8 253,120.9 252.8,121.6 252.1,122.1 
			251.1,122.1 251,123 250.3,123.2 249.1,123.4 248.1,123.6 247.9,124 293.8,124.3 293.4,123.7 293,122.7 293,121.6 292.2,121.6 
			291.4,121.5 290.7,121.7 290,121.7 289.1,120.7 288.4,119.9 287.9,119.4 289.1,119.4 290,120.3 290.6,121.1 291.2,120.9 
			291.2,120.1 290.6,119.4 290.6,118.6 290.3,118.2 290.8,118 291.4,118.3 291.4,117.7 291,117.1 290.8,116.4 290.9,115.5 
			291.1,114.8 290.9,113.8 289.9,113.3 289.1,112.3 288.2,112.5 287.3,112.1 286.7,111.2 286.3,110.6 285.5,110.9 285,110.3 
			285.6,109 286.4,108.1 286.9,107.6 286.5,107 285.8,106.1 285.4,105.6 284.6,105.6 284.1,105 284.1,104.2 283.3,103.8 
			282.6,103.6 282.5,104.6 281.9,104.8 279.2,102.4 278.8,103.5 278.7,104.1 278.4,105.1 278,105.7 277.5,106.4 276.5,107.2 
			276.2,107.9 275.5,107.3 274.9,107.8 274.4,108.9 274,110.1 273,110.3 272.1,109.2 271.4,109.3 271.2,110.3 270.7,111.3 
			270.2,112.1 269.4,113.4 268.4,114.7 268.2,116.4 267.4,116.9 267.1,117.6 266.3,117.6 265.4,118.1 264.3,117.6 264.1,118.7 
			263.1,118.9 262.1,119.2 261.5,118.5 260.8,119.1 260.1,119.5 259,119.1 258.3,118.5 		"/>
	</defs>
	<clipPath id="SVGID_74_">
		<use xlink:href="#SVGID_73_"  style="overflow:visible;"/>
	</clipPath>
	<g id="XSzZca_17_" class="st31">
		
			<image style="overflow:visible;" width="255" height="153" id="XSzZca_16_" xlink:href="FEDE88A42A001AEC.jpg"  transform="matrix(0.3329 0 0 0.3329 250.4346 78.2554)">
		</image>
	</g>
	<use xlink:href="#SVGID_73_"  style="overflow:visible;fill:none;stroke:#5BC4B9;stroke-miterlimit:10;"/>
</g>
<g>
	<defs>
		<polygon id="SVGID_75_" points="294.1,100.5 272.5,100.6 272.6,104.4 274.6,102.5 275.7,102.7 276.6,101.3 277.1,102 278.4,101.9 
			278.7,101.2 279.5,101.2 280.3,100.9 281,101.4 282,101.8 282.6,102.7 282.6,103.6 284.1,104.2 284.1,105 284.6,105.6 
			285.4,105.6 286.4,106.3 287,106.1 287.5,106.7 286.9,107.6 285.6,109 285,110.3 285.5,110.9 286.3,110.6 286.9,110.2 287.4,111 
			288.1,111.4 288.6,111.7 289.3,111.7 289.9,112.1 290.3,112.6 290.8,113.1 290.8,112.2 290.4,111.4 290.3,110.5 289.8,109.4 
			289.8,108.1 289.9,107 290.3,106.1 290.3,105.2 289.9,104.9 290.3,104.1 290.8,103.6 291.4,103.6 292,103 292.5,102.3 
			293.3,102.1 292.6,103.3 291.6,104.1 291.6,105 292,105.4 291.5,106.1 291,106.7 291.6,107.4 291,107.8 292.1,108.3 291.5,108.9 
			291.3,109.7 291.5,110.9 292.4,111.8 293,110.8 293.9,111.6 293.9,112.7 294.2,113.7 295,113.7 294.2,115 293.5,116.1 
			293.2,117.1 293,118.1 292.9,119.2 293.3,120.1 294.4,119.5 294.4,118.1 295.2,117.4 295.2,116.4 295.7,115.2 296.5,114.2 
			297.4,113.5 298.1,112.3 298.4,110.5 298.1,110 294.9,110.1 		"/>
	</defs>
	<clipPath id="SVGID_76_">
		<use xlink:href="#SVGID_75_"  style="overflow:visible;"/>
	</clipPath>
	<g id="XSzZca_15_" class="st32">
		
			<image style="overflow:visible;" width="255" height="153" id="XSzZca_14_" xlink:href="FEDE88A42A001AEB.jpg"  transform="matrix(0.3329 0 0 0.3329 250.4346 78.2554)">
		</image>
	</g>
	<use xlink:href="#SVGID_75_"  style="overflow:visible;fill:none;stroke:#5BC4B9;stroke-miterlimit:10;"/>
</g>
<polygon class="st33" points="296.4,99.8 295.5,99.7 294.8,99.9 294.1,100.5 294.9,110.1 298.1,110 298.4,110.5 298.5,107.9 
	297.9,107.5 297.2,107 296.9,106.5 296.8,105.9 296.4,105.5 296.5,104.5 296.4,103.9 295.7,103.2 295.4,102.4 295.2,101.7 
	295.2,101.4 295.6,101 296,100.7 296.3,100.3 "/>
<g>
	<defs>
		<polygon id="SVGID_77_" points="270.7,81.4 266.3,83.6 266.4,100.5 294.1,100.5 294.8,99.9 295.5,99.7 296.4,99.8 297,99.5 
			297.9,99.4 298.3,98.7 299.2,98.1 300.3,97.4 299.8,96.4 298.9,95.6 298.3,95.5 298.3,94.5 297.7,94.2 297.5,93.6 297.7,92.9 
			298.4,92.3 298.3,91.6 298.1,90.8 298.6,90.8 299.2,90.1 299.7,89.2 300.5,88.4 299.9,87.8 299.3,87.2 298.6,86.6 298.5,85.5 
			298.5,85 297.6,84.6 297.1,84.3 297.1,83.7 295.9,83.5 270.9,83.6 		"/>
	</defs>
	<clipPath id="SVGID_78_">
		<use xlink:href="#SVGID_77_"  style="overflow:visible;"/>
	</clipPath>
	<g id="XSzZca_13_" class="st34">
		
			<image style="overflow:visible;" width="255" height="153" id="XSzZca_12_" xlink:href="FEDE88A42A001AE7.jpg"  transform="matrix(0.3329 0 0 0.3329 250.4346 78.2554)">
		</image>
	</g>
	<use xlink:href="#SVGID_77_"  style="overflow:visible;fill:none;stroke:#5BC4B9;stroke-miterlimit:10;"/>
</g>
<g>
	<defs>
		<polygon id="SVGID_79_" points="296.3,100.3 296,100.7 295.6,101 295.8,102.1 296,102.7 296.6,103.2 297.1,103.8 297.7,104.3 
			298.2,104.5 298.8,104.5 299.3,104.8 299.2,105.6 299,106.1 299,106.7 299.9,106.4 300.4,105.6 300.6,104.6 301.1,104.1 
			302.2,103.3 303,102.5 303.6,101.6 303.9,100.7 304.3,99.6 304.3,98 304.6,97.3 304.8,95.8 304.8,95.3 303.9,95.2 303.2,94.9 
			303.2,94.2 303.6,93.8 304.1,93.5 304.6,93.2 305.4,91.2 300.5,88.4 299.7,89.2 299.2,90.1 298.6,90.8 298.1,90.8 298.3,91.6 
			298.4,92.3 297.7,92.9 297.5,93.6 297.7,94.2 298.3,94.5 298.3,95.5 298.9,95.6 299.8,96.4 300.3,97.4 299.2,98.1 298.3,98.7 
			297.9,99.4 297,99.5 296.4,99.8 		"/>
	</defs>
	<clipPath id="SVGID_80_">
		<use xlink:href="#SVGID_79_"  style="overflow:visible;"/>
	</clipPath>
	<g id="XSzZca_11_" class="st35">
		
			<image style="overflow:visible;" width="255" height="153" id="XSzZca_21_" xlink:href="FEDE88A42A001AC1.jpg"  transform="matrix(0.3329 0 0 0.3329 250.4346 78.2554)">
		</image>
	</g>
	<use xlink:href="#SVGID_79_"  style="overflow:visible;fill:none;stroke:#5BC4B9;stroke-miterlimit:10;"/>
</g>
<g>
	<defs>
		<polygon id="SVGID_81_" points="308.6,61 299.2,60.8 298.4,61.7 297.5,61.7 294.4,64.5 294.1,65.4 293.2,65.9 292.2,66.2 
			291.9,67 290.9,67 290.7,67.7 291.1,68.3 291.8,68.7 292.2,69.5 291.1,69.8 291.7,70.5 291.7,71.5 291.3,72.2 290.6,72.1 
			289.5,72.6 288.7,73.4 287.9,74 286.7,74 285.4,74 284.5,74 283.7,74.4 283.1,73.7 282,73.4 280,73.2 277.5,73.2 276.5,73.5 
			275.7,73.9 274.9,74.1 274.8,75.3 275.2,76.1 275.9,76.9 276.2,77.7 275.2,78.3 274.7,79 274,79.6 273.3,79.6 272.5,80.5 
			270.7,81.4 270.9,83.6 297.1,83.7 297.1,84.3 297.6,84.6 298.5,85 298.5,85.5 298.6,86.6 299.3,87.2 299.9,87.8 300.5,88.4 
			305.4,91.2 304.6,93.2 304.6,94.1 305.7,94.2 308.4,93.9 310.3,93.6 312.4,92.8 314.4,91.7 315.4,91.5 316.2,91.1 317.4,90.6 
			315.1,90.4 314.2,89.7 313.2,90.8 312,91 309.8,91.2 308.2,91.6 306,92.4 306.7,91 306.2,90.2 307.6,89.4 307.7,83.7 307.2,82.8 
			308.2,81 308.8,78.6 309.1,77.7 309.1,71.8 308.3,71.5 308.5,70.5 308.1,69.1 307.8,68 308.3,67.1 308.8,66.3 308.8,64.4 		"/>
	</defs>
	<clipPath id="SVGID_82_">
		<use xlink:href="#SVGID_81_"  style="overflow:visible;"/>
	</clipPath>
	<g id="MCnnxV_27_" class="st36">
		
			<image style="overflow:visible;" width="1280" height="768" id="MCnnxV_26_" xlink:href="FEDE88A42A001AC3.jpg"  transform="matrix(7.063932e-02 0 0 7.063932e-02 271.2998 39.7344)">
		</image>
	</g>
	<use xlink:href="#SVGID_81_"  style="overflow:visible;fill:none;stroke:#5BC4B9;stroke-miterlimit:10;"/>
</g>
<g>
	<defs>
		<polygon id="SVGID_83_" points="307.9,83.2 317.8,83.2 317.8,87.6 317.4,87.9 317.3,88.4 316.6,88.9 316.5,88.5 315.8,88.5 
			315.4,88.5 314.9,89 314.2,89 311.6,89 310.9,88.9 309.7,89.9 308.7,89.9 307.5,90.9 306.7,91 306.2,90.2 307.6,89.4 307.7,83.7 
					"/>
	</defs>
	<clipPath id="SVGID_84_">
		<use xlink:href="#SVGID_83_"  style="overflow:visible;"/>
	</clipPath>
	<g id="MCnnxV_25_" class="st37">
		
			<image style="overflow:visible;" width="1280" height="768" id="MCnnxV_24_" xlink:href="FEDE88A42A001AC0.jpg"  transform="matrix(7.063932e-02 0 0 7.063932e-02 271.2998 39.7344)">
		</image>
	</g>
	<use xlink:href="#SVGID_83_"  style="overflow:visible;fill:none;stroke:#5BC4B9;stroke-miterlimit:10;"/>
</g>
<g>
	<defs>
		<polygon id="SVGID_85_" points="317.9,83.6 319.9,83.5 320.2,84.3 320.4,84.9 320.3,85.7 319.5,86 319.6,87.6 319.4,88.2 
			318.6,88.2 317.7,88.5 317.4,87.9 317.8,87.6 		"/>
	</defs>
	<clipPath id="SVGID_86_">
		<use xlink:href="#SVGID_85_"  style="overflow:visible;"/>
	</clipPath>
	<g id="MCnnxV_23_" class="st38">
		
			<image style="overflow:visible;" width="1280" height="768" id="MCnnxV_22_" xlink:href="FEDE88A42A001AC7.jpg"  transform="matrix(7.063932e-02 0 0 7.063932e-02 271.2998 39.7344)">
		</image>
	</g>
	<use xlink:href="#SVGID_85_"  style="overflow:visible;fill:none;stroke:#5BC4B9;stroke-miterlimit:10;"/>
</g>
<g>
	<defs>
		<path id="SVGID_87_" d="M309,78l11.8,0.2l0.4-0.1l0.2-0.4l0.1-0.4h0.4l0.5-0.5h0.8l0.4,0.5l0.2,0.7l0.1,0.4l0.5,0.1l0.4-0.3v0.5
			l-0.6,0.6l-0.7,0.1l-0.1,0.7l-0.7,0.1l-0.5,0.2v0.4v0.5h0.7l0.5-0.1l0.5,0.7l0.4,0.6v0.5l-0.5,0.4l0.5,0.4l0.4-0.1l0.2,0.6
			l0.2,0.4l0.4,0.5l0.5,0.1l0.9,0.1l0.7-0.2l0.5-0.4l-0.3-0.4l-0.2-0.7l-0.2-0.5H327l-0.4-0.3l0.3-0.4h0.7l0.5,0.5l0.4,0.5l0.2,0.7
			l0.2,0.9l-0.2,0.9l-0.3,0.7c0,0-0.6,0.2-0.7,0.1c-0.1-0.2,0.2-0.8,0.2-0.8l-0.1-0.4l-1.3,0.5l-0.6,0.2l-0.8,0.5
			c0,0-0.7,0.3-0.9,0.2c-0.2-0.1-0.1-0.9-0.1-0.9v-0.8l-0.7,0.5l-0.4,0.7l-0.5,0.3l-0.4,0.3l-0.6-0.1v-0.7l-0.7-0.8l-0.4-0.4
			l-0.3-0.5l-0.2-0.6l-0.3-0.7l-2,0.1l-0.2-0.4l-9.8-0.1l-0.2,0.5l-0.5-0.9l1-1.8l0.6-2.4L309,78z"/>
	</defs>
	<clipPath id="SVGID_88_">
		<use xlink:href="#SVGID_87_"  style="overflow:visible;"/>
	</clipPath>
	<g id="MCnnxV_21_" class="st39">
		
			<image style="overflow:visible;" width="1280" height="768" id="MCnnxV_20_" xlink:href="FEDE88A42A001AC2.jpg"  transform="matrix(7.063932e-02 0 0 7.063932e-02 271.2998 39.7344)">
		</image>
	</g>
	<use xlink:href="#SVGID_87_"  style="overflow:visible;fill:none;stroke:#5BC4B9;stroke-miterlimit:10;"/>
</g>
<g>
	<defs>
		<polygon id="SVGID_89_" points="319.2,61 308.6,61 308.8,64.4 308.8,66.3 308.3,67.1 307.8,68 308.1,69.1 308.5,70.5 308.3,71.5 
			309.1,71.8 309,78 313.6,78 313.3,77.4 313.6,76.5 314.1,75.6 313.9,75.1 313.8,74.4 314.1,73.8 313.9,72.8 313.9,72 314.4,71.4 
			314.9,70.7 315.5,70 315.5,69.5 315.9,68.6 315.9,67.7 315.9,66.7 316.2,66 316.8,66 317.7,65.8 318.3,65.6 318.8,64.9 
			319.1,64.3 319.1,63.4 318.7,62.8 319.2,62.2 		"/>
	</defs>
	<clipPath id="SVGID_90_">
		<use xlink:href="#SVGID_89_"  style="overflow:visible;"/>
	</clipPath>
	<g id="MCnnxV_19_" class="st40">
		
			<image style="overflow:visible;" width="1280" height="768" id="MCnnxV_18_" xlink:href="FEDE88A42A001ADE.jpg"  transform="matrix(7.063932e-02 0 0 7.063932e-02 271.2998 39.7344)">
		</image>
	</g>
	<use xlink:href="#SVGID_89_"  style="overflow:visible;fill:none;stroke:#5BC4B9;stroke-miterlimit:10;"/>
</g>
<g>
	<defs>
		<polygon id="SVGID_91_" points="322,58.7 321.4,59.3 320.7,58.8 319.6,59.1 319.7,60 319.2,61 319.2,62.2 318.7,62.8 319.1,63.4 
			319.1,64.3 318.8,64.9 318.3,65.6 317.7,65.8 316.8,66 316.2,66 315.9,66.7 315.9,67.7 315.9,68.6 315.5,69.5 315.5,70 
			314.9,70.7 314.4,71.4 313.9,72 313.9,72.8 314.1,73.8 313.8,74.4 313.9,75.1 314.1,75.6 313.6,76.5 313.3,77.4 313.6,78 
			320.8,78.2 321.2,78.2 321.4,77.8 321.5,77.4 321.9,77.4 322.4,76.9 323.2,76.9 323.7,76.3 323.8,75.6 323.5,75.1 323.5,74.2 
			322.6,73.5 322.4,72.8 322.7,71.9 322.4,71.2 		"/>
	</defs>
	<clipPath id="SVGID_92_">
		<use xlink:href="#SVGID_91_"  style="overflow:visible;"/>
	</clipPath>
	<g id="MCnnxV_17_" class="st41">
		
			<image style="overflow:visible;" width="1280" height="768" id="MCnnxV_16_" xlink:href="FEDE88A42A001ADF.jpg"  transform="matrix(7.063932e-02 0 0 7.063932e-02 271.2998 39.7344)">
		</image>
	</g>
	<use xlink:href="#SVGID_91_"  style="overflow:visible;fill:none;stroke:#5BC4B9;stroke-miterlimit:10;"/>
</g>
<g>
	<defs>
		<polygon id="SVGID_93_" points="322.1,58.3 322.5,58.7 323,59.2 323.5,59.1 323.5,58.6 323.5,57.9 324.1,57.9 324.8,58.2 
			324.7,57.5 324.1,57 324.5,56.6 325,56.2 325.7,55.6 325.9,54.9 326.4,54.6 326.8,54.1 326.4,53.6 326.3,53 326.8,52.5 
			326.8,52.1 326.8,51.4 327.3,50.9 328.1,50.5 328.1,49.8 328.2,48.6 328.8,47.6 332.6,42.8 333.4,42.7 334,42.9 333.9,43.7 
			333.9,44 334.3,44.6 334.8,44.6 335.6,44.4 336.2,44.1 336.9,43.7 337.7,43.6 338.6,43.3 339.6,44 340.2,44.3 340.6,44.8 
			341.2,45.4 341.4,46.5 341.3,54.6 341,55.4 341.1,56.1 342.4,56.4 343.2,56.5 343,57.3 343.3,58.3 343,59.1 343.6,59.6 344.1,60 
			344.6,59.6 345.2,60.1 345.4,60.9 345.8,61.4 346.1,62.2 345.8,63.1 345.1,63.4 344.2,63.9 343.8,63.4 343.3,64.1 342.5,64.1 
			342.5,64.6 341.7,64.6 341,64.3 340.7,65 340.1,65.5 339.5,65.5 339.2,65.1 338.2,65.2 338.7,66.2 338.1,66.8 337.5,66.1 
			337.2,65.3 336.6,65.9 336.1,66.2 335.3,66.2 335.2,65.5 334.5,65.6 334.1,66.6 333.9,67.3 333.4,68.4 332.5,69 331.8,68.6 
			330.9,69.3 329.5,70.2 328.9,70 328,69.4 327.1,70.6 327.1,71.9 326.1,71.9 326.1,73 325.4,73.4 324.7,73.8 324.6,74.8 
			323.8,75.6 323.5,75.1 323.5,74.2 322.6,73.5 322.4,72.8 322.7,71.9 322.4,71.2 		"/>
	</defs>
	<clipPath id="SVGID_94_">
		<use xlink:href="#SVGID_93_"  style="overflow:visible;"/>
	</clipPath>
	<g id="MCnnxV_15_" class="st42">
		
			<image style="overflow:visible;" width="1280" height="768" id="MCnnxV_29_" xlink:href="FEDE88A42A001AC4.jpg"  transform="matrix(7.063932e-02 0 0 7.063932e-02 271.2998 39.7344)">
		</image>
	</g>
	<use xlink:href="#SVGID_93_"  style="overflow:visible;fill:none;stroke:#5BC4B9;stroke-miterlimit:10;"/>
</g>
</svg>
