<?xml version="1.0" encoding="utf-8"?>
<!-- Generator: Adobe Illustrator 22.0.1, SVG Export Plug-In . SVG Version: 6.00 Build 0)  -->
<svg version="1.1" id="Layer_1" xmlns="http://www.w3.org/2000/svg" xmlns:xlink="http://www.w3.org/1999/xlink" x="0px" y="0px"
	 viewBox="0 0 1280 515" style="enable-background:new 0 0 1280 515;" xml:space="preserve">
<style type="text/css">
	.st0{clip-path:url(#SVGID_2_);fill:#00ADEE;}
	.st1{clip-path:url(#SVGID_2_);fill:none;stroke:#00ADEE;}
	.st2{clip-path:url(#SVGID_2_);fill:#FFFFFF;}
	.st3{fill:#231F20;}
	.st4{font-family:'Montserrat-Black';}
	.st5{font-size:174.5441px;}
	.st6{letter-spacing:2.8;}
</style>
<g>
	<defs>
		<rect id="SVGID_1_" x="14" y="14.1" width="1245" height="478.8"/>
	</defs>
	<clipPath id="SVGID_2_">
		<use xlink:href="#SVGID_1_"  style="overflow:visible;"/>
	</clipPath>
	<path class="st0" d="M41.9,254h-8.6v-15.3h8.6c2.7,0,4.8,0.7,6.2,2c1.5,1.3,2.2,3.2,2.2,5.6c0,2.5-0.7,4.4-2.2,5.8
		C46.7,253.3,44.6,254,41.9,254 M42.8,225.8H15.4v56h17.9v-15l9.5-0.1c7.8,0,13.9-1.8,18.1-5.5c4.3-3.7,6.4-8.8,6.4-15.5
		c0-6.3-2.1-11.2-6.4-14.7C56.6,227.6,50.6,225.8,42.8,225.8"/>
	<path class="st1" d="M571.1,254h-8.6v-15.3h8.6c2.7,0,4.8,0.7,6.2,2c1.5,1.3,2.2,3.2,2.2,5.6c0,2.5-0.7,4.4-2.2,5.8
		C575.9,253.3,573.8,254,571.1,254z M571.9,225.8h-27.4v56h17.9v-15l9.5-0.1c7.8,0,13.9-1.8,18.1-5.5c4.3-3.7,6.4-8.8,6.4-15.5
		c0-6.3-2.1-11.2-6.4-14.7C585.8,227.6,579.8,225.8,571.9,225.8z"/>
	<path class="st1" d="M304.3,254h-8.6v-15.3h8.6c2.7,0,4.8,0.7,6.2,2c1.5,1.3,2.2,3.2,2.2,5.6c0,2.5-0.7,4.4-2.2,5.8
		C309.1,253.3,307,254,304.3,254z M305.2,225.8h-27.4v56h17.9v-15l9.5-0.1c7.8,0,13.9-1.8,18.1-5.5c4.3-3.7,6.4-8.8,6.4-15.5
		c0-6.3-2.1-11.2-6.4-14.7C319,227.6,313,225.8,305.2,225.8z"/>
	<path class="st1" d="M833.5,254h-8.6v-15.3h8.6c2.7,0,4.8,0.7,6.2,2c1.5,1.3,2.2,3.2,2.2,5.6c0,2.5-0.7,4.4-2.2,5.8
		C838.3,253.3,836.2,254,833.5,254z M834.3,225.8H807v56h17.9v-15l9.5-0.1c7.8,0,13.9-1.8,18.1-5.5c4.3-3.7,6.4-8.8,6.4-15.5
		c0-6.3-2.1-11.2-6.4-14.7C848.2,227.6,842.1,225.8,834.3,225.8z"/>
	<path class="st1" d="M1099.2,254h-8.6v-15.3h8.6c2.7,0,4.8,0.7,6.2,2c1.5,1.3,2.2,3.2,2.2,5.6c0,2.5-0.7,4.4-2.2,5.8
		C1104,253.3,1101.9,254,1099.2,254z M1100.1,225.8h-27.4v56h17.9v-15l9.5-0.1c7.8,0,13.9-1.8,18.1-5.5c4.3-3.7,6.4-8.8,6.4-15.5
		c0-6.3-2.1-11.2-6.4-14.7C1113.9,227.6,1107.9,225.8,1100.1,225.8z"/>
	<path class="st1" d="M173.6,255.2H165v-15.3h8.6c2.7,0,4.8,0.7,6.2,2c1.5,1.3,2.2,3.2,2.2,5.6c0,2.5-0.7,4.4-2.2,5.8
		C178.4,254.5,176.3,255.2,173.6,255.2z M174.4,227H147v56H165v-15l9.5-0.1c7.8,0,13.9-1.8,18.1-5.5c4.3-3.7,6.4-8.8,6.4-15.5
		c0-6.3-2.1-11.2-6.4-14.7C188.3,228.8,182.2,227,174.4,227z"/>
	<path class="st1" d="M702.8,254h-8.6v-15.3h8.6c2.7,0,4.8,0.7,6.2,2c1.5,1.3,2.2,3.2,2.2,5.6c0,2.5-0.7,4.4-2.2,5.8
		C707.5,253.3,705.5,254,702.8,254z M703.6,225.8h-27.4v56h17.9v-15l9.5-0.1c7.8,0,13.9-1.8,18.1-5.5c4.3-3.7,6.4-8.8,6.4-15.5
		c0-6.3-2.1-11.2-6.4-14.7C717.5,227.6,711.4,225.8,703.6,225.8z"/>
	<path class="st1" d="M436,254h-8.6v-15.3h8.6c2.7,0,4.8,0.7,6.2,2c1.5,1.3,2.2,3.2,2.2,5.6c0,2.5-0.7,4.4-2.2,5.8
		C440.7,253.3,438.7,254,436,254z M436.8,225.8h-27.4v56h17.9v-15l9.5-0.1c7.8,0,13.9-1.8,18.1-5.5c4.3-3.7,6.4-8.8,6.4-15.5
		c0-6.3-2.1-11.2-6.4-14.7C450.7,227.6,444.6,225.8,436.8,225.8z"/>
	<path class="st1" d="M965.1,254h-8.6v-15.3h8.6c2.7,0,4.8,0.7,6.2,2c1.5,1.3,2.2,3.2,2.2,5.6c0,2.5-0.7,4.4-2.2,5.8
		C969.9,253.3,967.8,254,965.1,254z M966,225.8h-27.4v56h17.9v-15l9.5-0.1c7.8,0,13.9-1.8,18.1-5.5c4.3-3.7,6.4-8.8,6.4-15.5
		c0-6.3-2.1-11.2-6.4-14.7C979.9,227.6,973.8,225.8,966,225.8z"/>
	<path class="st1" d="M1230.9,254h-8.6v-15.3h8.6c2.7,0,4.8,0.7,6.2,2c1.5,1.3,2.2,3.2,2.2,5.6c0,2.5-0.7,4.4-2.2,5.8
		C1235.7,253.3,1233.6,254,1230.9,254z M1231.8,225.8h-27.4v56h17.9v-15l9.5-0.1c7.8,0,13.9-1.8,18.1-5.5c4.3-3.7,6.4-8.8,6.4-15.5
		c0-6.3-2.1-11.2-6.4-14.7C1245.6,227.6,1239.6,225.8,1231.8,225.8z"/>
	<path class="st1" d="M107.7,254h-8.6v-15.3h8.6c2.7,0,4.8,0.7,6.2,2c1.5,1.3,2.2,3.2,2.2,5.6c0,2.5-0.7,4.4-2.2,5.8
		C112.5,253.3,110.4,254,107.7,254z M108.6,225.8H81.2v56h17.9v-15l9.5-0.1c7.8,0,13.9-1.8,18.1-5.5c4.3-3.7,6.4-8.8,6.4-15.5
		c0-6.3-2.1-11.2-6.4-14.7C122.4,227.6,116.4,225.8,108.6,225.8z"/>
	<path class="st1" d="M636.9,254h-8.6v-15.3h8.6c2.7,0,4.8,0.7,6.2,2c1.5,1.3,2.2,3.2,2.2,5.6c0,2.5-0.7,4.4-2.2,5.8
		C641.7,253.3,639.6,254,636.9,254z M637.7,225.8h-27.4v56h17.9v-15l9.5-0.1c7.8,0,13.9-1.8,18.1-5.5c4.3-3.7,6.4-8.8,6.4-15.5
		c0-6.3-2.1-11.2-6.4-14.7C651.6,227.6,645.5,225.8,637.7,225.8z"/>
	<path class="st1" d="M370.1,254h-8.6v-15.3h8.6c2.7,0,4.8,0.7,6.2,2c1.5,1.3,2.2,3.2,2.2,5.6c0,2.5-0.7,4.4-2.2,5.8
		C374.9,253.3,372.8,254,370.1,254z M370.9,225.8h-27.4v56h17.9v-15l9.5-0.1c7.8,0,13.9-1.8,18.1-5.5c4.3-3.7,6.4-8.8,6.4-15.5
		c0-6.3-2.1-11.2-6.4-14.7C384.8,227.6,378.8,225.8,370.9,225.8z"/>
	<path class="st1" d="M899.3,254h-8.6v-15.3h8.6c2.7,0,4.8,0.7,6.2,2c1.5,1.3,2.2,3.2,2.2,5.6c0,2.5-0.7,4.4-2.2,5.8
		C904,253.3,902,254,899.3,254z M900.1,225.8h-27.4v56h17.9v-15l9.5-0.1c7.8,0,13.9-1.8,18.1-5.5c4.3-3.7,6.4-8.8,6.4-15.5
		c0-6.3-2.1-11.2-6.4-14.7C914,227.6,907.9,225.8,900.1,225.8z"/>
	<path class="st1" d="M1165,254h-8.6v-15.3h8.6c2.7,0,4.8,0.7,6.2,2c1.5,1.3,2.2,3.2,2.2,5.6c0,2.5-0.7,4.4-2.2,5.8
		C1169.8,253.3,1167.7,254,1165,254z M1165.9,225.8h-27.4v56h17.9v-15l9.5-0.1c7.8,0,13.9-1.8,18.1-5.5c4.3-3.7,6.4-8.8,6.4-15.5
		c0-6.3-2.1-11.2-6.4-14.7C1179.7,227.6,1173.7,225.8,1165.9,225.8z"/>
	<path class="st1" d="M239.4,254h-8.6v-15.3h8.6c2.7,0,4.8,0.7,6.2,2c1.5,1.3,2.2,3.2,2.2,5.6c0,2.5-0.7,4.4-2.2,5.8
		C244.1,253.3,242.1,254,239.4,254z M240.2,225.8h-27.4v56h17.9v-15l9.5-0.1c7.8,0,13.9-1.8,18.1-5.5c4.3-3.7,6.4-8.8,6.4-15.5
		c0-6.3-2.1-11.2-6.4-14.7C254.1,227.6,248,225.8,240.2,225.8z"/>
	<path class="st1" d="M768.5,254h-8.6v-15.3h8.6c2.7,0,4.8,0.7,6.2,2c1.5,1.3,2.2,3.2,2.2,5.6c0,2.5-0.7,4.4-2.2,5.8
		C773.3,253.3,771.2,254,768.5,254z M769.4,225.8H742v56h17.9v-15l9.5-0.1c7.8,0,13.9-1.8,18.1-5.5c4.3-3.7,6.4-8.8,6.4-15.5
		c0-6.3-2.1-11.2-6.4-14.7C783.3,227.6,777.2,225.8,769.4,225.8z"/>
	<path class="st1" d="M501.8,254h-8.6v-15.3h8.6c2.7,0,4.8,0.7,6.2,2c1.5,1.3,2.2,3.2,2.2,5.6c0,2.5-0.7,4.4-2.2,5.8
		C506.5,253.3,504.5,254,501.8,254z M502.6,225.8h-27.4v56h17.9v-15l9.5-0.1c7.8,0,13.9-1.8,18.1-5.5c4.3-3.7,6.4-8.8,6.4-15.5
		c0-6.3-2.1-11.2-6.4-14.7C516.5,227.6,510.4,225.8,502.6,225.8z"/>
	<path class="st1" d="M1030.9,254h-8.6v-15.3h8.6c2.7,0,4.8,0.7,6.2,2c1.5,1.3,2.2,3.2,2.2,5.6c0,2.5-0.7,4.4-2.2,5.8
		C1035.7,253.3,1033.6,254,1030.9,254z M1031.8,225.8h-27.4v56h17.9v-15l9.5-0.1c7.8,0,13.9-1.8,18.1-5.5c4.3-3.7,6.4-8.8,6.4-15.5
		c0-6.3-2.1-11.2-6.4-14.7C1045.7,227.6,1039.6,225.8,1031.8,225.8z"/>
	<path class="st1" d="M43.7,394.4h-8.6v-15.3h8.6c2.7,0,4.8,0.7,6.2,2c1.5,1.3,2.2,3.2,2.2,5.6c0,2.5-0.7,4.4-2.2,5.8
		C48.5,393.8,46.4,394.4,43.7,394.4z M44.6,366.3H17.2v56h17.9v-15l9.5-0.1c7.8,0,13.9-1.8,18.1-5.5c4.3-3.7,6.4-8.8,6.4-15.5
		c0-6.3-2.1-11.2-6.4-14.7C58.4,368,52.4,366.3,44.6,366.3z"/>
	<path class="st1" d="M572.9,394.4h-8.6v-15.3h8.6c2.7,0,4.8,0.7,6.2,2c1.5,1.3,2.2,3.2,2.2,5.6c0,2.5-0.7,4.4-2.2,5.8
		S575.6,394.4,572.9,394.4z M573.8,366.3h-27.4v56h17.9v-15l9.5-0.1c7.8,0,13.9-1.8,18.1-5.5c4.3-3.7,6.4-8.8,6.4-15.5
		c0-6.3-2.1-11.2-6.4-14.7C587.6,368,581.6,366.3,573.8,366.3z"/>
	<path class="st0" d="M306.1,394.4h-8.6v-15.3h8.6c2.7,0,4.8,0.7,6.2,2c1.5,1.3,2.2,3.2,2.2,5.6c0,2.5-0.7,4.4-2.2,5.8
		C310.9,393.8,308.8,394.4,306.1,394.4 M307,366.3h-27.4v56h17.9v-15l9.5-0.1c7.8,0,13.9-1.8,18.1-5.5c4.3-3.7,6.4-8.8,6.4-15.5
		c0-6.3-2.1-11.2-6.4-14.7C320.8,368,314.8,366.3,307,366.3"/>
	<path class="st1" d="M835.3,394.4h-8.6v-15.3h8.6c2.7,0,4.8,0.7,6.2,2c1.5,1.3,2.2,3.2,2.2,5.6c0,2.5-0.7,4.4-2.2,5.8
		S838,394.4,835.3,394.4z M836.2,366.3h-27.4v56h17.9v-15l9.5-0.1c7.8,0,13.9-1.8,18.1-5.5c4.3-3.7,6.4-8.8,6.4-15.5
		c0-6.3-2.1-11.2-6.4-14.7C850,368,844,366.3,836.2,366.3z"/>
	<path class="st1" d="M1101,394.4h-8.6v-15.3h8.6c2.7,0,4.8,0.7,6.2,2c1.5,1.3,2.2,3.2,2.2,5.6c0,2.5-0.7,4.4-2.2,5.8
		C1105.8,393.8,1103.7,394.4,1101,394.4z M1101.9,366.3h-27.4v56h17.9v-15l9.5-0.1c7.8,0,13.9-1.8,18.1-5.5
		c4.3-3.7,6.4-8.8,6.4-15.5c0-6.3-2.1-11.2-6.4-14.7C1115.8,368,1109.7,366.3,1101.9,366.3z"/>
	<path class="st1" d="M175.4,394.4h-8.6v-15.3h8.6c2.7,0,4.8,0.7,6.2,2c1.5,1.3,2.2,3.2,2.2,5.6c0,2.5-0.7,4.4-2.2,5.8
		C180.2,393.8,178.1,394.4,175.4,394.4z M176.3,366.3h-27.4v56h17.9v-15l9.5-0.1c7.8,0,13.9-1.8,18.1-5.5c4.3-3.7,6.4-8.8,6.4-15.5
		c0-6.3-2.1-11.2-6.4-14.7C190.1,368,184.1,366.3,176.3,366.3z"/>
	<path class="st1" d="M704.6,394.4H696v-15.3h8.6c2.7,0,4.8,0.7,6.2,2c1.5,1.3,2.2,3.2,2.2,5.6c0,2.5-0.7,4.4-2.2,5.8
		C709.4,393.8,707.3,394.4,704.6,394.4z M705.4,366.3H678v56H696v-15l9.5-0.1c7.8,0,13.9-1.8,18.1-5.5c4.3-3.7,6.4-8.8,6.4-15.5
		c0-6.3-2.1-11.2-6.4-14.7C719.3,368,713.2,366.3,705.4,366.3z"/>
	<path class="st1" d="M437.8,394.4h-8.6v-15.3h8.6c2.7,0,4.8,0.7,6.2,2c1.5,1.3,2.2,3.2,2.2,5.6c0,2.5-0.7,4.4-2.2,5.8
		S440.5,394.4,437.8,394.4z M438.6,366.3h-27.4v56h17.9v-15l9.5-0.1c7.8,0,13.9-1.8,18.1-5.5c4.3-3.7,6.4-8.8,6.4-15.5
		c0-6.3-2.1-11.2-6.4-14.7C452.5,368,446.5,366.3,438.6,366.3z"/>
	<path class="st1" d="M967,394.4h-8.6v-15.3h8.6c2.7,0,4.8,0.7,6.2,2c1.5,1.3,2.2,3.2,2.2,5.6c0,2.5-0.7,4.4-2.2,5.8
		C971.7,393.8,969.7,394.4,967,394.4z M967.8,366.3h-27.4v56h17.9v-15l9.5-0.1c7.8,0,13.9-1.8,18.1-5.5c4.3-3.7,6.4-8.8,6.4-15.5
		c0-6.3-2.1-11.2-6.4-14.7C981.7,368,975.6,366.3,967.8,366.3z"/>
	<path class="st1" d="M1232.7,394.4h-8.6v-15.3h8.6c2.7,0,4.8,0.7,6.2,2c1.5,1.3,2.2,3.2,2.2,5.6c0,2.5-0.7,4.4-2.2,5.8
		C1237.5,393.8,1235.4,394.4,1232.7,394.4z M1233.6,366.3h-27.4v56h17.9v-15l9.5-0.1c7.8,0,13.9-1.8,18.1-5.5
		c4.3-3.7,6.4-8.8,6.4-15.5c0-6.3-2.1-11.2-6.4-14.7C1247.4,368,1241.4,366.3,1233.6,366.3z"/>
	<path class="st1" d="M109.5,394.4h-8.6v-15.3h8.6c2.7,0,4.8,0.7,6.2,2c1.5,1.3,2.2,3.2,2.2,5.6c0,2.5-0.7,4.4-2.2,5.8
		C114.3,393.8,112.2,394.4,109.5,394.4z M110.4,366.3H83v56h17.9v-15l9.5-0.1c7.8,0,13.9-1.8,18.1-5.5c4.3-3.7,6.4-8.8,6.4-15.5
		c0-6.3-2.1-11.2-6.4-14.7C124.2,368,118.2,366.3,110.4,366.3z"/>
	<path class="st1" d="M638.7,394.4h-8.6v-15.3h8.6c2.7,0,4.8,0.7,6.2,2c1.5,1.3,2.2,3.2,2.2,5.6c0,2.5-0.7,4.4-2.2,5.8
		C643.5,393.8,641.4,394.4,638.7,394.4z M639.6,366.3h-27.4v56h17.9v-15l9.5-0.1c7.8,0,13.9-1.8,18.1-5.5c4.3-3.7,6.4-8.8,6.4-15.5
		c0-6.3-2.1-11.2-6.4-14.7C653.4,368,647.4,366.3,639.6,366.3z"/>
	<path class="st1" d="M371.9,394.4h-8.6v-15.3h8.6c2.7,0,4.8,0.7,6.2,2c1.5,1.3,2.2,3.2,2.2,5.6c0,2.5-0.7,4.4-2.2,5.8
		S374.6,394.4,371.9,394.4z M372.8,366.3h-27.4v56h17.9v-15l9.5-0.1c7.8,0,13.9-1.8,18.1-5.5c4.3-3.7,6.4-8.8,6.4-15.5
		c0-6.3-2.1-11.2-6.4-14.7C386.6,368,380.6,366.3,372.8,366.3z"/>
	<path class="st1" d="M901.1,394.4h-8.6v-15.3h8.6c2.7,0,4.8,0.7,6.2,2c1.5,1.3,2.2,3.2,2.2,5.6c0,2.5-0.7,4.4-2.2,5.8
		S903.8,394.4,901.1,394.4z M901.9,366.3h-27.4v56h17.9v-15l9.5-0.1c7.8,0,13.9-1.8,18.1-5.5c4.3-3.7,6.4-8.8,6.4-15.5
		c0-6.3-2.1-11.2-6.4-14.7C915.8,368,909.8,366.3,901.9,366.3z"/>
	<path class="st0" d="M1166.8,394.4h-8.6v-15.3h8.6c2.7,0,4.8,0.7,6.2,2c1.5,1.3,2.2,3.2,2.2,5.6c0,2.5-0.7,4.4-2.2,5.8
		C1171.6,393.8,1169.5,394.4,1166.8,394.4 M1167.7,366.3h-27.4v56h17.9v-15l9.5-0.1c7.8,0,13.9-1.8,18.1-5.5
		c4.3-3.7,6.4-8.8,6.4-15.5c0-6.3-2.1-11.2-6.4-14.7C1181.6,368,1175.5,366.3,1167.7,366.3"/>
	<path class="st1" d="M241.2,394.4h-8.6v-15.3h8.6c2.7,0,4.8,0.7,6.2,2c1.5,1.3,2.2,3.2,2.2,5.6c0,2.5-0.7,4.4-2.2,5.8
		C246,393.8,243.9,394.4,241.2,394.4z M242,366.3h-27.4v56h17.9v-15l9.5-0.1c7.8,0,13.9-1.8,18.1-5.5c4.3-3.7,6.4-8.8,6.4-15.5
		c0-6.3-2.1-11.2-6.4-14.7C255.9,368,249.9,366.3,242,366.3z"/>
	<path class="st1" d="M770.4,394.4h-8.6v-15.3h8.6c2.7,0,4.8,0.7,6.2,2c1.5,1.3,2.2,3.2,2.2,5.6c0,2.5-0.7,4.4-2.2,5.8
		S773.1,394.4,770.4,394.4z M771.2,366.3h-27.4v56h17.9v-15l9.5-0.1c7.8,0,13.9-1.8,18.1-5.5c4.3-3.7,6.4-8.8,6.4-15.5
		c0-6.3-2.1-11.2-6.4-14.7C785.1,368,779,366.3,771.2,366.3z"/>
	<path class="st1" d="M503.6,394.4H495v-15.3h8.6c2.7,0,4.8,0.7,6.2,2c1.5,1.3,2.2,3.2,2.2,5.6c0,2.5-0.7,4.4-2.2,5.8
		C508.4,393.8,506.3,394.4,503.6,394.4z M504.4,366.3h-27.4v56H495v-15l9.5-0.1c7.8,0,13.9-1.8,18.1-5.5c4.3-3.7,6.4-8.8,6.4-15.5
		c0-6.3-2.1-11.2-6.4-14.7C518.3,368,512.2,366.3,504.4,366.3z"/>
	<path class="st1" d="M1032.8,394.4h-8.6v-15.3h8.6c2.7,0,4.8,0.7,6.2,2c1.5,1.3,2.2,3.2,2.2,5.6c0,2.5-0.7,4.4-2.2,5.8
		C1037.5,393.8,1035.5,394.4,1032.8,394.4z M1033.6,366.3h-27.4v56h17.9v-15l9.5-0.1c7.8,0,13.9-1.8,18.1-5.5
		c4.3-3.7,6.4-8.8,6.4-15.5c0-6.3-2.1-11.2-6.4-14.7C1047.5,368,1041.4,366.3,1033.6,366.3z"/>
	<path class="st1" d="M43.4,113.8h-8.6V98.4h8.6c2.7,0,4.8,0.7,6.2,2c1.5,1.3,2.2,3.2,2.2,5.6c0,2.5-0.7,4.4-2.2,5.8
		C48.2,113.1,46.1,113.8,43.4,113.8z M44.3,85.6H16.9v56h17.9v-15l9.5-0.1c7.8,0,13.9-1.8,18.1-5.5c4.3-3.7,6.4-8.8,6.4-15.5
		c0-6.3-2.1-11.2-6.4-14.7C58.1,87.4,52.1,85.6,44.3,85.6z"/>
	<path class="st1" d="M572.6,113.8H564V98.4h8.6c2.7,0,4.8,0.7,6.2,2c1.5,1.3,2.2,3.2,2.2,5.6c0,2.5-0.7,4.4-2.2,5.8
		C577.4,113.1,575.3,113.8,572.6,113.8z M573.4,85.6h-27.4v56H564v-15l9.5-0.1c7.8,0,13.9-1.8,18.1-5.5c4.3-3.7,6.4-8.8,6.4-15.5
		c0-6.3-2.1-11.2-6.4-14.7C587.3,87.4,581.2,85.6,573.4,85.6z"/>
	<path class="st1" d="M305.8,113.8h-8.6V98.4h8.6c2.7,0,4.8,0.7,6.2,2c1.5,1.3,2.2,3.2,2.2,5.6c0,2.5-0.7,4.4-2.2,5.8
		C310.6,113.1,308.5,113.8,305.8,113.8z M306.7,85.6h-27.4v56h17.9v-15l9.5-0.1c7.8,0,13.9-1.8,18.1-5.5c4.3-3.7,6.4-8.8,6.4-15.5
		c0-6.3-2.1-11.2-6.4-14.7C320.5,87.4,314.5,85.6,306.7,85.6z"/>
	<path class="st1" d="M835,113.8h-8.6V98.4h8.6c2.7,0,4.8,0.7,6.2,2c1.5,1.3,2.2,3.2,2.2,5.6c0,2.5-0.7,4.4-2.2,5.8
		S837.7,113.8,835,113.8z M835.8,85.6h-27.4v56h17.9v-15l9.5-0.1c7.8,0,13.9-1.8,18.1-5.5c4.3-3.7,6.4-8.8,6.4-15.5
		c0-6.3-2.1-11.2-6.4-14.7C849.7,87.4,843.6,85.6,835.8,85.6z"/>
	<path class="st1" d="M1100.7,113.8h-8.6V98.4h8.6c2.7,0,4.8,0.7,6.2,2c1.5,1.3,2.2,3.2,2.2,5.6c0,2.5-0.7,4.4-2.2,5.8
		C1105.5,113.1,1103.4,113.8,1100.7,113.8z M1101.6,85.6h-27.4v56h17.9v-15l9.5-0.1c7.8,0,13.9-1.8,18.1-5.5
		c4.3-3.7,6.4-8.8,6.4-15.5c0-6.3-2.1-11.2-6.4-14.7C1115.4,87.4,1109.4,85.6,1101.6,85.6z"/>
	<path class="st1" d="M175.1,113.8h-8.6V98.4h8.6c2.7,0,4.8,0.7,6.2,2c1.5,1.3,2.2,3.2,2.2,5.6c0,2.5-0.7,4.4-2.2,5.8
		C179.8,113.1,177.8,113.8,175.1,113.8z M175.9,85.6h-27.4v56h17.9v-15l9.5-0.1c7.8,0,13.9-1.8,18.1-5.5c4.3-3.7,6.4-8.8,6.4-15.5
		c0-6.3-2.1-11.2-6.4-14.7C189.8,87.4,183.7,85.6,175.9,85.6z"/>
	<path class="st1" d="M704.2,113.8h-8.6V98.4h8.6c2.7,0,4.8,0.7,6.2,2c1.5,1.3,2.2,3.2,2.2,5.6c0,2.5-0.7,4.4-2.2,5.8
		C709,113.1,706.9,113.8,704.2,113.8z M705.1,85.6h-27.4v56h17.9v-15l9.5-0.1c7.8,0,13.9-1.8,18.1-5.5c4.3-3.7,6.4-8.8,6.4-15.5
		c0-6.3-2.1-11.2-6.4-14.7C719,87.4,712.9,85.6,705.1,85.6z"/>
	<path class="st1" d="M437.5,113.8h-8.6V98.4h8.6c2.7,0,4.8,0.7,6.2,2c1.5,1.3,2.2,3.2,2.2,5.6c0,2.5-0.7,4.4-2.2,5.8
		C442.2,113.1,440.2,113.8,437.5,113.8z M438.3,85.6h-27.4v56h17.9v-15l9.5-0.1c7.8,0,13.9-1.8,18.1-5.5c4.3-3.7,6.4-8.8,6.4-15.5
		c0-6.3-2.1-11.2-6.4-14.7C452.2,87.4,446.1,85.6,438.3,85.6z"/>
	<path class="st1" d="M966.6,113.8H958V98.4h8.6c2.7,0,4.8,0.7,6.2,2c1.5,1.3,2.2,3.2,2.2,5.6c0,2.5-0.7,4.4-2.2,5.8
		C971.4,113.1,969.3,113.8,966.6,113.8z M967.5,85.6h-27.4v56H958v-15l9.5-0.1c7.8,0,13.9-1.8,18.1-5.5c4.3-3.7,6.4-8.8,6.4-15.5
		c0-6.3-2.1-11.2-6.4-14.7C981.4,87.4,975.3,85.6,967.5,85.6z"/>
	<path class="st1" d="M1232.4,113.8h-8.6V98.4h8.6c2.7,0,4.8,0.7,6.2,2c1.5,1.3,2.2,3.2,2.2,5.6c0,2.5-0.7,4.4-2.2,5.8
		S1235.1,113.8,1232.4,113.8z M1233.3,85.6h-27.4v56h17.9v-15l9.5-0.1c7.8,0,13.9-1.8,18.1-5.5c4.3-3.7,6.4-8.8,6.4-15.5
		c0-6.3-2.1-11.2-6.4-14.7C1247.1,87.4,1241.1,85.6,1233.3,85.6z"/>
	<path class="st1" d="M109.2,113.8h-8.6V98.4h8.6c2.7,0,4.8,0.7,6.2,2c1.5,1.3,2.2,3.2,2.2,5.6c0,2.5-0.7,4.4-2.2,5.8
		C114,113.1,111.9,113.8,109.2,113.8z M110.1,85.6H82.7v56h17.9v-15l9.5-0.1c7.8,0,13.9-1.8,18.1-5.5c4.3-3.7,6.4-8.8,6.4-15.5
		c0-6.3-2.1-11.2-6.4-14.7C123.9,87.4,117.9,85.6,110.1,85.6z"/>
	<path class="st1" d="M638.4,113.8h-8.6V98.4h8.6c2.7,0,4.8,0.7,6.2,2c1.5,1.3,2.2,3.2,2.2,5.6c0,2.5-0.7,4.4-2.2,5.8
		C643.2,113.1,641.1,113.8,638.4,113.8z M639.2,85.6h-27.4v56h17.9v-15l9.5-0.1c7.8,0,13.9-1.8,18.1-5.5c4.3-3.7,6.4-8.8,6.4-15.5
		c0-6.3-2.1-11.2-6.4-14.7C653.1,87.4,647,85.6,639.2,85.6z"/>
	<path class="st1" d="M371.6,113.8H363V98.4h8.6c2.7,0,4.8,0.7,6.2,2c1.5,1.3,2.2,3.2,2.2,5.6c0,2.5-0.7,4.4-2.2,5.8
		C376.4,113.1,374.3,113.8,371.6,113.8z M372.4,85.6h-27.4v56H363v-15l9.5-0.1c7.8,0,13.9-1.8,18.1-5.5c4.3-3.7,6.4-8.8,6.4-15.5
		c0-6.3-2.1-11.2-6.4-14.7C386.3,87.4,380.3,85.6,372.4,85.6z"/>
	<path class="st1" d="M900.8,113.8h-8.6V98.4h8.6c2.7,0,4.8,0.7,6.2,2c1.5,1.3,2.2,3.2,2.2,5.6c0,2.5-0.7,4.4-2.2,5.8
		C905.5,113.1,903.5,113.8,900.8,113.8z M901.6,85.6h-27.4v56h17.9v-15l9.5-0.1c7.8,0,13.9-1.8,18.1-5.5c4.3-3.7,6.4-8.8,6.4-15.5
		c0-6.3-2.1-11.2-6.4-14.7C915.5,87.4,909.4,85.6,901.6,85.6z"/>
	<path class="st1" d="M1166.5,113.8h-8.6V98.4h8.6c2.7,0,4.8,0.7,6.2,2c1.5,1.3,2.2,3.2,2.2,5.6c0,2.5-0.7,4.4-2.2,5.8
		C1171.3,113.1,1169.2,113.8,1166.5,113.8z M1167.4,85.6H1140v56h17.9v-15l9.5-0.1c7.8,0,13.9-1.8,18.1-5.5
		c4.3-3.7,6.4-8.8,6.4-15.5c0-6.3-2.1-11.2-6.4-14.7C1181.2,87.4,1175.2,85.6,1167.4,85.6z"/>
	<path class="st1" d="M240.9,113.8h-8.6V98.4h8.6c2.7,0,4.8,0.7,6.2,2c1.5,1.3,2.2,3.2,2.2,5.6c0,2.5-0.7,4.4-2.2,5.8
		C245.6,113.1,243.6,113.8,240.9,113.8z M241.7,85.6h-27.4v56h17.9v-15l9.5-0.1c7.8,0,13.9-1.8,18.1-5.5c4.3-3.7,6.4-8.8,6.4-15.5
		c0-6.3-2.1-11.2-6.4-14.7C255.6,87.4,249.5,85.6,241.7,85.6z"/>
	<path class="st1" d="M770,113.8h-8.6V98.4h8.6c2.7,0,4.8,0.7,6.2,2c1.5,1.3,2.2,3.2,2.2,5.6c0,2.5-0.7,4.4-2.2,5.8
		S772.7,113.8,770,113.8z M770.9,85.6h-27.4v56h17.9v-15l9.5-0.1c7.8,0,13.9-1.8,18.1-5.5c4.3-3.7,6.4-8.8,6.4-15.5
		c0-6.3-2.1-11.2-6.4-14.7C784.8,87.4,778.7,85.6,770.9,85.6z"/>
	<path class="st1" d="M503.3,113.8h-8.6V98.4h8.6c2.7,0,4.8,0.7,6.2,2c1.5,1.3,2.2,3.2,2.2,5.6c0,2.5-0.7,4.4-2.2,5.8
		C508,113.1,506,113.8,503.3,113.8z M504.1,85.6h-27.4v56h17.9v-15l9.5-0.1c7.8,0,13.9-1.8,18.1-5.5c4.3-3.7,6.4-8.8,6.4-15.5
		c0-6.3-2.1-11.2-6.4-14.7C518,87.4,511.9,85.6,504.1,85.6z"/>
	<path class="st1" d="M1032.4,115h-8.6V99.6h8.6c2.7,0,4.8,0.7,6.2,2c1.5,1.3,2.2,3.2,2.2,5.6c0,2.5-0.7,4.4-2.2,5.8
		C1037.2,114.3,1035.1,115,1032.4,115z M1033.3,86.8h-27.4v56h17.9v-15l9.5-0.1c7.8,0,13.9-1.8,18.1-5.5c4.3-3.7,6.4-8.8,6.4-15.5
		c0-6.3-2.1-11.2-6.4-14.7C1047.1,88.6,1041.1,86.8,1033.3,86.8z"/>
	<path class="st1" d="M41.7,323.7h-8.6v-15.3h8.6c2.7,0,4.8,0.7,6.2,2c1.5,1.3,2.2,3.2,2.2,5.6c0,2.5-0.7,4.4-2.2,5.8
		C46.5,323,44.4,323.7,41.7,323.7z M42.6,295.6H15.2v56h17.9v-15l9.5-0.1c7.8,0,13.9-1.8,18.1-5.5c4.3-3.7,6.4-8.8,6.4-15.5
		c0-6.3-2.1-11.2-6.4-14.7C56.4,297.3,50.4,295.6,42.6,295.6z"/>
	<path class="st1" d="M570.9,323.7h-8.6v-15.3h8.6c2.7,0,4.8,0.7,6.2,2c1.5,1.3,2.2,3.2,2.2,5.6c0,2.5-0.7,4.4-2.2,5.8
		C575.7,323,573.6,323.7,570.9,323.7z M571.8,295.6h-27.4v56h17.9v-15l9.5-0.1c7.8,0,13.9-1.8,18.1-5.5c4.3-3.7,6.4-8.8,6.4-15.5
		c0-6.3-2.1-11.2-6.4-14.7C585.6,297.3,579.6,295.6,571.8,295.6z"/>
	<path class="st1" d="M304.1,323.7h-8.6v-15.3h8.6c2.7,0,4.8,0.7,6.2,2c1.5,1.3,2.2,3.2,2.2,5.6c0,2.5-0.7,4.4-2.2,5.8
		C308.9,323,306.8,323.7,304.1,323.7z M305,295.6h-27.4v56h17.9v-15l9.5-0.1c7.8,0,13.9-1.8,18.1-5.5c4.3-3.7,6.4-8.8,6.4-15.5
		c0-6.3-2.1-11.2-6.4-14.7C318.8,297.3,312.8,295.6,305,295.6z"/>
	<path class="st1" d="M833.3,323.7h-8.6v-15.3h8.6c2.7,0,4.8,0.7,6.2,2c1.5,1.3,2.2,3.2,2.2,5.6c0,2.5-0.7,4.4-2.2,5.8
		C838.1,323,836,323.7,833.3,323.7z M834.2,295.6h-27.4v56h17.9v-15l9.5-0.1c7.8,0,13.9-1.8,18.1-5.5c4.3-3.7,6.4-8.8,6.4-15.5
		c0-6.3-2.1-11.2-6.4-14.7C848,297.3,842,295.6,834.2,295.6z"/>
	<path class="st1" d="M1099.1,323.7h-8.6v-15.3h8.6c2.7,0,4.8,0.7,6.2,2c1.5,1.3,2.2,3.2,2.2,5.6c0,2.5-0.7,4.4-2.2,5.8
		C1103.8,323,1101.7,323.7,1099.1,323.7z M1099.9,295.6h-27.4v56h17.9v-15l9.5-0.1c7.8,0,13.9-1.8,18.1-5.5
		c4.3-3.7,6.4-8.8,6.4-15.5c0-6.3-2.1-11.2-6.4-14.7C1113.8,297.3,1107.7,295.6,1099.9,295.6z"/>
	<path class="st1" d="M173.4,323.7h-8.6v-15.3h8.6c2.7,0,4.8,0.7,6.2,2c1.5,1.3,2.2,3.2,2.2,5.6c0,2.5-0.7,4.4-2.2,5.8
		C178.2,323,176.1,323.7,173.4,323.7z M174.3,295.6h-27.4v56h17.9v-15l9.5-0.1c7.8,0,13.9-1.8,18.1-5.5c4.3-3.7,6.4-8.8,6.4-15.5
		c0-6.3-2.1-11.2-6.4-14.7C188.1,297.3,182.1,295.6,174.3,295.6z"/>
	<path class="st1" d="M702.6,323.7H694v-15.3h8.6c2.7,0,4.8,0.7,6.2,2c1.5,1.3,2.2,3.2,2.2,5.6c0,2.5-0.7,4.4-2.2,5.8
		C707.4,323,705.3,323.7,702.6,323.7z M703.4,295.6h-27.4v56H694v-15l9.5-0.1c7.8,0,13.9-1.8,18.1-5.5c4.3-3.7,6.4-8.8,6.4-15.5
		c0-6.3-2.1-11.2-6.4-14.7C717.3,297.3,711.2,295.6,703.4,295.6z"/>
	<path class="st1" d="M435.8,323.7h-8.6v-15.3h8.6c2.7,0,4.8,0.7,6.2,2c1.5,1.3,2.2,3.2,2.2,5.6c0,2.5-0.7,4.4-2.2,5.8
		S438.5,323.7,435.8,323.7z M436.6,295.6h-27.4v56h17.9v-15l9.5-0.1c7.8,0,13.9-1.8,18.1-5.5c4.3-3.7,6.4-8.8,6.4-15.5
		c0-6.3-2.1-11.2-6.4-14.7C450.5,297.3,444.5,295.6,436.6,295.6z"/>
	<path class="st1" d="M965,323.7h-8.6v-15.3h8.6c2.7,0,4.8,0.7,6.2,2c1.5,1.3,2.2,3.2,2.2,5.6c0,2.5-0.7,4.4-2.2,5.8
		S967.7,323.7,965,323.7z M965.8,295.6h-27.4v56h17.9v-15l9.5-0.1c7.8,0,13.9-1.8,18.1-5.5c4.3-3.7,6.4-8.8,6.4-15.5
		c0-6.3-2.1-11.2-6.4-14.7C979.7,297.3,973.6,295.6,965.8,295.6z"/>
	<path class="st1" d="M1230.7,323.7h-8.6v-15.3h8.6c2.7,0,4.8,0.7,6.2,2c1.5,1.3,2.2,3.2,2.2,5.6c0,2.5-0.7,4.4-2.2,5.8
		S1233.4,323.7,1230.7,323.7z M1231.6,295.6h-27.4v56h17.9v-15l9.5-0.1c7.8,0,13.9-1.8,18.1-5.5c4.3-3.7,6.4-8.8,6.4-15.5
		c0-6.3-2.1-11.2-6.4-14.7C1245.4,297.3,1239.4,295.6,1231.6,295.6z"/>
	<path class="st1" d="M107.5,323.7h-8.6v-15.3h8.6c2.7,0,4.8,0.7,6.2,2c1.5,1.3,2.2,3.2,2.2,5.6c0,2.5-0.7,4.4-2.2,5.8
		C112.3,323,110.2,323.7,107.5,323.7z M108.4,295.6H81v56h17.9v-15l9.5-0.1c7.8,0,13.9-1.8,18.1-5.5c4.3-3.7,6.4-8.8,6.4-15.5
		c0-6.3-2.1-11.2-6.4-14.7C122.2,297.3,116.2,295.6,108.4,295.6z"/>
	<path class="st1" d="M636.7,323.7h-8.6v-15.3h8.6c2.7,0,4.8,0.7,6.2,2c1.5,1.3,2.2,3.2,2.2,5.6c0,2.5-0.7,4.4-2.2,5.8
		C641.5,323,639.4,323.7,636.7,323.7z M637.6,295.6h-27.4v56h17.9v-15l9.5-0.1c7.8,0,13.9-1.8,18.1-5.5c4.3-3.7,6.4-8.8,6.4-15.5
		c0-6.3-2.1-11.2-6.4-14.7C651.4,297.3,645.4,295.6,637.6,295.6z"/>
	<path class="st1" d="M369.9,323.7h-8.6v-15.3h8.6c2.7,0,4.8,0.7,6.2,2c1.5,1.3,2.2,3.2,2.2,5.6c0,2.5-0.7,4.4-2.2,5.8
		S372.6,323.7,369.9,323.7z M370.8,295.6h-27.4v56h17.9v-15l9.5-0.1c7.8,0,13.9-1.8,18.1-5.5c4.3-3.7,6.4-8.8,6.4-15.5
		c0-6.3-2.1-11.2-6.4-14.7C384.6,297.3,378.6,295.6,370.8,295.6z"/>
	<path class="st1" d="M899.1,323.7h-8.6v-15.3h8.6c2.7,0,4.8,0.7,6.2,2c1.5,1.3,2.2,3.2,2.2,5.6c0,2.5-0.7,4.4-2.2,5.8
		S901.8,323.7,899.1,323.7z M900,295.6h-27.4v56h17.9v-15l9.5-0.1c7.8,0,13.9-1.8,18.1-5.5c4.3-3.7,6.4-8.8,6.4-15.5
		c0-6.3-2.1-11.2-6.4-14.7C913.8,297.3,907.8,295.6,900,295.6z"/>
	<path class="st1" d="M1164.8,323.7h-8.6v-15.3h8.6c2.7,0,4.8,0.7,6.2,2c1.5,1.3,2.2,3.2,2.2,5.6c0,2.5-0.7,4.4-2.2,5.8
		C1169.6,323,1167.5,323.7,1164.8,323.7z M1165.7,295.6h-27.4v56h17.9v-15l9.5-0.1c7.8,0,13.9-1.8,18.1-5.5
		c4.3-3.7,6.4-8.8,6.4-15.5c0-6.3-2.1-11.2-6.4-14.7C1179.6,297.3,1173.5,295.6,1165.7,295.6z"/>
	<path class="st1" d="M239.2,323.7h-8.6v-15.3h8.6c2.7,0,4.8,0.7,6.2,2c1.5,1.3,2.2,3.2,2.2,5.6c0,2.5-0.7,4.4-2.2,5.8
		S241.9,323.7,239.2,323.7z M240,295.6h-27.4v56h17.9v-15l9.5-0.1c7.8,0,13.9-1.8,18.1-5.5c4.3-3.7,6.4-8.8,6.4-15.5
		c0-6.3-2.1-11.2-6.4-14.7C253.9,297.3,247.9,295.6,240,295.6z"/>
	<path class="st1" d="M768.4,323.7h-8.6v-15.3h8.6c2.7,0,4.8,0.7,6.2,2c1.5,1.3,2.2,3.2,2.2,5.6c0,2.5-0.7,4.4-2.2,5.8
		C773.1,323,771.1,323.7,768.4,323.7z M769.2,295.6h-27.4v56h17.9v-15l9.5-0.1c7.8,0,13.9-1.8,18.1-5.5c4.3-3.7,6.4-8.8,6.4-15.5
		c0-6.3-2.1-11.2-6.4-14.7C783.1,297.3,777,295.6,769.2,295.6z"/>
	<path class="st1" d="M501.6,323.7H493v-15.3h8.6c2.7,0,4.8,0.7,6.2,2c1.5,1.3,2.2,3.2,2.2,5.6c0,2.5-0.7,4.4-2.2,5.8
		C506.4,323,504.3,323.7,501.6,323.7z M502.4,295.6h-27.4v56H493v-15l9.5-0.1c7.8,0,13.9-1.8,18.1-5.5c4.3-3.7,6.4-8.8,6.4-15.5
		c0-6.3-2.1-11.2-6.4-14.7C516.3,297.3,510.2,295.6,502.4,295.6z"/>
	<path class="st1" d="M1030.8,323.7h-8.6v-15.3h8.6c2.7,0,4.8,0.7,6.2,2c1.5,1.3,2.2,3.2,2.2,5.6c0,2.5-0.7,4.4-2.2,5.8
		C1035.5,323,1033.5,323.7,1030.8,323.7z M1031.6,295.6h-27.4v56h17.9v-15l9.5-0.1c7.8,0,13.9-1.8,18.1-5.5
		c4.3-3.7,6.4-8.8,6.4-15.5c0-6.3-2.1-11.2-6.4-14.7C1045.5,297.3,1039.4,295.6,1031.6,295.6z"/>
	<path class="st1" d="M41.4,43.1h-8.6V27.7h8.6c2.7,0,4.8,0.7,6.2,2c1.5,1.3,2.2,3.2,2.2,5.6c0,2.5-0.7,4.4-2.2,5.8
		C46.2,42.4,44.1,43.1,41.4,43.1z M42.3,14.9H14.9v56h17.9v-15l9.5-0.1c7.8,0,13.9-1.8,18.1-5.5c4.3-3.7,6.4-8.8,6.4-15.5
		c0-6.3-2.1-11.2-6.4-14.7C56.1,16.7,50.1,14.9,42.3,14.9z"/>
	<path class="st1" d="M570.6,43.1H562V27.7h8.6c2.7,0,4.8,0.7,6.2,2c1.5,1.3,2.2,3.2,2.2,5.6c0,2.5-0.7,4.4-2.2,5.8
		C575.4,42.4,573.3,43.1,570.6,43.1z M571.4,14.9h-27.4v56H562v-15l9.5-0.1c7.8,0,13.9-1.8,18.1-5.5c4.3-3.7,6.4-8.8,6.4-15.5
		c0-6.3-2.1-11.2-6.4-14.7C585.3,16.7,579.3,14.9,571.4,14.9z"/>
	<path class="st1" d="M303.8,44.3h-8.6V28.9h8.6c2.7,0,4.8,0.7,6.2,2c1.5,1.3,2.2,3.2,2.2,5.6c0,2.5-0.7,4.4-2.2,5.8
		C308.6,43.6,306.5,44.3,303.8,44.3z M304.7,16.1h-27.4v56h17.9v-15l9.5-0.1c7.8,0,13.9-1.8,18.1-5.5c4.3-3.7,6.4-8.8,6.4-15.5
		c0-6.3-2.1-11.2-6.4-14.7C318.5,17.9,312.5,16.1,304.7,16.1z"/>
	<path class="st1" d="M833,43.1h-8.6V27.7h8.6c2.7,0,4.8,0.7,6.2,2c1.5,1.3,2.2,3.2,2.2,5.6c0,2.5-0.7,4.4-2.2,5.8
		C837.8,42.4,835.7,43.1,833,43.1z M833.8,14.9h-27.4v56h17.9v-15l9.5-0.1c7.8,0,13.9-1.8,18.1-5.5c4.3-3.7,6.4-8.8,6.4-15.5
		c0-6.3-2.1-11.2-6.4-14.7C847.7,16.7,841.6,14.9,833.8,14.9z"/>
	<path class="st1" d="M1098.7,43.1h-8.6V27.7h8.6c2.7,0,4.8,0.7,6.2,2c1.5,1.3,2.2,3.2,2.2,5.6c0,2.5-0.7,4.4-2.2,5.8
		C1103.5,42.4,1101.4,43.1,1098.7,43.1z M1099.6,14.9h-27.4v56h17.9v-15l9.5-0.1c7.8,0,13.9-1.8,18.1-5.5c4.3-3.7,6.4-8.8,6.4-15.5
		c0-6.3-2.1-11.2-6.4-14.7C1113.4,16.7,1107.4,14.9,1099.6,14.9z"/>
	<path class="st0" d="M173.1,43.1h-8.6V27.7h8.6c2.7,0,4.8,0.7,6.2,2c1.5,1.3,2.2,3.2,2.2,5.6c0,2.5-0.7,4.4-2.2,5.8
		C177.9,42.4,175.8,43.1,173.1,43.1 M173.9,14.9h-27.4v56h17.9v-15l9.5-0.1c7.8,0,13.9-1.8,18.1-5.5c4.3-3.7,6.4-8.8,6.4-15.5
		c0-6.3-2.1-11.2-6.4-14.7C187.8,16.7,181.7,14.9,173.9,14.9"/>
	<path class="st1" d="M702.3,43.1h-8.6V27.7h8.6c2.7,0,4.8,0.7,6.2,2c1.5,1.3,2.2,3.2,2.2,5.6c0,2.5-0.7,4.4-2.2,5.8
		C707,42.4,705,43.1,702.3,43.1z M703.1,14.9h-27.4v56h17.9v-15l9.5-0.1c7.8,0,13.9-1.8,18.1-5.5c4.3-3.7,6.4-8.8,6.4-15.5
		c0-6.3-2.1-11.2-6.4-14.7C717,16.7,710.9,14.9,703.1,14.9z"/>
	<path class="st1" d="M435.5,43.1h-8.6V27.7h8.6c2.7,0,4.8,0.7,6.2,2c1.5,1.3,2.2,3.2,2.2,5.6c0,2.5-0.7,4.4-2.2,5.8
		C440.2,42.4,438.2,43.1,435.5,43.1z M436.3,14.9h-27.4v56h17.9v-15l9.5-0.1c7.8,0,13.9-1.8,18.1-5.5c4.3-3.7,6.4-8.8,6.4-15.5
		c0-6.3-2.1-11.2-6.4-14.7C450.2,16.7,444.1,14.9,436.3,14.9z"/>
	<path class="st1" d="M964.6,43.1H956V27.7h8.6c2.7,0,4.8,0.7,6.2,2c1.5,1.3,2.2,3.2,2.2,5.6c0,2.5-0.7,4.4-2.2,5.8
		C969.4,42.4,967.3,43.1,964.6,43.1z M965.5,14.9h-27.4v56H956v-15l9.5-0.1c7.8,0,13.9-1.8,18.1-5.5c4.3-3.7,6.4-8.8,6.4-15.5
		c0-6.3-2.1-11.2-6.4-14.7C979.4,16.7,973.3,14.9,965.5,14.9z"/>
	<path class="st0" d="M1230.4,43.1h-8.6V27.7h8.6c2.7,0,4.8,0.7,6.2,2c1.5,1.3,2.2,3.2,2.2,5.6c0,2.5-0.7,4.4-2.2,5.8
		C1235.2,42.4,1233.1,43.1,1230.4,43.1 M1231.3,14.9h-27.4v56h17.9v-15l9.5-0.1c7.8,0,13.9-1.8,18.1-5.5c4.3-3.7,6.4-8.8,6.4-15.5
		c0-6.3-2.1-11.2-6.4-14.7C1245.1,16.7,1239.1,14.9,1231.3,14.9"/>
	<path class="st1" d="M107.2,43.1h-8.6V27.7h8.6c2.7,0,4.8,0.7,6.2,2c1.5,1.3,2.2,3.2,2.2,5.6c0,2.5-0.7,4.4-2.2,5.8
		C112,42.4,109.9,43.1,107.2,43.1z M108.1,14.9H80.7v56h17.9v-15l9.5-0.1c7.8,0,13.9-1.8,18.1-5.5c4.3-3.7,6.4-8.8,6.4-15.5
		c0-6.3-2.1-11.2-6.4-14.7C121.9,16.7,115.9,14.9,108.1,14.9z"/>
	<path class="st1" d="M636.4,43.1h-8.6V27.7h8.6c2.7,0,4.8,0.7,6.2,2c1.5,1.3,2.2,3.2,2.2,5.6c0,2.5-0.7,4.4-2.2,5.8
		C641.2,42.4,639.1,43.1,636.4,43.1z M637.2,14.9h-27.4v56h17.9v-15l9.5-0.1c7.8,0,13.9-1.8,18.1-5.5c4.3-3.7,6.4-8.8,6.4-15.5
		c0-6.3-2.1-11.2-6.4-14.7C651.1,16.7,645,14.9,637.2,14.9z"/>
	<path class="st1" d="M369.6,43.1H361V27.7h8.6c2.7,0,4.8,0.7,6.2,2c1.5,1.3,2.2,3.2,2.2,5.6c0,2.5-0.7,4.4-2.2,5.8
		C374.4,42.4,372.3,43.1,369.6,43.1z M370.4,14.9h-27.4v56H361v-15l9.5-0.1c7.8,0,13.9-1.8,18.1-5.5c4.3-3.7,6.4-8.8,6.4-15.5
		c0-6.3-2.1-11.2-6.4-14.7C384.3,16.7,378.3,14.9,370.4,14.9z"/>
	<path class="st1" d="M898.8,43.1h-8.6V27.7h8.6c2.7,0,4.8,0.7,6.2,2c1.5,1.3,2.2,3.2,2.2,5.6c0,2.5-0.7,4.4-2.2,5.8
		C903.5,42.4,901.5,43.1,898.8,43.1z M899.6,14.9h-27.4v56h17.9v-15l9.5-0.1c7.8,0,13.9-1.8,18.1-5.5c4.3-3.7,6.4-8.8,6.4-15.5
		c0-6.3-2.1-11.2-6.4-14.7C913.5,16.7,907.4,14.9,899.6,14.9z"/>
	<path class="st1" d="M1164.5,43.1h-8.6V27.7h8.6c2.7,0,4.8,0.7,6.2,2c1.5,1.3,2.2,3.2,2.2,5.6c0,2.5-0.7,4.4-2.2,5.8
		C1169.3,42.4,1167.2,43.1,1164.5,43.1z M1165.4,14.9H1138v56h17.9v-15l9.5-0.1c7.8,0,13.9-1.8,18.1-5.5c4.3-3.7,6.4-8.8,6.4-15.5
		c0-6.3-2.1-11.2-6.4-14.7C1179.2,16.7,1173.2,14.9,1165.4,14.9z"/>
	<path class="st1" d="M238.9,43.1h-8.6V27.7h8.6c2.7,0,4.8,0.7,6.2,2c1.5,1.3,2.2,3.2,2.2,5.6c0,2.5-0.7,4.4-2.2,5.8
		C243.6,42.4,241.6,43.1,238.9,43.1z M239.7,14.9h-27.4v56h17.9v-15l9.5-0.1c7.8,0,13.9-1.8,18.1-5.5c4.3-3.7,6.4-8.8,6.4-15.5
		c0-6.3-2.1-11.2-6.4-14.7C253.6,16.7,247.5,14.9,239.7,14.9z"/>
	<path class="st1" d="M768,43.1h-8.6V27.7h8.6c2.7,0,4.8,0.7,6.2,2c1.5,1.3,2.2,3.2,2.2,5.6c0,2.5-0.7,4.4-2.2,5.8
		C772.8,42.4,770.7,43.1,768,43.1z M768.9,14.9h-27.4v56h17.9v-15l9.5-0.1c7.8,0,13.9-1.8,18.1-5.5c4.3-3.7,6.4-8.8,6.4-15.5
		c0-6.3-2.1-11.2-6.4-14.7C782.8,16.7,776.7,14.9,768.9,14.9z"/>
	<path class="st1" d="M501.3,43.1h-8.6V27.7h8.6c2.7,0,4.8,0.7,6.2,2c1.5,1.3,2.2,3.2,2.2,5.6c0,2.5-0.7,4.4-2.2,5.8
		C506,42.4,504,43.1,501.3,43.1z M502.1,14.9h-27.4v56h17.9v-15l9.5-0.1c7.8,0,13.9-1.8,18.1-5.5c4.3-3.7,6.4-8.8,6.4-15.5
		c0-6.3-2.1-11.2-6.4-14.7C516,16.7,509.9,14.9,502.1,14.9z"/>
	<path class="st1" d="M1030.4,43.1h-8.6V27.7h8.6c2.7,0,4.8,0.7,6.2,2c1.5,1.3,2.2,3.2,2.2,5.6c0,2.5-0.7,4.4-2.2,5.8
		C1035.2,42.4,1033.1,43.1,1030.4,43.1z M1031.3,14.9h-27.4v56h17.9v-15l9.5-0.1c7.8,0,13.9-1.8,18.1-5.5c4.3-3.7,6.4-8.8,6.4-15.5
		c0-6.3-2.1-11.2-6.4-14.7C1045.2,16.7,1039.1,14.9,1031.3,14.9z"/>
	<path class="st1" d="M43.5,464.2h-8.6v-15.3h8.6c2.7,0,4.8,0.7,6.2,2c1.5,1.3,2.2,3.2,2.2,5.6c0,2.5-0.7,4.4-2.2,5.8
		C48.3,463.5,46.2,464.2,43.5,464.2z M44.4,436H17v56h17.9v-15l9.5-0.1c7.8,0,13.9-1.8,18.1-5.5c4.3-3.7,6.4-8.8,6.4-15.5
		c0-6.3-2.1-11.2-6.4-14.7C58.3,437.8,52.2,436,44.4,436z"/>
	<path class="st1" d="M572.7,464.2h-8.6v-15.3h8.6c2.7,0,4.8,0.7,6.2,2c1.5,1.3,2.2,3.2,2.2,5.6c0,2.5-0.7,4.4-2.2,5.8
		C577.5,463.5,575.4,464.2,572.7,464.2z M573.6,436h-27.4v56h17.9v-15l9.5-0.1c7.8,0,13.9-1.8,18.1-5.5c4.3-3.7,6.4-8.8,6.4-15.5
		c0-6.3-2.1-11.2-6.4-14.7C587.4,437.8,581.4,436,573.6,436z"/>
	<path class="st1" d="M305.9,464.2h-8.6v-15.3h8.6c2.7,0,4.8,0.7,6.2,2c1.5,1.3,2.2,3.2,2.2,5.6c0,2.5-0.7,4.4-2.2,5.8
		C310.7,463.5,308.6,464.2,305.9,464.2z M306.8,436h-27.4v56h17.9v-15l9.5-0.1c7.8,0,13.9-1.8,18.1-5.5c4.3-3.7,6.4-8.8,6.4-15.5
		c0-6.3-2.1-11.2-6.4-14.7C320.6,437.8,314.6,436,306.8,436z"/>
	<path class="st0" d="M835.1,464.2h-8.6v-15.3h8.6c2.7,0,4.8,0.7,6.2,2c1.5,1.3,2.2,3.2,2.2,5.6c0,2.5-0.7,4.4-2.2,5.8
		C839.9,463.5,837.8,464.2,835.1,464.2 M836,436h-27.4v56h17.9v-15l9.5-0.1c7.8,0,13.9-1.8,18.1-5.5c4.3-3.7,6.4-8.8,6.4-15.5
		c0-6.3-2.1-11.2-6.4-14.7C849.8,437.8,843.8,436,836,436"/>
	<path class="st1" d="M1100.9,464.2h-8.6v-15.3h8.6c2.7,0,4.8,0.7,6.2,2c1.5,1.3,2.2,3.2,2.2,5.6c0,2.5-0.7,4.4-2.2,5.8
		C1105.6,463.5,1103.6,464.2,1100.9,464.2z M1101.7,436h-27.4v56h17.9v-15l9.5-0.1c7.8,0,13.9-1.8,18.1-5.5
		c4.3-3.7,6.4-8.8,6.4-15.5c0-6.3-2.1-11.2-6.4-14.7C1115.6,437.8,1109.5,436,1101.7,436z"/>
	<path class="st1" d="M175.2,464.2h-8.6v-15.3h8.6c2.7,0,4.8,0.7,6.2,2c1.5,1.3,2.2,3.2,2.2,5.6c0,2.5-0.7,4.4-2.2,5.8
		C180,463.5,177.9,464.2,175.2,464.2z M176.1,436h-27.4v56h17.9v-15l9.5-0.1c7.8,0,13.9-1.8,18.1-5.5c4.3-3.7,6.4-8.8,6.4-15.5
		c0-6.3-2.1-11.2-6.4-14.7C189.9,437.8,183.9,436,176.1,436z"/>
	<path class="st1" d="M704.4,464.2h-8.6v-15.3h8.6c2.7,0,4.8,0.7,6.2,2c1.5,1.3,2.2,3.2,2.2,5.6c0,2.5-0.7,4.4-2.2,5.8
		C709.2,463.5,707.1,464.2,704.4,464.2z M705.3,436h-27.4v56h17.9v-15l9.5-0.1c7.8,0,13.9-1.8,18.1-5.5c4.3-3.7,6.4-8.8,6.4-15.5
		c0-6.3-2.1-11.2-6.4-14.7C719.1,437.8,713.1,436,705.3,436z"/>
	<path class="st1" d="M437.6,464.2H429v-15.3h8.6c2.7,0,4.8,0.7,6.2,2c1.5,1.3,2.2,3.2,2.2,5.6c0,2.5-0.7,4.4-2.2,5.8
		C442.4,463.5,440.3,464.2,437.6,464.2z M438.5,436h-27.4v56H429v-15l9.5-0.1c7.8,0,13.9-1.8,18.1-5.5c4.3-3.7,6.4-8.8,6.4-15.5
		c0-6.3-2.1-11.2-6.4-14.7C452.3,437.8,446.3,436,438.5,436z"/>
	<path class="st1" d="M966.8,464.2h-8.6v-15.3h8.6c2.7,0,4.8,0.7,6.2,2c1.5,1.3,2.2,3.2,2.2,5.6c0,2.5-0.7,4.4-2.2,5.8
		C971.6,463.5,969.5,464.2,966.8,464.2z M967.6,436h-27.4v56h17.9v-15l9.5-0.1c7.8,0,13.9-1.8,18.1-5.5c4.3-3.7,6.4-8.8,6.4-15.5
		c0-6.3-2.1-11.2-6.4-14.7C981.5,437.8,975.5,436,967.6,436z"/>
	<path class="st1" d="M1232.5,464.2h-8.6v-15.3h8.6c2.7,0,4.8,0.7,6.2,2c1.5,1.3,2.2,3.2,2.2,5.6c0,2.5-0.7,4.4-2.2,5.8
		C1237.3,463.5,1235.2,464.2,1232.5,464.2z M1233.4,436H1206v56h17.9v-15l9.5-0.1c7.8,0,13.9-1.8,18.1-5.5c4.3-3.7,6.4-8.8,6.4-15.5
		c0-6.3-2.1-11.2-6.4-14.7C1247.3,437.8,1241.2,436,1233.4,436z"/>
	<path class="st1" d="M109.3,464.2h-8.6v-15.3h8.6c2.7,0,4.8,0.7,6.2,2c1.5,1.3,2.2,3.2,2.2,5.6c0,2.5-0.7,4.4-2.2,5.8
		C114.1,463.5,112,464.2,109.3,464.2z M110.2,436H82.8v56h17.9v-15l9.5-0.1c7.8,0,13.9-1.8,18.1-5.5c4.3-3.7,6.4-8.8,6.4-15.5
		c0-6.3-2.1-11.2-6.4-14.7C124,437.8,118,436,110.2,436z"/>
	<path class="st1" d="M638.5,464.2h-8.6v-15.3h8.6c2.7,0,4.8,0.7,6.2,2c1.5,1.3,2.2,3.2,2.2,5.6c0,2.5-0.7,4.4-2.2,5.8
		C643.3,463.5,641.2,464.2,638.5,464.2z M639.4,436H612v56h17.9v-15l9.5-0.1c7.8,0,13.9-1.8,18.1-5.5c4.3-3.7,6.4-8.8,6.4-15.5
		c0-6.3-2.1-11.2-6.4-14.7C653.2,437.8,647.2,436,639.4,436z"/>
	<path class="st1" d="M371.7,464.2h-8.6v-15.3h8.6c2.7,0,4.8,0.7,6.2,2c1.5,1.3,2.2,3.2,2.2,5.6c0,2.5-0.7,4.4-2.2,5.8
		S374.4,464.2,371.7,464.2z M372.6,436h-27.4v56h17.9v-15l9.5-0.1c7.8,0,13.9-1.8,18.1-5.5c4.3-3.7,6.4-8.8,6.4-15.5
		c0-6.3-2.1-11.2-6.4-14.7C386.4,437.8,380.4,436,372.6,436z"/>
	<path class="st1" d="M900.9,464.2h-8.6v-15.3h8.6c2.7,0,4.8,0.7,6.2,2c1.5,1.3,2.2,3.2,2.2,5.6c0,2.5-0.7,4.4-2.2,5.8
		C905.7,463.5,903.6,464.2,900.9,464.2z M901.8,436h-27.4v56h17.9v-15l9.5-0.1c7.8,0,13.9-1.8,18.1-5.5c4.3-3.7,6.4-8.8,6.4-15.5
		c0-6.3-2.1-11.2-6.4-14.7C915.6,437.8,909.6,436,901.8,436z"/>
	<path class="st1" d="M1166.7,464.2h-8.6v-15.3h8.6c2.7,0,4.8,0.7,6.2,2c1.5,1.3,2.2,3.2,2.2,5.6c0,2.5-0.7,4.4-2.2,5.8
		S1169.4,464.2,1166.7,464.2z M1167.5,436h-27.4v56h17.9v-15l9.5-0.1c7.8,0,13.9-1.8,18.1-5.5c4.3-3.7,6.4-8.8,6.4-15.5
		c0-6.3-2.1-11.2-6.4-14.7C1181.4,437.8,1175.3,436,1167.5,436z"/>
	<path class="st1" d="M241,464.2h-8.6v-15.3h8.6c2.7,0,4.8,0.7,6.2,2c1.5,1.3,2.2,3.2,2.2,5.6c0,2.5-0.7,4.4-2.2,5.8
		C245.8,463.5,243.7,464.2,241,464.2z M241.9,436h-27.4v56h17.9v-15l9.5-0.1c7.8,0,13.9-1.8,18.1-5.5c4.3-3.7,6.4-8.8,6.4-15.5
		c0-6.3-2.1-11.2-6.4-14.7C255.7,437.8,249.7,436,241.9,436z"/>
	<path class="st1" d="M770.2,464.2h-8.6v-15.3h8.6c2.7,0,4.8,0.7,6.2,2c1.5,1.3,2.2,3.2,2.2,5.6c0,2.5-0.7,4.4-2.2,5.8
		S772.9,464.2,770.2,464.2z M771,436h-27.4v56h17.9v-15l9.5-0.1c7.8,0,13.9-1.8,18.1-5.5c4.3-3.7,6.4-8.8,6.4-15.5
		c0-6.3-2.1-11.2-6.4-14.7C784.9,437.8,778.9,436,771,436z"/>
	<path class="st1" d="M503.4,464.2h-8.6v-15.3h8.6c2.7,0,4.8,0.7,6.2,2c1.5,1.3,2.2,3.2,2.2,5.6c0,2.5-0.7,4.4-2.2,5.8
		C508.2,463.5,506.1,464.2,503.4,464.2z M504.3,436h-27.4v56h17.9v-15l9.5-0.1c7.8,0,13.9-1.8,18.1-5.5c4.3-3.7,6.4-8.8,6.4-15.5
		c0-6.3-2.1-11.2-6.4-14.7C518.1,437.8,512.1,436,504.3,436z"/>
	<path class="st1" d="M1032.6,464.2h-8.6v-15.3h8.6c2.7,0,4.8,0.7,6.2,2c1.5,1.3,2.2,3.2,2.2,5.6c0,2.5-0.7,4.4-2.2,5.8
		C1037.4,463.5,1035.3,464.2,1032.6,464.2z M1033.4,436h-27.4v56h17.9v-15l9.5-0.1c7.8,0,13.9-1.8,18.1-5.5
		c4.3-3.7,6.4-8.8,6.4-15.5c0-6.3-2.1-11.2-6.4-14.7C1047.3,437.8,1041.2,436,1033.4,436z"/>
	<path class="st1" d="M43.2,183.5h-8.6v-15.3h8.6c2.7,0,4.8,0.7,6.2,2c1.5,1.3,2.2,3.2,2.2,5.6c0,2.5-0.7,4.4-2.2,5.8
		C48,182.8,45.9,183.5,43.2,183.5z M44.1,155.4H16.7v56h17.9v-15l9.5-0.1c7.8,0,13.9-1.8,18.1-5.5c4.3-3.7,6.4-8.8,6.4-15.5
		c0-6.3-2.1-11.2-6.4-14.7C57.9,157.1,51.9,155.4,44.1,155.4z"/>
	<path class="st1" d="M572.4,183.5h-8.6v-15.3h8.6c2.7,0,4.8,0.7,6.2,2c1.5,1.3,2.2,3.2,2.2,5.6c0,2.5-0.7,4.4-2.2,5.8
		S575.1,183.5,572.4,183.5z M573.3,155.4h-27.4v56h17.9v-15l9.5-0.1c7.8,0,13.9-1.8,18.1-5.5c4.3-3.7,6.4-8.8,6.4-15.5
		c0-6.3-2.1-11.2-6.4-14.7C587.1,157.1,581.1,155.4,573.3,155.4z"/>
	<path class="st1" d="M305.6,183.5H297v-15.3h8.6c2.7,0,4.8,0.7,6.2,2c1.5,1.3,2.2,3.2,2.2,5.6c0,2.5-0.7,4.4-2.2,5.8
		S308.3,183.5,305.6,183.5z M306.5,155.4h-27.4v56H297v-15l9.5-0.1c7.8,0,13.9-1.8,18.1-5.5c4.3-3.7,6.4-8.8,6.4-15.5
		c0-6.3-2.1-11.2-6.4-14.7C320.3,157.1,314.3,155.4,306.5,155.4z"/>
	<path class="st1" d="M834.8,183.5h-8.6v-15.3h8.6c2.7,0,4.8,0.7,6.2,2c1.5,1.3,2.2,3.2,2.2,5.6c0,2.5-0.7,4.4-2.2,5.8
		C839.6,182.8,837.5,183.5,834.8,183.5z M835.7,155.4h-27.4v56h17.9v-15l9.5-0.1c7.8,0,13.9-1.8,18.1-5.5c4.3-3.7,6.4-8.8,6.4-15.5
		c0-6.3-2.1-11.2-6.4-14.7C849.5,157.1,843.5,155.4,835.7,155.4z"/>
	<path class="st1" d="M1100.5,183.5h-8.6v-15.3h8.6c2.7,0,4.8,0.7,6.2,2c1.5,1.3,2.2,3.2,2.2,5.6c0,2.5-0.7,4.4-2.2,5.8
		C1105.3,182.8,1103.2,183.5,1100.5,183.5z M1101.4,155.4H1074v56h17.9v-15l9.5-0.1c7.8,0,13.9-1.8,18.1-5.5
		c4.3-3.7,6.4-8.8,6.4-15.5c0-6.3-2.1-11.2-6.4-14.7C1115.3,157.1,1109.2,155.4,1101.4,155.4z"/>
	<path class="st1" d="M174.9,183.5h-8.6v-15.3h8.6c2.7,0,4.8,0.7,6.2,2c1.5,1.3,2.2,3.2,2.2,5.6c0,2.5-0.7,4.4-2.2,5.8
		C179.7,182.8,177.6,183.5,174.9,183.5z M175.8,155.4h-27.4v56h17.9v-15l9.5-0.1c7.8,0,13.9-1.8,18.1-5.5c4.3-3.7,6.4-8.8,6.4-15.5
		c0-6.3-2.1-11.2-6.4-14.7C189.6,157.1,183.6,155.4,175.8,155.4z"/>
	<path class="st1" d="M704.1,183.5h-8.6v-15.3h8.6c2.7,0,4.8,0.7,6.2,2c1.5,1.3,2.2,3.2,2.2,5.6c0,2.5-0.7,4.4-2.2,5.8
		C708.9,182.8,706.8,183.5,704.1,183.5z M704.9,155.4h-27.4v56h17.9v-15l9.5-0.1c7.8,0,13.9-1.8,18.1-5.5c4.3-3.7,6.4-8.8,6.4-15.5
		c0-6.3-2.1-11.2-6.4-14.7C718.8,157.1,712.7,155.4,704.9,155.4z"/>
	<path class="st1" d="M437.3,183.5h-8.6v-15.3h8.6c2.7,0,4.8,0.7,6.2,2c1.5,1.3,2.2,3.2,2.2,5.6c0,2.5-0.7,4.4-2.2,5.8
		C442.1,182.8,440,183.5,437.3,183.5z M438.1,155.4h-27.4v56h17.9v-15l9.5-0.1c7.8,0,13.9-1.8,18.1-5.5c4.3-3.7,6.4-8.8,6.4-15.5
		c0-6.3-2.1-11.2-6.4-14.7C452,157.1,446,155.4,438.1,155.4z"/>
	<path class="st0" d="M966.5,183.5h-8.6v-15.3h8.6c2.7,0,4.8,0.7,6.2,2c1.5,1.3,2.2,3.2,2.2,5.6c0,2.5-0.7,4.4-2.2,5.8
		C971.2,182.8,969.2,183.5,966.5,183.5 M967.3,155.4h-27.4v56h17.9v-15l9.5-0.1c7.8,0,13.9-1.8,18.1-5.5c4.3-3.7,6.4-8.8,6.4-15.5
		c0-6.3-2.1-11.2-6.4-14.7C981.2,157.1,975.1,155.4,967.3,155.4"/>
	<path class="st1" d="M1232.2,183.5h-8.6v-15.3h8.6c2.7,0,4.8,0.7,6.2,2c1.5,1.3,2.2,3.2,2.2,5.6c0,2.5-0.7,4.4-2.2,5.8
		C1237,182.8,1234.9,183.5,1232.2,183.5z M1233.1,155.4h-27.4v56h17.9v-15l9.5-0.1c7.8,0,13.9-1.8,18.1-5.5
		c4.3-3.7,6.4-8.8,6.4-15.5c0-6.3-2.1-11.2-6.4-14.7C1246.9,157.1,1240.9,155.4,1233.1,155.4z"/>
	<path class="st1" d="M109,183.5h-8.6v-15.3h8.6c2.7,0,4.8,0.7,6.2,2c1.5,1.3,2.2,3.2,2.2,5.6c0,2.5-0.7,4.4-2.2,5.8
		C113.8,182.8,111.7,183.5,109,183.5z M109.9,155.4H82.5v56h17.9v-15l9.5-0.1c7.8,0,13.9-1.8,18.1-5.5c4.3-3.7,6.4-8.8,6.4-15.5
		c0-6.3-2.1-11.2-6.4-14.7C123.7,157.1,117.7,155.4,109.9,155.4z"/>
	<path class="st1" d="M638.2,183.5h-8.6v-15.3h8.6c2.7,0,4.8,0.7,6.2,2c1.5,1.3,2.2,3.2,2.2,5.6c0,2.5-0.7,4.4-2.2,5.8
		C643,182.8,640.9,183.5,638.2,183.5z M639.1,155.4h-27.4v56h17.9v-15l9.5-0.1c7.8,0,13.9-1.8,18.1-5.5c4.3-3.7,6.4-8.8,6.4-15.5
		c0-6.3-2.1-11.2-6.4-14.7C652.9,157.1,646.9,155.4,639.1,155.4z"/>
	<path class="st1" d="M371.4,183.5h-8.6v-15.3h8.6c2.7,0,4.8,0.7,6.2,2c1.5,1.3,2.2,3.2,2.2,5.6c0,2.5-0.7,4.4-2.2,5.8
		S374.1,183.5,371.4,183.5z M372.3,155.4h-27.4v56h17.9v-15l9.5-0.1c7.8,0,13.9-1.8,18.1-5.5c4.3-3.7,6.4-8.8,6.4-15.5
		c0-6.3-2.1-11.2-6.4-14.7C386.1,157.1,380.1,155.4,372.3,155.4z"/>
	<path class="st1" d="M900.6,183.5H892v-15.3h8.6c2.7,0,4.8,0.7,6.2,2c1.5,1.3,2.2,3.2,2.2,5.6c0,2.5-0.7,4.4-2.2,5.8
		S903.3,183.5,900.6,183.5z M901.4,155.4h-27.4v56H892v-15l9.5-0.1c7.8,0,13.9-1.8,18.1-5.5c4.3-3.7,6.4-8.8,6.4-15.5
		c0-6.3-2.1-11.2-6.4-14.7C915.3,157.1,909.3,155.4,901.4,155.4z"/>
	<path class="st1" d="M1166.3,183.5h-8.6v-15.3h8.6c2.7,0,4.8,0.7,6.2,2c1.5,1.3,2.2,3.2,2.2,5.6c0,2.5-0.7,4.4-2.2,5.8
		C1171.1,182.8,1169,183.5,1166.3,183.5z M1167.2,155.4h-27.4v56h17.9v-15l9.5-0.1c7.8,0,13.9-1.8,18.1-5.5
		c4.3-3.7,6.4-8.8,6.4-15.5c0-6.3-2.1-11.2-6.4-14.7C1181.1,157.1,1175,155.4,1167.2,155.4z"/>
	<path class="st1" d="M240.7,183.5h-8.6v-15.3h8.6c2.7,0,4.8,0.7,6.2,2c1.5,1.3,2.2,3.2,2.2,5.6c0,2.5-0.7,4.4-2.2,5.8
		S243.4,183.5,240.7,183.5z M241.5,155.4h-27.4v56h17.9v-15l9.5-0.1c7.8,0,13.9-1.8,18.1-5.5c4.3-3.7,6.4-8.8,6.4-15.5
		c0-6.3-2.1-11.2-6.4-14.7C255.4,157.1,249.4,155.4,241.5,155.4z"/>
	<path class="st1" d="M769.9,183.5h-8.6v-15.3h8.6c2.7,0,4.8,0.7,6.2,2c1.5,1.3,2.2,3.2,2.2,5.6c0,2.5-0.7,4.4-2.2,5.8
		S772.6,183.5,769.9,183.5z M770.7,155.4h-27.4v56h17.9v-15l9.5-0.1c7.8,0,13.9-1.8,18.1-5.5c4.3-3.7,6.4-8.8,6.4-15.5
		c0-6.3-2.1-11.2-6.4-14.7C784.6,157.1,778.5,155.4,770.7,155.4z"/>
	<path class="st1" d="M503.1,183.5h-8.6v-15.3h8.6c2.7,0,4.8,0.7,6.2,2c1.5,1.3,2.2,3.2,2.2,5.6c0,2.5-0.7,4.4-2.2,5.8
		C507.9,182.8,505.8,183.5,503.1,183.5z M503.9,155.4h-27.4v56h17.9v-15l9.5-0.1c7.8,0,13.9-1.8,18.1-5.5c4.3-3.7,6.4-8.8,6.4-15.5
		c0-6.3-2.1-11.2-6.4-14.7C517.8,157.1,511.7,155.4,503.9,155.4z"/>
	<path class="st1" d="M1032.3,183.5h-8.6v-15.3h8.6c2.7,0,4.8,0.7,6.2,2c1.5,1.3,2.2,3.2,2.2,5.6c0,2.5-0.7,4.4-2.2,5.8
		C1037,182.8,1035,183.5,1032.3,183.5z M1033.1,155.4h-27.4v56h17.9v-15l9.5-0.1c7.8,0,13.9-1.8,18.1-5.5c4.3-3.7,6.4-8.8,6.4-15.5
		c0-6.3-2.1-11.2-6.4-14.7C1047,157.1,1040.9,155.4,1033.1,155.4z"/>
	<path class="st2" d="M392.1,78.1c0,0-27.7,0-27.7,25.7v119.1c0,0,0,25.7,27.7,25.7h491.2c0,0,27.7,0,27.7-25.7V103.7
		c0,0,0-25.7-27.7-25.7H392.1z"/>
	<path class="st2" d="M369.8,227c0,0-27.7,0-27.7,25.7v146.9c0,0,0,25.7,27.7,25.7h548.8c0,0,27.7,0,27.7-25.7V252.7
		c0,0,0-25.7-27.7-25.7H369.8z"/>
</g>
<text transform="matrix(1.0777 0 0 1 369.6123 237.3102)"><tspan x="0" y="0" class="st3 st4 st5 st6">P</tspan><tspan x="123.2" y="0" class="st3 st4 st5 st6">OS</tspan><tspan x="385.4" y="0" class="st3 st4 st5">T</tspan></text>
<text transform="matrix(1.0777 0 0 1 343.416 390.9347)"><tspan x="0" y="0" class="st3 st4 st5 st6">P</tspan><tspan x="123.1" y="0" class="st3 st4 st5 st6">ICK</tspan><tspan x="446.5" y="0" class="st3 st4 st5">S</tspan></text>
</svg>
