<?xml version="1.0" encoding="utf-8"?>
<!-- Generator: Adobe Illustrator 19.2.1, SVG Export Plug-In . SVG Version: 6.00 Build 0)  -->
<svg version="1.1" id="Layer_1" xmlns="http://www.w3.org/2000/svg" xmlns:xlink="http://www.w3.org/1999/xlink" x="0px" y="0px"
	 viewBox="0 0 78.5 29.1" style="enable-background:new 0 0 78.5 29.1;" xml:space="preserve">
<style type="text/css">
	.st0{fill-rule:evenodd;clip-rule:evenodd;fill:#231F20;}
</style>
<path class="st0" d="M63.2,9.1c-3.6-1.2-8.2-3.3-9.9-1.7c-2.7,2.6-6.8,5.1-10.6,5.5c-9,0.8-20-2-24.2-4.2C11.4,4.9,9.2,1.7,8,3.4
	c-2.2,3.3-3.8,8.4-4.4,10.9c-1,4.4-1.8,10,5.7,11c5.4,0.7,11,0.7,16.4,0.7c10.7,0.1,22.5,1.5,33.1-1c4-1,11-2.4,14.2-5.2
	C79.9,13.8,66.4,10.2,63.2,9.1z"/>
</svg>
