<?xml version="1.0" encoding="utf-8"?>
<!-- Generator: Adobe Illustrator 16.0.0, SVG Export Plug-In . SVG Version: 6.00 Build 0)  -->
<!DOCTYPE svg PUBLIC "-//W3C//DTD SVG 1.1//EN" "http://www.w3.org/Graphics/SVG/1.1/DTD/svg11.dtd">
<svg version="1.1" id="Layer_1" xmlns="http://www.w3.org/2000/svg" xmlns:xlink="http://www.w3.org/1999/xlink" x="0px" y="0px"
	 width="73.972px" height="43.007px" viewBox="0 0 73.972 43.007" enable-background="new 0 0 73.972 43.007" xml:space="preserve">
<path fill="#231F20" d="M12.227,18.822c-0.339,3.206,0.163,6.752,0.441,9.954c0.288,3.317,0.776,6.599,1.312,9.883
	c0.133,0.817,0.458,1.893,0.021,2.102c-2.509,1.2-8.774,0.412-9.433-0.126c-0.875-0.715-0.462-3.684-0.526-5.007
	c-0.172-3.56-0.087-7.066-0.69-10.597C2.743,21.47,2.28,17.865,1.808,14.283C1.3,10.434,0.682,6.436,1.139,2.553
	c0-0.002,0-0.004,0.001-0.006c0.392-3.299,5.659-0.437,6.971,0.248c3.404,1.775,6.825,3.52,10.238,5.278
	c2.892,1.489,5.866,2.869,8.613,4.62c1.283,0.817,2.489,2.003,3.905,2.574c1.845,0.745,3.026-0.098,4.666-0.926
	c5.113-2.584,12.636-5.823,18.082-2.546c2.563,1.543,4.717,3.74,6.816,5.849c2.245,2.254,4.817,5.015,7.517,7.071
	c1.021,0.778,2.121,1.641,3.18,2.373c1.131,0.783,1.972,1.583,1.838,3.071c-0.102,1.144-0.023,3.089-1.111,4.201
	c-1.206,1.234-2.324,1.964-3.836,2.771c-2.994,1.596-6.062,3.03-8.334,3.503c-3.403,0.709-8.581,1.193-12.064,0.478
	c-6.416-1.318-9.936-8.252-13.447-13.091c-1.957-2.697-4.202-5.094-6.937-7.01c-2.729-1.912-5.886-4.315-9.114-5.254
	C15.301,14.937,12.583,15.439,12.227,18.822z"/>
</svg>
