<?xml version="1.0" encoding="utf-8"?>
<!-- Generator: Adobe Illustrator 19.2.1, SVG Export Plug-In . SVG Version: 6.00 Build 0)  -->
<svg version="1.1" id="Layer_1" xmlns="http://www.w3.org/2000/svg" xmlns:xlink="http://www.w3.org/1999/xlink" x="0px" y="0px"
	 viewBox="0 0 78.1 65.6" style="enable-background:new 0 0 78.1 65.6;" xml:space="preserve">
<style type="text/css">
	.st0{fill-rule:evenodd;clip-rule:evenodd;fill:#231F20;}
</style>
<path class="st0" d="M57.7,46c-1.2-0.4-2.8-1.3-4.1-1.2c-1.2,0.1-2,1.3-3.2,1.5c-2.5,0.5-5.6-0.8-7.9-1.8C32.3,40,28,27.6,22.8,18.6
	c-2.9-5.1-5.5-10.4-9-15c-4.3,3-9.7,8-10.6,13.4c-0.9,5.5,2,10.9,3.4,16.1c1.1,4,1.2,8.1,1.3,12.2c0.1,3.8,0.2,7.6,0.3,11.4
	c0,1.3,0.1,2.6,0.1,3.8c0.6,0.5,2.8,0.4,2.8-0.3c0.2-4.1,0.4-8.7,0.7-12.8c0.3-4.2,0.4-11,3.2-14.3c2.3,0.5,3.6,3,4.9,4.7
	c2,2.6,3.9,5.1,6,7.6c3.8,4.6,5.7,10.7,10.8,13.9c4.8,2.9,9.3,3.5,18.5,3c8.3-0.5,13.4-1.3,17.9-4c2.6-1.6,2.2-4.5-0.3-6.4
	C70.7,50.2,63,47.9,57.7,46z"/>
</svg>
