<?xml version="1.0" encoding="utf-8"?>
<!-- Generator: Adobe Illustrator 19.2.1, SVG Export Plug-In . SVG Version: 6.00 Build 0)  -->
<svg version="1.1" id="Layer_1" xmlns="http://www.w3.org/2000/svg" xmlns:xlink="http://www.w3.org/1999/xlink" x="0px" y="0px"
	 viewBox="0 0 78.1 57" style="enable-background:new 0 0 78.1 57;" xml:space="preserve">
<style type="text/css">
	.st0{fill-rule:evenodd;clip-rule:evenodd;fill:#231F20;}
</style>
<path class="st0" d="M73.5,46.9c1.1-1.3-0.4-4.7-1.7-6.1c-2.3-2.7-5-3.3-8.3-4.4c-0.5-0.2-1.9-0.6-2.4-0.7
	c-5.8-1.8-9.8-5.1-13.1-9.6c-5.3-7.3-10.4-14.9-15.5-22.3c-0.5-0.8-1-1-1.8-0.4c-3.2,2.1-6.6,3.9-8.4,7.6c-0.2,0.3-0.9,0.5-1.4,0.6
	c-4.1,0.8-8,0.5-11.8-1.4C7,8.9,6.8,9.1,6,11.4c-0.8,2.2-1.5,4.4-2.4,6.5c-2,4.6-2.1,9.3-0.9,14.2c1.2,5,2.2,11.4,3.2,16.4
	c0.8,4.5,2.2,4.5,4.9,4.7C51.2,56.3,67.7,53.5,73.5,46.9z"/>
</svg>
