<svg id="Layer_2" data-name="Layer 2" xmlns="http://www.w3.org/2000/svg" viewBox="0 0 403.54 335.54"><defs><style>.cls-1,.cls-3{fill:none;}.cls-1{stroke:#1fffee;}.cls-1,.cls-2,.cls-3,.cls-4,.cls-5{stroke-miterlimit:10;}.cls-2{fill:#ce975b;}.cls-2,.cls-3{stroke:#af7f4f;stroke-width:11px;}.cls-4{fill:#ffedd4;stroke:#c9b79d;}.cls-5{fill:#7c4d14;stroke:#603a11;}</style></defs><title>chicken-and-waffles</title><path class="cls-1" d="M239.75,263.69" transform="translate(-43.96 -63)"/><circle class="cls-2" cx="235.77" cy="167.77" r="162.27"/><line class="cls-3" x1="132.29" y1="43.13" x2="132.29" y2="292.41"/><line class="cls-3" x1="198.14" y1="12.56" x2="198.14" y2="322.99"/><line class="cls-3" x1="268.69" y1="10.2" x2="268.69" y2="327.69"/><line class="cls-3" x1="334.54" y1="38.42" x2="334.54" y2="297.12"/><line class="cls-3" x1="122.89" y1="52.53" x2="351.01" y2="52.53"/><line class="cls-3" x1="82.91" y1="113.68" x2="386.28" y2="113.68"/><line class="cls-3" x1="75.85" y1="177.18" x2="398.04" y2="177.18"/><line class="cls-3" x1="94.67" y1="240.67" x2="379.23" y2="240.67"/><line class="cls-3" x1="148.76" y1="304.17" x2="322.79" y2="304.17"/><path class="cls-4" d="M103.35,155.51a91.73,91.73,0,0,1,2.35-16.46c3.21-13.54,7.23-16.67,7.06-25.87-.06-2.87-.37-11.88-7.06-18.81a30.23,30.23,0,0,0-14.11-7.06c-.94-.21-6.81-1.4-11.76,2.35-4.72,3.58-6.66,10.18-4.7,16.46A15.6,15.6,0,0,0,61,99.07a15.17,15.17,0,0,0-9.41,4.7,27.11,27.11,0,0,0-7.06,14.11c-1.1,11.4,7.54,19.43,9.41,21.17,3.85,3.58,6,3.65,11.76,7.06a70.59,70.59,0,0,1,18.81,16.46" transform="translate(-43.96 -63)"/><path class="cls-5" d="M72.78,167.27,74.31,173l2.44,15.44.72,14.07-2.35,18.81L60.23,259.58a181.71,181.71,0,0,0-3.92,22.93c-1.25,11.82-2.26,21.36,0,32.92a78,78,0,0,0,11.76,28.22,120.77,120.77,0,0,0,35.28,32.92,89,89,0,0,0,58.79,4.7A63.9,63.9,0,0,0,181,374.23c22.72-13,30.26-36.4,32.92-44.68a93,93,0,0,0,2.35-47,90.88,90.88,0,0,0-30.57-51.74,377.93,377.93,0,0,0-32.92-25.87q-7.15-5-14.11-9.41a57.28,57.28,0,0,1-11.76-9.41c-13.13-13.73-15.78-30.42-16.46-37.63l-7.06,7.06-14.11-2.35-4.7,9.41-14.11-2.35Z" transform="translate(-43.96 -63)"/></svg>