<svg id="stuff" xmlns="http://www.w3.org/2000/svg" viewBox="0 0 490.69 205.46"><defs><style>.cls-1,.cls-10,.cls-2,.cls-4,.cls-8,.cls-9{fill:none;stroke-miterlimit:10;stroke-width:3px;}.cls-1{stroke:#292929;}.cls-2{stroke:#a12f5e;}.cls-3{fill:#ca4c35;}.cls-4{stroke:#67b6e5;}.cls-5{fill:#a12f5e;}.cls-6{fill:#f4801f;}.cls-7{fill:#d9be2f;}.cls-8{stroke:#d9be2f;}.cls-9{stroke:#ca4c35;}.cls-10{stroke:#f4801f;}.cls-11{fill:#67b6e5;}</style></defs><title>FINSIHEDFINALLY</title><rect x="26.35" y="45.19" width="434" height="145"/><g id="hex"><polygon class="cls-1" points="82.19 64.23 55.35 48.73 28.5 64.23 28.5 95.23 55.35 110.73 82.19 95.23 82.19 64.23"/><polygon class="cls-1" points="56.19 111.23 29.35 95.73 2.5 111.23 2.5 142.23 29.35 157.73 56.19 142.23 56.19 111.23"/><polygon class="cls-1" points="83.19 157.23 56.35 141.73 29.5 157.23 29.5 188.23 56.35 203.73 83.19 188.23 83.19 157.23"/><polygon class="cls-1" points="55.19 17.23 28.35 1.73 1.5 17.23 1.5 48.23 28.35 63.73 55.19 48.23 55.19 17.23"/><polygon class="cls-1" points="109.19 17.23 82.35 1.73 55.5 17.23 55.5 48.23 82.35 63.73 109.19 48.23 109.19 17.23"/><polygon class="cls-1" points="164.19 111.23 137.35 95.73 110.5 111.23 110.5 142.23 137.35 157.73 164.19 142.23 164.19 111.23"/><polygon class="cls-1" points="136.19 64.23 109.35 48.73 82.5 64.23 82.5 95.23 109.35 110.73 136.19 95.23 136.19 64.23"/><polygon class="cls-1" points="217.19 17.23 190.35 1.73 163.5 17.23 163.5 48.23 190.35 63.73 217.19 48.23 217.19 17.23"/><polygon class="cls-1" points="271.19 17.23 244.35 1.73 217.5 17.23 217.5 48.23 244.35 63.73 271.19 48.23 271.19 17.23"/><polygon class="cls-1" points="379.19 18.23 352.35 2.73 325.5 18.23 325.5 49.23 352.35 64.73 379.19 49.23 379.19 18.23"/><polygon class="cls-1" points="433.19 18.23 406.35 2.73 379.5 18.23 379.5 49.23 406.35 64.73 433.19 49.23 433.19 18.23"/><polygon class="cls-1" points="245.19 64.23 218.35 48.73 191.5 64.23 191.5 95.23 218.35 110.73 245.19 95.23 245.19 64.23"/><polygon class="cls-1" points="353.19 64.23 326.35 48.73 299.5 64.23 299.5 95.23 326.35 110.73 353.19 95.23 353.19 64.23"/><polygon class="cls-1" points="462.19 64.23 435.35 48.73 408.5 64.23 408.5 95.23 435.35 110.73 462.19 95.23 462.19 64.23"/><polygon class="cls-1" points="381.19 111.23 354.35 95.73 327.5 111.23 327.5 142.23 354.35 157.73 381.19 142.23 381.19 111.23"/><polygon class="cls-1" points="489.19 112.23 462.35 96.73 435.5 112.23 435.5 143.23 462.35 158.73 489.19 143.23 489.19 112.23"/><polygon class="cls-2" points="47.23 22.5 28.77 11.84 10.31 22.5 10.31 43.81 28.77 54.47 47.23 43.81 47.23 22.5"/><polygon class="cls-3" points="36.03 28.14 28.37 23.72 20.71 28.14 20.71 36.98 28.37 41.41 36.03 36.98 36.03 28.14"/><polygon class="cls-4" points="101.23 22.5 82.77 11.84 64.31 22.5 64.31 43.81 82.77 54.47 101.23 43.81 101.23 22.5"/><polygon class="cls-5" points="90.03 28.14 82.37 23.72 74.71 28.14 74.71 36.98 82.37 41.41 90.03 36.98 90.03 28.14"/><polygon class="cls-1" points="209.23 22.5 190.77 11.84 172.31 22.5 172.31 43.81 190.77 54.47 209.23 43.81 209.23 22.5"/><polygon class="cls-6" points="198.03 28.14 190.37 23.72 182.71 28.14 182.71 36.98 190.37 41.41 198.03 36.98 198.03 28.14"/><polygon class="cls-1" points="263.23 22.5 244.77 11.84 226.31 22.5 226.31 43.81 244.77 54.47 263.23 43.81 263.23 22.5"/><polygon class="cls-7" points="252.03 28.14 244.37 23.72 236.71 28.14 236.71 36.98 244.37 41.41 252.03 36.98 252.03 28.14"/><polygon class="cls-8" points="209.23 22.5 190.77 11.84 172.31 22.5 172.31 43.81 190.77 54.47 209.23 43.81 209.23 22.5"/><polygon class="cls-9" points="263.23 22.5 244.77 11.84 226.31 22.5 226.31 43.81 244.77 54.47 263.23 43.81 263.23 22.5"/><polygon class="cls-10" points="425.23 22.5 406.77 11.84 388.31 22.5 388.31 43.81 406.77 54.47 425.23 43.81 425.23 22.5"/><polygon class="cls-11" points="414.03 28.14 406.37 23.72 398.71 28.14 398.71 36.98 406.37 41.41 414.03 36.98 414.03 28.14"/><polygon class="cls-4" points="371.23 22.5 352.77 11.84 334.31 22.5 334.31 43.81 352.77 54.47 371.23 43.81 371.23 22.5"/><polygon class="cls-5" points="360.03 28.14 352.37 23.72 344.71 28.14 344.71 36.98 352.37 41.41 360.03 36.98 360.03 28.14"/><polygon class="cls-2" points="47.23 116.5 28.77 105.84 10.31 116.5 10.31 137.81 28.77 148.47 47.23 137.81 47.23 116.5"/><polygon class="cls-3" points="36.03 122.14 28.37 117.72 20.71 122.14 20.71 130.98 28.37 135.41 36.03 130.98 36.03 122.14"/><polygon class="cls-10" points="156.23 116.5 137.77 105.84 119.31 116.5 119.31 137.81 137.77 148.47 156.23 137.81 156.23 116.5"/><polygon class="cls-11" points="145.03 122.14 137.37 117.72 129.71 122.14 129.71 130.98 137.37 135.41 145.03 130.98 145.03 122.14"/><polygon class="cls-4" points="373.23 116.5 354.77 105.84 336.31 116.5 336.31 137.81 354.77 148.47 373.23 137.81 373.23 116.5"/><polygon class="cls-5" points="362.03 122.14 354.37 117.72 346.71 122.14 346.71 130.98 354.37 135.41 362.03 130.98 362.03 122.14"/><polygon class="cls-6" points="470.03 122.14 462.37 117.72 454.71 122.14 454.71 130.98 462.37 135.41 470.03 130.98 470.03 122.14"/><polygon class="cls-8" points="481.23 116.5 462.77 105.84 444.31 116.5 444.31 137.81 462.77 148.47 481.23 137.81 481.23 116.5"/><polygon class="cls-8" points="74.23 69.5 55.77 58.84 37.31 69.5 37.31 90.81 55.77 101.47 74.23 90.81 74.23 69.5"/><polygon class="cls-6" points="63.03 75.14 55.37 70.72 47.71 75.14 47.71 83.98 55.37 88.41 63.03 83.98 63.03 75.14"/><polygon class="cls-9" points="128.23 69.5 109.77 58.84 91.31 69.5 91.31 90.81 109.77 101.47 128.23 90.81 128.23 69.5"/><polygon class="cls-7" points="117.03 75.14 109.37 70.72 101.71 75.14 101.71 83.98 109.37 88.41 117.03 83.98 117.03 75.14"/><polygon class="cls-3" points="227.03 75.14 219.37 70.72 211.71 75.14 211.71 83.98 219.37 88.41 227.03 83.98 227.03 75.14"/><polygon class="cls-2" points="237.23 69.5 218.77 58.84 200.31 69.5 200.31 90.81 218.77 101.47 237.23 90.81 237.23 69.5"/><polygon class="cls-8" points="345.23 69.5 326.77 58.84 308.31 69.5 308.31 90.81 326.77 101.47 345.23 90.81 345.23 69.5"/><polygon class="cls-4" points="453.23 69.5 434.77 58.84 416.31 69.5 416.31 90.81 434.77 101.47 453.23 90.81 453.23 69.5"/><polygon class="cls-5" points="442.03 75.14 434.37 70.72 426.71 75.14 426.71 83.98 434.37 88.41 442.03 83.98 442.03 75.14"/><polygon class="cls-8" points="75.23 163.5 56.77 152.84 38.31 163.5 38.31 184.81 56.77 195.47 75.23 184.81 75.23 163.5"/></g></svg>