<svg xmlns="http://www.w3.org/2000/svg" viewBox="0 0 310.56 316.13"><defs><style>.cls-1{fill:#9cd9e0;}.cls-2{fill:#bba58a;}.cls-3{fill:#e5d2cb;}.cls-4{fill:#feebe3;}.cls-5{fill:#ccb79c;}.cls-6{fill:#c4ae93;}.cls-7{fill:#c3ae92;}.cls-8{fill:#8f488c;}.cls-10,.cls-9{fill:#db819d;}.cls-9{stroke:#db819d;stroke-miterlimit:10;stroke-width:2px;}.cls-11{fill:#5f3a20;}.cls-12{fill:#9c4c96;}.cls-13{fill:#e8d8c0;}</style></defs><title>relationships_davis</title><g id="Layer_2" data-name="Layer 2"><rect class="cls-1" width="310.56" height="316.13"/></g><g id="Layer_1" data-name="Layer 1"><path class="cls-2" d="M115.33,204.45s21.25,19,30.34,22.39,7.39,10.11,7.39,10.11l-3.64,5s-22.73-12-25.79-13.18S115.33,204.45,115.33,204.45Z"/><polygon class="cls-3" points="100.02 172.35 99.31 178.61 149.1 194.04 149.1 187.24 100.02 172.35"/><path class="cls-4" d="M71.59,141.07l-1,16.08,26.62,8s1.24-4,5.73-9.45c0,0,19.38,13.37,28.07-7.61s11.71-34.88,9.9-45.88-23.52-15.36-23.52-15.36L94.79,90.51,81.53,98.81,69,114.64Z"/><path class="cls-5" d="M70.69,153.77S54.35,199.94,65.6,316.13h63.1s2.34-108.63-22.34-127l-7.71-5.43S102.77,170,100.71,166C100.71,166,101.75,164.09,70.69,153.77Z"/><path class="cls-6" d="M84.8,223s25.41,25.93,42.72,32.3C127.53,255.28,97.47,248.3,84.8,223Z"/><path class="cls-7" d="M74,198.86s6.63-22.22,20.07-2.41c0,0,11.45,22.09,17.93,28.91s10.8,11.05,11.59,11.59c0,0-14.54-16.14-15.68-20,0,0-13.52-23.75-13.86-23.86S78.65,171.12,74,198.86Z"/><polygon class="cls-8" points="147.79 186.11 175.21 195.25 172.23 204.91 147.17 194.33 147.79 186.11"/><path class="cls-9" d="M194.07,52.76c.51-.38,6-4.38,12.43-2.18.8.27,5.88,2.1,7.65,7.24a12.4,12.4,0,0,1-.68,9c-2.33,5.3-7.28,7.68-14.61,11.06a75,75,0,0,1-14.34,4.92Z"/><path class="cls-9" d="M192.15,52.18c-.2-.61-2.38-7.05-8.87-9-.81-.24-6-1.69-10.42,1.48a12.4,12.4,0,0,0-4.66,7.74C167,58.1,169.69,62.9,173.71,69.9a75,75,0,0,0,8.85,12.31Z"/><path class="cls-10" d="M186.7,72.71a.66.66,0,0,1-.35-.14c-.08,0-.28-.08-.29-.18a.53.53,0,0,1,.37,0,5.19,5.19,0,0,1,1.59.71c.08.06.22.19.33.13a3,3,0,0,0-.29-.91c-.09-.24-.19-.48-.26-.73a1.46,1.46,0,0,1-.07-.63,1.65,1.65,0,0,1,.49-.79,2,2,0,0,0,.66-1.32c0-.73,0-1.47,0-2.2"/><path class="cls-10" d="M187.37,70.3c.67.16-.37-.15-.52-.21l1.1.64-.12-.11-1.77,4.27c.21,0,.48.22.69.33a3.93,3.93,0,0,0,1.59.47c1.76.2,2.66-1.75,2.41-3.16a3.58,3.58,0,0,0-.49-1.46q-.12-.53-.17.32-.3.8,0,.36c.22-.07.62-.78.72-1,.71-1.27.54-2.78.54-4.18,0-3.22-5-3.22-5,0q0,.55,0,1.1c0,.13,0,1,.14.56-.15.57-.89,1.08-1.1,1.7-.49,1.49.28,2.5.52,3.89l2.41-3.16-.17,0,1.26.34a5.25,5.25,0,0,0-3.37-1.13c-2,.21-3.45,2.64-1.77,4.27a3.75,3.75,0,0,0,1.22.76c-.62-.28.23.14.52.21,3.13.75,4.46-4.07,1.33-4.82Z"/><path class="cls-10" d="M189.76,61.25a1.61,1.61,0,0,1-.1.44c-.09.31-.2.61-.27.93s-.09.43-.14.65a2.41,2.41,0,0,1-.09.39c.32-.92.69-1.83,1-2.76s.59-1.84,1-2.74c.18-.46.4-.9.61-1.34s.26-.6.39-.9a2.06,2.06,0,0,0,.08-.54,2.17,2.17,0,0,0,0-.4,2.57,2.57,0,0,1,0-.34"/><path class="cls-10" d="M187.35,60.59c-.18.8-.41,1.6-.6,2.4-.76,3.16,3.74,4.33,4.82,1.33.59-1.65,1.13-3.32,1.76-5a17.83,17.83,0,0,0,1.38-4.07A2.59,2.59,0,0,0,193,52.22,2.52,2.52,0,0,0,189.88,54,18.71,18.71,0,0,1,188.5,58c-.61,1.64-1.16,3.31-1.76,5l4.82,1.33c.19-.8.42-1.6.6-2.4.69-3.14-4.12-4.47-4.82-1.33Z"/><path class="cls-10" d="M185.72,73.09a16.41,16.41,0,0,0-.54,2.35c-.08.29-.14.59-.21.89a5,5,0,0,1-.14.61,4.22,4.22,0,0,0-.38,1c0,.17,0,.35,0,.53a1.91,1.91,0,0,1,0,.31,1,1,0,0,0-.06.24"/><path class="cls-10" d="M183.31,72.42c-.39,1.09-.5,2.27-.78,3.39-.11.43-.32.86-.44,1.32a7.76,7.76,0,0,0-.15,1c0,.07-.11.56,0,.28-.79,3.12,4,4.45,4.82,1.33a11,11,0,0,0,.2-1.48c0,.38-.09.29.06,0a5.73,5.73,0,0,0,.36-1.06c.29-1.12.39-2.3.78-3.39a2.52,2.52,0,0,0-1.75-3.08,2.55,2.55,0,0,0-3.08,1.75Z"/><path class="cls-10" d="M184.17,81.09"/><path class="cls-10" d="M184.17,83.59c3.22,0,3.22-5,0-5s-3.22,5,0,5Z"/><path class="cls-10" d="M183.15,79.88"/><path class="cls-10" d="M183.15,80.38a.5.5,0,0,0,0-1,.5.5,0,0,0,0,1Z"/><path class="cls-10" d="M183.49,81.2"/><path class="cls-10" d="M183.49,81.7a.5.5,0,0,0,0-1,.5.5,0,0,0,0,1Z"/><path class="cls-10" d="M183.6,82"/><path class="cls-10" d="M183.6,82.48a.5.5,0,0,0,0-1,.5.5,0,0,0,0,1Z"/><path class="cls-10" d="M183.33,82.45"/><path class="cls-10" d="M183.33,82.95a.5.5,0,0,0,0-1,.5.5,0,0,0,0,1Z"/><path class="cls-10" d="M183.26,82.89"/><path class="cls-10" d="M183.26,83.39a.5.5,0,0,0,0-1,.5.5,0,0,0,0,1Z"/><path class="cls-10" d="M183.26,83.07"/><path class="cls-10" d="M183.26,83.57a.5.5,0,0,0,0-1,.5.5,0,0,0,0,1Z"/><path class="cls-10" d="M183.26,83.22"/><path class="cls-10" d="M183.26,83.72a.5.5,0,0,0,0-1,.5.5,0,0,0,0,1Z"/><path class="cls-10" d="M183.25,83.38"/><path class="cls-10" d="M183.25,83.88a.5.5,0,0,0,0-1,.5.5,0,0,0,0,1Z"/><path class="cls-10" d="M183.19,83.46"/><path class="cls-10" d="M183.19,84a.5.5,0,0,0,0-1,.5.5,0,0,0,0,1Z"/><path class="cls-10" d="M183.17,83.58"/><path class="cls-10" d="M183.17,84.08a.5.5,0,0,0,0-1,.5.5,0,0,0,0,1Z"/><polygon class="cls-10" points="182.97 84.19 183.09 84.16 183.07 83.86 182.92 83.89 182.97 84.19"/><path class="cls-11" d="M238.35,160l2.77-1.42a38.44,38.44,0,0,0-19.84-41.89"/><path class="cls-11" d="M253.63,195.81a33.35,33.35,0,0,0,4.93-18.12,32.16,32.16,0,0,0-1.94-10.09"/><path class="cls-4" d="M68.69,114.43c2.17-4.17,10.5-18.93,28-24.83,1.44-.48,26.12-8.42,39.25,4.91a24.12,24.12,0,0,1,4.81,7.11"/><path class="cls-11" d="M93.39,56.74S63,65.22,52.25,79.28s7.24,58.51,16.54,69.67c0,0,10.13-14.89,14.47-16.13,0,0-14.89-5.79-8.48-20.05,0,0,15.92-8.89,14.68,11.78,0,0,13.66-18.78,12.22-28.7,0,0,33,21.9,55-6.4,0,0,3.16-3-10.15-5s-31.79-23-31.79-23S106,52.4,93.39,56.74Z"/><path class="cls-4" d="M73.43,151.14,73,159.86s11,8.51,19.35,10.83c0,0,42.22,18.07,51.76,20.68L157,198.31l-11.4,10-5.06-1.74L90.94,180.67S68.53,169,69.68,166.79c0,0-8.15-7.48.15-13.59A20.11,20.11,0,0,1,73.43,151.14Z"/><path class="cls-4" d="M170.25,193.52s0,8.53-.59,10.93,14.19,6.42,14.19,6.42,9-14.72,10.69-14.32,17.95-21.38,17.95-21.38l4.36-13.07-18.21-11-19.8-27.7-4.22-1.06h-1.06s-21,17.06-23.22,50.38c0,0-1.16,6.89,12.62,9.62C162.95,182.38,171.79,187.73,170.25,193.52Z"/><path class="cls-11" d="M173.2,119.1c25.8-11.09,39.69-7.66,47.29-3l.46.29c7.7,4.93,16.82,15.79,18.94,42a20.24,20.24,0,0,1,7.79,1,13.49,13.49,0,0,1,7.32,5,12.64,12.64,0,0,1,1.4,2.82,4,4,0,0,1,.35,1.25s.1.45.16.84c.87,5.36-3.21,26.34-3.21,26.34h0l-9.32,10.92s-11.57,11.57-3.21,24.09c0,0-27.52-6.69-22-26.92,0,0,4.1-10.66,20.12-27.12,0,0,4.61-6.7,0-10s0-1.43,0-1.43.48,26-44.75,31.36l-.9-18.35s12.22,1,16.9-7.16c3-5.18-3.29-10-3.29-10a8.92,8.92,0,0,0-4.45-1c-4,.18-7.75,3.36-9.6,8.05a132.28,132.28,0,0,0-6.34-12.16c-2.67-4.53-2.91-4.32-5-7.79-3-5.14-8.67-14.91-8.73-27.14C173.16,120.18,173.18,119.49,173.2,119.1Z"/><path class="cls-12" d="M144.77,188.63s-.26,17.27-5.41,20.46l11,6s-5.7,5.31-4.7,12.75a106.69,106.69,0,0,0,3.11,14.47s0,3.33-.53,8.78-3.36,24.58-3.36,24.58l-3.77,40.47h58.86s-4.88-22.8-17.16-42.46c0,0-5.81-16.08-4-23.78s3-12.61,3-12.61,6.34-13.29,3.43-25.65c-2.18-9.27-23.35-14.2-34.2-18.61C147.47,191.54,145,190.13,144.77,188.63Z"/><polygon class="cls-5" points="126.38 255.05 145.67 266.01 150.33 253.65 124.07 236.95 126.38 255.05"/><path class="cls-4" d="M156.95,257.34s7.58,4,11.8.73S174,257,174,257l-3,4.67a14.06,14.06,0,0,0,6.19.81c3.35-.36,4.05,10.81,3.54,11.38s-12.59,1.86-16.08-.67-11-4.86-11-4.86l-3.3-7.71Z"/><path class="cls-13" d="M150,252.63a23.48,23.48,0,0,0,9.43,3.52s0,6.25-5.8,15.79c0,0-9.77-3.64-9-4.55C144.67,267.4,144.1,264.11,150,252.63Z"/></g></svg>