<svg id="Layer_1" data-name="Layer 1" xmlns="http://www.w3.org/2000/svg" viewBox="0 0 52.5 72"><defs><style>.cls-1{fill:#010101;}</style></defs><title>celery_icon</title><path class="cls-1" d="M60,15.52a0.29,0.29,0,0,0-.05-0.1,5.66,5.66,0,0,0-2.4-2.32,0.31,0.31,0,0,0-.37.08c-0.58.7-8.55,10.3-17.33,19.16,3.9-4.81,9.63-11.45,13.4-15.82,1.62-1.87,2.91-3.37,3.59-4.18a0.31,0.31,0,0,0,.07-0.21A3.05,3.05,0,0,0,55.67,10a2.57,2.57,0,0,0-2-.62,0.3,0.3,0,0,0-.14.07c-2.42,2.07-6.68,6.65-11.18,11.5-3.55,3.82-7.42,8-10.86,11.43,2.62-3,5.48-6.06,8.3-9.11,4.63-5,9-9.73,12.19-13.78a0.3,0.3,0,0,0,.06-0.24,3,3,0,0,0-1-1.57l0,0h0a4.24,4.24,0,0,0-.69-0.52,2.65,2.65,0,0,0-2.09-.4,0.3,0.3,0,0,0-.15.1c-3,3.7-8.28,8.7-13.9,14C20.05,34.2,2.34,50.86,9.48,58.89a5.42,5.42,0,0,0,4.23,1.85h0.22c12.16-.37,36-30.62,44.93-42l1.42-1.8a0.3,0.3,0,0,0,.07-0.2A3,3,0,0,0,60,15.52Zm-2.5-1.76a5.15,5.15,0,0,1,1.86,1.83C57.23,18.36,28.07,56,15.77,58.38a3,3,0,0,0-.14-0.3c-0.07-.12-0.15-0.23-0.23-0.34C25.17,52.87,35,42.24,35.11,42.13a0.3,0.3,0,0,0-.45-0.41c-0.1.11-10,10.76-19.65,15.53a5.9,5.9,0,0,0-1.16-.95,5.1,5.1,0,0,0-2.58-.84,2.33,2.33,0,0,0-.79.13c0.67-1.67,2.91-5.24,10.09-7.63h0l0.54-.17C31.76,44.47,55.16,16.59,57.51,13.75ZM10.24,56.48a1.16,1.16,0,0,1,1-.42,4.48,4.48,0,0,1,2.26.75,4.63,4.63,0,0,1,1.58,1.56,1.27,1.27,0,0,1,.15,1.26,1.16,1.16,0,0,1-1,.41A4.49,4.49,0,0,1,12,59.29a4.64,4.64,0,0,1-1.58-1.56A1.26,1.26,0,0,1,10.24,56.48Zm32.6-35.12C47.3,16.56,51.51,12,53.91,10a2.09,2.09,0,0,1,1.39.52,2.57,2.57,0,0,1,1,1.57c-0.7.83-2,2.28-3.5,4.08-4.87,5.64-13,15.08-16.27,19.48v0C30.72,41.21,24.93,46,21,47.2c1-2.81,3.52-6.39,6.74-10.34C31.92,33.12,37.72,26.87,42.84,21.36ZM51.46,9.23c-3.16,4-7.49,8.68-12.07,13.62C30.92,32,22.15,41.46,20.25,47.43a23.7,23.7,0,0,0-6.1,3C14.2,46.18,24,36.44,33.51,27,40.1,20.47,46.91,13.71,51,8.37A2.34,2.34,0,0,1,51.46,9.23ZM9.94,58.48c-6.75-7.59,10.72-24,24.76-37.23C40.29,16,45.58,11,48.59,7.29a2.19,2.19,0,0,1,1.51.37,3.57,3.57,0,0,1,.41.29C46.5,13.26,39.68,20,33.08,26.58,22.76,36.82,13,46.49,13.56,50.83a13.4,13.4,0,0,0-2.12,2C9.79,47.92,20,37.73,20.12,37.62a0.3,0.3,0,0,0-.43-0.43c-0.46.45-11,11-8.68,16.21a7,7,0,0,0-1.4,3.05,0.1,0.1,0,0,0,0,0A2,2,0,0,0,9.87,58a5,5,0,0,0,1.45,1.54A4.91,4.91,0,0,1,9.94,58.48ZM58.39,18.35c-7.65,9.72-30.14,38.3-42.56,41.49A1.45,1.45,0,0,0,15.95,59c12.41-2.46,40.21-38.2,43.7-42.75a2.16,2.16,0,0,1,.08.42Z" transform="translate(-7.85 -6.65)"/><path class="cls-1" d="M19.84,75.48v0a2.8,2.8,0,0,1-.92,2.32,3.71,3.71,0,0,1-2.49.8,3.18,3.18,0,0,1-2.6-1.2,4.81,4.81,0,0,1-1-3.14V72.83a4.82,4.82,0,0,1,1-3.14,3.18,3.18,0,0,1,2.6-1.2,3.7,3.7,0,0,1,2.49.81,2.79,2.79,0,0,1,.92,2.3v0H19.53a2.59,2.59,0,0,0-.83-2.06,3.3,3.3,0,0,0-2.25-.73A2.84,2.84,0,0,0,14.12,70a4.42,4.42,0,0,0-.88,2.87v1.49a4.44,4.44,0,0,0,.88,2.88,2.84,2.84,0,0,0,2.32,1.09,3.39,3.39,0,0,0,2.25-.7,2.59,2.59,0,0,0,.83-2.1h0.31Z" transform="translate(-7.85 -6.65)"/><path class="cls-1" d="M26.25,73.55H21.5v4.59h5.44v0.37h-5.8V68.64h5.8V69H21.5v4.17h4.74v0.37Z" transform="translate(-7.85 -6.65)"/><path class="cls-1" d="M28.05,78.14h5.33v0.37H27.68V68.64h0.37v9.5Z" transform="translate(-7.85 -6.65)"/><path class="cls-1" d="M39.34,73.55H34.59v4.59H40v0.37h-5.8V68.64H40V69H34.59v4.17h4.74v0.37Z" transform="translate(-7.85 -6.65)"/><path class="cls-1" d="M41.1,73.88v4.64H40.74V68.64h3.21a3.75,3.75,0,0,1,2.4.67,2.38,2.38,0,0,1,.84,2,2.4,2.4,0,0,1-.53,1.51,2.45,2.45,0,0,1-1.45.88,2.34,2.34,0,0,1,1.53.78A2.42,2.42,0,0,1,47.19,76v0.93a2.82,2.82,0,0,0,.11.83,1.28,1.28,0,0,0,.37.6v0.17H47.31a1.81,1.81,0,0,1-.37-0.69,3.2,3.2,0,0,1-.12-0.92V76a1.91,1.91,0,0,0-.69-1.57,3,3,0,0,0-2-.56H41.1Zm0-.37h2.78a3.28,3.28,0,0,0,2.23-.64,2.23,2.23,0,0,0,0-3.28A3.36,3.36,0,0,0,43.95,69H41.1v4.5Z" transform="translate(-7.85 -6.65)"/><path class="cls-1" d="M51.17,74.12l0.18,0.34,0.18-.34,3.27-5.48h0.45l-3.71,6.12v3.75H51.17V74.76l-3.71-6.12h0.45Z" transform="translate(-7.85 -6.65)"/></svg>