<svg id="Layer_1" data-name="Layer 1" xmlns="http://www.w3.org/2000/svg" viewBox="0 0 70.45 72"><defs><style>.cls-1{fill:#010101;}</style></defs><title>chocolate_icon</title><path class="cls-1" d="M15.45,74.48v0a3,3,0,0,1-1,2.44,3.9,3.9,0,0,1-2.62.84,3.34,3.34,0,0,1-2.73-1.26,5.06,5.06,0,0,1-1-3.3V71.7a5.07,5.07,0,0,1,1-3.3,3.34,3.34,0,0,1,2.73-1.26A3.89,3.89,0,0,1,14.5,68a2.93,2.93,0,0,1,1,2.42v0H15.12a2.72,2.72,0,0,0-.87-2.17,3.47,3.47,0,0,0-2.37-.76,3,3,0,0,0-2.44,1.15,4.65,4.65,0,0,0-.93,3v1.57a4.67,4.67,0,0,0,.93,3,3,3,0,0,0,2.44,1.14,3.57,3.57,0,0,0,2.37-.73,2.72,2.72,0,0,0,.87-2.21h0.33Z" transform="translate(-8.12 -5.81)"/><path class="cls-1" d="M24.2,77.66H23.82v-5H17.19v5H16.81V67.29h0.38v5h6.63v-5H24.2V77.66Z" transform="translate(-8.12 -5.81)"/><path class="cls-1" d="M33.23,73.25a5,5,0,0,1-1,3.33,3.55,3.55,0,0,1-2.86,1.23,3.57,3.57,0,0,1-2.87-1.23,5,5,0,0,1-1-3.33V71.7a5,5,0,0,1,1-3.33,3.55,3.55,0,0,1,2.87-1.23,3.57,3.57,0,0,1,2.87,1.23,5,5,0,0,1,1,3.33v1.55Zm-0.38-1.57a4.65,4.65,0,0,0-.92-3,3.18,3.18,0,0,0-2.61-1.13,3.15,3.15,0,0,0-2.6,1.13,4.68,4.68,0,0,0-.91,3v1.57a4.7,4.7,0,0,0,.92,3,3.17,3.17,0,0,0,2.61,1.12,3.17,3.17,0,0,0,2.61-1.12,4.7,4.7,0,0,0,.91-3.05V71.68Z" transform="translate(-8.12 -5.81)"/><path class="cls-1" d="M41.36,74.48v0a3,3,0,0,1-1,2.44,3.9,3.9,0,0,1-2.62.84,3.34,3.34,0,0,1-2.73-1.26,5.06,5.06,0,0,1-1-3.3V71.7a5.07,5.07,0,0,1,1-3.3,3.34,3.34,0,0,1,2.73-1.26,3.89,3.89,0,0,1,2.62.85,2.93,2.93,0,0,1,1,2.42v0H41a2.72,2.72,0,0,0-.87-2.17,3.47,3.47,0,0,0-2.37-.76,3,3,0,0,0-2.44,1.15,4.65,4.65,0,0,0-.93,3v1.57a4.67,4.67,0,0,0,.93,3,3,3,0,0,0,2.44,1.14,3.57,3.57,0,0,0,2.37-.73A2.72,2.72,0,0,0,41,74.48h0.33Z" transform="translate(-8.12 -5.81)"/><path class="cls-1" d="M50.07,73.25a5,5,0,0,1-1,3.33,4,4,0,0,1-5.74,0,5,5,0,0,1-1-3.33V71.7a5,5,0,0,1,1-3.33,4,4,0,0,1,5.74,0,5,5,0,0,1,1,3.33v1.55Zm-0.38-1.57a4.65,4.65,0,0,0-.92-3,3.58,3.58,0,0,0-5.21,0,4.68,4.68,0,0,0-.91,3v1.57a4.7,4.7,0,0,0,.92,3,3.59,3.59,0,0,0,5.22,0,4.7,4.7,0,0,0,.91-3.05V71.68Z" transform="translate(-8.12 -5.81)"/><path class="cls-1" d="M51.67,77.28h5.61v0.38h-6V67.29h0.39v10Z" transform="translate(-8.12 -5.81)"/><path class="cls-1" d="M63.76,74.56H58.69l-1.16,3.1H57.11L61,67.29h0.47l3.88,10.37H64.92Zm-4.92-.38h4.78l-2.17-5.81-0.2-.6h0l-0.19.6Z" transform="translate(-8.12 -5.81)"/><path class="cls-1" d="M71.81,67.67H68.18v10H67.79v-10H63.9V67.29h7.91v0.38Z" transform="translate(-8.12 -5.81)"/><path class="cls-1" d="M77.85,72.45h-5v4.83h5.71v0.38h-6.1V67.29h6.1v0.38H72.86v4.39h5v0.38Z" transform="translate(-8.12 -5.81)"/><path class="cls-1" d="M30.58,15.9a0.32,0.32,0,0,0,0,.05l0,0,0,0.05h0l0,0,0,0,0.12,0h7.18l0.12,0,0,0,0,0h0l0-.05,0,0a0.39,0.39,0,0,0,0-.05,0.31,0.31,0,0,0,0-.07h0V7.36h0a0.31,0.31,0,0,0,0-.07,0.34,0.34,0,0,0,0-.05l0,0,0-.06h0l0,0-0.06,0H30.77l-0.06,0,0,0h0l0,0.06,0,0a0.28,0.28,0,0,0,0,.05,0.31,0.31,0,0,0,0,.07h0v8.46h0A0.31,0.31,0,0,0,30.58,15.9Zm1.37-.84h5l0.38,0.44H31.57Zm0.17-.64V8.77h4.69v5.65H32.12Zm5.33,0.2V8.56l0.28-.33v6.71ZM37,8.13h-5l-0.38-.44h5.79Zm-5.51.44v6.05l-0.28.33V8.23Z" transform="translate(-8.12 -5.81)"/><path class="cls-1" d="M30.58,25.93a0.32,0.32,0,0,0,0,.05l0,0,0,0.05h0l0,0,0,0,0.12,0h7.18l0.12,0,0,0,0,0h0l0-.05,0,0a0.28,0.28,0,0,0,0-.05,0.31,0.31,0,0,0,0-.07h0V17.4h0a0.31,0.31,0,0,0,0-.07,0.34,0.34,0,0,0,0-.05l0,0,0-.05h0l0,0-0.06,0H30.77l-0.06,0,0,0h0l0,0.05,0,0a0.28,0.28,0,0,0,0,.05,0.31,0.31,0,0,0,0,.07h0v8.46h0A0.31,0.31,0,0,0,30.58,25.93Zm1.37-.84h5l0.38,0.44H31.57Zm0.17-.64V18.8h4.69v5.65H32.12Zm5.33,0.2V18.6l0.28-.33V25ZM37,18.16h-5l-0.38-.44h5.79Zm-5.51.44v6.05L31.2,25V18.27Z" transform="translate(-8.12 -5.81)"/><path class="cls-1" d="M30.58,36a0.32,0.32,0,0,0,0,.05l0,0,0,0.06h0l0,0,0,0,0.12,0h7.18l0.12,0,0,0,0,0h0l0-.06,0,0a0.39,0.39,0,0,0,0-.05,0.31,0.31,0,0,0,0-.07h0V27.44h0a0.31,0.31,0,0,0,0-.07,0.34,0.34,0,0,0,0-.05l0,0,0-.05h0l0,0-0.06,0H30.77l-0.06,0,0,0h0l0,0.05,0,0a0.28,0.28,0,0,0,0,.05,0.31,0.31,0,0,0,0,.07h0v8.46h0A0.31,0.31,0,0,0,30.58,36Zm1.37-.84h5l0.38,0.44H31.57Zm0.17-.64V28.84h4.69v5.65H32.12Zm5.33,0.2V28.64l0.28-.33V35ZM37,28.2h-5l-0.38-.44h5.79Zm-5.51.44v6.05L31.2,35V28.31Z" transform="translate(-8.12 -5.81)"/><path class="cls-1" d="M30.58,46a0.28,0.28,0,0,0,0,.05l0,0,0,0.06h0l0,0,0,0,0.12,0h7.18l0.12,0,0,0,0,0h0l0-.06,0,0a0.34,0.34,0,0,0,0-.05,0.31,0.31,0,0,0,0-.07h0V37.47h0a0.31,0.31,0,0,0,0-.07,0.34,0.34,0,0,0,0-.05l0,0,0-.05h0l0,0-0.06,0H30.77l-0.06,0,0,0h0l0,0.05,0,0a0.28,0.28,0,0,0,0,.05,0.31,0.31,0,0,0,0,.07h0v8.46h0A0.31,0.31,0,0,0,30.58,46Zm1.37-.84h5l0.38,0.44H31.57Zm0.17-.64V38.88h4.69v5.65H32.12Zm5.33,0.2V38.67l0.28-.33v6.71ZM37,38.24h-5l-0.38-.44h5.79Zm-5.51.44v6.05l-0.28.33V38.34Z" transform="translate(-8.12 -5.81)"/><path class="cls-1" d="M30.58,56a0.28,0.28,0,0,0,0,.05l0,0,0,0.06h0l0,0,0,0,0.12,0h7.18l0.12,0,0,0,0,0h0l0-.06,0,0a0.34,0.34,0,0,0,0-.05,0.31,0.31,0,0,0,0-.07h0V47.51h0a0.31,0.31,0,0,0,0-.07,0.27,0.27,0,0,0,0-.05l0,0,0-.05h0l0,0-0.06,0H30.77l-0.06,0,0,0h0l0,0.05,0,0a0.31,0.31,0,0,0,0,.05,0.31,0.31,0,0,0,0,.07h0V56h0A0.31,0.31,0,0,0,30.58,56Zm1.37-.84h5l0.38,0.44H31.57Zm0.17-.64V48.91h4.69v5.65H32.12Zm5.33,0.2V48.71l0.28-.33v6.71ZM37,48.27h-5l-0.38-.44h5.79Zm-5.51.44v6.05l-0.28.33V48.38Z" transform="translate(-8.12 -5.81)"/><path class="cls-1" d="M39.45,15.9l0,0.05,0,0,0,0.05h0l0,0,0,0,0.12,0h7.18l0.12,0,0,0,0,0h0l0-.05,0,0,0-.05a0.32,0.32,0,0,0,0-.07h0V7.36h0a0.31,0.31,0,0,0,0-.07,0.34,0.34,0,0,0,0-.05l0,0,0-.06h0l0,0L47,7.06H39.64l-0.06,0,0,0h0l0,0.06,0,0a0.34,0.34,0,0,0,0,.05,0.35,0.35,0,0,0,0,.07h0v8.46h0A0.36,0.36,0,0,0,39.45,15.9Zm1.37-.84h5l0.38,0.44H40.44ZM41,14.41V8.77h4.69v5.65H41Zm5.33,0.2V8.56l0.28-.33v6.71ZM45.86,8.13h-5l-0.38-.44h5.79Zm-5.51.44v6.05l-0.28.33V8.23Z" transform="translate(-8.12 -5.81)"/><path class="cls-1" d="M39.45,25.93l0,0.05,0,0,0,0.05h0l0,0,0,0,0.12,0h7.18l0.12,0,0,0,0,0h0l0-.05,0,0a0.28,0.28,0,0,0,0-.05,0.32,0.32,0,0,0,0-.07h0V17.4h0a0.31,0.31,0,0,0,0-.07,0.34,0.34,0,0,0,0-.05l0,0,0-.05h0l0,0L47,17.1H39.64l-0.06,0,0,0h0l0,0.06,0,0a0.29,0.29,0,0,0,0,.05,0.35,0.35,0,0,0,0,.07h0v8.46h0A0.36,0.36,0,0,0,39.45,25.93Zm1.37-.84h5l0.38,0.44H40.44ZM41,24.45V18.8h4.69v5.65H41Zm5.33,0.2V18.6l0.28-.33V25Zm-0.47-6.49h-5l-0.38-.44h5.79Zm-5.51.44v6.05L40.07,25V18.27Z" transform="translate(-8.12 -5.81)"/><path class="cls-1" d="M39.45,36l0,0.05,0,0,0,0.06h0l0,0,0,0,0.12,0h7.18l0.12,0,0,0,0,0h0l0-.06,0,0,0-.05a0.32,0.32,0,0,0,0-.07h0V27.44h0a0.31,0.31,0,0,0,0-.07,0.34,0.34,0,0,0,0-.05l0,0,0-.05h0l0,0-0.06,0H39.64l-0.06,0,0,0h0l0,0.06,0,0a0.29,0.29,0,0,0,0,.05,0.35,0.35,0,0,0,0,.07h0v8.46h0A0.36,0.36,0,0,0,39.45,36Zm1.37-.84h5l0.38,0.44H40.44ZM41,34.49V28.84h4.69v5.65H41Zm5.33,0.2V28.64l0.28-.33V35ZM45.86,28.2h-5l-0.38-.44h5.79Zm-5.51.44v6.05L40.07,35V28.31Z" transform="translate(-8.12 -5.81)"/><path class="cls-1" d="M39.45,46a0.34,0.34,0,0,0,0,.05l0,0,0,0.06h0l0,0,0,0,0.12,0h7.18l0.12,0,0,0,0,0h0l0-.06,0,0a0.34,0.34,0,0,0,0-.05,0.31,0.31,0,0,0,0-.07h0V37.47h0a0.31,0.31,0,0,0,0-.07,0.34,0.34,0,0,0,0-.05l0,0,0-.05h0l0,0-0.06,0H39.64l-0.06,0,0,0h0l0,0.06,0,0a0.29,0.29,0,0,0,0,.05,0.35,0.35,0,0,0,0,.07h0v8.46h0A0.35,0.35,0,0,0,39.45,46Zm1.37-.84h5l0.38,0.44H40.44ZM41,44.52V38.88h4.69v5.65H41Zm5.33,0.2V38.67l0.28-.33v6.71Zm-0.47-6.49h-5l-0.38-.44h5.79Zm-5.51.44v6.05l-0.28.33V38.34Z" transform="translate(-8.12 -5.81)"/><path class="cls-1" d="M39.45,56a0.29,0.29,0,0,0,0,.05l0,0,0,0.06h0l0,0,0,0,0.12,0h7.18l0.12,0,0,0,0,0h0l0-.06,0,0a0.34,0.34,0,0,0,0-.05,0.31,0.31,0,0,0,0-.07h0V47.51h0a0.31,0.31,0,0,0,0-.07,0.27,0.27,0,0,0,0-.05l0,0,0-.05h0l0,0-0.06,0H39.64l-0.06,0,0,0h0l0,0.05,0,0a0.34,0.34,0,0,0,0,.05,0.35,0.35,0,0,0,0,.07h0V56h0A0.35,0.35,0,0,0,39.45,56Zm1.37-.84h5l0.38,0.44H40.44ZM41,54.56V48.91h4.69v5.65H41Zm5.33,0.2V48.71l0.28-.33v6.71Zm-0.47-6.49h-5l-0.38-.44h5.79Zm-5.51.44v6.05l-0.28.33V48.38Z" transform="translate(-8.12 -5.81)"/><path class="cls-1" d="M48.32,15.9a0.39,0.39,0,0,0,0,.05l0,0,0,0.05h0l0,0,0,0,0.12,0h7.18l0.12,0,0,0,0,0h0l0-.05,0,0a0.39,0.39,0,0,0,0-.05,0.31,0.31,0,0,0,0-.07h0V7.36h0a0.31,0.31,0,0,0,0-.07,0.34,0.34,0,0,0,0-.05l0,0,0-.06h0l0,0-0.06,0H48.51l-0.06,0,0,0h0l0,0.06,0,0a0.34,0.34,0,0,0,0,.05,0.35,0.35,0,0,0,0,.07h0v8.46h0A0.36,0.36,0,0,0,48.32,15.9Zm1.37-.84h5L55.1,15.5H49.31Zm0.17-.64V8.77h4.69v5.65H49.86Zm5.33,0.2V8.56l0.28-.33v6.71ZM54.73,8.13h-5l-0.38-.44H55.1Zm-5.51.44v6.05l-0.28.33V8.23Z" transform="translate(-8.12 -5.81)"/><path class="cls-1" d="M48.32,25.93a0.39,0.39,0,0,0,0,.05l0,0,0,0.05h0l0,0,0,0,0.12,0h7.18l0.12,0,0,0,0,0h0l0-.05,0,0a0.39,0.39,0,0,0,0-.05,0.31,0.31,0,0,0,0-.07h0V17.4h0a0.3,0.3,0,0,0,0-.07,0.34,0.34,0,0,0,0-.05l0,0,0-.06h0l0,0-0.06,0H48.51l-0.06,0,0,0h0l0,0.06,0,0a0.28,0.28,0,0,0,0,.05,0.35,0.35,0,0,0,0,.07h0v8.46h0A0.36,0.36,0,0,0,48.32,25.93Zm1.37-.84h5l0.38,0.44H49.31Zm0.17-.64V18.8h4.69v5.65H49.86Zm5.33,0.2V18.6l0.28-.33V25Zm-0.47-6.49h-5l-0.38-.44H55.1Zm-5.51.44v6.05L48.94,25V18.27Z" transform="translate(-8.12 -5.81)"/><path class="cls-1" d="M48.32,36a0.39,0.39,0,0,0,0,.05l0,0,0,0.06h0l0,0,0,0,0.12,0h7.18l0.12,0,0,0,0,0h0l0-.06,0,0a0.39,0.39,0,0,0,0-.05,0.31,0.31,0,0,0,0-.07h0V27.44h0a0.3,0.3,0,0,0,0-.07,0.34,0.34,0,0,0,0-.05l0,0,0-.06h0l0,0-0.06,0H48.51l-0.06,0,0,0h0l0,0.06,0,0a0.28,0.28,0,0,0,0,.05,0.35,0.35,0,0,0,0,.07h0v8.46h0A0.36,0.36,0,0,0,48.32,36Zm1.37-.84h5l0.38,0.44H49.31Zm0.17-.64V28.84h4.69v5.65H49.86Zm5.33,0.2V28.64l0.28-.33V35ZM54.73,28.2h-5l-0.38-.44H55.1Zm-5.51.44v6.05L48.94,35V28.31Z" transform="translate(-8.12 -5.81)"/><path class="cls-1" d="M48.32,46a0.34,0.34,0,0,0,0,.05l0,0,0,0.06h0l0,0,0,0,0.12,0h7.18l0.12,0,0,0,0,0h0l0-.06,0,0a0.34,0.34,0,0,0,0-.05,0.31,0.31,0,0,0,0-.07h0V37.47h0a0.31,0.31,0,0,0,0-.07,0.34,0.34,0,0,0,0-.05l0,0,0-.06h0l0,0-0.06,0H48.51l-0.06,0,0,0h0l0,0.06,0,0a0.28,0.28,0,0,0,0,.05,0.35,0.35,0,0,0,0,.07h0v8.46h0A0.35,0.35,0,0,0,48.32,46Zm1.37-.84h5l0.38,0.44H49.31Zm0.17-.64V38.88h4.69v5.65H49.86Zm5.33,0.2V38.67l0.28-.33v6.71Zm-0.47-6.49h-5l-0.38-.44H55.1Zm-5.51.44v6.05l-0.28.33V38.34Z" transform="translate(-8.12 -5.81)"/><path class="cls-1" d="M48.32,56a0.28,0.28,0,0,0,0,.05l0,0,0,0.06h0l0,0,0,0,0.12,0h7.18l0.12,0,0,0,0,0h0l0-.06,0,0a0.34,0.34,0,0,0,0-.05,0.31,0.31,0,0,0,0-.07h0V47.51h0a0.3,0.3,0,0,0,0-.07,0.34,0.34,0,0,0,0-.05l0,0,0-.05h0l0,0-0.06,0H48.51l-0.06,0,0,0h0l0,0.05,0,0a0.34,0.34,0,0,0,0,.05,0.35,0.35,0,0,0,0,.07h0V56h0A0.35,0.35,0,0,0,48.32,56Zm1.37-.84h5l0.38,0.44H49.31Zm0.17-.64V48.91h4.69v5.65H49.86Zm5.33,0.2V48.71l0.28-.33v6.71Zm-0.47-6.49h-5l-0.38-.44H55.1Zm-5.51.44v6.05l-0.28.33V48.38Z" transform="translate(-8.12 -5.81)"/><path class="cls-1" d="M57,5.81H29.69a0.32,0.32,0,0,0-.32.32V57.26a0.32,0.32,0,0,0,.32.32H57a0.32,0.32,0,0,0,.32-0.32V6.13A0.32,0.32,0,0,0,57,5.81ZM56.68,56.94H30V6.45H56.68V56.94Z" transform="translate(-8.12 -5.81)"/></svg>