<svg id="Layer_1" data-name="Layer 1" xmlns="http://www.w3.org/2000/svg" viewBox="0 0 45.88 72"><defs><style>.cls-1{fill:#010101;}</style></defs><title>corn_icon</title><path class="cls-1" d="M18.76,77.58v0a2.69,2.69,0,0,1-.88,2.23,3.56,3.56,0,0,1-2.39.77A3.05,3.05,0,0,1,13,79.47a4.62,4.62,0,0,1-.94-3V75A4.62,4.62,0,0,1,13,72a3.05,3.05,0,0,1,2.49-1.15,3.55,3.55,0,0,1,2.39.77,2.68,2.68,0,0,1,.88,2.21v0h-0.3a2.48,2.48,0,0,0-.8-2,3.17,3.17,0,0,0-2.16-.7,2.72,2.72,0,0,0-2.23,1A4.24,4.24,0,0,0,12.43,75v1.43a4.26,4.26,0,0,0,.84,2.77,2.73,2.73,0,0,0,2.23,1,3.26,3.26,0,0,0,2.16-.67,2.48,2.48,0,0,0,.8-2h0.3Z" transform="translate(-4.31 -8.62)"/><path class="cls-1" d="M26.71,76.46a4.55,4.55,0,0,1-.95,3,3.24,3.24,0,0,1-2.61,1.12,3.26,3.26,0,0,1-2.62-1.12,4.54,4.54,0,0,1-1-3V75a4.57,4.57,0,0,1,.95-3,3.23,3.23,0,0,1,2.62-1.12A3.26,3.26,0,0,1,25.75,72a4.54,4.54,0,0,1,1,3v1.42ZM26.36,75a4.25,4.25,0,0,0-.84-2.77,2.9,2.9,0,0,0-2.39-1,2.88,2.88,0,0,0-2.37,1A4.27,4.27,0,0,0,19.93,75v1.43a4.28,4.28,0,0,0,.84,2.78,2.9,2.9,0,0,0,2.38,1,2.89,2.89,0,0,0,2.38-1,4.29,4.29,0,0,0,.83-2.78V75Z" transform="translate(-4.31 -8.62)"/><path class="cls-1" d="M28.13,76v4.45H27.77V71h3.08a3.6,3.6,0,0,1,2.3.65A2.28,2.28,0,0,1,34,73.56,2.3,2.3,0,0,1,33.45,75a2.35,2.35,0,0,1-1.39.85,2.24,2.24,0,0,1,1.46.75A2.32,2.32,0,0,1,34,78.07V79a2.72,2.72,0,0,0,.11.79,1.23,1.23,0,0,0,.35.57v0.16H34.08a1.74,1.74,0,0,1-.35-0.66,3.09,3.09,0,0,1-.12-0.88V78.08a1.83,1.83,0,0,0-.66-1.5A2.9,2.9,0,0,0,31.07,76H28.13Zm0-.35h2.66a3.15,3.15,0,0,0,2.14-.61,2.14,2.14,0,0,0,0-3.14,3.22,3.22,0,0,0-2.06-.56H28.13v4.31Z" transform="translate(-4.31 -8.62)"/><path class="cls-1" d="M42.43,80.48H42.07L36,71.67h0v8.8H35.61V71H36L42,79.81h0V71h0.35v9.46Z" transform="translate(-4.31 -8.62)"/><path class="cls-1" d="M50.12,37.94a0.29,0.29,0,0,0-.32-0.08c-3.09,1.16-6.21.29-8.08-.24l-0.51-.14h0a5.78,5.78,0,0,0-1.43-.2,3.59,3.59,0,0,0-2.71,1.13c0.69-8.7,1.27-17.05-.9-29.55a0.29,0.29,0,0,0-.25-0.24,0.3,0.3,0,0,0-.3.18,35.66,35.66,0,0,0-2.77,9.08,0.6,0.6,0,0,0-.55,0L32,18A0.94,0.94,0,0,0,31.58,19l0.11,0.46a0.76,0.76,0,0,0,.71.64,0.65,0.65,0,0,0,.22,0L32.9,20a0.91,0.91,0,0,0,.48-1.07l0-.12c0-.25.05-3,2.41-8.85,2,12.22,1.36,20.45.67,29.15v0.16A10,10,0,0,0,35.34,42a0.88,0.88,0,0,0-.84-0.67H34.1a0.87,0.87,0,0,0-.87.87V42.7a0.88,0.88,0,0,0,.87.88h0.39A0.87,0.87,0,0,0,35,43.38L35,43.85a0.85,0.85,0,0,0-.48-0.16H34.09a0.87,0.87,0,0,0-.88.87v0.51a0.88,0.88,0,0,0,.87.87h0.39a0.84,0.84,0,0,0,.2,0l0,0.17-0.18,0H34.09a0.88,0.88,0,0,0-.87.88v0.51a0.88,0.88,0,0,0,.88.87h0.36v0.11H34.11a0.87,0.87,0,0,0-.87.88v0.51a0.88,0.88,0,0,0,.88.87h0.16V50.8H34.12a0.87,0.87,0,0,0-.87.88v0.51a0.88,0.88,0,0,0,.83.87v0.12a0.87,0.87,0,0,0-.82.87v0.51a0.87,0.87,0,0,0,.59.82l0,0.26a0.87,0.87,0,0,0-.48.77V56.9a0.85,0.85,0,0,0,.21.55c-0.09.52-.2,1-0.32,1.49V58.75A0.9,0.9,0,0,0,33,58.11a0.82,0.82,0,0,0-.58-0.25H31.61a0.86,0.86,0,0,0-.84.85v0.5a0.86,0.86,0,0,0,.82.88l0.75,0h0a0.81,0.81,0,0,0,.58-0.25c-0.05.17-.1,0.33-0.16,0.49a0.78,0.78,0,0,0-.4-0.14l-0.76,0a0.84,0.84,0,0,0-.83.83l0,0.49a0.86,0.86,0,0,0,.79.9h0.18l0,0.06H28.12l-0.19-.27,0,0a0.86,0.86,0,0,0,.23-0.62l0-.5a0.88,0.88,0,0,0-.91-0.83H27l0-.1h0.26a0.87,0.87,0,0,0,.84-0.9l0-.5a0.88,0.88,0,0,0-.91-0.83h0l-0.75,0,0-.1,0.79,0a0.87,0.87,0,0,0,.84-0.9l0-.5a0.87,0.87,0,0,0-.9-0.83h0l-0.8,0a0.86,0.86,0,0,0-.26.05l0-.21a0.86,0.86,0,0,0,.3.06h0l0.8,0a0.88,0.88,0,0,0,.61-0.27A0.86,0.86,0,0,0,28,54.56l0-.5a0.87,0.87,0,0,0-.9-0.84h0l-0.8,0a0.88,0.88,0,0,0-.49.17l0-.44a0.87,0.87,0,0,0,.52.17h0l0.8,0a0.88,0.88,0,0,0,.61-0.27,0.86,0.86,0,0,0,.24-0.62l0-.5a0.87,0.87,0,0,0-.9-0.84h0l-0.8,0a0.87,0.87,0,0,0-.62.28l0,0-0.08-.8a0.88,0.88,0,0,0,.71.37h0l0.8,0a0.87,0.87,0,0,0,.86-0.88v-0.5A0.88,0.88,0,0,0,27,48.56h-0.8a0.87,0.87,0,0,0-.62.27,0.85,0.85,0,0,0-.2.35c-0.06-.53-0.12-1.07-0.19-1.59a0.77,0.77,0,0,0,0-.1V47A0.87,0.87,0,0,0,25,46.54c0-.26-0.08-0.52-0.12-0.78a0.86,0.86,0,0,0,.26-0.61v-0.5a0.88,0.88,0,0,0-.65-0.84l0-.16a0.88,0.88,0,0,0,.75-0.85v-0.5a0.88,0.88,0,0,0-.86-0.89H23.95a0.83,0.83,0,0,0-.2,0l-0.09-.21a0.85,0.85,0,0,0,.31.07h0.41a0.88,0.88,0,0,0,.87-0.86V39.94A0.88,0.88,0,0,0,24.4,39H24a0.88,0.88,0,0,0-.87.86v0.23l-0.19-.32c-0.21-2.51-.62-4.89-1-7.19-1-5.7-1.92-11.11-.1-18.62,0.38,6,1.07,7.37,1.79,8.8A10.51,10.51,0,0,1,24.5,25a0.9,0.9,0,0,0-.33.57l-0.07.51a0.87,0.87,0,0,0,.68,1l0.35,0.06h0.12a0.83,0.83,0,0,0,.81-0.74l0.07-.49a0.87,0.87,0,0,0-.66-1l-0.34-.07H25.06l0-.14,0.1,0,0.31,0.07,0.15,0a0.8,0.8,0,0,0,.76-0.71l0.08-.49a0.88,0.88,0,0,0-.58-1l-0.31-.08a0.79,0.79,0,0,0-.94.69l0,0.2c-0.15-.34-0.29-0.63-0.44-0.92-0.73-1.43-1.48-2.92-1.83-10.4A0.29,0.29,0,0,0,22,11.85a0.29,0.29,0,0,0-.31.21c-2.48,8.59-1.42,14.73-.39,20.66,0.35,2,.69,4.06.91,6.2A5.63,5.63,0,0,0,17.81,37a10.92,10.92,0,0,0-2.84.42h0a13.07,13.07,0,0,0-2.33,1.13c-2.35,1.3-5.57,3.08-7.94,2.19a0.29,0.29,0,0,0-.36.42c0.82,1.49,2.38,1.94,4.2,1.94a27.66,27.66,0,0,0,4.88-.63A21.61,21.61,0,0,1,18,41.94a22.07,22.07,0,0,1,3.23,7.14,36.34,36.34,0,0,1,.62,5c0.32,4.19.65,8.15,4.31,8.85a2.42,2.42,0,0,1,.08.56v1.92a1,1,0,0,0,1,1h5.15a1,1,0,0,0,1-1V63.53a1.65,1.65,0,0,1,.16-0.62v0c4.16-1,4.66-6.06,5.14-11,0.07-.72.14-1.45,0.23-2.16a67.27,67.27,0,0,1,1.65-8.59l0.13,0a27.75,27.75,0,0,0,3.42.28c2.38,0,4.7-.61,6.13-3.19A0.29,0.29,0,0,0,50.12,37.94ZM32.7,19.45l-0.28.1c-0.06,0-.13,0-0.16-0.18l-0.11-.47a0.37,0.37,0,0,1,.12-0.39l0.29-.14a0.23,0.23,0,0,1,.13.18l0.12,0.5A0.37,0.37,0,0,1,32.7,19.45Zm2.09,23.26a0.29,0.29,0,0,1-.29.29H34.1a0.29,0.29,0,0,1-.29-0.3V42.2a0.29,0.29,0,0,1,.29-0.29H34.5a0.3,0.3,0,0,1,.29.3v0.5Zm-0.3,2.65H34.09a0.29,0.29,0,0,1-.29-0.29V44.57a0.28,0.28,0,0,1,.08-0.2,0.29,0.29,0,0,1,.21-0.09h0.39a0.29,0.29,0,0,1,.29.29v0.51A0.29,0.29,0,0,1,34.48,45.37ZM32.61,59.24a0.27,0.27,0,0,1-.25.28h0l-0.75,0a0.27,0.27,0,0,1-.25-0.29v-0.5a0.27,0.27,0,0,1,.26-0.28h0.75a0.23,0.23,0,0,1,.17.07,0.31,0.31,0,0,1,.08.22v0.5Zm-6.54-5.31a0.29,0.29,0,0,1,.21-0.09l0.81,0a0.28,0.28,0,0,1,.29.27l0,0.5a0.28,0.28,0,0,1-.08.2,0.3,0.3,0,0,1-.2.09l-0.8,0h0A0.29,0.29,0,0,1,26,54.63l0-.5A0.28,0.28,0,0,1,26.07,53.93ZM26,49.25a0.29,0.29,0,0,1,.21-0.09H27a0.29,0.29,0,0,1,.29.28v0.5a0.29,0.29,0,0,1-.29.29l-0.8,0h0a0.29,0.29,0,0,1-.29-0.28v-0.5A0.28,0.28,0,0,1,26,49.25ZM23.7,39.91a0.29,0.29,0,0,1,.3-0.29h0.39a0.29,0.29,0,0,1,.29.3v0.51a0.29,0.29,0,0,1-.29.29H24a0.29,0.29,0,0,1-.29-0.3V39.91Zm1.38-16.07,0.08-.5a0.23,0.23,0,0,1,.2-0.22h0l0.31,0.08a0.31,0.31,0,0,1,.16.36l-0.08.49a0.23,0.23,0,0,1-.18.22l-0.34-.07A0.31,0.31,0,0,1,25.09,23.84Zm0.46,2-0.07.5a0.25,0.25,0,0,1-.23.24l-0.38-.06a0.29,0.29,0,0,1-.2-0.34l0.07-.5A0.26,0.26,0,0,1,25,25.46h0l0.34,0.07A0.29,0.29,0,0,1,25.55,25.86Zm8.94,21.87H34.1a0.29,0.29,0,0,1-.29-0.29V46.94a0.29,0.29,0,0,1,.29-0.29h0.39l0.12,0q-0.05.52-.1,1.06h0ZM34.11,50.1h0a0.29,0.29,0,0,1-.29-0.29V49.31A0.29,0.29,0,0,1,34.11,49H34.4L34.32,50.1h-0.2Zm0,2.37a0.29,0.29,0,0,1-.29-0.29V51.67a0.29,0.29,0,0,1,.29-0.29h0.1q0,0.55-.09,1.09h0Zm-0.29,2.07V54A0.29,0.29,0,0,1,34,53.77c0,0.32-.07.65-0.1,1A0.28,0.28,0,0,1,33.83,54.54Zm-2.24,7.29a0.27,0.27,0,0,1-.24-0.29l0-.49a0.27,0.27,0,0,1,.25-0.27l0.73,0a0.21,0.21,0,0,1,.15.07,0.29,0.29,0,0,1,0,.07,9,9,0,0,1-.45.92Zm-4.29-1a0.29,0.29,0,0,1,.29.27l0,0.5a0.31,0.31,0,0,1,0,.07c-0.14-.26-0.26-0.54-0.38-0.84H27.3Zm-0.12-2.34a0.29,0.29,0,0,1,.29.27l0,0.5a0.29,0.29,0,0,1-.28.29l-0.42,0c-0.1-.34-0.19-0.69-0.27-1.06Zm-0.87-2.3,0.81,0a0.29,0.29,0,0,1,.29.27l0,0.5a0.29,0.29,0,0,1-.28.29l-0.8,0H26.27c-0.05-.32-0.11-0.64-0.15-1A0.3,0.3,0,0,1,26.31,56.17ZM26,51.59a0.3,0.3,0,0,1,.21-0.09l0.81,0a0.29,0.29,0,0,1,.29.27v0.5a0.27,0.27,0,0,1-.08.2,0.29,0.29,0,0,1-.21.09l-0.8,0h0A0.29,0.29,0,0,1,26,52.29l0-.5A0.27,0.27,0,0,1,26,51.59ZM24.34,42a0.3,0.3,0,0,1,.29.3v0.5a0.29,0.29,0,0,1-.29.29h0Q24.14,42.52,24,42h0.39Zm-11-.07c-3.16.6-6.41,1.21-8-.39,2.47,0.39,5.4-1.23,7.6-2.44a15.75,15.75,0,0,1,2-1,29.79,29.79,0,0,1,2.62,3.27A26.06,26.06,0,0,0,13.32,41.93Zm9.11,12.15A36.71,36.71,0,0,0,21.8,49c-1.17-5.22-5-9.76-6.19-11.05a9.75,9.75,0,0,1,2.21-.28c5.83,0,6.53,7.11,7.19,14,0.42,4.31.82,8.4,2.4,10.86H27C23.08,62.26,22.77,58.46,22.43,54.08Zm10.35,9a1.77,1.77,0,0,0-.07.46v1.92a0.37,0.37,0,0,1-.37.37H27.2a0.37,0.37,0,0,1-.37-0.37V63.53a2.61,2.61,0,0,0,0-.46H27l0.37,0,0.6,0h4.81Zm5.47-13.38c-0.08.71-.16,1.44-0.23,2.17-0.52,5.25-1,10.23-5.6,10.6,1.75-2.8,2.11-7.57,2.46-12.18,0.49-6.38.95-12.41,4.89-12.41a4.9,4.9,0,0,1,1,.11A72.92,72.92,0,0,0,38.25,49.69Zm2.43-9.09H40.63c0.31-1.18.57-2.06,0.7-2.48l0.24,0.06a14,14,0,0,0,7.65.48C47.2,41.42,43.75,41,40.68,40.6Z" transform="translate(-4.31 -8.62)"/><path class="cls-1" d="M30.51,40.14a0.88,0.88,0,0,0-.86-0.88H28.83a0.87,0.87,0,0,0-.87.85v0.5a0.88,0.88,0,0,0,.86.88l0.8,0h0a0.87,0.87,0,0,0,.87-0.85v-0.5Zm-0.59.49a0.28,0.28,0,0,1-.29.27h0l-0.8,0a0.29,0.29,0,0,1-.29-0.29v-0.5a0.29,0.29,0,0,1,.3-0.27h0.8a0.29,0.29,0,0,1,.29.29v0.5Z" transform="translate(-4.31 -8.62)"/><path class="cls-1" d="M31.43,46.08h0.81a0.87,0.87,0,0,0,.87-0.87v-0.5a0.87,0.87,0,0,0-.88-0.86h-0.8a0.87,0.87,0,0,0-.62.26,0.86,0.86,0,0,0-.25.61v0.5A0.87,0.87,0,0,0,31.43,46.08Zm-0.21-1.57a0.29,0.29,0,0,1,.21-0.09h0.8a0.29,0.29,0,0,1,.29.28v0.5a0.29,0.29,0,0,1-.29.29h-0.8a0.29,0.29,0,0,1-.29-0.28v-0.5A0.28,0.28,0,0,1,31.22,44.51Z" transform="translate(-4.31 -8.62)"/><path class="cls-1" d="M30.55,37.8a0.85,0.85,0,0,0-.25-0.62,0.88,0.88,0,0,0-.61-0.26H28.87a0.87,0.87,0,0,0-.88.85v0.5a0.87,0.87,0,0,0,.86.88h0.82a0.88,0.88,0,0,0,.88-0.85V37.8ZM30,38.29a0.29,0.29,0,0,1-.29.28H28.86a0.29,0.29,0,0,1-.29-0.29v-0.5a0.29,0.29,0,0,1,.3-0.28h0.8a0.29,0.29,0,0,1,.21.09,0.27,0.27,0,0,1,.08.2v0.5Z" transform="translate(-4.31 -8.62)"/><path class="cls-1" d="M28.78,46.13h0.81a0.87,0.87,0,0,0,.87-0.87v-0.5a0.87,0.87,0,0,0-.87-0.86H28.78a0.87,0.87,0,0,0-.87.87v0.5A0.87,0.87,0,0,0,28.78,46.13Zm0-1.65h0.8a0.29,0.29,0,0,1,.29.28v0.49a0.29,0.29,0,0,1-.29.28h-0.8a0.29,0.29,0,0,1-.29-0.28v-0.5A0.29,0.29,0,0,1,28.78,44.48Z" transform="translate(-4.31 -8.62)"/><path class="cls-1" d="M33.15,40a0.87,0.87,0,0,0-.87-0.87H31.47a0.87,0.87,0,0,0-.88.86v0.5a0.87,0.87,0,0,0,.87.87h0.81a0.87,0.87,0,0,0,.87-0.86V40Zm-0.59.49a0.29,0.29,0,0,1-.29.28H31.47a0.29,0.29,0,0,1-.29-0.29V40a0.29,0.29,0,0,1,.29-0.28h0.8a0.29,0.29,0,0,1,.29.29v0.5Z" transform="translate(-4.31 -8.62)"/><path class="cls-1" d="M28.79,43.8H29.6A0.88,0.88,0,0,0,30.48,43v-0.5a0.87,0.87,0,0,0-.86-0.88H28.81a0.87,0.87,0,0,0-.87.86v0.5a0.85,0.85,0,0,0,.25.61A0.87,0.87,0,0,0,28.79,43.8Zm-0.27-1.37a0.29,0.29,0,0,1,.3-0.28h0.8a0.29,0.29,0,0,1,.29.28v0.5a0.29,0.29,0,0,1-.3.28H28.8a0.29,0.29,0,0,1-.21-0.09,0.28,0.28,0,0,1-.08-0.2v-0.5Z" transform="translate(-4.31 -8.62)"/><path class="cls-1" d="M30.58,35.47a0.88,0.88,0,0,0-.86-0.88H28.9a0.87,0.87,0,0,0-.87.85v0.5a0.87,0.87,0,0,0,.86.88H29.7A0.87,0.87,0,0,0,30.57,36v-0.5ZM30,36a0.29,0.29,0,0,1-.29.28H28.89a0.29,0.29,0,0,1-.29-0.29v-0.5a0.29,0.29,0,0,1,.3-0.28h0.8a0.29,0.29,0,0,1,.29.29V36Z" transform="translate(-4.31 -8.62)"/><path class="cls-1" d="M32.25,41.51H31.45a0.88,0.88,0,0,0-.88.87v0.5a0.85,0.85,0,0,0,.25.61,0.87,0.87,0,0,0,.62.26h0.8a0.88,0.88,0,0,0,.87-0.87v-0.5a0.86,0.86,0,0,0-.26-0.62A0.88,0.88,0,0,0,32.25,41.51Zm0.29,1.36a0.29,0.29,0,0,1-.29.28h-0.8a0.3,0.3,0,0,1-.21-0.09,0.27,0.27,0,0,1-.08-0.2v-0.5a0.29,0.29,0,0,1,.29-0.29h0.8a0.3,0.3,0,0,1,.21.09,0.28,0.28,0,0,1,.08.2v0.5Z" transform="translate(-4.31 -8.62)"/><path class="cls-1" d="M34.5,34.23H34.11a0.88,0.88,0,0,0-.86.89v0.5a0.88,0.88,0,0,0,.88.86h0.4a0.87,0.87,0,0,0,.87-0.89V35.09A0.88,0.88,0,0,0,34.5,34.23Zm0.23,1.59a0.29,0.29,0,0,1-.2.09H34.14a0.29,0.29,0,0,1-.29-0.29v-0.5a0.29,0.29,0,0,1,.29-0.3h0.4a0.29,0.29,0,0,1,.29.29v0.51A0.29,0.29,0,0,1,34.74,35.82Z" transform="translate(-4.31 -8.62)"/><path class="cls-1" d="M35.42,37.47a0.88,0.88,0,0,0-.88-0.87H34.15a0.88,0.88,0,0,0-.87.87V38a0.87,0.87,0,0,0,.87.88h0.4A0.88,0.88,0,0,0,35.42,38V37.47Zm-0.88.8H34.15A0.29,0.29,0,0,1,33.86,38v-0.5a0.29,0.29,0,0,1,.29-0.29h0.39a0.29,0.29,0,0,1,.29.29V38A0.29,0.29,0,0,1,34.54,38.27Z" transform="translate(-4.31 -8.62)"/><path class="cls-1" d="M34.54,39h-0.4a0.88,0.88,0,0,0-.88.86v0.51a0.88,0.88,0,0,0,.86.89h0.4a0.88,0.88,0,0,0,.87-0.86V39.85A0.87,0.87,0,0,0,34.54,39Zm0.28,1.38a0.29,0.29,0,0,1-.29.29H34.13a0.29,0.29,0,0,1-.29-0.29V39.84a0.29,0.29,0,0,1,.3-0.29h0.39a0.29,0.29,0,0,1,.29.29v0.51Z" transform="translate(-4.31 -8.62)"/><path class="cls-1" d="M34.41,31.86h0l-0.39,0a0.87,0.87,0,0,0-.83.91l0,0.5a0.87,0.87,0,0,0,.87.84H34.5a0.88,0.88,0,0,0,.85-0.91l0-.51A0.89,0.89,0,0,0,34.41,31.86Zm0.07,1.67h-0.4a0.29,0.29,0,0,1-.29-0.28l0-.5a0.29,0.29,0,0,1,.28-0.3l0.4,0a0.29,0.29,0,0,1,.29.28l0,0.51A0.29,0.29,0,0,1,34.48,33.53Z" transform="translate(-4.31 -8.62)"/><path class="cls-1" d="M29.2,29.86h0.51A0.9,0.9,0,0,0,30.63,29V28.48a0.9,0.9,0,0,0-.93-0.88H29.2a0.9,0.9,0,0,0-.92.88V29A0.9,0.9,0,0,0,29.2,29.86Zm-0.34-1.38a0.32,0.32,0,0,1,.34-0.29h0.51a0.32,0.32,0,0,1,.34.29V29a0.32,0.32,0,0,1-.34.29H29.2A0.32,0.32,0,0,1,28.86,29V28.48Z" transform="translate(-4.31 -8.62)"/><path class="cls-1" d="M29.68,25.22H29.25a0.85,0.85,0,0,0-.83.88v0.51a0.85,0.85,0,0,0,.83.88h0.44a0.85,0.85,0,0,0,.83-0.88V26.1A0.86,0.86,0,0,0,29.68,25.22Zm0.25,1.38a0.27,0.27,0,0,1-.25.29H29.25A0.27,0.27,0,0,1,29,26.61V26.1a0.27,0.27,0,0,1,.25-0.29h0.44a0.27,0.27,0,0,1,.25.29v0.51Z" transform="translate(-4.31 -8.62)"/><path class="cls-1" d="M29.67,20.62H29.33a0.78,0.78,0,0,0-.71.85V22a0.78,0.78,0,0,0,.71.85h0.34A0.78,0.78,0,0,0,30.38,22V21.48A0.78,0.78,0,0,0,29.67,20.62ZM29.79,22a0.27,0.27,0,0,1-.13.27H29.33A0.27,0.27,0,0,1,29.2,22V21.48a0.27,0.27,0,0,1,.13-0.27h0.34a0.27,0.27,0,0,1,.13.27V22Z" transform="translate(-4.31 -8.62)"/><path class="cls-1" d="M34.35,29.49H34.28l-0.37,0a0.87,0.87,0,0,0-.78.93l0,0.5a0.87,0.87,0,0,0,.85.81h0l0.37,0A0.83,0.83,0,0,0,35,31.46a0.88,0.88,0,0,0,.21-0.65l0-.51A0.86,0.86,0,0,0,34.35,29.49Zm0.22,1.59a0.25,0.25,0,0,1-.17.09l-0.37,0h0a0.28,0.28,0,0,1-.27-0.27l0-.5A0.29,0.29,0,0,1,34,30.11l0.39,0a0.28,0.28,0,0,1,.26.27l0,0.51A0.3,0.3,0,0,1,34.57,31.08Z" transform="translate(-4.31 -8.62)"/><path class="cls-1" d="M28.17,31.3a0.86,0.86,0,0,0,.84.87h0.78a0.86,0.86,0,0,0,.84-0.87V30.8a0.87,0.87,0,0,0-.85-0.86H29a0.82,0.82,0,0,0-.59.25,0.87,0.87,0,0,0-.25.62V31.3Zm0.66-.71A0.24,0.24,0,0,1,29,30.51h0.77a0.28,0.28,0,0,1,.27.28V31.3a0.27,0.27,0,0,1-.27.28H29a0.28,0.28,0,0,1-.26-0.29V30.79A0.29,0.29,0,0,1,28.83,30.58Z" transform="translate(-4.31 -8.62)"/><path class="cls-1" d="M29.62,22.91H29.25a0.82,0.82,0,0,0-.76.88V24.3a0.82,0.82,0,0,0,.76.88h0.38a0.82,0.82,0,0,0,.76-0.88V23.79A0.82,0.82,0,0,0,29.62,22.91ZM29.8,24.3a0.27,0.27,0,0,1-.17.29H29.25a0.27,0.27,0,0,1-.17-0.29V23.79a0.27,0.27,0,0,1,.17-0.29h0.38a0.27,0.27,0,0,1,.17.29V24.3Z" transform="translate(-4.31 -8.62)"/><path class="cls-1" d="M28.07,33.59a0.86,0.86,0,0,0,.24.62,0.87,0.87,0,0,0,.61.27l0.8,0h0a0.86,0.86,0,0,0,.88-0.84V33.16a0.88,0.88,0,0,0-.85-0.89l-0.83,0a0.86,0.86,0,0,0-.87.84v0.5Zm0.6-.49A0.28,0.28,0,0,1,29,32.83h0l0.8,0a0.29,0.29,0,0,1,.29.29v0.49a0.29,0.29,0,0,1-.29.27h0l-0.8,0a0.29,0.29,0,0,1-.2-0.09,0.28,0.28,0,0,1-.08-0.2V33.1Z" transform="translate(-4.31 -8.62)"/><path class="cls-1" d="M28.88,53.13h0l0.8,0a0.87,0.87,0,0,0,.85-0.88v-0.5a0.88,0.88,0,0,0-.89-0.84h0l-0.8,0a0.87,0.87,0,0,0-.86.89v0.5A0.88,0.88,0,0,0,28.88,53.13Zm0-1.65,0.81,0a0.28,0.28,0,0,1,.29.27v0.5a0.29,0.29,0,0,1-.28.29l-0.8,0h0a0.29,0.29,0,0,1-.29-0.27v-0.5A0.29,0.29,0,0,1,28.86,51.48Z" transform="translate(-4.31 -8.62)"/><path class="cls-1" d="M26.15,48.47H27a0.88,0.88,0,0,0,.87-0.88v-0.5a0.88,0.88,0,0,0-.88-0.86h-0.8a0.87,0.87,0,0,0-.62.26,0.86,0.86,0,0,0-.25.62v0.5A0.87,0.87,0,0,0,26.15,48.47Zm-0.21-1.57a0.29,0.29,0,0,1,.21-0.09h0.8a0.29,0.29,0,0,1,.29.28v0.5a0.29,0.29,0,0,1-.29.29H26.15a0.29,0.29,0,0,1-.29-0.28v-0.5A0.28,0.28,0,0,1,25.94,46.91Z" transform="translate(-4.31 -8.62)"/><path class="cls-1" d="M31.45,48.42h0.81a0.87,0.87,0,0,0,.62-0.26,0.86,0.86,0,0,0,.25-0.62V47a0.88,0.88,0,0,0-.88-0.86h-0.8a0.88,0.88,0,0,0-.62.26,0.86,0.86,0,0,0-.25.62v0.5A0.87,0.87,0,0,0,31.45,48.42Zm-0.21-1.57a0.3,0.3,0,0,1,.21-0.09h0.81a0.29,0.29,0,0,1,.29.28v0.5a0.28,0.28,0,0,1-.08.2,0.3,0.3,0,0,1-.21.09H31.45a0.29,0.29,0,0,1-.29-0.28v-0.5A0.28,0.28,0,0,1,31.24,46.85Z" transform="translate(-4.31 -8.62)"/><path class="cls-1" d="M33.89,20.8A0.75,0.75,0,0,0,33,20.13l-0.28.09a0.9,0.9,0,0,0-.51,1l0.08,0.48a0.77,0.77,0,0,0,.72.7l0.16,0,0.28-.08a0.88,0.88,0,0,0,.55-1Zm-0.62,1L33,21.84s-0.13-.06-0.15-0.21l-0.08-.48a0.35,0.35,0,0,1,.13-0.37l0.29-.1a0.23,0.23,0,0,1,.13.21l0.08,0.51A0.35,0.35,0,0,1,33.28,21.76Z" transform="translate(-4.31 -8.62)"/><path class="cls-1" d="M34.35,23.16a0.83,0.83,0,0,0-.95-0.72l-0.34.07a0.88,0.88,0,0,0-.64,1L32.48,24a0.83,0.83,0,0,0,.8.73h0.13l0.34-.06a0.87,0.87,0,0,0,.66-1Zm-0.69.93-0.34.06h0a0.25,0.25,0,0,1-.22-0.23L33,23.43a0.3,0.3,0,0,1,.19-0.34L33.55,23a0.25,0.25,0,0,1,.22.24l0.07,0.51A0.29,0.29,0,0,1,33.66,24.09Z" transform="translate(-4.31 -8.62)"/><path class="cls-1" d="M29.43,16.52h0.45a1.73,1.73,0,0,0,1-.85A0.29,0.29,0,0,0,31,15.5a0.92,0.92,0,0,0-1-.79H29.36a0.92,0.92,0,0,0-1,.79,0.29,0.29,0,0,0,.05.16A1.73,1.73,0,0,0,29.43,16.52Zm-0.07-1.23H30a0.54,0.54,0,0,1,.41.15,1.72,1.72,0,0,1-.49.49H29.45a1.67,1.67,0,0,1-.5-0.49A0.54,0.54,0,0,1,29.36,15.29Z" transform="translate(-4.31 -8.62)"/><path class="cls-1" d="M30.81,17.13a1.36,1.36,0,0,1,.08.19l0.06,0.16a0.71,0.71,0,0,0,.64.48,0.62,0.62,0,0,0,.33-0.09l0.25-.16a1,1,0,0,0,.31-1.17l-0.06-.16A2.73,2.73,0,0,0,32.26,16a0.65,0.65,0,0,0-1.09-.24L31,16A1.07,1.07,0,0,0,30.81,17.13Zm0.6-.72,0.21-.27a0.29,0.29,0,0,1,.12.15,2.31,2.31,0,0,1,.12.29l0.07,0.18a0.41,0.41,0,0,1-.07.45l-0.25.16s-0.08,0-.12-0.1l0-.13a1.92,1.92,0,0,0-.11-0.27A0.52,0.52,0,0,1,31.41,16.42Z" transform="translate(-4.31 -8.62)"/><path class="cls-1" d="M26.19,20.13l0.29,0.12a0.65,0.65,0,0,0,.25.05,0.77,0.77,0,0,0,.71-0.6l0.13-.46a1,1,0,0,0-.4-1.07L26.9,18a0.73,0.73,0,0,0-1,.51L25.73,19A0.92,0.92,0,0,0,26.19,20.13Zm0.11-.94,0.14-.5a0.18,0.18,0,0,1,.16-0.16h0l0.28,0.15a0.38,0.38,0,0,1,.12.41l-0.13.45a0.21,0.21,0,0,1-.15.17l-0.32-.13A0.35,0.35,0,0,1,26.29,19.19Z" transform="translate(-4.31 -8.62)"/><path class="cls-1" d="M34.71,25.54a0.82,0.82,0,0,0-.91-0.75l-0.33.05a0.86,0.86,0,0,0-.67,1l0.05,0.5a0.82,0.82,0,0,0,.79.77h0.1l0.33,0a0.86,0.86,0,0,0,.69-1ZM34,26.44l-0.35,0a0.25,0.25,0,0,1-.21-0.25l-0.05-.5a0.29,0.29,0,0,1,.19-0.33l0.36-.06a0.25,0.25,0,0,1,.21.25l0.06,0.51A0.29,0.29,0,0,1,34,26.44Z" transform="translate(-4.31 -8.62)"/><path class="cls-1" d="M27,17.88l0.28,0.17a0.71,0.71,0,0,0,.37.11,0.69,0.69,0,0,0,.65-0.44l0.19-.39a1,1,0,0,0-.16-1.09L28.14,16a0.64,0.64,0,0,0-.49-0.23,0.73,0.73,0,0,0-.66.45l-0.25.5A1,1,0,0,0,27,17.88ZM27.27,17l0.24-.49a0.16,0.16,0,0,1,.13-0.11l0.27,0.28a0.44,0.44,0,0,1,.08.46l-0.2.4a0.12,0.12,0,0,1-.18.08l-0.28-.17A0.4,0.4,0,0,1,27.27,17Z" transform="translate(-4.31 -8.62)"/><path class="cls-1" d="M29,57.79h0l0.8,0a0.87,0.87,0,0,0,.85-0.89v-0.5a0.87,0.87,0,0,0-.9-0.84h0l-0.8,0a0.87,0.87,0,0,0-.62.27,0.86,0.86,0,0,0-.24.62v0.5A0.86,0.86,0,0,0,29,57.79Zm-0.23-1.55a0.29,0.29,0,0,1,.21-0.09l0.81,0a0.28,0.28,0,0,1,.29.27v0.5a0.29,0.29,0,0,1-.28.29l-0.8,0h0a0.28,0.28,0,0,1-.29-0.27v-0.5A0.28,0.28,0,0,1,28.73,56.23Z" transform="translate(-4.31 -8.62)"/><path class="cls-1" d="M31.51,55.42h0.81a0.88,0.88,0,0,0,.62-0.26,0.85,0.85,0,0,0,.25-0.61V54a0.88,0.88,0,0,0-.88-0.86H31.5a0.87,0.87,0,0,0-.87.87v0.5A0.88,0.88,0,0,0,31.51,55.42Zm0-1.65h0.8a0.29,0.29,0,0,1,.29.28v0.5a0.28,0.28,0,0,1-.08.2,0.29,0.29,0,0,1-.21.09h-0.8a0.29,0.29,0,0,1-.29-0.28v-0.5A0.29,0.29,0,0,1,31.5,53.77Z" transform="translate(-4.31 -8.62)"/><path class="cls-1" d="M34.08,27.14l-0.35,0a0.86,0.86,0,0,0-.72,1l0,0.5a0.83,0.83,0,0,0,.81.79h0.08l0.35,0a0.86,0.86,0,0,0,.73-1l0-.51A0.84,0.84,0,0,0,34.08,27.14Zm0.16,1.67-0.35,0h0a0.26,0.26,0,0,1-.23-0.26l0-.5a0.28,0.28,0,0,1,.21-0.32l0.37,0a0.26,0.26,0,0,1,.23.26l0,0.51A0.28,0.28,0,0,1,34.24,28.8Z" transform="translate(-4.31 -8.62)"/><path class="cls-1" d="M29,60.11h0l0.8,0a0.87,0.87,0,0,0,.62-0.27,0.86,0.86,0,0,0,.24-0.62V58.7a0.87,0.87,0,0,0-.9-0.84h0l-0.8,0a0.88,0.88,0,0,0-.61.27,0.85,0.85,0,0,0-.24.62v0.5A0.87,0.87,0,0,0,29,60.11Zm-0.23-1.55A0.3,0.3,0,0,1,29,58.47l0.81,0a0.28,0.28,0,0,1,.29.27v0.5a0.28,0.28,0,0,1-.08.2,0.29,0.29,0,0,1-.21.09l-0.8,0h0a0.29,0.29,0,0,1-.29-0.27v-0.5A0.27,0.27,0,0,1,28.78,58.56Z" transform="translate(-4.31 -8.62)"/><path class="cls-1" d="M29.09,62.44h0.77a0.82,0.82,0,0,0,.59-0.27,0.88,0.88,0,0,0,.23-0.61V61a0.85,0.85,0,0,0-.86-0.85h0l-0.75,0a0.86,0.86,0,0,0-.82.88v0.5A0.86,0.86,0,0,0,29.09,62.44Zm0-1.64,0.76,0a0.27,0.27,0,0,1,.26.27v0.5a0.3,0.3,0,0,1-.08.21,0.24,0.24,0,0,1-.18.08H29.09a0.27,0.27,0,0,1-.26-0.27v-0.5A0.27,0.27,0,0,1,29.08,60.8Z" transform="translate(-4.31 -8.62)"/><path class="cls-1" d="M23.16,38a0.88,0.88,0,0,0,.85.9h0.41a0.88,0.88,0,0,0,.88-0.85V37.58a0.88,0.88,0,0,0-.85-0.9H24a0.88,0.88,0,0,0-.88.85V38Zm0.6-.49a0.29,0.29,0,0,1,.3-0.28h0.39a0.29,0.29,0,0,1,.28.3v0.5a0.29,0.29,0,0,1-.29.28H24a0.29,0.29,0,0,1-.2-0.09A0.29,0.29,0,0,1,23.75,38V37.54Z" transform="translate(-4.31 -8.62)"/><path class="cls-1" d="M31.57,57.76h0.81a0.87,0.87,0,0,0,.87-0.87v-0.5A0.86,0.86,0,0,0,33,55.78a0.87,0.87,0,0,0-.62-0.25h-0.8a0.87,0.87,0,0,0-.88.86v0.5A0.88,0.88,0,0,0,31.57,57.76Zm-0.29-1.37a0.29,0.29,0,0,1,.29-0.28h0.8a0.29,0.29,0,0,1,.21.09,0.28,0.28,0,0,1,.08.2v0.5a0.29,0.29,0,0,1-.29.28H31.57a0.29,0.29,0,0,1-.29-0.28v-0.5Z" transform="translate(-4.31 -8.62)"/><path class="cls-1" d="M23.23,35.66a0.87,0.87,0,0,0,.84.91H24.5a0.87,0.87,0,0,0,.87-0.84l0-.5a0.88,0.88,0,0,0-.83-0.91l-0.43,0a0.87,0.87,0,0,0-.87.84Zm0.61-.49a0.29,0.29,0,0,1,.3-0.28h0l0.39,0a0.29,0.29,0,0,1,.28.3l0,0.51a0.29,0.29,0,0,1-.29.28H24.1a0.29,0.29,0,0,1-.28-0.3Z" transform="translate(-4.31 -8.62)"/><path class="cls-1" d="M25.55,22.44l0.28,0.09a0.61,0.61,0,0,0,.19,0,0.75,0.75,0,0,0,.7-0.67l0.09-.48a0.92,0.92,0,0,0-.48-1l-0.27-.11a0.73,0.73,0,0,0-.92.63l-0.1.51A0.9,0.9,0,0,0,25.55,22.44Zm0.06-.93,0.1-.5a0.23,0.23,0,0,1,.13-0.2h0l0.27,0.11a0.37,0.37,0,0,1,.12.38l-0.09.48A0.22,0.22,0,0,1,26,22l-0.29-.09A0.37,0.37,0,0,1,25.61,21.5Z" transform="translate(-4.31 -8.62)"/><path class="cls-1" d="M25.16,27.28l-0.37-.05a0.86,0.86,0,0,0-1,.76l-0.06.51a0.88,0.88,0,0,0,.75,1l0.37,0H25a0.85,0.85,0,0,0,.84-0.77l0.06-.5A0.88,0.88,0,0,0,25.16,27.28Zm0.09,1.4a0.27,0.27,0,0,1-.26.25l-0.4,0a0.29,0.29,0,0,1-.24-0.33l0.06-.51a0.28,0.28,0,0,1,.29-0.25h0l0.37,0.05a0.29,0.29,0,0,1,.24.33Z" transform="translate(-4.31 -8.62)"/><path class="cls-1" d="M23.53,30.88a0.87,0.87,0,0,0,.78.95l0.37,0h0.07a0.86,0.86,0,0,0,.85-0.8l0-.49a0.87,0.87,0,0,0-.76-1l-0.37,0H24.41a0.87,0.87,0,0,0-.85.8Zm0.62-.46a0.29,0.29,0,0,1,.29-0.27h0l0.37,0a0.28,0.28,0,0,1,.24.32L25,31a0.28,0.28,0,0,1-.27.26h0l-0.37,0a0.29,0.29,0,0,1-.24-0.32Z" transform="translate(-4.31 -8.62)"/><path class="cls-1" d="M23.35,33.27a0.87,0.87,0,0,0,.82.93l0.39,0h0a0.88,0.88,0,0,0,.88-0.82l0-.5A0.88,0.88,0,0,0,24.7,32l-0.39,0H24.25a0.87,0.87,0,0,0-.87.82ZM24,32.8a0.29,0.29,0,0,1,.31-0.27h0l0.39,0a0.3,0.3,0,0,1,.28.31l0,0.5a0.29,0.29,0,0,1-.3.27h0l-0.39,0a0.28,0.28,0,0,1-.2-0.1,0.29,0.29,0,0,1-.07-0.21Z" transform="translate(-4.31 -8.62)"/><path class="cls-1" d="M28.9,55.46h0l0.8,0a0.87,0.87,0,0,0,.85-0.89V54a0.87,0.87,0,0,0-.9-0.84h0l-0.8,0a0.87,0.87,0,0,0-.85.89v0.5A0.86,0.86,0,0,0,28.9,55.46Zm0-1.65,0.81,0a0.29,0.29,0,0,1,.29.27v0.5a0.29,0.29,0,0,1-.29.29l-0.8,0h0a0.28,0.28,0,0,1-.29-0.27V54.1A0.29,0.29,0,0,1,28.88,53.81Z" transform="translate(-4.31 -8.62)"/><path class="cls-1" d="M31.83,25.13H31.4a0.85,0.85,0,0,0-.8.9l0,0.51a0.85,0.85,0,0,0,.83.85h0l0.43,0a0.85,0.85,0,0,0,.8-0.9l0-.51A0.86,0.86,0,0,0,31.83,25.13Zm0.06,1.67-0.43,0h0a0.28,0.28,0,0,1-.25-0.28l0-.51a0.27,0.27,0,0,1,.24-0.3l0.44,0a0.28,0.28,0,0,1,.25.29l0,0.51A0.27,0.27,0,0,1,31.89,26.81Z" transform="translate(-4.31 -8.62)"/><path class="cls-1" d="M32,27.5H31.55a0.88,0.88,0,0,0-.85.9l0,0.51a0.87,0.87,0,0,0,.88.85h0.5a0.88,0.88,0,0,0,.85-0.9l0-.51A0.88,0.88,0,0,0,32,27.5Zm0.25,1.58a0.29,0.29,0,0,1-.2.09H31.59a0.29,0.29,0,0,1-.29-0.28l0-.51a0.29,0.29,0,0,1,.28-0.3h0.48a0.29,0.29,0,0,1,.29.28l0,0.51A0.29,0.29,0,0,1,32.28,29.08Z" transform="translate(-4.31 -8.62)"/><path class="cls-1" d="M32.24,29.81h0l-0.75,0a0.85,0.85,0,0,0-.81.9l0,0.5a0.85,0.85,0,0,0,.84.84h0l0.75,0a0.82,0.82,0,0,0,.59-0.28,0.87,0.87,0,0,0,.22-0.61l0-.5A0.86,0.86,0,0,0,32.24,29.81Zm0.23,1.56a0.24,0.24,0,0,1-.17.08l-0.75,0h0a0.27,0.27,0,0,1-.25-0.27l0-.5a0.27,0.27,0,0,1,.24-0.29l0.76,0a0.27,0.27,0,0,1,.25.27l0,0.5A0.29,0.29,0,0,1,32.46,31.38Z" transform="translate(-4.31 -8.62)"/><path class="cls-1" d="M32.25,32.14h0l-0.77,0a0.86,0.86,0,0,0-.81.91l0,0.5a0.86,0.86,0,0,0,.85.83h0l0.77,0a0.84,0.84,0,0,0,.59-0.28,0.87,0.87,0,0,0,.22-0.62l0-.5A0.87,0.87,0,0,0,32.25,32.14Zm0.26,1.56a0.26,0.26,0,0,1-.18.09l-0.77,0h0a0.28,0.28,0,0,1-.27-0.27l0-.5a0.28,0.28,0,0,1,.26-0.3l0.78,0a0.27,0.27,0,0,1,.27.27l0,0.5A0.29,0.29,0,0,1,32.51,33.7Z" transform="translate(-4.31 -8.62)"/><path class="cls-1" d="M31.58,22.82H31.52l-0.37,0a0.82,0.82,0,0,0-.68.94l0,0.51a0.83,0.83,0,0,0,.77.81h0.06l0.38,0a0.72,0.72,0,0,0,.53-0.33,1,1,0,0,0,.15-0.61l0-.51A0.83,0.83,0,0,0,31.58,22.82Zm0.19,1.6a0.14,0.14,0,0,1-.1.07l-0.38,0h0a0.28,0.28,0,0,1-.19-0.27l0-.51a0.27,0.27,0,0,1,.15-0.31l0.38,0a0.28,0.28,0,0,1,.19.28l0,0.51A0.38,0.38,0,0,1,31.77,24.42Z" transform="translate(-4.31 -8.62)"/><path class="cls-1" d="M30.73,18.35h0l-0.38,0a0.8,0.8,0,0,0-.69.89l0,0.47a0.81,0.81,0,0,0,.77.78h0.05l0.38,0a0.72,0.72,0,0,0,.49-0.25,0.88,0.88,0,0,0,.2-0.64l0-.47A0.81,0.81,0,0,0,30.73,18.35Zm0.2,1.51a0.14,0.14,0,0,1-.09.05l-0.38,0h0a0.24,0.24,0,0,1-.18-0.24l0-.47A0.23,0.23,0,0,1,30.39,19l0.38,0a0.24,0.24,0,0,1,.18.24l0,0.47A0.3,0.3,0,0,1,30.93,19.86Z" transform="translate(-4.31 -8.62)"/><path class="cls-1" d="M31.43,20.53H31.37l-0.34,0a0.65,0.65,0,0,0-.43.24,0.93,0.93,0,0,0-.18.68L30.47,22a0.81,0.81,0,0,0,.73.78h0.06l0.34,0A0.65,0.65,0,0,0,32,22.48a0.93,0.93,0,0,0,.18-0.68l-0.05-.49A0.81,0.81,0,0,0,31.43,20.53Zm0.11,1.6-0.34,0h0A0.28,0.28,0,0,1,31,21.91L31,21.43a0.31,0.31,0,0,1,.09-0.28l0.34,0a0.28,0.28,0,0,1,.15.26l0.05,0.49A0.32,0.32,0,0,1,31.54,22.14Z" transform="translate(-4.31 -8.62)"/><path class="cls-1" d="M29.88,18.41a0.82,0.82,0,0,0,.84-0.79V17.39a0.82,0.82,0,0,0-.84-0.79H29.43a0.82,0.82,0,0,0-.84.79v0.22a0.82,0.82,0,0,0,.84.79h0.45Zm-0.71-.79V17.39a0.24,0.24,0,0,1,.26-0.21h0.45a0.24,0.24,0,0,1,.26.21v0.22a0.24,0.24,0,0,1-.26.21H29.43A0.24,0.24,0,0,1,29.17,17.61Z" transform="translate(-4.31 -8.62)"/><path class="cls-1" d="M31.47,50.75h0.81a0.87,0.87,0,0,0,.62-0.26,0.86,0.86,0,0,0,.25-0.61v-0.5a0.88,0.88,0,0,0-.88-0.86h-0.8a0.87,0.87,0,0,0-.87.88v0.5A0.87,0.87,0,0,0,31.47,50.75Zm0-1.65h0.81a0.29,0.29,0,0,1,.29.28v0.5a0.28,0.28,0,0,1-.08.2,0.29,0.29,0,0,1-.21.09H31.47a0.29,0.29,0,0,1-.29-0.28v-0.5A0.29,0.29,0,0,1,31.46,49.1Z" transform="translate(-4.31 -8.62)"/><path class="cls-1" d="M28.79,48.47h0.81a0.87,0.87,0,0,0,.86-0.87v-0.5a0.88,0.88,0,0,0-.88-0.86h-0.8a0.87,0.87,0,0,0-.62.26,0.86,0.86,0,0,0-.25.61v0.5A0.87,0.87,0,0,0,28.79,48.47ZM28.58,46.9a0.29,0.29,0,0,1,.21-0.09h0.81a0.29,0.29,0,0,1,.29.28v0.5a0.29,0.29,0,0,1-.29.28H28.79a0.29,0.29,0,0,1-.29-0.28V47.1A0.28,0.28,0,0,1,28.58,46.9Z" transform="translate(-4.31 -8.62)"/><path class="cls-1" d="M28.83,50.8h0l0.8,0a0.87,0.87,0,0,0,.62-0.27,0.85,0.85,0,0,0,.24-0.61V49.41a0.87,0.87,0,0,0-.89-0.85h-0.8a0.88,0.88,0,0,0-.86.88v0.5A0.88,0.88,0,0,0,28.83,50.8Zm0-1.65h0.81a0.29,0.29,0,0,1,.29.28v0.5a0.27,0.27,0,0,1-.08.19,0.3,0.3,0,0,1-.21.09l-0.8,0h0a0.29,0.29,0,0,1-.29-0.28v-0.5A0.29,0.29,0,0,1,28.81,49.15Z" transform="translate(-4.31 -8.62)"/><path class="cls-1" d="M32.92,37.1a0.87,0.87,0,0,0-.62-0.26H31.5a0.87,0.87,0,0,0-.88.86v0.5a0.85,0.85,0,0,0,.25.61,0.87,0.87,0,0,0,.62.26h0.81a0.87,0.87,0,0,0,.88-0.86v-0.5A0.86,0.86,0,0,0,32.92,37.1Zm-0.34,1.11a0.29,0.29,0,0,1-.29.28H31.49a0.29,0.29,0,0,1-.21-0.09,0.28,0.28,0,0,1-.08-0.2V37.7a0.29,0.29,0,0,1,.29-0.28h0.8a0.29,0.29,0,0,1,.21.09,0.28,0.28,0,0,1,.08.2v0.5Z" transform="translate(-4.31 -8.62)"/><path class="cls-1" d="M31.52,36.73H32.3a0.86,0.86,0,0,0,.85-0.86v-0.5a0.87,0.87,0,0,0-.25-0.62,0.84,0.84,0,0,0-.6-0.25H31.53a0.86,0.86,0,0,0-.85.86v0.5A0.86,0.86,0,0,0,31.52,36.73Zm-0.26-1.37a0.28,0.28,0,0,1,.27-0.28H32.3a0.26,0.26,0,0,1,.18.08,0.29,0.29,0,0,1,.08.21v0.5a0.28,0.28,0,0,1-.27.28H31.53a0.28,0.28,0,0,1-.27-0.28v-0.5Z" transform="translate(-4.31 -8.62)"/><path class="cls-1" d="M31.49,53.09H32.3a0.87,0.87,0,0,0,.87-0.88v-0.5a0.88,0.88,0,0,0-.88-0.86h-0.8a0.88,0.88,0,0,0-.62.26,0.86,0.86,0,0,0-.25.62v0.5A0.87,0.87,0,0,0,31.49,53.09Zm-0.21-1.56a0.29,0.29,0,0,1,.21-0.09h0.81a0.29,0.29,0,0,1,.29.28v0.5a0.29,0.29,0,0,1-.29.29H31.49a0.29,0.29,0,0,1-.29-0.28v-0.5A0.28,0.28,0,0,1,31.28,51.53Z" transform="translate(-4.31 -8.62)"/><path class="cls-1" d="M27.87,40.12A0.88,0.88,0,0,0,27,39.23l-0.83,0a0.86,0.86,0,0,0-.87.85v0.5a0.87,0.87,0,0,0,.86.89H27a0.88,0.88,0,0,0,.88-0.85v-0.5Zm-0.6.48a0.29,0.29,0,0,1-.29.28H26.17A0.29,0.29,0,0,1,26,40.78a0.28,0.28,0,0,1-.08-0.2v-0.5a0.29,0.29,0,0,1,.3-0.28l0.8,0a0.29,0.29,0,0,1,.29.29v0.5Z" transform="translate(-4.31 -8.62)"/><path class="cls-1" d="M27.93,37.8a0.87,0.87,0,0,0-.85-0.9l-0.83,0a0.87,0.87,0,0,0-.87.84l0,0.5a0.85,0.85,0,0,0,.23.62,0.87,0.87,0,0,0,.62.28l0.8,0h0a0.87,0.87,0,0,0,.87-0.84Zm-0.6.48a0.28,0.28,0,0,1-.29.27h0l-0.8,0A0.29,0.29,0,0,1,26,38.43a0.27,0.27,0,0,1-.08-0.2l0-.5a0.29,0.29,0,0,1,.3-0.27h0l0.8,0a0.29,0.29,0,0,1,.28.29Z" transform="translate(-4.31 -8.62)"/><path class="cls-1" d="M27.84,42.44A0.88,0.88,0,0,0,27,41.56H26.16a0.87,0.87,0,0,0-.87.86v0.5a0.86,0.86,0,0,0,.25.62,0.87,0.87,0,0,0,.62.26H27a0.87,0.87,0,0,0,.88-0.86v-0.5Zm-0.59.49a0.29,0.29,0,0,1-.29.28h-0.8a0.29,0.29,0,0,1-.21-0.09,0.28,0.28,0,0,1-.08-0.2v-0.5a0.28,0.28,0,0,1,.29-0.28H27a0.29,0.29,0,0,1,.29.29v0.5Z" transform="translate(-4.31 -8.62)"/><path class="cls-1" d="M25.44,35.87a0.86,0.86,0,0,0,.82.9l0.77,0h0A0.86,0.86,0,0,0,27.92,36l0-.5a0.86,0.86,0,0,0-.82-0.9l-0.81,0a0.86,0.86,0,0,0-.85.84Zm0.6-.48a0.28,0.28,0,0,1,.28-0.27h0l0.77,0a0.28,0.28,0,0,1,.26.29l0,0.5a0.28,0.28,0,0,1-.27.27h0l-0.77,0a0.28,0.28,0,0,1-.26-0.3Z" transform="translate(-4.31 -8.62)"/><path class="cls-1" d="M26.1,46.13h0.8a0.88,0.88,0,0,0,.62-0.26,0.85,0.85,0,0,0,.25-0.61v-0.5a0.85,0.85,0,0,0-.25-0.61,0.88,0.88,0,0,0-.62-0.26H26.1a0.88,0.88,0,0,0-.88.87v0.51a0.88,0.88,0,0,0,.88.86h0Zm-0.3-.87v-0.5a0.29,0.29,0,0,1,.29-0.29h0.8a0.29,0.29,0,0,1,.21.09,0.27,0.27,0,0,1,.08.19v0.5a0.28,0.28,0,0,1-.08.19,0.3,0.3,0,0,1-.21.09H26.1A0.29,0.29,0,0,1,25.8,45.27Z" transform="translate(-4.31 -8.62)"/><path class="cls-1" d="M26.34,34.43l0.76,0h0A0.85,0.85,0,0,0,28,33.64l0-.49a0.86,0.86,0,0,0-.8-0.91l-0.81,0a0.85,0.85,0,0,0-.85.83l0,0.5A0.86,0.86,0,0,0,26.34,34.43ZM26.14,33a0.28,0.28,0,0,1,.28-0.27h0l0.77,0a0.28,0.28,0,0,1,.25.3l0,0.5a0.27,0.27,0,0,1-.26.27h0l-0.77,0a0.28,0.28,0,0,1-.25-0.3Z" transform="translate(-4.31 -8.62)"/><path class="cls-1" d="M26.5,23.62l-0.05.51a0.83,0.83,0,0,0,.67.95l0.38,0h0.07a0.83,0.83,0,0,0,.77-0.8l0.05-.51a0.83,0.83,0,0,0-.67-0.95l-0.37,0H27.27A0.83,0.83,0,0,0,26.5,23.62Zm0.58,0.06a0.27,0.27,0,0,1,.2-0.27h0l0.38,0a0.27,0.27,0,0,1,.14.31l-0.05.51a0.28,0.28,0,0,1-.19.27h0l-0.38,0A0.27,0.27,0,0,1,27,24.18Z" transform="translate(-4.31 -8.62)"/><path class="cls-1" d="M26.85,21.31l-0.05.48a0.92,0.92,0,0,0,.18.68,0.64,0.64,0,0,0,.43.24l0.34,0h0.06A0.81,0.81,0,0,0,28.55,22l0.05-.48a0.93,0.93,0,0,0-.18-0.68A0.65,0.65,0,0,0,28,20.57l-0.34,0H27.59A0.81,0.81,0,0,0,26.85,21.31Zm0.74-.19L28,21.18a0.35,0.35,0,0,1,.05.25L28,21.91a0.28,0.28,0,0,1-.16.26l-0.38-.06a0.35,0.35,0,0,1-.05-0.25l0.05-.48a0.28,0.28,0,0,1,.16-0.26h0Z" transform="translate(-4.31 -8.62)"/><path class="cls-1" d="M27.67,19.13l0,0.47a0.88,0.88,0,0,0,.2.64,0.72,0.72,0,0,0,.49.25l0.38,0h0.05a0.81,0.81,0,0,0,.77-0.78l0-.47a0.8,0.8,0,0,0-.69-0.89l-0.43,0A0.81,0.81,0,0,0,27.67,19.13Zm0.77-.2,0.38,0a0.23,0.23,0,0,1,.16.27l0,0.47a0.24,0.24,0,0,1-.18.24h0l-0.38,0a0.14,0.14,0,0,1-.09-0.05,0.3,0.3,0,0,1-.06-0.21l0-.47a0.23,0.23,0,0,1,.19-0.24h0Z" transform="translate(-4.31 -8.62)"/><path class="cls-1" d="M26.22,26.45a0.9,0.9,0,0,0,.21.65,0.8,0.8,0,0,0,.55.28l0.44,0h0.05a0.86,0.86,0,0,0,.83-0.82l0-.51a0.86,0.86,0,0,0-.76-0.93l-0.49,0a0.86,0.86,0,0,0-.83.82ZM26.84,26a0.28,0.28,0,0,1,.27-0.27h0l0.43,0a0.27,0.27,0,0,1,.22.31l0,0.51a0.28,0.28,0,0,1-.25.27h0L27,26.8a0.22,0.22,0,0,1-.15-0.08,0.32,0.32,0,0,1-.07-0.23Z" transform="translate(-4.31 -8.62)"/><path class="cls-1" d="M25.69,30.68l0,0.5a0.86,0.86,0,0,0,.79.91l0.75,0h0a0.85,0.85,0,0,0,.84-0.82l0-.5a0.86,0.86,0,0,0-.79-0.91l-0.8,0A0.85,0.85,0,0,0,25.69,30.68Zm0.58,0a0.27,0.27,0,0,1,.27-0.27h0l0.76,0a0.27,0.27,0,0,1,.24.3l0,0.5a0.27,0.27,0,0,1-.26.27h0l-0.75,0a0.28,0.28,0,0,1-.24-0.3Z" transform="translate(-4.31 -8.62)"/><path class="cls-1" d="M26,28.84a0.87,0.87,0,0,0,.83.92l0.47,0h0A0.88,0.88,0,0,0,28.2,29l0-.51a0.88,0.88,0,0,0-.83-0.92l-0.52,0a0.88,0.88,0,0,0-.87.83Zm0.61-.47a0.3,0.3,0,0,1,.31-0.28h0l0.47,0a0.29,0.29,0,0,1,.28.31l0,0.51a0.29,0.29,0,0,1-.29.28h0l-0.47,0a0.3,0.3,0,0,1-.2-0.1,0.29,0.29,0,0,1-.07-0.21Z" transform="translate(-4.31 -8.62)"/></svg>