<svg id="Layer_1" data-name="Layer 1" xmlns="http://www.w3.org/2000/svg" viewBox="0 0 48.22 72"><defs><style>.cls-1{fill:#010101;}</style></defs><title>gluten_icon</title><path class="cls-1" d="M30.72,28.46a0.3,0.3,0,0,0-.39-0.15,15,15,0,0,0-3,1.91l-0.45.12a6.54,6.54,0,0,0,.65-2.75,3.62,3.62,0,0,1,.32-1.13,21.62,21.62,0,0,1,2.68-1.91A0.3,0.3,0,1,0,30.27,24a21.57,21.57,0,0,0-2.77,2L27,26.16a6.15,6.15,0,0,0,.67-2.82A3.56,3.56,0,0,1,28,22.25c1.55-1.29,2.47-2,2.48-2a0.3,0.3,0,0,0-.36-0.48s-0.94.71-2.51,2L27.16,22a5.78,5.78,0,0,0,.66-2.89A3.53,3.53,0,0,1,28.08,18a20.4,20.4,0,0,0,2.21-2.09,0.3,0.3,0,0,0-.46-0.38,20.56,20.56,0,0,1-2.16,2L27,17.89c0.06-.09.13-0.17,0.19-0.26a5.66,5.66,0,0,0,.58-2.83,3.48,3.48,0,0,1,.21-1,13.67,13.67,0,0,0,2.13-2.15,0.3,0.3,0,0,0-.49-0.34,13.66,13.66,0,0,1-2.06,2.07l-0.71.35a3.79,3.79,0,0,0,.29-0.45,5.61,5.61,0,0,0,.49-2.74,3.4,3.4,0,0,1,.18-1,11.41,11.41,0,0,0,2.07-2.2A0.3,0.3,0,0,0,29.32,7a11.18,11.18,0,0,1-2,2.11c-0.13.07-.71,0.41-1.06,0.62l-0.09.05A3.75,3.75,0,0,0,26.37,9a5.38,5.38,0,0,0-.58-2.8,7,7,0,0,1-.32-1.42,0.3,0.3,0,0,0-.22-0.25,0.3,0.3,0,0,0-.31.11L24,5.8a6.09,6.09,0,0,0-1.31,2.78A3.63,3.63,0,0,0,22.82,10c-0.15-.2-0.29-0.38-0.43-0.53S21.7,8.7,21.58,8.57c-0.81-2-1.31-2.93-1.34-3a0.3,0.3,0,0,0-.53.28s0.51,1,1.31,2.91a3.47,3.47,0,0,1-.13,1,5.65,5.65,0,0,0-.36,2.76,3.56,3.56,0,0,0,.29.86L20,12.75a17.44,17.44,0,0,0-1.8-3.09,0.3,0.3,0,0,0-.47.37,17.28,17.28,0,0,1,1.74,3,3.58,3.58,0,0,1,0,1.07,5.75,5.75,0,0,0-.1,2.9,3.74,3.74,0,0,0,.23.56L18.75,17a0.3,0.3,0,0,0,0-.14,12.72,12.72,0,0,0-2-2.93,0.3,0.3,0,0,0-.42.43,12.44,12.44,0,0,1,1.91,2.78l0,0a0.27,0.27,0,0,0,0,.09,3.74,3.74,0,0,1,.08,1.17,5.89,5.89,0,0,0,.17,3c0,0.11.1,0.2,0.15,0.3-0.38-.2-0.88-0.45-1.07-0.54a16.23,16.23,0,0,0-2.23-3,0.3,0.3,0,0,0-.42.43,16,16,0,0,1,2.17,2.89,3.8,3.8,0,0,1,.17,1.19,6.14,6.14,0,0,0,.41,3.12l-1-.39a13.41,13.41,0,0,0-2.59-2.88,0.3,0.3,0,1,0-.36.47,13.09,13.09,0,0,1,2.5,2.8,3.9,3.9,0,0,1,.27,1.25,6.84,6.84,0,0,0,.52,3l-1.19-.35A12.06,12.06,0,0,0,12.86,27a0.3,0.3,0,1,0-.31.51,11.62,11.62,0,0,1,2.83,2.7,4.07,4.07,0,0,1,.38,1.31,7.64,7.64,0,0,0,.59,2.8l-1.1-.23A11.17,11.17,0,0,0,12,31.42a0.3,0.3,0,0,0-.27.53,10.68,10.68,0,0,1,3.1,2.56,4.23,4.23,0,0,1,.48,1.37A8.34,8.34,0,0,0,16,38.57l-1.32-.2a10.64,10.64,0,0,0-3.54-2.5,0.3,0.3,0,0,0-.22.55,10.2,10.2,0,0,1,3.38,2.41,4.37,4.37,0,0,1,.59,1.43A6.88,6.88,0,0,0,16.36,44a3.73,3.73,0,0,0,2.08,1.12,3.54,3.54,0,0,0,1.77,1C18.57,62,10.08,62.28,10,62.28a0.3,0.3,0,0,0,0,.6c0.37,0,9.12-.2,10.8-16.72a1.42,1.42,0,0,0,.31,0,3.46,3.46,0,0,0,1.83-1.3,2.65,2.65,0,0,0,.47,0h0a3.26,3.26,0,0,0,2.44-1.16A6.1,6.1,0,0,0,27,40.36a3.81,3.81,0,0,1,.44-1.24A16.17,16.17,0,0,1,30,37.39a0.3,0.3,0,1,0-.26-0.54,16.38,16.38,0,0,0-2.67,1.79l-0.58.11a7.17,7.17,0,0,0,.68-2.64,3.76,3.76,0,0,1,.4-1.2,15.36,15.36,0,0,1,2.7-1.78A0.3,0.3,0,0,0,30,32.58a15.58,15.58,0,0,0-2.82,1.85l-0.51.12a6.84,6.84,0,0,0,.66-2.69,3.68,3.68,0,0,1,.36-1.17,14.74,14.74,0,0,1,2.83-1.84A0.3,0.3,0,0,0,30.72,28.46Zm-3.59-1.7a3.22,3.22,0,0,0-.17.82,5.45,5.45,0,0,1-.75,2.76,3.24,3.24,0,0,1-.25.29h0l-0.47.14a11.19,11.19,0,0,0-1.61.55,6.09,6.09,0,0,0-.38-0.64,3.28,3.28,0,0,0,1.11-2.76c0-.07,0-0.14,0-0.21a10.6,10.6,0,0,1,1.38-.54L26.36,27Zm-4.32,8.37a13.26,13.26,0,0,0-1-1.08A5.59,5.59,0,0,1,21,32.62a0.3,0.3,0,0,0-.26-0.18,0.29,0.29,0,0,0-.28.16S20,33.35,19.69,34a3,3,0,0,1-.18-0.75A5.68,5.68,0,0,1,20.65,30c0.22-.34.49-0.82,0.7-1.19a4.37,4.37,0,0,0,.64,1,5.84,5.84,0,0,1,1.73,2.94A2.72,2.72,0,0,1,22.82,35.12Zm0.55,2.38A2.77,2.77,0,0,1,22.45,40a12.52,12.52,0,0,0-1.3-1.33,5.64,5.64,0,0,1-1-1.42,0.3,0.3,0,0,0-.27-0.17h0a0.3,0.3,0,0,0-.27.17s-0.37.77-.72,1.42a3.11,3.11,0,0,1-.12-0.54,6.09,6.09,0,0,1,1.12-3.43c0.23-.37.52-0.91,0.73-1.31a4.53,4.53,0,0,0,.73,1.06A6.17,6.17,0,0,1,23.37,37.51Zm-1-24a5.58,5.58,0,0,1,1.18-2.64l0.54-.75a4.33,4.33,0,0,0,.32.93,5,5,0,0,1,.77,2.58,2.47,2.47,0,0,1-1,1.95l-0.12-.19a5.81,5.81,0,0,1-.5-1.41,0.3,0.3,0,0,0-.24-0.23,0.3,0.3,0,0,0-.3.13l-0.54.82A3,3,0,0,1,22.38,13.54Zm0.24,2.1,0.58-.86a4.27,4.27,0,0,0,.4,1,5.09,5.09,0,0,1,1,2.67,2.54,2.54,0,0,1-.87,2l-0.24-.33a5.57,5.57,0,0,1-.59-1.41,0.3,0.3,0,0,0-.25-0.22,0.3,0.3,0,0,0-.3.14s-0.36.59-.69,1.1a2.89,2.89,0,0,1-.23-1.24A5.64,5.64,0,0,1,22.62,15.64Zm-0.7,4.77c0.19-.27.43-0.65,0.62-1a4.23,4.23,0,0,0,.48,1,5.26,5.26,0,0,1,1.25,2.76,2.59,2.59,0,0,1-.85,2.1c-0.16-.21-0.32-0.4-0.45-0.55a5.43,5.43,0,0,1-.68-1.41,0.3,0.3,0,0,0-.25-0.2,0.29,0.29,0,0,0-.29.15s-0.39.69-.74,1.25a2.93,2.93,0,0,1-.25-1.15A5.71,5.71,0,0,1,21.92,20.4Zm-0.63,4.77c0.2-.31.46-0.74,0.66-1.08a4.24,4.24,0,0,0,.56,1A5.54,5.54,0,0,1,24,28a2.66,2.66,0,0,1-.87,2.24c-0.26-.33-0.52-0.61-0.71-0.81A5.56,5.56,0,0,1,21.65,28a0.3,0.3,0,0,0-.26-0.19,0.29,0.29,0,0,0-.28.16s-0.39.74-.74,1.32a2.91,2.91,0,0,1-.22-1A5.6,5.6,0,0,1,21.29,25.18Zm6-2.61a3.1,3.1,0,0,0-.14.76A5.12,5.12,0,0,1,26.44,26a3.06,3.06,0,0,1-.46.52l-0.23.08a12,12,0,0,0-1.31.5h0a5.46,5.46,0,0,0-.66-1.33,3.17,3.17,0,0,0,1.08-2.15A9.48,9.48,0,0,1,26.23,23l0.33-.13Zm0.09-4.19a3,3,0,0,0-.1.69,5.31,5.31,0,0,1-.58,2.6,2.79,2.79,0,0,1-.76.8c-0.23.09-.49,0.2-0.76,0.33l-0.27,0h0a4.89,4.89,0,0,0-.74-1.9v0A2.9,2.9,0,0,0,25,19.62a8,8,0,0,1,1.52-.86l0.22-.1Zm-0.14-4.2a2.85,2.85,0,0,0-.08.63,5.24,5.24,0,0,1-.5,2.52,2.35,2.35,0,0,1-1.42,1.16s0,0,0-.07a4.59,4.59,0,0,0-.65-2.26l0-.06h0a2.66,2.66,0,0,0,.7-0.76,8.89,8.89,0,0,1,1.3-.82l0.07,0Zm-0.62-3.93L27,10a2.67,2.67,0,0,0,0,.56A5.18,5.18,0,0,1,26.57,13a2.69,2.69,0,0,1-.81.94c0-.08,0-0.15,0-0.22a4.72,4.72,0,0,0-.57-2.37A7.25,7.25,0,0,1,26.58,10.26ZM23.3,8.65A5.53,5.53,0,0,1,24.5,6.16L25,5.52a4.67,4.67,0,0,0,.25.9,4.86,4.86,0,0,1,.53,2.5,2.39,2.39,0,0,1-.88,1.77,7.3,7.3,0,0,1-.35-1.3A0.3,0.3,0,0,0,24,9.26L23.46,10A2.91,2.91,0,0,1,23.3,8.65ZM21.47,10a2.7,2.7,0,0,0,.12-0.55l0.35,0.39A8.1,8.1,0,0,1,22.77,11a5.49,5.49,0,0,0-1,2.5c0,0.1,0,.19,0,0.28a2.5,2.5,0,0,1-.66-1.34A5.08,5.08,0,0,1,21.47,10Zm-1.41,4.24a2.89,2.89,0,0,0,.07-0.63L20.57,14a6.38,6.38,0,0,1,1.35,1.61,6.17,6.17,0,0,0-1,2.56,2.45,2.45,0,0,1-.93-1.35A5.09,5.09,0,0,1,20.05,14.24Zm-1.16,4.29a3.08,3.08,0,0,0,0-.72l0.56,0.38a6.42,6.42,0,0,1,1.61,1.51,3.07,3.07,0,0,0,.25.52,7.4,7.4,0,0,0-1.07,2.35A2.36,2.36,0,0,1,19,21.24,5.21,5.21,0,0,1,18.89,18.53Zm-0.42,3.83a7,7,0,0,1,1.73,1.27,3.33,3.33,0,0,0,.45,1.45,8.34,8.34,0,0,0-.9,1.86l-0.1,0a7.65,7.65,0,0,0-.9-0.54,3,3,0,0,1-.55-0.73,5.37,5.37,0,0,1-.36-2.84A3.23,3.23,0,0,0,17.78,22Zm-1.53,3.88,0.82,0.33a7.67,7.67,0,0,1,1.83,1.07,3.26,3.26,0,0,0,0,.67A3.48,3.48,0,0,0,20,29.87a9.64,9.64,0,0,0-.67,1.3,7.76,7.76,0,0,0-1.41-.71,3.47,3.47,0,0,1-.25-0.33,5.68,5.68,0,0,1-.6-3A3.46,3.46,0,0,0,16.94,26.25Zm-0.8,4.24,1,0.29a8.23,8.23,0,0,1,2,1,3.94,3.94,0,0,0-.2,1.53,3.5,3.5,0,0,0,.4,1.32c-0.12.19-.23,0.4-0.34,0.61a9.27,9.27,0,0,0-1.84-.71,5.9,5.9,0,0,1-.79-3A3.63,3.63,0,0,0,16.14,30.49Zm-0.22,5.34a3.83,3.83,0,0,0-.3-1.07L16.71,35a9.48,9.48,0,0,1,2,.74,4.82,4.82,0,0,0-.49,2.48,3.54,3.54,0,0,0,.29,1,10.55,10.55,0,0,0-1.79-.52A6.84,6.84,0,0,1,15.91,35.83Zm0.87,7.71a6.17,6.17,0,0,1-1.31-3.36A4,4,0,0,0,15.08,39c0.39,0.06.89,0.13,1.24,0.2a10.79,10.79,0,0,1,2,.56,5.78,5.78,0,0,0-.84,3.37,3.66,3.66,0,0,0,.39,1.14A3.4,3.4,0,0,1,16.78,43.54Zm4.18,2a2.84,2.84,0,0,1-2.89-2.48,6,6,0,0,1,1.11-3.59c0.25-.4.55-1,0.76-1.42a4.73,4.73,0,0,0,.82,1.08A6.34,6.34,0,0,1,23,42.27,2.92,2.92,0,0,1,21,45.55Zm5.71-6.22a3.53,3.53,0,0,0-.27,1,5.7,5.7,0,0,1-1,3,2.67,2.67,0,0,1-2,1H23.27a3.44,3.44,0,0,0,.29-2.09,4.15,4.15,0,0,0-.74-1.67,3.58,3.58,0,0,0,.37-0.37A11.46,11.46,0,0,1,25,39.66l0.62-.12Zm0.15-4.19a3.42,3.42,0,0,0-.24.93,5.78,5.78,0,0,1-.87,2.85l-0.2,0-0.59.12c-0.38.07-.82,0.17-1.25,0.28A3.43,3.43,0,0,0,24,37.43a3.77,3.77,0,0,0-.48-1.35,9.82,9.82,0,0,1,1.86-.57l0.56-.14Zm-0.05-3.32a5.53,5.53,0,0,1-.84,2.84l-0.09.1-0.11,0-0.54.13a10.75,10.75,0,0,0-1.9.57h0a3.35,3.35,0,0,0,.82-3.63,10.64,10.64,0,0,1,1.53-.52l0.49-.14L27,30.95A3.31,3.31,0,0,0,26.78,31.82Z" transform="translate(-7.78 -4.49)"/><path class="cls-1" d="M36.32,43.32a11.85,11.85,0,0,1-1.48,2.29,3,3,0,0,1-.94.29,5.53,5.53,0,0,0-2.17.53L31.82,46a12.6,12.6,0,0,0,1.49-2.27,0.24,0.24,0,0,0-.44-0.2,12.41,12.41,0,0,1-1.44,2.18,3.07,3.07,0,0,1-1,.32,5.78,5.78,0,0,0-2.13.55l0.09-.47A13.28,13.28,0,0,0,29.87,44a0.24,0.24,0,1,0-.43-0.21A13,13,0,0,1,28,45.85a3.07,3.07,0,0,1-1,.36,4.92,4.92,0,0,0-2.7.94,2.63,2.63,0,0,0-.94,2h0a2.14,2.14,0,0,0,0,.38A2.8,2.8,0,0,0,22.38,51a1.15,1.15,0,0,0,0,.25C9,52.58,8.85,59.64,8.85,59.94a0.24,0.24,0,0,0,.48,0c0-.07.19-6.93,13.07-8.25a2.85,2.85,0,0,0,.81,1.43,3,3,0,0,0,.91,1.68,5.54,5.54,0,0,0,3,1.19,3.56,3.56,0,0,1,1.15.47,8.25,8.25,0,0,1,1.95,2.73A0.24,0.24,0,0,0,30.66,59a8.6,8.6,0,0,0-2-2.86c0-.19-0.09-0.65-0.16-1.06a6.78,6.78,0,0,0,2.16.55,3.41,3.41,0,0,1,1.11.39,8.64,8.64,0,0,1,2.07,2.51,0.24,0.24,0,0,0,.43-0.21,9,9,0,0,0-2.14-2.62c0-.16-0.11-0.53-0.19-0.89a6.19,6.19,0,0,0,2.27.47,3.27,3.27,0,0,1,1.06.31,9.39,9.39,0,0,1,2.18,2.28,0.24,0.24,0,0,0,.41-0.25,9.73,9.73,0,0,0-2.26-2.38c0-.17-0.17-0.6-0.28-1a5.53,5.53,0,0,0,2.41.42,3.13,3.13,0,0,1,1,.22,10.57,10.57,0,0,1,2.26,2,0.24,0.24,0,0,0,.38-0.29A10.83,10.83,0,0,0,39,54.56c-0.05-.14-0.19-0.49-0.31-0.81a5,5,0,0,0,2.52.33,3.06,3.06,0,0,1,1,.14A13,13,0,0,1,44.53,56a0.24,0.24,0,1,0,.34-0.34,13.05,13.05,0,0,0-2.39-1.8C42.41,53.68,42.21,53.27,42,53l0.24,0.12a4.76,4.76,0,0,0,2.45.14,3,3,0,0,1,.94.06h0.07l0,0A10,10,0,0,1,48,54.86a0.24,0.24,0,0,0,.34-0.34A10.35,10.35,0,0,0,46,52.89a0.23,0.23,0,0,0-.11,0l-0.45-.69a2.85,2.85,0,0,0,.45.18,4.63,4.63,0,0,0,2.34-.08,2.87,2.87,0,0,1,.86,0,14,14,0,0,1,2.42,1.41,0.24,0.24,0,0,0,.3-0.38,14.08,14.08,0,0,0-2.49-1.46l-0.54-.64a2.92,2.92,0,0,0,.69.23,4.54,4.54,0,0,0,2.23-.29,2.8,2.8,0,0,1,.82-0.1c1.57,0.64,2.35,1.05,2.35,1.06a0.24,0.24,0,0,0,.23-0.42s-0.8-.42-2.4-1.08c-0.11-.1-0.48-0.45-0.72-0.65l-0.43-.35a2.93,2.93,0,0,0,1.14.09,4.91,4.91,0,0,0,2.25-1.06l1-.74a0.24,0.24,0,0,0-.12-0.43,5.58,5.58,0,0,1-1.15-.25,4.35,4.35,0,0,0-2.26-.47,3.14,3.14,0,0,0-.67.15l0-.07c0.17-.28.44-0.75,0.5-0.85A9.06,9.06,0,0,1,54,44.33a0.24,0.24,0,1,0-.25-0.41,9.13,9.13,0,0,0-1.78,1.67,2.79,2.79,0,0,1-.79.14,4.54,4.54,0,0,0-2.22.39,3.28,3.28,0,0,0-.36.23l0.29-.57a10.88,10.88,0,0,1,1.67-1.66,0.24,0.24,0,0,0-.28-0.39,11,11,0,0,0-1.74,1.72,2.83,2.83,0,0,1-.82.17,4.55,4.55,0,0,0-2.28.47l-0.21.15,0.25-.58a16.83,16.83,0,0,1,1.64-1.75,0.24,0.24,0,0,0-.31-0.37,16.56,16.56,0,0,0-1.68,1.78,2.82,2.82,0,0,1-.85.2,4.67,4.67,0,0,0-2.33.54L42,45.72c1.06-1.27,1.62-2,1.63-2a0.24,0.24,0,1,0-.39-0.29s-0.56.75-1.61,2a2.89,2.89,0,0,1-.88.23,5,5,0,0,0-2.28.54l0.12-.37a17.31,17.31,0,0,0,1.59-2.24,0.24,0.24,0,0,0-.42-0.24,17.28,17.28,0,0,1-1.54,2.16,2.93,2.93,0,0,1-.91.26,5.27,5.27,0,0,0-2.22.53l0.1-.37a12.19,12.19,0,0,0,1.55-2.39A0.24,0.24,0,1,0,36.32,43.32Zm1.48,3.4-0.12.34a8.49,8.49,0,0,1-.44,1.11l-0.17,0a2.65,2.65,0,0,0-2.22.9,4.91,4.91,0,0,0-.51-0.31,9,9,0,0,0,.44-1.3l0.11-.38v0l0.23-.2a4.41,4.41,0,0,1,2.23-.61A2.66,2.66,0,0,0,38,46.09C38,46.3,37.87,46.54,37.81,46.72Zm-4.62,2.14a4.72,4.72,0,0,1,2.38,1.39,3.53,3.53,0,0,0,.84.52c-0.3.17-.69,0.39-1,0.56a4.58,4.58,0,0,1-2.64.92,2.39,2.39,0,0,1-.6-0.14c0.5-.28,1.09-0.58,1.1-0.58a0.23,0.23,0,0,0,.13-0.22,0.24,0.24,0,0,0-.15-0.21,4.5,4.5,0,0,1-1.15-.7,10.67,10.67,0,0,0-.87-0.81A2.19,2.19,0,0,1,33.19,48.86Zm-1.4,1.87a3.7,3.7,0,0,0,.86.59c-0.32.17-.76,0.4-1.06,0.59a4.92,4.92,0,0,1-2.77.91,2.54,2.54,0,0,1-.44-0.1c0.52-.28,1.14-0.58,1.14-0.58a0.24,0.24,0,0,0,.14-0.22h0a0.24,0.24,0,0,0-.14-0.22,4.55,4.55,0,0,1-1.15-.77,10.08,10.08,0,0,0-1.08-1,2.24,2.24,0,0,1,2-.74A5,5,0,0,1,31.79,50.73Zm16-.91,0.66-.44a0.24,0.24,0,0,0-.08-0.44,4.69,4.69,0,0,1-1.14-.4L47,48.44a2,2,0,0,1,1.57-.78,4,4,0,0,1,2.09.62,3.53,3.53,0,0,0,.75.26l-0.6.44a4.49,4.49,0,0,1-2.13,1A2.39,2.39,0,0,1,47.74,49.81Zm-3,.87a2.34,2.34,0,0,1-1-.19l0.89-.56a0.24,0.24,0,0,0-.06-0.44A4.45,4.45,0,0,1,43.42,49l-0.27-.2a2.05,2.05,0,0,1,1.61-.7,4.12,4.12,0,0,1,2.16.81,3.39,3.39,0,0,0,.77.32L47,49.74A4.56,4.56,0,0,1,44.74,50.68Zm-4,.55a2.37,2.37,0,0,1-.93-0.2c0.45-.28,1-0.59,1-0.6A0.24,0.24,0,0,0,41,50.21,0.24,0.24,0,0,0,40.8,50a4.33,4.33,0,0,1-1.14-.55l-0.45-.36a2.1,2.1,0,0,1,1.7-.69,4.25,4.25,0,0,1,2.23,1,3.44,3.44,0,0,0,.79.39l-0.78.5A4.6,4.6,0,0,1,40.77,51.24Zm-4,.5A2.34,2.34,0,0,1,36,51.55c0.47-.28,1.06-0.59,1.07-0.6a0.23,0.23,0,0,0,.13-0.23A0.24,0.24,0,0,0,37,50.52a4.5,4.5,0,0,1-1.14-.62c-0.16-.15-0.39-0.36-0.66-0.57a2.15,2.15,0,0,1,1.81-.7,4.48,4.48,0,0,1,2.3,1.2,3.47,3.47,0,0,0,.81.45c-0.28.16-.62,0.37-0.87,0.53A4.51,4.51,0,0,1,36.78,51.74Zm4.4-5.18-0.11.27a7.8,7.8,0,0,1-.52,1.11,2.56,2.56,0,0,0-1.73.87,4.38,4.38,0,0,0-1.07-.53v0a10,10,0,0,0,.4-1.06L38.21,47a2.43,2.43,0,0,1,.42-0.37,4.15,4.15,0,0,1,2.16-.54A2.57,2.57,0,0,0,41.4,46C41.33,46.19,41.25,46.4,41.18,46.56Zm3.38-.14-0.08.18a6.51,6.51,0,0,1-.7,1.22,2.34,2.34,0,0,0-1,.72h0A4,4,0,0,0,41.2,48v0a1.23,1.23,0,0,1,0-.22c0.1-.22.19-0.43,0.26-0.61a2.25,2.25,0,0,1,.65-0.62,4.28,4.28,0,0,1,2.1-.47,2.47,2.47,0,0,0,.56-0.09Zm3.39,0,0,0.06a7.2,7.2,0,0,1-.67,1,2.14,2.14,0,0,0-.61.57h0l-0.05,0a3.71,3.71,0,0,0-1.82-.53H44.7a1.89,1.89,0,0,1,.94-1.15,4.22,4.22,0,0,1,2-.4A2.43,2.43,0,0,0,48.17,46Zm2.53,1.17a3.81,3.81,0,0,0-1.91-.46l-0.18,0a2.18,2.18,0,0,1,.76-0.65,4.17,4.17,0,0,1,2-.33,2.28,2.28,0,0,0,.45,0l-0.22.36A5.84,5.84,0,0,1,50.48,47.64Zm1,1.42,0.62-.44a0.24,0.24,0,0,0,.1-0.25,0.24,0.24,0,0,0-.19-0.18A5.9,5.9,0,0,1,51,47.9a1.93,1.93,0,0,1,1.43-.71,3.93,3.93,0,0,1,2,.43,3.64,3.64,0,0,0,.72.2l-0.52.4a4.46,4.46,0,0,1-2,1A2.37,2.37,0,0,1,51.53,49.06Zm-2,1.88a2,2,0,0,1-1.08-.53h0.23a4.43,4.43,0,0,0,2-.79,6.33,6.33,0,0,1,.93.67L52,50.57a2.08,2.08,0,0,0-.44.1A4.09,4.09,0,0,1,49.57,50.94ZM46,51.9A2,2,0,0,1,45,51.15,5,5,0,0,0,47,50.3a5.16,5.16,0,0,1,1.3,1.09l0.31,0.36a2.26,2.26,0,0,0-.51.06A4.1,4.1,0,0,1,46,51.9Zm-3.57.75a1.9,1.9,0,0,1-1.08-1,6,6,0,0,0,1.9-.87,2.61,2.61,0,0,0,.42.2,5.17,5.17,0,0,1,1.22,1.3l0.3,0.45a2.46,2.46,0,0,0-.59,0A4.2,4.2,0,0,1,42.48,52.65Zm-0.62,1a2.64,2.64,0,0,0-.66,0,4.35,4.35,0,0,1-2.29-.29,2.4,2.4,0,0,1-.59-0.44,6.38,6.38,0,0,0-.44-0.73,0.83,0.83,0,0,1,0-.08,6.71,6.71,0,0,0,1.51-.72,2.69,2.69,0,0,0,1.17.37,5.61,5.61,0,0,1,1,1.39C41.65,53.25,41.76,53.46,41.86,53.65Zm-4.15.58a4.59,4.59,0,0,1-2.39-.48,2.6,2.6,0,0,1-.27-0.2,6.28,6.28,0,0,0-.58-1.14,7.77,7.77,0,0,0,1-.54,2.81,2.81,0,0,0,1.24.36,2.69,2.69,0,0,0,.54,0,6.19,6.19,0,0,1,.87,1.48c0.08,0.19.18,0.44,0.27,0.66A2.8,2.8,0,0,0,37.7,54.22Zm-3.5.58a4.75,4.75,0,0,1-2.45-.63,7.48,7.48,0,0,0-.57-1.48l0.5-.28a2.84,2.84,0,0,0,1.07.32A3.16,3.16,0,0,0,34,52.57a6.64,6.64,0,0,1,.78,1.63c0.07,0.22.16,0.52,0.24,0.77A3,3,0,0,0,34.21,54.8Zm-5.83-.3A8.49,8.49,0,0,0,28,53.05a2.88,2.88,0,0,0,.81.23,3.92,3.92,0,0,0,2-.4,7.63,7.63,0,0,1,.59,1.62c0.06,0.25.14,0.6,0.2,0.89a3.07,3.07,0,0,0-.86-0.24A5.51,5.51,0,0,1,28.37,54.5Zm-4.52-.93a3,3,0,0,0,.92.32,4.67,4.67,0,0,0,2.72-.68,8.76,8.76,0,0,1,.45,1.62c0.05,0.28.11,0.69,0.16,1a3.27,3.27,0,0,0-.93-0.31,5,5,0,0,1-2.72-1.06A2.74,2.74,0,0,1,23.85,53.57Zm1.64-4.11A5.13,5.13,0,0,1,28,51.24a3.84,3.84,0,0,0,.88.66c-0.34.17-.82,0.42-1.15,0.62a4.87,4.87,0,0,1-2.9.89,2.29,2.29,0,0,1-2-2.34A2.36,2.36,0,0,1,25.49,49.46Zm2.21-2.17c0,0.14-.06.31-0.1,0.5a9.19,9.19,0,0,1-.38,1.5,2.83,2.83,0,0,0-.3.3,3.36,3.36,0,0,0-1.35-.6,2.78,2.78,0,0,0-1.69.23s0-.07,0-0.1a2.15,2.15,0,0,1,.78-1.61,4.6,4.6,0,0,1,2.42-.81,2.86,2.86,0,0,0,.79-0.22C27.82,46.73,27.75,47.06,27.7,47.29Zm3.37-.19c0,0.13-.07.28-0.11,0.45a7.93,7.93,0,0,1-.46,1.5,3.06,3.06,0,0,0-1.09-.39,2.77,2.77,0,0,0-1.56.23c0.09-.35.17-0.7,0.23-1s0.06-.35.1-0.48l0-.16a4.67,4.67,0,0,1,2.3-.7,2.82,2.82,0,0,0,.75-0.19C31.2,46.59,31.12,46.88,31.07,47.1Zm3.57-.88c-0.06.23-.14,0.5-0.2,0.69s-0.07.25-.12,0.4a8.62,8.62,0,0,1-.42,1.23A2.71,2.71,0,0,0,31,49.2h0a8.68,8.68,0,0,0,.46-1.54c0-.16.07-0.31,0.1-0.43l0-.09,0.09-.08a4.47,4.47,0,0,1,2.29-.68A2.67,2.67,0,0,0,34.64,46.21Z" transform="translate(-7.78 -4.49)"/><path class="cls-1" d="M14.8,75.05a2.9,2.9,0,0,1-1.17,1,4.48,4.48,0,0,1-2.13.46,3.41,3.41,0,0,1-2.69-1.18,4.5,4.5,0,0,1-1-3.07V70.66a4.34,4.34,0,0,1,1-3,3.31,3.31,0,0,1,2.61-1.15,3.64,3.64,0,0,1,2.47.8,2.49,2.49,0,0,1,.89,2v0h-0.3a2.32,2.32,0,0,0-.79-1.82,3.27,3.27,0,0,0-2.25-.71,3,3,0,0,0-2.36,1,4,4,0,0,0-.89,2.69v1.59a4.19,4.19,0,0,0,.92,2.81,3.05,3.05,0,0,0,2.44,1.09,4.27,4.27,0,0,0,1.92-.38,2.31,2.31,0,0,0,1-.87V72.14h-3V71.77H14.8v3.28Z" transform="translate(-7.78 -4.49)"/><path class="cls-1" d="M16.76,76H22v0.36H16.39V66.69h0.37V76Z" transform="translate(-7.78 -4.49)"/><path class="cls-1" d="M29,66.69v6.42A3.31,3.31,0,0,1,28,75.6a3.61,3.61,0,0,1-4.76,0,3.31,3.31,0,0,1-.92-2.49V66.69h0.36v6.42a3,3,0,0,0,.83,2.2,3.11,3.11,0,0,0,4.22,0,3,3,0,0,0,.83-2.2V66.69H29Z" transform="translate(-7.78 -4.49)"/><path class="cls-1" d="M36.85,67H33.46v9.31H33.11V67H29.48V66.69h7.37V67Z" transform="translate(-7.78 -4.49)"/><path class="cls-1" d="M42.48,71.49H37.83V76h5.33v0.36H37.47V66.69h5.68V67H37.83v4.09h4.65v0.36Z" transform="translate(-7.78 -4.49)"/><path class="cls-1" d="M50.85,76.36H50.49l-6.2-9h0v9H43.88V66.69h0.37l6.2,9h0v-9h0.36v9.67Z" transform="translate(-7.78 -4.49)"/></svg>