<svg id="Layer_1" data-name="Layer 1" xmlns="http://www.w3.org/2000/svg" viewBox="0 0 27.02 72"><defs><style>.cls-1{fill:#010101;}</style></defs><title>milk_icon</title><path class="cls-1" d="M18.44,78.17h0l4.19-9.44h0.42v10H22.72V69.65h0l-4.07,9.13h-0.3l-4.16-9.33h0v9.32H13.74v-10h0.52Z" transform="translate(-13.74 -6.76)"/><path class="cls-1" d="M25.37,78.76H25v-10h0.37v10Z" transform="translate(-13.74 -6.76)"/><path class="cls-1" d="M27.65,78.39h5.42v0.37h-5.8v-10h0.38v9.66Z" transform="translate(-13.74 -6.76)"/><path class="cls-1" d="M35.56,73.79H34.3v5H33.93v-10H34.3v4.7h1.36l4.12-4.7h0.44v0L36,73.66l4.79,5.06,0,0H40.31Z" transform="translate(-13.74 -6.76)"/><path class="cls-1" d="M37.69,15.19v0l-5.13-4.59V7.4a0.62,0.62,0,0,0-.63-0.63H31.84l-9.48.84a0.75,0.75,0,0,0-.63.73V9.91a4.45,4.45,0,0,0-1.86,1.32l0,0v0h0a1.57,1.57,0,0,0-.27,1.2h0L19.77,13l-2.84,2.1-0.06,0h0a1.05,1.05,0,0,0-.4.82V58.1a1.23,1.23,0,0,0,1,1.18l8.09,1.49a5,5,0,0,0,.66.06l0.12,0,0.09,0a4.51,4.51,0,0,0,.69,0l10-1.53a1.2,1.2,0,0,0,1-1.16V16A1,1,0,0,0,37.69,15.19Zm-1.52-.54L30,12.85l2.26-1.73Zm-1.27.28H27.24l2.1-1.61ZM22.42,8.22l9.5-.82v3l-5.75.29L25.8,9.87c0-.09-0.14-0.32-1.16-0.66h0a1.19,1.19,0,0,0-.29,0,6.22,6.22,0,0,0-2,.49V8.33A0.14,0.14,0,0,1,22.42,8.22Zm3.08,2.5L26,11.85a5.11,5.11,0,0,1-2.36,1.54A5.71,5.71,0,0,1,20.9,14l-0.51-1.16h0a8.79,8.79,0,0,0,2.69-.7A8,8,0,0,0,25.5,10.72Zm-3.2-.39a6.38,6.38,0,0,1,2-.55,6.27,6.27,0,0,1-1.79,1,6.4,6.4,0,0,1-2,.55A6.29,6.29,0,0,1,22.3,10.33Zm0.45,1.06a8.57,8.57,0,0,0,1.62-.87A2.07,2.07,0,0,0,24.93,10l0.28,0.12a5.47,5.47,0,0,1-2.35,1.51,5.64,5.64,0,0,1-2.71.63A1.9,1.9,0,0,1,20.22,12a1.21,1.21,0,0,0,.27,0A6.69,6.69,0,0,0,22.75,11.4ZM26,60.2l-0.37,0-8.09-1.49a0.62,0.62,0,0,1-.48-0.57V16a0.43,0.43,0,0,1,.43-0.43H26V60.2Zm0.2-45.27h-8L20,13.58l0.31,0.71a0.83,0.83,0,0,0,.85.38,8.8,8.8,0,0,0,2.69-.7,9.68,9.68,0,0,0,2-1.09c0.63-.47.87-0.87,0.72-1.22l-0.14-.33,4.82-.24ZM37.43,58.1a0.58,0.58,0,0,1-.47.55L27,60.18l-0.38,0V15.55H37l0.08,0,0.1,0a0.43,0.43,0,0,1,.25.39V58.1Z" transform="translate(-13.74 -6.76)"/></svg>