<svg id="Layer_1" data-name="Layer 1" xmlns="http://www.w3.org/2000/svg" viewBox="0 0 56.51 72"><defs><style>.cls-1{fill:#010101;}</style></defs><title>mollusc_icon</title><path class="cls-1" d="M62.91,34.54c0-.37,0-0.74,0-1.11A26.66,26.66,0,0,0,57,16.69a0.31,0.31,0,0,0-.08-0.1,27.07,27.07,0,0,0-3.23-3.35,0.31,0.31,0,0,0-.1-0.09,26.86,26.86,0,0,0-3.76-2.73,0.3,0.3,0,0,0-.14-0.08,26.64,26.64,0,0,0-4.15-2,0.31,0.31,0,0,0-.13-0.05h0a26.68,26.68,0,0,0-9.29-1.67h0A26.67,26.67,0,0,0,26.85,8.3h0a0.33,0.33,0,0,0-.13.05,26.64,26.64,0,0,0-4.15,2,0.31,0.31,0,0,0-.14.08,26.83,26.83,0,0,0-3.76,2.73,0.31,0.31,0,0,0-.11.09,27.07,27.07,0,0,0-3.23,3.35,0.32,0.32,0,0,0-.08.1A26.66,26.66,0,0,0,9.36,33.42c0,0.37,0,.74,0,1.11a0.24,0.24,0,0,0,0,0,26.87,26.87,0,0,0,.5,4.18,3.82,3.82,0,0,0,.38,1l0,0a4.21,4.21,0,0,0,.42.64,34.91,34.91,0,0,1,5.45,8.68c2.06,5.29,3.55,9.12,6.89,9.12H33.34a5.12,5.12,0,0,0,2.81,1,5.12,5.12,0,0,0,2.81-1H49.23c3.35,0,4.83-3.82,6.89-9.12a34.9,34.9,0,0,1,5.45-8.68A4.14,4.14,0,0,0,62,39.78l0,0a3.82,3.82,0,0,0,.38-1,26.88,26.88,0,0,0,.5-4.18A0.3,0.3,0,0,0,62.91,34.54Zm-1.13,4.1a3.19,3.19,0,0,1-.3.77L49.56,48.92,62.21,35.44A26.18,26.18,0,0,1,61.77,38.63ZM42.54,54.54L59.4,21.48a26,26,0,0,1,1.53,3.62L42.64,54.46ZM59,20.79L41.32,55.51l-0.06.05L56.85,17.48A26.29,26.29,0,0,1,59,20.79Zm3,8.92L44.24,53.11,61.19,25.9A25.93,25.93,0,0,1,62,29.7Zm0.27,3.72c0,0.34,0,.68,0,1l-16,17.06L62.14,30.61A26.3,26.3,0,0,1,62.29,33.42ZM56.39,16.9L40.23,56.39l-0.07.06L53.64,14A26.48,26.48,0,0,1,56.39,16.9ZM38.27,57.38L45.66,9.07a26,26,0,0,1,3.63,1.76L38.44,57.42Zm-0.84-.18L41.15,7.76A25.81,25.81,0,0,1,45,8.83l-7.4,48.4Zm-3.56.23L23,10.83a26,26,0,0,1,3.63-1.76L34,57.38ZM22.43,11.17L33.16,57.26,33,57.17,19.19,13.54A26.34,26.34,0,0,1,22.43,11.17ZM34.66,57.23l-7.4-48.4a25.81,25.81,0,0,1,3.9-1.08l3.72,49.44Zm0.85-.12L31.79,7.64a26.18,26.18,0,0,1,4-.36l0,49.81Zm1,0,0-49.82a26.16,26.16,0,0,1,4.05.36L36.79,57.11ZM53.11,13.54L39.25,57.17l-0.12.1L49.87,11.17A26.48,26.48,0,0,1,53.11,13.54ZM18.66,14L32.14,56.45l-0.07-.06L15.91,16.9A26.44,26.44,0,0,1,18.66,14ZM10.82,39.4a3.17,3.17,0,0,1-.3-0.77,26.13,26.13,0,0,1-.43-3.19L22.74,48.92Zm0.29-13.5,17,27.21L10.27,29.7A26,26,0,0,1,11.11,25.9ZM10,33.42a26.3,26.3,0,0,1,.15-2.81L26,51.5,10,34.44C10,34.1,10,33.76,10,33.42Zm19.66,21L11.37,25.1a26,26,0,0,1,1.53-3.62L29.76,54.54ZM31,55.51L13.27,20.79a26.28,26.28,0,0,1,2.18-3.31L31,55.56Zm-14.2-6.64a32.42,32.42,0,0,0-4.4-7.4L25.82,52.21,25.9,52.3a0.31,0.31,0,0,0,.13.08l1.71,1.37v0a0.3,0.3,0,0,0,.13.1l1.34,1.07L29.3,55l3.23,2.58H23.07C20.16,57.58,18.74,53.92,16.77,48.87Zm19.38,9.7a4.17,4.17,0,0,1-2-.57,7.12,7.12,0,0,1,3.92,0A4.15,4.15,0,0,1,36.15,58.57Zm19.38-9.7c-2,5.06-3.39,8.71-6.29,8.71H39.77L43,55a0.31,0.31,0,0,0,.08-0.06l1.33-1.07a0.3,0.3,0,0,0,.13-0.1v0l1.71-1.37a0.33,0.33,0,0,0,.13-0.08l0.08-.09L59.92,41.46A32.43,32.43,0,0,0,55.53,48.87Z" transform="translate(-8.1 -6.63)"/><path class="cls-1" d="M13,77.87h0l4.35-9.79h0.44V78.48H17.4V69h0l-4.22,9.46H12.83L8.52,68.81h0v9.66H8.1V68.07H8.63Z" transform="translate(-8.1 -6.63)"/><path class="cls-1" d="M26.85,74.06a5,5,0,0,1-1,3.34,3.56,3.56,0,0,1-2.87,1.23A3.58,3.58,0,0,1,20,77.4a5,5,0,0,1-1-3.34V72.5a5,5,0,0,1,1-3.34,3.56,3.56,0,0,1,2.88-1.24,3.58,3.58,0,0,1,2.88,1.24,5,5,0,0,1,1.05,3.34v1.56Zm-0.39-1.57a4.67,4.67,0,0,0-.92-3,3.19,3.19,0,0,0-2.62-1.13,3.17,3.17,0,0,0-2.61,1.13,4.7,4.7,0,0,0-.92,3v1.57a4.71,4.71,0,0,0,.92,3.06,3.18,3.18,0,0,0,2.62,1.13,3.18,3.18,0,0,0,2.62-1.13,4.72,4.72,0,0,0,.91-3.06V72.48Z" transform="translate(-8.1 -6.63)"/><path class="cls-1" d="M28.45,78.09h5.63v0.39h-6V68.07h0.39v10Z" transform="translate(-8.1 -6.63)"/><path class="cls-1" d="M35.35,78.09H41v0.39H35V68.07h0.39v10Z" transform="translate(-8.1 -6.63)"/><path class="cls-1" d="M48.49,68.07V75a3.57,3.57,0,0,1-1,2.68,3.88,3.88,0,0,1-5.13,0,3.57,3.57,0,0,1-1-2.68V68.07h0.39V75a3.19,3.19,0,0,0,.9,2.37,3.35,3.35,0,0,0,4.55,0A3.19,3.19,0,0,0,48.1,75V68.07h0.39Z" transform="translate(-8.1 -6.63)"/><path class="cls-1" d="M56.21,76a1.71,1.71,0,0,0-.73-1.44A9.26,9.26,0,0,0,53,73.46a9.16,9.16,0,0,1-2.59-1.14,2.05,2.05,0,0,1-.83-1.78,2.26,2.26,0,0,1,1-1.9A4,4,0,0,1,53,67.92a3.75,3.75,0,0,1,2.51.8A2.7,2.7,0,0,1,56.44,71v0H56.09a2.47,2.47,0,0,0-.86-1.93A3.21,3.21,0,0,0,53,68.31a3.49,3.49,0,0,0-2.24.66,2,2,0,0,0-.83,1.56A1.82,1.82,0,0,0,50.61,72a7.38,7.38,0,0,0,2.49,1.1,10.11,10.11,0,0,1,2.64,1.16A2,2,0,0,1,56.61,76a2.21,2.21,0,0,1-1,1.9,4.3,4.3,0,0,1-2.52.71,4.84,4.84,0,0,1-2.69-.73,2.47,2.47,0,0,1-1.09-2.3v0h0.32a2.23,2.23,0,0,0,1,2.06,4.52,4.52,0,0,0,2.41.64,3.81,3.81,0,0,0,2.26-.63A1.88,1.88,0,0,0,56.21,76Z" transform="translate(-8.1 -6.63)"/><path class="cls-1" d="M64.59,75.29v0a3,3,0,0,1-1,2.45,3.92,3.92,0,0,1-2.63.85,3.35,3.35,0,0,1-2.74-1.26,5.08,5.08,0,0,1-1-3.31V72.5a5.08,5.08,0,0,1,1-3.31A3.35,3.35,0,0,1,61,67.92a3.91,3.91,0,0,1,2.63.85,2.94,2.94,0,0,1,1,2.43v0H64.26a2.73,2.73,0,0,0-.88-2.17A3.49,3.49,0,0,0,61,68.31a3,3,0,0,0-2.45,1.15,4.67,4.67,0,0,0-.93,3v1.57a4.69,4.69,0,0,0,.93,3A3,3,0,0,0,61,78.24a3.58,3.58,0,0,0,2.38-.74,2.73,2.73,0,0,0,.88-2.22h0.33Z" transform="translate(-8.1 -6.63)"/></svg>