<svg id="Layer_1" data-name="Layer 1" xmlns="http://www.w3.org/2000/svg" viewBox="0 0 71.29 72"><defs><style>.cls-1{fill:#010101;}</style></defs><title>mushroom_icon</title><path class="cls-1" d="M11.21,77.83h0l4.3-9.69H16V78.44H15.6V69.09h0l-4.17,9.36h-0.3L6.82,68.88h0v9.56H6.39V68.15H6.92Z" transform="translate(-6.39 -6.59)"/><path class="cls-1" d="M24.58,68.15V75a3.52,3.52,0,0,1-1,2.65,3.48,3.48,0,0,1-2.53,1,3.48,3.48,0,0,1-2.54-1,3.53,3.53,0,0,1-1-2.65V68.15h0.38V75a3.15,3.15,0,0,0,.89,2.34,3.31,3.31,0,0,0,4.5,0A3.15,3.15,0,0,0,24.2,75V68.15h0.38Z" transform="translate(-6.39 -6.59)"/><path class="cls-1" d="M32.22,76a1.69,1.69,0,0,0-.72-1.42A9.16,9.16,0,0,0,29,73.48a9.07,9.07,0,0,1-2.56-1.12,2,2,0,0,1-.82-1.76,2.23,2.23,0,0,1,1-1.88A4,4,0,0,1,29.06,68a3.71,3.71,0,0,1,2.48.79A2.66,2.66,0,0,1,32.44,71v0H32.1a2.45,2.45,0,0,0-.85-1.91,3.18,3.18,0,0,0-2.2-.76,3.46,3.46,0,0,0-2.21.65A1.93,1.93,0,0,0,26,70.58,1.8,1.8,0,0,0,26.68,72a7.27,7.27,0,0,0,2.46,1.09,10,10,0,0,1,2.61,1.15A2,2,0,0,1,32.61,76a2.19,2.19,0,0,1-1,1.88,4.25,4.25,0,0,1-2.5.71,4.79,4.79,0,0,1-2.66-.72,2.45,2.45,0,0,1-1.08-2.28v0h0.32a2.2,2.2,0,0,0,1,2,4.47,4.47,0,0,0,2.38.63,3.78,3.78,0,0,0,2.23-.63A1.86,1.86,0,0,0,32.22,76Z" transform="translate(-6.39 -6.59)"/><path class="cls-1" d="M41,78.44H40.59V73.53H34v4.91H33.63V68.15H34v5h6.58v-5H41V78.44Z" transform="translate(-6.39 -6.59)"/><path class="cls-1" d="M43,73.61v4.84H42.6V68.16H46a3.91,3.91,0,0,1,2.5.7,2.48,2.48,0,0,1,.88,2.05,2.51,2.51,0,0,1-.56,1.58,2.55,2.55,0,0,1-1.52.92,2.44,2.44,0,0,1,1.59.81,2.53,2.53,0,0,1,.48,1.59v1a3,3,0,0,0,.12.86,1.34,1.34,0,0,0,.39.62v0.18H49.46a1.89,1.89,0,0,1-.38-0.72,3.34,3.34,0,0,1-.13-1V75.83a2,2,0,0,0-.72-1.63,3.16,3.16,0,0,0-2-.59H43Zm0-.38h2.9a3.42,3.42,0,0,0,2.32-.66,2.32,2.32,0,0,0,0-3.42A3.5,3.5,0,0,0,46,68.54H43v4.69Z" transform="translate(-6.39 -6.59)"/><path class="cls-1" d="M58.41,74.07a5,5,0,0,1-1,3.31,3.93,3.93,0,0,1-5.69,0,4.94,4.94,0,0,1-1-3.31V72.52a5,5,0,0,1,1-3.3,3.93,3.93,0,0,1,5.7,0,4.93,4.93,0,0,1,1,3.3v1.54ZM58,72.51a4.62,4.62,0,0,0-.91-3,3.55,3.55,0,0,0-5.17,0,4.64,4.64,0,0,0-.91,3v1.56a4.66,4.66,0,0,0,.91,3,3.56,3.56,0,0,0,5.18,0,4.66,4.66,0,0,0,.9-3V72.51Z" transform="translate(-6.39 -6.59)"/><path class="cls-1" d="M66.9,74.07a5,5,0,0,1-1,3.31,3.93,3.93,0,0,1-5.69,0,4.94,4.94,0,0,1-1-3.31V72.52a5,5,0,0,1,1-3.3,3.93,3.93,0,0,1,5.7,0,4.93,4.93,0,0,1,1,3.3v1.54Zm-0.38-1.56a4.62,4.62,0,0,0-.91-3,3.55,3.55,0,0,0-5.17,0,4.64,4.64,0,0,0-.91,3v1.56a4.66,4.66,0,0,0,.91,3,3.56,3.56,0,0,0,5.18,0,4.66,4.66,0,0,0,.9-3V72.51Z" transform="translate(-6.39 -6.59)"/><path class="cls-1" d="M72.91,77.83h0l4.3-9.69h0.43V78.44H77.3V69.09h0l-4.17,9.36h-0.3l-4.26-9.57h0v9.56H68.1V68.15h0.53Z" transform="translate(-6.39 -6.59)"/><path class="cls-1" d="M61.46,19.51C60.06,12.15,51.71,6.59,42,6.59S24,12.15,22.62,19.51a2,2,0,0,0,.44,1.69,2.4,2.4,0,0,0,1.84.84H36.5a77.37,77.37,0,0,1-2.29,16.89,38.43,38.43,0,0,0-1.34,9,8.85,8.85,0,0,0,16.61,4.27h0a0.32,0.32,0,0,0,.07-0.13,8.8,8.8,0,0,0,1-4.14c0-6.52-1.13-15.94-3.09-25.91H59.18A2.4,2.4,0,0,0,61,21.2,2,2,0,0,0,61.46,19.51ZM41.73,56.17A8.23,8.23,0,0,1,34.09,51a1.56,1.56,0,0,1,1-.62h0a1.22,1.22,0,0,1,.67.32,2.07,2.07,0,0,0,.81.42,1.44,1.44,0,0,0,1.28-.49,2.44,2.44,0,0,1,.37-0.28,1.19,1.19,0,0,1,1.25.3,2,2,0,0,0,1.86.38,4.71,4.71,0,0,0,.47-0.2,1.47,1.47,0,0,1,1-.23,1.51,1.51,0,0,1,.58.36,2.87,2.87,0,0,0,.52.38,1.92,1.92,0,0,0,1.69-.08,2.43,2.43,0,0,1,2-.21,4.65,4.65,0,0,1,1.18.9l0.13,0.12A8.22,8.22,0,0,1,41.73,56.17Zm8.22-8.22a8.17,8.17,0,0,1-.8,3.52,5.18,5.18,0,0,0-1.35-1,3.05,3.05,0,0,0-2.51.2,1.31,1.31,0,0,1-1.16.11,2.33,2.33,0,0,1-.41-0.3,2.06,2.06,0,0,0-.83-0.5,2,2,0,0,0-1.38.27,4.15,4.15,0,0,1-.41.17,1.42,1.42,0,0,1-1.34-.33,1.75,1.75,0,0,0-1.87-.3,2.9,2.9,0,0,0-.48.36,0.88,0.88,0,0,1-.74.35,1.57,1.57,0,0,1-.56-0.31,1.75,1.75,0,0,0-1-.45h0a1.79,1.79,0,0,0-1.21.59,8.19,8.19,0,0,1-.35-2.36,38,38,0,0,1,1.33-8.88,77.86,77.86,0,0,0,2.3-17h9.71C48.82,32,49.95,41.45,49.95,47.95ZM60.53,20.79a1.76,1.76,0,0,1-1.35.61H24.89a1.76,1.76,0,0,1-1.35-.61,1.39,1.39,0,0,1-.3-1.16c1.34-7.07,9.42-12.4,18.8-12.4s17.46,5.33,18.8,12.4A1.39,1.39,0,0,1,60.53,20.79Z" transform="translate(-6.39 -6.59)"/></svg>