<svg id="Layer_1" data-name="Layer 1" xmlns="http://www.w3.org/2000/svg" viewBox="0 0 51.62 72"><defs><style>.cls-1{fill:#010101;}</style></defs><title>sesame_icon</title><path class="cls-1" d="M15.51,75.86a1.84,1.84,0,0,0-.79-1.55A10,10,0,0,0,12,73.1a9.87,9.87,0,0,1-2.79-1.22A2.21,2.21,0,0,1,8.34,70a2.43,2.43,0,0,1,1.05-2,4.35,4.35,0,0,1,2.67-.78,4,4,0,0,1,2.7.86,2.9,2.9,0,0,1,1,2.41v0H15.38a2.67,2.67,0,0,0-.92-2.08,3.46,3.46,0,0,0-2.4-.82,3.76,3.76,0,0,0-2.41.71,2.11,2.11,0,0,0-.89,1.68,2,2,0,0,0,.72,1.57,7.93,7.93,0,0,0,2.68,1.18A10.94,10.94,0,0,1,15,73.94a2.17,2.17,0,0,1,.93,1.9,2.38,2.38,0,0,1-1.1,2,4.63,4.63,0,0,1-2.72.77,5.22,5.22,0,0,1-2.9-.79A2.67,2.67,0,0,1,8,75.39v0H8.39a2.4,2.4,0,0,0,1.12,2.21,4.87,4.87,0,0,0,2.6.69,4.11,4.11,0,0,0,2.43-.68A2,2,0,0,0,15.51,75.86Z" transform="translate(-8.03 -6.67)"/><path class="cls-1" d="M22.85,72.87H17.46v5.22h6.18V78.5H17V67.29h6.59v0.42H17.46v4.74h5.39v0.42Z" transform="translate(-8.03 -6.67)"/><path class="cls-1" d="M31.1,75.86a1.84,1.84,0,0,0-.79-1.55,10,10,0,0,0-2.69-1.21,9.87,9.87,0,0,1-2.79-1.22,2.21,2.21,0,0,1-.9-1.92,2.43,2.43,0,0,1,1.05-2,4.35,4.35,0,0,1,2.67-.78,4,4,0,0,1,2.7.86,2.9,2.9,0,0,1,1,2.41v0H31A2.67,2.67,0,0,0,30,68.37a3.46,3.46,0,0,0-2.4-.82,3.76,3.76,0,0,0-2.41.71,2.11,2.11,0,0,0-.89,1.68,2,2,0,0,0,.72,1.57,7.93,7.93,0,0,0,2.68,1.18,10.94,10.94,0,0,1,2.84,1.25,2.17,2.17,0,0,1,.93,1.9,2.38,2.38,0,0,1-1.1,2,4.63,4.63,0,0,1-2.72.77,5.22,5.22,0,0,1-2.9-.79,2.67,2.67,0,0,1-1.18-2.48v0H24a2.4,2.4,0,0,0,1.12,2.21,4.87,4.87,0,0,0,2.6.69,4.11,4.11,0,0,0,2.43-.68A2,2,0,0,0,31.1,75.86Z" transform="translate(-8.03 -6.67)"/><path class="cls-1" d="M38.54,75.15H33.07L31.81,78.5H31.36l4.19-11.21h0.51l4.2,11.21H39.8Zm-5.32-.42h5.17L36,68.46l-0.22-.65h0l-0.21.65Z" transform="translate(-8.03 -6.67)"/><path class="cls-1" d="M46,77.84h0l4.68-10.55h0.47V78.5H50.82V68.31h0L46.23,78.5H45.9L41.25,68.08h0V78.5H40.79V67.29h0.58Z" transform="translate(-8.03 -6.67)"/><path class="cls-1" d="M58.86,72.87H53.47v5.22h6.18V78.5H53.05V67.29h6.59v0.42H53.47v4.74h5.39v0.42Z" transform="translate(-8.03 -6.67)"/><path class="cls-1" d="M34.35,46.56h0a2.1,2.1,0,0,1-.9-0.2,4.34,4.34,0,0,1-1.71-1.73l-0.05-.09a1.26,1.26,0,0,1-.27-1.17,1.35,1.35,0,0,1,1.21-.54l0.32,0c0.2,0,.42,0,0.66,0a3.2,3.2,0,0,1,1.41.29,2.18,2.18,0,0,1,1,1.05,1.71,1.71,0,0,1,0,1.47,1.87,1.87,0,0,1-1.72,1h0Zm-0.74-3.09c-0.22,0-.42,0-0.6,0l-0.34,0a0.75,0.75,0,0,0-.62.15,1,1,0,0,0,.23.5l0.06,0.1a3.64,3.64,0,0,0,1.41,1.46,1.41,1.41,0,0,0,.6.13h0a1.18,1.18,0,0,0,1.09-.57,1.06,1.06,0,0,0,0-.88,1.5,1.5,0,0,0-.69-0.72,2.52,2.52,0,0,0-1.11-.22h0Z" transform="translate(-8.03 -6.67)"/><path class="cls-1" d="M34.74,52.16h0a1.71,1.71,0,0,1-1.46-.72A1.92,1.92,0,0,1,34,48.93a4,4,0,0,1,2.21-.52h0.26a1.09,1.09,0,0,1,1,.37A1.29,1.29,0,0,1,37.22,50l-0.14.26a3.64,3.64,0,0,1-1.23,1.54,2.06,2.06,0,0,1-1.11.32h0ZM36.2,49.1a3.47,3.47,0,0,0-1.87.41,1.24,1.24,0,0,0-.47,1.55,1.28,1.28,0,0,0,1.61.2,3,3,0,0,0,1-1.27l0.15-.29a0.76,0.76,0,0,0,.19-0.55,0.67,0.67,0,0,0-.37-0.05H36.2Z" transform="translate(-8.03 -6.67)"/><path class="cls-1" d="M27.32,51.53a1.89,1.89,0,0,1-1-.27,4.16,4.16,0,0,1-1.49-1.8l0-.09a1.22,1.22,0,0,1-.16-1.15,1.16,1.16,0,0,1,1-.43h0.49a3.72,3.72,0,0,1,2,.42,2,2,0,0,1,.8,2.51,1.74,1.74,0,0,1-1.54.79h0Zm-1.7-3a0.59,0.59,0,0,0-.43.09,1.25,1.25,0,0,0,.18.48l0.05,0.1a3.47,3.47,0,0,0,1.22,1.51,1.37,1.37,0,0,0,.69.18h0a1.07,1.07,0,0,0,.95-0.45,1.27,1.27,0,0,0-.55-1.56,3.09,3.09,0,0,0-1.61-.33H25.62Z" transform="translate(-8.03 -6.67)"/><path class="cls-1" d="M29,40.74a5.93,5.93,0,0,1-1.68-.28l-0.11,0a1.35,1.35,0,0,1-1.06-.73,1.47,1.47,0,0,1,.58-1.31l0.24-.25a4.22,4.22,0,0,1,1.87-1.31,2.17,2.17,0,0,1,.63-0.09,2.08,2.08,0,0,1,2,1.34,2.19,2.19,0,0,1-1.54,2.53,3.37,3.37,0,0,1-1,.14h0Zm0.47-3.32a1.51,1.51,0,0,0-.43.06,3.6,3.6,0,0,0-1.56,1.12l-0.26.27a0.84,0.84,0,0,0-.4.62,1.25,1.25,0,0,0,.58.26l0.13,0a4.44,4.44,0,0,0,2.26.15,1.52,1.52,0,0,0,1.08-1.67,1.42,1.42,0,0,0-1.39-.85h0Z" transform="translate(-8.03 -6.67)"/><path class="cls-1" d="M36.72,32h0A2,2,0,0,1,35,31.1a1.93,1.93,0,0,1-.15-1.65,2.46,2.46,0,0,1,1-1.31,4.59,4.59,0,0,1,2.49-.59h0.34a1.42,1.42,0,0,1,1.28.44,1.52,1.52,0,0,1-.23,1.47l-0.18.32A4.43,4.43,0,0,1,38,31.62a2.44,2.44,0,0,1-1.28.35h0Zm1.59-3.73a3.93,3.93,0,0,0-2.12.48,1.79,1.79,0,0,0-.72.94,1.25,1.25,0,0,0,.08,1.06,1.34,1.34,0,0,0,1.17.55h0A1.74,1.74,0,0,0,37.63,31a3.8,3.8,0,0,0,1.28-1.57l0.19-.35a0.89,0.89,0,0,0,.24-0.75,1.19,1.19,0,0,0-.65-0.11H38.31Z" transform="translate(-8.03 -6.67)"/><path class="cls-1" d="M52.48,19.57h0a0.71,0.71,0,0,1-.39-0.11,1.3,1.3,0,0,1-.39-1.22c0-.09,0-0.19,0-0.3A3.69,3.69,0,0,1,52.19,16a2,2,0,0,1,2.52-.73,1.94,1.94,0,0,1,.45,2.58,4.13,4.13,0,0,1-1.82,1.43l-0.09,0a1.83,1.83,0,0,1-.76.23h0Zm1.41-3.82a1.38,1.38,0,0,0-1.12.63A3.06,3.06,0,0,0,52.41,18c0,0.12,0,.23,0,0.33a0.77,0.77,0,0,0,.07.58h0a1.38,1.38,0,0,0,.46-0.16l0.1,0a3.44,3.44,0,0,0,1.53-1.17,1.26,1.26,0,0,0-.23-1.63,0.83,0.83,0,0,0-.45-0.12h0Z" transform="translate(-8.03 -6.67)"/><path class="cls-1" d="M45.42,13.61h0a0.81,0.81,0,0,1-.59-0.21,1.34,1.34,0,0,1-.12-1.31c0-.09.05-0.19,0.08-0.3a3.81,3.81,0,0,1,.9-1.85,2,2,0,0,1,2.69-.18,1.69,1.69,0,0,1,.47,1.37,2.16,2.16,0,0,1-.58,1.32,4.27,4.27,0,0,1-2.16,1l-0.1,0a2.5,2.5,0,0,1-.59.09h0Zm-0.11-.71a0.22,0.22,0,0,0,.11,0h0a2,2,0,0,0,.43-0.07l0.11,0A3.58,3.58,0,0,0,47.78,12a1.48,1.48,0,0,0,.39-0.89,1,1,0,0,0-.26-0.82A1,1,0,0,0,47.21,10a1.47,1.47,0,0,0-1,.42A3.18,3.18,0,0,0,45.46,12c0,0.12-.06.23-0.09,0.33a0.75,0.75,0,0,0-.06.62h0Z" transform="translate(-8.03 -6.67)"/><path class="cls-1" d="M31.24,10.59a2.93,2.93,0,0,1-.4,0l-0.3,0a3.66,3.66,0,0,1-1.9-.58,1.93,1.93,0,0,1-.57-2.55,1.68,1.68,0,0,1,1.41-.66,2.07,2.07,0,0,1,1.19.37A4.13,4.13,0,0,1,32,9l0,0.09a1.21,1.21,0,0,1,.06,1.15,1,1,0,0,1-.84.35h0ZM29.47,7.42a1,1,0,0,0-.84.37A1.25,1.25,0,0,0,29,9.38a3.08,3.08,0,0,0,1.56.46l0.33,0,0.31,0a0.43,0.43,0,0,0,.28-0.06,1.25,1.25,0,0,0-.13-0.49l0-.11a3.44,3.44,0,0,0-1.08-1.59,1.39,1.39,0,0,0-.79-0.24h0Z" transform="translate(-8.03 -6.67)"/><path class="cls-1" d="M18.93,16h0a1.57,1.57,0,0,1-.31,0,2.08,2.08,0,0,1-1.42-2.42,4.49,4.49,0,0,1,1.31-2.14l0.07-.08a1.32,1.32,0,0,1,1.1-.56,1.39,1.39,0,0,1,.84,1.08l0.1,0.31a4,4,0,0,1,.26,2.14A2.14,2.14,0,0,1,18.93,16h0Zm0.61-4.56a1.22,1.22,0,0,0-.46.36L19,11.91a3.78,3.78,0,0,0-1.12,1.79,1.4,1.4,0,0,0,.88,1.61,1.39,1.39,0,0,0,1.44-1.14A3.37,3.37,0,0,0,20,12.4c0-.12-0.08-0.23-0.11-0.34a0.78,0.78,0,0,0-.31-0.59h0Z" transform="translate(-8.03 -6.67)"/><path class="cls-1" d="M14.41,28H14.25A4.31,4.31,0,0,1,12,27l-0.09-.06a1.28,1.28,0,0,1-.67-1,1.37,1.37,0,0,1,1-.94l0.29-.13a4,4,0,0,1,2-.49,2.19,2.19,0,0,1,1.34.63,1.73,1.73,0,0,1,.55,1.37,2,2,0,0,1-2,1.67h0Zm-0.09-3a3.48,3.48,0,0,0-1.51.44l-0.32.14a0.78,0.78,0,0,0-.53.36,0.87,0.87,0,0,0,.4.39l0.1,0.07a3.69,3.69,0,0,0,1.86.88,1.34,1.34,0,0,0,1.45-1,1.08,1.08,0,0,0-.35-0.82A1.53,1.53,0,0,0,14.5,25H14.31Z" transform="translate(-8.03 -6.67)"/><path class="cls-1" d="M20,33.77h0a5.17,5.17,0,0,1-1.62-.31l-0.1,0a1.25,1.25,0,0,1-.95-0.71,1.34,1.34,0,0,1,.57-1.19l0.22-.21a3.8,3.8,0,0,1,1.72-1.12,2,2,0,0,1,2.4,1.23,1.69,1.69,0,0,1-.3,1.41,2.15,2.15,0,0,1-1.18.83,3,3,0,0,1-.76.09h0Zm0.35-2.94a1.28,1.28,0,0,0-.33,0,3.17,3.17,0,0,0-1.41.94L18.38,32a0.75,0.75,0,0,0-.37.5,1.23,1.23,0,0,0,.49.23l0.11,0a4.52,4.52,0,0,0,1.4.27h0A2.29,2.29,0,0,0,20.6,33a1.47,1.47,0,0,0,.79-0.56,1,1,0,0,0,.2-0.84,1.25,1.25,0,0,0-1.22-.78h0Z" transform="translate(-8.03 -6.67)"/><path class="cls-1" d="M18.69,43.4h0a0.78,0.78,0,0,1-.49-0.15,1.37,1.37,0,0,1-.27-1.31c0-.1,0-0.2,0-0.32a3.89,3.89,0,0,1,.7-2,2.09,2.09,0,0,1,2.71-.49,2,2,0,0,1,.2,2.74,4.31,4.31,0,0,1-2.07,1.31l-0.1,0a2.17,2.17,0,0,1-.72.17h0Zm1.68-3.9a1.52,1.52,0,0,0-1.15.56,3.27,3.27,0,0,0-.56,1.65c0,0.12,0,.24-0.05.34a0.77,0.77,0,0,0,0,.64h0.06a1.67,1.67,0,0,0,.48-0.13l0.11,0A3.68,3.68,0,0,0,21,41.46,1.36,1.36,0,0,0,21,39.68a1,1,0,0,0-.59-0.19h0Z" transform="translate(-8.03 -6.67)"/><path class="cls-1" d="M36,38.73h0a0.76,0.76,0,0,1-.35-0.08,1.43,1.43,0,0,1-.52-1.3c0-.1,0-0.22,0-0.34a4.11,4.11,0,0,1,.35-2.19,2.17,2.17,0,0,1,2.7-1,2.14,2.14,0,0,1,.72,2.8A4.62,4.62,0,0,1,37,38.35l-0.1.06a1.86,1.86,0,0,1-.89.33h0Zm1.41-4.43a1.61,1.61,0,0,0-1.33.83A3.48,3.48,0,0,0,35.85,37c0,0.13,0,.26,0,0.37A0.82,0.82,0,0,0,36,38h0a1.45,1.45,0,0,0,.53-0.23l0.11-.06a3.91,3.91,0,0,0,1.63-1.47,1.46,1.46,0,0,0-.42-1.86,1,1,0,0,0-.44-0.1h0Z" transform="translate(-8.03 -6.67)"/><path class="cls-1" d="M42.37,34.52h0a0.86,0.86,0,0,1-.66-0.25,1.36,1.36,0,0,1-.05-1.34l0.1-.31a3.9,3.9,0,0,1,1-1.84,2.22,2.22,0,0,1,1.48-.56,1.71,1.71,0,0,1,1.28.52,1.73,1.73,0,0,1,.41,1.42,2.2,2.2,0,0,1-.66,1.32,4.32,4.32,0,0,1-2.26,1l-0.1,0a3,3,0,0,1-.54.06h0Zm1.88-3.61a1.51,1.51,0,0,0-1,.38,3.28,3.28,0,0,0-.83,1.54l-0.11.33a0.77,0.77,0,0,0-.09.64,0.27,0.27,0,0,0,.15,0h0a2.25,2.25,0,0,0,.41-0.05l0.12,0A3.7,3.7,0,0,0,44.8,33a1.52,1.52,0,0,0,.45-0.9A1.07,1.07,0,0,0,45,31.21a1,1,0,0,0-.77-0.3h0Z" transform="translate(-8.03 -6.67)"/><path class="cls-1" d="M53.86,29h0a0.67,0.67,0,0,1-.25,0A1.29,1.29,0,0,1,53,27.83c0-.09,0-0.19,0-0.29a3.65,3.65,0,0,1,.1-2,2,2,0,0,1,2.31-1.18,1.92,1.92,0,0,1,.92,2.43,4,4,0,0,1-1.51,1.73l-0.08.06a1.51,1.51,0,0,1-.85.38h0Zm1-4a1.33,1.33,0,0,0-1.14.83,3,3,0,0,0-.06,1.61c0,0.11,0,.22,0,0.32a0.75,0.75,0,0,0,.17.55h0a1.23,1.23,0,0,0,.43-0.24L54.38,28a3.41,3.41,0,0,0,1.27-1.42A1.24,1.24,0,0,0,55.12,25,0.76,0.76,0,0,0,54.84,25h0Z" transform="translate(-8.03 -6.67)"/><path class="cls-1" d="M50.56,47.54h0A1.85,1.85,0,0,1,49,46.79a1.77,1.77,0,0,1-.19-1.51A2.26,2.26,0,0,1,49.7,44a4.44,4.44,0,0,1,2.45-.61h0.32a1.14,1.14,0,0,1,1,.38,1.4,1.4,0,0,1-.16,1.36l-0.15.3a4,4,0,0,1-1.33,1.71,2.24,2.24,0,0,1-1.24.36h0Zm1.9-3.42H52.16a3.81,3.81,0,0,0-2.07.5,1.58,1.58,0,0,0-.6.85,1.09,1.09,0,0,0,.1.93,1.17,1.17,0,0,0,1,.45h0a1.56,1.56,0,0,0,.85-0.25,3.38,3.38,0,0,0,1.09-1.44l0.16-.32a0.8,0.8,0,0,0,.19-0.65,0.56,0.56,0,0,0-.4-0.07h0Z" transform="translate(-8.03 -6.67)"/><path class="cls-1" d="M29.93,33.93a5.16,5.16,0,0,1-2.25-.63l-0.1,0a1.37,1.37,0,0,1-.94-0.91,1.44,1.44,0,0,1,.8-1.2l0.29-.21a4.29,4.29,0,0,1,2.09-1,2.21,2.21,0,0,1,2.46,1.71,2.22,2.22,0,0,1-2,2.26l-0.38,0h0Zm0.15-3.32H29.9a3.67,3.67,0,0,0-1.76.86l-0.31.23a0.85,0.85,0,0,0-.51.55,1.25,1.25,0,0,0,.54.37L28,32.68a4.11,4.11,0,0,0,2.24.54,1.55,1.55,0,0,0,1.37-1.49,1.5,1.5,0,0,0-1.52-1.12h0Z" transform="translate(-8.03 -6.67)"/><path class="cls-1" d="M33.44,17.15a0.81,0.81,0,0,1-.58-0.21,1.33,1.33,0,0,1-.13-1.31c0-.09.05-0.19,0.08-0.3a3.81,3.81,0,0,1,.89-1.85,2,2,0,0,1,2.68-.2,1.69,1.69,0,0,1,.48,1.37A2.15,2.15,0,0,1,36.28,16,4.26,4.26,0,0,1,34.14,17l-0.1,0a2.52,2.52,0,0,1-.6.1h0Zm-0.1-.71a2.75,2.75,0,0,0,.53-0.06l0.11,0a3.56,3.56,0,0,0,1.8-.86,1.47,1.47,0,0,0,.38-0.89,1,1,0,0,0-.27-0.82,1,1,0,0,0-.68-0.24,1.47,1.47,0,0,0-1,.42,3.18,3.18,0,0,0-.71,1.54c0,0.12-.06.23-0.09,0.33a0.76,0.76,0,0,0-.06.61h0Z" transform="translate(-8.03 -6.67)"/><path class="cls-1" d="M27,18.7h0a1.5,1.5,0,0,1-.59-0.12,1.68,1.68,0,0,1-.93-1.1A2.14,2.14,0,0,1,25.52,16a4.25,4.25,0,0,1,1.62-1.74l0.09-.06a1.31,1.31,0,0,1,1.14-.31A1.33,1.33,0,0,1,29,15.1c0,0.09,0,.2,0,0.31a3.78,3.78,0,0,1-.17,2A2.09,2.09,0,0,1,27,18.7h0Zm1.11-4.13a1.25,1.25,0,0,0-.47.24l-0.1.07a3.55,3.55,0,0,0-1.37,1.44,1.46,1.46,0,0,0,0,1,1,1,0,0,0,.54.66,1.32,1.32,0,0,0,1.52-.77,3.16,3.16,0,0,0,.12-1.68c0-.12,0-0.23,0-0.34a0.76,0.76,0,0,0-.17-0.59h0Z" transform="translate(-8.03 -6.67)"/><path class="cls-1" d="M39.31,10.9h0a2.22,2.22,0,0,1-.71-0.15l-0.29-.09a3.71,3.71,0,0,1-1.75-1A2.1,2.1,0,0,1,36,8.37,1.65,1.65,0,0,1,36.52,7a2,2,0,0,1,2.62.25A4.17,4.17,0,0,1,40,9.45l0,0.1a1.22,1.22,0,0,1-.18,1.15,0.82,0.82,0,0,1-.57.2h0ZM37.62,7.33a0.92,0.92,0,0,0-.63.22,1,1,0,0,0-.28.78,1.42,1.42,0,0,0,.35.87,3.08,3.08,0,0,0,1.45.78l0.31,0.1a1.69,1.69,0,0,0,.48.11,0.19,0.19,0,0,0,.11,0,1.25,1.25,0,0,0,0-.51l0-.11a3.48,3.48,0,0,0-.73-1.8,1.43,1.43,0,0,0-1-.43h0Z" transform="translate(-8.03 -6.67)"/><path class="cls-1" d="M42.31,23.33h0A0.92,0.92,0,0,1,41.56,23a1.4,1.4,0,0,1,0-1.37l0.12-.31a4,4,0,0,1,1.14-1.84,2.25,2.25,0,0,1,1.43-.5A1.68,1.68,0,0,1,46,21.1a2.25,2.25,0,0,1-.75,1.31,4.49,4.49,0,0,1-2.37.86H42.77a3.32,3.32,0,0,1-.47,0h0Zm2-3.61a1.57,1.57,0,0,0-1,.34,3.37,3.37,0,0,0-.93,1.54l-0.13.33a0.79,0.79,0,0,0-.13.66,0.33,0.33,0,0,0,.21,0h0a2.63,2.63,0,0,0,.37,0H42.8a3.78,3.78,0,0,0,2-.7A1.57,1.57,0,0,0,45.31,21a1,1,0,0,0-1.05-1.26h0Z" transform="translate(-8.03 -6.67)"/><path class="cls-1" d="M48.39,26.88h0a2,2,0,0,1-.74-0.14,4.24,4.24,0,0,1-1.79-1.58l-0.06-.08A1.24,1.24,0,0,1,45.45,24a1.34,1.34,0,0,1,1.16-.62l0.31,0a6,6,0,0,1,.93-0.09,3,3,0,0,1,1.12.2,2.15,2.15,0,0,1,1.07,1,1.68,1.68,0,0,1,.13,1.44,1.86,1.86,0,0,1-1.77,1.07h0Zm-0.55-3A5.47,5.47,0,0,0,47,24l-0.34,0a0.77,0.77,0,0,0-.59.18,1.24,1.24,0,0,0,.26.47l0.07,0.09A3.56,3.56,0,0,0,47.9,26.1a1.35,1.35,0,0,0,.49.09h0a1.19,1.19,0,0,0,1.13-.63,1,1,0,0,0-.1-0.85A1.46,1.46,0,0,0,48.71,24a2.33,2.33,0,0,0-.86-0.15h0Z" transform="translate(-8.03 -6.67)"/><path class="cls-1" d="M45.64,41.55h0a0.81,0.81,0,0,1-.58-0.21A1.35,1.35,0,0,1,44.92,40c0-.09.05-0.2,0.08-0.31a3.84,3.84,0,0,1,.88-1.88,2.07,2.07,0,0,1,2.71-.22,2,2,0,0,1-.07,2.72,4.32,4.32,0,0,1-2.17,1.09l-0.1,0a2.51,2.51,0,0,1-.61.1h0Zm1.8-3.68a1.49,1.49,0,0,0-1.05.44,3.22,3.22,0,0,0-.71,1.57c0,0.12-.06.23-0.08,0.33a0.76,0.76,0,0,0-.05.63,2.28,2.28,0,0,0,.54-0.06l0.11,0A3.62,3.62,0,0,0,48,39.86a1.34,1.34,0,0,0,.1-1.74,1,1,0,0,0-.68-0.24h0Z" transform="translate(-8.03 -6.67)"/><path class="cls-1" d="M52.66,39.48h0a6,6,0,0,1-1.23-.14l-0.1,0a1.28,1.28,0,0,1-1-.6,1.37,1.37,0,0,1,.44-1.27l0.2-.25a3.89,3.89,0,0,1,1.61-1.35,2.06,2.06,0,0,1,.76-0.14,1.91,1.91,0,0,1,1.81,1.1,2,2,0,0,1-1.23,2.46,3.29,3.29,0,0,1-1.22.21h0Zm0.63-3.07a1.41,1.41,0,0,0-.51.09,3.28,3.28,0,0,0-1.33,1.13l-0.22.27a0.77,0.77,0,0,0-.32.56,1,1,0,0,0,.53.18l0.11,0a5.39,5.39,0,0,0,1.09.13h0a2.62,2.62,0,0,0,1-.16,1.35,1.35,0,0,0,.84-1.56,1.23,1.23,0,0,0-1.17-.66h0Z" transform="translate(-8.03 -6.67)"/><path class="cls-1" d="M42.47,48.79h0a1.51,1.51,0,0,1-.66-0.15,1.67,1.67,0,0,1-.87-1.14,2.12,2.12,0,0,1,.13-1.42,4.21,4.21,0,0,1,1.69-1.64l0.09-.05A1.31,1.31,0,0,1,44,44.14a1.32,1.32,0,0,1,.52,1.19c0,0.09,0,.2,0,0.31a3.75,3.75,0,0,1-.27,2,2.08,2.08,0,0,1-1.79,1.15h0Zm1.22-4a1.26,1.26,0,0,0-.47.22l-0.1.06a3.51,3.51,0,0,0-1.42,1.35,1.43,1.43,0,0,0-.09.95,1,1,0,0,0,.5.68,0.8,0.8,0,0,0,.36.08h0a1.4,1.4,0,0,0,1.17-.76,3.12,3.12,0,0,0,.2-1.65c0-.12,0-0.23,0-0.33a0.75,0.75,0,0,0-.13-0.59h0Z" transform="translate(-8.03 -6.67)"/><path class="cls-1" d="M35.78,24.59h0a1.66,1.66,0,0,1-.56-0.1,2.21,2.21,0,0,1-1.12-2.77,4.81,4.81,0,0,1,1.72-2.07l0.09-.07a1.44,1.44,0,0,1,1.23-.42,1.48,1.48,0,0,1,.71,1.26c0,0.11,0,.22.06,0.35a4.28,4.28,0,0,1-.06,2.31,2.33,2.33,0,0,1-2.07,1.52h0Zm1.12-4.78a1.32,1.32,0,0,0-.57.32l-0.1.08A4.1,4.1,0,0,0,34.74,22a1.54,1.54,0,0,0,.71,1.89,1.55,1.55,0,0,0,1.75-1,3.66,3.66,0,0,0,0-2c0-.14,0-0.26-0.06-0.38a0.86,0.86,0,0,0-.26-0.7h0Z" transform="translate(-8.03 -6.67)"/><path class="cls-1" d="M20.83,22.43h0A2.14,2.14,0,0,1,20,22.26a4.45,4.45,0,0,1-1.81-1.71l-0.06-.09a1.29,1.29,0,0,1-.32-1.18,1.38,1.38,0,0,1,1.22-.6l0.32,0a6.92,6.92,0,0,1,.84-0.06,3.19,3.19,0,0,1,1.29.25,2.06,2.06,0,0,1,1.17,2.53,1.91,1.91,0,0,1-1.8,1.06h0Zm-0.65-3.14a6.47,6.47,0,0,0-.76.06l-0.35,0a0.79,0.79,0,0,0-.64.18,0.88,0.88,0,0,0,.26.51l0.07,0.1a3.75,3.75,0,0,0,1.51,1.45,1.46,1.46,0,0,0,.57.11A1.26,1.26,0,0,0,22,21.1a1.39,1.39,0,0,0-.81-1.62,2.51,2.51,0,0,0-1-.19h0Z" transform="translate(-8.03 -6.67)"/><path class="cls-1" d="M24.68,26.61h0A4.47,4.47,0,0,1,22.57,26l-0.09,0A1.26,1.26,0,0,1,21.67,25,1.34,1.34,0,0,1,22.44,24l0.26-.17A3.84,3.84,0,0,1,24.61,23a2,2,0,0,1,2.16,1.64,2,2,0,0,1-1.87,2H24.68Zm0.08-2.93h-0.1a3.21,3.21,0,0,0-1.57.69l-0.28.19a0.76,0.76,0,0,0-.46.43,1,1,0,0,0,.44.31l0.1,0.06a3.85,3.85,0,0,0,1.78.56h0.16a1.33,1.33,0,0,0,1.23-1.22,1.32,1.32,0,0,0-1.32-1h0Z" transform="translate(-8.03 -6.67)"/></svg>