<svg id="Layer_1" data-name="Layer 1" xmlns="http://www.w3.org/2000/svg" viewBox="0 0 46.42 72"><defs><style>.cls-1{fill:#010101;}</style></defs><title>sugar_icon</title><path class="cls-1" d="M21.82,78.46A1.81,1.81,0,0,0,21,76.94a9.77,9.77,0,0,0-2.63-1.19,9.67,9.67,0,0,1-2.73-1.2,2.16,2.16,0,0,1-.88-1.88,2.38,2.38,0,0,1,1-2,4.27,4.27,0,0,1,2.61-.76,4,4,0,0,1,2.64.84,2.84,2.84,0,0,1,1,2.36l0,0H21.69a2.61,2.61,0,0,0-.9-2,3.39,3.39,0,0,0-2.34-.81,3.68,3.68,0,0,0-2.36.7,2.06,2.06,0,0,0-.87,1.65,1.92,1.92,0,0,0,.71,1.54,7.78,7.78,0,0,0,2.63,1.16,10.66,10.66,0,0,1,2.78,1.22,2.12,2.12,0,0,1,.91,1.86,2.33,2.33,0,0,1-1.08,2,4.53,4.53,0,0,1-2.66.75,5.1,5.1,0,0,1-2.84-.77A2.61,2.61,0,0,1,14.5,78l0,0h0.34A2.35,2.35,0,0,0,16,80.12a4.76,4.76,0,0,0,2.54.67,4,4,0,0,0,2.38-.67A2,2,0,0,0,21.82,78.46Z" transform="translate(-12.83 -9.2)"/><path class="cls-1" d="M30.71,70.06v7.29a3.76,3.76,0,0,1-1,2.83,3.71,3.71,0,0,1-2.7,1,3.71,3.71,0,0,1-2.71-1,3.76,3.76,0,0,1-1-2.82V70.06h0.41v7.29a3.36,3.36,0,0,0,.95,2.5,3.53,3.53,0,0,0,4.79,0,3.36,3.36,0,0,0,.95-2.5V70.06h0.41Z" transform="translate(-12.83 -9.2)"/><path class="cls-1" d="M40.11,79.56a3.3,3.3,0,0,1-1.33,1.11,5.09,5.09,0,0,1-2.42.52,3.87,3.87,0,0,1-3.06-1.34,5.11,5.11,0,0,1-1.17-3.49V74.57a4.92,4.92,0,0,1,1.14-3.37,3.75,3.75,0,0,1,3-1.3,4.13,4.13,0,0,1,2.8.9,2.82,2.82,0,0,1,1,2.32l0,0H39.69a2.64,2.64,0,0,0-.9-2.06,3.71,3.71,0,0,0-2.55-.8,3.35,3.35,0,0,0-2.68,1.19,4.55,4.55,0,0,0-1,3.06v1.81a4.76,4.76,0,0,0,1,3.19,3.46,3.46,0,0,0,2.77,1.23,4.85,4.85,0,0,0,2.18-.43,2.62,2.62,0,0,0,1.16-1V76.25H36.35V75.84h3.76v3.72Z" transform="translate(-12.83 -9.2)"/><path class="cls-1" d="M47.7,77.76H42.34L41.11,81H40.67l4.1-11h0.5l4.11,11H48.93Zm-5.21-.41h5.06l-2.3-6.14L45,70.57h0l-0.2.64Z" transform="translate(-12.83 -9.2)"/><path class="cls-1" d="M50.27,75.89V81H49.86v-11h3.57a4.17,4.17,0,0,1,2.67.75A2.64,2.64,0,0,1,57,73a2.67,2.67,0,0,1-.59,1.69,2.72,2.72,0,0,1-1.62,1,2.6,2.6,0,0,1,1.7.87,2.69,2.69,0,0,1,.51,1.7v1a3.13,3.13,0,0,0,.12.92,1.42,1.42,0,0,0,.41.66V81h-0.4a2,2,0,0,1-.41-0.76,3.57,3.57,0,0,1-.14-1v-1a2.12,2.12,0,0,0-.77-1.74,3.36,3.36,0,0,0-2.18-.63H50.27Zm0-.41h3.09a3.65,3.65,0,0,0,2.48-.71,2.48,2.48,0,0,0,0-3.65,3.73,3.73,0,0,0-2.39-.65H50.27v5Z" transform="translate(-12.83 -9.2)"/><path class="cls-1" d="M59.24,17a0.33,0.33,0,0,0,0-.08,0.31,0.31,0,0,0,0-.08l0,0A0.32,0.32,0,0,0,59,16.7h0L36.14,9.22a0.34,0.34,0,0,0-.21,0L13.06,16.68h0a0.32,0.32,0,0,0-.14.1l0,0a0.21,0.21,0,0,0,0,.15V47.8a0.34,0.34,0,0,0,.23.32l22.87,7.47,0.11,0,0.11,0L59,48.12a0.34,0.34,0,0,0,.23-0.32V17ZM36,9.89L57.8,17,36,23.88,14.28,17ZM13.51,17.47l22.19,7V54.8L13.51,47.55V17.47ZM36.38,54.8V24.48l22.19-7V47.55Z" transform="translate(-12.83 -9.2)"/></svg>